<?xml version="1.0" standalone="no"?>
<!DOCTYPE svg PUBLIC "-//W3C//DTD SVG 1.1//EN" "http://www.w3.org/Graphics/SVG/1.1/DTD/svg11.dtd" >
<svg>
<metadata>
Created by FontForge 20090914 at Fri Jun 29 08:17:16 2018
 By www-data
&#194;&#169; 2016 Klim Type Foundry. All Rights Reserved.
</metadata>
<defs>
<font id="Sohne-Halbfett" horiz-adv-x="600" >
  <font-face 
    font-family="Söhne Halbfett"
    font-weight="600"
    font-stretch="normal"
    units-per-em="1000"
    panose-1="2 11 7 3 3 2 2 6 2 3"
    ascent="800"
    descent="-200"
    x-height="526"
    cap-height="718"
    bbox="-213 -207.005 993 1014"
    underline-thickness="108"
    underline-position="-28"
    unicode-range="U+000D-U+F6C3"
  />
<missing-glyph horiz-adv-x="608" 
 />
    <glyph glyph-name="f_idieresis" unicode="f&#xef;" horiz-adv-x="579" 
d="M293 728c16 0 33.167 -1.16895 51.5 -3.50195s34.833 -5.16602 49.5 -8.49902v-114c-16 3.33301 -32.667 5.83301 -50 7.5s-33 2.5 -47 2.5c-28.667 0 -49.5 -5.33301 -62.5 -16s-19.5 -27 -19.5 -49v-21h102v-117h-102v-409h-140v409h-71v117h71v28
c0 56.667 18.5 99.834 55.5 129.501s91.167 44.5 162.5 44.5zM617 587.998h-140v130h140v-130zM381 525.998h140v-526h-140v526z" />
    <glyph glyph-name=".notdef" horiz-adv-x="608" 
 />
    <glyph glyph-name=".null" horiz-adv-x="0" 
 />
    <glyph glyph-name=".null" horiz-adv-x="0" 
 />
    <glyph glyph-name="uni000D" unicode="&#xd;" horiz-adv-x="202" 
 />
    <glyph glyph-name="space" unicode=" " horiz-adv-x="202" 
 />
    <glyph glyph-name="exclam" unicode="!" horiz-adv-x="237" 
d="M172 224h-107l-34 494h175zM201 0h-164v160h164v-160z" />
    <glyph glyph-name="quotedbl" unicode="&#x22;" horiz-adv-x="389" 
d="M147 424h-97l-31 294h159zM339 424h-97l-31 294h159z" />
    <glyph glyph-name="numbersign" unicode="#" horiz-adv-x="689" 
d="M194 0h-122l44 185h-88v107h114l31 134h-116v107h142l44 185h123l-44 -185h129l44 185h122l-44 -185h88v-107h-113l-32 -134h117v-107h-142l-44 -185h-124l44 185h-129zM296 426l-32 -134h129l32 134h-129z" />
    <glyph glyph-name="dollar" unicode="$" horiz-adv-x="601" 
d="M-1 131l96.001 95c21.333 -32 45.5 -57.167 72.5 -75.5s57.5 -30.5 91.5 -36.5v198c-39.333 7.33301 -70.833 15.166 -94.5 23.499s-43.834 18.5 -60.501 30.5c-23.333 16 -40.666 35.667 -51.999 59s-17 51 -17 83c0 57.333 20.5 105.5 61.5 144.5
s95.167 62.833 162.5 71.5v96h101v-96c49.333 -6 93.5 -19.667 132.5 -41s69.167 -48.333 90.5 -81l-92 -96c-16 25.333 -35.167 46.5 -57.5 63.5s-46.833 28.833 -73.5 35.5v-185c40 -7.33301 72 -15.333 96 -24s44.333 -19 61 -31c24 -16.667 41.667 -37 53 -61
s17 -52.333 17 -85c0 -59.333 -20.667 -109.166 -62 -149.499s-96.333 -65.166 -165 -74.499v-99h-101v97c-57.333 5.33301 -108.833 20.166 -154.5 44.499s-80.834 55.5 -105.501 93.5zM166.001 519c0 -19.333 7.16699 -35.335 21.5 -48.002s38.166 -23 71.499 -31v168
c-29.333 -5.33301 -52.166 -15.666 -68.499 -30.999s-24.5 -34.666 -24.5 -57.999zM456.001 207.998c0 20.667 -7.5 37.667 -22.5 51s-39.5 24.333 -73.5 33v-178c32 5.33301 56 16 72 32s24 36.667 24 62z" />
    <glyph glyph-name="percent" unicode="%" horiz-adv-x="779" 
d="M177 350c-48 0 -85.833 17 -113.5 51s-41.5 80.333 -41.5 139c0 58 13.833 104 41.5 138s65.5 51 113.5 51c48.667 0 86.834 -17 114.501 -51s41.5 -80 41.5 -138c0 -58.667 -13.833 -105 -41.5 -139s-65.834 -51 -114.501 -51zM568 718h121l-479 -718h-121zM177 642
c-16 0 -28.333 -9 -37 -27s-13 -43 -13 -75s4.33301 -57 13 -75s21 -27 37 -27s28.5 9 37.5 27s13.5 43 13.5 75s-4.5 57 -13.5 75s-21.5 27 -37.5 27zM601 368c48.667 0 86.834 -17 114.501 -51s41.5 -80.333 41.5 -139c0 -58 -13.833 -104 -41.5 -138
s-65.834 -51 -114.501 -51c-48 0 -85.833 17 -113.5 51s-41.5 80 -41.5 138c0 58.667 13.833 105 41.5 139s65.5 51 113.5 51zM601 280c-16 0 -28.333 -9 -37 -27s-13 -43 -13 -75s4.33301 -57 13 -75s21 -27 37 -27s28.5 9 37.5 27s13.5 43 13.5 75s-4.5 57 -13.5 75
s-21.5 27 -37.5 27z" />
    <glyph glyph-name="ampersand" unicode="&#x26;" horiz-adv-x="714" 
d="M543 392l134.001 -21.9971c-5.33301 -40.667 -15.666 -80.167 -30.999 -118.5s-35 -73.5 -59 -105.5l147 -146h-183l-57 56c-31.333 -22 -65.5 -38.667 -102.5 -50s-75.5 -17 -115.5 -17c-75.333 0 -136.5 18.333 -183.5 55s-70.5 85 -70.5 145
c0 41.333 11 77.666 33 108.999s57.333 60.333 106 87c-25.333 27.333 -43.5 52.833 -54.5 76.5s-16.5 48.5 -16.5 74.5c0 28 5.83301 54.333 17.5 79s28.5 46 50.5 64c20.667 16 44 28.333 70 37s54 13 84 13c28 0 54.167 -3.83301 78.5 -11.5s46.166 -18.5 65.499 -32.5
c21.333 -16.667 37.666 -36.334 48.999 -59.001s17 -47 17 -73c0 -39.333 -11.667 -72.833 -35 -100.5s-64.666 -55.834 -123.999 -84.501l132 -131c12 22 22.167 46 30.5 72s14.166 53.667 17.499 83zM313.001 625.003c-24 0 -43.834 -7.5 -59.501 -22.5
s-23.5 -34.5 -23.5 -58.5c0 -16 3.83301 -31.167 11.5 -45.5s22.834 -32.833 45.501 -55.5c42 18 70 34.333 84 49s21 33.667 21 57c0 21.333 -7.33301 39.333 -22 54s-33.667 22 -57 22zM167 205.003c0 -30 11.334 -54.167 34.001 -72.5s51.667 -27.5 87 -27.5
c21.333 0 42.166 3 62.499 9s39.5 14.667 57.5 26l-171 168c-24.667 -14 -42.5 -29.167 -53.5 -45.5s-16.5 -35.5 -16.5 -57.5z" />
    <glyph glyph-name="quotesingle" unicode="'" horiz-adv-x="197" 
d="M147 424h-97l-31 294h159z" />
    <glyph glyph-name="parenleft" unicode="(" horiz-adv-x="338" 
d="M179 320c0 -74 14 -147.837 42 -221.504s67 -139.167 117 -196.5h-137c-56.667 58.667 -100.334 123.834 -131.001 195.501s-46 145.834 -46 222.501s15.333 150.834 46 222.501s74.334 136.834 131.001 195.501h137c-50 -58.667 -89 -124.5 -117 -197.5
s-42 -146.5 -42 -220.5z" />
    <glyph glyph-name="parenright" unicode=")" horiz-adv-x="338" 
d="M159 320c0 74 -14 147.504 -42 220.504s-67 138.833 -117 197.5h137c56.667 -58.667 100.334 -123.834 131.001 -195.501s46 -145.834 46 -222.501s-15.333 -150.834 -46 -222.501s-74.334 -136.834 -131.001 -195.501h-137c50 57.333 89 122.833 117 196.5
s42 147.5 42 221.5z" />
    <glyph glyph-name="asterisk" unicode="*" horiz-adv-x="453" 
d="M390 383l-78 -57l-85 117l-86 -117l-78 57l85 118l-138 44l30 92l138 -44v145h97v-145l139 44l29 -92l-139 -44z" />
    <glyph glyph-name="plus" unicode="+" horiz-adv-x="608" 
d="M566 402v-116h-205v-204h-115v204h-204v116h204v204h115v-204h205z" />
    <glyph glyph-name="comma" unicode="," horiz-adv-x="240" 
d="M107 0h-68.999v162h164v-159c0 -46 -14.667 -82.5 -44 -109.5s-69.333 -40.5 -120 -40.5v74c23.333 1.33301 40.666 7.5 51.999 18.5s17 26.833 17 47.5v7z" />
    <glyph glyph-name="hyphen" unicode="-" horiz-adv-x="368" 
d="M328 230h-288v125h288v-125z" />
    <glyph glyph-name="period" unicode="." horiz-adv-x="240" 
d="M202 0h-164v162h164v-162z" />
    <glyph glyph-name="slash" unicode="/" horiz-adv-x="452" 
d="M152 -98h-142l290 836h142z" />
    <glyph glyph-name="zero" unicode="0" horiz-adv-x="639" 
d="M320 -11c-89.333 0 -159.833 33.333 -211.5 100s-77.5 156.667 -77.5 270s25.833 203.333 77.5 270s122.167 100 211.5 100c88.667 0 158.834 -33.333 210.501 -100s77.5 -156.667 77.5 -270s-25.833 -203.333 -77.5 -270s-121.834 -100 -210.501 -100zM320 603
c-46 0 -81 -21 -105 -63s-36 -102.333 -36 -181s12 -139 36 -181s59 -63 105 -63c45.333 0 80 21.167 104 63.5s36 102.5 36 180.5s-12 138.167 -36 180.5s-58.667 63.5 -104 63.5z" />
    <glyph glyph-name="one" unicode="1" horiz-adv-x="402" 
d="M222 722l113 -0.000976562v-722h-148v484h-169v110l65 6c46.667 3.33301 80.5 14.333 101.5 33s33.5 48.334 37.5 89.001z" />
    <glyph glyph-name="two" unicode="2" horiz-adv-x="576" 
d="M36 0v113.001l186 153c34.667 28.667 59 49.334 73 62.001l37 34c22 23.333 38.167 45.166 48.5 65.499s15.5 40.833 15.5 61.5c0 34.667 -10 62.5 -30 83.5s-46.667 31.5 -80 31.5s-60.5 -11.333 -81.5 -34s-31.5 -51 -31.5 -85c0 -11.333 1 -22.666 3 -33.999
s5 -22.333 9 -33h-139c-4 13.333 -7 25.833 -9 37.5s-3 24.5 -3 38.5c0 33.333 6.66699 64.666 20 93.999s32.333 55 57 77c23.333 20.667 50.333 36.5 81 47.5s63 16.5 97 16.5c76 0 137.167 -21.167 183.5 -63.5s69.5 -97.833 69.5 -166.5
c0 -46.667 -13.5 -91.334 -40.5 -134.001s-74.167 -90.667 -141.5 -144l-117 -94h305v-127h-512z" />
    <glyph glyph-name="three" unicode="3" horiz-adv-x="580" 
d="M472 43c-22.667 -18 -49.1641 -31.501 -79.4971 -40.501s-62.833 -13.5 -97.5 -13.5c-76.667 0 -140 19.667 -190 59s-80 93.333 -90 162l143 25c5.33301 -38 20.166 -68.167 44.499 -90.5s54.5 -33.5 90.5 -33.5c36.667 0 65.667 9.16699 87 27.5s32 43.5 32 75.5
c0 30.667 -11 54 -33 70s-53.667 24 -95 24h-69v121h67c36.667 0 64.667 7.5 84 22.5s29 36.5 29 64.5c0 28.667 -9 51 -27 67s-42.667 24 -74 24c-32.667 0 -60.334 -10.667 -83.001 -32s-37 -50.333 -43 -87l-134 20c10 66 39 119.333 87 160s107.333 61 178 61
c71.333 0 128.666 -18.667 171.999 -56s65 -86.666 65 -147.999c0 -34.667 -9.16699 -66.167 -27.5 -94.5s-42.5 -48.166 -72.5 -59.499c38 -13.333 67.333 -34.333 88 -63s31 -63.334 31 -104.001c0 -32 -7.16699 -62 -21.5 -90s-34.833 -51.667 -61.5 -71z" />
    <glyph glyph-name="four" unicode="4" horiz-adv-x="615" 
d="M480 172v-172h-136v172h-334v112l286 434h186v-426h123v-120h-125zM342 582l-191 -290h191v290z" />
    <glyph glyph-name="five" unicode="5" horiz-adv-x="580" 
d="M295 363c-21.333 0 -40.833 -4.33203 -58.5 -12.999s-31.5 -20.334 -41.5 -35.001l-134 17l32 386h415v-127h-302l-14 -155c16 14.667 34.833 25.834 56.5 33.501s44.5 11.5 68.5 11.5c34.667 0 66.667 -5.83301 96 -17.5s54.666 -28.5 75.999 -50.5
c20.667 -22 36.5 -47.833 47.5 -77.5s16.5 -61.834 16.5 -96.501c0 -35.333 -6.66699 -68.666 -20 -99.999s-32.666 -58.333 -57.999 -81c-24 -22.667 -52 -39.834 -84 -51.501s-66 -17.5 -102 -17.5c-74 0 -135 19.167 -183 57.5s-77.333 91.833 -88 160.5l142 24
c5.33301 -37.333 19.5 -66.833 42.5 -88.5s51.833 -32.5 86.5 -32.5c35.333 0 65 12 89 36s36 53.667 36 89c0 37.333 -11 68 -33 92s-50.667 36 -86 36z" />
    <glyph glyph-name="six" unicode="6" horiz-adv-x="599" 
d="M333 729c60 0 110.171 -13.8311 150.504 -41.498s69.833 -68.5 88.5 -122.5l-117 -51c-9.33301 30 -25 53.333 -47 70s-48.667 25 -80 25c-46.667 0 -85 -20 -115 -60s-45 -90 -45 -150c18 24 41.667 42.833 71 56.5s61.333 20.5 96 20.5
c33.333 0 64.333 -5.83301 93 -17.5s54 -28.5 76 -50.5c21.333 -22 37.666 -47.333 48.999 -76s17 -59.334 17 -92.001c0 -36 -6.5 -69.5 -19.5 -100.5s-31.5 -58.167 -55.5 -81.5c-24 -22 -51.833 -39 -83.5 -51s-65.834 -18 -102.501 -18
c-46 0 -87.167 9.83301 -123.5 29.5s-66.833 48.167 -91.5 85.5c-20.667 31.333 -36.334 67.833 -47.001 109.5s-16 86.5 -16 134.5c0 50.667 6 98.167 18 142.5s29.667 83.166 53 116.499c27.333 39.333 60.666 69.5 99.999 90.5s83 31.5 131 31.5zM309.004 106.002
c36.667 0 67.167 12.167 91.5 36.5s36.5 54.5 36.5 90.5s-12.167 66.167 -36.5 90.5s-54.5 36.5 -90.5 36.5s-66.5 -12.167 -91.5 -36.5s-37.5 -54.5 -37.5 -90.5s12.167 -66.167 36.5 -90.5s54.833 -36.5 91.5 -36.5z" />
    <glyph glyph-name="seven" unicode="7" horiz-adv-x="557" 
d="M394 593h-257.999v-111h-126v236h537v-127c-41.333 -44 -75.833 -88.333 -103.5 -133s-49.834 -91 -66.501 -139c-14 -44 -24.5 -91.333 -31.5 -142s-10.5 -109.667 -10.5 -177h-150c0 125.333 16.833 236 50.5 332s86.5 183 158.5 261z" />
    <glyph glyph-name="eight" unicode="8" horiz-adv-x="606" 
d="M137 678c22 16.667 47.166 29.334 75.499 38.001s58.5 13 90.5 13s62.167 -4.33301 90.5 -13s53.5 -21.334 75.5 -38.001c24 -18 42.5 -40 55.5 -66s19.5 -54.333 19.5 -85c0 -33.333 -8.5 -63 -25.5 -89s-41.5 -47 -73.5 -63c40.667 -14 73 -36.667 97 -68
s36 -67 36 -107c0 -33.333 -7.66699 -63.833 -23 -91.5s-37.666 -51.167 -66.999 -70.5c-24.667 -16 -52.667 -28.167 -84 -36.5s-65 -12.5 -101 -12.5s-69.833 4.16699 -101.5 12.5s-59.5 20.5 -83.5 36.5c-29.333 19.333 -51.833 42.833 -67.5 70.5
s-23.5 58.167 -23.5 91.5c0 40 12.167 75.667 36.5 107s56.833 54 97.5 68c-32 16 -56.5 37 -73.5 63s-25.5 55.667 -25.5 89c0 30.667 6.5 59 19.5 85s31.5 48 55.5 66zM193.999 525c0 -27.333 10 -49.5 30 -66.5s46.333 -25.5 79 -25.5s59 8.5 79 25.5s30 39.167 30 66.5
s-10 49.5 -30 66.5s-46.333 25.5 -79 25.5s-59 -8.5 -79 -25.5s-30 -39.167 -30 -66.5zM433.999 211c0 31.333 -12.167 56.833 -36.5 76.5s-55.833 29.5 -94.5 29.5s-70.167 -9.83301 -94.5 -29.5s-36.5 -45.167 -36.5 -76.5c0 -32 12 -57.833 36 -77.5
s55.667 -29.5 95 -29.5s71 9.83301 95 29.5s36 45.5 36 77.5z" />
    <glyph glyph-name="nine" unicode="9" horiz-adv-x="599" 
d="M266 -11c-60 0 -110.171 13.8311 -150.504 41.498s-69.833 68.5 -88.5 122.5l117 51c9.33301 -30 25 -53.333 47 -70s48.667 -25 80 -25c46.667 0 85 20 115 60s45 90 45 150c-18 -24 -41.667 -42.833 -71 -56.5s-61.333 -20.5 -96 -20.5
c-33.333 0 -64.333 5.83301 -93 17.5s-54 28.5 -76 50.5c-21.333 22 -37.666 47.333 -48.999 76s-17 59.334 -17 92.001c0 36 6.5 69.5 19.5 100.5s31.5 58.167 55.5 81.5c24 22 51.833 39 83.5 51s65.834 18 102.501 18c46 0 87.167 -9.83301 123.5 -29.5
s66.833 -48.167 91.5 -85.5c20.667 -31.333 36.334 -67.833 47.001 -109.5s16 -86.5 16 -134.5c0 -50.667 -6 -98.167 -18 -142.5s-29.667 -83.166 -53 -116.499c-27.333 -39.333 -60.666 -69.5 -99.999 -90.5s-83 -31.5 -131 -31.5zM289.996 611.998
c-36.667 0 -67.167 -12.167 -91.5 -36.5s-36.5 -54.5 -36.5 -90.5s12.167 -66.167 36.5 -90.5s54.5 -36.5 90.5 -36.5s66.5 12.167 91.5 36.5s37.5 54.5 37.5 90.5s-12.167 66.167 -36.5 90.5s-54.833 36.5 -91.5 36.5z" />
    <glyph glyph-name="colon" unicode=":" horiz-adv-x="240" 
d="M202 0h-164v162h164v-162zM202 339h-164v162h164v-162z" />
    <glyph glyph-name="semicolon" unicode=";" horiz-adv-x="240" 
d="M107 0h-68.999v162h164v-159c0 -46 -14.667 -82.5 -44 -109.5s-69.333 -40.5 -120 -40.5v74c23.333 1.33301 40.666 7.5 51.999 18.5s17 26.833 17 47.5v7zM202.001 339h-164v162h164v-162z" />
    <glyph glyph-name="less" unicode="&#x3c;" horiz-adv-x="608" 
d="M565 46l-522 220v159l522 220v-135l-411 -165l411 -165v-134z" />
    <glyph glyph-name="equal" unicode="=" horiz-adv-x="608" 
d="M566 401h-524v112h524v-112zM566 173h-524v112h524v-112z" />
    <glyph glyph-name="greater" unicode="&#x3e;" horiz-adv-x="608" 
d="M565 425v-159l-522 -220v134l411 165l-411 165v135z" />
    <glyph glyph-name="question" unicode="?" horiz-adv-x="535" 
d="M373 501c0 30.667 -9.66699 55.166 -29 73.499s-45 27.5 -77 27.5c-34 0 -61.667 -10.833 -83 -32.5s-34.333 -51.834 -39 -90.501l-145 21c4 34 13.833 65.333 29.5 94s36.167 53.334 61.5 74.001c24.667 20 52.667 35.167 84 45.5s65 15.5 101 15.5
c73.333 0 132.833 -20 178.5 -60s68.5 -92.333 68.5 -157c0 -52.667 -16.5 -97.667 -49.5 -135s-75.5 -60.666 -127.5 -69.999v-83h-138l1 169c54 0 94.833 9 122.5 27s41.5 45 41.5 81zM359 -0.000976562h-164v160h164v-160z" />
    <glyph glyph-name="at" unicode="@" horiz-adv-x="898" 
d="M667 140c15.333 0 29.834 5.66602 43.501 16.999s25.167 27 34.5 47c6 14 10.667 30 14 48s5 37 5 57c0 80.667 -25.833 143.834 -77.5 189.501s-121.834 68.5 -210.501 68.5c-46.667 0 -90.667 -8.5 -132 -25.5s-77.666 -41.833 -108.999 -74.5
c-31.333 -31.333 -55.166 -68 -71.499 -110s-24.5 -86.333 -24.5 -133c0 -45.333 7.83301 -86.333 23.5 -123s38.5 -67.667 68.5 -93c28 -24 61.167 -42.333 99.5 -55s80.5 -19 126.5 -19c47.333 0 90.666 5.66699 129.999 17s76 29 110 53l52 -83
c-38 -28.667 -81.5 -50.334 -130.5 -65.001s-102.5 -22 -160.5 -22c-60 0 -116 8.66699 -168 26s-97.333 42.333 -136 75c-41.333 34.667 -72.833 76.667 -94.5 126s-32.5 103.666 -32.5 162.999c0 60 11.5 117.333 34.5 172s56.167 102.334 99.5 143.001
c42 40.667 90.5 71.834 145.5 93.501s113.167 32.5 174.5 32.5c52.667 0 102.334 -7.83301 149.001 -23.5s87.667 -38.167 123 -67.5c38 -32 67.167 -70 87.5 -114s30.5 -91.667 30.5 -143c0 -36.667 -4.5 -70.834 -13.5 -102.501s-22.5 -59.5 -40.5 -83.5
c-20.667 -28 -45.5 -49.667 -74.5 -65s-59.833 -23 -92.5 -23c-30.667 0 -57 4.83301 -79 14.5s-39.333 23.834 -52 42.501c-12.667 -18 -30.167 -32 -52.5 -42s-46.833 -15 -73.5 -15c-47.333 0 -85.666 16 -114.999 48s-44 74.333 -44 127c0 30 4.66699 59.333 14 88
s22.666 54.667 39.999 78c18.667 25.333 41 45 67 59s53.333 21 82 21c25.333 0 47.666 -5 66.999 -15s33.666 -23.667 42.999 -41l10 47h122l-47 -259c-3.33301 -18.667 -2 -32.667 4 -42s16.333 -14 31 -14zM427.001 145.999c19.333 0 35.832 7.83203 49.499 23.499
s23.834 38.167 30.501 67.5c4 17.333 6.66699 30.833 8 40.5s2 17.834 2 24.501c0 17.333 -5 31.5 -15 42.5s-23.333 16.5 -40 16.5c-27.333 0 -49.833 -13.167 -67.5 -39.5s-26.5 -59.5 -26.5 -99.5c0 -24 5.16699 -42.667 15.5 -56s24.833 -20 43.5 -20z" />
    <glyph glyph-name="A" unicode="A" horiz-adv-x="721" 
d="M8 0l268 718h168l269 -718h-149l-57 154h-296l-57 -154h-146zM460 279l-102 276l-101 -276h203z" />
    <glyph glyph-name="B" unicode="B" horiz-adv-x="644" 
d="M377 0h-314v718h296c77.333 0 136.5 -16.333 177.5 -49s61.5 -80 61.5 -142c0 -36 -8.83301 -67.333 -26.5 -94s-42.167 -46.667 -73.5 -60c38 -12.667 67.833 -34.167 89.5 -64.5s32.5 -66.166 32.5 -107.499c0 -62.667 -21.5 -111.834 -64.5 -147.501
s-102.5 -53.5 -178.5 -53.5zM204 596v-170h141c37.333 0 65.666 7.16699 84.999 21.5s29 35.5 29 63.5c0 27.333 -9.66699 48.333 -29 63s-47.666 22 -84.999 22h-141zM367 307h-163v-184h163c34.667 0 61.834 8.16699 81.501 24.5s29.5 38.833 29.5 67.5
c0 28 -9.83301 50.333 -29.5 67s-46.834 25 -81.501 25z" />
    <glyph glyph-name="C" unicode="C" horiz-adv-x="671" 
d="M362 600c-56 0 -101.167 -22.1689 -135.5 -66.502s-51.5 -102.5 -51.5 -174.5s17.167 -130.167 51.5 -174.5s79.5 -66.5 135.5 -66.5c38.667 0 71.667 11.333 99 34s46 54.334 56 95.001l138 -46c-22 -67.333 -58.333 -119.5 -109 -156.5s-112 -55.5 -184 -55.5
c-48.667 0 -94.167 9.5 -136.5 28.5s-78.833 46.167 -109.5 81.5c-28.667 34 -50.667 73.167 -66 117.5s-23 91.833 -23 142.5s7.66699 98.167 23 142.5s37.333 83.5 66 117.5c30.667 35.333 67.167 62.5 109.5 81.5s87.833 28.5 136.5 28.5c72 0 133.333 -18.5 184 -55.5
s87 -89.167 109 -156.5l-138 -46c-10 40.667 -28.667 72.334 -56 95.001s-60.333 34 -99 34z" />
    <glyph glyph-name="D" unicode="D" horiz-adv-x="702" 
d="M310 0h-247v718h247c54.667 0 104.5 -8.16699 149.5 -24.5s83.5 -40.166 115.5 -71.499c32.667 -31.333 57.334 -69.333 74.001 -114s25 -94.334 25 -149.001s-8.33301 -104.334 -25 -149.001s-41.334 -82.667 -74.001 -114c-32 -31.333 -70.5 -55.166 -115.5 -71.499
s-94.833 -24.5 -149.5 -24.5zM207 592v-466h103c68 0 121.5 20.833 160.5 62.5s58.5 98.5 58.5 170.5c0 72.667 -19.5 129.667 -58.5 171s-92.833 62 -161.5 62h-102z" />
    <glyph glyph-name="E" unicode="E" horiz-adv-x="597" 
d="M63 0v718h496v-127h-351v-160h294v-126h-294v-178h351v-127h-496z" />
    <glyph glyph-name="F" unicode="F" horiz-adv-x="581" 
d="M208 285v-285h-145v718h490v-127h-345v-179h288v-127h-288z" />
    <glyph glyph-name="G" unicode="G" horiz-adv-x="730" 
d="M673 0h-131.999v69c-16 -24.667 -40.667 -44.167 -74 -58.5s-71 -21.5 -113 -21.5c-48 0 -92.833 9.5 -134.5 28.5s-77.5 46.5 -107.5 82.5c-27.333 32.667 -48.333 70.834 -63 114.501s-22 90.5 -22 140.5c0 51.333 7.66699 99.333 23 144s37.333 84 66 118
c30.667 36 67.334 63.667 110.001 83s88.667 29 138 29c72.667 0 134.5 -18 185.5 -54s88.5 -88 112.5 -156l-141 -47c-9.33301 40.667 -27.5 72.167 -54.5 94.5s-60.5 33.5 -100.5 33.5c-57.333 0 -103.5 -22.167 -138.5 -66.5s-52.5 -102.833 -52.5 -175.5
s17.833 -131.5 53.5 -176.5s82.167 -67.5 139.5 -67.5c45.333 0 82.666 14.167 111.999 42.5s45.666 65.166 48.999 110.499h-174v125h318v-392z" />
    <glyph glyph-name="H" unicode="H" horiz-adv-x="738" 
d="M528 432v286h147v-718h-147v305h-318v-305h-147v718h147v-286h318z" />
    <glyph glyph-name="I" unicode="I" horiz-adv-x="272" 
d="M63 718h147v-718h-147v718z" />
    <glyph glyph-name="J" unicode="J" horiz-adv-x="407" 
d="M116 -6c-17.333 0 -33.5 0.5 -48.5 1.5s-30.167 2.83301 -45.5 5.5v129c18 -2.66699 32 -4.5 42 -5.5s21.333 -1.5 34 -1.5c39.333 0 67.333 8 84 24s25 42 25 78v493h147v-510c0 -70 -20.167 -123.167 -60.5 -159.5s-99.5 -54.5 -177.5 -54.5z" />
    <glyph glyph-name="K" unicode="K" horiz-adv-x="671" 
d="M63 718h147v-326l277 326h172l-269 -307l286 -411h-172l-211 300l-83 -94v-206h-147v718z" />
    <glyph glyph-name="L" unicode="L" horiz-adv-x="555" 
d="M540 0h-477v718h147v-591h330v-127z" />
    <glyph glyph-name="M" unicode="M" horiz-adv-x="861" 
d="M659 526l-173 -526h-112l-173 526v-526h-138v718h204l166 -511l165 511h201v-718h-140v526z" />
    <glyph glyph-name="N" unicode="N" horiz-adv-x="731" 
d="M527 718h141v-718h-128l-336 495v-495h-141v718h149l315 -471v471z" />
    <glyph glyph-name="O" unicode="O" horiz-adv-x="733" 
d="M118 98c-29.333 33.333 -51.833 72.3291 -67.5 116.996s-23.5 92.667 -23.5 144s7.83301 99.333 23.5 144s38.167 83.667 67.5 117c30.667 35.333 67.5 62.333 110.5 81s89.167 28 138.5 28s95.333 -9.33301 138 -28s79.667 -46 111 -82
c29.333 -33.333 51.666 -72.166 66.999 -116.499s23 -92.166 23 -143.499s-7.66699 -99.166 -23 -143.499s-37.666 -83.166 -66.999 -116.499c-31.333 -36 -68.333 -63.333 -111 -82s-88.667 -28 -138 -28s-95.5 9.33301 -138.5 28s-79.833 45.667 -110.5 81zM367 117.996
c56.667 0 102.667 22.167 138 66.5s53 102.5 53 174.5s-17.667 130.167 -53 174.5s-81.333 66.5 -138 66.5c-57.333 0 -103.666 -22 -138.999 -66s-53 -102.333 -53 -175s17.667 -131 53 -175s81.666 -66 138.999 -66z" />
    <glyph glyph-name="P" unicode="P" horiz-adv-x="639" 
d="M357 264h-147v-264h-147v718h294c85.333 0 151.333 -19.667 198 -59s70 -95.333 70 -168c0 -72 -23.5 -127.833 -70.5 -167.5s-112.833 -59.5 -197.5 -59.5zM210 593v-204h139c42 0 74.167 8.83301 96.5 26.5s33.5 42.834 33.5 75.501
c0 33.333 -11.167 58.666 -33.5 75.999s-54.5 26 -96.5 26h-139z" />
    <glyph glyph-name="Q" unicode="Q" horiz-adv-x="733" 
d="M118 98c-29.333 33.333 -51.834 72.3311 -67.501 116.998s-23.5 92.667 -23.5 144s7.83301 99.333 23.5 144s38.167 83.667 67.5 117c30.667 35.333 67.5 62.333 110.5 81s89.167 28 138.5 28s95.333 -9.33301 138 -28s79.667 -46 111 -82
c29.333 -33.333 51.666 -72.166 66.999 -116.499s23 -92.166 23 -143.499c0 -63.333 -11.667 -121.166 -35 -173.499s-56.666 -95.166 -99.999 -128.499c14 -18.667 32.167 -34.5 54.5 -47.5s48.5 -23.167 78.5 -30.5l-85 -104
c-33.333 9.33301 -65.166 25.666 -95.499 48.999s-52.833 48.666 -67.5 75.999c-14.667 -3.33301 -29.5 -6 -44.5 -8s-29.833 -3 -44.5 -3c-49.333 0 -95.5 9.33301 -138.5 28s-79.833 45.667 -110.5 81zM366.999 117.998c56.667 0 102.667 22.167 138 66.5
s53 102.5 53 174.5s-17.667 130.167 -53 174.5s-81.333 66.5 -138 66.5c-57.333 0 -103.666 -22 -138.999 -66s-53 -102.333 -53 -175s17.667 -131 53 -175s81.666 -66 138.999 -66z" />
    <glyph glyph-name="R" unicode="R" horiz-adv-x="660" 
d="M310 267l-100 -0.000976562v-267h-147v718h294c84.667 0 150.5 -19.667 197.5 -59s70.5 -95 70.5 -167c0 -53.333 -13.833 -98.166 -41.5 -134.499s-67.167 -61.833 -118.5 -76.5l179 -281h-168zM210 592.999v-202.999h139c42 0 74.167 8.66699 96.5 26
s33.5 42.333 33.5 75c0 33.333 -11.167 58.666 -33.5 75.999s-54.5 26 -96.5 26h-139z" />
    <glyph glyph-name="S" unicode="S" horiz-adv-x="596" 
d="M296 -11c-62 0 -121.331 12.9951 -177.998 38.9951s-99 60.333 -127 103l101 98c26 -37.333 57.333 -66.166 94 -86.499s75 -30.5 115 -30.5c39.333 0 70.833 8.33301 94.5 25s35.5 39.667 35.5 69c0 18 -5.16699 32.667 -15.5 44s-27.833 21 -52.5 29
c-6.66699 2 -19 5.16699 -37 9.5l-71 16.5c-40.667 9.33301 -72.334 18.5 -95.001 27.5s-42.334 19.167 -59.001 30.5c-23.333 16.667 -40.666 36.834 -51.999 60.501s-17 51.167 -17 82.5c0 34 7.16699 65.333 21.5 94s34.833 53 61.5 73c24 18 51.833 31.833 83.5 41.5
s65.167 14.5 100.5 14.5c57.333 0 110 -11.333 158 -34s85.667 -53.667 113 -93l-97 -95c-24 33.333 -50.667 58.166 -80 74.499s-62 24.5 -98 24.5c-35.333 0 -63.833 -7.83301 -85.5 -23.5s-32.5 -36.5 -32.5 -62.5c0 -15.333 4.33301 -28.166 13 -38.499
s22.667 -19.166 42 -26.499c8 -2.66699 17.833 -5.5 29.5 -8.5s32.167 -7.83301 61.5 -14.5c51.333 -11.333 88.666 -21.166 111.999 -29.499s43.333 -17.5 60 -27.5c28 -17.333 48.667 -38.666 62 -63.999s20 -55.333 20 -90c0 -35.333 -7.5 -68 -22.5 -98
s-36.833 -55.333 -65.5 -76c-25.333 -18.667 -54.5 -33 -87.5 -43s-68.167 -15 -105.5 -15z" />
    <glyph glyph-name="T" unicode="T" horiz-adv-x="628" 
d="M613 718v-127h-225v-591h-147v591h-226v127h598z" />
    <glyph glyph-name="U" unicode="U" horiz-adv-x="696" 
d="M348 -10c-93.333 0 -166 26 -218 78s-78 125 -78 219v431h148v-426c0 -56.667 12.667 -99.667 38 -129s62 -44 110 -44c48.667 0 85.667 14.667 111 44s38 72.333 38 129v426h147v-431c0 -94 -26 -167 -78 -219s-124.667 -78 -218 -78z" />
    <glyph glyph-name="V" unicode="V" horiz-adv-x="698" 
d="M690 718l-263 -718h-154l-265 718h158l186 -531l187 531h151z" />
    <glyph glyph-name="W" unicode="W" horiz-adv-x="943" 
d="M286 220l124 498h127l124 -498l126 498h148l-192 -718h-144l-127 483l-127 -483h-144l-193 718h153z" />
    <glyph glyph-name="X" unicode="X" horiz-adv-x="687" 
d="M507 718h161l-238 -353l248 -365h-165l-171 256l-172 -256h-161l249 365l-240 353h166l161 -242z" />
    <glyph glyph-name="Y" unicode="Y" horiz-adv-x="662" 
d="M158 718l175 -291l175 291h156l-259 -426v-292h-147v292l-260 426h160z" />
    <glyph glyph-name="Z" unicode="Z" horiz-adv-x="634" 
d="M225 127h379v-127h-568v112l377 479h-374v127h561v-112z" />
    <glyph glyph-name="bracketleft" unicode="[" horiz-adv-x="314" 
d="M304 628h-126v-617h126v-109h-264v836h264v-110z" />
    <glyph glyph-name="backslash" unicode="\" horiz-adv-x="452" 
d="M300.01 -98h141.991l-289.982 836h-141.991z" />
    <glyph glyph-name="bracketright" unicode="]" horiz-adv-x="314" 
d="M136 11v617h-126v110h264v-836h-264v109h126z" />
    <glyph glyph-name="asciicircum" unicode="^" horiz-adv-x="486" 
d="M14 408l161 310h136l161 -310h-139l-90 181l-91 -181h-138z" />
    <glyph glyph-name="underscore" unicode="_" horiz-adv-x="447" 
d="M405 -166h-363v114h363v-114z" />
    <glyph glyph-name="grave" unicode="`" 
d="M363 718l57 -145h-110l-115 145h168z" />
    <glyph glyph-name="a" unicode="a" horiz-adv-x="544" 
d="M357 49c-17.333 -18.667 -39.335 -33.001 -66.002 -43.001s-56.667 -15 -90 -15c-52.667 0 -95.667 14.333 -129 43s-50 66 -50 112c0 45.333 15.5 81.833 46.5 109.5s78.833 47.167 143.5 58.5l131 25v8c0 24.667 -6.66699 43 -20 55s-33.666 18 -60.999 18
c-25.333 0 -45.333 -5.66699 -60 -17s-25 -29 -31 -53l-133 25c13.333 48.667 40.5 87.667 81.5 117s90.167 44 147.5 44c68.667 0 121.334 -15.667 158.001 -47s55 -76.666 55 -135.999v-215c0 -14 3.33301 -23.5 10 -28.5s17.667 -6.5 33 -4.5v-105
c-43.333 -6 -78.833 -5 -106.5 3s-47.5 23.333 -59.5 46zM228.998 96.999c32.667 0 59.834 8.33203 81.501 24.999s32.5 38.334 32.5 65.001v54l-103 -21c-28.667 -5.33301 -49.167 -13.333 -61.5 -24s-18.5 -24.667 -18.5 -42c0 -18 6.16699 -32 18.5 -42
s29.166 -15 50.499 -15z" />
    <glyph glyph-name="b" unicode="b" 
d="M517 74c-20.667 -27.333 -45.667 -48.333 -75 -63s-61.666 -22 -96.999 -22c-30.667 0 -58.667 5.66699 -84 17s-46.333 27.333 -63 48v-54h-140v718h140v-246c16.667 20.667 37.667 36.5 63 47.5s53.333 16.5 84 16.5c35.333 0 67.666 -7.16699 96.999 -21.5
s54.333 -35.5 75 -63.5c18.667 -24 32.834 -52.167 42.501 -84.5s14.5 -66.833 14.5 -103.5s-4.83301 -71.167 -14.5 -103.5s-23.834 -60.833 -42.501 -85.5zM312 416c-35.333 0 -63.666 -12.499 -84.999 -37.499s-32 -58.833 -32 -101.5v-29
c0 -42.667 10.667 -76.5 32 -101.5s49.666 -37.5 84.999 -37.5c38 0 67.667 13.667 89 41s32 65 32 113c0 47.333 -10.667 84.666 -32 111.999s-51 41 -89 41z" />
    <glyph glyph-name="c" unicode="c" horiz-adv-x="525" 
d="M289 419c-38 0 -68 -13.998 -90 -41.998s-33 -66 -33 -114c0 -48.667 11 -86.834 33 -114.501s52 -41.5 90 -41.5c26.667 0 49.167 8.16699 67.5 24.5s31.166 39.5 38.499 69.5l121 -54c-13.333 -47.333 -40.5 -85.5 -81.5 -114.5s-89.833 -43.5 -146.5 -43.5
c-38 0 -73.333 6.66699 -106 20s-60.667 33 -84 59c-23.333 24.667 -41 53.667 -53 87s-18 69.333 -18 108s6 74.667 18 108s29.667 62.333 53 87c23.333 25.333 51.333 44.666 84 57.999s68 20 106 20c56 0 104.167 -14.167 144.5 -42.5s67.5 -65.833 81.5 -112.5l-119 -56
c-7.33301 30 -20.166 53.167 -38.499 69.5s-40.833 24.5 -67.5 24.5z" />
    <glyph glyph-name="d" unicode="d" 
d="M255 -11c-35.333 0 -67.666 7.33301 -96.999 22s-54.333 35.667 -75 63c-18.667 24.667 -32.834 53.167 -42.501 85.5s-14.5 66.833 -14.5 103.5s4.83301 71.167 14.5 103.5s23.834 60.5 42.501 84.5c20.667 28 45.667 49.167 75 63.5s61.666 21.5 96.999 21.5
c30.667 0 58.667 -5.5 84 -16.5s46.333 -26.833 63 -47.5v246h140v-718h-140v54c-16.667 -20.667 -37.667 -36.667 -63 -48s-53.333 -17 -84 -17zM405 248v28.999c0 42.667 -10.667 76.5 -32 101.5s-49.666 37.5 -84.999 37.5c-38 0 -67.667 -13.667 -89 -41
s-32 -64.666 -32 -111.999c0 -48 10.667 -85.667 32 -113s51 -41 89 -41c35.333 0 63.666 12.5 84.999 37.5s32 58.833 32 101.5z" />
    <glyph glyph-name="e" unicode="e" horiz-adv-x="548" 
d="M288 -11c-38.667 0 -74.332 6.66992 -106.999 20.0029s-60.667 32.666 -84 57.999c-22.667 24.667 -40 53.667 -52 87s-18 69.666 -18 108.999c0 37.333 6 72.5 18 105.5s29.333 61.833 52 86.5c23.333 26 51 46 83 60s66.333 21 103 21
c73.333 0 131.666 -24.167 174.999 -72.5s65 -111.833 65 -190.5v-41h-362c4.66699 -40 18.5 -71.333 41.5 -94s51.833 -34 86.5 -34c28 0 51.833 6.66699 71.5 20s33.5 32.333 41.5 57l118 -42c-18.667 -46.667 -48.5 -83.334 -89.5 -110.001s-88.5 -40 -142.5 -40z
M282.002 424.003c-28.667 0 -53.167 -8.33301 -73.5 -25s-34.5 -40.667 -42.5 -72h218c-0.666992 29.333 -10.167 52.833 -28.5 70.5s-42.833 26.5 -73.5 26.5z" />
    <glyph glyph-name="f" unicode="f" horiz-adv-x="323" 
d="M264 728c14 0 24.499 -0.166992 31.499 -0.5s14.5 -0.833008 22.5 -1.5v-115c-4.66699 0.666992 -9.16699 1 -13.5 1h-22.5c-24.667 0 -42 -5 -52 -15s-15 -26.667 -15 -50v-21h102v-117h-102v-409h-140v409h-71v117h71v29c0 57.333 15.833 100.5 47.5 129.5
s78.834 43.5 141.501 43.5z" />
    <glyph glyph-name="g" unicode="g" horiz-adv-x="601" 
d="M543 526v-467.997c0 -76.667 -24 -137 -72 -181s-112.667 -66 -194 -66c-64.667 0 -118 13.167 -160 39.5s-70.333 64.833 -85 115.5l131 38c8 -26.667 22 -47.334 42 -62.001s44.667 -22 74 -22c40 0 70.667 10.5 92 31.5s32 51.5 32 91.5v36
c-14.667 -19.333 -35 -34.833 -61 -46.5s-54.333 -17.5 -85 -17.5c-34.667 0 -66.5 6.66699 -95.5 20s-53.833 33 -74.5 59c-18.667 23.333 -33 50.666 -43 81.999s-15 64.666 -15 99.999s5 68.5 15 99.5s24.333 58.167 43 81.5c20.667 26 45.5 45.667 74.5 59
s60.833 20 95.5 20c30.667 0 59 -5.83301 85 -17.5s46.333 -27.167 61 -46.5v54h140zM404 268.003v14.001c0 42 -10.333 75.167 -31 99.5s-48.334 36.5 -83.001 36.5c-37.333 0 -66.5 -12.5 -87.5 -37.5s-31.5 -59.833 -31.5 -104.5s10.5 -79.667 31.5 -105
s50.167 -38 87.5 -38c34.667 0 62.334 12.167 83.001 36.5s31 57.166 31 98.499z" />
    <glyph glyph-name="h" unicode="h" horiz-adv-x="573" 
d="M198 0h-140.001v718h140v-246c17.333 20.667 38.333 36.5 63 47.5s51.667 16.5 81 16.5c54 0 97 -17 129 -51s48 -80 48 -138v-347h-140v307c0 32.667 -7.16699 57.667 -21.5 75s-35.166 26 -62.499 26c-28 0 -51.167 -9.5 -69.5 -28.5s-27.5 -44.167 -27.5 -75.5v-304z
" />
    <glyph glyph-name="i" unicode="i" horiz-adv-x="255" 
d="M199 588h-143v130h143v-130zM58 526h140v-526h-140v526z" />
    <glyph glyph-name="j" unicode="j" horiz-adv-x="255" 
d="M199 588h-143v130h143v-130zM-4 -69c22.667 0 38.667 4.5 48 13.5s14 23.5 14 43.5v538h140v-554c0 -50 -15 -88.333 -45 -115s-72.333 -40 -127 -40c-14 0 -25.833 0.333008 -35.5 1s-19.167 1.66699 -28.5 3v112c11.333 -1.33301 18.833 -2 22.5 -2h11.5z" />
    <glyph glyph-name="k" unicode="k" horiz-adv-x="562" 
d="M58 718h140v-396l184 204h168l-193 -200l208 -326h-160l-145 225l-62 -64v-161h-140v718z" />
    <glyph glyph-name="l" unicode="l" horiz-adv-x="255" 
d="M58 718h140v-718h-140v718z" />
    <glyph glyph-name="m" unicode="m" horiz-adv-x="879" 
d="M291 408c-26.667 0 -48.835 -9.66992 -66.502 -29.0029s-26.5 -44.333 -26.5 -75v-304h-140v526h140v-54c16.667 20.667 37.334 36.5 62.001 47.5s51.667 16.5 81 16.5c30.667 0 58.334 -6.16699 83.001 -18.5s44.334 -30.166 59.001 -53.499
c24 24.667 49.333 42.834 76 54.501s55.667 17.5 87 17.5c54 0 97.167 -17.167 129.5 -51.5s48.5 -80.166 48.5 -137.499v-347h-140v307c0 33.333 -6.83301 58.5 -20.5 75.5s-33.5 25.5 -59.5 25.5c-26.667 0 -48.834 -9.66699 -66.501 -29s-26.5 -44.333 -26.5 -75v-304
h-140v307c0 33.333 -6.83301 58.5 -20.5 75.5s-33.5 25.5 -59.5 25.5z" />
    <glyph glyph-name="n" unicode="n" horiz-adv-x="573" 
d="M198 0h-140.001v526h140v-54c17.333 20.667 38.333 36.5 63 47.5s51.667 16.5 81 16.5c54 0 97 -17 129 -51s48 -80 48 -138v-347h-140v307c0 32.667 -7.16699 57.667 -21.5 75s-35.166 26 -62.499 26c-28 0 -51.167 -9.5 -69.5 -28.5s-27.5 -44.167 -27.5 -75.5v-304z
" />
    <glyph glyph-name="o" unicode="o" horiz-adv-x="570" 
d="M474 458c22.667 -24.667 39.834 -53.667 51.501 -87s17.5 -69.333 17.5 -108s-5.83301 -74.667 -17.5 -108s-28.834 -62.333 -51.501 -87c-23.333 -26 -51.166 -45.667 -83.499 -59s-67.5 -20 -105.5 -20s-73.167 6.66699 -105.5 20s-60.166 33 -83.499 59
c-22.667 24.667 -39.834 53.667 -51.501 87s-17.5 69.333 -17.5 108s5.83301 74.667 17.5 108s28.834 62.333 51.501 87c23.333 25.333 51.166 44.666 83.499 57.999s67.5 20 105.5 20s73.167 -6.66699 105.5 -20s60.166 -32.666 83.499 -57.999zM285 420
c-36.667 0 -65.667 -14 -87 -42s-32 -66.333 -32 -115c0 -49.333 10.5 -88 31.5 -116s50.167 -42 87.5 -42c36.667 0 65.5 14 86.5 42s31.5 66.667 31.5 116s-10.5 87.833 -31.5 115.5s-49.833 41.5 -86.5 41.5z" />
    <glyph glyph-name="p" unicode="p" 
d="M517 74c-20.667 -27.333 -45.667 -48.333 -75 -63s-61.666 -22 -96.999 -22c-30.667 0 -58.667 5.66699 -84 17s-46.333 27.333 -63 48v-232h-140v704h140v-54c16.667 20.667 37.667 36.5 63 47.5s53.333 16.5 84 16.5c35.333 0 67.666 -7.16699 96.999 -21.5
s54.333 -35.5 75 -63.5c18.667 -24 32.834 -52.167 42.501 -84.5s14.5 -66.833 14.5 -103.5s-4.83301 -71.167 -14.5 -103.5s-23.834 -60.833 -42.501 -85.5zM312 416c-35.333 0 -63.666 -12.499 -84.999 -37.499s-32 -58.833 -32 -101.5v-29
c0 -42.667 10.667 -76.5 32 -101.5s49.666 -37.5 84.999 -37.5c38 0 67.667 13.667 89 41s32 65 32 113c0 47.333 -10.667 84.666 -32 111.999s-51 41 -89 41z" />
    <glyph glyph-name="q" unicode="q" 
d="M255 -11c-35.333 0 -67.666 7.33301 -96.999 22s-54.333 35.667 -75 63c-18.667 24.667 -32.834 53.167 -42.501 85.5s-14.5 66.833 -14.5 103.5s4.83301 71.167 14.5 103.5s23.834 60.5 42.501 84.5c20.667 28 45.667 49.167 75 63.5s61.666 21.5 96.999 21.5
c30.667 0 58.667 -5.5 84 -16.5s46.333 -26.833 63 -47.5v54h140v-704h-140v232c-16.667 -20.667 -37.667 -36.667 -63 -48s-53.333 -17 -84 -17zM405 248v28.999c0 42.667 -10.667 76.5 -32 101.5s-49.666 37.5 -84.999 37.5c-38 0 -67.667 -13.667 -89 -41
s-32 -64.666 -32 -111.999c0 -48 10.667 -85.667 32 -113s51 -41 89 -41c35.333 0 63.666 12.5 84.999 37.5s32 58.833 32 101.5z" />
    <glyph glyph-name="r" unicode="r" horiz-adv-x="391" 
d="M338 529c4.66699 0 9.50098 -0.165039 14.501 -0.498047s11.5 -0.833008 19.5 -1.5v-137c-9.33301 1.33301 -17.333 2.16602 -24 2.49902s-13.667 0.5 -21 0.5c-38.667 0 -69.834 -11.333 -93.501 -34s-35.5 -53.334 -35.5 -92.001v-267h-140v526h140v-74
c12 24 30.5 42.833 55.5 56.5s53.167 20.5 84.5 20.5z" />
    <glyph glyph-name="s" unicode="s" horiz-adv-x="501" 
d="M249 -11c-50.667 0 -98.1641 9.00098 -142.497 27.001s-77.833 42.333 -100.5 73l87 89c18 -24 41.5 -43.333 70.5 -58s58.5 -22 88.5 -22c27.333 0 48.833 4.83301 64.5 14.5s23.5 22.834 23.5 39.501c0 12 -3.66699 21.5 -11 28.5s-20.333 12.833 -39 17.5
c-4.66699 1.33301 -10.334 2.66602 -17.001 3.99902l-56 11c-34 6.66699 -59.833 13.167 -77.5 19.5s-32.834 13.5 -45.501 21.5c-18.667 12 -32.667 27.167 -42 45.5s-14 40.166 -14 65.499c0 50.667 20 91.834 60 123.501s91.667 47.5 155 47.5
c44.667 0 86.667 -8.33301 126 -25s69.666 -38.667 90.999 -66l-80 -88c-17.333 22.667 -38.333 40 -63 52s-50.667 18 -78 18c-22 0 -39.667 -4.33301 -53 -13s-20 -20.334 -20 -35.001c0 -10 3 -18 9 -24s16 -11 30 -15c5.33301 -2 11.5 -3.83301 18.5 -5.5
s21.167 -4.5 42.5 -8.5c40.667 -8.66699 70 -16 88 -22s33.667 -12.667 47 -20c22 -12.667 38.5 -28.667 49.5 -48s16.5 -42.333 16.5 -69c0 -52.667 -21.5 -95.5 -64.5 -128.5s-97.5 -49.5 -163.5 -49.5z" />
    <glyph glyph-name="t" unicode="t" horiz-adv-x="350" 
d="M234 -6c-57.333 0 -98.667 11.335 -124 34.002s-38 59 -38 109v272h-70v117h70v150h138v-150h107v-117h-107v-243c0 -18.667 4.5 -31.834 13.5 -39.501s26.5 -11.5 52.5 -11.5c8 0 15 0.166992 21 0.5s15 1.16602 27 2.49902v-116
c-13.333 -2.66699 -27.5 -4.66699 -42.5 -6s-30.833 -2 -47.5 -2z" />
    <glyph glyph-name="u" unicode="u" horiz-adv-x="573" 
d="M375 526h140.001v-526h-140v54c-18 -21.333 -39 -37.5 -63 -48.5s-50.333 -16.5 -79 -16.5c-54 0 -97.333 17.167 -130 51.5s-49 80.166 -49 137.499v348h140v-317c0 -31.333 7.16699 -55.166 21.5 -71.499s35.166 -24.5 62.499 -24.5s50.333 9.66699 69 29
s28 44.333 28 75v309z" />
    <glyph glyph-name="v" unicode="v" horiz-adv-x="523" 
d="M522 526l-190 -526h-140l-191 526h145l118 -356l117 356h141z" />
    <glyph glyph-name="w" unicode="w" horiz-adv-x="740" 
d="M232 197l86 329h109l87 -329l88 329h137l-159 -526h-121l-89 318l-89 -318h-121l-159 526h142z" />
    <glyph glyph-name="x" unicode="x" horiz-adv-x="528" 
d="M529 0h-156l-112 168l-112 -168h-150l183 272l-171 254h156l99 -151l100 151h150l-171 -254z" />
    <glyph glyph-name="y" unicode="y" horiz-adv-x="523" 
d="M522 526l-208 -555.998c-20.667 -56 -46.334 -95.5 -77.001 -118.5s-71 -34.5 -121 -34.5c-10.667 0 -19.5 0.166992 -26.5 0.5s-16.5 1.16602 -28.5 2.49902v113c10 -0.666992 18.333 -1.16699 25 -1.5s11.667 -0.5 15 -0.5c20 0 35.333 3.66699 46 11
s19.334 19.666 26.001 36.999l17 42l-189 505h145l119 -346l116 346h141z" />
    <glyph glyph-name="z" unicode="z" horiz-adv-x="507" 
d="M211 117h261v-117h-438v103l267 306h-264v117h432v-104z" />
    <glyph glyph-name="braceleft" unicode="{" horiz-adv-x="370" 
d="M67 264l-47 0.00195312v112h47c18.667 0 32.5 6.33301 41.5 19s13.5 31.334 13.5 56.001v114c0 54.667 16.833 97.167 50.5 127.5s81.167 45.5 142.5 45.5h45v-110h-20c-31.333 0 -54.166 -7.33301 -68.499 -22s-21.5 -38.334 -21.5 -71.001v-89
c0 -32 -5.83301 -58.333 -17.5 -79s-30.167 -36.334 -55.5 -47.001c25.333 -10.667 43.833 -26.334 55.5 -47.001s17.5 -47 17.5 -79v-89c0 -32.667 7.16699 -56.334 21.5 -71.001s37.166 -22 68.499 -22h20v-110h-45c-61.333 0 -108.833 15.167 -142.5 45.5
s-50.5 72.833 -50.5 127.5v114c0 24.667 -4.5 43.334 -13.5 56.001s-22.833 19 -41.5 19z" />
    <glyph glyph-name="bar" unicode="|" horiz-adv-x="269" 
d="M203 -98h-137v836h137v-836z" />
    <glyph glyph-name="braceright" unicode="}" horiz-adv-x="370" 
d="M350 376v-112.002h-47c-18.667 0 -32.5 -6.33301 -41.5 -19s-13.5 -31.334 -13.5 -56.001v-114c0 -54.667 -16.833 -97.167 -50.5 -127.5s-81.167 -45.5 -142.5 -45.5h-45v110h20c31.333 0 54.166 7.33301 68.499 22s21.5 38.334 21.5 71.001v89
c0 32 5.83301 58.333 17.5 79s30.167 36.334 55.5 47.001c-25.333 10.667 -43.833 26.334 -55.5 47.001s-17.5 47 -17.5 79v89c0 32.667 -7.16699 56.334 -21.5 71.001s-37.166 22 -68.499 22h-20v110h45c61.333 0 108.833 -15.167 142.5 -45.5s50.5 -72.833 50.5 -127.5
v-114c0 -24.667 4.5 -43.334 13.5 -56.001s22.833 -19 41.5 -19h47z" />
    <glyph glyph-name="asciitilde" unicode="~" horiz-adv-x="504" 
d="M176 417c12 0 23.667 -2.33301 35 -7s26.333 -13.667 45 -27c14.667 -10.667 25.5 -17.667 32.5 -21s13.833 -5 20.5 -5c14 0 24.667 4.5 32 13.5s13.333 24.5 18 46.5h105c-2.66699 -59.333 -16.167 -106.833 -40.5 -142.5s-56.166 -53.5 -95.499 -53.5
c-12 0 -23.667 2.33301 -35 7s-26 13.667 -44 27c-14.667 10.667 -25.5 17.667 -32.5 21s-13.833 5 -20.5 5c-14 0 -24.833 -4.5 -32.5 -13.5s-13.5 -24.5 -17.5 -46.5h-106c3.33301 60 17.166 107.667 41.499 143s55.833 53 94.5 53z" />
    <glyph glyph-name="uni00A0" unicode="&#xa0;" horiz-adv-x="202" 
 />
    <glyph glyph-name="exclamdown" unicode="&#xa1;" horiz-adv-x="237" 
d="M172 494.014h-107l-34 -493.97h175zM201 718h-164v-159.99h164v159.99z" />
    <glyph glyph-name="cent" unicode="&#xa2;" horiz-adv-x="562" 
d="M343 -103l-99 0.00195312v97c-66.667 11.333 -120 42.166 -160 92.499s-60 111.833 -60 184.5c0 72 20 133.167 60 183.5s93.333 81.166 160 92.499v108h99v-106c46.667 -6.66699 87 -23.167 121 -49.5s59.333 -60.5 76 -102.5l-103 -63
c-7.33301 26.667 -19.166 48.667 -35.499 66s-35.833 29 -58.5 35v-329c22.667 6 42.167 17.667 58.5 35s28.166 39.333 35.499 66l103 -63c-16.667 -42 -42 -76.167 -76 -102.5s-74.333 -42.833 -121 -49.5v-95zM151 271.002c0 -40 8.16699 -73.833 24.5 -101.5
s39.166 -47.167 68.499 -58.5v319c-29.333 -11.333 -52.166 -30.833 -68.499 -58.5s-24.5 -61.167 -24.5 -100.5z" />
    <glyph glyph-name="sterling" unicode="&#xa3;" horiz-adv-x="629" 
d="M188 283l-126.003 0.00195312v100h69c-12.667 22 -21.834 42 -27.501 60s-8.5 36 -8.5 54c0 33.333 6.5 64.666 19.5 93.999s31.5 54.666 55.5 75.999c22.667 20 49.334 35.333 80.001 46s63.334 16 98.001 16c71.333 0 129.333 -21.167 174 -63.5s67 -97.5 67 -165.5
c0 -14.667 -1 -28 -3 -40s-5 -24.667 -9 -38h-136c4.66699 10 8.16699 21 10.5 33s3.5 23.667 3.5 35c0 35.333 -9.66699 63.666 -29 84.999s-45.333 32 -78 32c-34 0 -61.333 -11 -82 -33s-31 -50.667 -31 -86c0 -14 2.16699 -27.667 6.5 -41
s15.166 -34.666 32.499 -63.999h138v-100h-97c1.33301 -10 2.33301 -18.667 3 -26s1 -14.333 1 -21c0 -12 -1 -24.667 -3 -38s-4.66699 -27 -8 -41c20.667 -14.667 39.334 -25.167 56.001 -31.5s33.334 -9.5 50.001 -9.5c26.667 0 46.667 8 60 24s20.666 41.333 21.999 76
h123c0 -69.333 -16.5 -124.5 -49.5 -165.5s-77.167 -61.5 -132.5 -61.5c-32 0 -62.167 5.66699 -90.5 17s-56.833 29.333 -85.5 54c-17.333 -23.333 -37 -41 -59 -53s-45.667 -18 -71 -18c-38.667 0 -70.667 11.667 -96 35s-37.666 53.333 -36.999 90
s13.834 66.667 39.501 90s58.167 35 97.5 35c12 0 23.5 -1.16699 34.5 -3.5s21.833 -5.83301 32.5 -10.5c-0.666992 10 -2.16699 19.833 -4.5 29.5s-5.5 19.167 -9.5 28.5zM137.997 152.002c-12 0 -21.333 -3.16797 -28 -9.50098s-10 -14.833 -10 -25.5c0 -10 3 -18 9 -24
s14 -9 24 -9c11.333 0 21.5 3.83301 30.5 11.5s16.5 18.834 22.5 33.501c-8.66699 8 -17 13.833 -25 17.5s-15.667 5.5 -23 5.5z" />
    <glyph glyph-name="yen" unicode="&#xa5;" horiz-adv-x="640" 
d="M249 176h-167v97h167v59h-167v97h113l-195 289h164l158 -248l158 248h160l-195 -289h112v-97h-166v-59h166v-97h-166v-176h-142v176z" />
    <glyph glyph-name="section" unicode="&#xa7;" horiz-adv-x="524" 
d="M252 -11c-51.333 0 -99.002 9.00293 -143.002 27.0029s-77.333 42.333 -100 73l83 87c18.667 -23.333 43.167 -42.333 73.5 -57s60.5 -22 90.5 -22c27.333 0 48.833 4.66699 64.5 14s23.5 22.333 23.5 39c0 12 -3.66699 21.667 -11 29s-20.666 13.333 -39.999 18
c-4 1.33301 -12.167 3.33301 -24.5 6s-29.166 6 -50.499 10c-32 6 -57.167 12.167 -75.5 18.5s-34.166 13.5 -47.499 21.5c-18.667 12.667 -32.667 28.167 -42 46.5s-14 39.833 -14 64.5c0 20 4 38.833 12 56.5s19.667 33.834 35 48.501
c-11.333 11.333 -19.833 24.666 -25.5 39.999s-8.5 32.666 -8.5 51.999c0 49.333 19.833 89.666 59.5 120.999s91.167 47 154.5 47c45.333 0 87.833 -8.33301 127.5 -25s70.167 -39 91.5 -67l-82 -84c-16.667 22 -37.167 39 -61.5 51s-50.833 18 -79.5 18
c-22.667 0 -40.834 -4.5 -54.501 -13.5s-20.5 -21.167 -20.5 -36.5c0 -9.33301 3.16699 -17.166 9.5 -23.499s16.833 -11.5 31.5 -15.5l17.5 -4.5c6.33301 -1.66699 21.166 -4.83398 44.499 -9.50098c41.333 -8.66699 71 -15.834 89 -21.501s33.333 -12.5 46 -20.5
c22.667 -12.667 39.334 -28.667 50.001 -48s16 -42.333 16 -69c0 -20 -3.5 -38.667 -10.5 -56s-17.167 -33 -30.5 -47c11.333 -11.333 19.666 -24.333 24.999 -39s8 -31.667 8 -51c0 -52.667 -21.667 -95.5 -65 -128.5s-98.666 -49.5 -165.999 -49.5zM210.998 338.003
c5.33301 -1.33301 11.6699 -2.8291 19.0029 -4.49609s22.666 -4.83398 45.999 -9.50098c20 -4 34.833 -7.16699 44.5 -9.5l27.5 -6.5c5.33301 4 9.33301 9 12 15s4 12.667 4 20c0 12.667 -3.83301 22.667 -11.5 30s-20.834 13.666 -39.501 18.999l-18 4.5
c-6.66699 1.66699 -26.334 5.5 -59.001 11.5l-28 6c-6 1.33301 -11.667 2.66602 -17 3.99902c-7.33301 -4.66699 -13 -10.334 -17 -17.001s-6 -14 -6 -22c0 -10 3.33301 -18.167 10 -24.5s17.667 -11.833 33 -16.5z" />
    <glyph glyph-name="dieresis" unicode="&#xa8;" 
d="M274 588h-142v130h142v-130zM468 588h-142v130h142v-130z" />
    <glyph glyph-name="copyright" unicode="&#xa9;" horiz-adv-x="812" 
d="M670 623c34.667 -34 60.999 -73.666 78.999 -118.999s27 -93.666 27 -144.999c0 -50.667 -9.16699 -98.667 -27.5 -144s-44.5 -85 -78.5 -119c-34 -34.667 -73.667 -61.167 -119 -79.5s-93.333 -27.5 -144 -27.5s-98.834 9.16699 -144.501 27.5s-85.5 44.5 -119.5 78.5
c-34.667 34 -61.167 73.667 -79.5 119s-27.5 93.666 -27.5 144.999s9.16699 99.666 27.5 144.999s44.5 85 78.5 119c34.667 34 74.834 60.167 120.501 78.5s93.834 27.5 144.501 27.5s98.667 -9.16699 144 -27.5s85 -44.5 119 -78.5zM617.999 146.001
c27.333 28 48.334 60.167 63.001 96.5s22 75.166 22 116.499s-7.16699 80.333 -21.5 117s-35.166 68.667 -62.499 96s-59.333 48.5 -96 63.5s-75.334 22.5 -116.001 22.5s-79.334 -7.33301 -116.001 -22s-69 -36 -97 -64c-27.333 -27.333 -48.333 -59.333 -63 -96
s-22 -75.667 -22 -117s7.33301 -80.166 22 -116.499s36 -68.5 64 -96.5c27.333 -27.333 59.333 -48.5 96 -63.5s75.334 -22.5 116.001 -22.5s79.167 7.5 115.5 22.5s68.166 36.167 95.499 63.5zM411 149.001c-58 0 -105.499 19.667 -142.499 59s-55.5 90 -55.5 152
s18.5 112.667 55.5 152s84.5 59 142.5 59c43.333 0 80.166 -10.5 110.499 -31.5s52.5 -51.167 66.5 -90.5l-108 -38c-3.33301 18 -11.166 32.167 -23.499 42.5s-27.5 15.5 -45.5 15.5c-24.667 0 -44.334 -9.83301 -59.001 -29.5s-22 -46.167 -22 -79.5
s7.33301 -59.833 22 -79.5s34.334 -29.5 59.001 -29.5c18 0 33.167 5.16699 45.5 15.5s20.166 24.5 23.499 42.5l108 -38c-14 -39.333 -36 -69.5 -66 -90.5s-67 -31.5 -111 -31.5z" />
    <glyph glyph-name="ordfeminine" unicode="&#xaa;" horiz-adv-x="410" 
d="M264 376c-12.667 -13.333 -28.499 -23.668 -47.499 -31.001s-40.167 -11 -63.5 -11c-38 0 -69 10.5 -93 31.5s-36 47.833 -36 80.5c0 33.333 11.667 60 35 80s58.666 33.667 105.999 41l88 15v7c0 16 -4.5 28.167 -13.5 36.5s-22.5 12.5 -40.5 12.5
c-17.333 0 -31 -3.83301 -41 -11.5s-16.667 -19.834 -20 -36.501l-104 17c9.33301 36 29.166 64.667 59.499 86s66.833 32 109.5 32c50 0 88.5 -11.333 115.5 -34s40.5 -55 40.5 -97v-149c0 -10 2.16699 -16.667 6.5 -20s12.166 -4.33301 23.499 -3v-80
c-31.333 -5.33301 -57.666 -5.16602 -78.999 0.500977s-36.666 16.834 -45.999 33.501zM176.001 414.998c22 0 40.334 5.66699 55.001 17s22 26 22 44v34l-69 -13c-18.667 -3.33301 -32.334 -8.5 -41.001 -15.5s-13 -16.5 -13 -28.5s4.16699 -21.333 12.5 -28
s19.5 -10 33.5 -10zM389.002 187.998h-362v94h362v-94z" />
    <glyph glyph-name="guillemotleft" unicode="&#xab;" horiz-adv-x="450" 
d="M203 59l-181 136v130l181 136v-135l-76 -66l76 -66v-135zM429 59l-181 136v130l181 136v-135l-76 -66l76 -66v-135z" />
    <glyph glyph-name="registered" unicode="&#xae;" horiz-adv-x="519" 
d="M419 665c20.667 -20.667 36.5 -44.667 47.5 -72s16.5 -56.333 16.5 -87s-5.5 -59.667 -16.5 -87s-26.833 -51.333 -47.5 -72s-44.667 -36.5 -72 -47.5s-56.333 -16.5 -87 -16.5s-59.667 5.5 -87 16.5s-51.333 26.833 -72 47.5c-21.333 20.667 -37.5 44.667 -48.5 72
s-16.5 56.333 -16.5 87s5.5 59.667 16.5 87s27.167 51.333 48.5 72c20.667 20.667 44.667 36.5 72 47.5s56.333 16.5 87 16.5s59.667 -5.5 87 -16.5s51.333 -26.833 72 -47.5zM392 372c17.333 18 30.5 38.498 39.5 61.498s13.5 47.167 13.5 72.5c0 26 -4.5 50.5 -13.5 73.5
s-22.167 43.167 -39.5 60.5s-37.333 30.833 -60 40.5s-46.667 14.5 -72 14.5s-49.5 -4.66699 -72.5 -14s-43.167 -23 -60.5 -41c-17.333 -17.333 -30.5 -37.5 -39.5 -60.5s-13.5 -47.5 -13.5 -73.5c0 -25.333 4.66699 -49.666 14 -72.999s22.333 -43.666 39 -60.999
c17.333 -17.333 37.5 -30.833 60.5 -40.5s47.167 -14.5 72.5 -14.5s49.333 4.83301 72 14.5s42.667 23.167 60 40.5zM316 486.998l55.999 -90h-74l-43 73h-29v-73h-67v225h111c28.667 0 51 -6.33301 67 -19s24 -30.667 24 -54c0 -14 -3.66699 -26.167 -11 -36.5
s-18.666 -18.833 -33.999 -25.5zM290.999 542.998c0 8 -2.66699 14.167 -8 18.5s-13 6.5 -23 6.5h-34v-50h34c10 0 17.667 2.16699 23 6.5s8 10.5 8 18.5z" />
    <glyph glyph-name="macron" unicode="&#xaf;" 
d="M453 696v-106h-306v106h306z" />
    <glyph glyph-name="degree" unicode="&#xb0;" horiz-adv-x="327" 
d="M10 575c0 42.667 15 79 45 109s66 45 108 45c43.333 0 79.833 -14.833 109.5 -44.5s44.5 -66.167 44.5 -109.5c0 -42.667 -15 -79.167 -45 -109.5s-66.333 -45.5 -109 -45.5c-42 0 -78 15.333 -108 46s-45 67 -45 109zM96 575c0 -18.667 6.5 -34.667 19.5 -48
s28.833 -20 47.5 -20c19.333 0 35.5 6.5 48.5 19.5s19.5 29.167 19.5 48.5s-6.5 35.5 -19.5 48.5s-29.167 19.5 -48.5 19.5c-18.667 0 -34.5 -6.66699 -47.5 -20s-19.5 -29.333 -19.5 -48z" />
    <glyph glyph-name="uni00B2" unicode="&#xb2;" horiz-adv-x="380" 
d="M41 320v83.998l134 105c18.667 13.333 32 26 40 38s12 24.667 12 38s-3.83301 24 -11.5 32s-18.167 12 -31.5 12s-24 -4.33301 -32 -13s-12 -20 -12 -34c0 -7.33301 0.666992 -14.166 2 -20.499s3 -11.5 5 -15.5h-102c-2.66699 6 -4.5 12.333 -5.5 19
s-1.5 14.334 -1.5 23.001c0 39.333 14.333 71.833 43 97.5s64 38.5 106 38.5c44.667 0 80.167 -11.833 106.5 -35.5s39.5 -55.167 39.5 -94.5c0 -24.667 -6.83301 -48 -20.5 -70s-35.167 -44 -64.5 -66l-58 -44h149v-94h-298z" />
    <glyph glyph-name="uni00B3" unicode="&#xb3;" horiz-adv-x="380" 
d="M341 433c0 -34.667 -13.666 -63.166 -40.999 -85.499s-63 -33.5 -107 -33.5c-44.667 0 -81.167 11 -109.5 33s-44.833 52.667 -49.5 92l108 15c1.33301 -14.667 6.66602 -26.5 15.999 -35.5s20.666 -13.5 33.999 -13.5c14 0 25.167 3.66699 33.5 11s12.5 17.333 12.5 30
c0 11.333 -4.66699 20.5 -14 27.5s-21.333 10.5 -36 10.5h-37v75h34c14 0 25.333 3.33301 34 10s13 15.667 13 27s-3.66699 20.333 -11 27s-17 10 -29 10c-12.667 0 -23.5 -4.33301 -32.5 -13s-14.5 -19.667 -16.5 -33l-102 8c4 38 20.167 69 48.5 93s63.833 36 106.5 36
c42 0 76.167 -11 102.5 -33s39.5 -50.333 39.5 -85c0 -18.667 -5.66699 -35.834 -17 -51.501s-25.666 -26.167 -42.999 -31.5c20 -7.33301 35.5 -18.833 46.5 -34.5s16.5 -34.167 16.5 -55.5z" />
    <glyph glyph-name="acute" unicode="&#xb4;" 
d="M290 573h-110l57 145h168z" />
    <glyph glyph-name="paragraph" unicode="&#xb6;" horiz-adv-x="609" 
d="M506 0h-132v600h-69v-282h-72c-63.333 0 -114.333 18 -153 54s-58 83.667 -58 143c0 60.667 20.667 109.667 62 147s96 56 164 56h335v-118h-77v-600z" />
    <glyph glyph-name="periodcentered" unicode="&#xb7;" horiz-adv-x="244" 
d="M204 210h-164v162h164v-162z" />
    <glyph glyph-name="cedilla" unicode="&#xb8;" 
d="M411 -99c0 -26 -11.5 -47.332 -34.5 -63.999s-52.167 -25 -87.5 -25c-22 0 -42.167 3 -60.5 9s-33.5 15 -45.5 27l43 63c6.66699 -8.66699 14.667 -15.334 24 -20.001s19.333 -7 30 -7c11.333 0 20.333 2.16699 27 6.5s10 10.166 10 17.499
c0 8.66699 -5.5 15.334 -16.5 20.001s-28.5 7.66699 -52.5 9l23 75h67l-10 -32c26 -3.33301 46.333 -11.833 61 -25.5s22 -31.5 22 -53.5z" />
    <glyph glyph-name="uni00B9" unicode="&#xb9;" horiz-adv-x="380" 
d="M149 414l-0.00195312 167h-92v72l36 3c24.667 1.33301 43.334 6.83301 56.001 16.5s21.334 25.167 26.001 46.5h83v-305h74v-94h-271v94h88z" />
    <glyph glyph-name="ordmasculine" unicode="&#xba;" horiz-adv-x="429" 
d="M214 725c55.333 0 100.333 -18 135 -54s52 -83.333 52 -142c0 -58 -17.333 -105.167 -52 -141.5s-79.667 -54.5 -135 -54.5s-100.333 18.167 -135 54.5s-52 83.5 -52 141.5c0 58.667 17.333 106 52 142s79.667 54 135 54zM214 636c-24.667 0 -43.834 -9.5 -57.501 -28.5
s-20.5 -45.167 -20.5 -78.5s6.83301 -59.333 20.5 -78s32.834 -28 57.501 -28s44 9.33301 58 28s21 44.667 21 78s-7 59.5 -21 78.5s-33.333 28.5 -58 28.5zM386 188h-341v94h341v-94z" />
    <glyph glyph-name="guillemotright" unicode="&#xbb;" horiz-adv-x="450" 
d="M428 325v-130l-181 -136v135l76 66l-76 66v135zM202 325v-130l-181 -136v135l76 66l-76 66v135z" />
    <glyph glyph-name="onequarter" unicode="&#xbc;" horiz-adv-x="881" 
d="M807 86v-86h-99v86h-180v78l145 234h134v-228h53v-84h-53zM706 315l-93 -145h93v145zM167 0l503 718h110l-502 -718h-111zM149 414l-0.00195312 167h-92v72l36 3c24.667 1.33301 43.334 6.83301 56.001 16.5s21.334 25.167 26.001 46.5h83v-305h74v-94h-271v94h88z" />
    <glyph glyph-name="onehalf" unicode="&#xbd;" horiz-adv-x="913" 
d="M167 0l503 718h110l-502 -718h-111zM572 0v83.998l134 105c18.667 13.333 32 26 40 38s12 24.667 12 38s-3.83301 24 -11.5 32s-18.167 12 -31.5 12s-24 -4.33301 -32 -13s-12 -20 -12 -34c0 -7.33301 0.666992 -14.166 2 -20.499s3 -11.5 5 -15.5h-102
c-2.66699 6 -4.5 12.333 -5.5 19s-1.5 14.334 -1.5 23.001c0 39.333 14.333 71.833 43 97.5s64 38.5 106 38.5c44.667 0 80.167 -11.833 106.5 -35.5s39.5 -55.167 39.5 -94.5c0 -24.667 -6.83301 -48 -20.5 -70s-35.167 -44 -64.5 -66l-58 -44h149v-94h-298zM149 413.998
l-0.00195312 167h-92v72l36 3c24.667 1.33301 43.334 6.83301 56.001 16.5s21.334 25.167 26.001 46.5h83v-305h74v-94h-271v94h88z" />
    <glyph glyph-name="threequarters" unicode="&#xbe;" horiz-adv-x="861" 
d="M795 86v-86h-99v86h-180v78l145 234h134v-228h53v-84h-53zM694 315l-93 -145h93v145zM154 0l503 718h110l-502 -718h-111zM341 433c0 -34.667 -13.666 -63.166 -40.999 -85.499s-63 -33.5 -107 -33.5c-44.667 0 -81.167 11 -109.5 33s-44.833 52.667 -49.5 92l108 15
c1.33301 -14.667 6.66602 -26.5 15.999 -35.5s20.666 -13.5 33.999 -13.5c14 0 25.167 3.66699 33.5 11s12.5 17.333 12.5 30c0 11.333 -4.66699 20.5 -14 27.5s-21.333 10.5 -36 10.5h-37v75h34c14 0 25.333 3.33301 34 10s13 15.667 13 27s-3.66699 20.333 -11 27
s-17 10 -29 10c-12.667 0 -23.5 -4.33301 -32.5 -13s-14.5 -19.667 -16.5 -33l-102 8c4 38 20.167 69 48.5 93s63.833 36 106.5 36c42 0 76.167 -11 102.5 -33s39.5 -50.333 39.5 -85c0 -18.667 -5.66699 -35.834 -17 -51.501s-25.666 -26.167 -42.999 -31.5
c20 -7.33301 35.5 -18.833 46.5 -34.5s16.5 -34.167 16.5 -55.5z" />
    <glyph glyph-name="questiondown" unicode="&#xbf;" horiz-adv-x="535" 
d="M162.022 227.03c0 -30.665 9.66699 -55.1621 29 -73.4941c19.332 -18.332 44.9971 -27.498 76.9951 -27.498c33.998 0 61.6631 10.833 82.9951 32.498s34.3311 51.8301 38.9971 90.4941l144.991 -20.999c-4 -33.998 -13.833 -65.3291 -29.498 -93.9941
c-15.666 -28.665 -36.165 -53.3301 -61.4961 -73.9951c-24.665 -19.999 -52.6631 -35.165 -83.9941 -45.498s-64.9961 -15.499 -100.994 -15.499c-73.3291 0 -132.825 19.999 -178.489 59.9961c-45.6631 39.9971 -68.4951 92.3271 -68.4951 156.99
c0 52.6631 16.499 97.6602 49.4971 134.991c32.9971 37.3311 75.4941 60.6631 127.491 69.9961v82.9951h137.991l-1 -168.989c-53.9971 0 -94.8281 -9 -122.493 -26.999s-41.498 -44.9971 -41.498 -80.9951zM176.022 728.001h163.99v-159.99h-163.99v159.99z" />
    <glyph glyph-name="Agrave" unicode="&#xc0;" horiz-adv-x="721" 
d="M8 0l268 718h168l269 -718h-149l-57 154h-296l-57 -154h-146zM460 279l-102 276l-101 -276h203zM339 911l83 -153h-114l-158 153h189z" />
    <glyph glyph-name="Aacute" unicode="&#xc1;" horiz-adv-x="721" 
d="M8 0l268 718h168l269 -718h-149l-57 154h-296l-57 -154h-146zM460 279l-102 276l-101 -276h203zM415 758h-114l83 153h189z" />
    <glyph glyph-name="Acircumflex" unicode="&#xc2;" horiz-adv-x="721" 
d="M8 0l268 718h168l269 -718h-149l-57 154h-296l-57 -154h-146zM460 279l-102 276l-101 -276h203zM283 911h154l115 -153h-107l-85 68l-85 -68h-107z" />
    <glyph glyph-name="Atilde" unicode="&#xc3;" horiz-adv-x="721" 
d="M8 0l268 718h168l269 -718h-149l-57 154h-296l-57 -154h-146zM460 279l-102 276l-101 -276h203zM289 923c12 0 23.833 -2.16602 35.5 -6.49902s26.834 -12.833 45.501 -25.5c13.333 -9.33301 23.166 -15.333 29.499 -18s12.5 -4 18.5 -4c12 0 21.333 4 28 12s12 22 16 42
h93c-2.66699 -50.667 -15 -90.667 -37 -120s-50.667 -44 -86 -44c-12 0 -23.667 2.16699 -35 6.5s-26.333 12.833 -45 25.5c-13.333 9.33301 -23.333 15.333 -30 18s-13 4 -19 4c-12 0 -21.333 -4.33301 -28 -13s-11.667 -22.334 -15 -41.001h-93c2 50 14 89.833 36 119.5
s50.667 44.5 86 44.5z" />
    <glyph glyph-name="Adieresis" unicode="&#xc4;" horiz-adv-x="721" 
d="M8 0l268 718h168l269 -718h-149l-57 154h-296l-57 -154h-146zM460 279l-102 276l-101 -276h203zM330 758h-142v133h142v-133zM532 758h-142v133h142v-133z" />
    <glyph glyph-name="Aring" unicode="&#xc5;" horiz-adv-x="721" 
d="M225 792c0 36 12.8311 66.333 38.498 91s57.834 37 96.501 37s70.834 -12.333 96.501 -37s38.5 -55 38.5 -91c0 -18.667 -3.83301 -36.334 -11.5 -53.001s-18.167 -31 -31.5 -43l261 -696h-149l-57 154h-296l-57 -154h-146l260 696c-13.333 12 -23.833 26.333 -31.5 43
s-11.5 34.334 -11.5 53.001zM359.998 844c-14.667 0 -26.8301 -4.83301 -36.4971 -14.5s-14.5 -22.167 -14.5 -37.5c0 -16 4.66699 -28.667 14 -38s21.666 -14 36.999 -14s27.666 4.66699 36.999 14s14 22 14 38c0 15.333 -4.83301 27.833 -14.5 37.5
s-21.834 14.5 -36.501 14.5zM460.002 279l-102 276l-101 -276h203z" />
    <glyph glyph-name="AE" unicode="&#xc6;" horiz-adv-x="1029" 
d="M0 0l411 718h581v-127h-352v-160h295v-126h-295v-178h352v-127h-497v162h-246l-92 -162h-157zM495 593l-175 -306h175v306z" />
    <glyph glyph-name="Ccedilla" unicode="&#xc7;" horiz-adv-x="671" 
d="M362 600c-56 0 -101.168 -22.1689 -135.501 -66.502s-51.5 -102.5 -51.5 -174.5s17.167 -130.167 51.5 -174.5s79.5 -66.5 135.5 -66.5c38.667 0 71.667 11.333 99 34s46 54.334 56 95.001l138 -46c-21.333 -65.333 -56.166 -116.333 -104.499 -153
s-106.5 -56.334 -174.5 -59.001l-3 -9c26 -3.33301 46.333 -11.833 61 -25.5s22 -31.5 22 -53.5c0 -26 -11.5 -47.333 -34.5 -64s-52.167 -25 -87.5 -25c-22 0 -42.167 3 -60.5 9s-33.5 15 -45.5 27l43 63c6.66699 -8.66699 14.667 -15.334 24 -20.001s19.333 -7 30 -7
c11.333 0 20.333 2.16699 27 6.5s10 10.166 10 17.499c0 8.66699 -5.5 15.334 -16.5 20.001s-28.5 7.66699 -52.5 9l17 56c-42.667 6.66699 -82 20.834 -118 42.501s-66.667 49.834 -92 84.501c-24 32 -42.167 68.333 -54.5 109s-18.5 84 -18.5 130
c0 50.667 7.66699 98.167 23 142.5s37.333 83.5 66 117.5c30.667 35.333 67.167 62.5 109.5 81.5s87.833 28.5 136.5 28.5c72 0 133.333 -18.5 184 -55.5s87 -89.167 109 -156.5l-138 -46c-10 40.667 -28.667 72.334 -56 95.001s-60.333 34 -99 34z" />
    <glyph glyph-name="Egrave" unicode="&#xc8;" horiz-adv-x="597" 
d="M63 0v718h496v-127h-351v-160h294v-126h-294v-178h351v-127h-496zM324 911l83 -153h-114l-158 153h189z" />
    <glyph glyph-name="Eacute" unicode="&#xc9;" horiz-adv-x="597" 
d="M63 0v718h496v-127h-351v-160h294v-126h-294v-178h351v-127h-496zM342 758h-114l83 153h189z" />
    <glyph glyph-name="Ecircumflex" unicode="&#xca;" horiz-adv-x="597" 
d="M63 0v718h496v-127h-351v-160h294v-126h-294v-178h351v-127h-496zM239 911h154l115 -153h-107l-85 68l-85 -68h-107z" />
    <glyph glyph-name="Edieresis" unicode="&#xcb;" horiz-adv-x="597" 
d="M63 0v718h496v-127h-351v-160h294v-126h-294v-178h351v-127h-496zM282 758h-142v133h142v-133zM484 758h-142v133h142v-133z" />
    <glyph glyph-name="Igrave" unicode="&#xcc;" horiz-adv-x="272" 
d="M63 718h147v-718h-147v718zM127 911l83 -153h-114l-158 153h189z" />
    <glyph glyph-name="Iacute" unicode="&#xcd;" horiz-adv-x="272" 
d="M63 718h147v-718h-147v718zM184 758h-114l83 153h189z" />
    <glyph glyph-name="Icircumflex" unicode="&#xce;" horiz-adv-x="272" 
d="M63 718h147v-718h-147v718zM59 911h154l115 -153h-107l-85 68l-85 -68h-107z" />
    <glyph glyph-name="Idieresis" unicode="&#xcf;" horiz-adv-x="272" 
d="M63 718h147v-718h-147v718zM106 758h-142v133h142v-133zM308 758h-142v133h142v-133z" />
    <glyph glyph-name="Eth" unicode="&#xd0;" horiz-adv-x="714" 
d="M322 0h-247v304h-59v127h59v287h247c54.667 0 104.5 -8.16699 149.5 -24.5s83.5 -40.166 115.5 -71.499c32.667 -31.333 57.334 -69.333 74.001 -114s25 -94.334 25 -149.001s-8.33301 -104.334 -25 -149.001s-41.334 -82.667 -74.001 -114
c-32 -31.333 -70.5 -55.166 -115.5 -71.499s-94.833 -24.5 -149.5 -24.5zM219 304v-178h103c68 0 121.5 20.833 160.5 62.5s58.5 98.5 58.5 170.5c0 72.667 -19.5 129.667 -58.5 171s-92.833 62 -161.5 62h-102v-161h119v-127h-119z" />
    <glyph glyph-name="Ntilde" unicode="&#xd1;" horiz-adv-x="731" 
d="M527 718h141v-718h-128l-336 495v-495h-141v718h149l315 -471v471zM296 923c12 0 23.833 -2.16602 35.5 -6.49902s26.834 -12.833 45.501 -25.5c13.333 -9.33301 23.166 -15.333 29.499 -18s12.5 -4 18.5 -4c12 0 21.333 4 28 12s12 22 16 42h93
c-2.66699 -50.667 -15 -90.667 -37 -120s-50.667 -44 -86 -44c-12 0 -23.667 2.16699 -35 6.5s-26.333 12.833 -45 25.5c-13.333 9.33301 -23.333 15.333 -30 18s-13 4 -19 4c-12 0 -21.333 -4.33301 -28 -13s-11.667 -22.334 -15 -41.001h-93c2 50 14 89.833 36 119.5
s50.667 44.5 86 44.5z" />
    <glyph glyph-name="Ograve" unicode="&#xd2;" horiz-adv-x="733" 
d="M118 98c-29.333 33.333 -51.833 72.3291 -67.5 116.996s-23.5 92.667 -23.5 144s7.83301 99.333 23.5 144s38.167 83.667 67.5 117c30.667 35.333 67.5 62.333 110.5 81s89.167 28 138.5 28s95.333 -9.33301 138 -28s79.667 -46 111 -82
c29.333 -33.333 51.666 -72.166 66.999 -116.499s23 -92.166 23 -143.499s-7.66699 -99.166 -23 -143.499s-37.666 -83.166 -66.999 -116.499c-31.333 -36 -68.333 -63.333 -111 -82s-88.667 -28 -138 -28s-95.5 9.33301 -138.5 28s-79.833 45.667 -110.5 81zM367 117.996
c56.667 0 102.667 22.167 138 66.5s53 102.5 53 174.5s-17.667 130.167 -53 174.5s-81.333 66.5 -138 66.5c-57.333 0 -103.666 -22 -138.999 -66s-53 -102.333 -53 -175s17.667 -131 53 -175s81.666 -66 138.999 -66zM352 910.996l83 -153h-114l-158 153h189z" />
    <glyph glyph-name="Oacute" unicode="&#xd3;" horiz-adv-x="733" 
d="M118 98c-29.333 33.333 -51.833 72.3291 -67.5 116.996s-23.5 92.667 -23.5 144s7.83301 99.333 23.5 144s38.167 83.667 67.5 117c30.667 35.333 67.5 62.333 110.5 81s89.167 28 138.5 28s95.333 -9.33301 138 -28s79.667 -46 111 -82
c29.333 -33.333 51.666 -72.166 66.999 -116.499s23 -92.166 23 -143.499s-7.66699 -99.166 -23 -143.499s-37.666 -83.166 -66.999 -116.499c-31.333 -36 -68.333 -63.333 -111 -82s-88.667 -28 -138 -28s-95.5 9.33301 -138.5 28s-79.833 45.667 -110.5 81zM367 117.996
c56.667 0 102.667 22.167 138 66.5s53 102.5 53 174.5s-17.667 130.167 -53 174.5s-81.333 66.5 -138 66.5c-57.333 0 -103.666 -22 -138.999 -66s-53 -102.333 -53 -175s17.667 -131 53 -175s81.666 -66 138.999 -66zM416 757.996h-114l83 153h189z" />
    <glyph glyph-name="Ocircumflex" unicode="&#xd4;" horiz-adv-x="733" 
d="M118 98c-29.333 33.333 -51.833 72.3291 -67.5 116.996s-23.5 92.667 -23.5 144s7.83301 99.333 23.5 144s38.167 83.667 67.5 117c30.667 35.333 67.5 62.333 110.5 81s89.167 28 138.5 28s95.333 -9.33301 138 -28s79.667 -46 111 -82
c29.333 -33.333 51.666 -72.166 66.999 -116.499s23 -92.166 23 -143.499s-7.66699 -99.166 -23 -143.499s-37.666 -83.166 -66.999 -116.499c-31.333 -36 -68.333 -63.333 -111 -82s-88.667 -28 -138 -28s-95.5 9.33301 -138.5 28s-79.833 45.667 -110.5 81zM367 117.996
c56.667 0 102.667 22.167 138 66.5s53 102.5 53 174.5s-17.667 130.167 -53 174.5s-81.333 66.5 -138 66.5c-57.333 0 -103.666 -22 -138.999 -66s-53 -102.333 -53 -175s17.667 -131 53 -175s81.666 -66 138.999 -66zM290 910.996h154l115 -153h-107l-85 68l-85 -68h-107z
" />
    <glyph glyph-name="Otilde" unicode="&#xd5;" horiz-adv-x="733" 
d="M118 98c-29.333 33.333 -51.833 72.3291 -67.5 116.996s-23.5 92.667 -23.5 144s7.83301 99.333 23.5 144s38.167 83.667 67.5 117c30.667 35.333 67.5 62.333 110.5 81s89.167 28 138.5 28s95.333 -9.33301 138 -28s79.667 -46 111 -82
c29.333 -33.333 51.666 -72.166 66.999 -116.499s23 -92.166 23 -143.499s-7.66699 -99.166 -23 -143.499s-37.666 -83.166 -66.999 -116.499c-31.333 -36 -68.333 -63.333 -111 -82s-88.667 -28 -138 -28s-95.5 9.33301 -138.5 28s-79.833 45.667 -110.5 81zM367 117.996
c56.667 0 102.667 22.167 138 66.5s53 102.5 53 174.5s-17.667 130.167 -53 174.5s-81.333 66.5 -138 66.5c-57.333 0 -103.666 -22 -138.999 -66s-53 -102.333 -53 -175s17.667 -131 53 -175s81.666 -66 138.999 -66zM295 922.996c12 0 23.833 -2.16602 35.5 -6.49902
s26.834 -12.833 45.501 -25.5c13.333 -9.33301 23.166 -15.333 29.499 -18s12.5 -4 18.5 -4c12 0 21.333 4 28 12s12 22 16 42h93c-2.66699 -50.667 -15 -90.667 -37 -120s-50.667 -44 -86 -44c-12 0 -23.667 2.16699 -35 6.5s-26.333 12.833 -45 25.5
c-13.333 9.33301 -23.333 15.333 -30 18s-13 4 -19 4c-12 0 -21.333 -4.33301 -28 -13s-11.667 -22.334 -15 -41.001h-93c2 50 14 89.833 36 119.5s50.667 44.5 86 44.5z" />
    <glyph glyph-name="Odieresis" unicode="&#xd6;" horiz-adv-x="733" 
d="M118 98c-29.333 33.333 -51.833 72.3291 -67.5 116.996s-23.5 92.667 -23.5 144s7.83301 99.333 23.5 144s38.167 83.667 67.5 117c30.667 35.333 67.5 62.333 110.5 81s89.167 28 138.5 28s95.333 -9.33301 138 -28s79.667 -46 111 -82
c29.333 -33.333 51.666 -72.166 66.999 -116.499s23 -92.166 23 -143.499s-7.66699 -99.166 -23 -143.499s-37.666 -83.166 -66.999 -116.499c-31.333 -36 -68.333 -63.333 -111 -82s-88.667 -28 -138 -28s-95.5 9.33301 -138.5 28s-79.833 45.667 -110.5 81zM367 117.996
c56.667 0 102.667 22.167 138 66.5s53 102.5 53 174.5s-17.667 130.167 -53 174.5s-81.333 66.5 -138 66.5c-57.333 0 -103.666 -22 -138.999 -66s-53 -102.333 -53 -175s17.667 -131 53 -175s81.666 -66 138.999 -66zM337 757.996h-142v133h142v-133zM539 757.996h-142v133
h142v-133z" />
    <glyph glyph-name="multiply" unicode="&#xd7;" horiz-adv-x="608" 
d="M59 180l164 165l-164 164l82 82l164 -165l163 164l82 -82l-163 -163l163 -164l-82 -82l-163 164l-164 -165z" />
    <glyph glyph-name="Oslash" unicode="&#xd8;" horiz-adv-x="733" 
d="M117 -31l-83.001 65.998l68 82c-24.667 32.667 -43.334 69.667 -56.001 111s-19 85 -19 131c0 51.333 7.83301 99.333 23.5 144s38.167 83.667 67.5 117c30.667 35.333 67.5 62.333 110.5 81s89.167 28 138.5 28c36.667 0 71.334 -5 104.001 -15s62.334 -25 89.001 -45
l54 65l84 -66l-62 -74c23.333 -32 40.833 -67.833 52.5 -107.5s17.5 -82.167 17.5 -127.5c0 -51.333 -7.66699 -99.166 -23 -143.499s-37.666 -83.166 -66.999 -116.499c-31.333 -36 -68.333 -63.333 -111 -82s-88.667 -28 -138 -28c-34.667 0 -67.834 4.66699 -99.501 14
s-61.167 23 -88.5 41zM366.999 600.998c-58 0 -104.667 -22.167 -140 -66.5s-53 -102.833 -53 -175.5c0 -24 2 -46.667 6 -68s10 -41 18 -59l276 334c-14.667 11.333 -31 20 -49 26s-37.333 9 -58 9zM366.999 116.998c57.333 0 103.667 22.167 139 66.5s53 102.833 53 175.5
c0 22 -1.66699 42.833 -5 62.5s-8.33301 38.167 -15 55.5l-274 -330c14.667 -10 30.667 -17.5 48 -22.5s35.333 -7.5 54 -7.5z" />
    <glyph glyph-name="Ugrave" unicode="&#xd9;" horiz-adv-x="696" 
d="M348 -10c-93.333 0 -166 26 -218 78s-78 125 -78 219v431h148v-426c0 -56.667 12.667 -99.667 38 -129s62 -44 110 -44c48.667 0 85.667 14.667 111 44s38 72.333 38 129v426h147v-431c0 -94 -26 -167 -78 -219s-124.667 -78 -218 -78zM348 911l83 -153h-114l-158 153
h189z" />
    <glyph glyph-name="Uacute" unicode="&#xda;" horiz-adv-x="696" 
d="M348 -10c-93.333 0 -166 26 -218 78s-78 125 -78 219v431h148v-426c0 -56.667 12.667 -99.667 38 -129s62 -44 110 -44c48.667 0 85.667 14.667 111 44s38 72.333 38 129v426h147v-431c0 -94 -26 -167 -78 -219s-124.667 -78 -218 -78zM390 758h-114l83 153h189z" />
    <glyph glyph-name="Ucircumflex" unicode="&#xdb;" horiz-adv-x="696" 
d="M348 -10c-93.333 0 -166 26 -218 78s-78 125 -78 219v431h148v-426c0 -56.667 12.667 -99.667 38 -129s62 -44 110 -44c48.667 0 85.667 14.667 111 44s38 72.333 38 129v426h147v-431c0 -94 -26 -167 -78 -219s-124.667 -78 -218 -78zM271 911h154l115 -153h-107l-85 68
l-85 -68h-107z" />
    <glyph glyph-name="Udieresis" unicode="&#xdc;" horiz-adv-x="696" 
d="M348 -10c-93.333 0 -166 26 -218 78s-78 125 -78 219v431h148v-426c0 -56.667 12.667 -99.667 38 -129s62 -44 110 -44c48.667 0 85.667 14.667 111 44s38 72.333 38 129v426h147v-431c0 -94 -26 -167 -78 -219s-124.667 -78 -218 -78zM318 758h-142v133h142v-133z
M520 758h-142v133h142v-133z" />
    <glyph glyph-name="Yacute" unicode="&#xdd;" horiz-adv-x="662" 
d="M158 718l175 -291l175 291h156l-259 -426v-292h-147v292l-260 426h160zM378 758h-114l83 153h189z" />
    <glyph glyph-name="Thorn" unicode="&#xde;" horiz-adv-x="639" 
d="M625 369c0 -72 -23.5 -127.833 -70.5 -167.5s-112.833 -59.5 -197.5 -59.5h-147v-142h-147v718h147v-122h147c85.333 0 151.333 -19.667 198 -59s70 -95.333 70 -168zM349 473h-139v-208h139c42 0 74.167 9 96.5 27s33.5 43.667 33.5 77s-11.167 59 -33.5 77
s-54.5 27 -96.5 27z" />
    <glyph glyph-name="germandbls" unicode="&#xdf;" horiz-adv-x="589" 
d="M305 729c65.333 0 118.171 -16.8301 158.504 -50.4971s60.5 -77.5 60.5 -131.5c0 -34.667 -7.33301 -64.334 -22 -89.001s-36.334 -43.667 -65.001 -57c43.333 -14.667 76.333 -38.167 99 -70.5s34 -71.5 34 -117.5c0 -33.333 -5.83301 -63.833 -17.5 -91.5
s-28.834 -51.167 -51.501 -70.5c-21.333 -18.667 -46.5 -33 -75.5 -43s-59.833 -15 -92.5 -15c-17.333 0 -32.833 0.5 -46.5 1.5s-27.834 2.83301 -42.501 5.5v112c12.667 -2.66699 24.5 -4.5 35.5 -5.5s21.833 -1.5 32.5 -1.5c38 0 67.833 9.83301 89.5 29.5
s32.5 47.5 32.5 83.5c0 37.333 -11.5 65.666 -34.5 84.999s-56.5 29 -100.5 29h-52v118h39c33.333 0 59 7.66699 77 23s27 36.666 27 63.999c0 24.667 -7.66699 43.667 -23 57s-37 20 -65 20c-34.667 0 -60.834 -11.5 -78.501 -34.5s-26.5 -56.5 -26.5 -100.5v-479h-139v481
c0 76 22.167 136.333 66.5 181s104.5 67 180.5 67z" />
    <glyph glyph-name="agrave" unicode="&#xe0;" horiz-adv-x="544" 
d="M357 49c-17.333 -18.667 -39.335 -33.001 -66.002 -43.001s-56.667 -15 -90 -15c-52.667 0 -95.667 14.333 -129 43s-50 66 -50 112c0 45.333 15.5 81.833 46.5 109.5s78.833 47.167 143.5 58.5l131 25v8c0 24.667 -6.66699 43 -20 55s-33.666 18 -60.999 18
c-25.333 0 -45.333 -5.66699 -60 -17s-25 -29 -31 -53l-133 25c13.333 48.667 40.5 87.667 81.5 117s90.167 44 147.5 44c68.667 0 121.334 -15.667 158.001 -47s55 -76.666 55 -135.999v-215c0 -14 3.33301 -23.5 10 -28.5s17.667 -6.5 33 -4.5v-105
c-43.333 -6 -78.833 -5 -106.5 3s-47.5 23.333 -59.5 46zM228.998 96.999c32.667 0 59.834 8.33203 81.501 24.999s32.5 38.334 32.5 65.001v54l-103 -21c-28.667 -5.33301 -49.167 -13.333 -61.5 -24s-18.5 -24.667 -18.5 -42c0 -18 6.16699 -32 18.5 -42
s29.166 -15 50.499 -15zM274.998 717.998l57 -145h-110l-115 145h168z" />
    <glyph glyph-name="aacute" unicode="&#xe1;" horiz-adv-x="544" 
d="M357 49c-17.333 -18.667 -39.335 -33.001 -66.002 -43.001s-56.667 -15 -90 -15c-52.667 0 -95.667 14.333 -129 43s-50 66 -50 112c0 45.333 15.5 81.833 46.5 109.5s78.833 47.167 143.5 58.5l131 25v8c0 24.667 -6.66699 43 -20 55s-33.666 18 -60.999 18
c-25.333 0 -45.333 -5.66699 -60 -17s-25 -29 -31 -53l-133 25c13.333 48.667 40.5 87.667 81.5 117s90.167 44 147.5 44c68.667 0 121.334 -15.667 158.001 -47s55 -76.666 55 -135.999v-215c0 -14 3.33301 -23.5 10 -28.5s17.667 -6.5 33 -4.5v-105
c-43.333 -6 -78.833 -5 -106.5 3s-47.5 23.333 -59.5 46zM228.998 96.999c32.667 0 59.834 8.33203 81.501 24.999s32.5 38.334 32.5 65.001v54l-103 -21c-28.667 -5.33301 -49.167 -13.333 -61.5 -24s-18.5 -24.667 -18.5 -42c0 -18 6.16699 -32 18.5 -42
s29.166 -15 50.499 -15zM325.998 572.998h-110l57 145h168z" />
    <glyph glyph-name="acircumflex" unicode="&#xe2;" horiz-adv-x="544" 
d="M357 49c-17.333 -18.667 -39.335 -33.001 -66.002 -43.001s-56.667 -15 -90 -15c-52.667 0 -95.667 14.333 -129 43s-50 66 -50 112c0 45.333 15.5 81.833 46.5 109.5s78.833 47.167 143.5 58.5l131 25v8c0 24.667 -6.66699 43 -20 55s-33.666 18 -60.999 18
c-25.333 0 -45.333 -5.66699 -60 -17s-25 -29 -31 -53l-133 25c13.333 48.667 40.5 87.667 81.5 117s90.167 44 147.5 44c68.667 0 121.334 -15.667 158.001 -47s55 -76.666 55 -135.999v-215c0 -14 3.33301 -23.5 10 -28.5s17.667 -6.5 33 -4.5v-105
c-43.333 -6 -78.833 -5 -106.5 3s-47.5 23.333 -59.5 46zM228.998 96.999c32.667 0 59.834 8.33203 81.501 24.999s32.5 38.334 32.5 65.001v54l-103 -21c-28.667 -5.33301 -49.167 -13.333 -61.5 -24s-18.5 -24.667 -18.5 -42c0 -18 6.16699 -32 18.5 -42
s29.166 -15 50.499 -15zM199.998 717.998h142l100 -145h-105l-66 57l-66 -57h-105z" />
    <glyph glyph-name="atilde" unicode="&#xe3;" horiz-adv-x="544" 
d="M357 49c-17.333 -18.667 -39.335 -33.001 -66.002 -43.001s-56.667 -15 -90 -15c-52.667 0 -95.667 14.333 -129 43s-50 66 -50 112c0 45.333 15.5 81.833 46.5 109.5s78.833 47.167 143.5 58.5l131 25v8c0 24.667 -6.66699 43 -20 55s-33.666 18 -60.999 18
c-25.333 0 -45.333 -5.66699 -60 -17s-25 -29 -31 -53l-133 25c13.333 48.667 40.5 87.667 81.5 117s90.167 44 147.5 44c68.667 0 121.334 -15.667 158.001 -47s55 -76.666 55 -135.999v-215c0 -14 3.33301 -23.5 10 -28.5s17.667 -6.5 33 -4.5v-105
c-43.333 -6 -78.833 -5 -106.5 3s-47.5 23.333 -59.5 46zM228.998 96.999c32.667 0 59.834 8.33203 81.501 24.999s32.5 38.334 32.5 65.001v54l-103 -21c-28.667 -5.33301 -49.167 -13.333 -61.5 -24s-18.5 -24.667 -18.5 -42c0 -18 6.16699 -32 18.5 -42
s29.166 -15 50.499 -15zM205.998 725.998c10.667 0 21 -2 31 -6s23 -12 39 -24c11.333 -8.66699 19.833 -14.334 25.5 -17.001s10.834 -4 15.501 -4c10 0 17.833 3.83301 23.5 11.5s10.167 20.834 13.5 39.501h86c-2 -47.333 -12.667 -84.666 -32 -111.999s-45 -41 -77 -41
c-10.667 0 -21 2 -31 6s-23 12 -39 24c-11.333 8.66699 -19.833 14.334 -25.5 17.001s-10.834 4 -15.501 4c-10 0 -17.833 -3.83301 -23.5 -11.5s-10.167 -20.834 -13.5 -39.501h-86c2 47.333 12.667 84.666 32 111.999s45 41 77 41z" />
    <glyph glyph-name="adieresis" unicode="&#xe4;" horiz-adv-x="544" 
d="M357 49c-17.333 -18.667 -39.335 -33.001 -66.002 -43.001s-56.667 -15 -90 -15c-52.667 0 -95.667 14.333 -129 43s-50 66 -50 112c0 45.333 15.5 81.833 46.5 109.5s78.833 47.167 143.5 58.5l131 25v8c0 24.667 -6.66699 43 -20 55s-33.666 18 -60.999 18
c-25.333 0 -45.333 -5.66699 -60 -17s-25 -29 -31 -53l-133 25c13.333 48.667 40.5 87.667 81.5 117s90.167 44 147.5 44c68.667 0 121.334 -15.667 158.001 -47s55 -76.666 55 -135.999v-215c0 -14 3.33301 -23.5 10 -28.5s17.667 -6.5 33 -4.5v-105
c-43.333 -6 -78.833 -5 -106.5 3s-47.5 23.333 -59.5 46zM228.998 96.999c32.667 0 59.834 8.33203 81.501 24.999s32.5 38.334 32.5 65.001v54l-103 -21c-28.667 -5.33301 -49.167 -13.333 -61.5 -24s-18.5 -24.667 -18.5 -42c0 -18 6.16699 -32 18.5 -42
s29.166 -15 50.499 -15zM241.998 587.998h-142v130h142v-130zM435.998 587.998h-142v130h142v-130z" />
    <glyph glyph-name="aring" unicode="&#xe5;" horiz-adv-x="544" 
d="M357 49c-17.333 -18.667 -39.335 -33.001 -66.002 -43.001s-56.667 -15 -90 -15c-52.667 0 -95.667 14.333 -129 43s-50 66 -50 112c0 45.333 15.5 81.833 46.5 109.5s78.833 47.167 143.5 58.5l131 25v8c0 24.667 -6.66699 43 -20 55s-33.666 18 -60.999 18
c-25.333 0 -45.333 -5.66699 -60 -17s-25 -29 -31 -53l-133 25c13.333 48.667 40.5 87.667 81.5 117s90.167 44 147.5 44c68.667 0 121.334 -15.667 158.001 -47s55 -76.666 55 -135.999v-215c0 -14 3.33301 -23.5 10 -28.5s17.667 -6.5 33 -4.5v-105
c-43.333 -6 -78.833 -5 -106.5 3s-47.5 23.333 -59.5 46zM228.998 96.999c32.667 0 59.834 8.33203 81.501 24.999s32.5 38.334 32.5 65.001v54l-103 -21c-28.667 -5.33301 -49.167 -13.333 -61.5 -24s-18.5 -24.667 -18.5 -42c0 -18 6.16699 -32 18.5 -42
s29.166 -15 50.499 -15zM265.998 560.998c-32.667 0 -59.834 10.5 -81.501 31.5s-32.5 46.833 -32.5 77.5c0 30 10.833 55.5 32.5 76.5s48.834 31.5 81.501 31.5s59.834 -10.5 81.501 -31.5s32.5 -46.5 32.5 -76.5c0 -30.667 -10.833 -56.5 -32.5 -77.5
s-48.834 -31.5 -81.501 -31.5zM265.998 714.998c-12 0 -22.333 -4.5 -31 -13.5s-13 -19.5 -13 -31.5c0 -12.667 4.16699 -23.334 12.5 -32.001s18.833 -13 31.5 -13s23.167 4.33301 31.5 13s12.5 19.334 12.5 32.001c0 12 -4.33301 22.5 -13 31.5s-19 13.5 -31 13.5z" />
    <glyph glyph-name="ae" unicode="&#xe6;" horiz-adv-x="860" 
d="M22 148c0 55.333 22.335 98.834 67.002 130.501s104.667 47.5 180 47.5h74v20c0 24.667 -6.83301 43.167 -20.5 55.5s-33.834 18.5 -60.501 18.5c-24.667 0 -44.5 -5.66699 -59.5 -17s-25.833 -29 -32.5 -53l-132 25c13.333 48.667 40.666 87.667 81.999 117
s90.333 44 147 44c36.667 0 68.834 -5.5 96.501 -16.5s49.834 -27.167 66.501 -48.5c23.333 21.333 49 37.5 77 48.5s57.333 16.5 88 16.5c37.333 0 71.166 -6.5 101.499 -19.5s56.166 -31.833 77.499 -56.5c20 -23.333 35.333 -51 46 -83s16 -66.667 16 -104v-41h-362
c4.66699 -40 18.334 -71.333 41.001 -94s51.334 -34 86.001 -34c28 0 51.833 6.66699 71.5 20s33.5 32.333 41.5 57l118 -42c-18.667 -46.667 -48.5 -83.334 -89.5 -110.001s-88.5 -40 -142.5 -40c-40.667 0 -77.834 7.5 -111.501 22.5s-62.167 36.5 -85.5 64.5
c-21.333 -27.333 -48.833 -48.5 -82.5 -63.5s-71.834 -22.5 -114.501 -22.5c-53.333 0 -97.333 14.833 -132 44.5s-52 67.5 -52 113.5zM594.002 424.001c-29.333 0 -53.833 -8.5 -73.5 -25.5s-33.5 -41.167 -41.5 -72.5h217c-0.666992 29.333 -10 53 -28 71
s-42.667 27 -74 27zM159.002 162.001c0 -19.333 6.66797 -34.668 20.001 -46.001s31 -17 53 -17c31.333 0 57.666 9.33301 78.999 28s32 42.334 32 71.001v34h-68c-40.667 0 -70.167 -5.66699 -88.5 -17s-27.5 -29 -27.5 -53z" />
    <glyph glyph-name="ccedilla" unicode="&#xe7;" horiz-adv-x="525" 
d="M289 419c-38 0 -67.999 -13.998 -89.999 -41.998s-33 -66 -33 -114c0 -48.667 11 -86.834 33 -114.501s52 -41.5 90 -41.5c26.667 0 49.167 8.16699 67.5 24.5s31.166 39.5 38.499 69.5l121 -54c-12.667 -45.333 -38.334 -82.5 -77.001 -111.5s-84.667 -44.5 -138 -46.5
l-3 -9c26 -3.33301 46.333 -11.833 61 -25.5s22 -31.5 22 -53.5c0 -26 -11.5 -47.333 -34.5 -64s-52.167 -25 -87.5 -25c-22 0 -42.167 3 -60.5 9s-33.5 15 -45.5 27l43 63c6.66699 -8.66699 14.667 -15.334 24 -20.001s19.333 -7 30 -7c11.333 0 20.333 2.16699 27 6.5
s10 10.166 10 17.499c0 8.66699 -5.5 15.334 -16.5 20.001s-28.5 7.66699 -52.5 9l17 57c-63.333 11.333 -113.833 41.333 -151.5 90s-56.5 108.334 -56.5 179.001c0 38.667 6 74.667 18 108s29.667 62.333 53 87c23.333 25.333 51.333 44.666 84 57.999s68 20 106 20
c56 0 104.167 -14.167 144.5 -42.5s67.5 -65.833 81.5 -112.5l-119 -56c-7.33301 30 -20.166 53.167 -38.499 69.5s-40.833 24.5 -67.5 24.5z" />
    <glyph glyph-name="egrave" unicode="&#xe8;" horiz-adv-x="548" 
d="M288 -11c-38.667 0 -74.332 6.66992 -106.999 20.0029s-60.667 32.666 -84 57.999c-22.667 24.667 -40 53.667 -52 87s-18 69.666 -18 108.999c0 37.333 6 72.5 18 105.5s29.333 61.833 52 86.5c23.333 26 51 46 83 60s66.333 21 103 21
c73.333 0 131.666 -24.167 174.999 -72.5s65 -111.833 65 -190.5v-41h-362c4.66699 -40 18.5 -71.333 41.5 -94s51.833 -34 86.5 -34c28 0 51.833 6.66699 71.5 20s33.5 32.333 41.5 57l118 -42c-18.667 -46.667 -48.5 -83.334 -89.5 -110.001s-88.5 -40 -142.5 -40z
M282.002 424.003c-28.667 0 -53.167 -8.33301 -73.5 -25s-34.5 -40.667 -42.5 -72h218c-0.666992 29.333 -10.167 52.833 -28.5 70.5s-42.833 26.5 -73.5 26.5zM288.002 718.003l57 -145h-110l-115 145h168z" />
    <glyph glyph-name="eacute" unicode="&#xe9;" horiz-adv-x="548" 
d="M288 -11c-38.667 0 -74.332 6.66992 -106.999 20.0029s-60.667 32.666 -84 57.999c-22.667 24.667 -40 53.667 -52 87s-18 69.666 -18 108.999c0 37.333 6 72.5 18 105.5s29.333 61.833 52 86.5c23.333 26 51 46 83 60s66.333 21 103 21
c73.333 0 131.666 -24.167 174.999 -72.5s65 -111.833 65 -190.5v-41h-362c4.66699 -40 18.5 -71.333 41.5 -94s51.833 -34 86.5 -34c28 0 51.833 6.66699 71.5 20s33.5 32.333 41.5 57l118 -42c-18.667 -46.667 -48.5 -83.334 -89.5 -110.001s-88.5 -40 -142.5 -40z
M282.002 424.003c-28.667 0 -53.167 -8.33301 -73.5 -25s-34.5 -40.667 -42.5 -72h218c-0.666992 29.333 -10.167 52.833 -28.5 70.5s-42.833 26.5 -73.5 26.5zM338.002 573.003h-110l57 145h168z" />
    <glyph glyph-name="ecircumflex" unicode="&#xea;" horiz-adv-x="548" 
d="M288 -11c-38.667 0 -74.332 6.66992 -106.999 20.0029s-60.667 32.666 -84 57.999c-22.667 24.667 -40 53.667 -52 87s-18 69.666 -18 108.999c0 37.333 6 72.5 18 105.5s29.333 61.833 52 86.5c23.333 26 51 46 83 60s66.333 21 103 21
c73.333 0 131.666 -24.167 174.999 -72.5s65 -111.833 65 -190.5v-41h-362c4.66699 -40 18.5 -71.333 41.5 -94s51.833 -34 86.5 -34c28 0 51.833 6.66699 71.5 20s33.5 32.333 41.5 57l118 -42c-18.667 -46.667 -48.5 -83.334 -89.5 -110.001s-88.5 -40 -142.5 -40z
M282.002 424.003c-28.667 0 -53.167 -8.33301 -73.5 -25s-34.5 -40.667 -42.5 -72h218c-0.666992 29.333 -10.167 52.833 -28.5 70.5s-42.833 26.5 -73.5 26.5zM216.002 718.003h142l100 -145h-105l-66 57l-66 -57h-105z" />
    <glyph glyph-name="edieresis" unicode="&#xeb;" horiz-adv-x="548" 
d="M288 -11c-38.667 0 -74.332 6.66992 -106.999 20.0029s-60.667 32.666 -84 57.999c-22.667 24.667 -40 53.667 -52 87s-18 69.666 -18 108.999c0 37.333 6 72.5 18 105.5s29.333 61.833 52 86.5c23.333 26 51 46 83 60s66.333 21 103 21
c73.333 0 131.666 -24.167 174.999 -72.5s65 -111.833 65 -190.5v-41h-362c4.66699 -40 18.5 -71.333 41.5 -94s51.833 -34 86.5 -34c28 0 51.833 6.66699 71.5 20s33.5 32.333 41.5 57l118 -42c-18.667 -46.667 -48.5 -83.334 -89.5 -110.001s-88.5 -40 -142.5 -40z
M282.002 424.003c-28.667 0 -53.167 -8.33301 -73.5 -25s-34.5 -40.667 -42.5 -72h218c-0.666992 29.333 -10.167 52.833 -28.5 70.5s-42.833 26.5 -73.5 26.5zM261.002 588.003h-142v130h142v-130zM455.002 588.003h-142v130h142v-130z" />
    <glyph glyph-name="igrave" unicode="&#xec;" horiz-adv-x="255" 
d="M58 526h140v-526h-140v526zM127 718l57 -145h-110l-115 145h168z" />
    <glyph glyph-name="iacute" unicode="&#xed;" horiz-adv-x="255" 
d="M58 526h140v-526h-140v526zM184 573h-110l57 145h168z" />
    <glyph glyph-name="icircumflex" unicode="&#xee;" horiz-adv-x="255" 
d="M57 718h142l98 -145h-105l-64 57l-64 -57h-105zM58 526h140v-526h-140v526z" />
    <glyph glyph-name="idieresis" unicode="&#xef;" horiz-adv-x="255" 
d="M102 588h-140v130h140v-130zM294 588h-140v130h140v-130zM58 526h140v-526h-140v526z" />
    <glyph glyph-name="eth" unicode="&#xf0;" horiz-adv-x="570" 
d="M280 528c15.333 0 28.832 -1.33496 40.499 -4.00195s21.834 -6.66699 30.501 -12c-6.66699 10.667 -14.834 21.334 -24.501 32.001s-21.5 21.667 -35.5 33l-182 -50v97l86 24l-12.5 8l-20.5 13l-33 20l-20 13l152 27c10.667 -6 21.5 -12.667 32.5 -20
s22.833 -15.666 35.5 -24.999l142 39v-97l-58 -16c43.333 -45.333 75.833 -95 97.5 -149s32.5 -112.667 32.5 -176c0 -42 -5.33301 -80.667 -16 -116s-26.667 -66 -48 -92c-22.667 -28.667 -50.667 -50.5 -84 -65.5s-70 -22.5 -110 -22.5c-38 0 -73.167 6.66699 -105.5 20
s-60.166 33 -83.499 59c-22.667 24.667 -39.834 53.667 -51.501 87s-17.5 69.333 -17.5 108s5.83301 74 17.5 106s28.5 60 50.5 84c22.667 24 49.834 42.5 81.501 55.5s66.167 19.5 103.5 19.5zM284.999 419.998c-36.667 0 -65.667 -14 -87 -42s-32 -66.333 -32 -115
c0 -49.333 10.5 -88 31.5 -116s50.167 -42 87.5 -42c36.667 0 65.5 14 86.5 42s31.5 66.667 31.5 116s-10.5 87.833 -31.5 115.5s-49.833 41.5 -86.5 41.5z" />
    <glyph glyph-name="ntilde" unicode="&#xf1;" horiz-adv-x="573" 
d="M198 0h-140.001v526h140v-54c17.333 20.667 38.333 36.5 63 47.5s51.667 16.5 81 16.5c54 0 97 -17 129 -51s48 -80 48 -138v-347h-140v307c0 32.667 -7.16699 57.667 -21.5 75s-35.166 26 -62.499 26c-28 0 -51.167 -9.5 -69.5 -28.5s-27.5 -44.167 -27.5 -75.5v-304z
M233.999 726c10.667 0 21 -2 31 -6s23 -12 39 -24c11.333 -8.66699 19.833 -14.334 25.5 -17.001s10.834 -4 15.501 -4c10 0 17.833 3.83301 23.5 11.5s10.167 20.834 13.5 39.501h86c-2 -47.333 -12.667 -84.666 -32 -111.999s-45 -41 -77 -41c-10.667 0 -21 2 -31 6
s-23 12 -39 24c-11.333 8.66699 -19.833 14.334 -25.5 17.001s-10.834 4 -15.501 4c-10 0 -17.833 -3.83301 -23.5 -11.5s-10.167 -20.834 -13.5 -39.501h-86c2 47.333 12.667 84.666 32 111.999s45 41 77 41z" />
    <glyph glyph-name="ograve" unicode="&#xf2;" horiz-adv-x="570" 
d="M474 458c22.667 -24.667 39.834 -53.667 51.501 -87s17.5 -69.333 17.5 -108s-5.83301 -74.667 -17.5 -108s-28.834 -62.333 -51.501 -87c-23.333 -26 -51.166 -45.667 -83.499 -59s-67.5 -20 -105.5 -20s-73.167 6.66699 -105.5 20s-60.166 33 -83.499 59
c-22.667 24.667 -39.834 53.667 -51.501 87s-17.5 69.333 -17.5 108s5.83301 74.667 17.5 108s28.834 62.333 51.501 87c23.333 25.333 51.166 44.666 83.499 57.999s67.5 20 105.5 20s73.167 -6.66699 105.5 -20s60.166 -32.666 83.499 -57.999zM285 420
c-36.667 0 -65.667 -14 -87 -42s-32 -66.333 -32 -115c0 -49.333 10.5 -88 31.5 -116s50.167 -42 87.5 -42c36.667 0 65.5 14 86.5 42s31.5 66.667 31.5 116s-10.5 87.833 -31.5 115.5s-49.833 41.5 -86.5 41.5zM293 718l57 -145h-110l-115 145h168z" />
    <glyph glyph-name="oacute" unicode="&#xf3;" horiz-adv-x="570" 
d="M474 458c22.667 -24.667 39.834 -53.667 51.501 -87s17.5 -69.333 17.5 -108s-5.83301 -74.667 -17.5 -108s-28.834 -62.333 -51.501 -87c-23.333 -26 -51.166 -45.667 -83.499 -59s-67.5 -20 -105.5 -20s-73.167 6.66699 -105.5 20s-60.166 33 -83.499 59
c-22.667 24.667 -39.834 53.667 -51.501 87s-17.5 69.333 -17.5 108s5.83301 74.667 17.5 108s28.834 62.333 51.501 87c23.333 25.333 51.166 44.666 83.499 57.999s67.5 20 105.5 20s73.167 -6.66699 105.5 -20s60.166 -32.666 83.499 -57.999zM285 420
c-36.667 0 -65.667 -14 -87 -42s-32 -66.333 -32 -115c0 -49.333 10.5 -88 31.5 -116s50.167 -42 87.5 -42c36.667 0 65.5 14 86.5 42s31.5 66.667 31.5 116s-10.5 87.833 -31.5 115.5s-49.833 41.5 -86.5 41.5zM335 573h-110l57 145h168z" />
    <glyph glyph-name="ocircumflex" unicode="&#xf4;" horiz-adv-x="570" 
d="M474 458c22.667 -24.667 39.834 -53.667 51.501 -87s17.5 -69.333 17.5 -108s-5.83301 -74.667 -17.5 -108s-28.834 -62.333 -51.501 -87c-23.333 -26 -51.166 -45.667 -83.499 -59s-67.5 -20 -105.5 -20s-73.167 6.66699 -105.5 20s-60.166 33 -83.499 59
c-22.667 24.667 -39.834 53.667 -51.501 87s-17.5 69.333 -17.5 108s5.83301 74.667 17.5 108s28.834 62.333 51.501 87c23.333 25.333 51.166 44.666 83.499 57.999s67.5 20 105.5 20s73.167 -6.66699 105.5 -20s60.166 -32.666 83.499 -57.999zM285 420
c-36.667 0 -65.667 -14 -87 -42s-32 -66.333 -32 -115c0 -49.333 10.5 -88 31.5 -116s50.167 -42 87.5 -42c36.667 0 65.5 14 86.5 42s31.5 66.667 31.5 116s-10.5 87.833 -31.5 115.5s-49.833 41.5 -86.5 41.5zM214 718h142l100 -145h-105l-66 57l-66 -57h-105z" />
    <glyph glyph-name="otilde" unicode="&#xf5;" horiz-adv-x="570" 
d="M474 458c22.667 -24.667 39.834 -53.667 51.501 -87s17.5 -69.333 17.5 -108s-5.83301 -74.667 -17.5 -108s-28.834 -62.333 -51.501 -87c-23.333 -26 -51.166 -45.667 -83.499 -59s-67.5 -20 -105.5 -20s-73.167 6.66699 -105.5 20s-60.166 33 -83.499 59
c-22.667 24.667 -39.834 53.667 -51.501 87s-17.5 69.333 -17.5 108s5.83301 74.667 17.5 108s28.834 62.333 51.501 87c23.333 25.333 51.166 44.666 83.499 57.999s67.5 20 105.5 20s73.167 -6.66699 105.5 -20s60.166 -32.666 83.499 -57.999zM285 420
c-36.667 0 -65.667 -14 -87 -42s-32 -66.333 -32 -115c0 -49.333 10.5 -88 31.5 -116s50.167 -42 87.5 -42c36.667 0 65.5 14 86.5 42s31.5 66.667 31.5 116s-10.5 87.833 -31.5 115.5s-49.833 41.5 -86.5 41.5zM222 726c10.667 0 21 -2 31 -6s23 -12 39 -24
c11.333 -8.66699 19.833 -14.334 25.5 -17.001s10.834 -4 15.501 -4c10 0 17.833 3.83301 23.5 11.5s10.167 20.834 13.5 39.501h86c-2 -47.333 -12.667 -84.666 -32 -111.999s-45 -41 -77 -41c-10.667 0 -21 2 -31 6s-23 12 -39 24
c-11.333 8.66699 -19.833 14.334 -25.5 17.001s-10.834 4 -15.501 4c-10 0 -17.833 -3.83301 -23.5 -11.5s-10.167 -20.834 -13.5 -39.501h-86c2 47.333 12.667 84.666 32 111.999s45 41 77 41z" />
    <glyph glyph-name="odieresis" unicode="&#xf6;" horiz-adv-x="570" 
d="M474 458c22.667 -24.667 39.834 -53.667 51.501 -87s17.5 -69.333 17.5 -108s-5.83301 -74.667 -17.5 -108s-28.834 -62.333 -51.501 -87c-23.333 -26 -51.166 -45.667 -83.499 -59s-67.5 -20 -105.5 -20s-73.167 6.66699 -105.5 20s-60.166 33 -83.499 59
c-22.667 24.667 -39.834 53.667 -51.501 87s-17.5 69.333 -17.5 108s5.83301 74.667 17.5 108s28.834 62.333 51.501 87c23.333 25.333 51.166 44.666 83.499 57.999s67.5 20 105.5 20s73.167 -6.66699 105.5 -20s60.166 -32.666 83.499 -57.999zM285 420
c-36.667 0 -65.667 -14 -87 -42s-32 -66.333 -32 -115c0 -49.333 10.5 -88 31.5 -116s50.167 -42 87.5 -42c36.667 0 65.5 14 86.5 42s31.5 66.667 31.5 116s-10.5 87.833 -31.5 115.5s-49.833 41.5 -86.5 41.5zM259 588h-142v130h142v-130zM453 588h-142v130h142v-130z" />
    <glyph glyph-name="divide" unicode="&#xf7;" horiz-adv-x="608" 
d="M378 487h-150v145h150v-145zM566 286h-524v116h524v-116zM378 56h-150v145h150v-145z" />
    <glyph glyph-name="oslash" unicode="&#xf8;" horiz-adv-x="570" 
d="M27 263c0 38.667 5.83398 74.668 17.501 108.001s28.834 62.333 51.501 87c23.333 25.333 51.166 44.666 83.499 57.999s67.5 20 105.5 20c24.667 0 48.167 -2.83301 70.5 -8.5s43.166 -14.167 62.499 -25.5l43 53l74 -58l-46 -57c17.333 -24 30.666 -51 39.999 -81
s14 -62 14 -96c0 -38.667 -5.83301 -74.667 -17.5 -108s-28.834 -62.333 -51.501 -87c-23.333 -26 -51.166 -45.667 -83.499 -59s-67.5 -20 -105.5 -20c-24.667 0 -48.167 2.83301 -70.5 8.5s-43.166 14.167 -62.499 25.5l-42 -52l-75 58l46 57c-18 24 -31.5 51 -40.5 81
s-13.5 62 -13.5 96zM285.001 426.001c-38 0 -68 -14.5 -90 -43.5s-33 -68.833 -33 -119.5c0 -12 0.666992 -23.5 2 -34.5s3.33301 -21.833 6 -32.5l174 214c-8 5.33301 -17 9.33301 -27 12s-20.667 4 -32 4zM285.001 99.001c38 0 68 14.667 90 44s33 69.333 33 120
c0 12 -0.666992 23.5 -2 34.5s-3.33301 21.833 -6 32.5l-174 -215c8 -5.33301 17 -9.33301 27 -12s20.667 -4 32 -4z" />
    <glyph glyph-name="ugrave" unicode="&#xf9;" horiz-adv-x="573" 
d="M375 526h140.001v-526h-140v54c-18 -21.333 -39 -37.5 -63 -48.5s-50.333 -16.5 -79 -16.5c-54 0 -97.333 17.167 -130 51.5s-49 80.166 -49 137.499v348h140v-317c0 -31.333 7.16699 -55.166 21.5 -71.499s35.166 -24.5 62.499 -24.5s50.333 9.66699 69 29
s28 44.333 28 75v309zM289.001 718l57 -145h-110l-115 145h168z" />
    <glyph glyph-name="uacute" unicode="&#xfa;" horiz-adv-x="573" 
d="M375 526h140.001v-526h-140v54c-18 -21.333 -39 -37.5 -63 -48.5s-50.333 -16.5 -79 -16.5c-54 0 -97.333 17.167 -130 51.5s-49 80.166 -49 137.499v348h140v-317c0 -31.333 7.16699 -55.166 21.5 -71.499s35.166 -24.5 62.499 -24.5s50.333 9.66699 69 29
s28 44.333 28 75v309zM340.001 573h-110l57 145h168z" />
    <glyph glyph-name="ucircumflex" unicode="&#xfb;" horiz-adv-x="573" 
d="M375 526h140.001v-526h-140v54c-18 -21.333 -39 -37.5 -63 -48.5s-50.333 -16.5 -79 -16.5c-54 0 -97.333 17.167 -130 51.5s-49 80.166 -49 137.499v348h140v-317c0 -31.333 7.16699 -55.166 21.5 -71.499s35.166 -24.5 62.499 -24.5s50.333 9.66699 69 29
s28 44.333 28 75v309zM213.001 718h142l100 -145h-105l-66 57l-66 -57h-105z" />
    <glyph glyph-name="udieresis" unicode="&#xfc;" horiz-adv-x="573" 
d="M375 526h140.001v-526h-140v54c-18 -21.333 -39 -37.5 -63 -48.5s-50.333 -16.5 -79 -16.5c-54 0 -97.333 17.167 -130 51.5s-49 80.166 -49 137.499v348h140v-317c0 -31.333 7.16699 -55.166 21.5 -71.499s35.166 -24.5 62.499 -24.5s50.333 9.66699 69 29
s28 44.333 28 75v309zM258.001 588h-142v130h142v-130zM452.001 588h-142v130h142v-130z" />
    <glyph glyph-name="yacute" unicode="&#xfd;" horiz-adv-x="523" 
d="M522 526l-208 -555.998c-20.667 -56 -46.334 -95.5 -77.001 -118.5s-71 -34.5 -121 -34.5c-10.667 0 -19.5 0.166992 -26.5 0.5s-16.5 1.16602 -28.5 2.49902v113c10 -0.666992 18.333 -1.16699 25 -1.5s11.667 -0.5 15 -0.5c20 0 35.333 3.66699 46 11
s19.334 19.666 26.001 36.999l17 42l-189 505h145l119 -346l116 346h141zM323 573.002h-110l57 145h168z" />
    <glyph glyph-name="thorn" unicode="&#xfe;" 
d="M517 74c-20.667 -27.333 -45.667 -48.333 -75 -63s-61.666 -22 -96.999 -22c-30.667 0 -58.667 5.66699 -84 17s-46.333 27.333 -63 48v-232h-140v896h140v-246c16.667 20.667 37.667 36.5 63 47.5s53.333 16.5 84 16.5c35.333 0 67.666 -7.16699 96.999 -21.5
s54.333 -35.5 75 -63.5c18.667 -24 32.834 -52.167 42.501 -84.5s14.5 -66.833 14.5 -103.5s-4.83301 -71.167 -14.5 -103.5s-23.834 -60.833 -42.501 -85.5zM312 416c-35.333 0 -63.667 -12.499 -85 -37.499s-32 -58.833 -32 -101.5v-29c0 -42.667 10.667 -76.5 32 -101.5
s49.666 -37.5 84.999 -37.5c38 0 67.5 13.667 88.5 41s31.5 65 31.5 113c0 47.333 -10.667 84.666 -32 111.999s-50.666 41 -87.999 41z" />
    <glyph glyph-name="ydieresis" unicode="&#xff;" horiz-adv-x="523" 
d="M522 526l-208 -555.998c-20.667 -56 -46.334 -95.5 -77.001 -118.5s-71 -34.5 -121 -34.5c-10.667 0 -19.5 0.166992 -26.5 0.5s-16.5 1.16602 -28.5 2.49902v113c10 -0.666992 18.333 -1.16699 25 -1.5s11.667 -0.5 15 -0.5c20 0 35.333 3.66699 46 11
s19.334 19.666 26.001 36.999l17 42l-189 505h145l119 -346l116 346h141zM241 588.002h-142v130h142v-130zM435 588.002h-142v130h142v-130z" />
    <glyph glyph-name="Amacron" unicode="&#x100;" horiz-adv-x="721" 
d="M8 0l268 718h168l269 -718h-149l-57 154h-296l-57 -154h-146zM460 279l-102 276l-101 -276h203zM530 876v-110h-340v110h340z" />
    <glyph glyph-name="amacron" unicode="&#x101;" horiz-adv-x="544" 
d="M357 49c-17.333 -18.667 -39.335 -33.001 -66.002 -43.001s-56.667 -15 -90 -15c-52.667 0 -95.667 14.333 -129 43s-50 66 -50 112c0 45.333 15.5 81.833 46.5 109.5s78.833 47.167 143.5 58.5l131 25v8c0 24.667 -6.66699 43 -20 55s-33.666 18 -60.999 18
c-25.333 0 -45.333 -5.66699 -60 -17s-25 -29 -31 -53l-133 25c13.333 48.667 40.5 87.667 81.5 117s90.167 44 147.5 44c68.667 0 121.334 -15.667 158.001 -47s55 -76.666 55 -135.999v-215c0 -14 3.33301 -23.5 10 -28.5s17.667 -6.5 33 -4.5v-105
c-43.333 -6 -78.833 -5 -106.5 3s-47.5 23.333 -59.5 46zM228.998 96.999c32.667 0 59.834 8.33203 81.501 24.999s32.5 38.334 32.5 65.001v54l-103 -21c-28.667 -5.33301 -49.167 -13.333 -61.5 -24s-18.5 -24.667 -18.5 -42c0 -18 6.16699 -32 18.5 -42
s29.166 -15 50.499 -15zM421.998 695.998v-106h-306v106h306z" />
    <glyph glyph-name="Abreve" unicode="&#x102;" horiz-adv-x="721" 
d="M8 0l268 718h168l269 -718h-149l-57 154h-296l-57 -154h-146zM460 279l-102 276l-101 -276h203zM360 846c20 0 36.5 6.16699 49.5 18.5s19.5 28.5 19.5 48.5h103c0 -48 -15.5 -86.167 -46.5 -114.5s-72.833 -42.5 -125.5 -42.5s-94.5 14.167 -125.5 42.5
s-46.5 66.5 -46.5 114.5h103c0 -20 6.5 -36.167 19.5 -48.5s29.5 -18.5 49.5 -18.5z" />
    <glyph glyph-name="abreve" unicode="&#x103;" horiz-adv-x="544" 
d="M357 49c-17.333 -18.667 -39.335 -33.001 -66.002 -43.001s-56.667 -15 -90 -15c-52.667 0 -95.667 14.333 -129 43s-50 66 -50 112c0 45.333 15.5 81.833 46.5 109.5s78.833 47.167 143.5 58.5l131 25v8c0 24.667 -6.66699 43 -20 55s-33.666 18 -60.999 18
c-25.333 0 -45.333 -5.66699 -60 -17s-25 -29 -31 -53l-133 25c13.333 48.667 40.5 87.667 81.5 117s90.167 44 147.5 44c68.667 0 121.334 -15.667 158.001 -47s55 -76.666 55 -135.999v-215c0 -14 3.33301 -23.5 10 -28.5s17.667 -6.5 33 -4.5v-105
c-43.333 -6 -78.833 -5 -106.5 3s-47.5 23.333 -59.5 46zM228.998 96.999c32.667 0 59.834 8.33203 81.501 24.999s32.5 38.334 32.5 65.001v54l-103 -21c-28.667 -5.33301 -49.167 -13.333 -61.5 -24s-18.5 -24.667 -18.5 -42c0 -18 6.16699 -32 18.5 -42
s29.166 -15 50.499 -15zM271.998 661.998c16.667 0 30.332 5.16699 40.999 15.5s16 23.833 16 40.5h96c0 -46 -13.5 -82.167 -40.5 -108.5s-64.5 -39.5 -112.5 -39.5s-85.5 13.167 -112.5 39.5s-40.5 62.5 -40.5 108.5h96c0 -16.667 5.33301 -30.167 16 -40.5
s24.334 -15.5 41.001 -15.5z" />
    <glyph glyph-name="Aogonek" unicode="&#x104;" horiz-adv-x="721" 
d="M594 -184c-29.333 0 -53.668 8.33203 -73.001 24.999s-29 38 -29 64c0 20.667 5.33301 40 16 58s27.334 35.333 50.001 52l-51 139h-296l-57 -154h-146l268 718h168l269 -718h-66c-21.333 -14.667 -36.833 -27.5 -46.5 -38.5s-14.5 -21.5 -14.5 -31.5
c0 -9.33301 3.16699 -16.666 9.5 -21.999s14.833 -8 25.5 -8c6.66699 0 12.834 0.5 18.501 1.5s12.5 2.5 20.5 4.5v-82c-12 -2.66699 -22.833 -4.66699 -32.5 -6s-20.834 -2 -33.501 -2zM459.998 278.999l-102 276l-101 -276h203z" />
    <glyph glyph-name="aogonek" unicode="&#x105;" horiz-adv-x="544" 
d="M357 49c-17.333 -18.667 -39.335 -33.0029 -66.002 -43.0029s-56.667 -15 -90 -15c-52.667 0 -95.667 14.333 -129 43s-50 66 -50 112c0 45.333 15.5 81.833 46.5 109.5s78.833 47.167 143.5 58.5l131 25v8c0 24.667 -6.66699 43 -20 55s-33.666 18 -60.999 18
c-25.333 0 -45.333 -5.66699 -60 -17s-25 -29 -31 -53l-133 25c13.333 48.667 40.5 87.667 81.5 117s90.167 44 147.5 44c68.667 0 121.334 -15.667 158.001 -47s55 -76.666 55 -135.999v-215c0 -14 3.33301 -23.5 10 -28.5s17.667 -6.5 33 -4.5v-105
c-2.66699 -0.666992 -5.5 -1.16699 -8.5 -1.5l-13.5 -1.5c-20.667 -14.667 -35.334 -27 -44.001 -37s-13 -20 -13 -30c0 -9.33301 3.16699 -16.666 9.5 -21.999s14.833 -8 25.5 -8c6.66699 0 12.834 0.5 18.501 1.5s12.5 2.5 20.5 4.5v-82
c-12 -2.66699 -22.833 -4.66699 -32.5 -6s-20.834 -2 -33.501 -2c-29.333 0 -53.666 8.33301 -72.999 25s-29 38 -29 64c0 18.667 4.5 36.334 13.5 53.001s22.833 33 41.5 49c-10.667 4 -20 9.5 -28 16.5s-14.667 15.5 -20 25.5zM228.998 96.9971
c32.667 0 59.834 8.33203 81.501 24.999s32.5 38.334 32.5 65.001v54l-103 -21c-28.667 -5.33301 -49.167 -13.333 -61.5 -24s-18.5 -24.667 -18.5 -42c0 -18 6.16699 -32 18.5 -42s29.166 -15 50.499 -15z" />
    <glyph glyph-name="Cacute" unicode="&#x106;" horiz-adv-x="671" 
d="M362 600c-56 0 -101.167 -22.1689 -135.5 -66.502s-51.5 -102.5 -51.5 -174.5s17.167 -130.167 51.5 -174.5s79.5 -66.5 135.5 -66.5c38.667 0 71.667 11.333 99 34s46 54.334 56 95.001l138 -46c-22 -67.333 -58.333 -119.5 -109 -156.5s-112 -55.5 -184 -55.5
c-48.667 0 -94.167 9.5 -136.5 28.5s-78.833 46.167 -109.5 81.5c-28.667 34 -50.667 73.167 -66 117.5s-23 91.833 -23 142.5s7.66699 98.167 23 142.5s37.333 83.5 66 117.5c30.667 35.333 67.167 62.5 109.5 81.5s87.833 28.5 136.5 28.5c72 0 133.333 -18.5 184 -55.5
s87 -89.167 109 -156.5l-138 -46c-10 40.667 -28.667 72.334 -56 95.001s-60.333 34 -99 34zM413 757.998h-114l83 153h189z" />
    <glyph glyph-name="cacute" unicode="&#x107;" horiz-adv-x="525" 
d="M289 419c-38 0 -68 -13.998 -90 -41.998s-33 -66 -33 -114c0 -48.667 11 -86.834 33 -114.501s52 -41.5 90 -41.5c26.667 0 49.167 8.16699 67.5 24.5s31.166 39.5 38.499 69.5l121 -54c-13.333 -47.333 -40.5 -85.5 -81.5 -114.5s-89.833 -43.5 -146.5 -43.5
c-38 0 -73.333 6.66699 -106 20s-60.667 33 -84 59c-23.333 24.667 -41 53.667 -53 87s-18 69.333 -18 108s6 74.667 18 108s29.667 62.333 53 87c23.333 25.333 51.333 44.666 84 57.999s68 20 106 20c56 0 104.167 -14.167 144.5 -42.5s67.5 -65.833 81.5 -112.5l-119 -56
c-7.33301 30 -20.166 53.167 -38.499 69.5s-40.833 24.5 -67.5 24.5zM334 573.002h-110l57 145h168z" />
    <glyph glyph-name="Ccircumflex" unicode="&#x108;" horiz-adv-x="671" 
d="M362 600c-56 0 -101.167 -22.1689 -135.5 -66.502s-51.5 -102.5 -51.5 -174.5s17.167 -130.167 51.5 -174.5s79.5 -66.5 135.5 -66.5c38.667 0 71.667 11.333 99 34s46 54.334 56 95.001l138 -46c-22 -67.333 -58.333 -119.5 -109 -156.5s-112 -55.5 -184 -55.5
c-48.667 0 -94.167 9.5 -136.5 28.5s-78.833 46.167 -109.5 81.5c-28.667 34 -50.667 73.167 -66 117.5s-23 91.833 -23 142.5s7.66699 98.167 23 142.5s37.333 83.5 66 117.5c30.667 35.333 67.167 62.5 109.5 81.5s87.833 28.5 136.5 28.5c72 0 133.333 -18.5 184 -55.5
s87 -89.167 109 -156.5l-138 -46c-10 40.667 -28.667 72.334 -56 95.001s-60.333 34 -99 34zM288 910.998h154l115 -153h-107l-85 68l-85 -68h-107z" />
    <glyph glyph-name="ccircumflex" unicode="&#x109;" horiz-adv-x="525" 
d="M289 419c-38 0 -68 -13.998 -90 -41.998s-33 -66 -33 -114c0 -48.667 11 -86.834 33 -114.501s52 -41.5 90 -41.5c26.667 0 49.167 8.16699 67.5 24.5s31.166 39.5 38.499 69.5l121 -54c-13.333 -47.333 -40.5 -85.5 -81.5 -114.5s-89.833 -43.5 -146.5 -43.5
c-38 0 -73.333 6.66699 -106 20s-60.667 33 -84 59c-23.333 24.667 -41 53.667 -53 87s-18 69.333 -18 108s6 74.667 18 108s29.667 62.333 53 87c23.333 25.333 51.333 44.666 84 57.999s68 20 106 20c56 0 104.167 -14.167 144.5 -42.5s67.5 -65.833 81.5 -112.5l-119 -56
c-7.33301 30 -20.166 53.167 -38.499 69.5s-40.833 24.5 -67.5 24.5zM217 718.002h142l100 -145h-105l-66 57l-66 -57h-105z" />
    <glyph glyph-name="Cdotaccent" unicode="&#x10a;" horiz-adv-x="671" 
d="M362 600c-56 0 -101.167 -22.1689 -135.5 -66.502s-51.5 -102.5 -51.5 -174.5s17.167 -130.167 51.5 -174.5s79.5 -66.5 135.5 -66.5c38.667 0 71.667 11.333 99 34s46 54.334 56 95.001l138 -46c-22 -67.333 -58.333 -119.5 -109 -156.5s-112 -55.5 -184 -55.5
c-48.667 0 -94.167 9.5 -136.5 28.5s-78.833 46.167 -109.5 81.5c-28.667 34 -50.667 73.167 -66 117.5s-23 91.833 -23 142.5s7.66699 98.167 23 142.5s37.333 83.5 66 117.5c30.667 35.333 67.167 62.5 109.5 81.5s87.833 28.5 136.5 28.5c72 0 133.333 -18.5 184 -55.5
s87 -89.167 109 -156.5l-138 -46c-10 40.667 -28.667 72.334 -56 95.001s-60.333 34 -99 34zM439 757.998h-146v133h146v-133z" />
    <glyph glyph-name="cdotaccent" unicode="&#x10b;" horiz-adv-x="525" 
d="M289 419c-38 0 -68 -13.998 -90 -41.998s-33 -66 -33 -114c0 -48.667 11 -86.834 33 -114.501s52 -41.5 90 -41.5c26.667 0 49.167 8.16699 67.5 24.5s31.166 39.5 38.499 69.5l121 -54c-13.333 -47.333 -40.5 -85.5 -81.5 -114.5s-89.833 -43.5 -146.5 -43.5
c-38 0 -73.333 6.66699 -106 20s-60.667 33 -84 59c-23.333 24.667 -41 53.667 -53 87s-18 69.333 -18 108s6 74.667 18 108s29.667 62.333 53 87c23.333 25.333 51.333 44.666 84 57.999s68 20 106 20c56 0 104.167 -14.167 144.5 -42.5s67.5 -65.833 81.5 -112.5l-119 -56
c-7.33301 30 -20.166 53.167 -38.499 69.5s-40.833 24.5 -67.5 24.5zM360 588.002h-144v130h144v-130z" />
    <glyph glyph-name="Ccaron" unicode="&#x10c;" horiz-adv-x="671" 
d="M362 600c-56 0 -101.167 -22.1689 -135.5 -66.502s-51.5 -102.5 -51.5 -174.5s17.167 -130.167 51.5 -174.5s79.5 -66.5 135.5 -66.5c38.667 0 71.667 11.333 99 34s46 54.334 56 95.001l138 -46c-22 -67.333 -58.333 -119.5 -109 -156.5s-112 -55.5 -184 -55.5
c-48.667 0 -94.167 9.5 -136.5 28.5s-78.833 46.167 -109.5 81.5c-28.667 34 -50.667 73.167 -66 117.5s-23 91.833 -23 142.5s7.66699 98.167 23 142.5s37.333 83.5 66 117.5c30.667 35.333 67.167 62.5 109.5 81.5s87.833 28.5 136.5 28.5c72 0 133.333 -18.5 184 -55.5
s87 -89.167 109 -156.5l-138 -46c-10 40.667 -28.667 72.334 -56 95.001s-60.333 34 -99 34zM560 910.998l-115 -153h-154l-115 153h107l85 -68l85 68h107z" />
    <glyph glyph-name="ccaron" unicode="&#x10d;" horiz-adv-x="525" 
d="M289 419c-38 0 -68 -13.998 -90 -41.998s-33 -66 -33 -114c0 -48.667 11 -86.834 33 -114.501s52 -41.5 90 -41.5c26.667 0 49.167 8.16699 67.5 24.5s31.166 39.5 38.499 69.5l121 -54c-13.333 -47.333 -40.5 -85.5 -81.5 -114.5s-89.833 -43.5 -146.5 -43.5
c-38 0 -73.333 6.66699 -106 20s-60.667 33 -84 59c-23.333 24.667 -41 53.667 -53 87s-18 69.333 -18 108s6 74.667 18 108s29.667 62.333 53 87c23.333 25.333 51.333 44.666 84 57.999s68 20 106 20c56 0 104.167 -14.167 144.5 -42.5s67.5 -65.833 81.5 -112.5l-119 -56
c-7.33301 30 -20.166 53.167 -38.499 69.5s-40.833 24.5 -67.5 24.5zM462 718.002l-100 -145h-142l-100 145h105l66 -57l66 57h105z" />
    <glyph glyph-name="Dcaron" unicode="&#x10e;" horiz-adv-x="702" 
d="M310 0h-247v718h247c54.667 0 104.5 -8.16699 149.5 -24.5s83.5 -40.166 115.5 -71.499c32.667 -31.333 57.334 -69.333 74.001 -114s25 -94.334 25 -149.001s-8.33301 -104.334 -25 -149.001s-41.334 -82.667 -74.001 -114c-32 -31.333 -70.5 -55.166 -115.5 -71.499
s-94.833 -24.5 -149.5 -24.5zM207 592v-466h103c68 0 121.5 20.833 160.5 62.5s58.5 98.5 58.5 170.5c0 72.667 -19.5 129.667 -58.5 171s-92.833 62 -161.5 62h-102zM517 911l-115 -153h-154l-115 153h107l85 -68l85 68h107z" />
    <glyph glyph-name="dcaron" unicode="&#x10f;" horiz-adv-x="735" 
d="M255 -11c-35.333 0 -67.666 7.33301 -96.999 22s-54.333 35.667 -75 63c-18.667 24.667 -32.834 53.167 -42.501 85.5s-14.5 66.833 -14.5 103.5s4.83301 71.167 14.5 103.5s23.834 60.5 42.501 84.5c20.667 28 45.667 49.167 75 63.5s61.666 21.5 96.999 21.5
c30.667 0 58.667 -5.5 84 -16.5s46.333 -26.833 63 -47.5v246h140v-718h-140v54c-16.667 -20.667 -37.667 -36.667 -63 -48s-53.333 -17 -84 -17zM405 248v28.999c0 42.667 -10.667 76.5 -32 101.5s-49.666 37.5 -84.999 37.5c-38 0 -67.667 -13.667 -89 -41
s-32 -64.666 -32 -111.999c0 -48 10.667 -85.667 32 -113s51 -41 89 -41c35.333 0 63.666 12.5 84.999 37.5s32 58.833 32 101.5zM683 551.999h-95l17 166h153z" />
    <glyph glyph-name="Dcroat" unicode="&#x110;" horiz-adv-x="714" 
d="M322 0h-247v304h-59v127h59v287h247c54.667 0 104.5 -8.16699 149.5 -24.5s83.5 -40.166 115.5 -71.499c32.667 -31.333 57.334 -69.333 74.001 -114s25 -94.334 25 -149.001s-8.33301 -104.334 -25 -149.001s-41.334 -82.667 -74.001 -114
c-32 -31.333 -70.5 -55.166 -115.5 -71.499s-94.833 -24.5 -149.5 -24.5zM219 304v-178h103c68 0 121.5 20.833 160.5 62.5s58.5 98.5 58.5 170.5c0 72.667 -19.5 129.667 -58.5 171s-92.833 62 -161.5 62h-102v-161h119v-127h-119z" />
    <glyph glyph-name="dcroat" unicode="&#x111;" horiz-adv-x="601" 
d="M255 -11c-35.333 0 -67.666 7.33301 -96.999 22s-54.333 35.667 -75 63c-18.667 24.667 -32.834 53.167 -42.501 85.5s-14.5 66.833 -14.5 103.5s4.83301 71.167 14.5 103.5s23.834 60.5 42.501 84.5c20.667 28 45.667 49.167 75 63.5s61.666 21.5 96.999 21.5
c30.667 0 58.667 -5.5 84 -16.5s46.333 -26.833 63 -47.5v92h-122v102h122v52h140v-52h57v-102h-57v-564h-140v54c-16.667 -20.667 -37.667 -36.667 -63 -48s-53.333 -17 -84 -17zM405 248v28.999c0 42.667 -10.667 76.5 -32 101.5s-49.666 37.5 -84.999 37.5
c-38 0 -67.667 -13.667 -89 -41s-32 -64.666 -32 -111.999c0 -48 10.667 -85.667 32 -113s51 -41 89 -41c35.333 0 63.666 12.5 84.999 37.5s32 58.833 32 101.5z" />
    <glyph glyph-name="Emacron" unicode="&#x112;" horiz-adv-x="597" 
d="M63 0v718h496v-127h-351v-160h294v-126h-294v-178h351v-127h-496zM483 876v-110h-340v110h340z" />
    <glyph glyph-name="emacron" unicode="&#x113;" horiz-adv-x="548" 
d="M288 -11c-38.667 0 -74.332 6.66992 -106.999 20.0029s-60.667 32.666 -84 57.999c-22.667 24.667 -40 53.667 -52 87s-18 69.666 -18 108.999c0 37.333 6 72.5 18 105.5s29.333 61.833 52 86.5c23.333 26 51 46 83 60s66.333 21 103 21
c73.333 0 131.666 -24.167 174.999 -72.5s65 -111.833 65 -190.5v-41h-362c4.66699 -40 18.5 -71.333 41.5 -94s51.833 -34 86.5 -34c28 0 51.833 6.66699 71.5 20s33.5 32.333 41.5 57l118 -42c-18.667 -46.667 -48.5 -83.334 -89.5 -110.001s-88.5 -40 -142.5 -40z
M282.002 424.003c-28.667 0 -53.167 -8.33301 -73.5 -25s-34.5 -40.667 -42.5 -72h218c-0.666992 29.333 -10.167 52.833 -28.5 70.5s-42.833 26.5 -73.5 26.5zM437.002 696.003v-106h-306v106h306z" />
    <glyph glyph-name="Ebreve" unicode="&#x114;" horiz-adv-x="597" 
d="M63 0v718h496v-127h-351v-160h294v-126h-294v-178h351v-127h-496zM317 846c20 0 36.5 6.16699 49.5 18.5s19.5 28.5 19.5 48.5h103c0 -48 -15.5 -86.167 -46.5 -114.5s-72.833 -42.5 -125.5 -42.5s-94.5 14.167 -125.5 42.5s-46.5 66.5 -46.5 114.5h103
c0 -20 6.5 -36.167 19.5 -48.5s29.5 -18.5 49.5 -18.5z" />
    <glyph glyph-name="ebreve" unicode="&#x115;" horiz-adv-x="548" 
d="M288 -11c-38.667 0 -74.332 6.66992 -106.999 20.0029s-60.667 32.666 -84 57.999c-22.667 24.667 -40 53.667 -52 87s-18 69.666 -18 108.999c0 37.333 6 72.5 18 105.5s29.333 61.833 52 86.5c23.333 26 51 46 83 60s66.333 21 103 21
c73.333 0 131.666 -24.167 174.999 -72.5s65 -111.833 65 -190.5v-41h-362c4.66699 -40 18.5 -71.333 41.5 -94s51.833 -34 86.5 -34c28 0 51.833 6.66699 71.5 20s33.5 32.333 41.5 57l118 -42c-18.667 -46.667 -48.5 -83.334 -89.5 -110.001s-88.5 -40 -142.5 -40z
M282.002 424.003c-28.667 0 -53.167 -8.33301 -73.5 -25s-34.5 -40.667 -42.5 -72h218c-0.666992 29.333 -10.167 52.833 -28.5 70.5s-42.833 26.5 -73.5 26.5zM286.002 662.003c16.667 0 30.332 5.16699 40.999 15.5s16 23.833 16 40.5h96
c0 -46 -13.5 -82.167 -40.5 -108.5s-64.5 -39.5 -112.5 -39.5s-85.5 13.167 -112.5 39.5s-40.5 62.5 -40.5 108.5h96c0 -16.667 5.33301 -30.167 16 -40.5s24.334 -15.5 41.001 -15.5z" />
    <glyph glyph-name="Edotaccent" unicode="&#x116;" horiz-adv-x="597" 
d="M63 0v718h496v-127h-351v-160h294v-126h-294v-178h351v-127h-496zM389 758h-146v133h146v-133z" />
    <glyph glyph-name="edotaccent" unicode="&#x117;" horiz-adv-x="548" 
d="M288 -11c-38.667 0 -74.332 6.66992 -106.999 20.0029s-60.667 32.666 -84 57.999c-22.667 24.667 -40 53.667 -52 87s-18 69.666 -18 108.999c0 37.333 6 72.5 18 105.5s29.333 61.833 52 86.5c23.333 26 51 46 83 60s66.333 21 103 21
c73.333 0 131.666 -24.167 174.999 -72.5s65 -111.833 65 -190.5v-41h-362c4.66699 -40 18.5 -71.333 41.5 -94s51.833 -34 86.5 -34c28 0 51.833 6.66699 71.5 20s33.5 32.333 41.5 57l118 -42c-18.667 -46.667 -48.5 -83.334 -89.5 -110.001s-88.5 -40 -142.5 -40z
M282.002 424.003c-28.667 0 -53.167 -8.33301 -73.5 -25s-34.5 -40.667 -42.5 -72h218c-0.666992 29.333 -10.167 52.833 -28.5 70.5s-42.833 26.5 -73.5 26.5zM355.002 588.003h-144v130h144v-130z" />
    <glyph glyph-name="Eogonek" unicode="&#x118;" horiz-adv-x="597" 
d="M457 -184c-29.333 0 -53.667 8.33203 -73 24.999s-29 38 -29 64c0 18 3.83301 34.667 11.5 50s19.5 30.333 35.5 45h-339v718h496v-127h-351v-160h294v-126h-294v-178h351v-127h-49c-21.333 -14.667 -36.833 -27.5 -46.5 -38.5s-14.5 -21.5 -14.5 -31.5
c0 -9.33301 3.16699 -16.666 9.5 -21.999s14.833 -8 25.5 -8c6.66699 0 12.834 0.5 18.501 1.5s12.5 2.5 20.5 4.5v-82c-12 -2.66699 -22.833 -4.66699 -32.5 -6s-20.834 -2 -33.501 -2z" />
    <glyph glyph-name="eogonek" unicode="&#x119;" horiz-adv-x="548" 
d="M319 -184c-29.333 0 -53.665 8.33008 -72.998 24.9971s-29 38 -29 64c0 16 3.16699 31.167 9.5 45.5s15.833 27.833 28.5 40.5c-68.667 7.33301 -123.834 35.833 -165.501 85.5s-62.5 111.834 -62.5 186.501c0 37.333 6 72.5 18 105.5s29.333 61.833 52 86.5
c23.333 26 51 46 83 60s66.333 21 103 21c73.333 0 131.666 -24.167 174.999 -72.5s65 -111.833 65 -190.5v-41h-362c4.66699 -40 18.5 -71.333 41.5 -94s51.833 -34 86.5 -34c28 0 51.833 6.66699 71.5 20s33.5 32.333 41.5 57l118 -42
c-13.333 -33.333 -32.333 -61.666 -57 -84.999s-53.667 -40.333 -87 -51c-24 -16 -40.833 -29.667 -50.5 -41s-14.5 -22 -14.5 -32c0 -9.33301 3.16699 -16.666 9.5 -21.999s14.833 -8 25.5 -8c6.66699 0 12.834 0.5 18.501 1.5s12.5 2.5 20.5 4.5v-82
c-12 -2.66699 -22.833 -4.66699 -32.5 -6s-20.834 -2 -33.501 -2zM282.001 423.997c-28.667 0 -53.167 -8.33301 -73.5 -25s-34.5 -40.667 -42.5 -72h218c-0.666992 29.333 -10.167 52.833 -28.5 70.5s-42.833 26.5 -73.5 26.5z" />
    <glyph glyph-name="Ecaron" unicode="&#x11a;" horiz-adv-x="597" 
d="M63 0v718h496v-127h-351v-160h294v-126h-294v-178h351v-127h-496zM509 911l-115 -153h-154l-115 153h107l85 -68l85 68h107z" />
    <glyph glyph-name="ecaron" unicode="&#x11b;" horiz-adv-x="548" 
d="M288 -11c-38.667 0 -74.332 6.66992 -106.999 20.0029s-60.667 32.666 -84 57.999c-22.667 24.667 -40 53.667 -52 87s-18 69.666 -18 108.999c0 37.333 6 72.5 18 105.5s29.333 61.833 52 86.5c23.333 26 51 46 83 60s66.333 21 103 21
c73.333 0 131.666 -24.167 174.999 -72.5s65 -111.833 65 -190.5v-41h-362c4.66699 -40 18.5 -71.333 41.5 -94s51.833 -34 86.5 -34c28 0 51.833 6.66699 71.5 20s33.5 32.333 41.5 57l118 -42c-18.667 -46.667 -48.5 -83.334 -89.5 -110.001s-88.5 -40 -142.5 -40z
M282.002 424.003c-28.667 0 -53.167 -8.33301 -73.5 -25s-34.5 -40.667 -42.5 -72h218c-0.666992 29.333 -10.167 52.833 -28.5 70.5s-42.833 26.5 -73.5 26.5zM458.002 718.003l-100 -145h-142l-100 145h105l66 -57l66 57h105z" />
    <glyph glyph-name="Gcircumflex" unicode="&#x11c;" horiz-adv-x="730" 
d="M673 0h-131.999v69c-16 -24.667 -40.667 -44.167 -74 -58.5s-71 -21.5 -113 -21.5c-48 0 -92.833 9.5 -134.5 28.5s-77.5 46.5 -107.5 82.5c-27.333 32.667 -48.333 70.834 -63 114.501s-22 90.5 -22 140.5c0 51.333 7.66699 99.333 23 144s37.333 84 66 118
c30.667 36 67.334 63.667 110.001 83s88.667 29 138 29c72.667 0 134.5 -18 185.5 -54s88.5 -88 112.5 -156l-141 -47c-9.33301 40.667 -27.5 72.167 -54.5 94.5s-60.5 33.5 -100.5 33.5c-57.333 0 -103.5 -22.167 -138.5 -66.5s-52.5 -102.833 -52.5 -175.5
s17.833 -131.5 53.5 -176.5s82.167 -67.5 139.5 -67.5c45.333 0 82.666 14.167 111.999 42.5s45.666 65.166 48.999 110.499h-174v125h318v-392zM293.001 911h154l115 -153h-107l-85 68l-85 -68h-107z" />
    <glyph glyph-name="gcircumflex" unicode="&#x11d;" horiz-adv-x="601" 
d="M543 526v-467.997c0 -76.667 -24 -137 -72 -181s-112.667 -66 -194 -66c-64.667 0 -118 13.167 -160 39.5s-70.333 64.833 -85 115.5l131 38c8 -26.667 22 -47.334 42 -62.001s44.667 -22 74 -22c40 0 70.667 10.5 92 31.5s32 51.5 32 91.5v36
c-14.667 -19.333 -35 -34.833 -61 -46.5s-54.333 -17.5 -85 -17.5c-34.667 0 -66.5 6.66699 -95.5 20s-53.833 33 -74.5 59c-18.667 23.333 -33 50.666 -43 81.999s-15 64.666 -15 99.999s5 68.5 15 99.5s24.333 58.167 43 81.5c20.667 26 45.5 45.667 74.5 59
s60.833 20 95.5 20c30.667 0 59 -5.83301 85 -17.5s46.333 -27.167 61 -46.5v54h140zM404 268.003v14.001c0 42 -10.333 75.167 -31 99.5s-48.334 36.5 -83.001 36.5c-37.333 0 -66.5 -12.5 -87.5 -37.5s-31.5 -59.833 -31.5 -104.5s10.5 -79.667 31.5 -105
s50.167 -38 87.5 -38c34.667 0 62.334 12.167 83.001 36.5s31 57.166 31 98.499zM237 718.004h142l100 -145h-105l-66 57l-66 -57h-105z" />
    <glyph glyph-name="Gbreve" unicode="&#x11e;" horiz-adv-x="730" 
d="M673 0h-131.999v69c-16 -24.667 -40.667 -44.167 -74 -58.5s-71 -21.5 -113 -21.5c-48 0 -92.833 9.5 -134.5 28.5s-77.5 46.5 -107.5 82.5c-27.333 32.667 -48.333 70.834 -63 114.501s-22 90.5 -22 140.5c0 51.333 7.66699 99.333 23 144s37.333 84 66 118
c30.667 36 67.334 63.667 110.001 83s88.667 29 138 29c72.667 0 134.5 -18 185.5 -54s88.5 -88 112.5 -156l-141 -47c-9.33301 40.667 -27.5 72.167 -54.5 94.5s-60.5 33.5 -100.5 33.5c-57.333 0 -103.5 -22.167 -138.5 -66.5s-52.5 -102.833 -52.5 -175.5
s17.833 -131.5 53.5 -176.5s82.167 -67.5 139.5 -67.5c45.333 0 82.666 14.167 111.999 42.5s45.666 65.166 48.999 110.499h-174v125h318v-392zM370.001 846c20 0 36.5 6.16699 49.5 18.5s19.5 28.5 19.5 48.5h103c0 -48 -15.5 -86.167 -46.5 -114.5
s-72.833 -42.5 -125.5 -42.5s-94.5 14.167 -125.5 42.5s-46.5 66.5 -46.5 114.5h103c0 -20 6.5 -36.167 19.5 -48.5s29.5 -18.5 49.5 -18.5z" />
    <glyph glyph-name="gbreve" unicode="&#x11f;" horiz-adv-x="601" 
d="M543 526v-467.997c0 -76.667 -24 -137 -72 -181s-112.667 -66 -194 -66c-64.667 0 -118 13.167 -160 39.5s-70.333 64.833 -85 115.5l131 38c8 -26.667 22 -47.334 42 -62.001s44.667 -22 74 -22c40 0 70.667 10.5 92 31.5s32 51.5 32 91.5v36
c-14.667 -19.333 -35 -34.833 -61 -46.5s-54.333 -17.5 -85 -17.5c-34.667 0 -66.5 6.66699 -95.5 20s-53.833 33 -74.5 59c-18.667 23.333 -33 50.666 -43 81.999s-15 64.666 -15 99.999s5 68.5 15 99.5s24.333 58.167 43 81.5c20.667 26 45.5 45.667 74.5 59
s60.833 20 95.5 20c30.667 0 59 -5.83301 85 -17.5s46.333 -27.167 61 -46.5v54h140zM404 268.003v14.001c0 42 -10.333 75.167 -31 99.5s-48.334 36.5 -83.001 36.5c-37.333 0 -66.5 -12.5 -87.5 -37.5s-31.5 -59.833 -31.5 -104.5s10.5 -79.667 31.5 -105
s50.167 -38 87.5 -38c34.667 0 62.334 12.167 83.001 36.5s31 57.166 31 98.499zM309 662.004c16.667 0 30.332 5.16699 40.999 15.5s16 23.833 16 40.5h96c0 -46 -13.5 -82.167 -40.5 -108.5s-64.5 -39.5 -112.5 -39.5s-85.5 13.167 -112.5 39.5s-40.5 62.5 -40.5 108.5h96
c0 -16.667 5.33301 -30.167 16 -40.5s24.334 -15.5 41.001 -15.5z" />
    <glyph glyph-name="Gdotaccent" unicode="&#x120;" horiz-adv-x="730" 
d="M673 0h-131.999v69c-16 -24.667 -40.667 -44.167 -74 -58.5s-71 -21.5 -113 -21.5c-48 0 -92.833 9.5 -134.5 28.5s-77.5 46.5 -107.5 82.5c-27.333 32.667 -48.333 70.834 -63 114.501s-22 90.5 -22 140.5c0 51.333 7.66699 99.333 23 144s37.333 84 66 118
c30.667 36 67.334 63.667 110.001 83s88.667 29 138 29c72.667 0 134.5 -18 185.5 -54s88.5 -88 112.5 -156l-141 -47c-9.33301 40.667 -27.5 72.167 -54.5 94.5s-60.5 33.5 -100.5 33.5c-57.333 0 -103.5 -22.167 -138.5 -66.5s-52.5 -102.833 -52.5 -175.5
s17.833 -131.5 53.5 -176.5s82.167 -67.5 139.5 -67.5c45.333 0 82.666 14.167 111.999 42.5s45.666 65.166 48.999 110.499h-174v125h318v-392zM443.001 758h-146v133h146v-133z" />
    <glyph glyph-name="gdotaccent" unicode="&#x121;" horiz-adv-x="601" 
d="M543 526v-467.997c0 -76.667 -24 -137 -72 -181s-112.667 -66 -194 -66c-64.667 0 -118 13.167 -160 39.5s-70.333 64.833 -85 115.5l131 38c8 -26.667 22 -47.334 42 -62.001s44.667 -22 74 -22c40 0 70.667 10.5 92 31.5s32 51.5 32 91.5v36
c-14.667 -19.333 -35 -34.833 -61 -46.5s-54.333 -17.5 -85 -17.5c-34.667 0 -66.5 6.66699 -95.5 20s-53.833 33 -74.5 59c-18.667 23.333 -33 50.666 -43 81.999s-15 64.666 -15 99.999s5 68.5 15 99.5s24.333 58.167 43 81.5c20.667 26 45.5 45.667 74.5 59
s60.833 20 95.5 20c30.667 0 59 -5.83301 85 -17.5s46.333 -27.167 61 -46.5v54h140zM404 268.003v14.001c0 42 -10.333 75.167 -31 99.5s-48.334 36.5 -83.001 36.5c-37.333 0 -66.5 -12.5 -87.5 -37.5s-31.5 -59.833 -31.5 -104.5s10.5 -79.667 31.5 -105
s50.167 -38 87.5 -38c34.667 0 62.334 12.167 83.001 36.5s31 57.166 31 98.499zM381 588.004h-144v130h144v-130z" />
    <glyph glyph-name="Gcommaaccent" unicode="&#x122;" horiz-adv-x="730" 
d="M673 0h-131.999v69c-16 -24.667 -40.667 -44.167 -74 -58.5s-71 -21.5 -113 -21.5c-48 0 -92.833 9.5 -134.5 28.5s-77.5 46.5 -107.5 82.5c-27.333 32.667 -48.333 70.834 -63 114.501s-22 90.5 -22 140.5c0 51.333 7.66699 99.333 23 144s37.333 84 66 118
c30.667 36 67.334 63.667 110.001 83s88.667 29 138 29c72.667 0 134.5 -18 185.5 -54s88.5 -88 112.5 -156l-141 -47c-9.33301 40.667 -27.5 72.167 -54.5 94.5s-60.5 33.5 -100.5 33.5c-57.333 0 -103.5 -22.167 -138.5 -66.5s-52.5 -102.833 -52.5 -175.5
s17.833 -131.5 53.5 -176.5s82.167 -67.5 139.5 -67.5c45.333 0 82.666 14.167 111.999 42.5s45.666 65.166 48.999 110.499h-174v125h318v-392zM344.001 -119h-52v85h140v-57c0 -37.333 -12.333 -66 -37 -86s-59 -30 -103 -30v56c16.667 0 29 2.5 37 7.5s13 13.167 15 24.5
z" />
    <glyph glyph-name="gcommaaccent" unicode="&#x123;" horiz-adv-x="601" 
d="M543 526v-467.997c0 -76.667 -24 -137 -72 -181s-112.667 -66 -194 -66c-64.667 0 -118 13.167 -160 39.5s-70.333 64.833 -85 115.5l131 38c8 -26.667 22 -47.334 42 -62.001s44.667 -22 74 -22c40 0 70.667 10.5 92 31.5s32 51.5 32 91.5v36
c-14.667 -19.333 -35 -34.833 -61 -46.5s-54.333 -17.5 -85 -17.5c-34.667 0 -66.5 6.66699 -95.5 20s-53.833 33 -74.5 59c-18.667 23.333 -33 50.666 -43 81.999s-15 64.666 -15 99.999s5 68.5 15 99.5s24.333 58.167 43 81.5c20.667 26 45.5 45.667 74.5 59
s60.833 20 95.5 20c30.667 0 59 -5.83301 85 -17.5s46.333 -27.167 61 -46.5v54h140zM404 268.003v14.001c0 42 -10.333 75.167 -31 99.5s-48.334 36.5 -83.001 36.5c-37.333 0 -66.5 -12.5 -87.5 -37.5s-31.5 -59.833 -31.5 -104.5s10.5 -79.667 31.5 -105
s50.167 -38 87.5 -38c34.667 0 62.334 12.167 83.001 36.5s31 57.166 31 98.499zM326 658.004h52v-85h-140v57c0 37.333 12.333 66 37 86s59 30 103 30v-56c-16.667 0 -29 -2.5 -37 -7.5s-13 -13.167 -15 -24.5z" />
    <glyph glyph-name="Hcircumflex" unicode="&#x124;" horiz-adv-x="738" 
d="M528 432v286h147v-718h-147v305h-318v-305h-147v718h147v-286h318zM293 911h154l115 -153h-107l-85 68l-85 -68h-107z" />
    <glyph glyph-name="hcircumflex" unicode="&#x125;" horiz-adv-x="573" 
d="M198 0h-140.001v718h140v-246c17.333 20.667 38.333 36.5 63 47.5s51.667 16.5 81 16.5c54 0 97 -17 129 -51s48 -80 48 -138v-347h-140v307c0 32.667 -7.16699 57.667 -21.5 75s-35.166 26 -62.499 26c-28 0 -51.167 -9.5 -69.5 -28.5s-27.5 -44.167 -27.5 -75.5v-304z
M222.999 911h154l115 -153h-107l-85 68l-85 -68h-107z" />
    <glyph glyph-name="Hbar" unicode="&#x126;" horiz-adv-x="758" 
d="M742 590v-126h-57v-464h-147v237h-318v-237h-147v464h-57v126h57v128h147v-128h318v128h147v-128h57zM220 464v-101h318v101h-318z" />
    <glyph glyph-name="hbar" unicode="&#x127;" horiz-adv-x="574" 
d="M199 0h-140.001v564h-57v102h57v52h140v-52h122v-102h-122v-92c17.333 20.667 38.333 36.5 63 47.5s51.667 16.5 81 16.5c54 0 97 -17 129 -51s48 -80 48 -138v-347h-140v307c0 32.667 -7.16699 57.667 -21.5 75s-35.166 26 -62.499 26c-28 0 -51.167 -9.5 -69.5 -28.5
s-27.5 -44.167 -27.5 -75.5v-304z" />
    <glyph glyph-name="Itilde" unicode="&#x128;" horiz-adv-x="272" 
d="M63 718h147v-718h-147v718zM64 923c12 0 23.833 -2.16602 35.5 -6.49902s26.834 -12.833 45.501 -25.5c13.333 -9.33301 23.166 -15.333 29.499 -18s12.5 -4 18.5 -4c12 0 21.333 4 28 12s12 22 16 42h93c-2.66699 -50.667 -15 -90.667 -37 -120s-50.667 -44 -86 -44
c-12 0 -23.667 2.16699 -35 6.5s-26.333 12.833 -45 25.5c-13.333 9.33301 -23.333 15.333 -30 18s-13 4 -19 4c-12 0 -21.333 -4.33301 -28 -13s-11.667 -22.334 -15 -41.001h-93c2 50 14 89.833 36 119.5s50.667 44.5 86 44.5z" />
    <glyph glyph-name="itilde" unicode="&#x129;" horiz-adv-x="255" 
d="M71 726c10.667 0 20.667 -2.00098 30 -6.00098s20.333 -12.333 33 -25c9.33301 -8.66699 16.333 -14.167 21 -16.5s9.33398 -3.5 14.001 -3.5c9.33301 0 16.5 3.5 21.5 10.5s9.16699 20.5 12.5 40.5h85c-2 -48 -12.333 -85.5 -31 -112.5s-43.334 -40.5 -74.001 -40.5
c-10.667 0 -20.5 2 -29.5 6s-19.833 12.333 -32.5 25c-9.33301 8 -16.333 13.333 -21 16s-9.33398 4 -14.001 4c-9.33301 0 -16.666 -3.66699 -21.999 -11s-9.33301 -20.666 -12 -39.999h-85c2 48 12.167 85.5 30.5 112.5s42.833 40.5 73.5 40.5zM58 525.999h140v-526h-140
v526z" />
    <glyph glyph-name="Imacron" unicode="&#x12a;" horiz-adv-x="272" 
d="M63 718h147v-718h-147v718zM306 876v-110h-340v110h340z" />
    <glyph glyph-name="imacron" unicode="&#x12b;" horiz-adv-x="255" 
d="M271 696v-106h-287v106h287zM58 526h140v-526h-140v526z" />
    <glyph glyph-name="Ibreve" unicode="&#x12c;" horiz-adv-x="272" 
d="M63 718h147v-718h-147v718zM136 846c20 0 36.5 6.16699 49.5 18.5s19.5 28.5 19.5 48.5h103c0 -48 -15.5 -86.167 -46.5 -114.5s-72.833 -42.5 -125.5 -42.5s-94.5 14.167 -125.5 42.5s-46.5 66.5 -46.5 114.5h103c0 -20 6.5 -36.167 19.5 -48.5s29.5 -18.5 49.5 -18.5z
" />
    <glyph glyph-name="ibreve" unicode="&#x12d;" horiz-adv-x="255" 
d="M128 662c16.667 0 30 5 40 15s15 23.667 15 41h96c0 -46 -13.5 -82.167 -40.5 -108.5s-63.833 -39.5 -110.5 -39.5s-83.5 13.167 -110.5 39.5s-40.5 62.5 -40.5 108.5h95c0 -16.667 5.16699 -30.167 15.5 -40.5s23.833 -15.5 40.5 -15.5zM58 526h140v-526h-140v526z" />
    <glyph glyph-name="Iogonek" unicode="&#x12e;" horiz-adv-x="272" 
d="M147 -184c-29.333 0 -53.667 8.33203 -73 24.999s-29 38 -29 64c0 18 3.83301 34.667 11.5 50s19.5 30.333 35.5 45h-29v718h147v-718h-10c-21.333 -14.667 -36.833 -27.5 -46.5 -38.5s-14.5 -21.5 -14.5 -31.5c0 -9.33301 3.16699 -16.666 9.5 -21.999
s14.833 -8 25.5 -8c6.66699 0 12.834 0.5 18.501 1.5s12.5 2.5 20.5 4.5v-82c-12 -2.66699 -22.833 -4.66699 -32.5 -6s-20.834 -2 -33.501 -2z" />
    <glyph glyph-name="iogonek" unicode="&#x12f;" horiz-adv-x="255" 
d="M199 588h-143v130h143v-130zM136 -184c-29.333 0 -53.667 8.33203 -73 24.999s-29 38 -29 64c0 18 3.83301 34.667 11.5 50s19.5 30.333 35.5 45h-23v526h140v-526h-9c-21.333 -14.667 -36.833 -27.5 -46.5 -38.5s-14.5 -21.5 -14.5 -31.5
c0 -9.33301 3.16699 -16.666 9.5 -21.999s14.833 -8 25.5 -8c6.66699 0 12.834 0.5 18.501 1.5s12.5 2.5 20.5 4.5v-82c-12 -2.66699 -22.833 -4.66699 -32.5 -6s-20.834 -2 -33.501 -2z" />
    <glyph glyph-name="Idotaccent" unicode="&#x130;" horiz-adv-x="272" 
d="M63 718h147v-718h-147v718zM209 758h-146v133h146v-133z" />
    <glyph glyph-name="dotlessi" unicode="&#x131;" horiz-adv-x="255" 
d="M58 526h140v-526h-140v526z" />
    <glyph glyph-name="Jcircumflex" unicode="&#x134;" horiz-adv-x="407" 
d="M116 -6c-17.333 0 -33.5 0.5 -48.5 1.5s-30.167 2.83301 -45.5 5.5v129c18 -2.66699 32 -4.5 42 -5.5s21.333 -1.5 34 -1.5c39.333 0 67.333 8 84 24s25 42 25 78v493h147v-510c0 -70 -20.167 -123.167 -60.5 -159.5s-99.5 -54.5 -177.5 -54.5zM193 911h154l115 -153
h-107l-85 68l-85 -68h-107z" />
    <glyph glyph-name="jcircumflex" unicode="&#x135;" horiz-adv-x="255" 
d="M-4 -69c22.667 0 38.667 4.5 48 13.5s14 23.5 14 43.5v538h140v-554c0 -50 -15 -88.333 -45 -115s-72.333 -40 -127 -40c-14 0 -25.833 0.333008 -35.5 1s-19.167 1.66699 -28.5 3v112c11.333 -1.33301 18.833 -2 22.5 -2h11.5zM56 718h142l100 -145h-105l-66 57l-66 -57
h-105z" />
    <glyph glyph-name="Kcommaaccent" unicode="&#x136;" horiz-adv-x="671" 
d="M63 718h147v-326l277 326h172l-269 -307l286 -411h-172l-211 300l-83 -94v-206h-147v718zM329 -119h-52v85h140v-57c0 -37.333 -12.333 -66 -37 -86s-59 -30 -103 -30v56c16.667 0 29 2.5 37 7.5s13 13.167 15 24.5z" />
    <glyph glyph-name="kcommaaccent" unicode="&#x137;" horiz-adv-x="562" 
d="M58 718h140v-396l184 204h168l-193 -200l208 -326h-160l-145 225l-62 -64v-161h-140v718zM272 -119h-52v85h140v-57c0 -37.333 -12.333 -66 -37 -86s-59 -30 -103 -30v56c16.667 0 29 2.5 37 7.5s13 13.167 15 24.5z" />
    <glyph glyph-name="kgreenlandic" unicode="&#x138;" horiz-adv-x="562" 
d="M58 526h140v-206l187 206h165l-193 -200l208 -326h-160l-145 225l-62 -64v-161h-140v526z" />
    <glyph glyph-name="Lacute" unicode="&#x139;" horiz-adv-x="555" 
d="M540 0h-477v718h147v-591h330v-127zM193 758h-114l83 153h189z" />
    <glyph glyph-name="lacute" unicode="&#x13a;" horiz-adv-x="255" 
d="M58 718h140v-718h-140v718zM180 758h-114l83 153h189z" />
    <glyph glyph-name="Lcommaaccent" unicode="&#x13b;" horiz-adv-x="555" 
d="M540 0h-477v718h147v-591h330v-127zM288 -119h-52v85h140v-57c0 -37.333 -12.333 -66 -37 -86s-59 -30 -103 -30v56c16.667 0 29 2.5 37 7.5s13 13.167 15 24.5z" />
    <glyph glyph-name="lcommaaccent" unicode="&#x13c;" horiz-adv-x="255" 
d="M58 718h140v-718h-140v718zM112 -119h-52v85h140v-57c0 -37.333 -12.333 -66 -37 -86s-59 -30 -103 -30v56c16.667 0 29 2.5 37 7.5s13 13.167 15 24.5z" />
    <glyph glyph-name="Lcaron" unicode="&#x13d;" horiz-adv-x="555" 
d="M540 0h-477v718h147v-591h330v-127zM432 552h-95l17 166h153z" />
    <glyph glyph-name="lcaron" unicode="&#x13e;" horiz-adv-x="390" 
d="M58 718h140v-718h-140v718zM338 552h-95l17 166h153z" />
    <glyph glyph-name="Ldot" unicode="&#x13f;" horiz-adv-x="555" 
d="M540 0h-477v718h147v-591h330v-127zM484 318h-144v130h144v-130z" />
    <glyph glyph-name="ldot" unicode="&#x140;" horiz-adv-x="419" 
d="M58 718h140v-718h-140v718zM404 282h-144v130h144v-130z" />
    <glyph glyph-name="Lslash" unicode="&#x141;" horiz-adv-x="565" 
d="M550 0h-477v236l-57 -25v125l57 25v357h147v-294l156 68v-125l-156 -68v-172h330v-127z" />
    <glyph glyph-name="lslash" unicode="&#x142;" horiz-adv-x="315" 
d="M296 533v-123l-68 -39v-371h-140v303l-70 -40v123l70 40v292h140v-223z" />
    <glyph glyph-name="Nacute" unicode="&#x143;" horiz-adv-x="731" 
d="M527 718h141v-718h-128l-336 495v-495h-141v718h149l315 -471v471zM388 758h-114l83 153h189z" />
    <glyph glyph-name="nacute" unicode="&#x144;" horiz-adv-x="573" 
d="M198 0h-140.001v526h140v-54c17.333 20.667 38.333 36.5 63 47.5s51.667 16.5 81 16.5c54 0 97 -17 129 -51s48 -80 48 -138v-347h-140v307c0 32.667 -7.16699 57.667 -21.5 75s-35.166 26 -62.499 26c-28 0 -51.167 -9.5 -69.5 -28.5s-27.5 -44.167 -27.5 -75.5v-304z
M333.999 573h-110l57 145h168z" />
    <glyph glyph-name="Ncommaaccent" unicode="&#x145;" horiz-adv-x="731" 
d="M527 718h141v-718h-128l-336 495v-495h-141v718h149l315 -471v471zM347 -119h-52v85h140v-57c0 -37.333 -12.333 -66 -37 -86s-59 -30 -103 -30v56c16.667 0 29 2.5 37 7.5s13 13.167 15 24.5z" />
    <glyph glyph-name="ncommaaccent" unicode="&#x146;" horiz-adv-x="573" 
d="M198 0h-140.001v526h140v-54c17.333 20.667 38.333 36.5 63 47.5s51.667 16.5 81 16.5c54 0 97 -17 129 -51s48 -80 48 -138v-347h-140v307c0 32.667 -7.16699 57.667 -21.5 75s-35.166 26 -62.499 26c-28 0 -51.167 -9.5 -69.5 -28.5s-27.5 -44.167 -27.5 -75.5v-304z
M270.999 -119h-52v85h140v-57c0 -37.333 -12.333 -66 -37 -86s-59 -30 -103 -30v56c16.667 0 29 2.5 37 7.5s13 13.167 15 24.5z" />
    <glyph glyph-name="Ncaron" unicode="&#x147;" horiz-adv-x="731" 
d="M527 718h141v-718h-128l-336 495v-495h-141v718h149l315 -471v471zM559 911l-115 -153h-154l-115 153h107l85 -68l85 68h107z" />
    <glyph glyph-name="ncaron" unicode="&#x148;" horiz-adv-x="573" 
d="M198 0h-140.001v526h140v-54c17.333 20.667 38.333 36.5 63 47.5s51.667 16.5 81 16.5c54 0 97 -17 129 -51s48 -80 48 -138v-347h-140v307c0 32.667 -7.16699 57.667 -21.5 75s-35.166 26 -62.499 26c-28 0 -51.167 -9.5 -69.5 -28.5s-27.5 -44.167 -27.5 -75.5v-304z
M469.999 718l-100 -145h-142l-100 145h105l66 -57l66 57h105z" />
    <glyph glyph-name="Eng" unicode="&#x14a;" horiz-adv-x="731" 
d="M527 250l-0.00195312 468h141v-746c0 -50 -15 -88.333 -45 -115s-72.333 -40 -127 -40c-14 0 -25.667 0.333008 -35 1s-18.666 1.66699 -27.999 3v112l20 -1.5c4.66699 -0.333008 9.33398 -0.5 14.001 -0.5c22 0 37.667 4.5 47 13.5s14 23.5 14 43.5v29l-324 475v-492
h-141v718h149z" />
    <glyph glyph-name="eng" unicode="&#x14b;" horiz-adv-x="573" 
d="M342 536c54 0 96.999 -17 128.999 -51s48 -80 48 -138v-375c0 -50 -15 -88.333 -45 -115s-72.333 -40 -127 -40c-14 0 -25.833 0.333008 -35.5 1s-19.167 1.66699 -28.5 3v112c11.333 -1.33301 18.833 -2 22.5 -2h11.5c22.667 0 38.667 4.5 48 13.5s14 23.5 14 43.5v319
c0 32.667 -7.16699 57.667 -21.5 75s-35.166 26 -62.499 26c-28 0 -51.167 -9.5 -69.5 -28.5s-27.5 -44.167 -27.5 -75.5v-304h-140v526h140v-54c17.333 20.667 38.333 36.5 63 47.5s51.667 16.5 81 16.5z" />
    <glyph glyph-name="Omacron" unicode="&#x14c;" horiz-adv-x="733" 
d="M118 98c-29.333 33.333 -51.833 72.3291 -67.5 116.996s-23.5 92.667 -23.5 144s7.83301 99.333 23.5 144s38.167 83.667 67.5 117c30.667 35.333 67.5 62.333 110.5 81s89.167 28 138.5 28s95.333 -9.33301 138 -28s79.667 -46 111 -82
c29.333 -33.333 51.666 -72.166 66.999 -116.499s23 -92.166 23 -143.499s-7.66699 -99.166 -23 -143.499s-37.666 -83.166 -66.999 -116.499c-31.333 -36 -68.333 -63.333 -111 -82s-88.667 -28 -138 -28s-95.5 9.33301 -138.5 28s-79.833 45.667 -110.5 81zM367 117.996
c56.667 0 102.667 22.167 138 66.5s53 102.5 53 174.5s-17.667 130.167 -53 174.5s-81.333 66.5 -138 66.5c-57.333 0 -103.666 -22 -138.999 -66s-53 -102.333 -53 -175s17.667 -131 53 -175s81.666 -66 138.999 -66zM537 875.996v-110h-340v110h340z" />
    <glyph glyph-name="omacron" unicode="&#x14d;" horiz-adv-x="570" 
d="M474 458c22.667 -24.667 39.834 -53.667 51.501 -87s17.5 -69.333 17.5 -108s-5.83301 -74.667 -17.5 -108s-28.834 -62.333 -51.501 -87c-23.333 -26 -51.166 -45.667 -83.499 -59s-67.5 -20 -105.5 -20s-73.167 6.66699 -105.5 20s-60.166 33 -83.499 59
c-22.667 24.667 -39.834 53.667 -51.501 87s-17.5 69.333 -17.5 108s5.83301 74.667 17.5 108s28.834 62.333 51.501 87c23.333 25.333 51.166 44.666 83.499 57.999s67.5 20 105.5 20s73.167 -6.66699 105.5 -20s60.166 -32.666 83.499 -57.999zM285 420
c-36.667 0 -65.667 -14 -87 -42s-32 -66.333 -32 -115c0 -49.333 10.5 -88 31.5 -116s50.167 -42 87.5 -42c36.667 0 65.5 14 86.5 42s31.5 66.667 31.5 116s-10.5 87.833 -31.5 115.5s-49.833 41.5 -86.5 41.5zM438 696v-106h-306v106h306z" />
    <glyph glyph-name="Obreve" unicode="&#x14e;" horiz-adv-x="733" 
d="M118 98c-29.333 33.333 -51.833 72.3291 -67.5 116.996s-23.5 92.667 -23.5 144s7.83301 99.333 23.5 144s38.167 83.667 67.5 117c30.667 35.333 67.5 62.333 110.5 81s89.167 28 138.5 28s95.333 -9.33301 138 -28s79.667 -46 111 -82
c29.333 -33.333 51.666 -72.166 66.999 -116.499s23 -92.166 23 -143.499s-7.66699 -99.166 -23 -143.499s-37.666 -83.166 -66.999 -116.499c-31.333 -36 -68.333 -63.333 -111 -82s-88.667 -28 -138 -28s-95.5 9.33301 -138.5 28s-79.833 45.667 -110.5 81zM367 117.996
c56.667 0 102.667 22.167 138 66.5s53 102.5 53 174.5s-17.667 130.167 -53 174.5s-81.333 66.5 -138 66.5c-57.333 0 -103.666 -22 -138.999 -66s-53 -102.333 -53 -175s17.667 -131 53 -175s81.666 -66 138.999 -66zM367 845.996c20 0 36.5 6.16699 49.5 18.5
s19.5 28.5 19.5 48.5h103c0 -48 -15.5 -86.167 -46.5 -114.5s-72.833 -42.5 -125.5 -42.5s-94.5 14.167 -125.5 42.5s-46.5 66.5 -46.5 114.5h103c0 -20 6.5 -36.167 19.5 -48.5s29.5 -18.5 49.5 -18.5z" />
    <glyph glyph-name="obreve" unicode="&#x14f;" horiz-adv-x="570" 
d="M474 458c22.667 -24.667 39.834 -53.667 51.501 -87s17.5 -69.333 17.5 -108s-5.83301 -74.667 -17.5 -108s-28.834 -62.333 -51.501 -87c-23.333 -26 -51.166 -45.667 -83.499 -59s-67.5 -20 -105.5 -20s-73.167 6.66699 -105.5 20s-60.166 33 -83.499 59
c-22.667 24.667 -39.834 53.667 -51.501 87s-17.5 69.333 -17.5 108s5.83301 74.667 17.5 108s28.834 62.333 51.501 87c23.333 25.333 51.166 44.666 83.499 57.999s67.5 20 105.5 20s73.167 -6.66699 105.5 -20s60.166 -32.666 83.499 -57.999zM285 420
c-36.667 0 -65.667 -14 -87 -42s-32 -66.333 -32 -115c0 -49.333 10.5 -88 31.5 -116s50.167 -42 87.5 -42c36.667 0 65.5 14 86.5 42s31.5 66.667 31.5 116s-10.5 87.833 -31.5 115.5s-49.833 41.5 -86.5 41.5zM285 662c16.667 0 30.332 5.16699 40.999 15.5
s16 23.833 16 40.5h96c0 -46 -13.5 -82.167 -40.5 -108.5s-64.5 -39.5 -112.5 -39.5s-85.5 13.167 -112.5 39.5s-40.5 62.5 -40.5 108.5h96c0 -16.667 5.33301 -30.167 16 -40.5s24.334 -15.5 41.001 -15.5z" />
    <glyph glyph-name="Ohungarumlaut" unicode="&#x150;" horiz-adv-x="733" 
d="M118 98c-29.333 33.333 -51.833 72.3291 -67.5 116.996s-23.5 92.667 -23.5 144s7.83301 99.333 23.5 144s38.167 83.667 67.5 117c30.667 35.333 67.5 62.333 110.5 81s89.167 28 138.5 28s95.333 -9.33301 138 -28s79.667 -46 111 -82
c29.333 -33.333 51.666 -72.166 66.999 -116.499s23 -92.166 23 -143.499s-7.66699 -99.166 -23 -143.499s-37.666 -83.166 -66.999 -116.499c-31.333 -36 -68.333 -63.333 -111 -82s-88.667 -28 -138 -28s-95.5 9.33301 -138.5 28s-79.833 45.667 -110.5 81zM367 117.996
c56.667 0 102.667 22.167 138 66.5s53 102.5 53 174.5s-17.667 130.167 -53 174.5s-81.333 66.5 -138 66.5c-57.333 0 -103.666 -22 -138.999 -66s-53 -102.333 -53 -175s17.667 -131 53 -175s81.666 -66 138.999 -66zM518 759.996h-109l81 153h158zM311 759.996h-109
l81 153h158z" />
    <glyph glyph-name="ohungarumlaut" unicode="&#x151;" horiz-adv-x="570" 
d="M474 458c22.667 -24.667 39.834 -53.667 51.501 -87s17.5 -69.333 17.5 -108s-5.83301 -74.667 -17.5 -108s-28.834 -62.333 -51.501 -87c-23.333 -26 -51.166 -45.667 -83.499 -59s-67.5 -20 -105.5 -20s-73.167 6.66699 -105.5 20s-60.166 33 -83.499 59
c-22.667 24.667 -39.834 53.667 -51.501 87s-17.5 69.333 -17.5 108s5.83301 74.667 17.5 108s28.834 62.333 51.501 87c23.333 25.333 51.166 44.666 83.499 57.999s67.5 20 105.5 20s73.167 -6.66699 105.5 -20s60.166 -32.666 83.499 -57.999zM285 420
c-36.667 0 -65.667 -14 -87 -42s-32 -66.333 -32 -115c0 -49.333 10.5 -88 31.5 -116s50.167 -42 87.5 -42c36.667 0 65.5 14 86.5 42s31.5 66.667 31.5 116s-10.5 87.833 -31.5 115.5s-49.833 41.5 -86.5 41.5zM422 573h-101l59 145h149zM239 573h-100l58 145h150z" />
    <glyph glyph-name="OE" unicode="&#x152;" horiz-adv-x="1030" 
d="M126 96c-32.667 32 -57.334 70.335 -74.001 115.002s-25 94 -25 148s8.33301 103.333 25 148s41.334 83 74.001 115c32 31.333 70.5 55.166 115.5 71.499s94.833 24.5 149.5 24.5h602v-127h-352v-160h295v-126h-295v-178h352v-127h-602
c-54.667 0 -104.5 8.16699 -149.5 24.5s-83.5 40.166 -115.5 71.499zM495 125.002v468.001h-104c-67.333 0 -120.5 -21 -159.5 -63s-58.5 -99 -58.5 -171c0 -72.667 19.5 -129.834 58.5 -171.501s92.5 -62.5 160.5 -62.5h103z" />
    <glyph glyph-name="oe" unicode="&#x153;" horiz-adv-x="928" 
d="M668 -11c-38.667 0 -74.332 6.66895 -106.999 20.002s-60.667 32.666 -84 57.999l-2 2l-1 -1c-23.333 -26 -51.166 -45.667 -83.499 -59s-67.5 -20 -105.5 -20s-73.167 6.66699 -105.5 20s-60.166 33 -83.499 59c-22.667 24.667 -39.834 53.667 -51.501 87
s-17.5 69.333 -17.5 108s5.83301 74.667 17.5 108s28.834 62.333 51.501 87c23.333 25.333 51.166 44.666 83.499 57.999s67.5 20 105.5 20s73.167 -6.66699 105.5 -20s60.166 -32.666 83.499 -57.999l3 -3c23.333 26 51 46 83 60s66.333 21 103 21
c73.333 0 131.666 -24.167 174.999 -72.5s65 -111.833 65 -190.5v-41h-361c-0.666992 -1.33301 -1 -3 -1 -5c5.33301 -38 19 -67.667 41 -89c23.333 -22.667 52.333 -34 87 -34c28 0 51.833 6.66699 71.5 20s33.5 32.333 41.5 57l118 -42
c-18.667 -46.667 -48.5 -83.334 -89.5 -110.001s-88.5 -40 -142.5 -40zM285.002 420.002c-36.667 0 -65.667 -14 -87 -42s-32 -66.333 -32 -115c0 -49.333 10.5 -88 31.5 -116s50.167 -42 87.5 -42c36.667 0 65.5 14 86.5 42s31.5 66.667 31.5 116s-10.5 87.833 -31.5 115.5
s-49.833 41.5 -86.5 41.5zM662.002 424.002c-28.667 0 -53.167 -8.33301 -73.5 -25s-34.5 -40.667 -42.5 -72h218c-0.666992 29.333 -10.167 52.833 -28.5 70.5s-42.833 26.5 -73.5 26.5z" />
    <glyph glyph-name="Racute" unicode="&#x154;" horiz-adv-x="660" 
d="M310 267l-100 -0.000976562v-267h-147v718h294c84.667 0 150.5 -19.667 197.5 -59s70.5 -95 70.5 -167c0 -53.333 -13.833 -98.166 -41.5 -134.499s-67.167 -61.833 -118.5 -76.5l179 -281h-168zM210 592.999v-202.999h139c42 0 74.167 8.66699 96.5 26
s33.5 42.333 33.5 75c0 33.333 -11.167 58.666 -33.5 75.999s-54.5 26 -96.5 26h-139zM346 758h-114l83 153h189z" />
    <glyph glyph-name="racute" unicode="&#x155;" horiz-adv-x="391" 
d="M338 529c4.66699 0 9.50098 -0.165039 14.501 -0.498047s11.5 -0.833008 19.5 -1.5v-137c-9.33301 1.33301 -17.333 2.16602 -24 2.49902s-13.667 0.5 -21 0.5c-38.667 0 -69.834 -11.333 -93.501 -34s-35.5 -53.334 -35.5 -92.001v-267h-140v526h140v-74
c12 24 30.5 42.833 55.5 56.5s53.167 20.5 84.5 20.5zM261.001 573.002h-110l57 145h168z" />
    <glyph glyph-name="Rcommaaccent" unicode="&#x156;" horiz-adv-x="660" 
d="M310 267l-100 -0.000976562v-267h-147v718h294c84.667 0 150.5 -19.667 197.5 -59s70.5 -95 70.5 -167c0 -53.333 -13.833 -98.166 -41.5 -134.499s-67.167 -61.833 -118.5 -76.5l179 -281h-168zM210 592.999v-202.999h139c42 0 74.167 8.66699 96.5 26
s33.5 42.333 33.5 75c0 33.333 -11.167 58.666 -33.5 75.999s-54.5 26 -96.5 26h-139zM311 -119h-52v85h140v-57c0 -37.333 -12.333 -66 -37 -86s-59 -30 -103 -30v56c16.667 0 29 2.5 37 7.5s13 13.167 15 24.5z" />
    <glyph glyph-name="rcommaaccent" unicode="&#x157;" horiz-adv-x="391" 
d="M338 529c4.66699 0 9.50098 -0.165039 14.501 -0.498047s11.5 -0.833008 19.5 -1.5v-137c-9.33301 1.33301 -17.333 2.16602 -24 2.49902s-13.667 0.5 -21 0.5c-38.667 0 -69.834 -11.333 -93.501 -34s-35.5 -53.334 -35.5 -92.001v-267h-140v526h140v-74
c12 24 30.5 42.833 55.5 56.5s53.167 20.5 84.5 20.5zM109.001 -118.998h-52v85h140v-57c0 -37.333 -12.333 -66 -37 -86s-59 -30 -103 -30v56c16.667 0 29 2.5 37 7.5s13 13.167 15 24.5z" />
    <glyph glyph-name="Rcaron" unicode="&#x158;" horiz-adv-x="660" 
d="M310 267l-100 -0.000976562v-267h-147v718h294c84.667 0 150.5 -19.667 197.5 -59s70.5 -95 70.5 -167c0 -53.333 -13.833 -98.166 -41.5 -134.499s-67.167 -61.833 -118.5 -76.5l179 -281h-168zM210 592.999v-202.999h139c42 0 74.167 8.66699 96.5 26
s33.5 42.333 33.5 75c0 33.333 -11.167 58.666 -33.5 75.999s-54.5 26 -96.5 26h-139zM515 911l-115 -153h-154l-115 153h107l85 -68l85 68h107z" />
    <glyph glyph-name="rcaron" unicode="&#x159;" horiz-adv-x="391" 
d="M338 529c4.66699 0 9.50098 -0.165039 14.501 -0.498047s11.5 -0.833008 19.5 -1.5v-137c-9.33301 1.33301 -17.333 2.16602 -24 2.49902s-13.667 0.5 -21 0.5c-38.667 0 -69.834 -11.333 -93.501 -34s-35.5 -53.334 -35.5 -92.001v-267h-140v526h140v-74
c12 24 30.5 42.833 55.5 56.5s53.167 20.5 84.5 20.5zM395.001 718.002l-100 -145h-142l-100 145h105l66 -57l66 57h105z" />
    <glyph glyph-name="Sacute" unicode="&#x15a;" horiz-adv-x="596" 
d="M296 -11c-62 0 -121.331 12.9951 -177.998 38.9951s-99 60.333 -127 103l101 98c26 -37.333 57.333 -66.166 94 -86.499s75 -30.5 115 -30.5c39.333 0 70.833 8.33301 94.5 25s35.5 39.667 35.5 69c0 18 -5.16699 32.667 -15.5 44s-27.833 21 -52.5 29
c-6.66699 2 -19 5.16699 -37 9.5l-71 16.5c-40.667 9.33301 -72.334 18.5 -95.001 27.5s-42.334 19.167 -59.001 30.5c-23.333 16.667 -40.666 36.834 -51.999 60.501s-17 51.167 -17 82.5c0 34 7.16699 65.333 21.5 94s34.833 53 61.5 73c24 18 51.833 31.833 83.5 41.5
s65.167 14.5 100.5 14.5c57.333 0 110 -11.333 158 -34s85.667 -53.667 113 -93l-97 -95c-24 33.333 -50.667 58.166 -80 74.499s-62 24.5 -98 24.5c-35.333 0 -63.833 -7.83301 -85.5 -23.5s-32.5 -36.5 -32.5 -62.5c0 -15.333 4.33301 -28.166 13 -38.499
s22.667 -19.166 42 -26.499c8 -2.66699 17.833 -5.5 29.5 -8.5s32.167 -7.83301 61.5 -14.5c51.333 -11.333 88.666 -21.166 111.999 -29.499s43.333 -17.5 60 -27.5c28 -17.333 48.667 -38.666 62 -63.999s20 -55.333 20 -90c0 -35.333 -7.5 -68 -22.5 -98
s-36.833 -55.333 -65.5 -76c-25.333 -18.667 -54.5 -33 -87.5 -43s-68.167 -15 -105.5 -15zM355.002 757.995h-114l83 153h189z" />
    <glyph glyph-name="sacute" unicode="&#x15b;" horiz-adv-x="501" 
d="M249 -11c-50.667 0 -98.1641 9.00098 -142.497 27.001s-77.833 42.333 -100.5 73l87 89c18 -24 41.5 -43.333 70.5 -58s58.5 -22 88.5 -22c27.333 0 48.833 4.83301 64.5 14.5s23.5 22.834 23.5 39.501c0 12 -3.66699 21.5 -11 28.5s-20.333 12.833 -39 17.5
c-4.66699 1.33301 -10.334 2.66602 -17.001 3.99902l-56 11c-34 6.66699 -59.833 13.167 -77.5 19.5s-32.834 13.5 -45.501 21.5c-18.667 12 -32.667 27.167 -42 45.5s-14 40.166 -14 65.499c0 50.667 20 91.834 60 123.501s91.667 47.5 155 47.5
c44.667 0 86.667 -8.33301 126 -25s69.666 -38.667 90.999 -66l-80 -88c-17.333 22.667 -38.333 40 -63 52s-50.667 18 -78 18c-22 0 -39.667 -4.33301 -53 -13s-20 -20.334 -20 -35.001c0 -10 3 -18 9 -24s16 -11 30 -15c5.33301 -2 11.5 -3.83301 18.5 -5.5
s21.167 -4.5 42.5 -8.5c40.667 -8.66699 70 -16 88 -22s33.667 -12.667 47 -20c22 -12.667 38.5 -28.667 49.5 -48s16.5 -42.333 16.5 -69c0 -52.667 -21.5 -95.5 -64.5 -128.5s-97.5 -49.5 -163.5 -49.5zM304.003 573.001h-110l57 145h168z" />
    <glyph glyph-name="Scircumflex" unicode="&#x15c;" horiz-adv-x="596" 
d="M296 -11c-62 0 -121.331 12.9951 -177.998 38.9951s-99 60.333 -127 103l101 98c26 -37.333 57.333 -66.166 94 -86.499s75 -30.5 115 -30.5c39.333 0 70.833 8.33301 94.5 25s35.5 39.667 35.5 69c0 18 -5.16699 32.667 -15.5 44s-27.833 21 -52.5 29
c-6.66699 2 -19 5.16699 -37 9.5l-71 16.5c-40.667 9.33301 -72.334 18.5 -95.001 27.5s-42.334 19.167 -59.001 30.5c-23.333 16.667 -40.666 36.834 -51.999 60.501s-17 51.167 -17 82.5c0 34 7.16699 65.333 21.5 94s34.833 53 61.5 73c24 18 51.833 31.833 83.5 41.5
s65.167 14.5 100.5 14.5c57.333 0 110 -11.333 158 -34s85.667 -53.667 113 -93l-97 -95c-24 33.333 -50.667 58.166 -80 74.499s-62 24.5 -98 24.5c-35.333 0 -63.833 -7.83301 -85.5 -23.5s-32.5 -36.5 -32.5 -62.5c0 -15.333 4.33301 -28.166 13 -38.499
s22.667 -19.166 42 -26.499c8 -2.66699 17.833 -5.5 29.5 -8.5s32.167 -7.83301 61.5 -14.5c51.333 -11.333 88.666 -21.166 111.999 -29.499s43.333 -17.5 60 -27.5c28 -17.333 48.667 -38.666 62 -63.999s20 -55.333 20 -90c0 -35.333 -7.5 -68 -22.5 -98
s-36.833 -55.333 -65.5 -76c-25.333 -18.667 -54.5 -33 -87.5 -43s-68.167 -15 -105.5 -15zM234.002 910.995h154l115 -153h-107l-85 68l-85 -68h-107z" />
    <glyph glyph-name="scircumflex" unicode="&#x15d;" horiz-adv-x="501" 
d="M249 -11c-50.667 0 -98.1641 9.00098 -142.497 27.001s-77.833 42.333 -100.5 73l87 89c18 -24 41.5 -43.333 70.5 -58s58.5 -22 88.5 -22c27.333 0 48.833 4.83301 64.5 14.5s23.5 22.834 23.5 39.501c0 12 -3.66699 21.5 -11 28.5s-20.333 12.833 -39 17.5
c-4.66699 1.33301 -10.334 2.66602 -17.001 3.99902l-56 11c-34 6.66699 -59.833 13.167 -77.5 19.5s-32.834 13.5 -45.501 21.5c-18.667 12 -32.667 27.167 -42 45.5s-14 40.166 -14 65.499c0 50.667 20 91.834 60 123.501s91.667 47.5 155 47.5
c44.667 0 86.667 -8.33301 126 -25s69.666 -38.667 90.999 -66l-80 -88c-17.333 22.667 -38.333 40 -63 52s-50.667 18 -78 18c-22 0 -39.667 -4.33301 -53 -13s-20 -20.334 -20 -35.001c0 -10 3 -18 9 -24s16 -11 30 -15c5.33301 -2 11.5 -3.83301 18.5 -5.5
s21.167 -4.5 42.5 -8.5c40.667 -8.66699 70 -16 88 -22s33.667 -12.667 47 -20c22 -12.667 38.5 -28.667 49.5 -48s16.5 -42.333 16.5 -69c0 -52.667 -21.5 -95.5 -64.5 -128.5s-97.5 -49.5 -163.5 -49.5zM185.003 718.001h142l100 -145h-105l-66 57l-66 -57h-105z" />
    <glyph glyph-name="Scedilla" unicode="&#x15e;" horiz-adv-x="596" 
d="M-9 131l101.003 97.9961c26 -37.333 57.333 -66.166 94 -86.499s75 -30.5 115 -30.5c39.333 0 70.833 8.33301 94.5 25s35.5 39.667 35.5 69c0 18 -5.16699 32.667 -15.5 44s-27.833 21 -52.5 29c-6.66699 2 -19 5.16699 -37 9.5l-71 16.5
c-40.667 9.33301 -72.334 18.5 -95.001 27.5s-42.334 19.167 -59.001 30.5c-23.333 16.667 -40.666 36.834 -51.999 60.501s-17 51.167 -17 82.5c0 34 7.16699 65.333 21.5 94s34.833 53 61.5 73c24 18 51.833 31.833 83.5 41.5s65.167 14.5 100.5 14.5
c57.333 0 110 -11.333 158 -34s85.667 -53.667 113 -93l-97 -95c-24 33.333 -50.667 58.166 -80 74.499s-62 24.5 -98 24.5c-35.333 0 -63.833 -7.83301 -85.5 -23.5s-32.5 -36.5 -32.5 -62.5c0 -15.333 4.33301 -28.166 13 -38.499s22.667 -19.166 42 -26.499
c8 -2.66699 17.833 -5.5 29.5 -8.5s32.167 -7.83301 61.5 -14.5c51.333 -11.333 88.666 -21.166 111.999 -29.499s43.333 -17.5 60 -27.5c28 -17.333 48.667 -38.666 62 -63.999s20 -55.333 20 -90c0 -34 -6.83301 -65.167 -20.5 -93.5s-33.5 -53.166 -59.5 -74.499
c-23.333 -18.667 -50.333 -33.334 -81 -44.001s-63.334 -17 -98.001 -19l-3 -10c26 -3.33301 46.333 -11.833 61 -25.5s22 -31.5 22 -53.5c0 -26 -11.5 -47.333 -34.5 -64s-52.167 -25 -87.5 -25c-22 0 -42.167 3 -60.5 9s-33.5 15 -45.5 27l43 63
c6.66699 -8.66699 14.667 -15.334 24 -20.001s19.333 -7 30 -7c11.333 0 20.333 2.16699 27 6.5s10 10.166 10 17.499c0 8.66699 -5.5 15.334 -16.5 20.001s-28.5 7.66699 -52.5 9l17 54c-55.333 6 -106.5 21.667 -153.5 47s-82.833 56.333 -107.5 93z" />
    <glyph glyph-name="scedilla" unicode="&#x15f;" horiz-adv-x="501" 
d="M6 89l87.002 89.0039c18 -24 41.5 -43.333 70.5 -58s58.5 -22 88.5 -22c27.333 0 48.833 4.83301 64.5 14.5s23.5 22.834 23.5 39.501c0 12 -3.66699 21.5 -11 28.5s-20.333 12.833 -39 17.5c-4.66699 1.33301 -10.334 2.66602 -17.001 3.99902l-56 11
c-34 6.66699 -59.833 13.167 -77.5 19.5s-32.834 13.5 -45.501 21.5c-18.667 12 -32.667 27.167 -42 45.5s-14 40.166 -14 65.499c0 50.667 20 91.834 60 123.501s91.667 47.5 155 47.5c44.667 0 86.667 -8.33301 126 -25s69.666 -38.667 90.999 -66l-80 -88
c-17.333 22.667 -38.333 40 -63 52s-50.667 18 -78 18c-22 0 -39.667 -4.33301 -53 -13s-20 -20.334 -20 -35.001c0 -10 3 -18 9 -24s16 -11 30 -15c5.33301 -2 11.5 -3.83301 18.5 -5.5s21.167 -4.5 42.5 -8.5c40.667 -8.66699 70 -16 88 -22s33.667 -12.667 47 -20
c22 -12.667 38.5 -28.667 49.5 -48s16.5 -42.333 16.5 -69c0 -50.667 -20 -92.334 -60 -125.001s-91.667 -50.334 -155 -53.001l-3 -9c26 -3.33301 46.333 -11.833 61 -25.5s22 -31.5 22 -53.5c0 -26 -11.5 -47.333 -34.5 -64s-52.167 -25 -87.5 -25
c-22 0 -42.167 3 -60.5 9s-33.5 15 -45.5 27l43 63c6.66699 -8.66699 14.667 -15.334 24 -20.001s19.333 -7 30 -7c11.333 0 20.333 2.16699 27 6.5s10 10.166 10 17.499c0 8.66699 -5.5 15.334 -16.5 20.001s-28.5 7.66699 -52.5 9l17 56
c-41.333 5.33301 -78.666 16.5 -111.999 33.5s-59.333 37.833 -78 62.5z" />
    <glyph glyph-name="Scaron" unicode="&#x160;" horiz-adv-x="596" 
d="M296 -11c-62 0 -121.331 12.9951 -177.998 38.9951s-99 60.333 -127 103l101 98c26 -37.333 57.333 -66.166 94 -86.499s75 -30.5 115 -30.5c39.333 0 70.833 8.33301 94.5 25s35.5 39.667 35.5 69c0 18 -5.16699 32.667 -15.5 44s-27.833 21 -52.5 29
c-6.66699 2 -19 5.16699 -37 9.5l-71 16.5c-40.667 9.33301 -72.334 18.5 -95.001 27.5s-42.334 19.167 -59.001 30.5c-23.333 16.667 -40.666 36.834 -51.999 60.501s-17 51.167 -17 82.5c0 34 7.16699 65.333 21.5 94s34.833 53 61.5 73c24 18 51.833 31.833 83.5 41.5
s65.167 14.5 100.5 14.5c57.333 0 110 -11.333 158 -34s85.667 -53.667 113 -93l-97 -95c-24 33.333 -50.667 58.166 -80 74.499s-62 24.5 -98 24.5c-35.333 0 -63.833 -7.83301 -85.5 -23.5s-32.5 -36.5 -32.5 -62.5c0 -15.333 4.33301 -28.166 13 -38.499
s22.667 -19.166 42 -26.499c8 -2.66699 17.833 -5.5 29.5 -8.5s32.167 -7.83301 61.5 -14.5c51.333 -11.333 88.666 -21.166 111.999 -29.499s43.333 -17.5 60 -27.5c28 -17.333 48.667 -38.666 62 -63.999s20 -55.333 20 -90c0 -35.333 -7.5 -68 -22.5 -98
s-36.833 -55.333 -65.5 -76c-25.333 -18.667 -54.5 -33 -87.5 -43s-68.167 -15 -105.5 -15zM503.002 910.995l-115 -153h-154l-115 153h107l85 -68l85 68h107z" />
    <glyph glyph-name="scaron" unicode="&#x161;" horiz-adv-x="501" 
d="M249 -11c-50.667 0 -98.1641 9.00098 -142.497 27.001s-77.833 42.333 -100.5 73l87 89c18 -24 41.5 -43.333 70.5 -58s58.5 -22 88.5 -22c27.333 0 48.833 4.83301 64.5 14.5s23.5 22.834 23.5 39.501c0 12 -3.66699 21.5 -11 28.5s-20.333 12.833 -39 17.5
c-4.66699 1.33301 -10.334 2.66602 -17.001 3.99902l-56 11c-34 6.66699 -59.833 13.167 -77.5 19.5s-32.834 13.5 -45.501 21.5c-18.667 12 -32.667 27.167 -42 45.5s-14 40.166 -14 65.499c0 50.667 20 91.834 60 123.501s91.667 47.5 155 47.5
c44.667 0 86.667 -8.33301 126 -25s69.666 -38.667 90.999 -66l-80 -88c-17.333 22.667 -38.333 40 -63 52s-50.667 18 -78 18c-22 0 -39.667 -4.33301 -53 -13s-20 -20.334 -20 -35.001c0 -10 3 -18 9 -24s16 -11 30 -15c5.33301 -2 11.5 -3.83301 18.5 -5.5
s21.167 -4.5 42.5 -8.5c40.667 -8.66699 70 -16 88 -22s33.667 -12.667 47 -20c22 -12.667 38.5 -28.667 49.5 -48s16.5 -42.333 16.5 -69c0 -52.667 -21.5 -95.5 -64.5 -128.5s-97.5 -49.5 -163.5 -49.5zM430.003 718.001l-100 -145h-142l-100 145h105l66 -57l66 57h105z
" />
    <glyph glyph-name="uni0162" unicode="&#x162;" horiz-adv-x="628" 
d="M420 -99c0 -26 -11.5 -47.332 -34.5 -63.999s-52.167 -25 -87.5 -25c-22 0 -42.167 3 -60.5 9s-33.5 15 -45.5 27l43 63c6.66699 -8.66699 14.667 -15.334 24 -20.001s19.333 -7 30 -7c11.333 0 20.333 2.16699 27 6.5s10 10.166 10 17.499
c0 8.66699 -5.5 15.334 -16.5 20.001s-28.5 7.66699 -52.5 9l19 63h-35v591h-226v127h598v-127h-225v-591h-45l-6 -20c26 -3.33301 46.333 -11.833 61 -25.5s22 -31.5 22 -53.5z" />
    <glyph glyph-name="uni0163" unicode="&#x163;" horiz-adv-x="350" 
d="M72 137v272.003h-70v117h70v150h138v-150h107v-117h-107v-243c0 -18.667 4.5 -31.834 13.5 -39.501s26.5 -11.5 52.5 -11.5c8 0 15 0.166992 21 0.5s15 1.16602 27 2.49902v-116c-12.667 -2.66699 -26.5 -4.66699 -41.5 -6s-29.833 -2 -44.5 -2l-4 -14
c26 -3.33301 46.333 -11.833 61 -25.5s22 -31.5 22 -53.5c0 -26 -11.5 -47.333 -34.5 -64s-52.167 -25 -87.5 -25c-22 0 -42.167 3 -60.5 9s-33.5 15 -45.5 27l43 63c6.66699 -8.66699 14.667 -15.334 24 -20.001s19.333 -7 30 -7c11.333 0 20.333 2.16699 27 6.5
s10 10.166 10 17.499c0 8.66699 -5.5 15.334 -16.5 20.001s-28.5 7.66699 -52.5 9l19 62c-34.667 6.66699 -60.167 21.167 -76.5 43.5s-24.5 53.833 -24.5 94.5z" />
    <glyph glyph-name="Tcaron" unicode="&#x164;" horiz-adv-x="628" 
d="M613 718v-127h-225v-591h-147v591h-226v127h598zM506 911l-115 -153h-154l-115 153h107l85 -68l85 68h107z" />
    <glyph glyph-name="tcaron" unicode="&#x165;" horiz-adv-x="350" 
d="M234 -6c-57.333 0 -98.667 11.335 -124 34.002s-38 59 -38 109v272h-70v117h70v150h138v-150h107v-117h-107v-243c0 -18.667 4.5 -31.834 13.5 -39.501s26.5 -11.5 52.5 -11.5c8 0 15 0.166992 21 0.5s15 1.16602 27 2.49902v-116
c-13.333 -2.66699 -27.5 -4.66699 -42.5 -6s-30.833 -2 -47.5 -2zM339.999 572.002h-95l17 166h153z" />
    <glyph glyph-name="Tbar" unicode="&#x166;" horiz-adv-x="628" 
d="M490 427v-127h-102v-300h-147v300h-103v127h103v164h-226v127h598v-127h-225v-164h102z" />
    <glyph glyph-name="tbar" unicode="&#x167;" horiz-adv-x="371" 
d="M250 -6c-58 0 -99.834 11.333 -125.501 34s-38.5 59 -38.5 109v97h-80v111h80v70h-80v111h80v150h138v-150h112v-111h-112v-70h112v-111h-112v-63c0 -18.667 4.83301 -32 14.5 -40s27.5 -12 53.5 -12c10 0 18.833 0.333008 26.5 1s15.834 1.66699 24.501 3v-121
c-12.667 -2.66699 -27 -4.66699 -43 -6s-32.667 -2 -50 -2z" />
    <glyph glyph-name="Utilde" unicode="&#x168;" horiz-adv-x="696" 
d="M348 -10c-93.333 0 -166 26 -218 78s-78 125 -78 219v431h148v-426c0 -56.667 12.667 -99.667 38 -129s62 -44 110 -44c48.667 0 85.667 14.667 111 44s38 72.333 38 129v426h147v-431c0 -94 -26 -167 -78 -219s-124.667 -78 -218 -78zM276 923
c12 0 23.833 -2.16602 35.5 -6.49902s26.834 -12.833 45.501 -25.5c13.333 -9.33301 23.166 -15.333 29.499 -18s12.5 -4 18.5 -4c12 0 21.333 4 28 12s12 22 16 42h93c-2.66699 -50.667 -15 -90.667 -37 -120s-50.667 -44 -86 -44c-12 0 -23.667 2.16699 -35 6.5
s-26.333 12.833 -45 25.5c-13.333 9.33301 -23.333 15.333 -30 18s-13 4 -19 4c-12 0 -21.333 -4.33301 -28 -13s-11.667 -22.334 -15 -41.001h-93c2 50 14 89.833 36 119.5s50.667 44.5 86 44.5z" />
    <glyph glyph-name="utilde" unicode="&#x169;" horiz-adv-x="573" 
d="M375 526h140.001v-526h-140v54c-18 -21.333 -39 -37.5 -63 -48.5s-50.333 -16.5 -79 -16.5c-54 0 -97.333 17.167 -130 51.5s-49 80.166 -49 137.499v348h140v-317c0 -31.333 7.16699 -55.166 21.5 -71.499s35.166 -24.5 62.499 -24.5s50.333 9.66699 69 29
s28 44.333 28 75v309zM221.001 726c10.667 0 21 -2 31 -6s23 -12 39 -24c11.333 -8.66699 19.833 -14.334 25.5 -17.001s10.834 -4 15.501 -4c10 0 17.833 3.83301 23.5 11.5s10.167 20.834 13.5 39.501h86c-2 -47.333 -12.667 -84.666 -32 -111.999s-45 -41 -77 -41
c-10.667 0 -21 2 -31 6s-23 12 -39 24c-11.333 8.66699 -19.833 14.334 -25.5 17.001s-10.834 4 -15.501 4c-10 0 -17.833 -3.83301 -23.5 -11.5s-10.167 -20.834 -13.5 -39.501h-86c2 47.333 12.667 84.666 32 111.999s45 41 77 41z" />
    <glyph glyph-name="Umacron" unicode="&#x16a;" horiz-adv-x="696" 
d="M348 -10c-93.333 0 -166 26 -218 78s-78 125 -78 219v431h148v-426c0 -56.667 12.667 -99.667 38 -129s62 -44 110 -44c48.667 0 85.667 14.667 111 44s38 72.333 38 129v426h147v-431c0 -94 -26 -167 -78 -219s-124.667 -78 -218 -78zM518 876v-110h-340v110h340z" />
    <glyph glyph-name="umacron" unicode="&#x16b;" horiz-adv-x="573" 
d="M375 526h140.001v-526h-140v54c-18 -21.333 -39 -37.5 -63 -48.5s-50.333 -16.5 -79 -16.5c-54 0 -97.333 17.167 -130 51.5s-49 80.166 -49 137.499v348h140v-317c0 -31.333 7.16699 -55.166 21.5 -71.499s35.166 -24.5 62.499 -24.5s50.333 9.66699 69 29
s28 44.333 28 75v309zM437.001 696v-106h-306v106h306z" />
    <glyph glyph-name="Ubreve" unicode="&#x16c;" horiz-adv-x="696" 
d="M348 -10c-93.333 0 -166 26 -218 78s-78 125 -78 219v431h148v-426c0 -56.667 12.667 -99.667 38 -129s62 -44 110 -44c48.667 0 85.667 14.667 111 44s38 72.333 38 129v426h147v-431c0 -94 -26 -167 -78 -219s-124.667 -78 -218 -78zM348 846
c20 0 36.5 6.16699 49.5 18.5s19.5 28.5 19.5 48.5h103c0 -48 -15.5 -86.167 -46.5 -114.5s-72.833 -42.5 -125.5 -42.5s-94.5 14.167 -125.5 42.5s-46.5 66.5 -46.5 114.5h103c0 -20 6.5 -36.167 19.5 -48.5s29.5 -18.5 49.5 -18.5z" />
    <glyph glyph-name="ubreve" unicode="&#x16d;" horiz-adv-x="573" 
d="M375 526h140.001v-526h-140v54c-18 -21.333 -39 -37.5 -63 -48.5s-50.333 -16.5 -79 -16.5c-54 0 -97.333 17.167 -130 51.5s-49 80.166 -49 137.499v348h140v-317c0 -31.333 7.16699 -55.166 21.5 -71.499s35.166 -24.5 62.499 -24.5s50.333 9.66699 69 29
s28 44.333 28 75v309zM284.001 662c16.667 0 30.332 5.16699 40.999 15.5s16 23.833 16 40.5h96c0 -46 -13.5 -82.167 -40.5 -108.5s-64.5 -39.5 -112.5 -39.5s-85.5 13.167 -112.5 39.5s-40.5 62.5 -40.5 108.5h96c0 -16.667 5.33301 -30.167 16 -40.5
s24.334 -15.5 41.001 -15.5z" />
    <glyph glyph-name="Uring" unicode="&#x16e;" horiz-adv-x="696" 
d="M348 -10c-93.333 0 -166 26 -218 78s-78 125 -78 219v431h148v-426c0 -56.667 12.667 -99.667 38 -129s62 -44 110 -44c48.667 0 85.667 14.667 111 44s38 72.333 38 129v426h147v-431c0 -94 -26 -167 -78 -219s-124.667 -78 -218 -78zM348 728
c-38.667 0 -70.834 12.5 -96.501 37.5s-38.5 55.833 -38.5 92.5c0 36 12.833 66.333 38.5 91s57.834 37 96.501 37s70.834 -12.333 96.501 -37s38.5 -55 38.5 -91c0 -36.667 -12.833 -67.5 -38.5 -92.5s-57.834 -37.5 -96.501 -37.5zM348 910
c-14.667 0 -26.8301 -4.83301 -36.4971 -14.5s-14.5 -22.167 -14.5 -37.5c0 -16 4.66699 -28.667 14 -38s21.666 -14 36.999 -14s27.666 4.66699 36.999 14s14 22 14 38c0 15.333 -4.83301 27.833 -14.5 37.5s-21.834 14.5 -36.501 14.5z" />
    <glyph glyph-name="uring" unicode="&#x16f;" horiz-adv-x="573" 
d="M375 526h140.001v-526h-140v54c-18 -21.333 -39 -37.5 -63 -48.5s-50.333 -16.5 -79 -16.5c-54 0 -97.333 17.167 -130 51.5s-49 80.166 -49 137.499v348h140v-317c0 -31.333 7.16699 -55.166 21.5 -71.499s35.166 -24.5 62.499 -24.5s50.333 9.66699 69 29
s28 44.333 28 75v309zM284.001 561c-32.667 0 -59.834 10.5 -81.501 31.5s-32.5 46.833 -32.5 77.5c0 30 10.833 55.5 32.5 76.5s48.834 31.5 81.501 31.5s59.834 -10.5 81.501 -31.5s32.5 -46.5 32.5 -76.5c0 -30.667 -10.833 -56.5 -32.5 -77.5
s-48.834 -31.5 -81.501 -31.5zM284.001 715c-12 0 -22.333 -4.5 -31 -13.5s-13 -19.5 -13 -31.5c0 -12.667 4.16699 -23.334 12.5 -32.001s18.833 -13 31.5 -13s23.167 4.33301 31.5 13s12.5 19.334 12.5 32.001c0 12 -4.33301 22.5 -13 31.5s-19 13.5 -31 13.5z" />
    <glyph glyph-name="Uhungarumlaut" unicode="&#x170;" horiz-adv-x="696" 
d="M348 -10c-93.333 0 -166 26 -218 78s-78 125 -78 219v431h148v-426c0 -56.667 12.667 -99.667 38 -129s62 -44 110 -44c48.667 0 85.667 14.667 111 44s38 72.333 38 129v426h147v-431c0 -94 -26 -167 -78 -219s-124.667 -78 -218 -78zM498 760h-109l81 153h158zM291 760
h-109l81 153h158z" />
    <glyph glyph-name="uhungarumlaut" unicode="&#x171;" horiz-adv-x="573" 
d="M375 526h140.001v-526h-140v54c-18 -21.333 -39 -37.5 -63 -48.5s-50.333 -16.5 -79 -16.5c-54 0 -97.333 17.167 -130 51.5s-49 80.166 -49 137.499v348h140v-317c0 -31.333 7.16699 -55.166 21.5 -71.499s35.166 -24.5 62.499 -24.5s50.333 9.66699 69 29
s28 44.333 28 75v309zM427.001 573h-101l59 145h149zM244.001 573h-100l58 145h150z" />
    <glyph glyph-name="Uogonek" unicode="&#x172;" horiz-adv-x="696" 
d="M395 -184c-29.333 0 -53.667 8.33203 -73 24.999s-29 38 -29 64c0 16 3.16699 31.167 9.5 45.5s15.5 27.5 27.5 39.5c-88 4 -156.333 31.833 -205 83.5s-73 122.834 -73 213.501v431h148v-426c0 -56.667 12.667 -99.667 38 -129s62 -44 110 -44
c48.667 0 85.667 14.667 111 44s38 72.333 38 129v426h147v-431c0 -74.667 -16.5 -136.334 -49.5 -185.001s-80.5 -81.667 -142.5 -99v0c-24 -16 -40.833 -29.667 -50.5 -41s-14.5 -22 -14.5 -32c0 -9.33301 3.16699 -16.666 9.5 -21.999s14.833 -8 25.5 -8
c6.66699 0 12.834 0.5 18.501 1.5s12.5 2.5 20.5 4.5v-82c-12 -2.66699 -22.833 -4.66699 -32.5 -6s-20.834 -2 -33.501 -2z" />
    <glyph glyph-name="uogonek" unicode="&#x173;" horiz-adv-x="573" 
d="M425 -184c-29.333 0 -53.666 8.33203 -72.999 24.999s-29 38 -29 64c0 18.667 4.16699 36.167 12.5 52.5s21.5 31.833 39.5 46.5v50c-18 -21.333 -39 -37.5 -63 -48.5s-50.333 -16.5 -79 -16.5c-54 0 -97.333 17.167 -130 51.5s-49 80.166 -49 137.499v348h140v-317
c0 -31.333 7.16699 -55.166 21.5 -71.499s35.166 -24.5 62.499 -24.5s50.333 9.66699 69 29s28 44.333 28 75v309h140v-526h-37c-21.333 -14.667 -36.833 -27.5 -46.5 -38.5s-14.5 -21.5 -14.5 -31.5c0 -9.33301 3.16699 -16.666 9.5 -21.999s14.833 -8 25.5 -8
c6.66699 0 12.834 0.5 18.501 1.5s12.5 2.5 20.5 4.5v-82c-12 -2.66699 -22.833 -4.66699 -32.5 -6s-20.834 -2 -33.501 -2z" />
    <glyph glyph-name="Wcircumflex" unicode="&#x174;" horiz-adv-x="943" 
d="M286 220l124 498h127l124 -498l126 498h148l-192 -718h-144l-127 483l-127 -483h-144l-193 718h153zM395 911h154l115 -153h-107l-85 68l-85 -68h-107z" />
    <glyph glyph-name="wcircumflex" unicode="&#x175;" horiz-adv-x="740" 
d="M232 197l86 329h109l87 -329l88 329h137l-159 -526h-121l-89 318l-89 -318h-121l-159 526h142zM304 718h142l100 -145h-105l-66 57l-66 -57h-105z" />
    <glyph glyph-name="Ycircumflex" unicode="&#x176;" horiz-adv-x="662" 
d="M158 718l175 -291l175 291h156l-259 -426v-292h-147v292l-260 426h160zM253 911h154l115 -153h-107l-85 68l-85 -68h-107z" />
    <glyph glyph-name="ycircumflex" unicode="&#x177;" horiz-adv-x="523" 
d="M522 526l-208 -555.998c-20.667 -56 -46.334 -95.5 -77.001 -118.5s-71 -34.5 -121 -34.5c-10.667 0 -19.5 0.166992 -26.5 0.5s-16.5 1.16602 -28.5 2.49902v113c10 -0.666992 18.333 -1.16699 25 -1.5s11.667 -0.5 15 -0.5c20 0 35.333 3.66699 46 11
s19.334 19.666 26.001 36.999l17 42l-189 505h145l119 -346l116 346h141zM196 718.002h142l100 -145h-105l-66 57l-66 -57h-105z" />
    <glyph glyph-name="Ydieresis" unicode="&#x178;" horiz-adv-x="662" 
d="M158 718l175 -291l175 291h156l-259 -426v-292h-147v292l-260 426h160zM300 758h-142v133h142v-133zM502 758h-142v133h142v-133z" />
    <glyph glyph-name="Zacute" unicode="&#x179;" horiz-adv-x="634" 
d="M225 127h379v-127h-568v112l377 479h-374v127h561v-112zM355 758h-114l83 153h189z" />
    <glyph glyph-name="zacute" unicode="&#x17a;" horiz-adv-x="507" 
d="M211 117h261v-117h-438v103l267 306h-264v117h432v-104zM293 573h-110l57 145h168z" />
    <glyph glyph-name="Zdotaccent" unicode="&#x17b;" horiz-adv-x="634" 
d="M225 127h379v-127h-568v112l377 479h-374v127h561v-112zM400 758h-146v133h146v-133z" />
    <glyph glyph-name="zdotaccent" unicode="&#x17c;" horiz-adv-x="507" 
d="M211 117h261v-117h-438v103l267 306h-264v117h432v-104zM320 588h-144v130h144v-130z" />
    <glyph glyph-name="Zcaron" unicode="&#x17d;" horiz-adv-x="634" 
d="M225 127h379v-127h-568v112l377 479h-374v127h561v-112zM522 911l-115 -153h-154l-115 153h107l85 -68l85 68h107z" />
    <glyph glyph-name="zcaron" unicode="&#x17e;" horiz-adv-x="507" 
d="M211 117h261v-117h-438v103l267 306h-264v117h432v-104zM424 718l-100 -145h-142l-100 145h105l66 -57l66 57h105z" />
    <glyph glyph-name="florin" unicode="&#x192;" horiz-adv-x="559" 
d="M202 332l-92.002 0.00390625v98h105l12 92c8 67.333 29.667 118.666 65 153.999s82.333 53 141 53c26 0 50.5 -4 73.5 -12s43.167 -19.667 60.5 -35l-52 -99c-8 9.33301 -17.667 16.666 -29 21.999s-22.666 8 -33.999 8c-21.333 0 -38.666 -8 -51.999 -24
s-21.666 -38.667 -24.999 -68l-12 -91h105v-98h-118l-18 -136c-6.66699 -66.667 -27.667 -117.834 -63 -153.501s-82.666 -53.5 -141.999 -53.5c-26 0 -50.667 4.16699 -74 12.5s-43.666 19.833 -60.999 34.5l53 99c7.33301 -8.66699 16.666 -15.834 27.999 -21.501
s22.666 -8.5 33.999 -8.5c21.333 0 38.666 7.83301 51.999 23.5s22 38.5 26 68.5z" />
    <glyph glyph-name="AEacute" unicode="&#x1fc;" horiz-adv-x="1029" 
d="M0 0l411 718h581v-127h-352v-160h295v-126h-295v-178h352v-127h-497v162h-246l-92 -162h-157zM495 593l-175 -306h175v306zM752 758h-114l83 153h189z" />
    <glyph glyph-name="aeacute" unicode="&#x1fd;" horiz-adv-x="860" 
d="M22 148c0 55.333 22.335 98.834 67.002 130.501s104.667 47.5 180 47.5h74v20c0 24.667 -6.83301 43.167 -20.5 55.5s-33.834 18.5 -60.501 18.5c-24.667 0 -44.5 -5.66699 -59.5 -17s-25.833 -29 -32.5 -53l-132 25c13.333 48.667 40.666 87.667 81.999 117
s90.333 44 147 44c36.667 0 68.834 -5.5 96.501 -16.5s49.834 -27.167 66.501 -48.5c23.333 21.333 49 37.5 77 48.5s57.333 16.5 88 16.5c37.333 0 71.166 -6.5 101.499 -19.5s56.166 -31.833 77.499 -56.5c20 -23.333 35.333 -51 46 -83s16 -66.667 16 -104v-41h-362
c4.66699 -40 18.334 -71.333 41.001 -94s51.334 -34 86.001 -34c28 0 51.833 6.66699 71.5 20s33.5 32.333 41.5 57l118 -42c-18.667 -46.667 -48.5 -83.334 -89.5 -110.001s-88.5 -40 -142.5 -40c-40.667 0 -77.834 7.5 -111.501 22.5s-62.167 36.5 -85.5 64.5
c-21.333 -27.333 -48.833 -48.5 -82.5 -63.5s-71.834 -22.5 -114.501 -22.5c-53.333 0 -97.333 14.833 -132 44.5s-52 67.5 -52 113.5zM594.002 424.001c-29.333 0 -53.833 -8.5 -73.5 -25.5s-33.5 -41.167 -41.5 -72.5h217c-0.666992 29.333 -10 53 -28 71
s-42.667 27 -74 27zM159.002 162.001c0 -19.333 6.66797 -34.668 20.001 -46.001s31 -17 53 -17c31.333 0 57.666 9.33301 78.999 28s32 42.334 32 71.001v34h-68c-40.667 0 -70.167 -5.66699 -88.5 -17s-27.5 -29 -27.5 -53zM476.003 572.999h-110l57 145h168z" />
    <glyph glyph-name="Oslashacute" unicode="&#x1fe;" horiz-adv-x="733" 
d="M117 -31l-83.001 65.998l68 82c-24.667 32.667 -43.334 69.667 -56.001 111s-19 85 -19 131c0 51.333 7.83301 99.333 23.5 144s38.167 83.667 67.5 117c30.667 35.333 67.5 62.333 110.5 81s89.167 28 138.5 28c36.667 0 71.334 -5 104.001 -15s62.334 -25 89.001 -45
l54 65l84 -66l-62 -74c23.333 -32 40.833 -67.833 52.5 -107.5s17.5 -82.167 17.5 -127.5c0 -51.333 -7.66699 -99.166 -23 -143.499s-37.666 -83.166 -66.999 -116.499c-31.333 -36 -68.333 -63.333 -111 -82s-88.667 -28 -138 -28c-34.667 0 -67.834 4.66699 -99.501 14
s-61.167 23 -88.5 41zM366.999 600.998c-58 0 -104.667 -22.167 -140 -66.5s-53 -102.833 -53 -175.5c0 -24 2 -46.667 6 -68s10 -41 18 -59l276 334c-14.667 11.333 -31 20 -49 26s-37.333 9 -58 9zM366.999 116.998c57.333 0 103.667 22.167 139 66.5s53 102.833 53 175.5
c0 22 -1.66699 42.833 -5 62.5s-8.33301 38.167 -15 55.5l-274 -330c14.667 -10 30.667 -17.5 48 -22.5s35.333 -7.5 54 -7.5zM408 757.998h-114l83 153h189z" />
    <glyph glyph-name="oslashacute" unicode="&#x1ff;" horiz-adv-x="570" 
d="M27 263c0 38.667 5.83398 74.668 17.501 108.001s28.834 62.333 51.501 87c23.333 25.333 51.166 44.666 83.499 57.999s67.5 20 105.5 20c24.667 0 48.167 -2.83301 70.5 -8.5s43.166 -14.167 62.499 -25.5l43 53l74 -58l-46 -57c17.333 -24 30.666 -51 39.999 -81
s14 -62 14 -96c0 -38.667 -5.83301 -74.667 -17.5 -108s-28.834 -62.333 -51.501 -87c-23.333 -26 -51.166 -45.667 -83.499 -59s-67.5 -20 -105.5 -20c-24.667 0 -48.167 2.83301 -70.5 8.5s-43.166 14.167 -62.499 25.5l-42 -52l-75 58l46 57c-18 24 -31.5 51 -40.5 81
s-13.5 62 -13.5 96zM285.001 426.001c-38 0 -68 -14.5 -90 -43.5s-33 -68.833 -33 -119.5c0 -12 0.666992 -23.5 2 -34.5s3.33301 -21.833 6 -32.5l174 214c-8 5.33301 -17 9.33301 -27 12s-20.667 4 -32 4zM285.001 99.001c38 0 68 14.667 90 44s33 69.333 33 120
c0 12 -0.666992 23.5 -2 34.5s-3.33301 21.833 -6 32.5l-174 -215c8 -5.33301 17 -9.33301 27 -12s20.667 -4 32 -4zM335.001 573.001h-110l57 145h168z" />
    <glyph glyph-name="Scommaaccent" unicode="&#x218;" horiz-adv-x="596" 
d="M296 -11c-62 0 -121.331 12.9951 -177.998 38.9951s-99 60.333 -127 103l101 98c26 -37.333 57.333 -66.166 94 -86.499s75 -30.5 115 -30.5c39.333 0 70.833 8.33301 94.5 25s35.5 39.667 35.5 69c0 18 -5.16699 32.667 -15.5 44s-27.833 21 -52.5 29
c-6.66699 2 -19 5.16699 -37 9.5l-71 16.5c-40.667 9.33301 -72.334 18.5 -95.001 27.5s-42.334 19.167 -59.001 30.5c-23.333 16.667 -40.666 36.834 -51.999 60.501s-17 51.167 -17 82.5c0 34 7.16699 65.333 21.5 94s34.833 53 61.5 73c24 18 51.833 31.833 83.5 41.5
s65.167 14.5 100.5 14.5c57.333 0 110 -11.333 158 -34s85.667 -53.667 113 -93l-97 -95c-24 33.333 -50.667 58.166 -80 74.499s-62 24.5 -98 24.5c-35.333 0 -63.833 -7.83301 -85.5 -23.5s-32.5 -36.5 -32.5 -62.5c0 -15.333 4.33301 -28.166 13 -38.499
s22.667 -19.166 42 -26.499c8 -2.66699 17.833 -5.5 29.5 -8.5s32.167 -7.83301 61.5 -14.5c51.333 -11.333 88.666 -21.166 111.999 -29.499s43.333 -17.5 60 -27.5c28 -17.333 48.667 -38.666 62 -63.999s20 -55.333 20 -90c0 -35.333 -7.5 -68 -22.5 -98
s-36.833 -55.333 -65.5 -76c-25.333 -18.667 -54.5 -33 -87.5 -43s-68.167 -15 -105.5 -15zM286.002 -119.005h-52v85h140v-57c0 -37.333 -12.333 -66 -37 -86s-59 -30 -103 -30v56c16.667 0 29 2.5 37 7.5s13 13.167 15 24.5z" />
    <glyph glyph-name="scommaaccent" unicode="&#x219;" horiz-adv-x="501" 
d="M249 -11c-50.667 0 -98.1641 9.00098 -142.497 27.001s-77.833 42.333 -100.5 73l87 89c18 -24 41.5 -43.333 70.5 -58s58.5 -22 88.5 -22c27.333 0 48.833 4.83301 64.5 14.5s23.5 22.834 23.5 39.501c0 12 -3.66699 21.5 -11 28.5s-20.333 12.833 -39 17.5
c-4.66699 1.33301 -10.334 2.66602 -17.001 3.99902l-56 11c-34 6.66699 -59.833 13.167 -77.5 19.5s-32.834 13.5 -45.501 21.5c-18.667 12 -32.667 27.167 -42 45.5s-14 40.166 -14 65.499c0 50.667 20 91.834 60 123.501s91.667 47.5 155 47.5
c44.667 0 86.667 -8.33301 126 -25s69.666 -38.667 90.999 -66l-80 -88c-17.333 22.667 -38.333 40 -63 52s-50.667 18 -78 18c-22 0 -39.667 -4.33301 -53 -13s-20 -20.334 -20 -35.001c0 -10 3 -18 9 -24s16 -11 30 -15c5.33301 -2 11.5 -3.83301 18.5 -5.5
s21.167 -4.5 42.5 -8.5c40.667 -8.66699 70 -16 88 -22s33.667 -12.667 47 -20c22 -12.667 38.5 -28.667 49.5 -48s16.5 -42.333 16.5 -69c0 -52.667 -21.5 -95.5 -64.5 -128.5s-97.5 -49.5 -163.5 -49.5zM234.003 -118.999h-52v85h140v-57c0 -37.333 -12.333 -66 -37 -86
s-59 -30 -103 -30v56c16.667 0 29 2.5 37 7.5s13 13.167 15 24.5z" />
    <glyph glyph-name="uni021A" unicode="&#x21a;" horiz-adv-x="628" 
d="M613 718v-127h-225v-591h-147v591h-226v127h598zM296 -119h-52v85h140v-57c0 -37.333 -12.333 -66 -37 -86s-59 -30 -103 -30v56c16.667 0 29 2.5 37 7.5s13 13.167 15 24.5z" />
    <glyph glyph-name="uni021B" unicode="&#x21b;" horiz-adv-x="350" 
d="M234 -6c-57.333 0 -98.667 11.335 -124 34.002s-38 59 -38 109v272h-70v117h70v150h138v-150h107v-117h-107v-243c0 -18.667 4.5 -31.834 13.5 -39.501s26.5 -11.5 52.5 -11.5c8 0 15 0.166992 21 0.5s15 1.16602 27 2.49902v-116
c-13.333 -2.66699 -27.5 -4.66699 -42.5 -6s-30.833 -2 -47.5 -2zM188.999 -118.998h-52v85h140v-57c0 -37.333 -12.333 -66 -37 -86s-59 -30 -103 -30v56c16.667 0 29 2.5 37 7.5s13 13.167 15 24.5z" />
    <glyph glyph-name="uni0237" unicode="&#x237;" horiz-adv-x="255" 
d="M-4 -69c22.667 0 38.667 4.5 48 13.5s14 23.5 14 43.5v538h140v-554c0 -50 -15 -88.333 -45 -115s-72.333 -40 -127 -40c-14 0 -25.833 0.333008 -35.5 1s-19.167 1.66699 -28.5 3v112c11.333 -1.33301 18.833 -2 22.5 -2h11.5z" />
    <glyph glyph-name="circumflex" unicode="&#x2c6;" 
d="M229 718h142l100 -145h-105l-66 57l-66 -57h-105z" />
    <glyph glyph-name="caron" unicode="&#x2c7;" 
d="M471 718l-100 -145h-142l-100 145h105l66 -57l66 57h105z" />
    <glyph glyph-name="breve" unicode="&#x2d8;" 
d="M300 662c16.667 0 30.332 5.16699 40.999 15.5s16 23.833 16 40.5h96c0 -46 -13.5 -82.167 -40.5 -108.5s-64.5 -39.5 -112.5 -39.5s-85.5 13.167 -112.5 39.5s-40.5 62.5 -40.5 108.5h96c0 -16.667 5.33301 -30.167 16 -40.5s24.334 -15.5 41.001 -15.5z" />
    <glyph glyph-name="dotaccent" unicode="&#x2d9;" 
d="M372 588h-144v130h144v-130z" />
    <glyph glyph-name="ring" unicode="&#x2da;" 
d="M300 561c-32.667 0 -59.834 10.5 -81.501 31.5s-32.5 46.833 -32.5 77.5c0 30 10.833 55.5 32.5 76.5s48.834 31.5 81.501 31.5s59.834 -10.5 81.501 -31.5s32.5 -46.5 32.5 -76.5c0 -30.667 -10.833 -56.5 -32.5 -77.5s-48.834 -31.5 -81.501 -31.5zM300 715
c-12 0 -22.333 -4.5 -31 -13.5s-13 -19.5 -13 -31.5c0 -12.667 4.16699 -23.334 12.5 -32.001s18.833 -13 31.5 -13s23.167 4.33301 31.5 13s12.5 19.334 12.5 32.001c0 12 -4.33301 22.5 -13 31.5s-19 13.5 -31 13.5z" />
    <glyph glyph-name="ogonek" unicode="&#x2db;" 
d="M317 -184c-29.333 0 -53.667 8.33203 -73 24.999s-29 38 -29 64c0 27.333 9.5 52.5 28.5 75.5s50.833 46.5 95.5 70.5l35 -48c-24 -16 -40.833 -29.667 -50.5 -41s-14.5 -22 -14.5 -32c0 -9.33301 3.16699 -16.666 9.5 -21.999s14.833 -8 25.5 -8
c6.66699 0 12.834 0.5 18.501 1.5s12.5 2.5 20.5 4.5v-82c-12 -2.66699 -22.833 -4.66699 -32.5 -6s-20.834 -2 -33.501 -2z" />
    <glyph glyph-name="tilde" unicode="&#x2dc;" 
d="M237 726c10.667 0 21 -2 31 -6s23 -12 39 -24c11.333 -8.66699 19.833 -14.334 25.5 -17.001s10.834 -4 15.501 -4c10 0 17.833 3.83301 23.5 11.5s10.167 20.834 13.5 39.501h86c-2 -47.333 -12.667 -84.666 -32 -111.999s-45 -41 -77 -41c-10.667 0 -21 2 -31 6
s-23 12 -39 24c-11.333 8.66699 -19.833 14.334 -25.5 17.001s-10.834 4 -15.501 4c-10 0 -17.833 -3.83301 -23.5 -11.5s-10.167 -20.834 -13.5 -39.501h-86c2 47.333 12.667 84.666 32 111.999s45 41 77 41z" />
    <glyph glyph-name="hungarumlaut" unicode="&#x2dd;" 
d="M385 573h-101l59 145h149zM202 573h-100l58 145h150z" />
    <glyph glyph-name="gravecmb" unicode="&#x300;" horiz-adv-x="0" 
d="M55 718l57 -145h-110l-115 145h168z" />
    <glyph glyph-name="acutecmb" unicode="&#x301;" horiz-adv-x="0" 
d="M-2 573h-110l57 145h168z" />
    <glyph glyph-name="uni0302" unicode="&#x302;" horiz-adv-x="0" 
d="M-71 718h142l100 -145h-105l-66 57l-66 -57h-105z" />
    <glyph glyph-name="tildecmb" unicode="&#x303;" horiz-adv-x="0" 
d="M-63 726c10.667 0 21 -2 31 -6s23 -12 39 -24c11.333 -8.66699 19.833 -14.334 25.5 -17.001s10.834 -4 15.501 -4c10 0 17.833 3.83301 23.5 11.5s10.167 20.834 13.5 39.501h86c-2 -47.333 -12.667 -84.666 -32 -111.999s-45 -41 -77 -41c-10.667 0 -21 2 -31 6
s-23 12 -39 24c-11.333 8.66699 -19.833 14.334 -25.5 17.001s-10.834 4 -15.501 4c-10 0 -17.833 -3.83301 -23.5 -11.5s-10.167 -20.834 -13.5 -39.501h-86c2 47.333 12.667 84.666 32 111.999s45 41 77 41z" />
    <glyph glyph-name="uni0304" unicode="&#x304;" 
d="M453 696v-106h-306v106h306z" />
    <glyph glyph-name="uni0306" unicode="&#x306;" horiz-adv-x="0" 
d="M0 662c16.667 0 30.332 5.16699 40.999 15.5s16 23.833 16 40.5h96c0 -46 -13.5 -82.167 -40.5 -108.5s-64.5 -39.5 -112.5 -39.5s-85.5 13.167 -112.5 39.5s-40.5 62.5 -40.5 108.5h96c0 -16.667 5.33301 -30.167 16 -40.5s24.334 -15.5 41.001 -15.5z" />
    <glyph glyph-name="uni0307" unicode="&#x307;" horiz-adv-x="0" 
d="M72 588h-144v130h144v-130z" />
    <glyph glyph-name="uni0308" unicode="&#x308;" horiz-adv-x="0" 
d="M-26 588h-142v130h142v-130zM168 588h-142v130h142v-130z" />
    <glyph glyph-name="uni030A" unicode="&#x30a;" horiz-adv-x="0" 
d="M0 561c-32.667 0 -59.834 10.5 -81.501 31.5s-32.5 46.833 -32.5 77.5c0 30 10.833 55.5 32.5 76.5s48.834 31.5 81.501 31.5s59.834 -10.5 81.501 -31.5s32.5 -46.5 32.5 -76.5c0 -30.667 -10.833 -56.5 -32.5 -77.5s-48.834 -31.5 -81.501 -31.5zM0 715
c-12 0 -22.333 -4.5 -31 -13.5s-13 -19.5 -13 -31.5c0 -12.667 4.16699 -23.334 12.5 -32.001s18.833 -13 31.5 -13s23.167 4.33301 31.5 13s12.5 19.334 12.5 32.001c0 12 -4.33301 22.5 -13 31.5s-19 13.5 -31 13.5z" />
    <glyph glyph-name="uni030B" unicode="&#x30b;" horiz-adv-x="0" 
d="M88 573h-101l59 145h149zM-95 573h-100l58 145h150z" />
    <glyph glyph-name="uni030C" unicode="&#x30c;" horiz-adv-x="0" 
d="M171 718l-100 -145h-142l-100 145h105l66 -57l66 57h105z" />
    <glyph glyph-name="uni0315" unicode="&#x315;" horiz-adv-x="0" 
d="M10 552h-95l17 166h153z" />
    <glyph glyph-name="uni0327" unicode="&#x327;" horiz-adv-x="0" 
d="M114 -99c0 -26 -11.5 -47.332 -34.5 -63.999s-52.167 -25 -87.5 -25c-22 0 -42.167 3 -60.5 9s-33.5 15 -45.5 27l43 63c6.66699 -8.66699 14.667 -15.334 24 -20.001s19.333 -7 30 -7c11.333 0 20.333 2.16699 27 6.5s10 10.166 10 17.499
c0 8.66699 -5.5 15.334 -16.5 20.001s-28.5 7.66699 -52.5 9l23 75h67l-10 -32c26 -3.33301 46.333 -11.833 61 -25.5s22 -31.5 22 -53.5z" />
    <glyph glyph-name="uni0328" unicode="&#x328;" horiz-adv-x="0" 
d="M18 -184c-29.333 0 -53.667 8.33203 -73 24.999s-29 38 -29 64c0 27.333 9.5 52.5 28.5 75.5s50.833 46.5 95.5 70.5l35 -48c-24 -16 -40.833 -29.667 -50.5 -41s-14.5 -22 -14.5 -32c0 -9.33301 3.16699 -16.666 9.5 -21.999s14.833 -8 25.5 -8
c6.66699 0 12.834 0.5 18.501 1.5s12.5 2.5 20.5 4.5v-82c-12 -2.66699 -22.833 -4.66699 -32.5 -6s-20.834 -2 -33.501 -2z" />
    <glyph glyph-name="Wgrave" unicode="&#x1e80;" horiz-adv-x="943" 
d="M286 220l124 498h127l124 -498l126 498h148l-192 -718h-144l-127 483l-127 -483h-144l-193 718h153zM450 911l83 -153h-114l-158 153h189z" />
    <glyph glyph-name="wgrave" unicode="&#x1e81;" horiz-adv-x="740" 
d="M232 197l86 329h109l87 -329l88 329h137l-159 -526h-121l-89 318l-89 -318h-121l-159 526h142zM369 718l57 -145h-110l-115 145h168z" />
    <glyph glyph-name="Wacute" unicode="&#x1e82;" horiz-adv-x="943" 
d="M286 220l124 498h127l124 -498l126 498h148l-192 -718h-144l-127 483l-127 -483h-144l-193 718h153zM525 758h-114l83 153h189z" />
    <glyph glyph-name="wacute" unicode="&#x1e83;" horiz-adv-x="740" 
d="M232 197l86 329h109l87 -329l88 329h137l-159 -526h-121l-89 318l-89 -318h-121l-159 526h142zM439 573h-110l57 145h168z" />
    <glyph glyph-name="Wdieresis" unicode="&#x1e84;" horiz-adv-x="943" 
d="M286 220l124 498h127l124 -498l126 498h148l-192 -718h-144l-127 483l-127 -483h-144l-193 718h153zM442 758h-142v133h142v-133zM644 758h-142v133h142v-133z" />
    <glyph glyph-name="wdieresis" unicode="&#x1e85;" horiz-adv-x="740" 
d="M232 197l86 329h109l87 -329l88 329h137l-159 -526h-121l-89 318l-89 -318h-121l-159 526h142zM349 588h-142v130h142v-130zM543 588h-142v130h142v-130z" />
    <glyph glyph-name="Ygrave" unicode="&#x1ef2;" horiz-adv-x="662" 
d="M158 718l175 -291l175 291h156l-259 -426v-292h-147v292l-260 426h160zM330 911l83 -153h-114l-158 153h189z" />
    <glyph glyph-name="ygrave" unicode="&#x1ef3;" horiz-adv-x="523" 
d="M522 526l-208 -555.998c-20.667 -56 -46.334 -95.5 -77.001 -118.5s-71 -34.5 -121 -34.5c-10.667 0 -19.5 0.166992 -26.5 0.5s-16.5 1.16602 -28.5 2.49902v113c10 -0.666992 18.333 -1.16699 25 -1.5s11.667 -0.5 15 -0.5c20 0 35.333 3.66699 46 11
s19.334 19.666 26.001 36.999l17 42l-189 505h145l119 -346l116 346h141zM276 718.002l57 -145h-110l-115 145h168z" />
    <glyph glyph-name="uni2009" unicode="&#x2009;" horiz-adv-x="100" 
 />
    <glyph glyph-name="endash" unicode="&#x2013;" horiz-adv-x="542" 
d="M502 235h-462v114h462v-114z" />
    <glyph glyph-name="emdash" unicode="&#x2014;" horiz-adv-x="976" 
d="M936 235h-896v114h896v-114z" />
    <glyph glyph-name="quoteleft" unicode="&#x2018;" horiz-adv-x="208" 
d="M117 572l68.999 -0.000976562v-155h-164v157c0 44 14.833 78.833 44.5 104.5s69.5 38.834 119.5 39.501v-74c-23.333 -2 -40.666 -8 -51.999 -18s-17 -24.667 -17 -44v-10z" />
    <glyph glyph-name="quoteright" unicode="&#x2019;" horiz-adv-x="208" 
d="M91 563l-68.999 0.000976562v155h164v-157c0 -44 -14.833 -78.833 -44.5 -104.5s-69.5 -38.834 -119.5 -39.501v74c23.333 2 40.666 8 51.999 18s17 24.667 17 44v10z" />
    <glyph glyph-name="quotesinglbase" unicode="&#x201a;" horiz-adv-x="208" 
d="M91 11l-68.999 0.000976562v155h164v-157c0 -44 -14.833 -78.833 -44.5 -104.5s-69.5 -38.834 -119.5 -39.501v74c23.333 2 40.666 8 51.999 18s17 24.667 17 44v10z" />
    <glyph glyph-name="quotedblleft" unicode="&#x201c;" horiz-adv-x="423" 
d="M117 572l68.999 -0.000976562v-155h-164v157c0 44 14.833 78.833 44.5 104.5s69.5 38.834 119.5 39.501v-74c-23.333 -2 -40.666 -8 -51.999 -18s-17 -24.667 -17 -44v-10zM332.999 571.999l68.999 -0.000976562v-155h-164v157c0 44 14.833 78.833 44.5 104.5
s69.5 38.834 119.5 39.501v-74c-23.333 -2 -40.666 -8 -51.999 -18s-17 -24.667 -17 -44v-10z" />
    <glyph glyph-name="quotedblright" unicode="&#x201d;" horiz-adv-x="423" 
d="M306 563l-68.999 0.000976562v155h164v-157c0 -44 -14.833 -78.833 -44.5 -104.5s-69.5 -38.834 -119.5 -39.501v74c23.333 2 40.666 8 51.999 18s17 24.667 17 44v10zM90.001 563.001l-68.999 0.000976562v155h164v-157c0 -44 -14.833 -78.833 -44.5 -104.5
s-69.5 -38.834 -119.5 -39.501v74c23.333 2 40.666 8 51.999 18s17 24.667 17 44v10z" />
    <glyph glyph-name="quotedblbase" unicode="&#x201e;" horiz-adv-x="423" 
d="M306 11l-68.999 0.000976562v155h164v-157c0 -44 -14.833 -78.833 -44.5 -104.5s-69.5 -38.834 -119.5 -39.501v74c23.333 2 40.666 8 51.999 18s17 24.667 17 44v10zM90.001 11.001l-68.999 0.000976562v155h164v-157c0 -44 -14.833 -78.833 -44.5 -104.5
s-69.5 -38.834 -119.5 -39.501v74c23.333 2 40.666 8 51.999 18s17 24.667 17 44v10z" />
    <glyph glyph-name="dagger" unicode="&#x2020;" horiz-adv-x="405" 
d="M255 282h-105v227h-130v105h130v124h105v-124h130v-105h-130v-227z" />
    <glyph glyph-name="daggerdbl" unicode="&#x2021;" horiz-adv-x="405" 
d="M256 282h-107v89h-129v98h129v82h-129v99h129v88h107v-88h129v-99h-129v-82h129v-98h-129v-89z" />
    <glyph glyph-name="bullet" unicode="&#x2022;" horiz-adv-x="434" 
d="M37 291c0 52 17.167 95.167 51.5 129.5s77.5 51.5 129.5 51.5c51.333 0 94 -17.167 128 -51.5s51 -77.5 51 -129.5c0 -51.333 -17.167 -94 -51.5 -128s-76.833 -51 -127.5 -51c-51.333 0 -94.333 17 -129 51s-52 76.667 -52 128z" />
    <glyph glyph-name="ellipsis" unicode="&#x2026;" horiz-adv-x="695" 
d="M202 0h-164v162h164v-162zM430 0h-164v162h164v-162zM657 0h-164v162h164v-162z" />
    <glyph glyph-name="guilsinglleft" unicode="&#x2039;" horiz-adv-x="224" 
d="M203 59l-181 136v130l181 136v-135l-76 -66l76 -66v-135z" />
    <glyph glyph-name="guilsinglright" unicode="&#x203a;" horiz-adv-x="224" 
d="M202 325v-130l-181 -136v135l76 66l-76 66v135z" />
    <glyph glyph-name="fraction" unicode="&#x2044;" horiz-adv-x="187" 
d="M-213 0l503 718h110l-502 -718h-111z" />
    <glyph glyph-name="uni2070" unicode="&#x2070;" horiz-adv-x="380" 
d="M189 314c-48 0 -85.833 18.333 -113.5 55s-41.5 86.667 -41.5 150s13.833 113.333 41.5 150s65.5 55 113.5 55s86 -18.5 114 -55.5s42 -86.833 42 -149.5s-14 -112.5 -42 -149.5s-66 -55.5 -114 -55.5zM189 630c-15.333 0 -27.333 -9.66797 -36 -29.001
s-13 -46.666 -13 -81.999c0 -36 4.16699 -63.5 12.5 -82.5s20.5 -28.5 36.5 -28.5s28.333 9.5 37 28.5s13 46.5 13 82.5s-4.33301 63.5 -13 82.5s-21 28.5 -37 28.5z" />
    <glyph glyph-name="uni2074" unicode="&#x2074;" horiz-adv-x="380" 
d="M303 406v-86h-99v86h-180v78l145 234h134v-228h53v-84h-53zM202 635l-93 -145h93v145z" />
    <glyph glyph-name="uni2075" unicode="&#x2075;" horiz-adv-x="380" 
d="M192 505c-8 0 -15.1689 -1.83398 -21.502 -5.50098s-12.166 -9.5 -17.499 -17.5l-100 12l18 224h240v-90h-160l-6 -73c11.333 8.66699 23.5 15.334 36.5 20.001s26.167 7 39.5 7c36.667 0 66 -11.667 88 -35s33 -54 33 -92c0 -40.667 -14.5 -74.334 -43.5 -101.001
s-65.5 -40 -109.5 -40c-43.333 0 -79.166 11 -107.499 33s-44.833 52 -49.5 90l108 17c0.666992 -15.333 5.5 -27.333 14.5 -36s20.5 -13 34.5 -13s25.667 4.66699 35 14s14 21 14 35c0 14.667 -4.33301 26.834 -13 36.501s-19.667 14.5 -33 14.5z" />
    <glyph glyph-name="uni2076" unicode="&#x2076;" horiz-adv-x="380" 
d="M208 724c34.667 0 63.668 -8 87.001 -24s40.666 -39 51.999 -69l-87 -34c-4 12.667 -10.5 22.5 -19.5 29.5s-20.167 10.5 -33.5 10.5c-19.333 0 -35 -7.33301 -47 -22s-18 -34.334 -18 -59.001v-10.5c0 -2.33301 0.333008 -4.5 1 -6.5c4.66699 12 14 21.667 28 29
s30 11 48 11c36.667 0 67 -11.667 91 -35s36 -52.666 36 -87.999c0 -42 -13.833 -76.167 -41.5 -102.5s-63.5 -39.5 -107.5 -39.5c-49.333 0 -88.5 18 -117.5 54s-43.5 83.333 -43.5 142c0 63.333 15.833 114.833 47.5 154.5s73.167 59.5 124.5 59.5zM196.001 397
c14 0 26.001 5.16797 36.001 15.501s15 23.166 15 38.499c0 16 -4.83301 29 -14.5 39s-21.834 15 -36.501 15c-15.333 0 -27.833 -5 -37.5 -15s-14.5 -23 -14.5 -39s4.83301 -29 14.5 -39s22.167 -15 37.5 -15z" />
    <glyph glyph-name="uni2077" unicode="&#x2077;" horiz-adv-x="380" 
d="M236 629l-107 -0.00195312v-52h-89v141h304v-90c-21.333 -22 -39 -44.5 -53 -67.5s-25 -47.833 -33 -74.5c-6 -21.333 -10.333 -44.666 -13 -69.999s-4 -57.333 -4 -96h-117c0 64 9.16699 121.333 27.5 172s46.5 96.334 84.5 137.001z" />
    <glyph glyph-name="uni2078" unicode="&#x2078;" horiz-adv-x="380" 
d="M51 606c0 35.333 13 63.832 39 85.499s59 32.5 99 32.5s73.167 -10.833 99.5 -32.5s39.5 -50.167 39.5 -85.5c0 -17.333 -4.33301 -33 -13 -47s-21 -25.333 -37 -34c20.667 -8 37.167 -20.333 49.5 -37s18.5 -35.334 18.5 -56.001c0 -34.667 -14.833 -63 -44.5 -85
s-67.167 -33 -112.5 -33s-82.833 11 -112.5 33s-44.5 50.333 -44.5 85c0 20.667 6.16699 39.334 18.5 56.001s28.833 29 49.5 37c-16 8.66699 -28.167 19.834 -36.5 33.501s-12.5 29.5 -12.5 47.5zM143 603.999c0 -12.667 4.16699 -22.834 12.5 -30.501
s19.5 -11.5 33.5 -11.5s25.167 3.83301 33.5 11.5s12.5 17.834 12.5 30.501c0 12 -4.16699 21.833 -12.5 29.5s-19.5 11.5 -33.5 11.5c-13.333 0 -24.333 -3.83301 -33 -11.5s-13 -17.5 -13 -29.5zM242 440.999c0 14 -5 25.333 -15 34s-22.667 13 -38 13
s-28 -4.33301 -38 -13s-15 -20 -15 -34c0 -13.333 5 -24.333 15 -33s22.667 -13 38 -13s28 4.33301 38 13s15 19.667 15 33z" />
    <glyph glyph-name="uni2079" unicode="&#x2079;" horiz-adv-x="380" 
d="M171 314c-34.667 0 -63.668 8 -87.001 24s-40.666 39 -51.999 69l87 34c4 -12.667 10.5 -22.5 19.5 -29.5s20.167 -10.5 33.5 -10.5c19.333 0 35 7.33301 47 22s18 34.334 18 59.001v10.5c0 2.33301 -0.333008 4.5 -1 6.5c-4.66699 -12 -14 -21.667 -28 -29
s-30 -11 -48 -11c-36.667 0 -67 11.667 -91 35s-36 52.666 -36 87.999c0 42 13.833 76.167 41.5 102.5s63.5 39.5 107.5 39.5c49.333 0 88.5 -18 117.5 -54s43.5 -83.333 43.5 -142c0 -63.333 -15.833 -114.833 -47.5 -154.5s-73.167 -59.5 -124.5 -59.5zM182.999 641
c-14 0 -26.001 -5.16797 -36.001 -15.501s-15 -23.166 -15 -38.499c0 -16 4.83301 -29 14.5 -39s21.834 -15 36.501 -15c15.333 0 27.833 5 37.5 15s14.5 23 14.5 39s-4.83301 29 -14.5 39s-22.167 15 -37.5 15z" />
    <glyph glyph-name="uni2080" unicode="&#x2080;" horiz-adv-x="380" 
d="M189 -126c-48 0 -85.833 18.333 -113.5 55s-41.5 86.667 -41.5 150s13.833 113.333 41.5 150s65.5 55 113.5 55s86 -18.5 114 -55.5s42 -86.833 42 -149.5s-14 -112.5 -42 -149.5s-66 -55.5 -114 -55.5zM189 190c-15.333 0 -27.333 -9.66797 -36 -29.001
s-13 -46.666 -13 -81.999c0 -36 4.16699 -63.5 12.5 -82.5s20.5 -28.5 36.5 -28.5s28.333 9.5 37 28.5s13 46.5 13 82.5s-4.33301 63.5 -13 82.5s-21 28.5 -37 28.5z" />
    <glyph glyph-name="uni2081" unicode="&#x2081;" horiz-adv-x="380" 
d="M149 -26l-0.00195312 167h-92v72l36 3c24.667 1.33301 43.334 6.83301 56.001 16.5s21.334 25.167 26.001 46.5h83v-305h74v-94h-271v94h88z" />
    <glyph glyph-name="uni2082" unicode="&#x2082;" horiz-adv-x="380" 
d="M41 -120v83.998l134 105c18.667 13.333 32 26 40 38s12 24.667 12 38s-3.83301 24 -11.5 32s-18.167 12 -31.5 12s-24 -4.33301 -32 -13s-12 -20 -12 -34c0 -7.33301 0.666992 -14.166 2 -20.499s3 -11.5 5 -15.5h-102c-2.66699 6 -4.5 12.333 -5.5 19
s-1.5 14.334 -1.5 23.001c0 39.333 14.333 71.833 43 97.5s64 38.5 106 38.5c44.667 0 80.167 -11.833 106.5 -35.5s39.5 -55.167 39.5 -94.5c0 -24.667 -6.83301 -48 -20.5 -70s-35.167 -44 -64.5 -66l-58 -44h149v-94h-298z" />
    <glyph glyph-name="uni2083" unicode="&#x2083;" horiz-adv-x="380" 
d="M341 -7c0 -34.667 -13.666 -63.166 -40.999 -85.499s-63 -33.5 -107 -33.5c-44.667 0 -81.167 11 -109.5 33s-44.833 52.667 -49.5 92l108 15c1.33301 -14.667 6.66602 -26.5 15.999 -35.5s20.666 -13.5 33.999 -13.5c14 0 25.167 3.66699 33.5 11s12.5 17.333 12.5 30
c0 11.333 -4.66699 20.5 -14 27.5s-21.333 10.5 -36 10.5h-37v75h34c14 0 25.333 3.33301 34 10s13 15.667 13 27s-3.66699 20.333 -11 27s-17 10 -29 10c-12.667 0 -23.5 -4.33301 -32.5 -13s-14.5 -19.667 -16.5 -33l-102 8c4 38 20.167 69 48.5 93s63.833 36 106.5 36
c42 0 76.167 -11 102.5 -33s39.5 -50.333 39.5 -85c0 -18.667 -5.66699 -35.834 -17 -51.501s-25.666 -26.167 -42.999 -31.5c20 -7.33301 35.5 -18.833 46.5 -34.5s16.5 -34.167 16.5 -55.5z" />
    <glyph glyph-name="uni2084" unicode="&#x2084;" horiz-adv-x="380" 
d="M303 -34v-86h-99v86h-180v78l145 234h134v-228h53v-84h-53zM202 195l-93 -145h93v145z" />
    <glyph glyph-name="uni2085" unicode="&#x2085;" horiz-adv-x="380" 
d="M192 65c-8 0 -15.1689 -1.83398 -21.502 -5.50098s-12.166 -9.5 -17.499 -17.5l-100 12l18 224h240v-90h-160l-6 -73c11.333 8.66699 23.5 15.334 36.5 20.001s26.167 7 39.5 7c36.667 0 66 -11.667 88 -35s33 -54 33 -92c0 -40.667 -14.5 -74.334 -43.5 -101.001
s-65.5 -40 -109.5 -40c-43.333 0 -79.166 11 -107.499 33s-44.833 52 -49.5 90l108 17c0.666992 -15.333 5.5 -27.333 14.5 -36s20.5 -13 34.5 -13s25.667 4.66699 35 14s14 21 14 35c0 14.667 -4.33301 26.834 -13 36.501s-19.667 14.5 -33 14.5z" />
    <glyph glyph-name="uni2086" unicode="&#x2086;" horiz-adv-x="380" 
d="M208 284c34.667 0 63.668 -8 87.001 -24s40.666 -39 51.999 -69l-87 -34c-4 12.667 -10.5 22.5 -19.5 29.5s-20.167 10.5 -33.5 10.5c-19.333 0 -35 -7.33301 -47 -22s-18 -34.334 -18 -59.001v-10.5c0 -2.33301 0.333008 -4.5 1 -6.5c4.66699 12 14 21.667 28 29
s30 11 48 11c36.667 0 67 -11.667 91 -35s36 -52.666 36 -87.999c0 -42 -13.833 -76.167 -41.5 -102.5s-63.5 -39.5 -107.5 -39.5c-49.333 0 -88.5 18 -117.5 54s-43.5 83.333 -43.5 142c0 63.333 15.833 114.833 47.5 154.5s73.167 59.5 124.5 59.5zM196.001 -43
c14 0 26.001 5.16797 36.001 15.501s15 23.166 15 38.499c0 16 -4.83301 29 -14.5 39s-21.834 15 -36.501 15c-15.333 0 -27.833 -5 -37.5 -15s-14.5 -23 -14.5 -39s4.83301 -29 14.5 -39s22.167 -15 37.5 -15z" />
    <glyph glyph-name="uni2087" unicode="&#x2087;" horiz-adv-x="380" 
d="M236 189l-107 -0.00195312v-52h-89v141h304v-90c-21.333 -22 -39 -44.5 -53 -67.5s-25 -47.833 -33 -74.5c-6 -21.333 -10.333 -44.666 -13 -69.999s-4 -57.333 -4 -96h-117c0 64 9.16699 121.333 27.5 172s46.5 96.334 84.5 137.001z" />
    <glyph glyph-name="uni2088" unicode="&#x2088;" horiz-adv-x="380" 
d="M51 166c0 35.333 13 63.832 39 85.499s59 32.5 99 32.5s73.167 -10.833 99.5 -32.5s39.5 -50.167 39.5 -85.5c0 -17.333 -4.33301 -33 -13 -47s-21 -25.333 -37 -34c20.667 -8 37.167 -20.333 49.5 -37s18.5 -35.334 18.5 -56.001c0 -34.667 -14.833 -63 -44.5 -85
s-67.167 -33 -112.5 -33s-82.833 11 -112.5 33s-44.5 50.333 -44.5 85c0 20.667 6.16699 39.334 18.5 56.001s28.833 29 49.5 37c-16 8.66699 -28.167 19.834 -36.5 33.501s-12.5 29.5 -12.5 47.5zM143 163.999c0 -12.667 4.16699 -22.834 12.5 -30.501
s19.5 -11.5 33.5 -11.5s25.167 3.83301 33.5 11.5s12.5 17.834 12.5 30.501c0 12 -4.16699 21.833 -12.5 29.5s-19.5 11.5 -33.5 11.5c-13.333 0 -24.333 -3.83301 -33 -11.5s-13 -17.5 -13 -29.5zM242 0.999023c0 14 -5 25.333 -15 34s-22.667 13 -38 13
s-28 -4.33301 -38 -13s-15 -20 -15 -34c0 -13.333 5 -24.333 15 -33s22.667 -13 38 -13s28 4.33301 38 13s15 19.667 15 33z" />
    <glyph glyph-name="uni2089" unicode="&#x2089;" horiz-adv-x="380" 
d="M171 -126c-34.667 0 -63.668 8 -87.001 24s-40.666 39 -51.999 69l87 34c4 -12.667 10.5 -22.5 19.5 -29.5s20.167 -10.5 33.5 -10.5c19.333 0 35 7.33301 47 22s18 34.334 18 59.001v10.5c0 2.33301 -0.333008 4.5 -1 6.5c-4.66699 -12 -14 -21.667 -28 -29
s-30 -11 -48 -11c-36.667 0 -67 11.667 -91 35s-36 52.666 -36 87.999c0 42 13.833 76.167 41.5 102.5s63.5 39.5 107.5 39.5c49.333 0 88.5 -18 117.5 -54s43.5 -83.333 43.5 -142c0 -63.333 -15.833 -114.833 -47.5 -154.5s-73.167 -59.5 -124.5 -59.5zM182.999 201
c-14 0 -26.001 -5.16797 -36.001 -15.501s-15 -23.166 -15 -38.499c0 -16 4.83301 -29 14.5 -39s21.834 -15 36.501 -15c15.333 0 27.833 5 37.5 15s14.5 23 14.5 39s-4.83301 29 -14.5 39s-22.167 15 -37.5 15z" />
    <glyph glyph-name="Euro" unicode="&#x20ac;" horiz-adv-x="650" 
d="M92 236h-74.001v96h62c-0.666992 3.33301 -1 6.83301 -1 10.5v16.5v19.5c0 4.33301 0.333008 8.16602 1 11.499h-62v95h74c18 77.333 51.5 137.333 100.5 180s109.167 64 180.5 64c64 0 118.333 -16.5 163 -49.5s76.667 -79.833 96 -140.5l-131 -48
c-10.667 40 -26.5 69.333 -47.5 88s-48.167 28 -81.5 28s-61.666 -10.5 -84.999 -31.5s-40.333 -51.167 -51 -90.5h190l-20 -95h-185c-0.666992 -3.33301 -1 -7.16602 -1 -11.499v-19.5v-16.5c0 -3.66699 0.333008 -7.16699 1 -10.5h172l-20 -96h-138
c11.333 -40.667 28.666 -71.667 51.999 -93s51.666 -32 84.999 -32s60.5 9.33301 81.5 28s36.833 48 47.5 88l131 -48c-19.333 -60.667 -51.333 -107.5 -96 -140.5s-99 -49.5 -163 -49.5c-71.333 0 -131.666 21.667 -180.999 65s-82.666 104 -99.999 182z" />
    <glyph glyph-name="trademark" unicode="&#x2122;" horiz-adv-x="772" 
d="M223 624v-244h-106v244h-97v94h299v-94h-96zM640 583l-68 -203h-57l-67 203v-203h-91v338h132l56 -187l57 187h130v-338h-92v203z" />
    <glyph glyph-name="uni2153" unicode="&#x2153;" horiz-adv-x="901" 
d="M871 113c0 -34.667 -13.666 -63.166 -40.999 -85.499s-63 -33.5 -107 -33.5c-44.667 0 -81.167 11 -109.5 33s-44.833 52.667 -49.5 92l108 15c1.33301 -14.667 6.66602 -26.5 15.999 -35.5s20.666 -13.5 33.999 -13.5c14 0 25.167 3.66699 33.5 11s12.5 17.333 12.5 30
c0 11.333 -4.66699 20.5 -14 27.5s-21.333 10.5 -36 10.5h-37v75h34c14 0 25.333 3.33301 34 10s13 15.667 13 27s-3.66699 20.333 -11 27s-17 10 -29 10c-12.667 0 -23.5 -4.33301 -32.5 -13s-14.5 -19.667 -16.5 -33l-102 8c4 38 20.167 69 48.5 93s63.833 36 106.5 36
c42 0 76.167 -11 102.5 -33s39.5 -50.333 39.5 -85c0 -18.667 -5.66699 -35.834 -17 -51.501s-25.666 -26.167 -42.999 -31.5c20 -7.33301 35.5 -18.833 46.5 -34.5s16.5 -34.167 16.5 -55.5zM167.001 0.000976562l503 718h110l-502 -718h-111zM149.001 414.001
l-0.00195312 167h-92v72l36 3c24.667 1.33301 43.334 6.83301 56.001 16.5s21.334 25.167 26.001 46.5h83v-305h74v-94h-271v94h88z" />
    <glyph glyph-name="uni2154" unicode="&#x2154;" horiz-adv-x="911" 
d="M881 113c0 -34.667 -13.666 -63.166 -40.999 -85.499s-63 -33.5 -107 -33.5c-44.667 0 -81.167 11 -109.5 33s-44.833 52.667 -49.5 92l108 15c1.33301 -14.667 6.66602 -26.5 15.999 -35.5s20.666 -13.5 33.999 -13.5c14 0 25.167 3.66699 33.5 11s12.5 17.333 12.5 30
c0 11.333 -4.66699 20.5 -14 27.5s-21.333 10.5 -36 10.5h-37v75h34c14 0 25.333 3.33301 34 10s13 15.667 13 27s-3.66699 20.333 -11 27s-17 10 -29 10c-12.667 0 -23.5 -4.33301 -32.5 -13s-14.5 -19.667 -16.5 -33l-102 8c4 38 20.167 69 48.5 93s63.833 36 106.5 36
c42 0 76.167 -11 102.5 -33s39.5 -50.333 39.5 -85c0 -18.667 -5.66699 -35.834 -17 -51.501s-25.666 -26.167 -42.999 -31.5c20 -7.33301 35.5 -18.833 46.5 -34.5s16.5 -34.167 16.5 -55.5zM177.001 0.000976562l503 718h110l-502 -718h-111zM41.001 320.001v83.998
l134 105c18.667 13.333 32 26 40 38s12 24.667 12 38s-3.83301 24 -11.5 32s-18.167 12 -31.5 12s-24 -4.33301 -32 -13s-12 -20 -12 -34c0 -7.33301 0.666992 -14.166 2 -20.499s3 -11.5 5 -15.5h-102c-2.66699 6 -4.5 12.333 -5.5 19s-1.5 14.334 -1.5 23.001
c0 39.333 14.333 71.833 43 97.5s64 38.5 106 38.5c44.667 0 80.167 -11.833 106.5 -35.5s39.5 -55.167 39.5 -94.5c0 -24.667 -6.83301 -48 -20.5 -70s-35.167 -44 -64.5 -66l-58 -44h149v-94h-298z" />
    <glyph glyph-name="uni215B" unicode="&#x215b;" horiz-adv-x="904" 
d="M581 286c0 35.333 13 63.832 39 85.499s59 32.5 99 32.5s73.167 -10.833 99.5 -32.5s39.5 -50.167 39.5 -85.5c0 -17.333 -4.33301 -33 -13 -47s-21 -25.333 -37 -34c20.667 -8 37.167 -20.333 49.5 -37s18.5 -35.334 18.5 -56.001c0 -34.667 -14.833 -63 -44.5 -85
s-67.167 -33 -112.5 -33s-82.833 11 -112.5 33s-44.5 50.333 -44.5 85c0 20.667 6.16699 39.334 18.5 56.001s28.833 29 49.5 37c-16 8.66699 -28.167 19.834 -36.5 33.501s-12.5 29.5 -12.5 47.5zM673 283.999c0 -12.667 4.16699 -22.834 12.5 -30.501
s19.5 -11.5 33.5 -11.5s25.167 3.83301 33.5 11.5s12.5 17.834 12.5 30.501c0 12 -4.16699 21.833 -12.5 29.5s-19.5 11.5 -33.5 11.5c-13.333 0 -24.333 -3.83301 -33 -11.5s-13 -17.5 -13 -29.5zM772 120.999c0 14 -5 25.333 -15 34s-22.667 13 -38 13
s-28 -4.33301 -38 -13s-15 -20 -15 -34c0 -13.333 5 -24.333 15 -33s22.667 -13 38 -13s28 4.33301 38 13s15 19.667 15 33zM167 -0.000976562l503 718h110l-502 -718h-111zM149 413.999l-0.00195312 167h-92v72l36 3c24.667 1.33301 43.334 6.83301 56.001 16.5
s21.334 25.167 26.001 46.5h83v-305h74v-94h-271v94h88z" />
    <glyph glyph-name="uni215C" unicode="&#x215c;" horiz-adv-x="886" 
d="M571 286c0 35.333 13 63.832 39 85.499s59 32.5 99 32.5s73.167 -10.833 99.5 -32.5s39.5 -50.167 39.5 -85.5c0 -17.333 -4.33301 -33 -13 -47s-21 -25.333 -37 -34c20.667 -8 37.167 -20.333 49.5 -37s18.5 -35.334 18.5 -56.001c0 -34.667 -14.833 -63 -44.5 -85
s-67.167 -33 -112.5 -33s-82.833 11 -112.5 33s-44.5 50.333 -44.5 85c0 20.667 6.16699 39.334 18.5 56.001s28.833 29 49.5 37c-16 8.66699 -28.167 19.834 -36.5 33.501s-12.5 29.5 -12.5 47.5zM663 283.999c0 -12.667 4.16699 -22.834 12.5 -30.501
s19.5 -11.5 33.5 -11.5s25.167 3.83301 33.5 11.5s12.5 17.834 12.5 30.501c0 12 -4.16699 21.833 -12.5 29.5s-19.5 11.5 -33.5 11.5c-13.333 0 -24.333 -3.83301 -33 -11.5s-13 -17.5 -13 -29.5zM762 120.999c0 14 -5 25.333 -15 34s-22.667 13 -38 13
s-28 -4.33301 -38 -13s-15 -20 -15 -34c0 -13.333 5 -24.333 15 -33s22.667 -13 38 -13s28 4.33301 38 13s15 19.667 15 33zM155 -0.000976562l503 718h110l-502 -718h-111zM341 432.999c0 -34.667 -13.666 -63.166 -40.999 -85.499s-63 -33.5 -107 -33.5
c-44.667 0 -81.167 11 -109.5 33s-44.833 52.667 -49.5 92l108 15c1.33301 -14.667 6.66602 -26.5 15.999 -35.5s20.666 -13.5 33.999 -13.5c14 0 25.167 3.66699 33.5 11s12.5 17.333 12.5 30c0 11.333 -4.66699 20.5 -14 27.5s-21.333 10.5 -36 10.5h-37v75h34
c14 0 25.333 3.33301 34 10s13 15.667 13 27s-3.66699 20.333 -11 27s-17 10 -29 10c-12.667 0 -23.5 -4.33301 -32.5 -13s-14.5 -19.667 -16.5 -33l-102 8c4 38 20.167 69 48.5 93s63.833 36 106.5 36c42 0 76.167 -11 102.5 -33s39.5 -50.333 39.5 -85
c0 -18.667 -5.66699 -35.834 -17 -51.501s-25.666 -26.167 -42.999 -31.5c20 -7.33301 35.5 -18.833 46.5 -34.5s16.5 -34.167 16.5 -55.5z" />
    <glyph glyph-name="uni215D" unicode="&#x215d;" horiz-adv-x="886" 
d="M563 286c0 35.333 13 63.832 39 85.499s59 32.5 99 32.5s73.167 -10.833 99.5 -32.5s39.5 -50.167 39.5 -85.5c0 -17.333 -4.33301 -33 -13 -47s-21 -25.333 -37 -34c20.667 -8 37.167 -20.333 49.5 -37s18.5 -35.334 18.5 -56.001c0 -34.667 -14.833 -63 -44.5 -85
s-67.167 -33 -112.5 -33s-82.833 11 -112.5 33s-44.5 50.333 -44.5 85c0 20.667 6.16699 39.334 18.5 56.001s28.833 29 49.5 37c-16 8.66699 -28.167 19.834 -36.5 33.501s-12.5 29.5 -12.5 47.5zM655 283.999c0 -12.667 4.16699 -22.834 12.5 -30.501
s19.5 -11.5 33.5 -11.5s25.167 3.83301 33.5 11.5s12.5 17.834 12.5 30.501c0 12 -4.16699 21.833 -12.5 29.5s-19.5 11.5 -33.5 11.5c-13.333 0 -24.333 -3.83301 -33 -11.5s-13 -17.5 -13 -29.5zM754 120.999c0 14 -5 25.333 -15 34s-22.667 13 -38 13
s-28 -4.33301 -38 -13s-15 -20 -15 -34c0 -13.333 5 -24.333 15 -33s22.667 -13 38 -13s28 4.33301 38 13s15 19.667 15 33zM147 -0.000976562l503 718h110l-502 -718h-111zM192 504.999c-8 0 -15.1689 -1.83398 -21.502 -5.50098s-12.166 -9.5 -17.499 -17.5l-100 12
l18 224h240v-90h-160l-6 -73c11.333 8.66699 23.5 15.334 36.5 20.001s26.167 7 39.5 7c36.667 0 66 -11.667 88 -35s33 -54 33 -92c0 -40.667 -14.5 -74.334 -43.5 -101.001s-65.5 -40 -109.5 -40c-43.333 0 -79.166 11 -107.499 33s-44.833 52 -49.5 90l108 17
c0.666992 -15.333 5.5 -27.333 14.5 -36s20.5 -13 34.5 -13s25.667 4.66699 35 14s14 21 14 35c0 14.667 -4.33301 26.834 -13 36.501s-19.667 14.5 -33 14.5z" />
    <glyph glyph-name="uni215E" unicode="&#x215e;" horiz-adv-x="846" 
d="M523 286c0 35.333 13 63.832 39 85.499s59 32.5 99 32.5s73.167 -10.833 99.5 -32.5s39.5 -50.167 39.5 -85.5c0 -17.333 -4.33301 -33 -13 -47s-21 -25.333 -37 -34c20.667 -8 37.167 -20.333 49.5 -37s18.5 -35.334 18.5 -56.001c0 -34.667 -14.833 -63 -44.5 -85
s-67.167 -33 -112.5 -33s-82.833 11 -112.5 33s-44.5 50.333 -44.5 85c0 20.667 6.16699 39.334 18.5 56.001s28.833 29 49.5 37c-16 8.66699 -28.167 19.834 -36.5 33.501s-12.5 29.5 -12.5 47.5zM615 283.999c0 -12.667 4.16699 -22.834 12.5 -30.501
s19.5 -11.5 33.5 -11.5s25.167 3.83301 33.5 11.5s12.5 17.834 12.5 30.501c0 12 -4.16699 21.833 -12.5 29.5s-19.5 11.5 -33.5 11.5c-13.333 0 -24.333 -3.83301 -33 -11.5s-13 -17.5 -13 -29.5zM714 120.999c0 14 -5 25.333 -15 34s-22.667 13 -38 13
s-28 -4.33301 -38 -13s-15 -20 -15 -34c0 -13.333 5 -24.333 15 -33s22.667 -13 38 -13s28 4.33301 38 13s15 19.667 15 33zM107 -0.000976562l503 718h110l-502 -718h-111zM236 628.999l-107 -0.00195312v-52h-89v141h304v-90c-21.333 -22 -39 -44.5 -53 -67.5
s-25 -47.833 -33 -74.5c-6 -21.333 -10.333 -44.666 -13 -69.999s-4 -57.333 -4 -96h-117c0 64 9.16699 121.333 27.5 172s46.5 96.334 84.5 137.001z" />
    <glyph glyph-name="minus" unicode="&#x2212;" horiz-adv-x="608" 
d="M566 286h-524v116h524v-116z" />
    <glyph glyph-name="uniF6C3" unicode="&#xf6c3;" 
d="M281 -119h-52v85h140v-57c0 -37.333 -12.333 -66 -37 -86s-59 -30 -103 -30v56c16.667 0 29 2.5 37 7.5s13 13.167 15 24.5z" />
    <glyph glyph-name="acute.cap" 
d="M266 758h-114l83 153h189z" />
    <glyph glyph-name="breve.cap" 
d="M300 846c20 0 36.5 6.16699 49.5 18.5s19.5 28.5 19.5 48.5h103c0 -48 -15.5 -86.167 -46.5 -114.5s-72.833 -42.5 -125.5 -42.5s-94.5 14.167 -125.5 42.5s-46.5 66.5 -46.5 114.5h103c0 -20 6.5 -36.167 19.5 -48.5s29.5 -18.5 49.5 -18.5z" />
    <glyph glyph-name="circumflex.cap" 
d="M223 911h154l115 -153h-107l-85 68l-85 -68h-107z" />
    <glyph glyph-name="dieresis.cap" 
d="M270 758h-142v133h142v-133zM472 758h-142v133h142v-133z" />
    <glyph glyph-name="grave.cap" 
d="M353 911l83 -153h-114l-158 153h189z" />
    <glyph glyph-name="macron.cap" 
d="M470 876v-110h-340v110h340z" />
    <glyph glyph-name="tilde.cap" 
d="M228 923c12 0 23.833 -2.16602 35.5 -6.49902s26.834 -12.833 45.501 -25.5c13.333 -9.33301 23.166 -15.333 29.499 -18s12.5 -4 18.5 -4c12 0 21.333 4 28 12s12 22 16 42h93c-2.66699 -50.667 -15 -90.667 -37 -120s-50.667 -44 -86 -44
c-12 0 -23.667 2.16699 -35 6.5s-26.333 12.833 -45 25.5c-13.333 9.33301 -23.333 15.333 -30 18s-13 4 -19 4c-12 0 -21.333 -4.33301 -28 -13s-11.667 -22.334 -15 -41.001h-93c2 50 14 89.833 36 119.5s50.667 44.5 86 44.5z" />
    <glyph glyph-name="caron.cap" 
d="M492 911l-115 -153h-154l-115 153h107l85 -68l85 68h107z" />
    <glyph glyph-name="dotaccent.cap" 
d="M373 758h-146v133h146v-133z" />
    <glyph glyph-name="caron.Slovak" 
d="M305 552h-95l17 166h153z" />
    <glyph glyph-name="hungarumlaut.cap" 
d="M401 760h-109l81 153h158zM194 760h-109l81 153h158z" />
    <glyph glyph-name="ring.cap" 
d="M300 756c-38.667 0 -70.834 12.5 -96.501 37.5s-38.5 55.833 -38.5 92.5c0 36 12.833 66.333 38.5 91s57.834 37 96.501 37s70.834 -12.333 96.501 -37s38.5 -55 38.5 -91c0 -36.667 -12.833 -67.5 -38.5 -92.5s-57.834 -37.5 -96.501 -37.5zM300 938
c-14.667 0 -26.8301 -4.83301 -36.4971 -14.5s-14.5 -22.167 -14.5 -37.5c0 -16 4.66699 -28.667 14 -38s21.666 -14 36.999 -14s27.666 4.66699 36.999 14s14 22 14 38c0 15.333 -4.83301 27.833 -14.5 37.5s-21.834 14.5 -36.501 14.5z" />
    <glyph glyph-name="a.1" horiz-adv-x="537" 
d="M483 380l-0.000976562 -250.998c0 -26 0.666992 -49.667 2 -71s3.33301 -40.666 6 -57.999h-135c-0.666992 10 -1.16699 18.167 -1.5 24.5s-0.5 12.166 -0.5 17.499c-17.333 -16.667 -38.666 -29.334 -63.999 -38.001s-53.666 -13 -84.999 -13
c-52.667 0 -95.834 14.5 -129.501 43.5s-50.5 66.167 -50.5 111.5s15.5 81.833 46.5 109.5s78.833 47.167 143.5 58.5l131 25v23c0 20 -6.33301 34.833 -19 44.5s-32.334 14.5 -59.001 14.5c-27.333 0 -47.833 -5.33301 -61.5 -16s-21.167 -27 -22.5 -49h-136
c2.66699 57.333 23.834 101.666 63.501 132.999s94.167 47 163.5 47c66 0 117.167 -13.5 153.5 -40.5s54.5 -65.5 54.5 -115.5zM231.999 98.002c33.333 0 60.667 8.16699 82 24.5s32 37.833 32 64.5v54l-102 -20c-29.333 -5.33301 -50.166 -13.333 -62.499 -24
s-18.5 -24.667 -18.5 -42c0 -18 6.16699 -32 18.5 -42s29.166 -15 50.499 -15z" />
    <glyph glyph-name="g.1" horiz-adv-x="571" 
d="M103 228c-18.667 16.667 -32.8311 35.835 -42.498 57.502s-14.5 44.834 -14.5 69.501c0 54 20.167 97.667 60.5 131s92.833 50 157.5 50c33.333 0 64 -4.66699 92 -14s52 -22.666 72 -39.999c13.333 22 33.166 38.167 59.499 48.5s54.166 13.166 83.499 8.49902v-133
c-19.333 8 -37.333 10.5 -54 7.5s-28.667 -11.167 -36 -24.5c1.33301 -5.33301 2.16602 -10.833 2.49902 -16.5s0.5 -11.5 0.5 -17.5c0 -53.333 -20.5 -96.833 -61.5 -130.5s-93.833 -50.5 -158.5 -50.5c-14 0 -27.5 0.833008 -40.5 2.5s-25.833 4.5 -38.5 8.5
c-9.33301 -2.66699 -16.666 -6.83398 -21.999 -12.501s-8 -11.834 -8 -18.501c0 -8.66699 3.16699 -15.334 9.5 -20.001s14.833 -7 25.5 -7h205c52 0 92 -11.5 120 -34.5s42 -55.833 42 -98.5c0 -56.667 -26.167 -101.334 -78.5 -134.001s-123.833 -49 -214.5 -49
c-80.667 0 -143.167 11.667 -187.5 35s-66.5 57 -66.5 101c0 20.667 5.33301 39.334 16 56.001s26 30.334 46 41.001c-14 11.333 -24.5 24 -31.5 38s-10.5 29.667 -10.5 47c0 21.333 6.5 40.666 19.5 57.999s30.833 31 53.5 41zM265.003 279.001
c26 0 46.667 6.83301 62 20.5s23 32.167 23 55.5c0 24 -7.66699 42.833 -23 56.5s-36 20.5 -62 20.5s-46.5 -6.83301 -61.5 -20.5s-22.5 -32.5 -22.5 -56.5c0 -23.333 7.5 -41.833 22.5 -55.5s35.5 -20.5 61.5 -20.5zM143.003 -30.999
c0 -19.333 10.501 -33.499 31.501 -42.499s53.833 -13.5 98.5 -13.5c47.333 0 84.166 5.16699 110.499 15.5s39.5 25.166 39.5 44.499c0 14 -4.33301 24.167 -13 30.5s-22.667 9.5 -42 9.5h-169c-17.333 0 -31 -3.83301 -41 -11.5s-15 -18.5 -15 -32.5z" />
    <glyph glyph-name="aacute.1" horiz-adv-x="537" 
d="M326 573h-110l57 145h168zM483 380l-0.000976562 -250.998c0 -26 0.666992 -49.667 2 -71s3.33301 -40.666 6 -57.999h-135c-0.666992 10 -1.16699 18.167 -1.5 24.5s-0.5 12.166 -0.5 17.499c-17.333 -16.667 -38.666 -29.334 -63.999 -38.001s-53.666 -13 -84.999 -13
c-52.667 0 -95.834 14.5 -129.501 43.5s-50.5 66.167 -50.5 111.5s15.5 81.833 46.5 109.5s78.833 47.167 143.5 58.5l131 25v23c0 20 -6.33301 34.833 -19 44.5s-32.334 14.5 -59.001 14.5c-27.333 0 -47.833 -5.33301 -61.5 -16s-21.167 -27 -22.5 -49h-136
c2.66699 57.333 23.834 101.666 63.501 132.999s94.167 47 163.5 47c66 0 117.167 -13.5 153.5 -40.5s54.5 -65.5 54.5 -115.5zM231.999 98.002c33.333 0 60.667 8.16699 82 24.5s32 37.833 32 64.5v54l-102 -20c-29.333 -5.33301 -50.166 -13.333 -62.499 -24
s-18.5 -24.667 -18.5 -42c0 -18 6.16699 -32 18.5 -42s29.166 -15 50.499 -15z" />
    <glyph glyph-name="abreve.1" horiz-adv-x="537" 
d="M272 662c16.667 0 30.332 5.16699 40.999 15.5s16 23.833 16 40.5h96c0 -46 -13.5 -82.167 -40.5 -108.5s-64.5 -39.5 -112.5 -39.5s-85.5 13.167 -112.5 39.5s-40.5 62.5 -40.5 108.5h96c0 -16.667 5.33301 -30.167 16 -40.5s24.334 -15.5 41.001 -15.5zM482.998 380
l-0.000976562 -250.998c0 -26 0.666992 -49.667 2 -71s3.33301 -40.666 6 -57.999h-135c-0.666992 10 -1.16699 18.167 -1.5 24.5s-0.5 12.166 -0.5 17.499c-17.333 -16.667 -38.666 -29.334 -63.999 -38.001s-53.666 -13 -84.999 -13c-52.667 0 -95.834 14.5 -129.501 43.5
s-50.5 66.167 -50.5 111.5s15.5 81.833 46.5 109.5s78.833 47.167 143.5 58.5l131 25v23c0 20 -6.33301 34.833 -19 44.5s-32.334 14.5 -59.001 14.5c-27.333 0 -47.833 -5.33301 -61.5 -16s-21.167 -27 -22.5 -49h-136c2.66699 57.333 23.834 101.666 63.501 132.999
s94.167 47 163.5 47c66 0 117.167 -13.5 153.5 -40.5s54.5 -65.5 54.5 -115.5zM231.997 98.002c33.333 0 60.667 8.16699 82 24.5s32 37.833 32 64.5v54l-102 -20c-29.333 -5.33301 -50.166 -13.333 -62.499 -24s-18.5 -24.667 -18.5 -42c0 -18 6.16699 -32 18.5 -42
s29.166 -15 50.499 -15z" />
    <glyph glyph-name="acircumflex.1" horiz-adv-x="537" 
d="M200 718h142l100 -145h-105l-66 57l-66 -57h-105zM483 380l-0.000976562 -250.998c0 -26 0.666992 -49.667 2 -71s3.33301 -40.666 6 -57.999h-135c-0.666992 10 -1.16699 18.167 -1.5 24.5s-0.5 12.166 -0.5 17.499c-17.333 -16.667 -38.666 -29.334 -63.999 -38.001
s-53.666 -13 -84.999 -13c-52.667 0 -95.834 14.5 -129.501 43.5s-50.5 66.167 -50.5 111.5s15.5 81.833 46.5 109.5s78.833 47.167 143.5 58.5l131 25v23c0 20 -6.33301 34.833 -19 44.5s-32.334 14.5 -59.001 14.5c-27.333 0 -47.833 -5.33301 -61.5 -16
s-21.167 -27 -22.5 -49h-136c2.66699 57.333 23.834 101.666 63.501 132.999s94.167 47 163.5 47c66 0 117.167 -13.5 153.5 -40.5s54.5 -65.5 54.5 -115.5zM231.999 98.002c33.333 0 60.667 8.16699 82 24.5s32 37.833 32 64.5v54l-102 -20
c-29.333 -5.33301 -50.166 -13.333 -62.499 -24s-18.5 -24.667 -18.5 -42c0 -18 6.16699 -32 18.5 -42s29.166 -15 50.499 -15z" />
    <glyph glyph-name="adieresis.1" horiz-adv-x="537" 
d="M242 588h-142v130h142v-130zM436 588h-142v130h142v-130zM483 380l-0.000976562 -250.998c0 -26 0.666992 -49.667 2 -71s3.33301 -40.666 6 -57.999h-135c-0.666992 10 -1.16699 18.167 -1.5 24.5s-0.5 12.166 -0.5 17.499
c-17.333 -16.667 -38.666 -29.334 -63.999 -38.001s-53.666 -13 -84.999 -13c-52.667 0 -95.834 14.5 -129.501 43.5s-50.5 66.167 -50.5 111.5s15.5 81.833 46.5 109.5s78.833 47.167 143.5 58.5l131 25v23c0 20 -6.33301 34.833 -19 44.5s-32.334 14.5 -59.001 14.5
c-27.333 0 -47.833 -5.33301 -61.5 -16s-21.167 -27 -22.5 -49h-136c2.66699 57.333 23.834 101.666 63.501 132.999s94.167 47 163.5 47c66 0 117.167 -13.5 153.5 -40.5s54.5 -65.5 54.5 -115.5zM231.999 98.002c33.333 0 60.667 8.16699 82 24.5s32 37.833 32 64.5v54
l-102 -20c-29.333 -5.33301 -50.166 -13.333 -62.499 -24s-18.5 -24.667 -18.5 -42c0 -18 6.16699 -32 18.5 -42s29.166 -15 50.499 -15z" />
    <glyph glyph-name="agrave.1" horiz-adv-x="537" 
d="M276 718l57 -145h-110l-115 145h168zM483 380l-0.000976562 -250.998c0 -26 0.666992 -49.667 2 -71s3.33301 -40.666 6 -57.999h-135c-0.666992 10 -1.16699 18.167 -1.5 24.5s-0.5 12.166 -0.5 17.499c-17.333 -16.667 -38.666 -29.334 -63.999 -38.001
s-53.666 -13 -84.999 -13c-52.667 0 -95.834 14.5 -129.501 43.5s-50.5 66.167 -50.5 111.5s15.5 81.833 46.5 109.5s78.833 47.167 143.5 58.5l131 25v23c0 20 -6.33301 34.833 -19 44.5s-32.334 14.5 -59.001 14.5c-27.333 0 -47.833 -5.33301 -61.5 -16
s-21.167 -27 -22.5 -49h-136c2.66699 57.333 23.834 101.666 63.501 132.999s94.167 47 163.5 47c66 0 117.167 -13.5 153.5 -40.5s54.5 -65.5 54.5 -115.5zM231.999 98.002c33.333 0 60.667 8.16699 82 24.5s32 37.833 32 64.5v54l-102 -20
c-29.333 -5.33301 -50.166 -13.333 -62.499 -24s-18.5 -24.667 -18.5 -42c0 -18 6.16699 -32 18.5 -42s29.166 -15 50.499 -15z" />
    <glyph glyph-name="amacron.1" horiz-adv-x="537" 
d="M422 696v-106h-306v106h306zM483 380l-0.000976562 -250.998c0 -26 0.666992 -49.667 2 -71s3.33301 -40.666 6 -57.999h-135c-0.666992 10 -1.16699 18.167 -1.5 24.5s-0.5 12.166 -0.5 17.499c-17.333 -16.667 -38.666 -29.334 -63.999 -38.001
s-53.666 -13 -84.999 -13c-52.667 0 -95.834 14.5 -129.501 43.5s-50.5 66.167 -50.5 111.5s15.5 81.833 46.5 109.5s78.833 47.167 143.5 58.5l131 25v23c0 20 -6.33301 34.833 -19 44.5s-32.334 14.5 -59.001 14.5c-27.333 0 -47.833 -5.33301 -61.5 -16
s-21.167 -27 -22.5 -49h-136c2.66699 57.333 23.834 101.666 63.501 132.999s94.167 47 163.5 47c66 0 117.167 -13.5 153.5 -40.5s54.5 -65.5 54.5 -115.5zM231.999 98.002c33.333 0 60.667 8.16699 82 24.5s32 37.833 32 64.5v54l-102 -20
c-29.333 -5.33301 -50.166 -13.333 -62.499 -24s-18.5 -24.667 -18.5 -42c0 -18 6.16699 -32 18.5 -42s29.166 -15 50.499 -15z" />
    </font>
</defs>
</svg>
