<?xml version="1.0" standalone="no"?>
<!DOCTYPE svg PUBLIC "-//W3C//DTD SVG 1.1//EN" "http://www.w3.org/Graphics/SVG/1.1/DTD/svg11.dtd" >
<svg>
<metadata>
Created by FontForge 20090914 at Fri Jun 29 08:19:28 2018
 By www-data
&#194;&#169; 2016 Klim Type Foundry. All Rights Reserved.
</metadata>
<defs>
<font id="Sohne-Mager" horiz-adv-x="564" >
  <font-face 
    font-family="Söhne"
    font-weight="400"
    font-stretch="normal"
    units-per-em="1000"
    panose-1="2 11 5 3 3 2 2 6 2 3"
    ascent="800"
    descent="-200"
    x-height="523"
    cap-height="718"
    bbox="-202 -197.002 997 984.999"
    underline-thickness="75"
    underline-position="-77"
    unicode-range="U+000D-U+F6C3"
  />
<missing-glyph horiz-adv-x="608" 
 />
    <glyph glyph-name="f_idieresis" unicode="f&#xef;" horiz-adv-x="547" 
d="M276 729c13.333 0 27.668 -0.999023 43.001 -2.99902s29.666 -5 42.999 -9v-79c-14 3.33301 -28.833 6 -44.5 8s-30.167 3 -43.5 3c-30.667 0 -53.667 -7.83301 -69 -23.5s-23 -39.167 -23 -70.5v-32h116v-77h-116v-446h-90v446h-79v77h79v38
c0 53.333 16 94.666 48 123.999s77.333 44 136 44zM563.002 610.001h-100v104h100v-104zM382.002 523.001h90v-523h-90v523z" />
    <glyph glyph-name=".notdef" horiz-adv-x="608" 
 />
    <glyph glyph-name=".null" horiz-adv-x="0" 
 />
    <glyph glyph-name=".null" horiz-adv-x="0" 
 />
    <glyph glyph-name="uni000D" unicode="&#xd;" horiz-adv-x="211" 
 />
    <glyph glyph-name="space" unicode=" " horiz-adv-x="211" 
 />
    <glyph glyph-name="exclam" unicode="!" horiz-adv-x="222" 
d="M145 213h-67l-23 505h113zM168 0h-114v118h114v-118z" />
    <glyph glyph-name="quotedbl" unicode="&#x22;" horiz-adv-x="330" 
d="M119 446h-63l-22 272h106zM274 446h-63l-22 272h106z" />
    <glyph glyph-name="numbersign" unicode="#" horiz-adv-x="660" 
d="M163 0h-81l49 207h-96v73h113l38 158h-115v73h132l49 207h83l-50 -207h162l50 207h81l-49 -207h97v-73h-114l-38 -158h116v-73h-133l-49 -207h-83l50 207h-162zM268 438l-38 -158h162l38 158h-162z" />
    <glyph glyph-name="dollar" unicode="$" horiz-adv-x="577" 
d="M6 147l72 60.002c20 -38.667 45.333 -69 76 -91s66.334 -35.333 107.001 -40v257c-40 8.66699 -71.167 17 -93.5 25s-41.5 17 -57.5 27c-24 16 -41.667 35.167 -53 57.5s-17 48.5 -17 78.5c0 55.333 20.667 101.666 62 138.999s94.333 58.666 159 63.999v95h73v-96
c50.667 -6 95 -20.833 133 -44.5s66.333 -54.5 85 -92.5l-69 -58c-16.667 32 -37.5 57.667 -62.5 77s-53.833 32 -86.5 38v-238c40 -8 71.5 -16.333 94.5 -25s42.833 -18.667 59.5 -30c23.333 -16 40.666 -35.833 51.999 -59.5s17 -51.167 17 -82.5
c0 -57.333 -20.5 -105.333 -61.5 -144s-94.833 -61.667 -161.5 -69v-97h-73v96c-57.333 5.33301 -108.5 21.5 -153.5 48.5s-78.833 61.833 -101.5 104.5zM128 527.002c0 -26.667 10 -48.332 30 -64.999s54.333 -30.334 103 -41.001v224c-40 -4 -72.167 -16.667 -96.5 -38
s-36.5 -48 -36.5 -80zM469 202.004c0 28.667 -10.1689 52 -30.502 70s-55.166 33 -104.499 45v-241c42.667 5.33301 75.834 19 99.501 41s35.5 50.333 35.5 85z" />
    <glyph glyph-name="percent" unicode="%" horiz-adv-x="769" 
d="M180 367c-44 0 -78.667 16.333 -104 49s-38 76.667 -38 132s12.667 99.333 38 132s60 49 104 49s78.667 -16.333 104 -49s38 -76.667 38 -132s-12.667 -99.333 -38 -132s-60 -49 -104 -49zM580 718h88l-479 -718h-88zM180 666c-20.667 0 -37 -10.5 -49 -31.5
s-18 -49.833 -18 -86.5s6 -65.667 18 -87s28.333 -32 49 -32s37 10.667 49 32s18 50.333 18 87s-6 65.5 -18 86.5s-28.333 31.5 -49 31.5zM589 351c44 0 78.833 -16.333 104.5 -49s38.5 -76.667 38.5 -132s-12.833 -99.333 -38.5 -132s-60.5 -49 -104.5 -49
s-78.667 16.333 -104 49s-38 76.667 -38 132s12.667 99.333 38 132s60 49 104 49zM589 289c-20.667 0 -37 -10.667 -49 -32s-18 -50.333 -18 -87c0 -36 6 -64.667 18 -86s28.333 -32 49 -32c21.333 0 38 10.667 50 32s18 50 18 86c0 36.667 -6 65.667 -18 87
s-28.667 32 -50 32z" />
    <glyph glyph-name="ampersand" unicode="&#x26;" horiz-adv-x="700" 
d="M556 376l89.0039 -15.0039c-4 -41.333 -13 -81.166 -27 -119.499s-32.667 -73.166 -56 -104.499l138 -137h-122l-74 73c-32 -27.333 -67.333 -48.166 -106 -62.499s-79.667 -21.5 -123 -21.5c-69.333 0 -126.333 18.333 -171 55s-67 84 -67 142
c0 42.667 11.667 80 35 112s61.666 61.667 114.999 89c-27.333 30 -47 57.833 -59 83.5s-18 51.834 -18 78.501c0 25.333 5.16699 49.333 15.5 72s25.166 42.334 44.499 59.001c18 15.333 38.667 27.166 62 35.499s48.666 12.5 75.999 12.5c56 0 101.167 -15.5 135.5 -46.5
s51.5 -70.833 51.5 -119.5c0 -38.667 -12.333 -72 -37 -100s-69.334 -57.333 -134.001 -88l178 -177c14.667 24.667 26.5 52 35.5 82s15.167 62.333 18.5 97zM310.004 657.996c-31.333 0 -57 -9.66797 -77 -29.001s-30 -44.666 -30 -75.999c0 -20 4.83301 -39.333 14.5 -58
s27.5 -41.667 53.5 -69c54.667 23.333 91.167 44.5 109.5 63.5s27.5 42.833 27.5 71.5c0 27.333 -9.16699 50.333 -27.5 69s-41.833 28 -70.5 28zM134.004 194.995c0 -36.667 14.167 -66.8311 42.5 -90.498s63.5 -35.5 105.5 -35.5c32 0 61.833 5.16699 89.5 15.5
s52.5 25.5 74.5 45.5l-206 204c-38 -20.667 -65.167 -41.834 -81.5 -63.501s-24.5 -46.834 -24.5 -75.501z" />
    <glyph glyph-name="quotesingle" unicode="'" horiz-adv-x="175" 
d="M119 446h-63l-22 272h106z" />
    <glyph glyph-name="parenleft" unicode="(" horiz-adv-x="313" 
d="M144 320c0 -76 14.3311 -150.504 42.998 -223.504s68.334 -137.833 119.001 -194.5h-94c-55.333 58.667 -97.666 123.834 -126.999 195.501s-44 145.834 -44 222.501s14.667 150.834 44 222.501s71.666 136.834 126.999 195.501h94
c-51.333 -57.333 -91.166 -122.333 -119.499 -195s-42.5 -147 -42.5 -223z" />
    <glyph glyph-name="parenright" unicode=")" horiz-adv-x="313" 
d="M169 320c0 76 -14.1689 150.337 -42.502 223.004s-68.166 137.667 -119.499 195h94c55.333 -58.667 97.666 -123.834 126.999 -195.501s44 -145.834 44 -222.501s-14.667 -150.834 -44 -222.501s-71.666 -136.834 -126.999 -195.501h-94
c50.667 56.667 90.334 121.5 119.001 194.5s43 147.5 43 223.5z" />
    <glyph glyph-name="asterisk" unicode="*" horiz-adv-x="432" 
d="M360 401l-56 -40l-88 121l-89 -121l-55 40l88 121l-143 47l21 65l143 -46v150h69v-150l144 46l20 -65l-143 -47z" />
    <glyph glyph-name="plus" unicode="+" horiz-adv-x="608" 
d="M558 382v-80h-214v-214h-80v214h-214v80h214v215h80v-215h214z" />
    <glyph glyph-name="comma" unicode="," horiz-adv-x="223" 
d="M106 0l-52 -0.000976562v118h114v-124c0 -38.667 -11.5 -69.167 -34.5 -91.5s-54.833 -34.166 -95.5 -35.499v52c22.667 1.33301 39.667 8 51 20s17 29.667 17 53v8z" />
    <glyph glyph-name="hyphen" unicode="-" horiz-adv-x="375" 
d="M324 251h-273v81h273v-81z" />
    <glyph glyph-name="period" unicode="." horiz-adv-x="223" 
d="M168 0h-114v118h114v-118z" />
    <glyph glyph-name="slash" unicode="/" horiz-adv-x="402" 
d="M102 -98h-92l290 836h92z" />
    <glyph glyph-name="zero" unicode="0" horiz-adv-x="623" 
d="M98 111c-19.333 32 -34.166 69 -44.499 111s-15.5 87.667 -15.5 137s5.16699 95 15.5 137s25.166 79 44.499 111c24.667 40 55.167 70.333 91.5 91s77.166 31 122.499 31s86.166 -10.5 122.499 -31.5s66.5 -51.167 90.5 -90.5c19.333 -32 34.166 -69 44.499 -111
s15.5 -87.667 15.5 -137s-5.16699 -95 -15.5 -137s-25.166 -79 -44.499 -111c-24 -39.333 -54.167 -69.5 -90.5 -90.5s-77.166 -31.5 -122.499 -31.5s-86.166 10.333 -122.499 31s-66.833 51 -91.5 91zM312 645c-56 0 -99.667 -25.5 -131 -76.5s-47 -120.833 -47 -209.5
s15.667 -158.5 47 -209.5s75 -76.5 131 -76.5c55.333 0 98.833 25.667 130.5 77s47.5 121 47.5 209s-15.833 157.667 -47.5 209s-75.167 77 -130.5 77z" />
    <glyph glyph-name="one" unicode="1" horiz-adv-x="376" 
d="M220 722h72.001v-722h-96v528h-173v71l77 5c42 2.66699 71.667 12.5 89 29.5s27.666 46.5 30.999 88.5z" />
    <glyph glyph-name="two" unicode="2" horiz-adv-x="559" 
d="M34 0v79.001l212 176c30 24.667 53.5 44.834 70.5 60.501s31.5 30.5 43.5 44.5c20.667 24 35.834 47.333 45.501 70s14.5 45.667 14.5 69c0 44.667 -13.333 80.5 -40 107.5s-61.667 40.5 -105 40.5c-42 0 -76.667 -14.167 -104 -42.5s-41 -63.5 -41 -105.5
c0 -12.667 1.33301 -25.5 4 -38.5s6.66699 -26.167 12 -39.5h-90c-6 16 -10.167 30.5 -12.5 43.5s-3.5 26.167 -3.5 39.5c0 31.333 6.16699 61 18.5 89s29.833 52.333 52.5 73c22 20 47.167 35.5 75.5 46.5s58.5 16.5 90.5 16.5c71.333 0 128.666 -20.5 171.999 -61.5
s65 -95.167 65 -162.5c0 -48.667 -13.667 -94.834 -41 -138.501s-76 -93.834 -146 -150.501l-162 -132h363v-84h-494z" />
    <glyph glyph-name="three" unicode="3" horiz-adv-x="570" 
d="M461 43c-22 -17.333 -47.5 -30.6689 -76.5 -40.002s-60.167 -14 -93.5 -14c-72 0 -132.167 19.333 -180.5 58s-77.833 92 -88.5 160l93 20c6.66699 -48.667 25.834 -87.167 57.501 -115.5s70.834 -42.5 117.501 -42.5s84 12.5 112 37.5s42 58.167 42 99.5
c0 39.333 -14.333 70.333 -43 93s-67.667 34 -117 34h-77v81h78c42.667 0 76.5 10.167 101.5 30.5s37.5 48.166 37.5 83.499c0 36.667 -11.833 65.834 -35.5 87.501s-56.167 32.5 -97.5 32.5c-42.667 0 -78.334 -13 -107.001 -39s-47 -62 -55 -108l-86 17
c10 63.333 37.667 114.333 83 153s101 58 167 58c67.333 0 121 -17.833 161 -53.5s60 -83.167 60 -142.5c0 -36.667 -10.333 -69.5 -31 -98.5s-47.334 -48.833 -80.001 -59.5c42 -12 74.833 -33 98.5 -63s35.5 -67 35.5 -111c0 -31.333 -6.5 -60.666 -19.5 -87.999
s-31.833 -50.666 -56.5 -69.999z" />
    <glyph glyph-name="four" unicode="4" horiz-adv-x="602" 
d="M451 187v-187h-89v187h-347v75l315 456h122v-451h139v-80h-140zM361 626l-248 -359h248v359z" />
    <glyph glyph-name="five" unicode="5" horiz-adv-x="570" 
d="M293 395c-27.333 0 -52.499 -5.50098 -75.499 -16.501s-41.167 -25.833 -54.5 -44.5l-88 15l31 369h391v-84h-317l-19 -217c18 18 39.333 31.833 64 41.5s51 14.5 79 14.5c34 0 65.333 -5.83301 94 -17.5s53.667 -28.834 75 -51.501c20 -22 35.5 -47.667 46.5 -77
s16.5 -60.666 16.5 -93.999s-6.33301 -65.166 -19 -95.499s-30.667 -56.833 -54 -79.5c-23.333 -22 -50.333 -39 -81 -51s-63 -18 -97 -18c-68.667 0 -125.834 18.667 -171.501 56s-74.5 89.333 -86.5 156l92 19c7.33301 -46.667 25.833 -83.5 55.5 -110.5
s66.5 -40.5 110.5 -40.5c45.333 0 83.5 15.5 114.5 46.5s46.5 69.5 46.5 115.5c0 46.667 -14.5 85.667 -43.5 117s-65.5 47 -109.5 47z" />
    <glyph glyph-name="six" unicode="6" horiz-adv-x="589" 
d="M325 729c57.333 0 105.334 -14.166 144.001 -42.499s66.334 -69.5 83.001 -123.5l-79 -33c-11.333 38.667 -29.833 68.167 -55.5 88.5s-57.5 30.5 -95.5 30.5c-30.667 0 -59.334 -8.16699 -86.001 -24.5s-48.667 -39.833 -66 -70.5c-14.667 -24 -25.667 -51.5 -33 -82.5
s-11 -64.167 -11 -99.5v-4.5v-5.5c18 34.667 44.333 62.167 79 82.5s73 30.5 115 30.5c32.667 0 63.334 -6 92.001 -18s54 -29.333 76 -52c21.333 -22 37.666 -47.5 48.999 -76.5s17 -59.833 17 -92.5c0 -34 -6.16699 -66.167 -18.5 -96.5s-30.166 -56.833 -53.499 -79.5
c-22.667 -22.667 -49.334 -40.167 -80.001 -52.5s-63 -18.5 -97 -18.5c-84 0 -149.5 32.667 -196.5 98s-70.5 153.666 -70.5 264.999c0 49.333 5.66699 95.5 17 138.5s27.666 81.167 48.999 114.5c26 40 58 70.667 96 92s79.667 32 125 32zM305.001 68.001
c46 0 84.332 15.666 114.999 46.999s46 70 46 116c0 46.667 -15.333 85.834 -46 117.501s-68.667 47.5 -114 47.5s-83.666 -16 -114.999 -48s-47 -71 -47 -117s15.333 -84.667 46 -116s69 -47 115 -47z" />
    <glyph glyph-name="seven" unicode="7" horiz-adv-x="533" 
d="M421 635l-327 -0.000976562v-123h-84v206h513v-83c-81.333 -90.667 -139.5 -184 -174.5 -280s-52.5 -214.333 -52.5 -355h-97c0 133.333 18 251.333 54 354s92 196.334 168 281.001z" />
    <glyph glyph-name="eight" unicode="8" horiz-adv-x="598" 
d="M71 537c0 56.667 21.332 102.834 63.999 138.501s97.334 53.5 164.001 53.5s121.5 -17.833 164.5 -53.5s64.5 -81.834 64.5 -138.501c0 -36 -9.83301 -67.5 -29.5 -94.5s-47.5 -47.5 -83.5 -61.5c46 -14 82.5 -37.333 109.5 -70s40.5 -70.334 40.5 -113.001
c0 -62 -24.667 -112.167 -74 -150.5s-113.333 -57.5 -192 -57.5c-78 0 -141.667 19.167 -191 57.5s-74 88.5 -74 150.5c0 42.667 13.5 80.334 40.5 113.001s63.167 56 108.5 70c-36 14 -63.667 34.5 -83 61.5s-29 58.5 -29 94.5zM156.999 536
c0 -35.333 13 -63.6641 39 -84.9971s60.333 -32 103 -32s77 10.667 103 32s39 49.666 39 84.999s-13 63.666 -39 84.999s-60.333 32 -103 32c-42 0 -76.167 -10.833 -102.5 -32.5s-39.5 -49.834 -39.5 -84.501zM471.999 204.002c0 40 -16.167 72.667 -48.5 98
s-73.833 38 -124.5 38s-91.834 -12.667 -123.501 -38s-47.5 -58 -47.5 -98c0 -40.667 15.833 -73.834 47.5 -99.501s72.834 -38.5 123.501 -38.5s92.167 12.833 124.5 38.5s48.5 58.834 48.5 99.501z" />
    <glyph glyph-name="nine" unicode="9" horiz-adv-x="589" 
d="M264 -11c-57.333 0 -105.334 14.166 -144.001 42.499s-66.334 69.5 -83.001 123.5l79 33c11.333 -38.667 29.833 -68.167 55.5 -88.5s57.5 -30.5 95.5 -30.5c30.667 0 59.334 8.16699 86.001 24.5s48.667 39.833 66 70.5c14.667 24 25.667 51.5 33 82.5
s11 64.167 11 99.5v5.5v4.5c-18 -34.667 -44.333 -62.167 -79 -82.5s-73 -30.5 -115 -30.5c-32.667 0 -63.334 6 -92.001 18s-54 29.333 -76 52c-21.333 22 -37.666 47.5 -48.999 76.5s-17 59.833 -17 92.5c0 34 6.16699 66.167 18.5 96.5s30.166 56.833 53.499 79.5
c22.667 22.667 49.334 40.167 80.001 52.5s63 18.5 97 18.5c84 0 149.5 -32.667 196.5 -98s70.5 -153.666 70.5 -264.999c0 -49.333 -5.66699 -95.5 -17 -138.5s-27.666 -81.167 -48.999 -114.5c-26 -40 -58 -70.667 -96 -92s-79.667 -32 -125 -32zM283.999 649.999
c-46 0 -84.332 -15.666 -114.999 -46.999s-46 -70 -46 -116c0 -46.667 15.333 -85.834 46 -117.501s68.667 -47.5 114 -47.5s83.666 16 114.999 48s47 71 47 117s-15.333 84.667 -46 116s-69 47 -115 47z" />
    <glyph glyph-name="colon" unicode=":" horiz-adv-x="223" 
d="M168 0h-114v118h114v-118zM168 364h-114v118h114v-118z" />
    <glyph glyph-name="semicolon" unicode=";" horiz-adv-x="223" 
d="M106 0l-52 -0.000976562v118h114v-124c0 -38.667 -11.5 -69.167 -34.5 -91.5s-54.833 -34.166 -95.5 -35.499v52c22.667 1.33301 39.667 8 51 20s17 29.667 17 53v8zM168 363.999h-114v118h114v-118z" />
    <glyph glyph-name="less" unicode="&#x3c;" horiz-adv-x="608" 
d="M546 75l-484 218v101l484 218v-91l-405 -178l405 -178v-90z" />
    <glyph glyph-name="equal" unicode="=" horiz-adv-x="608" 
d="M551 407h-494v79h494v-79zM551 197h-494v79h494v-79z" />
    <glyph glyph-name="greater" unicode="&#x3e;" horiz-adv-x="608" 
d="M546 394v-101l-484 -218v90l405 178l-405 178v91z" />
    <glyph glyph-name="question" unicode="?" horiz-adv-x="514" 
d="M401 513c0 40 -13 72.334 -39 97.001s-60 37 -102 37c-44 0 -80.167 -13.333 -108.5 -40s-46.166 -64 -53.499 -112l-91 15c9.33301 65.333 37.333 118.166 84 158.499s104.334 60.5 173.001 60.5s124.5 -19.667 167.5 -59s64.5 -90 64.5 -152
c0 -27.333 -4.83301 -53 -14.5 -77s-23.5 -45.667 -41.5 -65c-18 -18 -38.833 -32.833 -62.5 -44.5s-48.834 -19.167 -75.501 -22.5v-96h-87v160c57.333 0 102.666 12.5 135.999 37.5s50 59.167 50 102.5zM316 0.000976562h-114v118h114v-118z" />
    <glyph glyph-name="at" unicode="@" horiz-adv-x="887" 
d="M651 108c18.667 0 36.3281 6.33008 52.9951 18.9971s30.667 30.667 42 54c8 16.667 14 35.5 18 56.5s6 43.5 6 67.5c0 42 -7.33301 80.167 -22 114.5s-36.334 63.833 -65.001 88.5c-26.667 23.333 -58 41 -94 53s-75.333 18 -118 18c-48 0 -93.5 -9 -136.5 -27
s-80.833 -43.667 -113.5 -77c-32 -33.333 -56.667 -71.666 -74 -114.999s-26 -89.333 -26 -138c0 -47.333 8.16699 -90.666 24.5 -129.999s39.833 -73 70.5 -101c30 -26.667 65.333 -47 106 -61s85 -21 133 -21c46 0 88.167 5.5 126.5 16.5s74.166 27.833 107.499 50.5
l37 -60c-36 -26 -76.667 -45.667 -122 -59s-94.666 -20 -147.999 -20c-58.667 0 -113.167 8.66699 -163.5 26s-94.166 42.666 -131.499 75.999c-39.333 34.667 -69.166 76.167 -89.499 124.5s-30.5 101.5 -30.5 159.5s11 113.167 33 165.5s53 98.5 93 138.5
c40.667 39.333 87.334 69.5 140.001 90.5s108.334 31.5 167.001 31.5c50.667 0 98.5 -7.66699 143.5 -23s84.5 -37.666 118.5 -66.999c36 -30.667 63.5 -67.334 82.5 -110.001s28.5 -89 28.5 -139c0 -35.333 -4.16699 -68.166 -12.5 -98.499s-20.166 -57.5 -35.499 -81.5
c-19.333 -28 -42.666 -49.833 -69.999 -65.5s-56.333 -23.5 -87 -23.5c-30 0 -54.5 5.66699 -73.5 17s-32.167 28 -39.5 50c-13.333 -22 -31.833 -39.167 -55.5 -51.5s-49.5 -18.5 -77.5 -18.5c-46 0 -83.167 15.5 -111.5 46.5s-42.5 72.5 -42.5 124.5
c0 30.667 4.5 60.334 13.5 89.001s21.833 54.667 38.5 78c19.333 26 41.833 46.167 67.5 60.5s52.834 21.5 81.501 21.5c28 0 52.667 -6.5 74 -19.5s35.666 -30.167 42.999 -51.5l13 63h81l-49 -269c-4 -24.667 -2.33301 -43 5 -55s21 -18 41 -18zM415.994 110.997
c26.667 0 49.667 10.334 69 31.001s32.666 49 39.999 85c4 20.667 6.83301 36.667 8.5 48s2.5 20.666 2.5 27.999c0 24 -7.16699 43.833 -21.5 59.5s-33.166 23.5 -56.499 23.5c-36 0 -66 -16.833 -90 -50.5s-36 -75.167 -36 -124.5c0 -31.333 7.5 -55.833 22.5 -73.5
s35.5 -26.5 61.5 -26.5z" />
    <glyph glyph-name="A" unicode="A" horiz-adv-x="692" 
d="M16 0l277 718h106l277 -718h-97l-73 189h-322l-72 -189h-96zM474 273l-130 337l-128 -337h258z" />
    <glyph glyph-name="B" unicode="B" horiz-adv-x="639" 
d="M365 0h-286.001v718h265c75.333 0 133 -16 173 -48s60 -78.333 60 -139c0 -38.667 -9.66699 -71.5 -29 -98.5s-46.666 -46.5 -81.999 -58.5c42 -11.333 75 -32.5 99 -63.5s36 -68.5 36 -112.5c0 -62 -21 -110.5 -63 -145.5s-99.667 -52.5 -173 -52.5zM171.999 637
v-226.999h164c49.333 0 86.5 9.5 111.5 28.5s37.5 47.167 37.5 84.5s-12.5 65.666 -37.5 84.999s-62.167 29 -111.5 29h-164zM360.999 328.001h-189v-247h189c46 0 82.167 11 108.5 33s39.5 52.333 39.5 91c0 38 -13.167 68 -39.5 90s-62.5 33 -108.5 33z" />
    <glyph glyph-name="C" unicode="C" horiz-adv-x="659" 
d="M187 553c-17.333 -25.333 -30.666 -54.5 -39.999 -87.5s-14 -68.5 -14 -106.5s4.66699 -73.5 14 -106.5s22.666 -62.167 39.999 -87.5c20.667 -29.333 45.834 -51.833 75.501 -67.5s62.167 -23.5 97.5 -23.5c46 0 85.167 12.667 117.5 38s55.166 61 68.499 107l91 -30
c-21.333 -63.333 -56.166 -112.5 -104.499 -147.5s-105.833 -52.5 -172.5 -52.5c-48 0 -92.667 9.83301 -134 29.5s-76.666 47.5 -105.999 83.5c-27.333 33.333 -48 72 -62 116s-21 91 -21 141s7 97 21 141s34.667 82.667 62 116c29.333 36 64.666 63.833 105.999 83.5
s86 29.5 134 29.5c66.667 0 124.167 -17.5 172.5 -52.5s83.166 -84.167 104.499 -147.5l-91 -30c-13.333 46 -36.166 81.667 -68.499 107s-71.5 38 -117.5 38c-35.333 0 -67.833 -7.83301 -97.5 -23.5s-54.834 -38.167 -75.501 -67.5z" />
    <glyph glyph-name="D" unicode="D" horiz-adv-x="701" 
d="M307 0h-228v718h228c53.333 0 102 -8.33301 146 -25s82 -40.667 114 -72c31.333 -32 55.166 -70.167 71.499 -114.5s24.5 -93.5 24.5 -147.5s-8.16699 -103.167 -24.5 -147.5s-40.166 -82.5 -71.499 -114.5c-32 -31.333 -70 -55.333 -114 -72s-92.667 -25 -146 -25z
M173 635v-552.002h134c80.667 0 144.5 24.833 191.5 74.5s70.5 116.834 70.5 201.501s-23.5 151.834 -70.5 201.501s-111.167 74.5 -192.5 74.5h-133z" />
    <glyph glyph-name="E" unicode="E" horiz-adv-x="595" 
d="M79 0v718h469v-84h-374v-221h317v-84h-317v-245h374v-84h-469z" />
    <glyph glyph-name="F" unicode="F" horiz-adv-x="581" 
d="M174 319v-319h-95v718h464v-84h-369v-231h312v-84h-312z" />
    <glyph glyph-name="G" unicode="G" horiz-adv-x="720" 
d="M653 0l-87.998 -0.00195312v107c-15.333 -35.333 -42 -63.833 -80 -85.5s-81 -32.5 -129 -32.5c-47.333 0 -91.5 9.83301 -132.5 29.5s-75.833 47.5 -104.5 83.5c-26.667 33.333 -47 71.666 -61 114.999s-21 90 -21 140c0 50.667 7.16699 98 21.5 142
s35.166 82.667 62.499 116c29.333 36.667 64.833 64.834 106.5 84.501s86.5 29.5 134.5 29.5c67.333 0 125.166 -17.333 173.499 -52s83.5 -83.667 105.5 -147l-92 -30c-13.333 46 -36 81.5 -68 106.5s-71.333 37.5 -118 37.5c-36 0 -69 -7.83301 -99 -23.5
s-55.333 -38.167 -76 -67.5c-18 -25.333 -31.667 -54.666 -41 -87.999s-14 -69 -14 -107s4.66699 -73.667 14 -107s23.333 -62.666 42 -87.999c20.667 -29.333 46 -51.833 76 -67.5s63 -23.5 99 -23.5c57.333 0 104 20 140 60s54.667 92.333 56 157h-206v84h299v-373z" />
    <glyph glyph-name="H" unicode="H" horiz-adv-x="735" 
d="M560 413v305h96v-718h-96v329h-385v-329h-96v718h96v-305h385z" />
    <glyph glyph-name="I" unicode="I" horiz-adv-x="254" 
d="M79 718h96v-718h-96v718z" />
    <glyph glyph-name="J" unicode="J" horiz-adv-x="414" 
d="M129 -8c-18.667 0 -35.998 0.833984 -51.998 2.50098s-32.667 4.16699 -50 7.5v86c18.667 -4 34.667 -6.66699 48 -8s27.666 -2 42.999 -2c48 0 82.333 10.167 103 30.5s31 53.166 31 98.499v511h96v-518c0 -69.333 -18.333 -121.333 -55 -156s-91.334 -52 -164.001 -52z
" />
    <glyph glyph-name="K" unicode="K" horiz-adv-x="643" 
d="M79 718h96v-363l334 363h115l-291 -313l305 -405h-113l-256 336l-94 -101v-235h-96v718z" />
    <glyph glyph-name="L" unicode="L" horiz-adv-x="550" 
d="M533 0h-454v718h96v-634h358v-84z" />
    <glyph glyph-name="M" unicode="M" horiz-adv-x="854" 
d="M685 591l-220 -591h-77l-219 591v-591h-90v718h131l218 -590l219 590h127v-718h-89v591z" />
    <glyph glyph-name="N" unicode="N" horiz-adv-x="725" 
d="M553 718h93v-718h-83l-392 578v-578h-92v718h101l373 -555v555z" />
    <glyph glyph-name="O" unicode="O" horiz-adv-x="726" 
d="M121 102c-27.333 33.333 -48.166 71.833 -62.499 115.5s-21.5 90.834 -21.5 141.501s7.16699 97.834 21.5 141.501s35.166 82.167 62.499 115.5c30 36.667 65.833 64.667 107.5 84s86.5 29 134.5 29s92.833 -9.66699 134.5 -29s77.167 -47.333 106.5 -84
c27.333 -33.333 48.166 -71.833 62.499 -115.5s21.5 -90.834 21.5 -141.501s-7.16699 -97.834 -21.5 -141.501s-35.166 -82.167 -62.499 -115.5c-29.333 -36.667 -64.833 -64.667 -106.5 -84s-86.5 -29 -134.5 -29s-92.833 9.66699 -134.5 29s-77.5 47.333 -107.5 84z
M538 165c18 25.333 31.667 54.5 41 87.5s14 68.5 14 106.5s-4.66699 73.5 -14 106.5s-23 62.167 -41 87.5c-21.333 29.333 -47 51.833 -77 67.5s-62.667 23.5 -98 23.5s-68 -7.83301 -98 -23.5s-55.667 -38.167 -77 -67.5c-18 -25.333 -31.667 -54.5 -41 -87.5
s-14 -68.5 -14 -106.5s4.66699 -73.5 14 -106.5s23 -62.167 41 -87.5c21.333 -29.333 47 -51.833 77 -67.5s62.667 -23.5 98 -23.5s68 7.83301 98 23.5s55.667 38.167 77 67.5z" />
    <glyph glyph-name="P" unicode="P" horiz-adv-x="622" 
d="M353 301h-178.001v-301h-96v718h274c78.667 0 139.834 -18.167 183.501 -54.5s65.5 -87.5 65.5 -153.5s-22 -117.333 -66 -154s-105 -55 -183 -55zM174.999 635v-251.001h173c51.333 0 90.666 10.833 117.999 32.5s41 52.834 41 93.501c0 40 -13.667 70.833 -41 92.5
s-66.666 32.5 -117.999 32.5h-173z" />
    <glyph glyph-name="Q" unicode="Q" horiz-adv-x="726" 
d="M121 102c-27.333 33.333 -48.1641 71.832 -62.4971 115.499s-21.5 90.834 -21.5 141.501s7.16699 97.834 21.5 141.501s35.166 82.167 62.499 115.5c30 36.667 65.833 64.667 107.5 84s86.5 29 134.5 29s92.833 -9.66699 134.5 -29s77.167 -47.333 106.5 -84
c27.333 -33.333 48.166 -71.833 62.499 -115.5s21.5 -90.834 21.5 -141.501c0 -68 -12.833 -129.5 -38.5 -184.5s-61.5 -98.5 -107.5 -130.5c14 -20 33.5 -38 58.5 -54s52.167 -27.667 81.5 -35l-56 -69c-32.667 9.33301 -63.834 25 -93.501 47s-51.834 46 -66.501 72
c-16.667 -5.33301 -33.667 -9.33301 -51 -12s-34.666 -4 -51.999 -4c-48 0 -92.833 9.66699 -134.5 29s-77.5 47.333 -107.5 84zM538.002 164.999c18 25.333 31.667 54.5 41 87.5s14 68.5 14 106.5s-4.66699 73.5 -14 106.5s-23 62.167 -41 87.5
c-21.333 29.333 -47 51.833 -77 67.5s-62.667 23.5 -98 23.5s-68 -7.83301 -98 -23.5s-55.667 -38.167 -77 -67.5c-18 -25.333 -31.667 -54.5 -41 -87.5s-14 -68.5 -14 -106.5s4.66699 -73.5 14 -106.5s23 -62.167 41 -87.5c21.333 -29.333 47 -51.833 77 -67.5
s62.667 -23.5 98 -23.5s68 7.83301 98 23.5s55.667 38.167 77 67.5z" />
    <glyph glyph-name="R" unicode="R" horiz-adv-x="648" 
d="M314 301h-139.001v-301h-96v718h274c78.667 0 139.834 -18.167 183.501 -54.5s65.5 -87.5 65.5 -153.5c0 -56 -16 -101.5 -48 -136.5s-77.333 -57.5 -136 -67.5l199 -306h-110zM174.999 635v-251.001h173c51.333 0 90.666 10.833 117.999 32.5s41 52.834 41 93.501
c0 40 -13.667 70.833 -41 92.5s-66.666 32.5 -117.999 32.5h-173z" />
    <glyph glyph-name="S" unicode="S" horiz-adv-x="587" 
d="M296 -11c-63.333 0 -121.83 14.667 -175.497 44s-92.5 67.666 -116.5 114.999l75 60c22.667 -42.667 53.167 -76 91.5 -100s80.833 -36 127.5 -36c49.333 0 89.166 11.667 119.499 35s45.5 54.333 45.5 93c0 22 -5.5 40.5 -16.5 55.5s-28.833 27.833 -53.5 38.5
c-10 4 -21.5 8 -34.5 12s-42.167 11.333 -87.5 22c-42.667 10 -75 19.167 -97 27.5s-40.667 17.5 -56 27.5c-24.667 16 -42.834 35.333 -54.501 58s-17.5 49.334 -17.5 80.001c0 31.333 6.5 60.166 19.5 86.499s31.833 49.166 56.5 68.499c22 17.333 47.5 30.5 76.5 39.5
s59.833 13.5 92.5 13.5c58 0 109.667 -12.5 155 -37.5s79.666 -59.5 102.999 -103.5l-73 -58c-20.667 39.333 -46.5 68.5 -77.5 87.5s-67.5 28.5 -109.5 28.5c-44 0 -80 -11 -108 -33s-42 -50 -42 -84c0 -20 4.83301 -36.667 14.5 -50s24.834 -25 45.501 -35
c10 -4 22.167 -8.16699 36.5 -12.5s38.166 -10.5 71.499 -18.5c56 -13.333 94.5 -23.666 115.5 -30.999s39.167 -15.666 54.5 -24.999c27.333 -16.667 47.5 -37.167 60.5 -61.5s19.5 -53.5 19.5 -87.5c0 -32.667 -7 -63 -21 -91s-34.333 -52 -61 -72
c-23.333 -18 -50.5 -31.833 -81.5 -41.5s-63.5 -14.5 -97.5 -14.5z" />
    <glyph glyph-name="T" unicode="T" horiz-adv-x="616" 
d="M599 718v-84h-243v-634h-96v634h-243v84h582z" />
    <glyph glyph-name="U" unicode="U" horiz-adv-x="697" 
d="M348 -10c-87.333 0 -156.166 25.833 -206.499 77.5s-75.5 123.834 -75.5 216.501v434h96v-431c0 -68 16.167 -120.167 48.5 -156.5s78.166 -54.5 137.499 -54.5s105.333 18.167 138 54.5s49 88.5 49 156.5v431h96v-434c0 -92.667 -25.167 -164.834 -75.5 -216.501
s-119.5 -77.5 -207.5 -77.5z" />
    <glyph glyph-name="V" unicode="V" horiz-adv-x="678" 
d="M661 718l-271 -718h-101l-273 718h103l222 -598l222 598h98z" />
    <glyph glyph-name="W" unicode="W" horiz-adv-x="921" 
d="M268 143l151 575h85l152 -575l153 575h95l-197 -718h-94l-153 559l-152 -559h-94l-198 718h99z" />
    <glyph glyph-name="X" unicode="X" horiz-adv-x="654" 
d="M523 718h106l-246 -353l254 -365h-108l-203 294l-204 -294h-106l255 364l-247 354h108l196 -282z" />
    <glyph glyph-name="Y" unicode="Y" horiz-adv-x="626" 
d="M109 718l205 -329l205 329h102l-260 -416v-302h-96v302l-260 416h104z" />
    <glyph glyph-name="Z" unicode="Z" horiz-adv-x="620" 
d="M159 84h426v-84h-547v74l422 560h-417v84h538v-74z" />
    <glyph glyph-name="bracketleft" unicode="[" horiz-adv-x="315" 
d="M298 663h-146v-687h146v-74h-237v836h237v-75z" />
    <glyph glyph-name="backslash" unicode="\" horiz-adv-x="402" 
d="M300.006 -98h91.9951l-289.982 836h-91.9951z" />
    <glyph glyph-name="bracketright" unicode="]" horiz-adv-x="315" 
d="M163 -24v687h-146v75h237v-836h-237v74h146z" />
    <glyph glyph-name="asciicircum" unicode="^" horiz-adv-x="456" 
d="M20 417l164 301h88l163 -301h-94l-113 213l-115 -213h-93z" />
    <glyph glyph-name="underscore" unicode="_" horiz-adv-x="430" 
d="M379 -134h-328v77h328v-77z" />
    <glyph glyph-name="grave" unicode="`" horiz-adv-x="600" 
d="M333 718l59 -139h-71l-101 139h113z" />
    <glyph glyph-name="a" unicode="a" horiz-adv-x="526" 
d="M367 59c-16.667 -21.333 -39.165 -38.001 -67.498 -50.001s-59.5 -18 -93.5 -18c-50 0 -91.167 13.833 -123.5 41.5s-48.5 63.834 -48.5 108.501s15.5 80.667 46.5 108s81.5 48.333 151.5 63l127 26v22c0 30.667 -8.66699 54 -26 70s-43 24 -77 24
c-32 0 -58.167 -7.33301 -78.5 -22s-34.5 -37 -42.5 -67l-85 22c13.333 44.667 38.666 80.167 75.999 106.5s81.666 39.5 132.999 39.5c60.667 0 107.334 -14.667 140.001 -44s49 -71 49 -125v-255c0 -16 4.83301 -27.167 14.5 -33.5s23.5 -7.5 41.5 -3.5v-72
c-40.667 -5.33301 -72.334 -3 -95.001 7s-36.667 27.333 -42 52zM217.002 63.999c40 0 73.667 10.8311 101 32.498s41 48.834 41 81.501v90l-102 -22c-50 -10 -84.833 -22.833 -104.5 -38.5s-29.5 -36.5 -29.5 -62.5c0 -25.333 8.33301 -45.166 25 -59.499
s39.667 -21.5 69 -21.5z" />
    <glyph glyph-name="b" unicode="b" horiz-adv-x="594" 
d="M498 73c-20.667 -27.333 -45.4971 -48.167 -74.4971 -62.5s-61.167 -21.5 -96.5 -21.5c-34.667 0 -66.334 7.66699 -95.001 23s-51 36.666 -67 63.999v-76h-90v718h90v-271c16.667 26.667 39.167 47.667 67.5 63s59.833 23 94.5 23
c35.333 0 67.666 -7.16699 96.999 -21.5s54.333 -35.166 75 -62.499c18 -24.667 31.833 -53 41.5 -85s14.5 -66.333 14.5 -103c0 -36 -4.83301 -70.167 -14.5 -102.5s-23.834 -60.833 -42.501 -85.5zM311.003 453.999c-43.333 0 -78.835 -15.668 -106.502 -47.001
s-41.5 -74 -41.5 -128v-37c0 -53.333 13.833 -95.666 41.5 -126.999s63.167 -47 106.5 -47c46.667 0 83.834 17.5 111.501 52.5s41.5 81.833 41.5 140.5s-13.667 105.5 -41 140.5s-64.666 52.5 -111.999 52.5z" />
    <glyph glyph-name="c" unicode="c" horiz-adv-x="520" 
d="M286 455c-47.333 0 -85.333 -17.666 -114 -52.999s-43 -82.333 -43 -141s14.333 -105.5 43 -140.5s66.667 -52.5 114 -52.5c33.333 0 61.333 9.66699 84 29s38 46.666 46 81.999l80 -37c-13.333 -46.667 -38.833 -83.834 -76.5 -111.501s-82.167 -41.5 -133.5 -41.5
c-36.667 0 -70.667 6.83301 -102 20.5s-58 33.5 -80 59.5c-21.333 24.667 -37.5 53.334 -48.5 86.001s-16.5 68 -16.5 106s5.5 73.333 16.5 106s27.167 61.334 48.5 86.001c22 26 48.667 45.833 80 59.5s65.333 20.5 102 20.5c51.333 0 95.5 -13.5 132.5 -40.5
s62.167 -63.5 75.5 -109.5l-78 -39c-8 35.333 -23.333 62.666 -46 81.999s-50.667 29 -84 29z" />
    <glyph glyph-name="d" unicode="d" horiz-adv-x="593" 
d="M267 -11c-35.333 0 -67.4971 7.16797 -96.4971 21.501s-53.833 35.166 -74.5 62.499c-18.667 24.667 -32.834 53.167 -42.501 85.5s-14.5 66.5 -14.5 102.5c0 36.667 4.83301 71 14.5 103s23.5 60.333 41.5 85c20.667 27.333 45.667 48.166 75 62.499
s61.666 21.5 96.999 21.5c34.667 0 66.167 -7.66699 94.5 -23s50.833 -36.333 67.5 -63v271h90v-718h-90v76c-16 -27.333 -38.333 -48.666 -67 -63.999s-60.334 -23 -95.001 -23zM431.003 242.001l-0.00195312 37.001c0 54 -13.833 96.667 -41.5 128s-63.167 47 -106.5 47
c-47.333 0 -84.666 -17.5 -111.999 -52.5s-41 -81.833 -41 -140.5s13.833 -105.5 41.5 -140.5s64.834 -52.5 111.501 -52.5c43.333 0 78.833 15.667 106.5 47s41.5 73.666 41.5 126.999z" />
    <glyph glyph-name="e" unicode="e" horiz-adv-x="540" 
d="M284 -11c-36.667 0 -70.502 6.83008 -101.502 20.4971s-57.5 33.834 -79.5 60.501c-20.667 24 -36.5 52.333 -47.5 85s-16.5 68 -16.5 106c0 36.667 5.33301 71.334 16 104.001s26.334 61.334 47.001 86.001c22 26.667 48.333 47 79 61s63.667 21 99 21
c68.667 0 123 -23.333 163 -70s60 -108.667 60 -186v-30h-378c2.66699 -54.667 18.334 -98.334 47.001 -131.001s66 -49 112 -49c34.667 0 64 8.83301 88 26.5s40 42.167 48 73.5l79 -28c-16 -47.333 -43 -84.166 -81 -110.499s-82.667 -39.5 -134 -39.5zM278.998 455.997
c-38.667 0 -71.168 -12.333 -97.501 -37s-43.5 -59 -51.5 -103h282c-1.33301 42.667 -13.666 76.667 -36.999 102s-55.333 38 -96 38z" />
    <glyph glyph-name="f" unicode="f" horiz-adv-x="307" 
d="M255 729c8.66699 0 18.333 -0.333984 29 -1.00098s17 -1 19 -1v-80c-5.33301 0.666992 -10.5 1.16699 -15.5 1.5s-12.833 0.5 -23.5 0.5c-28.667 0 -49.5 -7.16699 -62.5 -21.5s-19.5 -37.166 -19.5 -68.499v-36h116v-77h-116v-446h-90v446h-79v77h79v42
c0 52 14.167 92.333 42.5 121s68.5 43 120.5 43z" />
    <glyph glyph-name="g" unicode="g" horiz-adv-x="593" 
d="M518 523v-475.999c0 -73.333 -22 -131.333 -66 -174s-103 -64 -177 -64c-58 0 -107 13 -147 39s-67 62.667 -81 110l84 32c8.66699 -33.333 25.667 -59.333 51 -78s56.333 -28 93 -28c50 0 88 13.333 114 40s39 65.334 39 116.001v59
c-14.667 -26.667 -36.334 -47.834 -65.001 -63.501s-60.334 -23.5 -95.001 -23.5s-66.334 6.83301 -95.001 20.5s-53.334 33.167 -74.001 58.5c-18.667 24 -33 51.5 -43 82.5s-15 64.167 -15 99.5s5 68.5 15 99.5s24.333 58.167 43 81.5c20.667 26 45.334 45.667 74.001 59
s60.334 20 95.001 20s66.334 -7.83301 95.001 -23.5s50.334 -36.834 65.001 -63.501v77h90zM429 262.001l-0.00195312 19c0 52.667 -13.5 94.667 -40.5 126s-61.833 47 -104.5 47c-47.333 0 -84.666 -16.333 -111.999 -49s-41 -76.667 -41 -132s13.833 -99.5 41.5 -132.5
s64.834 -49.5 111.501 -49.5c42.667 0 77.5 15.5 104.5 46.5s40.5 72.5 40.5 124.5z" />
    <glyph glyph-name="h" unicode="h" 
d="M165 0h-89.999v718h90v-266c18 26 40.5 46 67.5 60s56.5 21 88.5 21c53.333 0 95.666 -17 126.999 -51s47 -79.667 47 -137v-345h-90v321c0 41.333 -9.33301 73 -28 95s-45.667 33 -81 33c-36 0 -66.833 -12.833 -92.5 -38.5s-38.5 -58.5 -38.5 -98.5v-312z" />
    <glyph glyph-name="i" unicode="i" horiz-adv-x="240" 
d="M169 614h-98v104h98v-104zM75 523h90v-523h-90v523z" />
    <glyph glyph-name="j" unicode="j" horiz-adv-x="240" 
d="M169 614h-98v104h98v-104zM3 -105c25.333 0 43.666 6.16797 54.999 18.501s17 32.166 17 59.499v550h90v-566c0 -44.667 -12.833 -79.167 -38.5 -103.5s-61.834 -36.5 -108.501 -36.5c-9.33301 0 -17.666 0.166992 -24.999 0.5s-15.666 1.16602 -24.999 2.49902v78
c6 -1.33301 11.667 -2.16602 17 -2.49902s11.333 -0.5 18 -0.5z" />
    <glyph glyph-name="k" unicode="k" horiz-adv-x="534" 
d="M75 718h90v-439l232 244h112l-204 -206l221 -317h-105l-180 252l-76 -77v-175h-90v718z" />
    <glyph glyph-name="l" unicode="l" horiz-adv-x="240" 
d="M75 718h90v-718h-90v718z" />
    <glyph glyph-name="m" unicode="m" horiz-adv-x="871" 
d="M199 408c-10.667 -12.667 -18.998 -27 -24.998 -43s-9 -33.333 -9 -52v-313h-90v523h90v-71c16.667 26 38 46 64 60s55 21 87 21c33.333 0 62.333 -7.66699 87 -23s44 -37.333 58 -66c18.667 28 42.667 49.833 72 65.5s61 23.5 95 23.5
c52.667 0 94.667 -17.167 126 -51.5s47 -79.833 47 -136.5v-345h-90v321c0 40.667 -9 72.167 -27 94.5s-43.667 33.5 -77 33.5c-16.667 0 -32.834 -3.66699 -48.501 -11s-29.5 -17.333 -41.5 -30c-10.667 -12.667 -19 -27 -25 -43s-9 -33.333 -9 -52v-313h-90v321
c0 40.667 -9 72.167 -27 94.5s-43.667 33.5 -77 33.5c-16.667 0 -32.834 -3.66699 -48.501 -11s-29.5 -17.333 -41.5 -30z" />
    <glyph glyph-name="n" unicode="n" 
d="M165 0h-89.999v523h90v-71c18 26 40.5 46 67.5 60s56.5 21 88.5 21c53.333 0 95.666 -17 126.999 -51s47 -79.667 47 -137v-345h-90v321c0 41.333 -9.33301 73 -28 95s-45.667 33 -81 33c-36 0 -66.833 -12.833 -92.5 -38.5s-38.5 -58.5 -38.5 -98.5v-312z" />
    <glyph glyph-name="o" unicode="o" 
d="M462 452c20.667 -24 36.334 -52.333 47.001 -85s16 -68 16 -106s-5.33301 -73.333 -16 -106s-26.334 -61 -47.001 -85c-22 -26 -48.5 -46 -79.5 -60s-64.5 -21 -100.5 -21s-69.5 7 -100.5 21s-57.5 34 -79.5 60c-20.667 24 -36.334 52.333 -47.001 85s-16 68 -16 106
s5.33301 73.333 16 106s26.334 61 47.001 85c22 26 48.5 46 79.5 60s64.5 21 100.5 21s69.5 -7 100.5 -21s57.5 -34 79.5 -60zM282 457c-46 0 -82.833 -17.667 -110.5 -53s-41.5 -83 -41.5 -143c0 -59.333 13.833 -106.666 41.5 -141.999s64.5 -53 110.5 -53
s82.833 17.667 110.5 53s41.5 82.666 41.5 141.999c0 60 -13.833 107.667 -41.5 143s-64.5 53 -110.5 53z" />
    <glyph glyph-name="p" unicode="p" horiz-adv-x="594" 
d="M498 73c-20.667 -27.333 -45.4971 -48.167 -74.4971 -62.5s-61.167 -21.5 -96.5 -21.5c-34.667 0 -66.334 7.66699 -95.001 23s-51 36.666 -67 63.999v-256h-90v703h90v-76c16.667 26.667 39.167 47.667 67.5 63s59.833 23 94.5 23
c35.333 0 67.666 -7.16699 96.999 -21.5s54.333 -35.166 75 -62.499c18 -24.667 31.833 -53 41.5 -85s14.5 -66.333 14.5 -103c0 -36 -4.83301 -70.167 -14.5 -102.5s-23.834 -60.833 -42.501 -85.5zM311.003 453.999c-43.333 0 -78.835 -15.668 -106.502 -47.001
s-41.5 -74 -41.5 -128v-37c0 -53.333 13.833 -95.666 41.5 -126.999s63.167 -47 106.5 -47c46.667 0 83.834 17.5 111.501 52.5s41.5 81.833 41.5 140.5s-13.667 105.5 -41 140.5s-64.666 52.5 -111.999 52.5z" />
    <glyph glyph-name="q" unicode="q" horiz-adv-x="594" 
d="M267 -11c-35.333 0 -67.4971 7.16797 -96.4971 21.501s-53.833 35.166 -74.5 62.499c-18.667 24.667 -32.834 53.167 -42.501 85.5s-14.5 66.5 -14.5 102.5c0 36.667 4.83301 71 14.5 103s23.5 60.333 41.5 85c20.667 27.333 45.667 48.166 75 62.499
s61.666 21.5 96.999 21.5c34.667 0 66.167 -7.66699 94.5 -23s50.833 -36.333 67.5 -63v76h90v-703h-90v256c-16 -27.333 -38.333 -48.666 -67 -63.999s-60.334 -23 -95.001 -23zM431.003 242.001l-0.00195312 37.001c0 54 -13.833 96.667 -41.5 128s-63.167 47 -106.5 47
c-47.333 0 -84.666 -17.5 -111.999 -52.5s-41 -81.833 -41 -140.5s13.833 -105.5 41.5 -140.5s64.834 -52.5 111.501 -52.5c43.333 0 78.833 15.667 106.5 47s41.5 73.666 41.5 126.999z" />
    <glyph glyph-name="r" unicode="r" horiz-adv-x="370" 
d="M310 527c6 0 11.999 -0.167969 17.999 -0.500977s12 -0.833008 18 -1.5v-91c-7.33301 1.33301 -14.333 2.33301 -21 3s-14.334 1 -23.001 1c-39.333 0 -72 -14.167 -98 -42.5s-39 -64.833 -39 -109.5v-286h-90v523h90v-89c12.667 28.667 31.834 51.334 57.501 68.001
s54.834 25 87.501 25z" />
    <glyph glyph-name="s" unicode="s" horiz-adv-x="486" 
d="M247 -11c-51.333 0 -97.834 10.834 -139.501 32.501s-71.834 51.5 -90.501 89.5l70 51c14 -30 35.5 -53.833 64.5 -71.5s60.833 -26.5 95.5 -26.5s62.5 7.33301 83.5 22s31.5 35 31.5 61c0 15.333 -3.83301 28 -11.5 38s-20.5 18 -38.5 24
c-7.33301 2.66699 -15.666 5.16699 -24.999 7.5s-29.666 6.83301 -60.999 13.5c-36.667 8 -63 14.833 -79 20.5s-29.667 12.167 -41 19.5c-19.333 11.333 -33.5 25.666 -42.5 42.999s-13.5 38 -13.5 62c0 46 18 83.833 54 113.5s82 44.5 138 44.5
c45.333 0 86.333 -9.83301 123 -29.5s63 -45.834 79 -78.501l-64 -51c-14 27.333 -33.333 48.333 -58 63s-52.667 22 -84 22c-30 0 -54.167 -7 -72.5 -21s-27.5 -32.667 -27.5 -56c0 -13.333 3.5 -24.333 10.5 -33s18.167 -16 33.5 -22l23.5 -7
c9 -2.66699 26.167 -6.66699 51.5 -12c44.667 -10.667 74.5 -18.5 89.5 -23.5s28.167 -10.833 39.5 -17.5c22 -12.667 38.167 -28.167 48.5 -46.5s15.5 -40.166 15.5 -65.499c0 -48 -19.333 -87.667 -58 -119s-87 -47 -145 -47z" />
    <glyph glyph-name="t" unicode="t" horiz-adv-x="340" 
d="M229 -5c-50 0 -85.832 10.333 -107.499 31s-32.5 53.667 -32.5 99v321h-81v77h81v153h89v-153h119v-77h-119v-307c0 -23.333 5.16699 -40 15.5 -50s29.5 -15 57.5 -15c12 0 22.167 0.5 30.5 1.5s17.166 2.5 26.499 4.5v-77c-12 -2.66699 -24.667 -4.66699 -38 -6
s-27 -2 -41 -2z" />
    <glyph glyph-name="u" unicode="u" 
d="M400 523h90v-523h-90v72c-18 -26.667 -40.333 -47.167 -67 -61.5s-56 -21.5 -88 -21.5c-54 0 -96.667 17 -128 51s-47 79.667 -47 137v346h90v-327c0 -40.667 9.16699 -71.5 27.5 -92.5s45.5 -31.5 81.5 -31.5c36.667 0 67.667 12.833 93 38.5s38 58.167 38 97.5v315z
" />
    <glyph glyph-name="v" unicode="v" horiz-adv-x="507" 
d="M494 523l-196 -523h-89l-196 523h95l147 -413l145 413h94z" />
    <glyph glyph-name="w" unicode="w" horiz-adv-x="720" 
d="M216 134l108 389h76l108 -390l109 390h90l-159 -523h-79l-109 388l-109 -388h-79l-159 523h93z" />
    <glyph glyph-name="x" unicode="x" horiz-adv-x="508" 
d="M499 0h-102l-145 206l-144 -206h-98l191 273l-175 250h103l126 -183l128 183h99l-175 -250z" />
    <glyph glyph-name="y" unicode="y" horiz-adv-x="507" 
d="M494 523l-225.002 -580c-18 -46.667 -39.667 -79.834 -65 -99.501s-57.666 -29.5 -96.999 -29.5c-10.667 0 -19.5 0.333008 -26.5 1s-14.5 1.66699 -22.5 3v78c8 -2 15.167 -3.33301 21.5 -4s13.5 -1 21.5 -1c20.667 0 36.834 4.83301 48.501 14.5
s22.5 26.834 32.5 51.501l25 62l-194 504h95l147 -400l145 400h94z" />
    <glyph glyph-name="z" unicode="z" horiz-adv-x="495" 
d="M154 77h299v-77h-412v68l302 378h-298v77h405v-69z" />
    <glyph glyph-name="braceleft" unicode="{" horiz-adv-x="365" 
d="M67 283l-47 -0.00195312v74h47c20 0 35.167 6.66699 45.5 20s15.5 33 15.5 59v134c0 52.667 15.833 93.834 47.5 123.501s75.5 44.5 131.5 44.5h40v-75h-25c-38 0 -65.833 -9 -83.5 -27s-26.5 -46.667 -26.5 -86v-114c0 -29.333 -5.5 -53.5 -16.5 -72.5
s-28.167 -33.5 -51.5 -43.5c23.333 -10 40.5 -24.5 51.5 -43.5s16.5 -43.167 16.5 -72.5v-114c0 -39.333 8.83301 -68 26.5 -86s45.5 -27 83.5 -27h25v-75h-40c-56 0 -99.833 14.833 -131.5 44.5s-47.5 70.834 -47.5 123.501v134c0 26 -5.16699 45.667 -15.5 59
s-25.5 20 -45.5 20z" />
    <glyph glyph-name="bar" unicode="|" horiz-adv-x="250" 
d="M169 -98h-88v836h88v-836z" />
    <glyph glyph-name="braceright" unicode="}" horiz-adv-x="365" 
d="M345 357v-73.998h-47c-20 0 -35.167 -6.66699 -45.5 -20s-15.5 -33 -15.5 -59v-134c0 -52.667 -15.833 -93.834 -47.5 -123.501s-75.5 -44.5 -131.5 -44.5h-40v75h25c38 0 65.833 9 83.5 27s26.5 46.667 26.5 86v114c0 29.333 5.5 53.5 16.5 72.5s28.167 33.5 51.5 43.5
c-23.333 10 -40.5 24.5 -51.5 43.5s-16.5 43.167 -16.5 72.5v114c0 39.333 -8.83301 68 -26.5 86s-45.5 27 -83.5 27h-25v75h40c56 0 99.833 -14.833 131.5 -44.5s47.5 -70.834 47.5 -123.501v-134c0 -26 5.16699 -45.667 15.5 -59s25.5 -20 45.5 -20h47z" />
    <glyph glyph-name="asciitilde" unicode="~" horiz-adv-x="481" 
d="M169 392c11.333 0 22.667 -2.49805 34 -7.49805s26.333 -15.167 45 -30.5c15.333 -12.667 26.833 -20.834 34.5 -24.501s15.167 -5.5 22.5 -5.5c15.333 0 27.166 5.33301 35.499 16s14.833 28.334 19.5 53.001h71c-4 -50.667 -16.5 -90.334 -37.5 -119.001
s-48.167 -43 -81.5 -43c-11.333 0 -22.5 2.5 -33.5 7.5s-25.833 15.167 -44.5 30.5c-15.333 13.333 -26.833 21.833 -34.5 25.5s-15.167 5.5 -22.5 5.5c-15.333 0 -27.166 -5.33301 -35.499 -16s-14.833 -28.334 -19.5 -53.001h-71c4 50 16.5 89.333 37.5 118
s47.833 43 80.5 43z" />
    <glyph glyph-name="uni00A0" unicode="&#xa0;" horiz-adv-x="211" 
 />
    <glyph glyph-name="exclamdown" unicode="&#xa1;" horiz-adv-x="222" 
d="M145 505.013h-67l-23 -504.969h113zM168 718h-114v-117.993h114v117.993z" />
    <glyph glyph-name="cent" unicode="&#xa2;" horiz-adv-x="541" 
d="M316 -106l-70 0.000976562v98c-64.667 10 -116.5 39.833 -155.5 89.5s-58.5 111.167 -58.5 184.5c0 72.667 19.5 133.834 58.5 183.501s90.833 79.5 155.5 89.5v107h70v-105c47.333 -4 88.166 -19.5 122.499 -46.5s58.833 -62.833 73.5 -107.5l-75 -39
c-8 33.333 -22.333 60.166 -43 80.499s-46.667 32.5 -78 36.5v-399c31.333 4 57.333 16.167 78 36.5s35 47.166 43 80.499l75 -39c-14.667 -44.667 -39.167 -80.5 -73.5 -107.5s-75.166 -42.5 -122.499 -46.5v-96zM118 266.001c0 -52 11.333 -95.333 34 -130s54 -57 94 -67
v393c-40 -10 -71.333 -32.333 -94 -67s-34 -77.667 -34 -129z" />
    <glyph glyph-name="sterling" unicode="&#xa3;" horiz-adv-x="613" 
d="M187 295l-117.002 -0.00292969v72h79c-16 30 -27 54.833 -33 74.5s-9 39.167 -9 58.5c0 32.667 5.83301 63.167 17.5 91.5s28.167 52.833 49.5 73.5s46.333 36.5 75 47.5s59.667 16.5 93 16.5c66 0 119.667 -20.833 161 -62.5s62 -95.5 62 -161.5
c0 -14.667 -1.16699 -28.667 -3.5 -42s-5.83301 -27.333 -10.5 -42h-88c5.33301 12 9.33301 24.833 12 38.5s4 27.167 4 40.5c0 44.667 -12.333 80.667 -37 108s-58 41 -100 41c-43.333 0 -78.333 -14.167 -105 -42.5s-40 -65.166 -40 -110.499
c0 -17.333 2.66699 -34.833 8 -52.5s17 -43.167 35 -76.5h158v-72h-125c5.33301 -14.667 9.16602 -29.167 11.499 -43.5s3.5 -29.166 3.5 -44.499c0 -9.33301 -0.666992 -19.5 -2 -30.5s-3.33301 -21.833 -6 -32.5c18.667 -15.333 32.5 -26 41.5 -32l24.5 -16
c14 -8 27.333 -13.833 40 -17.5s25.334 -5.5 38.001 -5.5c30.667 0 53.334 9.5 68.001 28.5s22.667 48.5 24 88.5h80c0 -61.333 -14.5 -110.166 -43.5 -146.499s-67.833 -54.5 -116.5 -54.5c-30.667 0 -60 6.33301 -88 19s-59.667 34.667 -95 66
c-15.333 -27.333 -34.166 -48.333 -56.499 -63s-46.833 -22 -73.5 -22c-35.333 0 -64 10.5 -86 31.5s-32.667 48.167 -32 81.5c0 32.667 11.833 59.667 35.5 81s53.5 32 89.5 32c13.333 0 26.5 -1.83301 39.5 -5.5s26.833 -9.16699 41.5 -16.5v4.5v4.5
c0 14.667 -2 29.5 -6 44.5s-10 31.167 -18 48.5zM130.998 150.997c-16 0 -28.833 -4.33203 -38.5 -12.999s-14.5 -20.334 -14.5 -35.001c0 -13.333 4.33301 -24.333 13 -33s20 -13 34 -13c16 0 30.333 5.66699 43 17s22.667 27.333 30 48c-12.667 10 -24.5 17.333 -35.5 22
s-21.5 7 -31.5 7z" />
    <glyph glyph-name="yen" unicode="&#xa5;" horiz-adv-x="618" 
d="M264 189h-180v69h180v82h-180v69h139l-214 309h105l196 -292l197 292h103l-214 -309h139v-69h-181v-82h181v-69h-181v-189h-90v189z" />
    <glyph glyph-name="section" unicode="&#xa7;" horiz-adv-x="506" 
d="M247 -11c-51.333 0 -98.001 10.834 -140.001 32.501s-72.667 51.5 -92 89.5l71 51c13.333 -29.333 34.833 -53 64.5 -71s62.167 -27 97.5 -27s63.5 7.16699 84.5 21.5s31.5 34.166 31.5 59.499c0 16 -4 29 -12 39s-21.333 18.333 -40 25
c-6.66699 2.66699 -15 5.16699 -25 7.5s-31 6.83301 -63 13.5c-36.667 8 -63 14.833 -79 20.5s-30 12.167 -42 19.5c-18.667 11.333 -32.667 25.666 -42 42.999s-14 38 -14 62c0 20.667 4.33301 39.834 13 57.501s21.667 33.167 39 46.5c-12.667 12 -22.167 25.5 -28.5 40.5
s-9.5 32.167 -9.5 51.5c0 46 18.167 83.833 54.5 113.5s82.833 44.5 139.5 44.5c45.333 0 86.5 -10 123.5 -30s63.5 -46.333 79.5 -79l-65 -51c-14 27.333 -33.167 48.333 -57.5 63s-52.833 22 -85.5 22c-30.667 0 -55.167 -6.83301 -73.5 -20.5s-27.5 -32.167 -27.5 -55.5
c0 -13.333 3.66699 -24.333 11 -33s19 -16 35 -22c6.66699 -2.66699 14.834 -5.33398 24.501 -8.00098s26.834 -6.66699 51.501 -12c42 -9.33301 71.167 -16.666 87.5 -21.999s30.166 -11.666 41.499 -18.999c22 -12 38.167 -27.333 48.5 -46s15.5 -40.667 15.5 -66
c0 -20.667 -3.83301 -39.834 -11.5 -57.501s-19.167 -33.167 -34.5 -46.5c12 -12 20.833 -25.5 26.5 -40.5s8.5 -31.833 8.5 -50.5c0 -48.667 -19.333 -88.5 -58 -119.5s-88 -46.5 -148 -46.5zM179.999 327.001l23.502 -6.99805c9 -2.66699 26.167 -6.66699 51.5 -12
l63.5 -15c11 -2.66699 20.833 -5.66699 29.5 -9c9.33301 7.33301 16.333 15.666 21 24.999s7 19.666 7 30.999c0 16 -3.83301 29 -11.5 39s-20.5 18.333 -38.5 25c-6.66699 2.66699 -14.334 5.16699 -23.001 7.5s-29.667 7.16602 -63 14.499
c-22 4.66699 -37.333 8.16699 -46 10.5s-16.334 4.5 -23.001 6.5c-12 -6.66699 -21 -15.167 -27 -25.5s-9 -22.166 -9 -35.499s3.5 -24.333 10.5 -33s18.5 -16 34.5 -22z" />
    <glyph glyph-name="dieresis" unicode="&#xa8;" horiz-adv-x="600" 
d="M264 610h-100v104h100v-104zM436 610h-100v104h100v-104z" />
    <glyph glyph-name="copyright" unicode="&#xa9;" horiz-adv-x="823" 
d="M675 623c34.667 -34 60.999 -73.666 78.999 -118.999s27 -93.666 27 -144.999c0 -50.667 -9.16699 -98.667 -27.5 -144s-44.5 -85 -78.5 -119c-34 -34.667 -73.667 -61.167 -119 -79.5s-93.333 -27.5 -144 -27.5s-98.667 9.16699 -144 27.5s-85.333 44.5 -120 78.5
c-34 34 -60.167 73.667 -78.5 119s-27.5 93.666 -27.5 144.999s9.16699 99.666 27.5 144.999s44.5 85 78.5 119s73.833 60.167 119.5 78.5s93.834 27.5 144.501 27.5s98.667 -9.16699 144 -27.5s85 -44.5 119 -78.5zM636.999 133.001c28.667 29.333 50.833 63.5 66.5 102.5
s23.5 80.167 23.5 123.5c0 44 -7.66699 85.333 -23 124s-37.666 72.667 -66.999 102s-63.333 52 -102 68s-79.667 24 -123 24s-84.5 -7.83301 -123.5 -23.5s-73.167 -38.5 -102.5 -68.5c-28.667 -29.333 -50.834 -63.333 -66.501 -102s-23.5 -80 -23.5 -124
c0 -43.333 7.83301 -84.5 23.5 -123.5s38.167 -73.167 67.5 -102.5s63.333 -52 102 -68s79.667 -24 123 -24c42.667 0 83.5 8 122.5 24s73.167 38.667 102.5 68zM416.998 150.001c-56 0 -101.333 19.167 -136 57.5s-52 89.166 -52 152.499
c0 62.667 17.333 113.334 52 152.001s80 58 136 58c40 0 73.667 -9.66699 101 -29s47.333 -47 60 -83l-74 -28c-5.33301 22 -15.666 39 -30.999 51s-34 18 -56 18c-32.667 0 -58.667 -12.5 -78 -37.5s-29 -58.833 -29 -101.5s9.66699 -76.667 29 -102s45.333 -38 78 -38
c22 0 40.667 6 56 18s25.666 29 30.999 51l74 -27c-12 -36.667 -31.833 -64.5 -59.5 -83.5s-61.5 -28.5 -101.5 -28.5z" />
    <glyph glyph-name="ordfeminine" unicode="&#xaa;" horiz-adv-x="399" 
d="M270 384c-12 -15.333 -27.999 -27.1709 -47.999 -35.5039s-42 -12.5 -66 -12.5c-36.667 0 -66.5 10 -89.5 30s-34.5 46.333 -34.5 79s11.5 59 34.5 79s60.167 34.667 111.5 44l86 16v14c0 20.667 -5.83301 36.334 -17.5 47.001s-28.834 16 -51.501 16
c-21.333 0 -38.666 -5 -51.999 -15s-22.666 -25 -27.999 -45l-72 15c8.66699 33.333 27 59.833 55 79.5s61.333 29.5 100 29.5c45.333 0 80.166 -10.667 104.499 -32s36.5 -51.666 36.5 -90.999v-174c0 -11.333 3.16699 -19.166 9.5 -23.499
s16.166 -5.16602 29.499 -2.49902v-59c-29.333 -4.66699 -53.333 -3.5 -72 3.5s-30.667 19.5 -36 37.5zM169.001 395.995c26.667 0 49.167 7.16602 67.5 21.499s27.5 32.5 27.5 54.5v57l-70 -14c-32 -6 -54.5 -14.167 -67.5 -24.5s-19.5 -24.166 -19.5 -41.499
c0 -16.667 5.5 -29.667 16.5 -39s26.167 -14 45.5 -14zM374.001 203.994h-341v69h341v-69z" />
    <glyph glyph-name="guillemotleft" unicode="&#xab;" horiz-adv-x="392" 
d="M180 84l-153 137v90l153 137v-94l-88 -88l88 -88v-94zM365 84l-153 137v90l153 137v-94l-88 -88l88 -88v-94z" />
    <glyph glyph-name="registered" unicode="&#xae;" horiz-adv-x="514" 
d="M410 667c20 -20 35.333 -43.167 46 -69.5s16 -54.166 16 -83.499c0 -30 -5.33301 -58.167 -16 -84.5s-26 -49.166 -46 -68.499c-20 -20 -43.167 -35.333 -69.5 -46s-54.166 -16 -83.499 -16s-57.166 5.33301 -83.499 16s-49.5 26 -69.5 46s-35.333 43.167 -46 69.5
s-16 54.166 -16 83.499s5.33301 57.166 16 83.499s26 49.5 46 69.5s43.167 35.333 69.5 46s54.166 16 83.499 16s57.166 -5.33301 83.499 -16s49.5 -26 69.5 -46zM388 382c16.667 17.333 29.5 37.333 38.5 60s13.5 46.667 13.5 72s-4.5 49.333 -13.5 72
s-21.833 42.667 -38.5 60c-17.333 17.333 -37.166 30.666 -59.499 39.999s-46.166 14 -71.499 14s-49.166 -4.66699 -71.499 -14s-42.166 -22.666 -59.499 -39.999c-16.667 -17.333 -29.5 -37.333 -38.5 -60s-13.5 -46.667 -13.5 -72s4.5 -49.333 13.5 -72
s21.833 -42.667 38.5 -60c17.333 -17.333 37.166 -30.666 59.499 -39.999s46.166 -14 71.499 -14s49.166 4.66699 71.499 14s42.166 22.666 59.499 39.999zM300 498l59 -89.001h-56l-51 78h-35v-78h-50v216h100c26 0 46.333 -5.83301 61 -17.5s22 -28.167 22 -49.5
c0 -14 -4.33301 -26.167 -13 -36.5s-21 -18.166 -37 -23.499zM298 554.999c0 9.33301 -3.33301 16.667 -10 22s-16 8 -28 8h-43v-60h43c12.667 0 22.167 2.5 28.5 7.5s9.5 12.5 9.5 22.5z" />
    <glyph glyph-name="macron" unicode="&#xaf;" horiz-adv-x="600" 
d="M437 678v-72h-274v72h274z" />
    <glyph glyph-name="degree" unicode="&#xb0;" horiz-adv-x="316" 
d="M17 588c0 39.333 13.6689 72.666 41.002 99.999s60.666 41 99.999 41s72.666 -13.667 99.999 -41s41 -60.666 41 -99.999c0 -40 -13.667 -73.833 -41 -101.5s-60.666 -41.5 -99.999 -41.5c-38.667 0 -71.834 14 -99.501 42s-41.5 61.667 -41.5 101zM81.002 588
c0 -21.333 7.5 -39.667 22.5 -55s33.167 -23 54.5 -23c22 0 40.333 7.5 55 22.5s22 33.5 22 55.5c0 21.333 -7.5 39.5 -22.5 54.5s-33.167 22.5 -54.5 22.5s-39.5 -7.66699 -54.5 -23s-22.5 -33.333 -22.5 -54z" />
    <glyph glyph-name="uni00B2" unicode="&#xb2;" horiz-adv-x="380" 
d="M46 320l0.000976562 60.998l135 107c25.333 20 43 37.833 53 53.5s15 32.5 15 50.5c0 19.333 -6 34.833 -18 46.5s-27.667 17.5 -47 17.5s-35 -6.16699 -47 -18.5s-18 -28.166 -18 -47.499c0 -8 0.833008 -15.833 2.5 -23.5s4.16699 -14.167 7.5 -19.5h-74
c-2.66699 8.66699 -4.83398 17 -6.50098 25s-2.5 15.667 -2.5 23c0 36.667 13.5 67.334 40.5 92.001s60.167 37 99.5 37c41.333 0 74.5 -11.5 99.5 -34.5s37.5 -53.833 37.5 -92.5c0 -27.333 -7.33301 -52.833 -22 -76.5s-38.667 -48.5 -72 -74.5l-78 -60h181v-66h-286z" />
    <glyph glyph-name="uni00B3" unicode="&#xb3;" horiz-adv-x="380" 
d="M334 432c0 -34 -13.1689 -62.168 -39.502 -84.501s-60.166 -33.5 -101.499 -33.5c-42 0 -76.667 10.833 -104 32.5s-44 51.834 -50 90.501l77 12c2.66699 -21.333 10.834 -38.333 24.501 -51s30.834 -19 51.501 -19s37.167 5.5 49.5 16.5s18.5 25.833 18.5 44.5
c0 17.333 -6.5 31.166 -19.5 41.499s-30.167 15.5 -51.5 15.5h-41v55h40c19.333 0 35.166 4.83301 47.499 14.5s18.5 22.5 18.5 38.5s-5.66699 29 -17 39s-26 15 -44 15c-18.667 0 -34.5 -5.83301 -47.5 -17.5s-21.167 -27.167 -24.5 -46.5l-72 8
c5.33301 36 21.333 65.167 48 87.5s59.667 33.5 99 33.5c40 0 72 -10.5 96 -31.5s36 -48.5 36 -82.5c0 -20 -6.66699 -38 -20 -54s-29.666 -26 -48.999 -30c23.333 -6.66699 41.666 -18.167 54.999 -34.5s20 -36.166 20 -59.499z" />
    <glyph glyph-name="acute" unicode="&#xb4;" horiz-adv-x="600" 
d="M279 579h-71l59 139h113z" />
    <glyph glyph-name="paragraph" unicode="&#xb6;" horiz-adv-x="575" 
d="M461 0l-90 -0.000976562v636h-72v-274h-69c-60 0 -107.833 16 -143.5 48s-53.5 74.667 -53.5 128c0 54.667 18.667 98.334 56 131.001s87.333 49 150 49h303v-82h-81v-636z" />
    <glyph glyph-name="periodcentered" unicode="&#xb7;" horiz-adv-x="215" 
d="M164 232h-114v118h114v-118z" />
    <glyph glyph-name="cedilla" unicode="&#xb8;" horiz-adv-x="600" 
d="M402 -106c0 -24.667 -10.5 -44.834 -31.5 -60.501s-47.167 -23.5 -78.5 -23.5c-20.667 0 -39.667 3.33301 -57 10s-31.333 16.334 -42 29.001l34 47c8.66699 -10.667 18.167 -18.667 28.5 -24s21.5 -8 33.5 -8c14.667 0 26.167 2.83301 34.5 8.5s12.5 13.834 12.5 24.501
c0 11.333 -6.16699 20.166 -18.5 26.499s-32.5 10.5 -60.5 12.5l22 74h49l-11 -37c26.667 -3.33301 47.5 -11.833 62.5 -25.5s22.5 -31.5 22.5 -53.5z" />
    <glyph glyph-name="uni00B9" unicode="&#xb9;" horiz-adv-x="380" 
d="M166 386l0.00195312 215.002h-100v52l42 2c25.333 1.33301 43.666 6.66602 54.999 15.999s18.666 25.666 21.999 48.999h57v-334h85v-66h-259v66h98z" />
    <glyph glyph-name="ordmasculine" unicode="&#xba;" horiz-adv-x="428" 
d="M213 725c52.667 0 95.334 -18 128.001 -54s49 -83 49 -141s-16.333 -105 -49 -141s-75.334 -54 -128.001 -54s-95.334 18 -128.001 54s-49 83 -49 141s16.333 105 49 141s75.334 54 128.001 54zM213 661c-30.667 0 -55 -11.833 -73 -35.5s-27 -55.5 -27 -95.5
s9 -71.667 27 -95s42.333 -35 73 -35s55.167 11.667 73.5 35s27.5 55 27.5 95s-9.16699 71.833 -27.5 95.5s-42.833 35.5 -73.5 35.5zM377 204h-325v69h325v-69z" />
    <glyph glyph-name="guillemotright" unicode="&#xbb;" horiz-adv-x="392" 
d="M365 311v-90l-153 -137v94l88 88l-88 88v94zM180 311v-90l-153 -137v94l88 88l-88 88v94z" />
    <glyph glyph-name="onequarter" unicode="&#xbc;" horiz-adv-x="880" 
d="M786 98v-98h-71v98h-188v55l164 245h95v-241h69v-59h-69zM714 336l-123 -179h123v179zM178 0l512 718h79l-511 -718h-80zM166 386l0.00195312 215.002h-100v52l42 2c25.333 1.33301 43.666 6.66602 54.999 15.999s18.666 25.666 21.999 48.999h57v-334h85v-66h-259v66h98
z" />
    <glyph glyph-name="onehalf" unicode="&#xbd;" horiz-adv-x="906" 
d="M178 0l512 718h79l-511 -718h-80zM583 0l0.000976562 60.998l135 107c25.333 20 43 37.833 53 53.5s15 32.5 15 50.5c0 19.333 -6 34.833 -18 46.5s-27.667 17.5 -47 17.5s-35 -6.16699 -47 -18.5s-18 -28.166 -18 -47.499c0 -8 0.833008 -15.833 2.5 -23.5
s4.16699 -14.167 7.5 -19.5h-74c-2.66699 8.66699 -4.83398 17 -6.50098 25s-2.5 15.667 -2.5 23c0 36.667 13.5 67.334 40.5 92.001s60.167 37 99.5 37c41.333 0 74.5 -11.5 99.5 -34.5s37.5 -53.833 37.5 -92.5c0 -27.333 -7.33301 -52.833 -22 -76.5
s-38.667 -48.5 -72 -74.5l-78 -60h181v-66h-286zM166.001 385.998l0.00195312 215.002h-100v52l42 2c25.333 1.33301 43.666 6.66602 54.999 15.999s18.666 25.666 21.999 48.999h57v-334h85v-66h-259v66h98z" />
    <glyph glyph-name="threequarters" unicode="&#xbe;" horiz-adv-x="860" 
d="M780 98v-98h-71v98h-188v55l164 245h95v-241h69v-59h-69zM708 336l-123 -179h123v179zM172 0l512 718h79l-511 -718h-80zM334 432c0 -34 -13.1689 -62.168 -39.502 -84.501s-60.166 -33.5 -101.499 -33.5c-42 0 -76.667 10.833 -104 32.5s-44 51.834 -50 90.501l77 12
c2.66699 -21.333 10.834 -38.333 24.501 -51s30.834 -19 51.501 -19s37.167 5.5 49.5 16.5s18.5 25.833 18.5 44.5c0 17.333 -6.5 31.166 -19.5 41.499s-30.167 15.5 -51.5 15.5h-41v55h40c19.333 0 35.166 4.83301 47.499 14.5s18.5 22.5 18.5 38.5s-5.66699 29 -17 39
s-26 15 -44 15c-18.667 0 -34.5 -5.83301 -47.5 -17.5s-21.167 -27.167 -24.5 -46.5l-72 8c5.33301 36 21.333 65.167 48 87.5s59.667 33.5 99 33.5c40 0 72 -10.5 96 -31.5s36 -48.5 36 -82.5c0 -20 -6.66699 -38 -20 -54s-29.666 -26 -48.999 -30
c23.333 -6.66699 41.666 -18.167 54.999 -34.5s20 -36.166 20 -59.499z" />
    <glyph glyph-name="questiondown" unicode="&#xbf;" horiz-adv-x="514" 
d="M113.024 212.031c0 -39.9971 12.999 -72.3281 38.998 -96.9932c25.998 -24.665 59.9961 -36.998 101.993 -36.998c43.9971 0 80.1611 13.333 108.492 39.998c28.332 26.665 46.1641 63.9961 53.4971 111.993l90.9941 -14.999
c-9.33301 -65.3291 -37.3311 -118.159 -83.9941 -158.49c-46.6641 -40.3311 -104.327 -60.4961 -172.99 -60.4961c-68.6621 0 -124.492 19.665 -167.489 58.9961s-64.4961 89.9941 -64.4961 151.99c0 27.332 4.83301 52.9971 14.499 76.9961
c9.66602 23.998 23.499 45.6631 41.498 64.9961c17.999 17.999 38.8311 32.8311 62.4961 44.4971s48.8301 19.165 75.4951 22.498v95.9941h86.9941v-159.99c-57.3291 0 -102.659 -12.499 -135.99 -37.4971c-33.3311 -24.999 -49.9971 -59.1641 -49.9971 -102.495z
M198.02 725h113.993v-117.993h-113.993v117.993z" />
    <glyph glyph-name="Agrave" unicode="&#xc0;" horiz-adv-x="692" 
d="M16 0l277 718h106l277 -718h-97l-73 189h-322l-72 -189h-96zM474 273l-130 337l-128 -337h258zM284 910l101 -145h-72l-155 145h126z" />
    <glyph glyph-name="Aacute" unicode="&#xc1;" horiz-adv-x="692" 
d="M16 0l277 718h106l277 -718h-97l-73 189h-322l-72 -189h-96zM474 273l-130 337l-128 -337h258zM375 765h-72l101 145h126z" />
    <glyph glyph-name="Acircumflex" unicode="&#xc2;" horiz-adv-x="692" 
d="M16 0l277 718h106l277 -718h-97l-73 189h-322l-72 -189h-96zM474 273l-130 337l-128 -337h258zM291 910h108l117 -145h-73l-98 87l-98 -87h-73z" />
    <glyph glyph-name="Atilde" unicode="&#xc3;" horiz-adv-x="692" 
d="M16 0l277 718h106l277 -718h-97l-73 189h-322l-72 -189h-96zM474 273l-130 337l-128 -337h258zM274 905c12 0 23.8311 -2.33398 35.498 -7.00098s27.167 -14.667 46.5 -30c14.667 -11.333 25.834 -18.666 33.501 -21.999s14.834 -5 21.501 -5c14 0 25 5.33301 33 16
s13.667 27 17 49h63c-3.33301 -43.333 -14.5 -77.5 -33.5 -102.5s-43.833 -37.5 -74.5 -37.5c-12 0 -24 2.5 -36 7.5s-27.667 14.833 -47 29.5c-14.667 12 -25.667 19.667 -33 23s-14.333 5 -21 5c-14 0 -25 -5.33301 -33 -16s-13.667 -27 -17 -49h-63
c2.66699 43.333 13.5 77.333 32.5 102s44.167 37 75.5 37z" />
    <glyph glyph-name="Adieresis" unicode="&#xc4;" horiz-adv-x="692" 
d="M16 0l277 718h106l277 -718h-97l-73 189h-322l-72 -189h-96zM474 273l-130 337l-128 -337h258zM306 769h-100v104h100v-104zM484 769h-100v104h100v-104z" />
    <glyph glyph-name="Aring" unicode="&#xc5;" horiz-adv-x="692" 
d="M228 791c0 31.333 11.334 58 34.001 80s50.334 33 83.001 33c33.333 0 61.166 -10.833 83.499 -32.5s33.5 -48.5 33.5 -80.5c0 -20 -4.83301 -38.5 -14.5 -55.5s-22.834 -30.5 -39.501 -40.5l268 -695h-97l-73 189h-322l-72 -189h-96l268 694
c-17.333 10 -31 23.667 -41 41s-15 36 -15 56zM345.001 848c-16 0 -29.333 -5.5 -40 -16.5s-16 -24.5 -16 -40.5c0 -16.667 5.33301 -30.334 16 -41.001s24 -16 40 -16s29.333 5.33301 40 16s16 24.334 16 41.001c0 16 -5.33301 29.5 -16 40.5s-24 16.5 -40 16.5z
M474.001 273l-130 337l-128 -337h258z" />
    <glyph glyph-name="AE" unicode="&#xc6;" horiz-adv-x="1029" 
d="M10 0l449 718h523v-84h-375v-221h317v-84h-317v-245h375v-84h-469v195h-278l-121 -195h-104zM513 641l-225 -362h225v362z" />
    <glyph glyph-name="Ccedilla" unicode="&#xc7;" horiz-adv-x="659" 
d="M187 553c-17.333 -25.333 -30.6641 -54.5 -39.9971 -87.5s-14 -68.5 -14 -106.5s4.66699 -73.5 14 -106.5s22.666 -62.167 39.999 -87.5c20.667 -29.333 45.834 -51.833 75.501 -67.5s62.167 -23.5 97.5 -23.5c46 0 85.167 12.667 117.5 38s55.166 61 68.499 107l91 -30
c-21.333 -63.333 -56 -112.5 -104 -147.5s-105 -52.5 -171 -52.5l-5 -16c26.667 -3.33301 47.5 -11.833 62.5 -25.5s22.5 -31.5 22.5 -53.5c0 -24.667 -10.5 -44.834 -31.5 -60.501s-47.167 -23.5 -78.5 -23.5c-20.667 0 -39.667 3.33301 -57 10s-31.333 16.334 -42 29.001
l34 47c8.66699 -10.667 18.167 -18.667 28.5 -24s21.5 -8 33.5 -8c14.667 0 26.167 2.83301 34.5 8.5s12.5 13.834 12.5 24.501c0 11.333 -6.16699 20.166 -18.5 26.499s-32.5 10.5 -60.5 12.5l17 56c-42.667 6 -81.667 20 -117 42s-65.666 51 -90.999 87
c-22.667 32 -39.834 68.333 -51.501 109s-17.5 83.667 -17.5 129c0 50 7 97 21 141s34.667 82.667 62 116c29.333 36 64.666 63.833 105.999 83.5s86 29.5 134 29.5c66.667 0 124.167 -17.5 172.5 -52.5s83.166 -84.167 104.499 -147.5l-91 -30
c-13.333 46 -36.166 81.667 -68.499 107s-71.5 38 -117.5 38c-35.333 0 -67.833 -7.83301 -97.5 -23.5s-54.834 -38.167 -75.501 -67.5z" />
    <glyph glyph-name="Egrave" unicode="&#xc8;" horiz-adv-x="595" 
d="M79 0v718h469v-84h-374v-221h317v-84h-317v-245h374v-84h-469zM284 910l101 -145h-72l-155 145h126z" />
    <glyph glyph-name="Eacute" unicode="&#xc9;" horiz-adv-x="595" 
d="M79 0v718h469v-84h-374v-221h317v-84h-317v-245h374v-84h-469zM317 765h-72l101 145h126z" />
    <glyph glyph-name="Ecircumflex" unicode="&#xca;" horiz-adv-x="595" 
d="M79 0v718h469v-84h-374v-221h317v-84h-317v-245h374v-84h-469zM265 910h108l117 -145h-73l-98 87l-98 -87h-73z" />
    <glyph glyph-name="Edieresis" unicode="&#xcb;" horiz-adv-x="595" 
d="M79 0v718h469v-84h-374v-221h317v-84h-317v-245h374v-84h-469zM276 769h-100v104h100v-104zM454 769h-100v104h100v-104z" />
    <glyph glyph-name="Igrave" unicode="&#xcc;" horiz-adv-x="254" 
d="M79 718h96v-718h-96v718zM75 910l101 -145h-72l-155 145h126z" />
    <glyph glyph-name="Iacute" unicode="&#xcd;" horiz-adv-x="254" 
d="M79 718h96v-718h-96v718zM155 765h-72l101 145h126z" />
    <glyph glyph-name="Icircumflex" unicode="&#xce;" horiz-adv-x="254" 
d="M79 718h96v-718h-96v718zM73 910h108l117 -145h-73l-98 87l-98 -87h-73z" />
    <glyph glyph-name="Idieresis" unicode="&#xcf;" horiz-adv-x="254" 
d="M79 718h96v-718h-96v718zM88 769h-100v104h100v-104zM266 769h-100v104h100v-104z" />
    <glyph glyph-name="Eth" unicode="&#xd0;" horiz-adv-x="711" 
d="M317 0h-228v328h-67v84h67v306h228c53.333 0 102 -8.33301 146 -25s82 -40.667 114 -72c31.333 -32 55.166 -70.167 71.499 -114.5s24.5 -93.5 24.5 -147.5s-8.16699 -103.167 -24.5 -147.5s-40.166 -82.5 -71.499 -114.5c-32 -31.333 -70 -55.333 -114 -72
s-92.667 -25 -146 -25zM183 328v-245.002h134c80.667 0 144.5 24.833 191.5 74.5s70.5 116.834 70.5 201.501s-23.5 151.834 -70.5 201.501s-111.167 74.5 -192.5 74.5h-133v-223h143v-84h-143z" />
    <glyph glyph-name="Ntilde" unicode="&#xd1;" horiz-adv-x="725" 
d="M553 718h93v-718h-83l-392 578v-578h-92v718h101l373 -555v555zM295 905c12 0 23.8311 -2.33398 35.498 -7.00098s27.167 -14.667 46.5 -30c14.667 -11.333 25.834 -18.666 33.501 -21.999s14.834 -5 21.501 -5c14 0 25 5.33301 33 16s13.667 27 17 49h63
c-3.33301 -43.333 -14.5 -77.5 -33.5 -102.5s-43.833 -37.5 -74.5 -37.5c-12 0 -24 2.5 -36 7.5s-27.667 14.833 -47 29.5c-14.667 12 -25.667 19.667 -33 23s-14.333 5 -21 5c-14 0 -25 -5.33301 -33 -16s-13.667 -27 -17 -49h-63c2.66699 43.333 13.5 77.333 32.5 102
s44.167 37 75.5 37z" />
    <glyph glyph-name="Ograve" unicode="&#xd2;" horiz-adv-x="726" 
d="M121 102c-27.333 33.333 -48.166 71.833 -62.499 115.5s-21.5 90.834 -21.5 141.501s7.16699 97.834 21.5 141.501s35.166 82.167 62.499 115.5c30 36.667 65.833 64.667 107.5 84s86.5 29 134.5 29s92.833 -9.66699 134.5 -29s77.167 -47.333 106.5 -84
c27.333 -33.333 48.166 -71.833 62.499 -115.5s21.5 -90.834 21.5 -141.501s-7.16699 -97.834 -21.5 -141.501s-35.166 -82.167 -62.499 -115.5c-29.333 -36.667 -64.833 -64.667 -106.5 -84s-86.5 -29 -134.5 -29s-92.833 9.66699 -134.5 29s-77.5 47.333 -107.5 84z
M538 165c18 25.333 31.667 54.5 41 87.5s14 68.5 14 106.5s-4.66699 73.5 -14 106.5s-23 62.167 -41 87.5c-21.333 29.333 -47 51.833 -77 67.5s-62.667 23.5 -98 23.5s-68 -7.83301 -98 -23.5s-55.667 -38.167 -77 -67.5c-18 -25.333 -31.667 -54.5 -41 -87.5
s-14 -68.5 -14 -106.5s4.66699 -73.5 14 -106.5s23 -62.167 41 -87.5c21.333 -29.333 47 -51.833 77 -67.5s62.667 -23.5 98 -23.5s68 7.83301 98 23.5s55.667 38.167 77 67.5zM318 910l101 -145h-72l-155 145h126z" />
    <glyph glyph-name="Oacute" unicode="&#xd3;" horiz-adv-x="726" 
d="M121 102c-27.333 33.333 -48.166 71.833 -62.499 115.5s-21.5 90.834 -21.5 141.501s7.16699 97.834 21.5 141.501s35.166 82.167 62.499 115.5c30 36.667 65.833 64.667 107.5 84s86.5 29 134.5 29s92.833 -9.66699 134.5 -29s77.167 -47.333 106.5 -84
c27.333 -33.333 48.166 -71.833 62.499 -115.5s21.5 -90.834 21.5 -141.501s-7.16699 -97.834 -21.5 -141.501s-35.166 -82.167 -62.499 -115.5c-29.333 -36.667 -64.833 -64.667 -106.5 -84s-86.5 -29 -134.5 -29s-92.833 9.66699 -134.5 29s-77.5 47.333 -107.5 84z
M538 165c18 25.333 31.667 54.5 41 87.5s14 68.5 14 106.5s-4.66699 73.5 -14 106.5s-23 62.167 -41 87.5c-21.333 29.333 -47 51.833 -77 67.5s-62.667 23.5 -98 23.5s-68 -7.83301 -98 -23.5s-55.667 -38.167 -77 -67.5c-18 -25.333 -31.667 -54.5 -41 -87.5
s-14 -68.5 -14 -106.5s4.66699 -73.5 14 -106.5s23 -62.167 41 -87.5c21.333 -29.333 47 -51.833 77 -67.5s62.667 -23.5 98 -23.5s68 7.83301 98 23.5s55.667 38.167 77 67.5zM395 765h-72l101 145h126z" />
    <glyph glyph-name="Ocircumflex" unicode="&#xd4;" horiz-adv-x="726" 
d="M121 102c-27.333 33.333 -48.166 71.833 -62.499 115.5s-21.5 90.834 -21.5 141.501s7.16699 97.834 21.5 141.501s35.166 82.167 62.499 115.5c30 36.667 65.833 64.667 107.5 84s86.5 29 134.5 29s92.833 -9.66699 134.5 -29s77.167 -47.333 106.5 -84
c27.333 -33.333 48.166 -71.833 62.499 -115.5s21.5 -90.834 21.5 -141.501s-7.16699 -97.834 -21.5 -141.501s-35.166 -82.167 -62.499 -115.5c-29.333 -36.667 -64.833 -64.667 -106.5 -84s-86.5 -29 -134.5 -29s-92.833 9.66699 -134.5 29s-77.5 47.333 -107.5 84z
M538 165c18 25.333 31.667 54.5 41 87.5s14 68.5 14 106.5s-4.66699 73.5 -14 106.5s-23 62.167 -41 87.5c-21.333 29.333 -47 51.833 -77 67.5s-62.667 23.5 -98 23.5s-68 -7.83301 -98 -23.5s-55.667 -38.167 -77 -67.5c-18 -25.333 -31.667 -54.5 -41 -87.5
s-14 -68.5 -14 -106.5s4.66699 -73.5 14 -106.5s23 -62.167 41 -87.5c21.333 -29.333 47 -51.833 77 -67.5s62.667 -23.5 98 -23.5s68 7.83301 98 23.5s55.667 38.167 77 67.5zM309 910h108l117 -145h-73l-98 87l-98 -87h-73z" />
    <glyph glyph-name="Otilde" unicode="&#xd5;" horiz-adv-x="726" 
d="M121 102c-27.333 33.333 -48.166 71.833 -62.499 115.5s-21.5 90.834 -21.5 141.501s7.16699 97.834 21.5 141.501s35.166 82.167 62.499 115.5c30 36.667 65.833 64.667 107.5 84s86.5 29 134.5 29s92.833 -9.66699 134.5 -29s77.167 -47.333 106.5 -84
c27.333 -33.333 48.166 -71.833 62.499 -115.5s21.5 -90.834 21.5 -141.501s-7.16699 -97.834 -21.5 -141.501s-35.166 -82.167 -62.499 -115.5c-29.333 -36.667 -64.833 -64.667 -106.5 -84s-86.5 -29 -134.5 -29s-92.833 9.66699 -134.5 29s-77.5 47.333 -107.5 84z
M538 165c18 25.333 31.667 54.5 41 87.5s14 68.5 14 106.5s-4.66699 73.5 -14 106.5s-23 62.167 -41 87.5c-21.333 29.333 -47 51.833 -77 67.5s-62.667 23.5 -98 23.5s-68 -7.83301 -98 -23.5s-55.667 -38.167 -77 -67.5c-18 -25.333 -31.667 -54.5 -41 -87.5
s-14 -68.5 -14 -106.5s4.66699 -73.5 14 -106.5s23 -62.167 41 -87.5c21.333 -29.333 47 -51.833 77 -67.5s62.667 -23.5 98 -23.5s68 7.83301 98 23.5s55.667 38.167 77 67.5zM292 905c12 0 23.8311 -2.33398 35.498 -7.00098s27.167 -14.667 46.5 -30
c14.667 -11.333 25.834 -18.666 33.501 -21.999s14.834 -5 21.501 -5c14 0 25 5.33301 33 16s13.667 27 17 49h63c-3.33301 -43.333 -14.5 -77.5 -33.5 -102.5s-43.833 -37.5 -74.5 -37.5c-12 0 -24 2.5 -36 7.5s-27.667 14.833 -47 29.5c-14.667 12 -25.667 19.667 -33 23
s-14.333 5 -21 5c-14 0 -25 -5.33301 -33 -16s-13.667 -27 -17 -49h-63c2.66699 43.333 13.5 77.333 32.5 102s44.167 37 75.5 37z" />
    <glyph glyph-name="Odieresis" unicode="&#xd6;" horiz-adv-x="726" 
d="M121 102c-27.333 33.333 -48.166 71.833 -62.499 115.5s-21.5 90.834 -21.5 141.501s7.16699 97.834 21.5 141.501s35.166 82.167 62.499 115.5c30 36.667 65.833 64.667 107.5 84s86.5 29 134.5 29s92.833 -9.66699 134.5 -29s77.167 -47.333 106.5 -84
c27.333 -33.333 48.166 -71.833 62.499 -115.5s21.5 -90.834 21.5 -141.501s-7.16699 -97.834 -21.5 -141.501s-35.166 -82.167 -62.499 -115.5c-29.333 -36.667 -64.833 -64.667 -106.5 -84s-86.5 -29 -134.5 -29s-92.833 9.66699 -134.5 29s-77.5 47.333 -107.5 84z
M538 165c18 25.333 31.667 54.5 41 87.5s14 68.5 14 106.5s-4.66699 73.5 -14 106.5s-23 62.167 -41 87.5c-21.333 29.333 -47 51.833 -77 67.5s-62.667 23.5 -98 23.5s-68 -7.83301 -98 -23.5s-55.667 -38.167 -77 -67.5c-18 -25.333 -31.667 -54.5 -41 -87.5
s-14 -68.5 -14 -106.5s4.66699 -73.5 14 -106.5s23 -62.167 41 -87.5c21.333 -29.333 47 -51.833 77 -67.5s62.667 -23.5 98 -23.5s68 7.83301 98 23.5s55.667 38.167 77 67.5zM324 769h-100v104h100v-104zM502 769h-100v104h100v-104z" />
    <glyph glyph-name="multiply" unicode="&#xd7;" horiz-adv-x="608" 
d="M77 169l172 173l-172 172l56 56l172 -173l171 172l56 -55l-171 -172l171 -172l-56 -56l-171 172l-172 -173z" />
    <glyph glyph-name="Oslash" unicode="&#xd8;" horiz-adv-x="726" 
d="M103 -21l-56.001 45.0049l69 84c-26 33.333 -45.667 71.166 -59 113.499s-20 88.166 -20 137.499c0 50.667 7.16699 97.834 21.5 141.501s35.166 82.167 62.499 115.5c30 36.667 65.833 64.667 107.5 84s86.5 29 134.5 29c39.333 0 76.333 -6.33301 111 -19
s66 -31.334 94 -56.001l59 71l56 -45l-66 -80c23.333 -32.667 41 -69.334 53 -110.001s18 -84.334 18 -131.001c0 -50.667 -7.16699 -97.834 -21.5 -141.501s-35.166 -82.167 -62.499 -115.5c-29.333 -36.667 -64.833 -64.667 -106.5 -84s-86.5 -29 -134.5 -29
c-36.667 0 -71.667 5.66699 -105 17s-63.666 28 -90.999 50zM187.999 553.005c-18 -25.333 -31.667 -54.5 -41 -87.5s-14 -68.5 -14 -106.5c0 -34 3.66699 -66 11 -96s18.333 -57.333 33 -82l334 404c-20 19.333 -42.5 34 -67.5 44s-51.833 15 -80.5 15
c-35.333 0 -68 -7.83301 -98 -23.5s-55.667 -38.167 -77 -67.5zM537.999 165.005c18 25.333 31.668 54.501 41.001 87.501s14 68.5 14 106.5c0 31.333 -3.16699 61 -9.5 89s-15.833 53.667 -28.5 77l-331 -400c19.333 -16.667 40.666 -29.334 63.999 -38.001
s48.333 -13 75 -13c35.333 0 68 7.83301 98 23.5s55.667 38.167 77 67.5z" />
    <glyph glyph-name="Ugrave" unicode="&#xd9;" horiz-adv-x="697" 
d="M348 -10c-87.333 0 -156.166 25.833 -206.499 77.5s-75.5 123.834 -75.5 216.501v434h96v-431c0 -68 16.167 -120.167 48.5 -156.5s78.166 -54.5 137.499 -54.5s105.333 18.167 138 54.5s49 88.5 49 156.5v431h96v-434c0 -92.667 -25.167 -164.834 -75.5 -216.501
s-119.5 -77.5 -207.5 -77.5zM315 910l101 -145h-72l-155 145h126z" />
    <glyph glyph-name="Uacute" unicode="&#xda;" horiz-adv-x="697" 
d="M348 -10c-87.333 0 -156.166 25.833 -206.499 77.5s-75.5 123.834 -75.5 216.501v434h96v-431c0 -68 16.167 -120.167 48.5 -156.5s78.166 -54.5 137.499 -54.5s105.333 18.167 138 54.5s49 88.5 49 156.5v431h96v-434c0 -92.667 -25.167 -164.834 -75.5 -216.501
s-119.5 -77.5 -207.5 -77.5zM361 765h-72l101 145h126z" />
    <glyph glyph-name="Ucircumflex" unicode="&#xdb;" horiz-adv-x="697" 
d="M348 -10c-87.333 0 -156.166 25.833 -206.499 77.5s-75.5 123.834 -75.5 216.501v434h96v-431c0 -68 16.167 -120.167 48.5 -156.5s78.166 -54.5 137.499 -54.5s105.333 18.167 138 54.5s49 88.5 49 156.5v431h96v-434c0 -92.667 -25.167 -164.834 -75.5 -216.501
s-119.5 -77.5 -207.5 -77.5zM294 910h108l117 -145h-73l-98 87l-98 -87h-73z" />
    <glyph glyph-name="Udieresis" unicode="&#xdc;" horiz-adv-x="697" 
d="M348 -10c-87.333 0 -156.166 25.833 -206.499 77.5s-75.5 123.834 -75.5 216.501v434h96v-431c0 -68 16.167 -120.167 48.5 -156.5s78.166 -54.5 137.499 -54.5s105.333 18.167 138 54.5s49 88.5 49 156.5v431h96v-434c0 -92.667 -25.167 -164.834 -75.5 -216.501
s-119.5 -77.5 -207.5 -77.5zM309 769h-100v104h100v-104zM487 769h-100v104h100v-104z" />
    <glyph glyph-name="Yacute" unicode="&#xdd;" horiz-adv-x="626" 
d="M109 718l205 -329l205 329h102l-260 -416v-302h-96v302l-260 416h104zM330 765h-72l101 145h126z" />
    <glyph glyph-name="Thorn" unicode="&#xde;" horiz-adv-x="625" 
d="M602 374c0 -66 -22.001 -117.167 -66.001 -153.5s-105 -54.5 -183 -54.5h-178v-166h-96v718h96v-135h178c78.667 0 139.834 -18.167 183.501 -54.5s65.5 -87.833 65.5 -154.5zM347.999 502h-173v-255h173c50.667 0 89.834 11 117.501 33s41.5 53.333 41.5 94
c0 41.333 -13.833 73 -41.5 95s-66.834 33 -117.501 33z" />
    <glyph glyph-name="germandbls" unicode="&#xdf;" horiz-adv-x="575" 
d="M299 729c58.667 0 106.164 -16.0039 142.497 -48.0039s54.5 -73.667 54.5 -125c0 -36 -8.66699 -66.833 -26 -92.5s-42.333 -44.5 -75 -56.5c48 -12 85.333 -34.833 112 -68.5s40 -75.5 40 -125.5c0 -33.333 -5.66699 -63.666 -17 -90.999
s-27.666 -50.666 -48.999 -69.999c-20.667 -19.333 -45.167 -34 -73.5 -44s-58.5 -15 -90.5 -15c-16.667 0 -32.167 0.666992 -46.5 2s-29.166 3.66602 -44.499 6.99902v77c12.667 -3.33301 25.334 -5.83301 38.001 -7.5s26.667 -2.5 42 -2.5c46 0 82.833 12.833 110.5 38.5
s41.5 60.834 41.5 105.501c0 47.333 -15 83.833 -45 109.5s-72.333 38.5 -127 38.5h-53v79h45c40.667 0 72.667 9.83301 96 29.5s35 46.834 35 81.501c0 31.333 -10.167 56 -30.5 74s-47.5 27 -81.5 27c-42 0 -74.5 -14 -97.5 -42s-34.5 -67.667 -34.5 -119v-491h-90v495
c0 70.667 20.333 127.334 61 170.001s95 64 163 64z" />
    <glyph glyph-name="agrave" unicode="&#xe0;" horiz-adv-x="526" 
d="M367 59c-16.667 -21.333 -39.165 -38.001 -67.498 -50.001s-59.5 -18 -93.5 -18c-50 0 -91.167 13.833 -123.5 41.5s-48.5 63.834 -48.5 108.501s15.5 80.667 46.5 108s81.5 48.333 151.5 63l127 26v22c0 30.667 -8.66699 54 -26 70s-43 24 -77 24
c-32 0 -58.167 -7.33301 -78.5 -22s-34.5 -37 -42.5 -67l-85 22c13.333 44.667 38.666 80.167 75.999 106.5s81.666 39.5 132.999 39.5c60.667 0 107.334 -14.667 140.001 -44s49 -71 49 -125v-255c0 -16 4.83301 -27.167 14.5 -33.5s23.5 -7.5 41.5 -3.5v-72
c-40.667 -5.33301 -72.334 -3 -95.001 7s-36.667 27.333 -42 52zM217.002 63.999c40 0 73.667 10.8311 101 32.498s41 48.834 41 81.501v90l-102 -22c-50 -10 -84.833 -22.833 -104.5 -38.5s-29.5 -36.5 -29.5 -62.5c0 -25.333 8.33301 -45.166 25 -59.499
s39.667 -21.5 69 -21.5zM243.002 717.997l59 -139h-71l-101 139h113z" />
    <glyph glyph-name="aacute" unicode="&#xe1;" horiz-adv-x="526" 
d="M367 59c-16.667 -21.333 -39.165 -38.001 -67.498 -50.001s-59.5 -18 -93.5 -18c-50 0 -91.167 13.833 -123.5 41.5s-48.5 63.834 -48.5 108.501s15.5 80.667 46.5 108s81.5 48.333 151.5 63l127 26v22c0 30.667 -8.66699 54 -26 70s-43 24 -77 24
c-32 0 -58.167 -7.33301 -78.5 -22s-34.5 -37 -42.5 -67l-85 22c13.333 44.667 38.666 80.167 75.999 106.5s81.666 39.5 132.999 39.5c60.667 0 107.334 -14.667 140.001 -44s49 -71 49 -125v-255c0 -16 4.83301 -27.167 14.5 -33.5s23.5 -7.5 41.5 -3.5v-72
c-40.667 -5.33301 -72.334 -3 -95.001 7s-36.667 27.333 -42 52zM217.002 63.999c40 0 73.667 10.8311 101 32.498s41 48.834 41 81.501v90l-102 -22c-50 -10 -84.833 -22.833 -104.5 -38.5s-29.5 -36.5 -29.5 -62.5c0 -25.333 8.33301 -45.166 25 -59.499
s39.667 -21.5 69 -21.5zM298.002 578.997h-71l59 139h113z" />
    <glyph glyph-name="acircumflex" unicode="&#xe2;" horiz-adv-x="526" 
d="M367 59c-16.667 -21.333 -39.165 -38.001 -67.498 -50.001s-59.5 -18 -93.5 -18c-50 0 -91.167 13.833 -123.5 41.5s-48.5 63.834 -48.5 108.501s15.5 80.667 46.5 108s81.5 48.333 151.5 63l127 26v22c0 30.667 -8.66699 54 -26 70s-43 24 -77 24
c-32 0 -58.167 -7.33301 -78.5 -22s-34.5 -37 -42.5 -67l-85 22c13.333 44.667 38.666 80.167 75.999 106.5s81.666 39.5 132.999 39.5c60.667 0 107.334 -14.667 140.001 -44s49 -71 49 -125v-255c0 -16 4.83301 -27.167 14.5 -33.5s23.5 -7.5 41.5 -3.5v-72
c-40.667 -5.33301 -72.334 -3 -95.001 7s-36.667 27.333 -42 52zM217.002 63.999c40 0 73.667 10.8311 101 32.498s41 48.834 41 81.501v90l-102 -22c-50 -10 -84.833 -22.833 -104.5 -38.5s-29.5 -36.5 -29.5 -62.5c0 -25.333 8.33301 -45.166 25 -59.499
s39.667 -21.5 69 -21.5zM212.002 717.997h98l98 -139h-70l-77 78l-77 -78h-70z" />
    <glyph glyph-name="atilde" unicode="&#xe3;" horiz-adv-x="526" 
d="M367 59c-16.667 -21.333 -39.165 -38.001 -67.498 -50.001s-59.5 -18 -93.5 -18c-50 0 -91.167 13.833 -123.5 41.5s-48.5 63.834 -48.5 108.501s15.5 80.667 46.5 108s81.5 48.333 151.5 63l127 26v22c0 30.667 -8.66699 54 -26 70s-43 24 -77 24
c-32 0 -58.167 -7.33301 -78.5 -22s-34.5 -37 -42.5 -67l-85 22c13.333 44.667 38.666 80.167 75.999 106.5s81.666 39.5 132.999 39.5c60.667 0 107.334 -14.667 140.001 -44s49 -71 49 -125v-255c0 -16 4.83301 -27.167 14.5 -33.5s23.5 -7.5 41.5 -3.5v-72
c-40.667 -5.33301 -72.334 -3 -95.001 7s-36.667 27.333 -42 52zM217.002 63.999c40 0 73.667 10.8311 101 32.498s41 48.834 41 81.501v90l-102 -22c-50 -10 -84.833 -22.833 -104.5 -38.5s-29.5 -36.5 -29.5 -62.5c0 -25.333 8.33301 -45.166 25 -59.499
s39.667 -21.5 69 -21.5zM197.002 718.997c10.667 0 21.334 -2.50195 32.001 -7.50195s24.334 -14.833 41.001 -29.5c12.667 -11.333 22 -18.666 28 -21.999s12 -5 18 -5c12.667 0 22.334 4.83301 29.001 14.5s11.667 26.167 15 49.5h59c-3.33301 -42 -13.5 -75 -30.5 -99
s-39.167 -36 -66.5 -36c-10.667 0 -21.334 2.33301 -32.001 7s-24.334 14.667 -41.001 30c-12.667 10.667 -22 17.667 -28 21s-12 5 -18 5c-12.667 0 -22.334 -5 -29.001 -15s-11.334 -26 -14.001 -48h-59c2.66699 42.667 12.334 75.834 29.001 99.501s39 35.5 67 35.5z" />
    <glyph glyph-name="adieresis" unicode="&#xe4;" horiz-adv-x="526" 
d="M367 59c-16.667 -21.333 -39.165 -38.001 -67.498 -50.001s-59.5 -18 -93.5 -18c-50 0 -91.167 13.833 -123.5 41.5s-48.5 63.834 -48.5 108.501s15.5 80.667 46.5 108s81.5 48.333 151.5 63l127 26v22c0 30.667 -8.66699 54 -26 70s-43 24 -77 24
c-32 0 -58.167 -7.33301 -78.5 -22s-34.5 -37 -42.5 -67l-85 22c13.333 44.667 38.666 80.167 75.999 106.5s81.666 39.5 132.999 39.5c60.667 0 107.334 -14.667 140.001 -44s49 -71 49 -125v-255c0 -16 4.83301 -27.167 14.5 -33.5s23.5 -7.5 41.5 -3.5v-72
c-40.667 -5.33301 -72.334 -3 -95.001 7s-36.667 27.333 -42 52zM217.002 63.999c40 0 73.667 10.8311 101 32.498s41 48.834 41 81.501v90l-102 -22c-50 -10 -84.833 -22.833 -104.5 -38.5s-29.5 -36.5 -29.5 -62.5c0 -25.333 8.33301 -45.166 25 -59.499
s39.667 -21.5 69 -21.5zM223.002 609.997h-100v104h100v-104zM395.002 609.997h-100v104h100v-104z" />
    <glyph glyph-name="aring" unicode="&#xe5;" horiz-adv-x="526" 
d="M367 59c-16.667 -21.333 -39.165 -38.001 -67.498 -50.001s-59.5 -18 -93.5 -18c-50 0 -91.167 13.833 -123.5 41.5s-48.5 63.834 -48.5 108.501s15.5 80.667 46.5 108s81.5 48.333 151.5 63l127 26v22c0 30.667 -8.66699 54 -26 70s-43 24 -77 24
c-32 0 -58.167 -7.33301 -78.5 -22s-34.5 -37 -42.5 -67l-85 22c13.333 44.667 38.666 80.167 75.999 106.5s81.666 39.5 132.999 39.5c60.667 0 107.334 -14.667 140.001 -44s49 -71 49 -125v-255c0 -16 4.83301 -27.167 14.5 -33.5s23.5 -7.5 41.5 -3.5v-72
c-40.667 -5.33301 -72.334 -3 -95.001 7s-36.667 27.333 -42 52zM217.002 63.999c40 0 73.667 10.8311 101 32.498s41 48.834 41 81.501v90l-102 -22c-50 -10 -84.833 -22.833 -104.5 -38.5s-29.5 -36.5 -29.5 -62.5c0 -25.333 8.33301 -45.166 25 -59.499
s39.667 -21.5 69 -21.5zM258.002 567.997c-28.667 0 -52.667 9.5 -72 28.5s-29 42.5 -29 70.5c0 27.333 9.66699 50.333 29 69s43.333 28 72 28s52.667 -9.33301 72 -28s29 -41.667 29 -69c0 -28 -9.66699 -51.5 -29 -70.5s-43.333 -28.5 -72 -28.5zM258.002 716.997
c-13.333 0 -25 -5 -35 -15s-15 -21.667 -15 -35c0 -14 4.83301 -26.167 14.5 -36.5s21.5 -15.5 35.5 -15.5s25.833 5.16699 35.5 15.5s14.5 22.5 14.5 36.5c0 13.333 -5 25 -15 35s-21.667 15 -35 15z" />
    <glyph glyph-name="ae" unicode="&#xe6;" horiz-adv-x="857" 
d="M34 143c0 54 21.498 96.335 64.498 127.002s101.5 46 175.5 46h87v40c0 32.667 -8.83301 57.167 -26.5 73.5s-43.834 24.5 -78.501 24.5c-33.333 0 -60 -7.83301 -80 -23.5s-33 -39.167 -39 -70.5l-85 23c11.333 46 35.666 82.5 72.999 109.5s82.333 40.5 135 40.5
c39.333 0 72.833 -7 100.5 -21s48.5 -34.667 62.5 -62c22 26.667 47.833 47.167 77.5 61.5s61.834 21.5 96.501 21.5c68.667 0 122.834 -23.167 162.501 -69.5s59.5 -108.5 59.5 -186.5v-30h-377c2.66699 -54.667 18.334 -98.334 47.001 -131.001s66 -49 112 -49
c34.667 0 64 8.83301 88 26.5s40 42.167 48 73.5l78 -28c-15.333 -46.667 -42 -83.334 -80 -110.001s-82.667 -40 -134 -40c-42 0 -80.167 9.16699 -114.5 27.5s-62.166 44.5 -83.499 78.5c-18 -32.667 -44.167 -58.167 -78.5 -76.5s-72.833 -27.5 -115.5 -27.5
c-50.667 0 -92.5 14 -125.5 42s-49.5 64.667 -49.5 110zM595.998 456.002c-38.667 0 -71.167 -12.333 -97.5 -37s-43.5 -59 -51.5 -103h281c-0.666992 42.667 -12.667 76.667 -36 102s-55.333 38 -96 38zM122.998 149.002c0 -26 8.83301 -46.5 26.5 -61.5
s41.834 -22.5 72.501 -22.5c39.333 0 72.333 12.667 99 38s40 57 40 95v49h-85c-52.667 0 -91.334 -8 -116.001 -24s-37 -40.667 -37 -74z" />
    <glyph glyph-name="ccedilla" unicode="&#xe7;" horiz-adv-x="520" 
d="M286 455c-47.333 0 -85.333 -17.6641 -114 -52.9971s-43 -82.333 -43 -141s14.333 -105.5 43 -140.5s66.667 -52.5 114 -52.5c33.333 0 61.333 9.66699 84 29s38 46.666 46 81.999l80 -37c-13.333 -46.667 -38.833 -83.834 -76.5 -111.501s-82.167 -41.5 -133.5 -41.5h-1
l-5 -16c26.667 -3.33301 47.5 -11.833 62.5 -25.5s22.5 -31.5 22.5 -53.5c0 -24.667 -10.5 -44.834 -31.5 -60.501s-47.167 -23.5 -78.5 -23.5c-20.667 0 -39.667 3.33301 -57 10s-31.333 16.334 -42 29.001l34 47c8.66699 -10.667 18.167 -18.667 28.5 -24s21.5 -8 33.5 -8
c14.667 0 26.167 2.83301 34.5 8.5s12.5 13.834 12.5 24.501c0 11.333 -6.16699 20.166 -18.5 26.499s-32.5 10.5 -60.5 12.5l17 57c-60 11.333 -108 41.166 -144 89.499s-54 107.833 -54 178.5c0 38 5.5 73.333 16.5 106s27.167 61.334 48.5 86.001
c22 26 48.667 45.833 80 59.5s65.333 20.5 102 20.5c51.333 0 95.5 -13.5 132.5 -40.5s62.167 -63.5 75.5 -109.5l-78 -39c-8 35.333 -23.333 62.666 -46 81.999s-50.667 29 -84 29z" />
    <glyph glyph-name="egrave" unicode="&#xe8;" horiz-adv-x="540" 
d="M284 -11c-36.667 0 -70.502 6.83008 -101.502 20.4971s-57.5 33.834 -79.5 60.501c-20.667 24 -36.5 52.333 -47.5 85s-16.5 68 -16.5 106c0 36.667 5.33301 71.334 16 104.001s26.334 61.334 47.001 86.001c22 26.667 48.333 47 79 61s63.667 21 99 21
c68.667 0 123 -23.333 163 -70s60 -108.667 60 -186v-30h-378c2.66699 -54.667 18.334 -98.334 47.001 -131.001s66 -49 112 -49c34.667 0 64 8.83301 88 26.5s40 42.167 48 73.5l79 -28c-16 -47.333 -43 -84.166 -81 -110.499s-82.667 -39.5 -134 -39.5zM278.998 455.997
c-38.667 0 -71.168 -12.333 -97.501 -37s-43.5 -59 -51.5 -103h282c-1.33301 42.667 -13.666 76.667 -36.999 102s-55.333 38 -96 38zM266.997 717.997l59 -139h-71l-101 139h113z" />
    <glyph glyph-name="eacute" unicode="&#xe9;" horiz-adv-x="540" 
d="M284 -11c-36.667 0 -70.502 6.83008 -101.502 20.4971s-57.5 33.834 -79.5 60.501c-20.667 24 -36.5 52.333 -47.5 85s-16.5 68 -16.5 106c0 36.667 5.33301 71.334 16 104.001s26.334 61.334 47.001 86.001c22 26.667 48.333 47 79 61s63.667 21 99 21
c68.667 0 123 -23.333 163 -70s60 -108.667 60 -186v-30h-378c2.66699 -54.667 18.334 -98.334 47.001 -131.001s66 -49 112 -49c34.667 0 64 8.83301 88 26.5s40 42.167 48 73.5l79 -28c-16 -47.333 -43 -84.166 -81 -110.499s-82.667 -39.5 -134 -39.5zM278.998 455.997
c-38.667 0 -71.168 -12.333 -97.501 -37s-43.5 -59 -51.5 -103h282c-1.33301 42.667 -13.666 76.667 -36.999 102s-55.333 38 -96 38zM313.997 578.997h-71l59 139h113z" />
    <glyph glyph-name="ecircumflex" unicode="&#xea;" horiz-adv-x="540" 
d="M284 -11c-36.667 0 -70.502 6.83008 -101.502 20.4971s-57.5 33.834 -79.5 60.501c-20.667 24 -36.5 52.333 -47.5 85s-16.5 68 -16.5 106c0 36.667 5.33301 71.334 16 104.001s26.334 61.334 47.001 86.001c22 26.667 48.333 47 79 61s63.667 21 99 21
c68.667 0 123 -23.333 163 -70s60 -108.667 60 -186v-30h-378c2.66699 -54.667 18.334 -98.334 47.001 -131.001s66 -49 112 -49c34.667 0 64 8.83301 88 26.5s40 42.167 48 73.5l79 -28c-16 -47.333 -43 -84.166 -81 -110.499s-82.667 -39.5 -134 -39.5zM278.998 455.997
c-38.667 0 -71.168 -12.333 -97.501 -37s-43.5 -59 -51.5 -103h282c-1.33301 42.667 -13.666 76.667 -36.999 102s-55.333 38 -96 38zM232.997 717.997h98l98 -139h-70l-77 78l-77 -78h-70z" />
    <glyph glyph-name="edieresis" unicode="&#xeb;" horiz-adv-x="540" 
d="M284 -11c-36.667 0 -70.502 6.83008 -101.502 20.4971s-57.5 33.834 -79.5 60.501c-20.667 24 -36.5 52.333 -47.5 85s-16.5 68 -16.5 106c0 36.667 5.33301 71.334 16 104.001s26.334 61.334 47.001 86.001c22 26.667 48.333 47 79 61s63.667 21 99 21
c68.667 0 123 -23.333 163 -70s60 -108.667 60 -186v-30h-378c2.66699 -54.667 18.334 -98.334 47.001 -131.001s66 -49 112 -49c34.667 0 64 8.83301 88 26.5s40 42.167 48 73.5l79 -28c-16 -47.333 -43 -84.166 -81 -110.499s-82.667 -39.5 -134 -39.5zM278.998 455.997
c-38.667 0 -71.168 -12.333 -97.501 -37s-43.5 -59 -51.5 -103h282c-1.33301 42.667 -13.666 76.667 -36.999 102s-55.333 38 -96 38zM246.997 609.997h-100v104h100v-104zM418.997 609.997h-100v104h100v-104z" />
    <glyph glyph-name="igrave" unicode="&#xec;" horiz-adv-x="240" 
d="M75 523h90v-523h-90v523zM95 718l59 -139h-71l-101 139h113z" />
    <glyph glyph-name="iacute" unicode="&#xed;" horiz-adv-x="240" 
d="M75 523h90v-523h-90v523zM158 579h-71l59 139h113z" />
    <glyph glyph-name="icircumflex" unicode="&#xee;" horiz-adv-x="240" 
d="M71 718h98l98 -139h-70l-77 78l-77 -78h-70zM75 523h90v-523h-90v523z" />
    <glyph glyph-name="idieresis" unicode="&#xef;" horiz-adv-x="240" 
d="M84 610h-100v104h100v-104zM256 610h-100v104h100v-104zM75 523h90v-523h-90v523z" />
    <glyph glyph-name="eth" unicode="&#xf0;" 
d="M282 530c22.667 0 43.8301 -4.16699 63.4971 -12.5s35.5 -19.5 47.5 -33.5c-8.66699 18.667 -21.167 37.667 -37.5 57s-35.5 38 -57.5 56l-166 -49v65l102 30c-15.333 10 -32 19.833 -50 29.5s-37.333 19.167 -58 28.5l94 27
c16.667 -7.33301 33.334 -15.833 50.001 -25.5s34.334 -20.5 53.001 -32.5l129 38v-65l-70 -21c48 -44.667 83.833 -95.667 107.5 -153s35.5 -121 35.5 -191c0 -40 -5 -77 -15 -111s-24.667 -63.667 -44 -89c-22 -28.667 -48.667 -50.667 -80 -66s-66 -23 -104 -23
c-36 0 -69.5 7 -100.5 21s-57.5 34 -79.5 60c-20.667 24 -36.334 52.333 -47.001 85s-16 68 -16 106s5.33301 73.167 16 105.5s26.334 60.5 47.001 84.5c22 25.333 48.333 44.833 79 58.5s64.334 20.5 101.001 20.5zM281.996 457c-46 0 -82.833 -17.667 -110.5 -53
s-41.5 -83 -41.5 -143c0 -59.333 13.833 -106.666 41.5 -141.999s64.5 -53 110.5 -53s82.833 17.667 110.5 53s41.5 82.666 41.5 141.999c0 60 -13.833 107.667 -41.5 143s-64.5 53 -110.5 53z" />
    <glyph glyph-name="ntilde" unicode="&#xf1;" 
d="M165 0h-89.999v523h90v-71c18 26 40.5 46 67.5 60s56.5 21 88.5 21c53.333 0 95.666 -17 126.999 -51s47 -79.667 47 -137v-345h-90v321c0 41.333 -9.33301 73 -28 95s-45.667 33 -81 33c-36 0 -66.833 -12.833 -92.5 -38.5s-38.5 -58.5 -38.5 -98.5v-312zM228.001 719
c10.667 0 21.334 -2.50195 32.001 -7.50195s24.334 -14.833 41.001 -29.5c12.667 -11.333 22 -18.666 28 -21.999s12 -5 18 -5c12.667 0 22.334 4.83301 29.001 14.5s11.667 26.167 15 49.5h59c-3.33301 -42 -13.5 -75 -30.5 -99s-39.167 -36 -66.5 -36
c-10.667 0 -21.334 2.33301 -32.001 7s-24.334 14.667 -41.001 30c-12.667 10.667 -22 17.667 -28 21s-12 5 -18 5c-12.667 0 -22.334 -5 -29.001 -15s-11.334 -26 -14.001 -48h-59c2.66699 42.667 12.334 75.834 29.001 99.501s39 35.5 67 35.5z" />
    <glyph glyph-name="ograve" unicode="&#xf2;" 
d="M462 452c20.667 -24 36.334 -52.333 47.001 -85s16 -68 16 -106s-5.33301 -73.333 -16 -106s-26.334 -61 -47.001 -85c-22 -26 -48.5 -46 -79.5 -60s-64.5 -21 -100.5 -21s-69.5 7 -100.5 21s-57.5 34 -79.5 60c-20.667 24 -36.334 52.333 -47.001 85s-16 68 -16 106
s5.33301 73.333 16 106s26.334 61 47.001 85c22 26 48.5 46 79.5 60s64.5 21 100.5 21s69.5 -7 100.5 -21s57.5 -34 79.5 -60zM282 457c-46 0 -82.833 -17.667 -110.5 -53s-41.5 -83 -41.5 -143c0 -59.333 13.833 -106.666 41.5 -141.999s64.5 -53 110.5 -53
s82.833 17.667 110.5 53s41.5 82.666 41.5 141.999c0 60 -13.833 107.667 -41.5 143s-64.5 53 -110.5 53zM268 718l59 -139h-71l-101 139h113z" />
    <glyph glyph-name="oacute" unicode="&#xf3;" 
d="M462 452c20.667 -24 36.334 -52.333 47.001 -85s16 -68 16 -106s-5.33301 -73.333 -16 -106s-26.334 -61 -47.001 -85c-22 -26 -48.5 -46 -79.5 -60s-64.5 -21 -100.5 -21s-69.5 7 -100.5 21s-57.5 34 -79.5 60c-20.667 24 -36.334 52.333 -47.001 85s-16 68 -16 106
s5.33301 73.333 16 106s26.334 61 47.001 85c22 26 48.5 46 79.5 60s64.5 21 100.5 21s69.5 -7 100.5 -21s57.5 -34 79.5 -60zM282 457c-46 0 -82.833 -17.667 -110.5 -53s-41.5 -83 -41.5 -143c0 -59.333 13.833 -106.666 41.5 -141.999s64.5 -53 110.5 -53
s82.833 17.667 110.5 53s41.5 82.666 41.5 141.999c0 60 -13.833 107.667 -41.5 143s-64.5 53 -110.5 53zM312 579h-71l59 139h113z" />
    <glyph glyph-name="ocircumflex" unicode="&#xf4;" 
d="M462 452c20.667 -24 36.334 -52.333 47.001 -85s16 -68 16 -106s-5.33301 -73.333 -16 -106s-26.334 -61 -47.001 -85c-22 -26 -48.5 -46 -79.5 -60s-64.5 -21 -100.5 -21s-69.5 7 -100.5 21s-57.5 34 -79.5 60c-20.667 24 -36.334 52.333 -47.001 85s-16 68 -16 106
s5.33301 73.333 16 106s26.334 61 47.001 85c22 26 48.5 46 79.5 60s64.5 21 100.5 21s69.5 -7 100.5 -21s57.5 -34 79.5 -60zM282 457c-46 0 -82.833 -17.667 -110.5 -53s-41.5 -83 -41.5 -143c0 -59.333 13.833 -106.666 41.5 -141.999s64.5 -53 110.5 -53
s82.833 17.667 110.5 53s41.5 82.666 41.5 141.999c0 60 -13.833 107.667 -41.5 143s-64.5 53 -110.5 53zM233 718h98l98 -139h-70l-77 78l-77 -78h-70z" />
    <glyph glyph-name="otilde" unicode="&#xf5;" 
d="M462 452c20.667 -24 36.334 -52.333 47.001 -85s16 -68 16 -106s-5.33301 -73.333 -16 -106s-26.334 -61 -47.001 -85c-22 -26 -48.5 -46 -79.5 -60s-64.5 -21 -100.5 -21s-69.5 7 -100.5 21s-57.5 34 -79.5 60c-20.667 24 -36.334 52.333 -47.001 85s-16 68 -16 106
s5.33301 73.333 16 106s26.334 61 47.001 85c22 26 48.5 46 79.5 60s64.5 21 100.5 21s69.5 -7 100.5 -21s57.5 -34 79.5 -60zM282 457c-46 0 -82.833 -17.667 -110.5 -53s-41.5 -83 -41.5 -143c0 -59.333 13.833 -106.666 41.5 -141.999s64.5 -53 110.5 -53
s82.833 17.667 110.5 53s41.5 82.666 41.5 141.999c0 60 -13.833 107.667 -41.5 143s-64.5 53 -110.5 53zM219 719c10.667 0 21.334 -2.50195 32.001 -7.50195s24.334 -14.833 41.001 -29.5c12.667 -11.333 22 -18.666 28 -21.999s12 -5 18 -5
c12.667 0 22.334 4.83301 29.001 14.5s11.667 26.167 15 49.5h59c-3.33301 -42 -13.5 -75 -30.5 -99s-39.167 -36 -66.5 -36c-10.667 0 -21.334 2.33301 -32.001 7s-24.334 14.667 -41.001 30c-12.667 10.667 -22 17.667 -28 21s-12 5 -18 5
c-12.667 0 -22.334 -5 -29.001 -15s-11.334 -26 -14.001 -48h-59c2.66699 42.667 12.334 75.834 29.001 99.501s39 35.5 67 35.5z" />
    <glyph glyph-name="odieresis" unicode="&#xf6;" 
d="M462 452c20.667 -24 36.334 -52.333 47.001 -85s16 -68 16 -106s-5.33301 -73.333 -16 -106s-26.334 -61 -47.001 -85c-22 -26 -48.5 -46 -79.5 -60s-64.5 -21 -100.5 -21s-69.5 7 -100.5 21s-57.5 34 -79.5 60c-20.667 24 -36.334 52.333 -47.001 85s-16 68 -16 106
s5.33301 73.333 16 106s26.334 61 47.001 85c22 26 48.5 46 79.5 60s64.5 21 100.5 21s69.5 -7 100.5 -21s57.5 -34 79.5 -60zM282 457c-46 0 -82.833 -17.667 -110.5 -53s-41.5 -83 -41.5 -143c0 -59.333 13.833 -106.666 41.5 -141.999s64.5 -53 110.5 -53
s82.833 17.667 110.5 53s41.5 82.666 41.5 141.999c0 60 -13.833 107.667 -41.5 143s-64.5 53 -110.5 53zM246 610h-100v104h100v-104zM418 610h-100v104h100v-104z" />
    <glyph glyph-name="divide" unicode="&#xf7;" horiz-adv-x="608" 
d="M358 491h-110v108h110v-108zM558 302h-508v80h508v-80zM358 86h-110v108h110v-108z" />
    <glyph glyph-name="oslash" unicode="&#xf8;" 
d="M39 261c0 38 5.33398 73.334 16.001 106.001s26.334 61 47.001 85c22 26 48.5 46 79.5 60s64.5 21 100.5 21c26 0 51 -3.66699 75 -11s45.667 -18.333 65 -33l42 52l53 -42l-46 -58c17.333 -24 30.666 -51.333 39.999 -82s14 -63.334 14 -98.001
c0 -38 -5.33301 -73.333 -16 -106s-26.334 -61 -47.001 -85c-22 -26 -48.5 -46 -79.5 -60s-64.5 -21 -100.5 -21c-26 0 -50.667 3.66699 -74 11s-45 18 -65 32l-42 -53l-53 42l47 58c-18.667 24 -32.667 51.333 -42 82s-14 64 -14 100zM282.001 457.001
c-46 0 -82.833 -17.666 -110.5 -52.999s-41.5 -83 -41.5 -143c0 -20.667 1.83301 -40.334 5.5 -59.001s9.16699 -35.667 16.5 -51l220 275c-12.667 10 -26.5 17.667 -41.5 23s-31.167 8 -48.5 8zM282.001 66.002c46 0 82.832 17.668 110.499 53.001
s41.5 82.666 41.5 141.999c0 21.333 -1.66699 41 -5 59s-8.66602 34.333 -15.999 49l-219 -273c12 -10 25.333 -17.5 40 -22.5s30.667 -7.5 48 -7.5z" />
    <glyph glyph-name="ugrave" unicode="&#xf9;" 
d="M400 523h90v-523h-90v72c-18 -26.667 -40.333 -47.167 -67 -61.5s-56 -21.5 -88 -21.5c-54 0 -96.667 17 -128 51s-47 79.667 -47 137v346h90v-327c0 -40.667 9.16699 -71.5 27.5 -92.5s45.5 -31.5 81.5 -31.5c36.667 0 67.667 12.833 93 38.5s38 58.167 38 97.5v315z
M263 718l59 -139h-71l-101 139h113z" />
    <glyph glyph-name="uacute" unicode="&#xfa;" 
d="M400 523h90v-523h-90v72c-18 -26.667 -40.333 -47.167 -67 -61.5s-56 -21.5 -88 -21.5c-54 0 -96.667 17 -128 51s-47 79.667 -47 137v346h90v-327c0 -40.667 9.16699 -71.5 27.5 -92.5s45.5 -31.5 81.5 -31.5c36.667 0 67.667 12.833 93 38.5s38 58.167 38 97.5v315z
M310 579h-71l59 139h113z" />
    <glyph glyph-name="ucircumflex" unicode="&#xfb;" 
d="M400 523h90v-523h-90v72c-18 -26.667 -40.333 -47.167 -67 -61.5s-56 -21.5 -88 -21.5c-54 0 -96.667 17 -128 51s-47 79.667 -47 137v346h90v-327c0 -40.667 9.16699 -71.5 27.5 -92.5s45.5 -31.5 81.5 -31.5c36.667 0 67.667 12.833 93 38.5s38 58.167 38 97.5v315z
M230 718h98l98 -139h-70l-77 78l-77 -78h-70z" />
    <glyph glyph-name="udieresis" unicode="&#xfc;" 
d="M400 523h90v-523h-90v72c-18 -26.667 -40.333 -47.167 -67 -61.5s-56 -21.5 -88 -21.5c-54 0 -96.667 17 -128 51s-47 79.667 -47 137v346h90v-327c0 -40.667 9.16699 -71.5 27.5 -92.5s45.5 -31.5 81.5 -31.5c36.667 0 67.667 12.833 93 38.5s38 58.167 38 97.5v315z
M243 610h-100v104h100v-104zM415 610h-100v104h100v-104z" />
    <glyph glyph-name="yacute" unicode="&#xfd;" horiz-adv-x="507" 
d="M494 523l-225.002 -580c-18 -46.667 -39.667 -79.834 -65 -99.501s-57.666 -29.5 -96.999 -29.5c-10.667 0 -19.5 0.333008 -26.5 1s-14.5 1.66699 -22.5 3v78c8 -2 15.167 -3.33301 21.5 -4s13.5 -1 21.5 -1c20.667 0 36.834 4.83301 48.501 14.5
s22.5 26.834 32.5 51.501l25 62l-194 504h95l147 -400l145 400h94zM285.998 579h-71l59 139h113z" />
    <glyph glyph-name="thorn" unicode="&#xfe;" horiz-adv-x="594" 
d="M498 73c-20.667 -27.333 -45.4971 -48.167 -74.4971 -62.5s-61.167 -21.5 -96.5 -21.5c-34.667 0 -66.334 7.66699 -95.001 23s-51 36.666 -67 63.999v-256h-90v898h90v-271c16.667 26.667 39.167 47.667 67.5 63s59.833 23 94.5 23
c35.333 0 67.666 -7.16699 96.999 -21.5s54.333 -35.166 75 -62.499c18 -24.667 31.833 -53 41.5 -85s14.5 -66.333 14.5 -103c0 -36 -4.83301 -70.167 -14.5 -102.5s-23.834 -60.833 -42.501 -85.5zM311.003 453.999c-43.333 0 -78.833 -15.668 -106.5 -47.001
s-41.5 -74 -41.5 -128v-37c0 -53.333 13.833 -95.666 41.5 -126.999s63.167 -47 106.5 -47c46.667 0 83.667 17.5 111 52.5s41 81.833 41 140.5c0 59.333 -13.667 106.333 -41 141s-64.333 52 -111 52z" />
    <glyph glyph-name="ydieresis" unicode="&#xff;" horiz-adv-x="507" 
d="M494 523l-225.002 -580c-18 -46.667 -39.667 -79.834 -65 -99.501s-57.666 -29.5 -96.999 -29.5c-10.667 0 -19.5 0.333008 -26.5 1s-14.5 1.66699 -22.5 3v78c8 -2 15.167 -3.33301 21.5 -4s13.5 -1 21.5 -1c20.667 0 36.834 4.83301 48.501 14.5
s22.5 26.834 32.5 51.501l25 62l-194 504h95l147 -400l145 400h94zM217.998 610h-100v104h100v-104zM389.998 610h-100v104h100v-104z" />
    <glyph glyph-name="Amacron" unicode="&#x100;" horiz-adv-x="692" 
d="M16 0l277 718h106l277 -718h-97l-73 189h-322l-72 -189h-96zM474 273l-130 337l-128 -337h258zM501 855v-75h-312v75h312z" />
    <glyph glyph-name="amacron" unicode="&#x101;" horiz-adv-x="526" 
d="M367 59c-16.667 -21.333 -39.165 -38.001 -67.498 -50.001s-59.5 -18 -93.5 -18c-50 0 -91.167 13.833 -123.5 41.5s-48.5 63.834 -48.5 108.501s15.5 80.667 46.5 108s81.5 48.333 151.5 63l127 26v22c0 30.667 -8.66699 54 -26 70s-43 24 -77 24
c-32 0 -58.167 -7.33301 -78.5 -22s-34.5 -37 -42.5 -67l-85 22c13.333 44.667 38.666 80.167 75.999 106.5s81.666 39.5 132.999 39.5c60.667 0 107.334 -14.667 140.001 -44s49 -71 49 -125v-255c0 -16 4.83301 -27.167 14.5 -33.5s23.5 -7.5 41.5 -3.5v-72
c-40.667 -5.33301 -72.334 -3 -95.001 7s-36.667 27.333 -42 52zM217.002 63.999c40 0 73.667 10.8311 101 32.498s41 48.834 41 81.501v90l-102 -22c-50 -10 -84.833 -22.833 -104.5 -38.5s-29.5 -36.5 -29.5 -62.5c0 -25.333 8.33301 -45.166 25 -59.499
s39.667 -21.5 69 -21.5zM398.002 677.997v-72h-274v72h274z" />
    <glyph glyph-name="Abreve" unicode="&#x102;" horiz-adv-x="692" 
d="M16 0l277 718h106l277 -718h-97l-73 189h-322l-72 -189h-96zM474 273l-130 337l-128 -337h258zM345 825c25.333 0 46 7.83301 62 23.5s24 36.167 24 61.5h68c0 -44.667 -14 -80.334 -42 -107.001s-65.333 -40 -112 -40s-84 13.333 -112 40s-42 62.334 -42 107.001h68
c0 -25.333 8 -45.833 24 -61.5s36.667 -23.5 62 -23.5z" />
    <glyph glyph-name="abreve" unicode="&#x103;" horiz-adv-x="526" 
d="M367 59c-16.667 -21.333 -39.165 -38.001 -67.498 -50.001s-59.5 -18 -93.5 -18c-50 0 -91.167 13.833 -123.5 41.5s-48.5 63.834 -48.5 108.501s15.5 80.667 46.5 108s81.5 48.333 151.5 63l127 26v22c0 30.667 -8.66699 54 -26 70s-43 24 -77 24
c-32 0 -58.167 -7.33301 -78.5 -22s-34.5 -37 -42.5 -67l-85 22c13.333 44.667 38.666 80.167 75.999 106.5s81.666 39.5 132.999 39.5c60.667 0 107.334 -14.667 140.001 -44s49 -71 49 -125v-255c0 -16 4.83301 -27.167 14.5 -33.5s23.5 -7.5 41.5 -3.5v-72
c-40.667 -5.33301 -72.334 -3 -95.001 7s-36.667 27.333 -42 52zM217.002 63.999c40 0 73.667 10.8311 101 32.498s41 48.834 41 81.501v90l-102 -22c-50 -10 -84.833 -22.833 -104.5 -38.5s-29.5 -36.5 -29.5 -62.5c0 -25.333 8.33301 -45.166 25 -59.499
s39.667 -21.5 69 -21.5zM261.002 638.997c21.333 0 38.5 7 51.5 21s19.5 33.333 19.5 58h63c0 -44.667 -12 -79.834 -36 -105.501s-56.667 -38.5 -98 -38.5s-74 12.833 -98 38.5s-36 60.834 -36 105.501h63c0 -24.667 6.5 -44 19.5 -58s30.167 -21 51.5 -21z" />
    <glyph glyph-name="Aogonek" unicode="&#x104;" horiz-adv-x="692" 
d="M594 -186c-26 0 -47.5 7.5 -64.5 22.5s-25.5 34.167 -25.5 57.5c0 20.667 5.5 40.167 16.5 58.5s29.167 37.833 54.5 58.5l-69 178h-322l-72 -189h-96l277 718h106l277 -718h-40c-25.333 -22 -42.666 -39.667 -51.999 -53s-14 -26.333 -14 -39
c0 -10.667 3.66699 -19.167 11 -25.5s17 -9.5 29 -9.5c7.33301 0 13.833 0.5 19.5 1.5s12.5 2.5 20.5 4.5v-58c-9.33301 -2.66699 -17.833 -4.5 -25.5 -5.5s-17.834 -1.5 -30.501 -1.5zM474 273l-130 337l-128 -337h258z" />
    <glyph glyph-name="aogonek" unicode="&#x105;" horiz-adv-x="526" 
d="M367 59c-16.667 -21.333 -39.166 -37.999 -67.499 -49.999s-59.5 -18 -93.5 -18c-50 0 -91.167 13.833 -123.5 41.5s-48.5 63.834 -48.5 108.501s15.5 80.667 46.5 108s81.5 48.333 151.5 63l127 26v22c0 30.667 -8.66699 54 -26 70s-43 24 -77 24
c-32 0 -58.167 -7.33301 -78.5 -22s-34.5 -37 -42.5 -67l-85 22c13.333 44.667 38.666 80.167 75.999 106.5s81.666 39.5 132.999 39.5c60.667 0 107.334 -14.667 140.001 -44s49 -71 49 -125v-255c0 -16 4.83301 -27.167 14.5 -33.5s23.5 -7.5 41.5 -3.5v-72
c-2 -0.666992 -5 -1.16699 -9 -1.5s-7 -0.5 -9 -0.5c-24.667 -22 -41.5 -39.5 -50.5 -52.5s-13.5 -25.5 -13.5 -37.5c0 -10.667 3.66699 -19.167 11 -25.5s17 -9.5 29 -9.5c7.33301 0 13.833 0.5 19.5 1.5s12.5 2.5 20.5 4.5v-58c-9.33301 -2.66699 -17.833 -4.5 -25.5 -5.5
s-17.834 -1.5 -30.501 -1.5c-26 0 -47.5 7.5 -64.5 22.5s-25.5 34.167 -25.5 57.5c0 19.333 4.83301 37.666 14.5 54.999s25.5 35.666 47.5 54.999c-14 4 -25.167 10.667 -33.5 20s-14.166 21 -17.499 35zM217.001 64.001c40 0 73.667 10.8311 101 32.498
s41 48.834 41 81.501v90l-102 -22c-50 -10 -84.833 -22.833 -104.5 -38.5s-29.5 -36.5 -29.5 -62.5c0 -25.333 8.33301 -45.166 25 -59.499s39.667 -21.5 69 -21.5z" />
    <glyph glyph-name="Cacute" unicode="&#x106;" horiz-adv-x="659" 
d="M187 553c-17.333 -25.333 -30.666 -54.5 -39.999 -87.5s-14 -68.5 -14 -106.5s4.66699 -73.5 14 -106.5s22.666 -62.167 39.999 -87.5c20.667 -29.333 45.834 -51.833 75.501 -67.5s62.167 -23.5 97.5 -23.5c46 0 85.167 12.667 117.5 38s55.166 61 68.499 107l91 -30
c-21.333 -63.333 -56.166 -112.5 -104.499 -147.5s-105.833 -52.5 -172.5 -52.5c-48 0 -92.667 9.83301 -134 29.5s-76.666 47.5 -105.999 83.5c-27.333 33.333 -48 72 -62 116s-21 91 -21 141s7 97 21 141s34.667 82.667 62 116c29.333 36 64.666 63.833 105.999 83.5
s86 29.5 134 29.5c66.667 0 124.167 -17.5 172.5 -52.5s83.166 -84.167 104.499 -147.5l-91 -30c-13.333 46 -36.166 81.667 -68.499 107s-71.5 38 -117.5 38c-35.333 0 -67.833 -7.83301 -97.5 -23.5s-54.834 -38.167 -75.501 -67.5zM382 765h-72l101 145h126z" />
    <glyph glyph-name="cacute" unicode="&#x107;" horiz-adv-x="520" 
d="M286 455c-47.333 0 -85.333 -17.666 -114 -52.999s-43 -82.333 -43 -141s14.333 -105.5 43 -140.5s66.667 -52.5 114 -52.5c33.333 0 61.333 9.66699 84 29s38 46.666 46 81.999l80 -37c-13.333 -46.667 -38.833 -83.834 -76.5 -111.501s-82.167 -41.5 -133.5 -41.5
c-36.667 0 -70.667 6.83301 -102 20.5s-58 33.5 -80 59.5c-21.333 24.667 -37.5 53.334 -48.5 86.001s-16.5 68 -16.5 106s5.5 73.333 16.5 106s27.167 61.334 48.5 86.001c22 26 48.667 45.833 80 59.5s65.333 20.5 102 20.5c51.333 0 95.5 -13.5 132.5 -40.5
s62.167 -63.5 75.5 -109.5l-78 -39c-8 35.333 -23.333 62.666 -46 81.999s-50.667 29 -84 29zM315 579.001h-71l59 139h113z" />
    <glyph glyph-name="Ccircumflex" unicode="&#x108;" horiz-adv-x="659" 
d="M187 553c-17.333 -25.333 -30.666 -54.5 -39.999 -87.5s-14 -68.5 -14 -106.5s4.66699 -73.5 14 -106.5s22.666 -62.167 39.999 -87.5c20.667 -29.333 45.834 -51.833 75.501 -67.5s62.167 -23.5 97.5 -23.5c46 0 85.167 12.667 117.5 38s55.166 61 68.499 107l91 -30
c-21.333 -63.333 -56.166 -112.5 -104.499 -147.5s-105.833 -52.5 -172.5 -52.5c-48 0 -92.667 9.83301 -134 29.5s-76.666 47.5 -105.999 83.5c-27.333 33.333 -48 72 -62 116s-21 91 -21 141s7 97 21 141s34.667 82.667 62 116c29.333 36 64.666 63.833 105.999 83.5
s86 29.5 134 29.5c66.667 0 124.167 -17.5 172.5 -52.5s83.166 -84.167 104.499 -147.5l-91 -30c-13.333 46 -36.166 81.667 -68.499 107s-71.5 38 -117.5 38c-35.333 0 -67.833 -7.83301 -97.5 -23.5s-54.834 -38.167 -75.501 -67.5zM308 910h108l117 -145h-73l-98 87
l-98 -87h-73z" />
    <glyph glyph-name="ccircumflex" unicode="&#x109;" horiz-adv-x="520" 
d="M286 455c-47.333 0 -85.333 -17.666 -114 -52.999s-43 -82.333 -43 -141s14.333 -105.5 43 -140.5s66.667 -52.5 114 -52.5c33.333 0 61.333 9.66699 84 29s38 46.666 46 81.999l80 -37c-13.333 -46.667 -38.833 -83.834 -76.5 -111.501s-82.167 -41.5 -133.5 -41.5
c-36.667 0 -70.667 6.83301 -102 20.5s-58 33.5 -80 59.5c-21.333 24.667 -37.5 53.334 -48.5 86.001s-16.5 68 -16.5 106s5.5 73.333 16.5 106s27.167 61.334 48.5 86.001c22 26 48.667 45.833 80 59.5s65.333 20.5 102 20.5c51.333 0 95.5 -13.5 132.5 -40.5
s62.167 -63.5 75.5 -109.5l-78 -39c-8 35.333 -23.333 62.666 -46 81.999s-50.667 29 -84 29zM236 718.001h98l98 -139h-70l-77 78l-77 -78h-70z" />
    <glyph glyph-name="Cdotaccent" unicode="&#x10a;" horiz-adv-x="659" 
d="M187 553c-17.333 -25.333 -30.666 -54.5 -39.999 -87.5s-14 -68.5 -14 -106.5s4.66699 -73.5 14 -106.5s22.666 -62.167 39.999 -87.5c20.667 -29.333 45.834 -51.833 75.501 -67.5s62.167 -23.5 97.5 -23.5c46 0 85.167 12.667 117.5 38s55.166 61 68.499 107l91 -30
c-21.333 -63.333 -56.166 -112.5 -104.499 -147.5s-105.833 -52.5 -172.5 -52.5c-48 0 -92.667 9.83301 -134 29.5s-76.666 47.5 -105.999 83.5c-27.333 33.333 -48 72 -62 116s-21 91 -21 141s7 97 21 141s34.667 82.667 62 116c29.333 36 64.666 63.833 105.999 83.5
s86 29.5 134 29.5c66.667 0 124.167 -17.5 172.5 -52.5s83.166 -84.167 104.499 -147.5l-91 -30c-13.333 46 -36.166 81.667 -68.499 107s-71.5 38 -117.5 38c-35.333 0 -67.833 -7.83301 -97.5 -23.5s-54.834 -38.167 -75.501 -67.5zM413 769h-100v104h100v-104z" />
    <glyph glyph-name="cdotaccent" unicode="&#x10b;" horiz-adv-x="520" 
d="M286 455c-47.333 0 -85.333 -17.666 -114 -52.999s-43 -82.333 -43 -141s14.333 -105.5 43 -140.5s66.667 -52.5 114 -52.5c33.333 0 61.333 9.66699 84 29s38 46.666 46 81.999l80 -37c-13.333 -46.667 -38.833 -83.834 -76.5 -111.501s-82.167 -41.5 -133.5 -41.5
c-36.667 0 -70.667 6.83301 -102 20.5s-58 33.5 -80 59.5c-21.333 24.667 -37.5 53.334 -48.5 86.001s-16.5 68 -16.5 106s5.5 73.333 16.5 106s27.167 61.334 48.5 86.001c22 26 48.667 45.833 80 59.5s65.333 20.5 102 20.5c51.333 0 95.5 -13.5 132.5 -40.5
s62.167 -63.5 75.5 -109.5l-78 -39c-8 35.333 -23.333 62.666 -46 81.999s-50.667 29 -84 29zM333 614.001h-98v104h98v-104z" />
    <glyph glyph-name="Ccaron" unicode="&#x10c;" horiz-adv-x="659" 
d="M187 553c-17.333 -25.333 -30.666 -54.5 -39.999 -87.5s-14 -68.5 -14 -106.5s4.66699 -73.5 14 -106.5s22.666 -62.167 39.999 -87.5c20.667 -29.333 45.834 -51.833 75.501 -67.5s62.167 -23.5 97.5 -23.5c46 0 85.167 12.667 117.5 38s55.166 61 68.499 107l91 -30
c-21.333 -63.333 -56.166 -112.5 -104.499 -147.5s-105.833 -52.5 -172.5 -52.5c-48 0 -92.667 9.83301 -134 29.5s-76.666 47.5 -105.999 83.5c-27.333 33.333 -48 72 -62 116s-21 91 -21 141s7 97 21 141s34.667 82.667 62 116c29.333 36 64.666 63.833 105.999 83.5
s86 29.5 134 29.5c66.667 0 124.167 -17.5 172.5 -52.5s83.166 -84.167 104.499 -147.5l-91 -30c-13.333 46 -36.166 81.667 -68.499 107s-71.5 38 -117.5 38c-35.333 0 -67.833 -7.83301 -97.5 -23.5s-54.834 -38.167 -75.501 -67.5zM534 911l-117 -145h-108l-117 145h73
l98 -87l98 87h73z" />
    <glyph glyph-name="ccaron" unicode="&#x10d;" horiz-adv-x="520" 
d="M286 455c-47.333 0 -85.333 -17.666 -114 -52.999s-43 -82.333 -43 -141s14.333 -105.5 43 -140.5s66.667 -52.5 114 -52.5c33.333 0 61.333 9.66699 84 29s38 46.666 46 81.999l80 -37c-13.333 -46.667 -38.833 -83.834 -76.5 -111.501s-82.167 -41.5 -133.5 -41.5
c-36.667 0 -70.667 6.83301 -102 20.5s-58 33.5 -80 59.5c-21.333 24.667 -37.5 53.334 -48.5 86.001s-16.5 68 -16.5 106s5.5 73.333 16.5 106s27.167 61.334 48.5 86.001c22 26 48.667 45.833 80 59.5s65.333 20.5 102 20.5c51.333 0 95.5 -13.5 132.5 -40.5
s62.167 -63.5 75.5 -109.5l-78 -39c-8 35.333 -23.333 62.666 -46 81.999s-50.667 29 -84 29zM436 718.001l-98 -139h-98l-98 139h70l77 -78l77 78h70z" />
    <glyph glyph-name="Dcaron" unicode="&#x10e;" horiz-adv-x="701" 
d="M307 0h-228v718h228c53.333 0 102 -8.33301 146 -25s82 -40.667 114 -72c31.333 -32 55.166 -70.167 71.499 -114.5s24.5 -93.5 24.5 -147.5s-8.16699 -103.167 -24.5 -147.5s-40.166 -82.5 -71.499 -114.5c-32 -31.333 -70 -55.333 -114 -72s-92.667 -25 -146 -25z
M173 635v-552.002h134c80.667 0 144.5 24.833 191.5 74.5s70.5 116.834 70.5 201.501s-23.5 151.834 -70.5 201.501s-111.167 74.5 -192.5 74.5h-133zM496 910.998l-117 -145h-108l-117 145h73l98 -87l98 87h73z" />
    <glyph glyph-name="dcaron" unicode="&#x10f;" horiz-adv-x="683" 
d="M267 -11c-35.333 0 -67.4971 7.16797 -96.4971 21.501s-53.833 35.166 -74.5 62.499c-18.667 24.667 -32.834 53.167 -42.501 85.5s-14.5 66.5 -14.5 102.5c0 36.667 4.83301 71 14.5 103s23.5 60.333 41.5 85c20.667 27.333 45.667 48.166 75 62.499
s61.666 21.5 96.999 21.5c34.667 0 66.167 -7.66699 94.5 -23s50.833 -36.333 67.5 -63v271h90v-718h-90v76c-16 -27.333 -38.333 -48.666 -67 -63.999s-60.334 -23 -95.001 -23zM431.003 242.001l-0.00195312 37.001c0 54 -13.833 96.667 -41.5 128s-63.167 47 -106.5 47
c-47.333 0 -84.666 -17.5 -111.999 -52.5s-41 -81.833 -41 -140.5s13.833 -105.5 41.5 -140.5s64.834 -52.5 111.501 -52.5c43.333 0 78.833 15.667 106.5 47s41.5 73.666 41.5 126.999zM641.001 542.002h-61l23 176h103z" />
    <glyph glyph-name="Dcroat" unicode="&#x110;" horiz-adv-x="711" 
d="M317 0h-228v328h-67v84h67v306h228c53.333 0 102 -8.33301 146 -25s82 -40.667 114 -72c31.333 -32 55.166 -70.167 71.499 -114.5s24.5 -93.5 24.5 -147.5s-8.16699 -103.167 -24.5 -147.5s-40.166 -82.5 -71.499 -114.5c-32 -31.333 -70 -55.333 -114 -72
s-92.667 -25 -146 -25zM183 328v-245.002h134c80.667 0 144.5 24.833 191.5 74.5s70.5 116.834 70.5 201.501s-23.5 151.834 -70.5 201.501s-111.167 74.5 -192.5 74.5h-133v-223h143v-84h-143z" />
    <glyph glyph-name="dcroat" unicode="&#x111;" horiz-adv-x="593" 
d="M267 -11c-35.333 0 -67.4971 7.16797 -96.4971 21.501s-53.833 35.166 -74.5 62.499c-18.667 24.667 -32.834 53.167 -42.501 85.5s-14.5 66.5 -14.5 102.5c0 36.667 4.83301 71 14.5 103s23.5 60.333 41.5 85c20.667 27.333 45.667 48.166 75 62.499
s61.666 21.5 96.999 21.5c34.667 0 66.167 -7.66699 94.5 -23s50.833 -36.333 67.5 -63v129h-146v72h146v70h90v-70h60v-72h-60v-576h-90v76c-16 -27.333 -38.333 -48.666 -67 -63.999s-60.334 -23 -95.001 -23zM431.003 242.001l-0.00195312 37.001
c0 54 -13.833 96.667 -41.5 128s-63.167 47 -106.5 47c-47.333 0 -84.666 -17.5 -111.999 -52.5s-41 -81.833 -41 -140.5s13.833 -105.5 41.5 -140.5s64.834 -52.5 111.501 -52.5c43.333 0 78.833 15.667 106.5 47s41.5 73.666 41.5 126.999z" />
    <glyph glyph-name="Emacron" unicode="&#x112;" horiz-adv-x="595" 
d="M79 0v718h469v-84h-374v-221h317v-84h-317v-245h374v-84h-469zM469 855v-75h-312v75h312z" />
    <glyph glyph-name="emacron" unicode="&#x113;" horiz-adv-x="540" 
d="M284 -11c-36.667 0 -70.502 6.83008 -101.502 20.4971s-57.5 33.834 -79.5 60.501c-20.667 24 -36.5 52.333 -47.5 85s-16.5 68 -16.5 106c0 36.667 5.33301 71.334 16 104.001s26.334 61.334 47.001 86.001c22 26.667 48.333 47 79 61s63.667 21 99 21
c68.667 0 123 -23.333 163 -70s60 -108.667 60 -186v-30h-378c2.66699 -54.667 18.334 -98.334 47.001 -131.001s66 -49 112 -49c34.667 0 64 8.83301 88 26.5s40 42.167 48 73.5l79 -28c-16 -47.333 -43 -84.166 -81 -110.499s-82.667 -39.5 -134 -39.5zM278.998 455.997
c-38.667 0 -71.168 -12.333 -97.501 -37s-43.5 -59 -51.5 -103h282c-1.33301 42.667 -13.666 76.667 -36.999 102s-55.333 38 -96 38zM416.997 677.997v-72h-274v72h274z" />
    <glyph glyph-name="Ebreve" unicode="&#x114;" horiz-adv-x="595" 
d="M79 0v718h469v-84h-374v-221h317v-84h-317v-245h374v-84h-469zM320 825c25.333 0 46 7.83301 62 23.5s24 36.167 24 61.5h68c0 -44.667 -14 -80.334 -42 -107.001s-65.333 -40 -112 -40s-84 13.333 -112 40s-42 62.334 -42 107.001h68c0 -25.333 8 -45.833 24 -61.5
s36.667 -23.5 62 -23.5z" />
    <glyph glyph-name="ebreve" unicode="&#x115;" horiz-adv-x="540" 
d="M284 -11c-36.667 0 -70.502 6.83008 -101.502 20.4971s-57.5 33.834 -79.5 60.501c-20.667 24 -36.5 52.333 -47.5 85s-16.5 68 -16.5 106c0 36.667 5.33301 71.334 16 104.001s26.334 61.334 47.001 86.001c22 26.667 48.333 47 79 61s63.667 21 99 21
c68.667 0 123 -23.333 163 -70s60 -108.667 60 -186v-30h-378c2.66699 -54.667 18.334 -98.334 47.001 -131.001s66 -49 112 -49c34.667 0 64 8.83301 88 26.5s40 42.167 48 73.5l79 -28c-16 -47.333 -43 -84.166 -81 -110.499s-82.667 -39.5 -134 -39.5zM278.998 455.997
c-38.667 0 -71.168 -12.333 -97.501 -37s-43.5 -59 -51.5 -103h282c-1.33301 42.667 -13.666 76.667 -36.999 102s-55.333 38 -96 38zM279.997 638.997c21.333 0 38.5 7 51.5 21s19.5 33.333 19.5 58h63c0 -44.667 -12 -79.834 -36 -105.501s-56.667 -38.5 -98 -38.5
s-74 12.833 -98 38.5s-36 60.834 -36 105.501h63c0 -24.667 6.5 -44 19.5 -58s30.167 -21 51.5 -21z" />
    <glyph glyph-name="Edotaccent" unicode="&#x116;" horiz-adv-x="595" 
d="M79 0v718h469v-84h-374v-221h317v-84h-317v-245h374v-84h-469zM369 769h-100v104h100v-104z" />
    <glyph glyph-name="edotaccent" unicode="&#x117;" horiz-adv-x="540" 
d="M284 -11c-36.667 0 -70.502 6.83008 -101.502 20.4971s-57.5 33.834 -79.5 60.501c-20.667 24 -36.5 52.333 -47.5 85s-16.5 68 -16.5 106c0 36.667 5.33301 71.334 16 104.001s26.334 61.334 47.001 86.001c22 26.667 48.333 47 79 61s63.667 21 99 21
c68.667 0 123 -23.333 163 -70s60 -108.667 60 -186v-30h-378c2.66699 -54.667 18.334 -98.334 47.001 -131.001s66 -49 112 -49c34.667 0 64 8.83301 88 26.5s40 42.167 48 73.5l79 -28c-16 -47.333 -43 -84.166 -81 -110.499s-82.667 -39.5 -134 -39.5zM278.998 455.997
c-38.667 0 -71.168 -12.333 -97.501 -37s-43.5 -59 -51.5 -103h282c-1.33301 42.667 -13.666 76.667 -36.999 102s-55.333 38 -96 38zM328.997 613.997h-98v104h98v-104z" />
    <glyph glyph-name="Eogonek" unicode="&#x118;" horiz-adv-x="595" 
d="M450 -186c-26 0 -47.5 7.50098 -64.5 22.501s-25.5 34.167 -25.5 57.5c0 19.333 4.5 37.166 13.5 53.499s23.833 33.833 44.5 52.5h-339v718h469v-84h-374v-221h317v-84h-317v-245h374v-84h-56c-25.333 -22 -42.666 -39.667 -51.999 -53s-14 -26.333 -14 -39
c0 -10.667 3.66699 -19.167 11 -25.5s17 -9.5 29 -9.5c7.33301 0 13.833 0.5 19.5 1.5s12.5 2.5 20.5 4.5v-58c-9.33301 -2.66699 -17.833 -4.5 -25.5 -5.5s-17.834 -1.5 -30.501 -1.5z" />
    <glyph glyph-name="eogonek" unicode="&#x119;" horiz-adv-x="540" 
d="M320 -186c-26 0 -47.502 7.50488 -64.502 22.5049s-25.5 34.167 -25.5 57.5c0 17.333 3.66699 33.666 11 48.999s19 30.666 35 45.999c-35.333 1.33301 -68 9.16602 -98 23.499s-56 34.5 -78 60.5c-20 24 -35.167 52 -45.5 84s-15.5 66.667 -15.5 104
c0 36.667 5.33301 71.334 16 104.001s26.334 61.334 47.001 86.001c22 26.667 48.333 47 79 61s63.667 21 99 21c68.667 0 123 -23.333 163 -70s60 -108.667 60 -186v-30h-378c2.66699 -54.667 18.334 -98.334 47.001 -131.001s66 -49 112 -49c34.667 0 64 8.83301 88 26.5
s40 42.167 48 73.5l79 -28c-11.333 -33.333 -28.666 -61.833 -51.999 -85.5s-51 -40.834 -83 -51.501c-26 -22.667 -43.833 -40.834 -53.5 -54.501s-14.5 -26.834 -14.5 -39.501c0 -10.667 3.66699 -19.167 11 -25.5s17 -9.5 29 -9.5c7.33301 0 13.833 0.5 19.5 1.5
s12.5 2.5 20.5 4.5v-58c-9.33301 -2.66699 -17.833 -4.5 -25.5 -5.5s-17.834 -1.5 -30.501 -1.5zM278.998 456.005c-38.667 0 -71.168 -12.333 -97.501 -37s-43.5 -59 -51.5 -103h282c-1.33301 42.667 -13.666 76.667 -36.999 102s-55.333 38 -96 38z" />
    <glyph glyph-name="Ecaron" unicode="&#x11a;" horiz-adv-x="595" 
d="M79 0v718h469v-84h-374v-221h317v-84h-317v-245h374v-84h-469zM491 911l-117 -145h-108l-117 145h73l98 -87l98 87h73z" />
    <glyph glyph-name="ecaron" unicode="&#x11b;" horiz-adv-x="540" 
d="M284 -11c-36.667 0 -70.502 6.83008 -101.502 20.4971s-57.5 33.834 -79.5 60.501c-20.667 24 -36.5 52.333 -47.5 85s-16.5 68 -16.5 106c0 36.667 5.33301 71.334 16 104.001s26.334 61.334 47.001 86.001c22 26.667 48.333 47 79 61s63.667 21 99 21
c68.667 0 123 -23.333 163 -70s60 -108.667 60 -186v-30h-378c2.66699 -54.667 18.334 -98.334 47.001 -131.001s66 -49 112 -49c34.667 0 64 8.83301 88 26.5s40 42.167 48 73.5l79 -28c-16 -47.333 -43 -84.166 -81 -110.499s-82.667 -39.5 -134 -39.5zM278.998 455.997
c-38.667 0 -71.168 -12.333 -97.501 -37s-43.5 -59 -51.5 -103h282c-1.33301 42.667 -13.666 76.667 -36.999 102s-55.333 38 -96 38zM429.997 717.997l-98 -139h-98l-98 139h70l77 -78l77 78h70z" />
    <glyph glyph-name="Gcircumflex" unicode="&#x11c;" horiz-adv-x="720" 
d="M653 0l-87.998 -0.00195312v107c-15.333 -35.333 -42 -63.833 -80 -85.5s-81 -32.5 -129 -32.5c-47.333 0 -91.5 9.83301 -132.5 29.5s-75.833 47.5 -104.5 83.5c-26.667 33.333 -47 71.666 -61 114.999s-21 90 -21 140c0 50.667 7.16699 98 21.5 142
s35.166 82.667 62.499 116c29.333 36.667 64.833 64.834 106.5 84.501s86.5 29.5 134.5 29.5c67.333 0 125.166 -17.333 173.499 -52s83.5 -83.667 105.5 -147l-92 -30c-13.333 46 -36 81.5 -68 106.5s-71.333 37.5 -118 37.5c-36 0 -69 -7.83301 -99 -23.5
s-55.333 -38.167 -76 -67.5c-18 -25.333 -31.667 -54.666 -41 -87.999s-14 -69 -14 -107s4.66699 -73.667 14 -107s23.333 -62.666 42 -87.999c20.667 -29.333 46 -51.833 76 -67.5s63 -23.5 99 -23.5c57.333 0 104 20 140 60s54.667 92.333 56 157h-206v84h299v-373z
M311.002 909.998h108l117 -145h-73l-98 87l-98 -87h-73z" />
    <glyph glyph-name="gcircumflex" unicode="&#x11d;" horiz-adv-x="593" 
d="M518 523v-475.999c0 -73.333 -22 -131.333 -66 -174s-103 -64 -177 -64c-58 0 -107 13 -147 39s-67 62.667 -81 110l84 32c8.66699 -33.333 25.667 -59.333 51 -78s56.333 -28 93 -28c50 0 88 13.333 114 40s39 65.334 39 116.001v59
c-14.667 -26.667 -36.334 -47.834 -65.001 -63.501s-60.334 -23.5 -95.001 -23.5s-66.334 6.83301 -95.001 20.5s-53.334 33.167 -74.001 58.5c-18.667 24 -33 51.5 -43 82.5s-15 64.167 -15 99.5s5 68.5 15 99.5s24.333 58.167 43 81.5c20.667 26 45.334 45.667 74.001 59
s60.334 20 95.001 20s66.334 -7.83301 95.001 -23.5s50.334 -36.834 65.001 -63.501v77h90zM429 262.001l-0.00195312 19c0 52.667 -13.5 94.667 -40.5 126s-61.833 47 -104.5 47c-47.333 0 -84.666 -16.333 -111.999 -49s-41 -76.667 -41 -132s13.833 -99.5 41.5 -132.5
s64.834 -49.5 111.501 -49.5c42.667 0 77.5 15.5 104.5 46.5s40.5 72.5 40.5 124.5zM250.998 718.001h98l98 -139h-70l-77 78l-77 -78h-70z" />
    <glyph glyph-name="Gbreve" unicode="&#x11e;" horiz-adv-x="720" 
d="M653 0l-87.998 -0.00195312v107c-15.333 -35.333 -42 -63.833 -80 -85.5s-81 -32.5 -129 -32.5c-47.333 0 -91.5 9.83301 -132.5 29.5s-75.833 47.5 -104.5 83.5c-26.667 33.333 -47 71.666 -61 114.999s-21 90 -21 140c0 50.667 7.16699 98 21.5 142
s35.166 82.667 62.499 116c29.333 36.667 64.833 64.834 106.5 84.501s86.5 29.5 134.5 29.5c67.333 0 125.166 -17.333 173.499 -52s83.5 -83.667 105.5 -147l-92 -30c-13.333 46 -36 81.5 -68 106.5s-71.333 37.5 -118 37.5c-36 0 -69 -7.83301 -99 -23.5
s-55.333 -38.167 -76 -67.5c-18 -25.333 -31.667 -54.666 -41 -87.999s-14 -69 -14 -107s4.66699 -73.667 14 -107s23.333 -62.666 42 -87.999c20.667 -29.333 46 -51.833 76 -67.5s63 -23.5 99 -23.5c57.333 0 104 20 140 60s54.667 92.333 56 157h-206v84h299v-373z
M365.002 824.998c25.333 0 46 7.83301 62 23.5s24 36.167 24 61.5h68c0 -44.667 -14 -80.334 -42 -107.001s-65.333 -40 -112 -40s-84 13.333 -112 40s-42 62.334 -42 107.001h68c0 -25.333 8 -45.833 24 -61.5s36.667 -23.5 62 -23.5z" />
    <glyph glyph-name="gbreve" unicode="&#x11f;" horiz-adv-x="593" 
d="M518 523v-475.999c0 -73.333 -22 -131.333 -66 -174s-103 -64 -177 -64c-58 0 -107 13 -147 39s-67 62.667 -81 110l84 32c8.66699 -33.333 25.667 -59.333 51 -78s56.333 -28 93 -28c50 0 88 13.333 114 40s39 65.334 39 116.001v59
c-14.667 -26.667 -36.334 -47.834 -65.001 -63.501s-60.334 -23.5 -95.001 -23.5s-66.334 6.83301 -95.001 20.5s-53.334 33.167 -74.001 58.5c-18.667 24 -33 51.5 -43 82.5s-15 64.167 -15 99.5s5 68.5 15 99.5s24.333 58.167 43 81.5c20.667 26 45.334 45.667 74.001 59
s60.334 20 95.001 20s66.334 -7.83301 95.001 -23.5s50.334 -36.834 65.001 -63.501v77h90zM429 262.001l-0.00195312 19c0 52.667 -13.5 94.667 -40.5 126s-61.833 47 -104.5 47c-47.333 0 -84.666 -16.333 -111.999 -49s-41 -76.667 -41 -132s13.833 -99.5 41.5 -132.5
s64.834 -49.5 111.501 -49.5c42.667 0 77.5 15.5 104.5 46.5s40.5 72.5 40.5 124.5zM298.998 639.001c21.333 0 38.5 7 51.5 21s19.5 33.333 19.5 58h63c0 -44.667 -12 -79.834 -36 -105.501s-56.667 -38.5 -98 -38.5s-74 12.833 -98 38.5s-36 60.834 -36 105.501h63
c0 -24.667 6.5 -44 19.5 -58s30.167 -21 51.5 -21z" />
    <glyph glyph-name="Gdotaccent" unicode="&#x120;" horiz-adv-x="720" 
d="M653 0l-87.998 -0.00195312v107c-15.333 -35.333 -42 -63.833 -80 -85.5s-81 -32.5 -129 -32.5c-47.333 0 -91.5 9.83301 -132.5 29.5s-75.833 47.5 -104.5 83.5c-26.667 33.333 -47 71.666 -61 114.999s-21 90 -21 140c0 50.667 7.16699 98 21.5 142
s35.166 82.667 62.499 116c29.333 36.667 64.833 64.834 106.5 84.501s86.5 29.5 134.5 29.5c67.333 0 125.166 -17.333 173.499 -52s83.5 -83.667 105.5 -147l-92 -30c-13.333 46 -36 81.5 -68 106.5s-71.333 37.5 -118 37.5c-36 0 -69 -7.83301 -99 -23.5
s-55.333 -38.167 -76 -67.5c-18 -25.333 -31.667 -54.666 -41 -87.999s-14 -69 -14 -107s4.66699 -73.667 14 -107s23.333 -62.666 42 -87.999c20.667 -29.333 46 -51.833 76 -67.5s63 -23.5 99 -23.5c57.333 0 104 20 140 60s54.667 92.333 56 157h-206v84h299v-373z
M415.002 768.998h-100v104h100v-104z" />
    <glyph glyph-name="gdotaccent" unicode="&#x121;" horiz-adv-x="593" 
d="M518 523v-475.999c0 -73.333 -22 -131.333 -66 -174s-103 -64 -177 -64c-58 0 -107 13 -147 39s-67 62.667 -81 110l84 32c8.66699 -33.333 25.667 -59.333 51 -78s56.333 -28 93 -28c50 0 88 13.333 114 40s39 65.334 39 116.001v59
c-14.667 -26.667 -36.334 -47.834 -65.001 -63.501s-60.334 -23.5 -95.001 -23.5s-66.334 6.83301 -95.001 20.5s-53.334 33.167 -74.001 58.5c-18.667 24 -33 51.5 -43 82.5s-15 64.167 -15 99.5s5 68.5 15 99.5s24.333 58.167 43 81.5c20.667 26 45.334 45.667 74.001 59
s60.334 20 95.001 20s66.334 -7.83301 95.001 -23.5s50.334 -36.834 65.001 -63.501v77h90zM429 262.001l-0.00195312 19c0 52.667 -13.5 94.667 -40.5 126s-61.833 47 -104.5 47c-47.333 0 -84.666 -16.333 -111.999 -49s-41 -76.667 -41 -132s13.833 -99.5 41.5 -132.5
s64.834 -49.5 111.501 -49.5c42.667 0 77.5 15.5 104.5 46.5s40.5 72.5 40.5 124.5zM344.998 614.001h-98v104h98v-104z" />
    <glyph glyph-name="Gcommaaccent" unicode="&#x122;" horiz-adv-x="720" 
d="M653 0l-87.998 -0.00195312v107c-15.333 -35.333 -42 -63.833 -80 -85.5s-81 -32.5 -129 -32.5c-47.333 0 -91.5 9.83301 -132.5 29.5s-75.833 47.5 -104.5 83.5c-26.667 33.333 -47 71.666 -61 114.999s-21 90 -21 140c0 50.667 7.16699 98 21.5 142
s35.166 82.667 62.499 116c29.333 36.667 64.833 64.834 106.5 84.501s86.5 29.5 134.5 29.5c67.333 0 125.166 -17.333 173.499 -52s83.5 -83.667 105.5 -147l-92 -30c-13.333 46 -36 81.5 -68 106.5s-71.333 37.5 -118 37.5c-36 0 -69 -7.83301 -99 -23.5
s-55.333 -38.167 -76 -67.5c-18 -25.333 -31.667 -54.666 -41 -87.999s-14 -69 -14 -107s4.66699 -73.667 14 -107s23.333 -62.666 42 -87.999c20.667 -29.333 46 -51.833 76 -67.5s63 -23.5 99 -23.5c57.333 0 104 20 140 60s54.667 92.333 56 157h-206v84h299v-373z
M354.002 -115.002h-38.999v72h97v-61c0 -28 -9.83301 -50.5 -29.5 -67.5s-45.834 -25.5 -78.501 -25.5v41c16.667 0.666992 29 4.16699 37 10.5s12.333 16.5 13 30.5z" />
    <glyph glyph-name="gcommaaccent" unicode="&#x123;" horiz-adv-x="593" 
d="M518 523v-475.999c0 -73.333 -22 -131.333 -66 -174s-103 -64 -177 -64c-58 0 -107 13 -147 39s-67 62.667 -81 110l84 32c8.66699 -33.333 25.667 -59.333 51 -78s56.333 -28 93 -28c50 0 88 13.333 114 40s39 65.334 39 116.001v59
c-14.667 -26.667 -36.334 -47.834 -65.001 -63.501s-60.334 -23.5 -95.001 -23.5s-66.334 6.83301 -95.001 20.5s-53.334 33.167 -74.001 58.5c-18.667 24 -33 51.5 -43 82.5s-15 64.167 -15 99.5s5 68.5 15 99.5s24.333 58.167 43 81.5c20.667 26 45.334 45.667 74.001 59
s60.334 20 95.001 20s66.334 -7.83301 95.001 -23.5s50.334 -36.834 65.001 -63.501v77h90zM429 262.001l-0.00195312 19c0 52.667 -13.5 94.667 -40.5 126s-61.833 47 -104.5 47c-47.333 0 -84.666 -16.333 -111.999 -49s-41 -76.667 -41 -132s13.833 -99.5 41.5 -132.5
s64.834 -49.5 111.501 -49.5c42.667 0 77.5 15.5 104.5 46.5s40.5 72.5 40.5 124.5zM306.998 651.001h38.999v-72h-97v61c0 28 9.83301 50.5 29.5 67.5s45.834 25.5 78.501 25.5v-41c-16.667 -0.666992 -29 -4.16699 -37 -10.5s-12.333 -16.5 -13 -30.5z" />
    <glyph glyph-name="Hcircumflex" unicode="&#x124;" horiz-adv-x="735" 
d="M560 413v305h96v-718h-96v329h-385v-329h-96v718h96v-305h385zM314 910h108l117 -145h-73l-98 87l-98 -87h-73z" />
    <glyph glyph-name="hcircumflex" unicode="&#x125;" 
d="M165 0h-89.999v718h90v-266c18 26 40.5 46 67.5 60s56.5 21 88.5 21c53.333 0 95.666 -17 126.999 -51s47 -79.667 47 -137v-345h-90v321c0 41.333 -9.33301 73 -28 95s-45.667 33 -81 33c-36 0 -66.833 -12.833 -92.5 -38.5s-38.5 -58.5 -38.5 -98.5v-312zM242.001 910
h108l117 -145h-73l-98 87l-98 -87h-73z" />
    <glyph glyph-name="Hbar" unicode="&#x126;" horiz-adv-x="755" 
d="M733 567v-82h-67v-485h-96v276h-385v-276h-96v485h-67v82h67v151h96v-151h385v151h96v-151h67zM185 485v-126h385v126h-385z" />
    <glyph glyph-name="hbar" unicode="&#x127;" 
d="M165 0h-89.999v576h-64v72h64v70h90v-70h142v-72h-142v-124c18 26 40.5 46 67.5 60s56.5 21 88.5 21c53.333 0 95.666 -17 126.999 -51s47 -79.667 47 -137v-345h-90v321c0 41.333 -9.33301 73 -28 95s-45.667 33 -81 33c-36 0 -66.833 -12.833 -92.5 -38.5
s-38.5 -58.5 -38.5 -98.5v-312z" />
    <glyph glyph-name="Itilde" unicode="&#x128;" horiz-adv-x="254" 
d="M79 718h96v-718h-96v718zM56 905c12 0 23.8311 -2.33398 35.498 -7.00098s27.167 -14.667 46.5 -30c14.667 -11.333 25.834 -18.666 33.501 -21.999s14.834 -5 21.501 -5c14 0 25 5.33301 33 16s13.667 27 17 49h63c-3.33301 -43.333 -14.5 -77.5 -33.5 -102.5
s-43.833 -37.5 -74.5 -37.5c-12 0 -24 2.5 -36 7.5s-27.667 14.833 -47 29.5c-14.667 12 -25.667 19.667 -33 23s-14.333 5 -21 5c-14 0 -25 -5.33301 -33 -16s-13.667 -27 -17 -49h-63c2.66699 43.333 13.5 77.333 32.5 102s44.167 37 75.5 37z" />
    <glyph glyph-name="itilde" unicode="&#x129;" horiz-adv-x="240" 
d="M63 719c10.667 0 20.835 -2.49805 30.502 -7.49805s21.834 -14.833 36.501 -29.5c10.667 -11.333 18.834 -18.666 24.501 -21.999s11.5 -5 17.5 -5c12 0 21.167 4.66699 27.5 14s11.166 26 14.499 50h59c-3.33301 -42.667 -13.333 -75.834 -30 -99.501
s-38.667 -35.5 -66 -35.5c-10.667 0 -20.834 2.33301 -30.501 7s-21.834 14.667 -36.501 30c-10.667 10.667 -18.834 17.667 -24.501 21s-11.5 5 -17.5 5c-12 0 -21.167 -4.83301 -27.5 -14.5s-10.833 -25.834 -13.5 -48.501h-59c2.66699 43.333 12.167 76.666 28.5 99.999
s38.5 35 66.5 35zM75.001 523.002h90v-523h-90v523z" />
    <glyph glyph-name="Imacron" unicode="&#x12a;" horiz-adv-x="254" 
d="M79 718h96v-718h-96v718zM283 855v-75h-312v75h312z" />
    <glyph glyph-name="imacron" unicode="&#x12b;" horiz-adv-x="240" 
d="M250 678v-72h-261v72h261zM75 523h90v-523h-90v523z" />
    <glyph glyph-name="Ibreve" unicode="&#x12c;" horiz-adv-x="254" 
d="M79 718h96v-718h-96v718zM127 825c25.333 0 46 7.83301 62 23.5s24 36.167 24 61.5h68c0 -44.667 -14 -80.334 -42 -107.001s-65.333 -40 -112 -40s-84 13.333 -112 40s-42 62.334 -42 107.001h68c0 -25.333 8 -45.833 24 -61.5s36.667 -23.5 62 -23.5z" />
    <glyph glyph-name="ibreve" unicode="&#x12d;" horiz-adv-x="240" 
d="M120 639c21.333 0 38.332 7 50.999 21s19.334 33.333 20.001 58h63c0 -44.667 -12 -79.834 -36 -105.501s-56.667 -38.5 -98 -38.5s-74 12.833 -98 38.5s-36 60.834 -36 105.501h63c0 -24.667 6.5 -44 19.5 -58s30.167 -21 51.5 -21zM74.999 523h90v-523h-90v523z" />
    <glyph glyph-name="Iogonek" unicode="&#x12e;" horiz-adv-x="254" 
d="M125 -186c-26 0 -47.5 7.50098 -64.5 22.501s-25.5 34.167 -25.5 57.5c0 19.333 4.5 37.166 13.5 53.499s23.833 33.833 44.5 52.5h-14v718h96v-718h-8c-25.333 -22 -42.666 -39.667 -51.999 -53s-14 -26.333 -14 -39c0 -10.667 3.66699 -19.167 11 -25.5
s17 -9.5 29 -9.5c7.33301 0 13.833 0.5 19.5 1.5s12.5 2.5 20.5 4.5v-58c-9.33301 -2.66699 -17.833 -4.5 -25.5 -5.5s-17.834 -1.5 -30.501 -1.5z" />
    <glyph glyph-name="iogonek" unicode="&#x12f;" horiz-adv-x="240" 
d="M169 614h-98v104h98v-104zM115 -186c-26 0 -47.5 7.50098 -64.5 22.501s-25.5 34.167 -25.5 57.5c0 19.333 4.5 37.166 13.5 53.499s23.833 33.833 44.5 52.5h-8v523h90v-523h-8c-25.333 -22 -42.666 -39.667 -51.999 -53s-14 -26.333 -14 -39
c0 -10.667 3.66699 -19.167 11 -25.5s17 -9.5 29 -9.5c7.33301 0 13.833 0.5 19.5 1.5s12.5 2.5 20.5 4.5v-58c-9.33301 -2.66699 -17.833 -4.5 -25.5 -5.5s-17.834 -1.5 -30.501 -1.5z" />
    <glyph glyph-name="Idotaccent" unicode="&#x130;" horiz-adv-x="254" 
d="M79 718h96v-718h-96v718zM177 769h-100v104h100v-104z" />
    <glyph glyph-name="dotlessi" unicode="&#x131;" horiz-adv-x="240" 
d="M75 523h90v-523h-90v523z" />
    <glyph glyph-name="Jcircumflex" unicode="&#x134;" horiz-adv-x="414" 
d="M129 -8c-18.667 0 -35.998 0.833984 -51.998 2.50098s-32.667 4.16699 -50 7.5v86c18.667 -4 34.667 -6.66699 48 -8s27.666 -2 42.999 -2c48 0 82.333 10.167 103 30.5s31 53.166 31 98.499v511h96v-518c0 -69.333 -18.333 -121.333 -55 -156s-91.334 -52 -164.001 -52z
M242.002 910.001h108l117 -145h-73l-98 87l-98 -87h-73z" />
    <glyph glyph-name="jcircumflex" unicode="&#x135;" horiz-adv-x="240" 
d="M3 -105c25.333 0 43.666 6.16797 54.999 18.501s17 32.166 17 59.499v550h90v-566c0 -44.667 -12.833 -79.167 -38.5 -103.5s-61.834 -36.5 -108.501 -36.5c-9.33301 0 -17.666 0.166992 -24.999 0.5s-15.666 1.16602 -24.999 2.49902v78
c6 -1.33301 11.667 -2.16602 17 -2.49902s11.333 -0.5 18 -0.5zM71 718.001h98l98 -139h-70l-77 78l-77 -78h-70z" />
    <glyph glyph-name="Kcommaaccent" unicode="&#x136;" horiz-adv-x="643" 
d="M79 718h96v-363l334 363h115l-291 -313l305 -405h-113l-256 336l-94 -101v-235h-96v718zM318 -115h-38.999v72h97v-61c0 -28 -9.83301 -50.5 -29.5 -67.5s-45.834 -25.5 -78.501 -25.5v41c16.667 0.666992 29 4.16699 37 10.5s12.333 16.5 13 30.5z" />
    <glyph glyph-name="kcommaaccent" unicode="&#x137;" horiz-adv-x="534" 
d="M75 718h90v-439l232 244h112l-204 -206l221 -317h-105l-180 252l-76 -77v-175h-90v718zM270 -115h-38.999v72h97v-61c0 -28 -9.83301 -50.5 -29.5 -67.5s-45.834 -25.5 -78.501 -25.5v41c16.667 0.666992 29 4.16699 37 10.5s12.333 16.5 13 30.5z" />
    <glyph glyph-name="kgreenlandic" unicode="&#x138;" horiz-adv-x="534" 
d="M75 523h90v-246l234 246h110l-204 -206l221 -317h-105l-180 252l-76 -77v-175h-90v523z" />
    <glyph glyph-name="Lacute" unicode="&#x139;" horiz-adv-x="550" 
d="M533 0h-454v718h96v-634h358v-84zM163 765h-72l101 145h126z" />
    <glyph glyph-name="lacute" unicode="&#x13a;" horiz-adv-x="240" 
d="M75 718h90v-718h-90v718zM152 765h-72l101 145h126z" />
    <glyph glyph-name="Lcommaaccent" unicode="&#x13b;" horiz-adv-x="550" 
d="M533 0h-454v718h96v-634h358v-84zM301 -115h-38.999v72h97v-61c0 -28 -9.83301 -50.5 -29.5 -67.5s-45.834 -25.5 -78.501 -25.5v41c16.667 0.666992 29 4.16699 37 10.5s12.333 16.5 13 30.5z" />
    <glyph glyph-name="lcommaaccent" unicode="&#x13c;" horiz-adv-x="240" 
d="M75 718h90v-718h-90v718zM112 -115h-38.999v72h97v-61c0 -28 -9.83301 -50.5 -29.5 -67.5s-45.834 -25.5 -78.501 -25.5v41c16.667 0.666992 29 4.16699 37 10.5s12.333 16.5 13 30.5z" />
    <glyph glyph-name="Lcaron" unicode="&#x13d;" horiz-adv-x="550" 
d="M533 0h-454v718h96v-634h358v-84zM408 542h-61l23 176h103z" />
    <glyph glyph-name="lcaron" unicode="&#x13e;" horiz-adv-x="328" 
d="M75 718h90v-718h-90v718zM287 542h-61l23 176h103z" />
    <glyph glyph-name="Ldot" unicode="&#x13f;" horiz-adv-x="550" 
d="M533 0h-454v718h96v-634h358v-84zM460 330h-98v104h98v-104z" />
    <glyph glyph-name="ldot" unicode="&#x140;" horiz-adv-x="364" 
d="M75 718h90v-718h-90v718zM346 316h-98v104h98v-104z" />
    <glyph glyph-name="Lslash" unicode="&#x141;" 
d="M543 0h-454v260l-67 -29v82l67 29v376h96v-334l171 75v-82l-171 -75v-218h358v-84z" />
    <glyph glyph-name="lslash" unicode="&#x142;" horiz-adv-x="295" 
d="M274 524v-87l-81 -53v-384h-90v335l-82 -53v87l82 52v297h90v-247z" />
    <glyph glyph-name="Nacute" unicode="&#x143;" horiz-adv-x="725" 
d="M553 718h93v-718h-83l-392 578v-578h-92v718h101l373 -555v555zM368 765h-72l101 145h126z" />
    <glyph glyph-name="nacute" unicode="&#x144;" 
d="M165 0h-89.999v523h90v-71c18 26 40.5 46 67.5 60s56.5 21 88.5 21c53.333 0 95.666 -17 126.999 -51s47 -79.667 47 -137v-345h-90v321c0 41.333 -9.33301 73 -28 95s-45.667 33 -81 33c-36 0 -66.833 -12.833 -92.5 -38.5s-38.5 -58.5 -38.5 -98.5v-312zM315.001 579
h-71l59 139h113z" />
    <glyph glyph-name="Ncommaaccent" unicode="&#x145;" horiz-adv-x="725" 
d="M553 718h93v-718h-83l-392 578v-578h-92v718h101l373 -555v555zM355 -115h-38.999v72h97v-61c0 -28 -9.83301 -50.5 -29.5 -67.5s-45.834 -25.5 -78.501 -25.5v41c16.667 0.666992 29 4.16699 37 10.5s12.333 16.5 13 30.5z" />
    <glyph glyph-name="ncommaaccent" unicode="&#x146;" 
d="M165 0h-89.999v523h90v-71c18 26 40.5 46 67.5 60s56.5 21 88.5 21c53.333 0 95.666 -17 126.999 -51s47 -79.667 47 -137v-345h-90v321c0 41.333 -9.33301 73 -28 95s-45.667 33 -81 33c-36 0 -66.833 -12.833 -92.5 -38.5s-38.5 -58.5 -38.5 -98.5v-312zM278.001 -115
h-38.999v72h97v-61c0 -28 -9.83301 -50.5 -29.5 -67.5s-45.834 -25.5 -78.501 -25.5v41c16.667 0.666992 29 4.16699 37 10.5s12.333 16.5 13 30.5z" />
    <glyph glyph-name="Ncaron" unicode="&#x147;" horiz-adv-x="725" 
d="M553 718h93v-718h-83l-392 578v-578h-92v718h101l373 -555v555zM542 911l-117 -145h-108l-117 145h73l98 -87l98 87h73z" />
    <glyph glyph-name="ncaron" unicode="&#x148;" 
d="M165 0h-89.999v523h90v-71c18 26 40.5 46 67.5 60s56.5 21 88.5 21c53.333 0 95.666 -17 126.999 -51s47 -79.667 47 -137v-345h-90v321c0 41.333 -9.33301 73 -28 95s-45.667 33 -81 33c-36 0 -66.833 -12.833 -92.5 -38.5s-38.5 -58.5 -38.5 -98.5v-312zM441.001 718
l-98 -139h-98l-98 139h70l77 -78l77 78h70z" />
    <glyph glyph-name="Eng" unicode="&#x14a;" horiz-adv-x="725" 
d="M553 166v552.001h93v-761c0 -44.667 -12.833 -79.167 -38.5 -103.5s-61.834 -36.5 -108.501 -36.5c-9.33301 0 -17.666 0.166992 -24.999 0.5s-16 1.16602 -26 2.49902v78c6.66699 -1.33301 12.667 -2.16602 18 -2.49902s11.333 -0.5 18 -0.5
c24.667 0 42.667 6.16699 54 18.5s17 32.166 17 59.499v38l-384 565v-576h-92v718h101z" />
    <glyph glyph-name="eng" unicode="&#x14b;" 
d="M321 533c53.333 0 95.668 -16.999 127.001 -50.999s47 -79.667 47 -137v-388c0 -44.667 -12.833 -79.167 -38.5 -103.5s-61.834 -36.5 -108.501 -36.5c-9.33301 0 -17.666 0.166992 -24.999 0.5s-16 1.16602 -26 2.49902v78
c6.66699 -1.33301 12.667 -2.16602 18 -2.49902s11.333 -0.5 18 -0.5c25.333 0 43.666 6.16699 54.999 18.5s17 32.166 17 59.499v348c0 41.333 -9.33301 73 -28 95s-45.667 33 -81 33c-36 0 -66.833 -12.833 -92.5 -38.5s-38.5 -58.5 -38.5 -98.5v-312h-90v523h90v-71
c18 26 40.5 46 67.5 60s56.5 21 88.5 21z" />
    <glyph glyph-name="Omacron" unicode="&#x14c;" horiz-adv-x="726" 
d="M121 102c-27.333 33.333 -48.166 71.833 -62.499 115.5s-21.5 90.834 -21.5 141.501s7.16699 97.834 21.5 141.501s35.166 82.167 62.499 115.5c30 36.667 65.833 64.667 107.5 84s86.5 29 134.5 29s92.833 -9.66699 134.5 -29s77.167 -47.333 106.5 -84
c27.333 -33.333 48.166 -71.833 62.499 -115.5s21.5 -90.834 21.5 -141.501s-7.16699 -97.834 -21.5 -141.501s-35.166 -82.167 -62.499 -115.5c-29.333 -36.667 -64.833 -64.667 -106.5 -84s-86.5 -29 -134.5 -29s-92.833 9.66699 -134.5 29s-77.5 47.333 -107.5 84z
M538 165c18 25.333 31.667 54.5 41 87.5s14 68.5 14 106.5s-4.66699 73.5 -14 106.5s-23 62.167 -41 87.5c-21.333 29.333 -47 51.833 -77 67.5s-62.667 23.5 -98 23.5s-68 -7.83301 -98 -23.5s-55.667 -38.167 -77 -67.5c-18 -25.333 -31.667 -54.5 -41 -87.5
s-14 -68.5 -14 -106.5s4.66699 -73.5 14 -106.5s23 -62.167 41 -87.5c21.333 -29.333 47 -51.833 77 -67.5s62.667 -23.5 98 -23.5s68 7.83301 98 23.5s55.667 38.167 77 67.5zM519 855v-75h-312v75h312z" />
    <glyph glyph-name="omacron" unicode="&#x14d;" 
d="M462 452c20.667 -24 36.334 -52.333 47.001 -85s16 -68 16 -106s-5.33301 -73.333 -16 -106s-26.334 -61 -47.001 -85c-22 -26 -48.5 -46 -79.5 -60s-64.5 -21 -100.5 -21s-69.5 7 -100.5 21s-57.5 34 -79.5 60c-20.667 24 -36.334 52.333 -47.001 85s-16 68 -16 106
s5.33301 73.333 16 106s26.334 61 47.001 85c22 26 48.5 46 79.5 60s64.5 21 100.5 21s69.5 -7 100.5 -21s57.5 -34 79.5 -60zM282 457c-46 0 -82.833 -17.667 -110.5 -53s-41.5 -83 -41.5 -143c0 -59.333 13.833 -106.666 41.5 -141.999s64.5 -53 110.5 -53
s82.833 17.667 110.5 53s41.5 82.666 41.5 141.999c0 60 -13.833 107.667 -41.5 143s-64.5 53 -110.5 53zM419 678v-72h-274v72h274z" />
    <glyph glyph-name="Obreve" unicode="&#x14e;" horiz-adv-x="726" 
d="M121 102c-27.333 33.333 -48.166 71.833 -62.499 115.5s-21.5 90.834 -21.5 141.501s7.16699 97.834 21.5 141.501s35.166 82.167 62.499 115.5c30 36.667 65.833 64.667 107.5 84s86.5 29 134.5 29s92.833 -9.66699 134.5 -29s77.167 -47.333 106.5 -84
c27.333 -33.333 48.166 -71.833 62.499 -115.5s21.5 -90.834 21.5 -141.501s-7.16699 -97.834 -21.5 -141.501s-35.166 -82.167 -62.499 -115.5c-29.333 -36.667 -64.833 -64.667 -106.5 -84s-86.5 -29 -134.5 -29s-92.833 9.66699 -134.5 29s-77.5 47.333 -107.5 84z
M538 165c18 25.333 31.667 54.5 41 87.5s14 68.5 14 106.5s-4.66699 73.5 -14 106.5s-23 62.167 -41 87.5c-21.333 29.333 -47 51.833 -77 67.5s-62.667 23.5 -98 23.5s-68 -7.83301 -98 -23.5s-55.667 -38.167 -77 -67.5c-18 -25.333 -31.667 -54.5 -41 -87.5
s-14 -68.5 -14 -106.5s4.66699 -73.5 14 -106.5s23 -62.167 41 -87.5c21.333 -29.333 47 -51.833 77 -67.5s62.667 -23.5 98 -23.5s68 7.83301 98 23.5s55.667 38.167 77 67.5zM363 825c25.333 0 46 7.83301 62 23.5s24 36.167 24 61.5h68
c0 -44.667 -14 -80.334 -42 -107.001s-65.333 -40 -112 -40s-84 13.333 -112 40s-42 62.334 -42 107.001h68c0 -25.333 8 -45.833 24 -61.5s36.667 -23.5 62 -23.5z" />
    <glyph glyph-name="obreve" unicode="&#x14f;" 
d="M462 452c20.667 -24 36.334 -52.333 47.001 -85s16 -68 16 -106s-5.33301 -73.333 -16 -106s-26.334 -61 -47.001 -85c-22 -26 -48.5 -46 -79.5 -60s-64.5 -21 -100.5 -21s-69.5 7 -100.5 21s-57.5 34 -79.5 60c-20.667 24 -36.334 52.333 -47.001 85s-16 68 -16 106
s5.33301 73.333 16 106s26.334 61 47.001 85c22 26 48.5 46 79.5 60s64.5 21 100.5 21s69.5 -7 100.5 -21s57.5 -34 79.5 -60zM282 457c-46 0 -82.833 -17.667 -110.5 -53s-41.5 -83 -41.5 -143c0 -59.333 13.833 -106.666 41.5 -141.999s64.5 -53 110.5 -53
s82.833 17.667 110.5 53s41.5 82.666 41.5 141.999c0 60 -13.833 107.667 -41.5 143s-64.5 53 -110.5 53zM282 639c21.333 0 38.5 7 51.5 21s19.5 33.333 19.5 58h63c0 -44.667 -12 -79.834 -36 -105.501s-56.667 -38.5 -98 -38.5s-74 12.833 -98 38.5
s-36 60.834 -36 105.501h63c0 -24.667 6.5 -44 19.5 -58s30.167 -21 51.5 -21z" />
    <glyph glyph-name="Ohungarumlaut" unicode="&#x150;" horiz-adv-x="726" 
d="M121 102c-27.333 33.333 -48.166 71.833 -62.499 115.5s-21.5 90.834 -21.5 141.501s7.16699 97.834 21.5 141.501s35.166 82.167 62.499 115.5c30 36.667 65.833 64.667 107.5 84s86.5 29 134.5 29s92.833 -9.66699 134.5 -29s77.167 -47.333 106.5 -84
c27.333 -33.333 48.166 -71.833 62.499 -115.5s21.5 -90.834 21.5 -141.501s-7.16699 -97.834 -21.5 -141.501s-35.166 -82.167 -62.499 -115.5c-29.333 -36.667 -64.833 -64.667 -106.5 -84s-86.5 -29 -134.5 -29s-92.833 9.66699 -134.5 29s-77.5 47.333 -107.5 84z
M538 165c18 25.333 31.667 54.5 41 87.5s14 68.5 14 106.5s-4.66699 73.5 -14 106.5s-23 62.167 -41 87.5c-21.333 29.333 -47 51.833 -77 67.5s-62.667 23.5 -98 23.5s-68 -7.83301 -98 -23.5s-55.667 -38.167 -77 -67.5c-18 -25.333 -31.667 -54.5 -41 -87.5
s-14 -68.5 -14 -106.5s4.66699 -73.5 14 -106.5s23 -62.167 41 -87.5c21.333 -29.333 47 -51.833 77 -67.5s62.667 -23.5 98 -23.5s68 7.83301 98 23.5s55.667 38.167 77 67.5zM485 765h-71l91 145h109zM301 765h-72l92 145h109z" />
    <glyph glyph-name="ohungarumlaut" unicode="&#x151;" 
d="M462 452c20.667 -24 36.334 -52.333 47.001 -85s16 -68 16 -106s-5.33301 -73.333 -16 -106s-26.334 -61 -47.001 -85c-22 -26 -48.5 -46 -79.5 -60s-64.5 -21 -100.5 -21s-69.5 7 -100.5 21s-57.5 34 -79.5 60c-20.667 24 -36.334 52.333 -47.001 85s-16 68 -16 106
s5.33301 73.333 16 106s26.334 61 47.001 85c22 26 48.5 46 79.5 60s64.5 21 100.5 21s69.5 -7 100.5 -21s57.5 -34 79.5 -60zM282 457c-46 0 -82.833 -17.667 -110.5 -53s-41.5 -83 -41.5 -143c0 -59.333 13.833 -106.666 41.5 -141.999s64.5 -53 110.5 -53
s82.833 17.667 110.5 53s41.5 82.666 41.5 141.999c0 60 -13.833 107.667 -41.5 143s-64.5 53 -110.5 53zM388 579h-65l61 139h102zM232 579h-64l61 139h102z" />
    <glyph glyph-name="OE" unicode="&#x152;" horiz-adv-x="1045" 
d="M133 97c-31.333 32 -55.166 70.167 -71.499 114.5s-24.5 93.5 -24.5 147.5s8.16699 103.167 24.5 147.5s40.166 82.5 71.499 114.5c32 31.333 70 55.333 114 72s93 25 147 25h603v-84h-374v-221h317v-84h-317v-245h374v-84h-603c-54 -0 -103 8.33301 -147 25
s-82 40.667 -114 72zM528 82v554h-134c-80.667 0 -144.5 -25 -191.5 -75s-70.5 -117.333 -70.5 -202c0 -85.333 23.667 -152.833 71 -202.5s111.333 -74.5 192 -74.5h133z" />
    <glyph glyph-name="oe" unicode="&#x153;" horiz-adv-x="937" 
d="M681 -11c-36.667 0 -70.499 6.83105 -101.499 20.498s-57.5 33.834 -79.5 60.501c-7.33301 8 -14 16.333 -20 25c-5.33301 -8.66699 -11.333 -17 -18 -25c-22 -26 -48.5 -46 -79.5 -60s-64.5 -21 -100.5 -21s-69.5 7 -100.5 21s-57.5 34 -79.5 60
c-20.667 24 -36.334 52.333 -47.001 85s-16 68 -16 106s5.33301 73.333 16 106s26.334 61 47.001 85c22 26 48.5 46 79.5 60s64.5 21 100.5 21s69.5 -7 100.5 -21s57.5 -34 79.5 -60c6.66699 -8 13 -16.667 19 -26c5.33301 8.66699 11.333 17 18 25
c22 26.667 48.333 47 79 61s63.667 21 99 21c68.667 0 123 -23.333 163 -70s60 -108.667 60 -186v-30h-375l-2 -21c5.33301 -45.333 20.666 -82 45.999 -110c28.667 -32.667 66 -49 112 -49c34.667 0 64 8.83301 88 26.5s40 42.167 48 73.5l79 -28
c-16 -47.333 -43 -84.166 -81 -110.499s-82.667 -39.5 -134 -39.5zM282.001 456.998c-46 0 -82.833 -17.667 -110.5 -53s-41.5 -83 -41.5 -143c0 -59.333 13.833 -106.666 41.5 -141.999s64.5 -53 110.5 -53s82.833 17.667 110.5 53s41.5 82.666 41.5 141.999
c0 60 -13.833 107.667 -41.5 143s-64.5 53 -110.5 53zM676.001 455.998c-38.667 0 -71.168 -12.333 -97.501 -37s-43.5 -59 -51.5 -103h282c-1.33301 42.667 -13.666 76.667 -36.999 102s-55.333 38 -96 38z" />
    <glyph glyph-name="Racute" unicode="&#x154;" horiz-adv-x="648" 
d="M314 301h-139.001v-301h-96v718h274c78.667 0 139.834 -18.167 183.501 -54.5s65.5 -87.5 65.5 -153.5c0 -56 -16 -101.5 -48 -136.5s-77.333 -57.5 -136 -67.5l199 -306h-110zM174.999 635v-251.001h173c51.333 0 90.666 10.833 117.999 32.5s41 52.834 41 93.501
c0 40 -13.667 70.833 -41 92.5s-66.666 32.5 -117.999 32.5h-173zM319.999 764.999h-72l101 145h126z" />
    <glyph glyph-name="racute" unicode="&#x155;" horiz-adv-x="370" 
d="M310 527c6 0 11.999 -0.167969 17.999 -0.500977s12 -0.833008 18 -1.5v-91c-7.33301 1.33301 -14.333 2.33301 -21 3s-14.334 1 -23.001 1c-39.333 0 -72 -14.167 -98 -42.5s-39 -64.833 -39 -109.5v-286h-90v523h90v-89c12.667 28.667 31.834 51.334 57.501 68.001
s54.834 25 87.501 25zM241.999 578.999h-71l59 139h113z" />
    <glyph glyph-name="Rcommaaccent" unicode="&#x156;" horiz-adv-x="648" 
d="M314 301h-139.001v-301h-96v718h274c78.667 0 139.834 -18.167 183.501 -54.5s65.5 -87.5 65.5 -153.5c0 -56 -16 -101.5 -48 -136.5s-77.333 -57.5 -136 -67.5l199 -306h-110zM174.999 635v-251.001h173c51.333 0 90.666 10.833 117.999 32.5s41 52.834 41 93.501
c0 40 -13.667 70.833 -41 92.5s-66.666 32.5 -117.999 32.5h-173zM312.999 -115.001h-38.999v72h97v-61c0 -28 -9.83301 -50.5 -29.5 -67.5s-45.834 -25.5 -78.501 -25.5v41c16.667 0.666992 29 4.16699 37 10.5s12.333 16.5 13 30.5z" />
    <glyph glyph-name="rcommaaccent" unicode="&#x157;" horiz-adv-x="370" 
d="M310 527c6 0 11.999 -0.167969 17.999 -0.500977s12 -0.833008 18 -1.5v-91c-7.33301 1.33301 -14.333 2.33301 -21 3s-14.334 1 -23.001 1c-39.333 0 -72 -14.167 -98 -42.5s-39 -64.833 -39 -109.5v-286h-90v523h90v-89c12.667 28.667 31.834 51.334 57.501 68.001
s54.834 25 87.501 25zM109.999 -115.001h-38.999v72h97v-61c0 -28 -9.83301 -50.5 -29.5 -67.5s-45.834 -25.5 -78.501 -25.5v41c16.667 0.666992 29 4.16699 37 10.5s12.333 16.5 13 30.5z" />
    <glyph glyph-name="Rcaron" unicode="&#x158;" horiz-adv-x="648" 
d="M314 301h-139.001v-301h-96v718h274c78.667 0 139.834 -18.167 183.501 -54.5s65.5 -87.5 65.5 -153.5c0 -56 -16 -101.5 -48 -136.5s-77.333 -57.5 -136 -67.5l199 -306h-110zM174.999 635v-251.001h173c51.333 0 90.666 10.833 117.999 32.5s41 52.834 41 93.501
c0 40 -13.667 70.833 -41 92.5s-66.666 32.5 -117.999 32.5h-173zM492.999 910.999l-117 -145h-108l-117 145h73l98 -87l98 87h73z" />
    <glyph glyph-name="rcaron" unicode="&#x159;" horiz-adv-x="370" 
d="M310 527c6 0 11.999 -0.167969 17.999 -0.500977s12 -0.833008 18 -1.5v-91c-7.33301 1.33301 -14.333 2.33301 -21 3s-14.334 1 -23.001 1c-39.333 0 -72 -14.167 -98 -42.5s-39 -64.833 -39 -109.5v-286h-90v523h90v-89c12.667 28.667 31.834 51.334 57.501 68.001
s54.834 25 87.501 25zM365.999 717.999l-98 -139h-98l-98 139h70l77 -78l77 78h70z" />
    <glyph glyph-name="Sacute" unicode="&#x15a;" horiz-adv-x="587" 
d="M296 -11c-63.333 0 -121.83 14.667 -175.497 44s-92.5 67.666 -116.5 114.999l75 60c22.667 -42.667 53.167 -76 91.5 -100s80.833 -36 127.5 -36c49.333 0 89.166 11.667 119.499 35s45.5 54.333 45.5 93c0 22 -5.5 40.5 -16.5 55.5s-28.833 27.833 -53.5 38.5
c-10 4 -21.5 8 -34.5 12s-42.167 11.333 -87.5 22c-42.667 10 -75 19.167 -97 27.5s-40.667 17.5 -56 27.5c-24.667 16 -42.834 35.333 -54.501 58s-17.5 49.334 -17.5 80.001c0 31.333 6.5 60.166 19.5 86.499s31.833 49.166 56.5 68.499c22 17.333 47.5 30.5 76.5 39.5
s59.833 13.5 92.5 13.5c58 0 109.667 -12.5 155 -37.5s79.666 -59.5 102.999 -103.5l-73 -58c-20.667 39.333 -46.5 68.5 -77.5 87.5s-67.5 28.5 -109.5 28.5c-44 0 -80 -11 -108 -33s-42 -50 -42 -84c0 -20 4.83301 -36.667 14.5 -50s24.834 -25 45.501 -35
c10 -4 22.167 -8.16699 36.5 -12.5s38.166 -10.5 71.499 -18.5c56 -13.333 94.5 -23.666 115.5 -30.999s39.167 -15.666 54.5 -24.999c27.333 -16.667 47.5 -37.167 60.5 -61.5s19.5 -53.5 19.5 -87.5c0 -32.667 -7 -63 -21 -91s-34.333 -52 -61 -72
c-23.333 -18 -50.5 -31.833 -81.5 -41.5s-63.5 -14.5 -97.5 -14.5zM324.003 765h-72l101 145h126z" />
    <glyph glyph-name="sacute" unicode="&#x15b;" horiz-adv-x="486" 
d="M247 -11c-51.333 0 -97.834 10.834 -139.501 32.501s-71.834 51.5 -90.501 89.5l70 51c14 -30 35.5 -53.833 64.5 -71.5s60.833 -26.5 95.5 -26.5s62.5 7.33301 83.5 22s31.5 35 31.5 61c0 15.333 -3.83301 28 -11.5 38s-20.5 18 -38.5 24
c-7.33301 2.66699 -15.666 5.16699 -24.999 7.5s-29.666 6.83301 -60.999 13.5c-36.667 8 -63 14.833 -79 20.5s-29.667 12.167 -41 19.5c-19.333 11.333 -33.5 25.666 -42.5 42.999s-13.5 38 -13.5 62c0 46 18 83.833 54 113.5s82 44.5 138 44.5
c45.333 0 86.333 -9.83301 123 -29.5s63 -45.834 79 -78.501l-64 -51c-14 27.333 -33.333 48.333 -58 63s-52.667 22 -84 22c-30 0 -54.167 -7 -72.5 -21s-27.5 -32.667 -27.5 -56c0 -13.333 3.5 -24.333 10.5 -33s18.167 -16 33.5 -22l23.5 -7
c9 -2.66699 26.167 -6.66699 51.5 -12c44.667 -10.667 74.5 -18.5 89.5 -23.5s28.167 -10.833 39.5 -17.5c22 -12.667 38.167 -28.167 48.5 -46.5s15.5 -40.166 15.5 -65.499c0 -48 -19.333 -87.667 -58 -119s-87 -47 -145 -47zM271.999 579.001h-71l59 139h113z" />
    <glyph glyph-name="Scircumflex" unicode="&#x15c;" horiz-adv-x="587" 
d="M296 -11c-63.333 0 -121.83 14.667 -175.497 44s-92.5 67.666 -116.5 114.999l75 60c22.667 -42.667 53.167 -76 91.5 -100s80.833 -36 127.5 -36c49.333 0 89.166 11.667 119.499 35s45.5 54.333 45.5 93c0 22 -5.5 40.5 -16.5 55.5s-28.833 27.833 -53.5 38.5
c-10 4 -21.5 8 -34.5 12s-42.167 11.333 -87.5 22c-42.667 10 -75 19.167 -97 27.5s-40.667 17.5 -56 27.5c-24.667 16 -42.834 35.333 -54.501 58s-17.5 49.334 -17.5 80.001c0 31.333 6.5 60.166 19.5 86.499s31.833 49.166 56.5 68.499c22 17.333 47.5 30.5 76.5 39.5
s59.833 13.5 92.5 13.5c58 0 109.667 -12.5 155 -37.5s79.666 -59.5 102.999 -103.5l-73 -58c-20.667 39.333 -46.5 68.5 -77.5 87.5s-67.5 28.5 -109.5 28.5c-44 0 -80 -11 -108 -33s-42 -50 -42 -84c0 -20 4.83301 -36.667 14.5 -50s24.834 -25 45.501 -35
c10 -4 22.167 -8.16699 36.5 -12.5s38.166 -10.5 71.499 -18.5c56 -13.333 94.5 -23.666 115.5 -30.999s39.167 -15.666 54.5 -24.999c27.333 -16.667 47.5 -37.167 60.5 -61.5s19.5 -53.5 19.5 -87.5c0 -32.667 -7 -63 -21 -91s-34.333 -52 -61 -72
c-23.333 -18 -50.5 -31.833 -81.5 -41.5s-63.5 -14.5 -97.5 -14.5zM245.003 910h108l117 -145h-73l-98 87l-98 -87h-73z" />
    <glyph glyph-name="scircumflex" unicode="&#x15d;" horiz-adv-x="486" 
d="M247 -11c-51.333 0 -97.834 10.834 -139.501 32.501s-71.834 51.5 -90.501 89.5l70 51c14 -30 35.5 -53.833 64.5 -71.5s60.833 -26.5 95.5 -26.5s62.5 7.33301 83.5 22s31.5 35 31.5 61c0 15.333 -3.83301 28 -11.5 38s-20.5 18 -38.5 24
c-7.33301 2.66699 -15.666 5.16699 -24.999 7.5s-29.666 6.83301 -60.999 13.5c-36.667 8 -63 14.833 -79 20.5s-29.667 12.167 -41 19.5c-19.333 11.333 -33.5 25.666 -42.5 42.999s-13.5 38 -13.5 62c0 46 18 83.833 54 113.5s82 44.5 138 44.5
c45.333 0 86.333 -9.83301 123 -29.5s63 -45.834 79 -78.501l-64 -51c-14 27.333 -33.333 48.333 -58 63s-52.667 22 -84 22c-30 0 -54.167 -7 -72.5 -21s-27.5 -32.667 -27.5 -56c0 -13.333 3.5 -24.333 10.5 -33s18.167 -16 33.5 -22l23.5 -7
c9 -2.66699 26.167 -6.66699 51.5 -12c44.667 -10.667 74.5 -18.5 89.5 -23.5s28.167 -10.833 39.5 -17.5c22 -12.667 38.167 -28.167 48.5 -46.5s15.5 -40.166 15.5 -65.499c0 -48 -19.333 -87.667 -58 -119s-87 -47 -145 -47zM195.999 718.001h98l98 -139h-70l-77 78
l-77 -78h-70z" />
    <glyph glyph-name="Scedilla" unicode="&#x15e;" horiz-adv-x="587" 
d="M4 148l75.001 60.001c22.667 -42.667 53.167 -76 91.5 -100s80.833 -36 127.5 -36c49.333 0 89.166 11.667 119.499 35s45.5 54.333 45.5 93c0 22 -5.5 40.5 -16.5 55.5s-28.833 27.833 -53.5 38.5c-10 4 -21.5 8 -34.5 12s-42.167 11.333 -87.5 22
c-42.667 10 -75 19.167 -97 27.5s-40.667 17.5 -56 27.5c-24.667 16 -42.834 35.333 -54.501 58s-17.5 49.334 -17.5 80.001c0 31.333 6.5 60.166 19.5 86.499s31.833 49.166 56.5 68.499c22 17.333 47.5 30.5 76.5 39.5s59.833 13.5 92.5 13.5
c58 0 109.667 -12.5 155 -37.5s79.666 -59.5 102.999 -103.5l-73 -58c-20.667 39.333 -46.5 68.5 -77.5 87.5s-67.5 28.5 -109.5 28.5c-44 0 -80 -11 -108 -33s-42 -50 -42 -84c0 -20 4.83301 -36.667 14.5 -50s24.834 -25 45.501 -35c10 -4 22.167 -8.16699 36.5 -12.5
s38.166 -10.5 71.499 -18.5c56 -13.333 94.5 -23.666 115.5 -30.999s39.167 -15.666 54.5 -24.999c27.333 -16.667 47.5 -37.167 60.5 -61.5s19.5 -53.5 19.5 -87.5c0 -32.667 -6.83301 -62.834 -20.5 -90.501s-33.5 -51.5 -59.5 -71.5
c-23.333 -18.667 -50.166 -32.834 -80.499 -42.501s-62.166 -14.5 -95.499 -14.5l-5 -16c26.667 -3.33301 47.5 -11.833 62.5 -25.5s22.5 -31.5 22.5 -53.5c0 -24.667 -10.5 -44.834 -31.5 -60.501s-47.167 -23.5 -78.5 -23.5c-20.667 0 -39.667 3.33301 -57 10
s-31.333 16.334 -42 29.001l34 47c8.66699 -10.667 18.167 -18.667 28.5 -24s21.5 -8 33.5 -8c14.667 0 26.167 2.83301 34.5 8.5s12.5 13.834 12.5 24.501c0 11.333 -6.16699 20.166 -18.5 26.499s-32.5 10.5 -60.5 12.5l17 56c-55.333 6 -105.5 23 -150.5 51
s-77.833 63 -98.5 105z" />
    <glyph glyph-name="scedilla" unicode="&#x15f;" horiz-adv-x="486" 
d="M17 111l69.9971 51.002c14 -30 35.5 -53.833 64.5 -71.5s60.833 -26.5 95.5 -26.5s62.5 7.33301 83.5 22s31.5 35 31.5 61c0 15.333 -3.83301 28 -11.5 38s-20.5 18 -38.5 24c-7.33301 2.66699 -15.666 5.16699 -24.999 7.5s-29.666 6.83301 -60.999 13.5
c-36.667 8 -63 14.833 -79 20.5s-29.667 12.167 -41 19.5c-19.333 11.333 -33.5 25.666 -42.5 42.999s-13.5 38 -13.5 62c0 46 18 83.833 54 113.5s82 44.5 138 44.5c45.333 0 86.333 -9.83301 123 -29.5s63 -45.834 79 -78.501l-64 -51c-14 27.333 -33.333 48.333 -58 63
s-52.667 22 -84 22c-30 0 -54.167 -7 -72.5 -21s-27.5 -32.667 -27.5 -56c0 -13.333 3.5 -24.333 10.5 -33s18.167 -16 33.5 -22l23.5 -7c9 -2.66699 26.167 -6.66699 51.5 -12c44.667 -10.667 74.5 -18.5 89.5 -23.5s28.167 -10.833 39.5 -17.5
c22 -12.667 38.167 -28.167 48.5 -46.5s15.5 -40.166 15.5 -65.499c0 -48 -19.333 -87.667 -58 -119s-87 -47 -145 -47h-2l-5 -16c26.667 -3.33301 47.5 -11.833 62.5 -25.5s22.5 -31.5 22.5 -53.5c0 -24.667 -10.5 -44.834 -31.5 -60.501s-47.167 -23.5 -78.5 -23.5
c-20.667 0 -39.667 3.33301 -57 10s-31.333 16.334 -42 29.001l34 47c8.66699 -10.667 18.167 -18.667 28.5 -24s21.5 -8 33.5 -8c14.667 0 26.167 2.83301 34.5 8.5s12.5 13.834 12.5 24.501c0 11.333 -6.16699 20.166 -18.5 26.499s-32.5 10.5 -60.5 12.5l17 57
c-42 6.66699 -78.667 20.167 -110 40.5s-54.666 46.166 -69.999 77.499z" />
    <glyph glyph-name="Scaron" unicode="&#x160;" horiz-adv-x="587" 
d="M296 -11c-63.333 0 -121.83 14.667 -175.497 44s-92.5 67.666 -116.5 114.999l75 60c22.667 -42.667 53.167 -76 91.5 -100s80.833 -36 127.5 -36c49.333 0 89.166 11.667 119.499 35s45.5 54.333 45.5 93c0 22 -5.5 40.5 -16.5 55.5s-28.833 27.833 -53.5 38.5
c-10 4 -21.5 8 -34.5 12s-42.167 11.333 -87.5 22c-42.667 10 -75 19.167 -97 27.5s-40.667 17.5 -56 27.5c-24.667 16 -42.834 35.333 -54.501 58s-17.5 49.334 -17.5 80.001c0 31.333 6.5 60.166 19.5 86.499s31.833 49.166 56.5 68.499c22 17.333 47.5 30.5 76.5 39.5
s59.833 13.5 92.5 13.5c58 0 109.667 -12.5 155 -37.5s79.666 -59.5 102.999 -103.5l-73 -58c-20.667 39.333 -46.5 68.5 -77.5 87.5s-67.5 28.5 -109.5 28.5c-44 0 -80 -11 -108 -33s-42 -50 -42 -84c0 -20 4.83301 -36.667 14.5 -50s24.834 -25 45.501 -35
c10 -4 22.167 -8.16699 36.5 -12.5s38.166 -10.5 71.499 -18.5c56 -13.333 94.5 -23.666 115.5 -30.999s39.167 -15.666 54.5 -24.999c27.333 -16.667 47.5 -37.167 60.5 -61.5s19.5 -53.5 19.5 -87.5c0 -32.667 -7 -63 -21 -91s-34.333 -52 -61 -72
c-23.333 -18 -50.5 -31.833 -81.5 -41.5s-63.5 -14.5 -97.5 -14.5zM469.003 911l-117 -145h-108l-117 145h73l98 -87l98 87h73z" />
    <glyph glyph-name="scaron" unicode="&#x161;" horiz-adv-x="486" 
d="M247 -11c-51.333 0 -97.834 10.834 -139.501 32.501s-71.834 51.5 -90.501 89.5l70 51c14 -30 35.5 -53.833 64.5 -71.5s60.833 -26.5 95.5 -26.5s62.5 7.33301 83.5 22s31.5 35 31.5 61c0 15.333 -3.83301 28 -11.5 38s-20.5 18 -38.5 24
c-7.33301 2.66699 -15.666 5.16699 -24.999 7.5s-29.666 6.83301 -60.999 13.5c-36.667 8 -63 14.833 -79 20.5s-29.667 12.167 -41 19.5c-19.333 11.333 -33.5 25.666 -42.5 42.999s-13.5 38 -13.5 62c0 46 18 83.833 54 113.5s82 44.5 138 44.5
c45.333 0 86.333 -9.83301 123 -29.5s63 -45.834 79 -78.501l-64 -51c-14 27.333 -33.333 48.333 -58 63s-52.667 22 -84 22c-30 0 -54.167 -7 -72.5 -21s-27.5 -32.667 -27.5 -56c0 -13.333 3.5 -24.333 10.5 -33s18.167 -16 33.5 -22l23.5 -7
c9 -2.66699 26.167 -6.66699 51.5 -12c44.667 -10.667 74.5 -18.5 89.5 -23.5s28.167 -10.833 39.5 -17.5c22 -12.667 38.167 -28.167 48.5 -46.5s15.5 -40.166 15.5 -65.499c0 -48 -19.333 -87.667 -58 -119s-87 -47 -145 -47zM394.999 718.001l-98 -139h-98l-98 139h70
l77 -78l77 78h70z" />
    <glyph glyph-name="uni0162" unicode="&#x162;" horiz-adv-x="616" 
d="M405 -106c0 -24.667 -10.5 -44.834 -31.5 -60.501s-47.167 -23.5 -78.5 -23.5c-20.667 0 -39.667 3.33301 -57 10s-31.333 16.334 -42 29.001l34 47c8.66699 -10.667 18.167 -18.667 28.5 -24s21.5 -8 33.5 -8c14.667 0 26.167 2.83301 34.5 8.5s12.5 13.834 12.5 24.501
c0 11.333 -6.16699 20.166 -18.5 26.499s-32.5 10.5 -60.5 12.5l19 64h-19v634h-243v84h582v-84h-243v-634h-28l-8 -27c26.667 -3.33301 47.5 -11.833 62.5 -25.5s22.5 -31.5 22.5 -53.5z" />
    <glyph glyph-name="uni0163" unicode="&#x163;" horiz-adv-x="341" 
d="M89 125l0.000976562 321h-81v77h81v153h89v-153h119v-77h-119v-307c0 -23.333 5.16699 -40 15.5 -50s29.5 -15 57.5 -15c12 0 22.167 0.5 30.5 1.5s17.166 2.5 26.499 4.5v-77c-12 -2.66699 -24.667 -4.66699 -38 -6s-27 -2 -41 -2h-3.5h-3.5l-7 -22
c26.667 -3.33301 47.5 -11.833 62.5 -25.5s22.5 -31.5 22.5 -53.5c0 -24.667 -10.5 -44.834 -31.5 -60.501s-47.167 -23.5 -78.5 -23.5c-20.667 0 -39.667 3.33301 -57 10s-31.333 16.334 -42 29.001l34 47c8.66699 -10.667 18.167 -18.667 28.5 -24s21.5 -8 33.5 -8
c14.667 0 26.167 2.83301 34.5 8.5s12.5 13.834 12.5 24.501c0 11.333 -6.16699 20.166 -18.5 26.499s-32.5 10.5 -60.5 12.5l19 64c-29.333 6.66699 -50.833 20 -64.5 40s-20.5 48.333 -20.5 85z" />
    <glyph glyph-name="Tcaron" unicode="&#x164;" horiz-adv-x="616" 
d="M599 718v-84h-243v-634h-96v634h-243v84h582zM479 911l-117 -145h-108l-117 145h73l98 -87l98 87h73z" />
    <glyph glyph-name="tcaron" unicode="&#x165;" horiz-adv-x="341" 
d="M229 -5c-50 0 -85.832 10.333 -107.499 31s-32.5 53.667 -32.5 99v321h-81v77h81v153h89v-153h119v-77h-119v-307c0 -23.333 5.16699 -40 15.5 -50s29.5 -15 57.5 -15c12 0 22.167 0.5 30.5 1.5s17.166 2.5 26.499 4.5v-77c-12 -2.66699 -24.667 -4.66699 -38 -6
s-27 -2 -41 -2zM282.001 575h-61l23 176h103z" />
    <glyph glyph-name="Tbar" unicode="&#x166;" horiz-adv-x="616" 
d="M469 412v-84h-113v-328h-96v328h-113v84h113v222h-243v84h582v-84h-243v-222h113z" />
    <glyph glyph-name="tbar" unicode="&#x167;" horiz-adv-x="362" 
d="M245 -6c-50 0 -86.332 10.499 -108.999 31.499s-34 53.833 -34 98.5v133h-87v77h87v112h-87v77h87v153h89v-153h123v-77h-123v-112h123v-77h-123v-115c0 -22.667 5.66699 -39.167 17 -49.5s31 -15.5 59 -15.5c11.333 0 21.666 0.5 30.999 1.5s19.333 2.83301 30 5.5v-81
c-12 -3.33301 -24.833 -5.66602 -38.5 -6.99902s-28.5 -2 -44.5 -2z" />
    <glyph glyph-name="Utilde" unicode="&#x168;" horiz-adv-x="697" 
d="M348 -10c-87.333 0 -156.166 25.833 -206.499 77.5s-75.5 123.834 -75.5 216.501v434h96v-431c0 -68 16.167 -120.167 48.5 -156.5s78.166 -54.5 137.499 -54.5s105.333 18.167 138 54.5s49 88.5 49 156.5v431h96v-434c0 -92.667 -25.167 -164.834 -75.5 -216.501
s-119.5 -77.5 -207.5 -77.5zM277 905c12 0 23.8311 -2.33398 35.498 -7.00098s27.167 -14.667 46.5 -30c14.667 -11.333 25.834 -18.666 33.501 -21.999s14.834 -5 21.501 -5c14 0 25 5.33301 33 16s13.667 27 17 49h63c-3.33301 -43.333 -14.5 -77.5 -33.5 -102.5
s-43.833 -37.5 -74.5 -37.5c-12 0 -24 2.5 -36 7.5s-27.667 14.833 -47 29.5c-14.667 12 -25.667 19.667 -33 23s-14.333 5 -21 5c-14 0 -25 -5.33301 -33 -16s-13.667 -27 -17 -49h-63c2.66699 43.333 13.5 77.333 32.5 102s44.167 37 75.5 37z" />
    <glyph glyph-name="utilde" unicode="&#x169;" 
d="M400 523h90v-523h-90v72c-18 -26.667 -40.333 -47.167 -67 -61.5s-56 -21.5 -88 -21.5c-54 0 -96.667 17 -128 51s-47 79.667 -47 137v346h90v-327c0 -40.667 9.16699 -71.5 27.5 -92.5s45.5 -31.5 81.5 -31.5c36.667 0 67.667 12.833 93 38.5s38 58.167 38 97.5v315z
M216 719c10.667 0 21.334 -2.50195 32.001 -7.50195s24.334 -14.833 41.001 -29.5c12.667 -11.333 22 -18.666 28 -21.999s12 -5 18 -5c12.667 0 22.334 4.83301 29.001 14.5s11.667 26.167 15 49.5h59c-3.33301 -42 -13.5 -75 -30.5 -99s-39.167 -36 -66.5 -36
c-10.667 0 -21.334 2.33301 -32.001 7s-24.334 14.667 -41.001 30c-12.667 10.667 -22 17.667 -28 21s-12 5 -18 5c-12.667 0 -22.334 -5 -29.001 -15s-11.334 -26 -14.001 -48h-59c2.66699 42.667 12.334 75.834 29.001 99.501s39 35.5 67 35.5z" />
    <glyph glyph-name="Umacron" unicode="&#x16a;" horiz-adv-x="697" 
d="M348 -10c-87.333 0 -156.166 25.833 -206.499 77.5s-75.5 123.834 -75.5 216.501v434h96v-431c0 -68 16.167 -120.167 48.5 -156.5s78.166 -54.5 137.499 -54.5s105.333 18.167 138 54.5s49 88.5 49 156.5v431h96v-434c0 -92.667 -25.167 -164.834 -75.5 -216.501
s-119.5 -77.5 -207.5 -77.5zM504 855v-75h-312v75h312z" />
    <glyph glyph-name="umacron" unicode="&#x16b;" 
d="M400 523h90v-523h-90v72c-18 -26.667 -40.333 -47.167 -67 -61.5s-56 -21.5 -88 -21.5c-54 0 -96.667 17 -128 51s-47 79.667 -47 137v346h90v-327c0 -40.667 9.16699 -71.5 27.5 -92.5s45.5 -31.5 81.5 -31.5c36.667 0 67.667 12.833 93 38.5s38 58.167 38 97.5v315z
M416 678v-72h-274v72h274z" />
    <glyph glyph-name="Ubreve" unicode="&#x16c;" horiz-adv-x="697" 
d="M348 -10c-87.333 0 -156.166 25.833 -206.499 77.5s-75.5 123.834 -75.5 216.501v434h96v-431c0 -68 16.167 -120.167 48.5 -156.5s78.166 -54.5 137.499 -54.5s105.333 18.167 138 54.5s49 88.5 49 156.5v431h96v-434c0 -92.667 -25.167 -164.834 -75.5 -216.501
s-119.5 -77.5 -207.5 -77.5zM348 825c25.333 0 46 7.83301 62 23.5s24 36.167 24 61.5h68c0 -44.667 -14 -80.334 -42 -107.001s-65.333 -40 -112 -40s-84 13.333 -112 40s-42 62.334 -42 107.001h68c0 -25.333 8 -45.833 24 -61.5s36.667 -23.5 62 -23.5z" />
    <glyph glyph-name="ubreve" unicode="&#x16d;" 
d="M400 523h90v-523h-90v72c-18 -26.667 -40.333 -47.167 -67 -61.5s-56 -21.5 -88 -21.5c-54 0 -96.667 17 -128 51s-47 79.667 -47 137v346h90v-327c0 -40.667 9.16699 -71.5 27.5 -92.5s45.5 -31.5 81.5 -31.5c36.667 0 67.667 12.833 93 38.5s38 58.167 38 97.5v315z
M279 639c21.333 0 38.5 7 51.5 21s19.5 33.333 19.5 58h63c0 -44.667 -12 -79.834 -36 -105.501s-56.667 -38.5 -98 -38.5s-74 12.833 -98 38.5s-36 60.834 -36 105.501h63c0 -24.667 6.5 -44 19.5 -58s30.167 -21 51.5 -21z" />
    <glyph glyph-name="Uring" unicode="&#x16e;" horiz-adv-x="697" 
d="M348 -10c-87.333 0 -156.166 25.833 -206.499 77.5s-75.5 123.834 -75.5 216.501v434h96v-431c0 -68 16.167 -120.167 48.5 -156.5s78.166 -54.5 137.499 -54.5s105.333 18.167 138 54.5s49 88.5 49 156.5v431h96v-434c0 -92.667 -25.167 -164.834 -75.5 -216.501
s-119.5 -77.5 -207.5 -77.5zM348 728c-32.667 0 -60.332 11.167 -82.999 33.5s-34 49.166 -34 80.499s11.333 58 34 80s50.334 33 83.001 33c33.333 0 61.166 -10.833 83.499 -32.5s33.5 -48.5 33.5 -80.5c0 -31.333 -11.333 -58.166 -34 -80.499
s-50.334 -33.5 -83.001 -33.5zM348.002 899c-16 0 -29.333 -5.5 -40 -16.5s-16 -24.5 -16 -40.5c0 -16.667 5.33301 -30.334 16 -41.001s24 -16 40 -16s29.333 5.33301 40 16s16 24.334 16 41.001c0 16 -5.33301 29.5 -16 40.5s-24 16.5 -40 16.5z" />
    <glyph glyph-name="uring" unicode="&#x16f;" 
d="M400 523h90v-523h-90v72c-18 -26.667 -40.333 -47.167 -67 -61.5s-56 -21.5 -88 -21.5c-54 0 -96.667 17 -128 51s-47 79.667 -47 137v346h90v-327c0 -40.667 9.16699 -71.5 27.5 -92.5s45.5 -31.5 81.5 -31.5c36.667 0 67.667 12.833 93 38.5s38 58.167 38 97.5v315z
M279 568c-28.667 0 -52.667 9.5 -72 28.5s-29 42.5 -29 70.5c0 27.333 9.66699 50.333 29 69s43.333 28 72 28s52.667 -9.33301 72 -28s29 -41.667 29 -69c0 -28 -9.66699 -51.5 -29 -70.5s-43.333 -28.5 -72 -28.5zM279 717c-13.333 0 -25 -5 -35 -15s-15 -21.667 -15 -35
c0 -14 4.83301 -26.167 14.5 -36.5s21.5 -15.5 35.5 -15.5s25.833 5.16699 35.5 15.5s14.5 22.5 14.5 36.5c0 13.333 -5 25 -15 35s-21.667 15 -35 15z" />
    <glyph glyph-name="Uhungarumlaut" unicode="&#x170;" horiz-adv-x="697" 
d="M348 -10c-87.333 0 -156.166 25.833 -206.499 77.5s-75.5 123.834 -75.5 216.501v434h96v-431c0 -68 16.167 -120.167 48.5 -156.5s78.166 -54.5 137.499 -54.5s105.333 18.167 138 54.5s49 88.5 49 156.5v431h96v-434c0 -92.667 -25.167 -164.834 -75.5 -216.501
s-119.5 -77.5 -207.5 -77.5zM465 765h-71l91 145h109zM281 765h-72l92 145h109z" />
    <glyph glyph-name="uhungarumlaut" unicode="&#x171;" 
d="M400 523h90v-523h-90v72c-18 -26.667 -40.333 -47.167 -67 -61.5s-56 -21.5 -88 -21.5c-54 0 -96.667 17 -128 51s-47 79.667 -47 137v346h90v-327c0 -40.667 9.16699 -71.5 27.5 -92.5s45.5 -31.5 81.5 -31.5c36.667 0 67.667 12.833 93 38.5s38 58.167 38 97.5v315z
M390 579h-65l61 139h102zM234 579h-64l61 139h102z" />
    <glyph glyph-name="Uogonek" unicode="&#x172;" horiz-adv-x="697" 
d="M397 -186c-26 0 -47.499 7.50195 -64.499 22.502s-25.5 34.167 -25.5 57.5c0 17.333 3.66699 33.666 11 48.999s19.333 31 36 47h-2.5h-3.5c-87.333 0 -156.166 25.833 -206.499 77.5s-75.5 123.834 -75.5 216.501v434h96v-431c0 -68 16.167 -120.167 48.5 -156.5
s78.166 -54.5 137.499 -54.5s105.333 18.167 138 54.5s49 88.5 49 156.5v431h96v-434c0 -74.667 -16.5 -136.167 -49.5 -184.5s-79.833 -80.833 -140.5 -97.5c-26 -22.667 -43.833 -40.834 -53.5 -54.501s-14.5 -26.834 -14.5 -39.501c0 -10.667 3.66699 -19.167 11 -25.5
s17 -9.5 29 -9.5c7.33301 0 13.833 0.5 19.5 1.5s12.5 2.5 20.5 4.5v-58c-9.33301 -2.66699 -17.833 -4.5 -25.5 -5.5s-17.834 -1.5 -30.501 -1.5z" />
    <glyph glyph-name="uogonek" unicode="&#x173;" 
d="M425 -186c-26 0 -47.5 7.5 -64.5 22.5s-25.5 34.167 -25.5 57.5c0 20 5 38.833 15 56.5s26.667 36.167 50 55.5v66c-18 -26.667 -40.333 -47.167 -67 -61.5s-56 -21.5 -88 -21.5c-54 0 -96.667 17 -128 51s-47 79.667 -47 137v346h90v-327
c0 -40.667 9.16699 -71.5 27.5 -92.5s45.5 -31.5 81.5 -31.5c36.667 0 67.667 12.833 93 38.5s38 58.167 38 97.5v315h90v-523h-23c-25.333 -22 -42.666 -39.667 -51.999 -53s-14 -26.333 -14 -39c0 -10.667 3.66699 -19.167 11 -25.5s17 -9.5 29 -9.5
c7.33301 0 13.833 0.5 19.5 1.5s12.5 2.5 20.5 4.5v-58c-9.33301 -2.66699 -17.833 -4.5 -25.5 -5.5s-17.834 -1.5 -30.501 -1.5z" />
    <glyph glyph-name="Wcircumflex" unicode="&#x174;" horiz-adv-x="921" 
d="M268 143l151 575h85l152 -575l153 575h95l-197 -718h-94l-153 559l-152 -559h-94l-198 718h99zM406 910h108l117 -145h-73l-98 87l-98 -87h-73z" />
    <glyph glyph-name="wcircumflex" unicode="&#x175;" horiz-adv-x="720" 
d="M216 134l108 389h76l108 -390l109 390h90l-159 -523h-79l-109 388l-109 -388h-79l-159 523h93zM315 718h98l98 -139h-70l-77 78l-77 -78h-70z" />
    <glyph glyph-name="Ycircumflex" unicode="&#x176;" horiz-adv-x="626" 
d="M109 718l205 -329l205 329h102l-260 -416v-302h-96v302l-260 416h104zM258 910h108l117 -145h-73l-98 87l-98 -87h-73z" />
    <glyph glyph-name="ycircumflex" unicode="&#x177;" horiz-adv-x="507" 
d="M494 523l-225.002 -580c-18 -46.667 -39.667 -79.834 -65 -99.501s-57.666 -29.5 -96.999 -29.5c-10.667 0 -19.5 0.333008 -26.5 1s-14.5 1.66699 -22.5 3v78c8 -2 15.167 -3.33301 21.5 -4s13.5 -1 21.5 -1c20.667 0 36.834 4.83301 48.501 14.5
s22.5 26.834 32.5 51.501l25 62l-194 504h95l147 -400l145 400h94zM204.998 718h98l98 -139h-70l-77 78l-77 -78h-70z" />
    <glyph glyph-name="Ydieresis" unicode="&#x178;" horiz-adv-x="626" 
d="M109 718l205 -329l205 329h102l-260 -416v-302h-96v302l-260 416h104zM273 769h-100v104h100v-104zM451 769h-100v104h100v-104z" />
    <glyph glyph-name="Zacute" unicode="&#x179;" horiz-adv-x="620" 
d="M159 84h426v-84h-547v74l422 560h-417v84h538v-74zM318 765h-72l101 145h126z" />
    <glyph glyph-name="zacute" unicode="&#x17a;" horiz-adv-x="495" 
d="M154 77h299v-77h-412v68l302 378h-298v77h405v-69zM268 579h-71l59 139h113z" />
    <glyph glyph-name="Zdotaccent" unicode="&#x17b;" horiz-adv-x="620" 
d="M159 84h426v-84h-547v74l422 560h-417v84h538v-74zM365 769h-100v104h100v-104z" />
    <glyph glyph-name="zdotaccent" unicode="&#x17c;" horiz-adv-x="495" 
d="M154 77h299v-77h-412v68l302 378h-298v77h405v-69zM293 614h-98v104h98v-104z" />
    <glyph glyph-name="Zcaron" unicode="&#x17d;" horiz-adv-x="620" 
d="M159 84h426v-84h-547v74l422 560h-417v84h538v-74zM489 911l-117 -145h-108l-117 145h73l98 -87l98 87h73z" />
    <glyph glyph-name="zcaron" unicode="&#x17e;" horiz-adv-x="495" 
d="M154 77h299v-77h-412v68l302 378h-298v77h405v-69zM396 718l-98 -139h-98l-98 139h70l77 -78l77 78h70z" />
    <glyph glyph-name="florin" unicode="&#x192;" horiz-adv-x="548" 
d="M227 359h-104.003v66h114l17 115c9.33301 61.333 29.333 108.166 60 140.499s71.334 48.5 122.001 48.5c22.667 0 43.834 -3.83301 63.501 -11.5s36.834 -18.834 51.501 -33.501l-36 -66c-8.66699 10.667 -19 19 -31 25s-24.667 9 -38 9c-26 0 -47.333 -9.66699 -64 -29
s-27.667 -47.666 -33 -84.999l-17 -113h120v-66h-130l-28 -181c-8 -61.333 -27.5 -108.166 -58.5 -140.499s-71.833 -48.5 -122.5 -48.5c-22.667 0 -44.167 4 -64.5 12s-37.5 19 -51.5 33l37 66c8.66699 -10.667 19.167 -19.167 31.5 -25.5s24.833 -9.5 37.5 -9.5
c26 0 47.167 9.66699 63.5 29s27.5 48 33.5 86z" />
    <glyph glyph-name="AEacute" unicode="&#x1fc;" horiz-adv-x="1029" 
d="M10 0l449 718h523v-84h-375v-221h317v-84h-317v-245h375v-84h-469v195h-278l-121 -195h-104zM513 641l-225 -362h225v362zM752 765h-72l101 145h126z" />
    <glyph glyph-name="aeacute" unicode="&#x1fd;" horiz-adv-x="857" 
d="M34 143c0 54 21.498 96.335 64.498 127.002s101.5 46 175.5 46h87v40c0 32.667 -8.83301 57.167 -26.5 73.5s-43.834 24.5 -78.501 24.5c-33.333 0 -60 -7.83301 -80 -23.5s-33 -39.167 -39 -70.5l-85 23c11.333 46 35.666 82.5 72.999 109.5s82.333 40.5 135 40.5
c39.333 0 72.833 -7 100.5 -21s48.5 -34.667 62.5 -62c22 26.667 47.833 47.167 77.5 61.5s61.834 21.5 96.501 21.5c68.667 0 122.834 -23.167 162.501 -69.5s59.5 -108.5 59.5 -186.5v-30h-377c2.66699 -54.667 18.334 -98.334 47.001 -131.001s66 -49 112 -49
c34.667 0 64 8.83301 88 26.5s40 42.167 48 73.5l78 -28c-15.333 -46.667 -42 -83.334 -80 -110.001s-82.667 -40 -134 -40c-42 0 -80.167 9.16699 -114.5 27.5s-62.166 44.5 -83.499 78.5c-18 -32.667 -44.167 -58.167 -78.5 -76.5s-72.833 -27.5 -115.5 -27.5
c-50.667 0 -92.5 14 -125.5 42s-49.5 64.667 -49.5 110zM595.998 456.002c-38.667 0 -71.167 -12.333 -97.5 -37s-43.5 -59 -51.5 -103h281c-0.666992 42.667 -12.667 76.667 -36 102s-55.333 38 -96 38zM122.998 149.002c0 -26 8.83301 -46.5 26.5 -61.5
s41.834 -22.5 72.501 -22.5c39.333 0 72.333 12.667 99 38s40 57 40 95v49h-85c-52.667 0 -91.334 -8 -116.001 -24s-37 -40.667 -37 -74zM458.998 579.002h-71l59 139h113z" />
    <glyph glyph-name="Oslashacute" unicode="&#x1fe;" horiz-adv-x="726" 
d="M103 -21l-56.001 45.0049l69 84c-26 33.333 -45.667 71.166 -59 113.499s-20 88.166 -20 137.499c0 50.667 7.16699 97.834 21.5 141.501s35.166 82.167 62.499 115.5c30 36.667 65.833 64.667 107.5 84s86.5 29 134.5 29c39.333 0 76.333 -6.33301 111 -19
s66 -31.334 94 -56.001l59 71l56 -45l-66 -80c23.333 -32.667 41 -69.334 53 -110.001s18 -84.334 18 -131.001c0 -50.667 -7.16699 -97.834 -21.5 -141.501s-35.166 -82.167 -62.499 -115.5c-29.333 -36.667 -64.833 -64.667 -106.5 -84s-86.5 -29 -134.5 -29
c-36.667 0 -71.667 5.66699 -105 17s-63.666 28 -90.999 50zM187.999 553.005c-18 -25.333 -31.667 -54.5 -41 -87.5s-14 -68.5 -14 -106.5c0 -34 3.66699 -66 11 -96s18.333 -57.333 33 -82l334 404c-20 19.333 -42.5 34 -67.5 44s-51.833 15 -80.5 15
c-35.333 0 -68 -7.83301 -98 -23.5s-55.667 -38.167 -77 -67.5zM537.999 165.005c18 25.333 31.668 54.501 41.001 87.501s14 68.5 14 106.5c0 31.333 -3.16699 61 -9.5 89s-15.833 53.667 -28.5 77l-331 -400c19.333 -16.667 40.666 -29.334 63.999 -38.001
s48.333 -13 75 -13c35.333 0 68 7.83301 98 23.5s55.667 38.167 77 67.5zM375 765.006h-72l101 145h126z" />
    <glyph glyph-name="oslashacute" unicode="&#x1ff;" 
d="M39 261c0 38 5.33398 73.334 16.001 106.001s26.334 61 47.001 85c22 26 48.5 46 79.5 60s64.5 21 100.5 21c26 0 51 -3.66699 75 -11s45.667 -18.333 65 -33l42 52l53 -42l-46 -58c17.333 -24 30.666 -51.333 39.999 -82s14 -63.334 14 -98.001
c0 -38 -5.33301 -73.333 -16 -106s-26.334 -61 -47.001 -85c-22 -26 -48.5 -46 -79.5 -60s-64.5 -21 -100.5 -21c-26 0 -50.667 3.66699 -74 11s-45 18 -65 32l-42 -53l-53 42l47 58c-18.667 24 -32.667 51.333 -42 82s-14 64 -14 100zM282.001 457.001
c-46 0 -82.833 -17.666 -110.5 -52.999s-41.5 -83 -41.5 -143c0 -20.667 1.83301 -40.334 5.5 -59.001s9.16699 -35.667 16.5 -51l220 275c-12.667 10 -26.5 17.667 -41.5 23s-31.167 8 -48.5 8zM282.001 66.002c46 0 82.832 17.668 110.499 53.001
s41.5 82.666 41.5 141.999c0 21.333 -1.66699 41 -5 59s-8.66602 34.333 -15.999 49l-219 -273c12 -10 25.333 -17.5 40 -22.5s30.667 -7.5 48 -7.5zM312 579.003h-71l59 139h113z" />
    <glyph glyph-name="Scommaaccent" unicode="&#x218;" horiz-adv-x="587" 
d="M296 -11c-63.333 0 -121.83 14.667 -175.497 44s-92.5 67.666 -116.5 114.999l75 60c22.667 -42.667 53.167 -76 91.5 -100s80.833 -36 127.5 -36c49.333 0 89.166 11.667 119.499 35s45.5 54.333 45.5 93c0 22 -5.5 40.5 -16.5 55.5s-28.833 27.833 -53.5 38.5
c-10 4 -21.5 8 -34.5 12s-42.167 11.333 -87.5 22c-42.667 10 -75 19.167 -97 27.5s-40.667 17.5 -56 27.5c-24.667 16 -42.834 35.333 -54.501 58s-17.5 49.334 -17.5 80.001c0 31.333 6.5 60.166 19.5 86.499s31.833 49.166 56.5 68.499c22 17.333 47.5 30.5 76.5 39.5
s59.833 13.5 92.5 13.5c58 0 109.667 -12.5 155 -37.5s79.666 -59.5 102.999 -103.5l-73 -58c-20.667 39.333 -46.5 68.5 -77.5 87.5s-67.5 28.5 -109.5 28.5c-44 0 -80 -11 -108 -33s-42 -50 -42 -84c0 -20 4.83301 -36.667 14.5 -50s24.834 -25 45.501 -35
c10 -4 22.167 -8.16699 36.5 -12.5s38.166 -10.5 71.499 -18.5c56 -13.333 94.5 -23.666 115.5 -30.999s39.167 -15.666 54.5 -24.999c27.333 -16.667 47.5 -37.167 60.5 -61.5s19.5 -53.5 19.5 -87.5c0 -32.667 -7 -63 -21 -91s-34.333 -52 -61 -72
c-23.333 -18 -50.5 -31.833 -81.5 -41.5s-63.5 -14.5 -97.5 -14.5zM288.003 -115h-38.999v72h97v-61c0 -28 -9.83301 -50.5 -29.5 -67.5s-45.834 -25.5 -78.501 -25.5v41c16.667 0.666992 29 4.16699 37 10.5s12.333 16.5 13 30.5z" />
    <glyph glyph-name="scommaaccent" unicode="&#x219;" horiz-adv-x="486" 
d="M247 -11c-51.333 0 -97.834 10.834 -139.501 32.501s-71.834 51.5 -90.501 89.5l70 51c14 -30 35.5 -53.833 64.5 -71.5s60.833 -26.5 95.5 -26.5s62.5 7.33301 83.5 22s31.5 35 31.5 61c0 15.333 -3.83301 28 -11.5 38s-20.5 18 -38.5 24
c-7.33301 2.66699 -15.666 5.16699 -24.999 7.5s-29.666 6.83301 -60.999 13.5c-36.667 8 -63 14.833 -79 20.5s-29.667 12.167 -41 19.5c-19.333 11.333 -33.5 25.666 -42.5 42.999s-13.5 38 -13.5 62c0 46 18 83.833 54 113.5s82 44.5 138 44.5
c45.333 0 86.333 -9.83301 123 -29.5s63 -45.834 79 -78.501l-64 -51c-14 27.333 -33.333 48.333 -58 63s-52.667 22 -84 22c-30 0 -54.167 -7 -72.5 -21s-27.5 -32.667 -27.5 -56c0 -13.333 3.5 -24.333 10.5 -33s18.167 -16 33.5 -22l23.5 -7
c9 -2.66699 26.167 -6.66699 51.5 -12c44.667 -10.667 74.5 -18.5 89.5 -23.5s28.167 -10.833 39.5 -17.5c22 -12.667 38.167 -28.167 48.5 -46.5s15.5 -40.166 15.5 -65.499c0 -48 -19.333 -87.667 -58 -119s-87 -47 -145 -47zM236.999 -114.999h-38.999v72h97v-61
c0 -28 -9.83301 -50.5 -29.5 -67.5s-45.834 -25.5 -78.501 -25.5v41c16.667 0.666992 29 4.16699 37 10.5s12.333 16.5 13 30.5z" />
    <glyph glyph-name="uni021A" unicode="&#x21a;" horiz-adv-x="616" 
d="M599 718v-84h-243v-634h-96v634h-243v84h582zM298 -115h-38.999v72h97v-61c0 -28 -9.83301 -50.5 -29.5 -67.5s-45.834 -25.5 -78.501 -25.5v41c16.667 0.666992 29 4.16699 37 10.5s12.333 16.5 13 30.5z" />
    <glyph glyph-name="uni021B" unicode="&#x21b;" horiz-adv-x="341" 
d="M229 -5c-50 0 -85.832 10.333 -107.499 31s-32.5 53.667 -32.5 99v321h-81v77h81v153h89v-153h119v-77h-119v-307c0 -23.333 5.16699 -40 15.5 -50s29.5 -15 57.5 -15c12 0 22.167 0.5 30.5 1.5s17.166 2.5 26.499 4.5v-77c-12 -2.66699 -24.667 -4.66699 -38 -6
s-27 -2 -41 -2zM196.001 -115h-38.999v72h97v-61c0 -28 -9.83301 -50.5 -29.5 -67.5s-45.834 -25.5 -78.501 -25.5v41c16.667 0.666992 29 4.16699 37 10.5s12.333 16.5 13 30.5z" />
    <glyph glyph-name="uni0237" unicode="&#x237;" horiz-adv-x="240" 
d="M3 -105c25.333 0 43.666 6.16797 54.999 18.501s17 32.166 17 59.499v550h90v-566c0 -44.667 -12.833 -79.167 -38.5 -103.5s-61.834 -36.5 -108.501 -36.5c-9.33301 0 -17.666 0.166992 -24.999 0.5s-15.666 1.16602 -24.999 2.49902v78
c6 -1.33301 11.667 -2.16602 17 -2.49902s11.333 -0.5 18 -0.5z" />
    <glyph glyph-name="circumflex" unicode="&#x2c6;" horiz-adv-x="600" 
d="M251 718h98l98 -139h-70l-77 78l-77 -78h-70z" />
    <glyph glyph-name="caron" unicode="&#x2c7;" horiz-adv-x="600" 
d="M447 718l-98 -139h-98l-98 139h70l77 -78l77 78h70z" />
    <glyph glyph-name="breve" unicode="&#x2d8;" horiz-adv-x="600" 
d="M300 639c21.333 0 38.5 7 51.5 21s19.5 33.333 19.5 58h63c0 -44.667 -12 -79.834 -36 -105.501s-56.667 -38.5 -98 -38.5s-74 12.833 -98 38.5s-36 60.834 -36 105.501h63c0 -24.667 6.5 -44 19.5 -58s30.167 -21 51.5 -21z" />
    <glyph glyph-name="dotaccent" unicode="&#x2d9;" horiz-adv-x="600" 
d="M349 614h-98v104h98v-104z" />
    <glyph glyph-name="ring" unicode="&#x2da;" horiz-adv-x="600" 
d="M300 568c-28.667 0 -52.667 9.5 -72 28.5s-29 42.5 -29 70.5c0 27.333 9.66699 50.333 29 69s43.333 28 72 28s52.667 -9.33301 72 -28s29 -41.667 29 -69c0 -28 -9.66699 -51.5 -29 -70.5s-43.333 -28.5 -72 -28.5zM300 717c-13.333 0 -25 -5 -35 -15
s-15 -21.667 -15 -35c0 -14 4.83301 -26.167 14.5 -36.5s21.5 -15.5 35.5 -15.5s25.833 5.16699 35.5 15.5s14.5 22.5 14.5 36.5c0 13.333 -5 25 -15 35s-21.667 15 -35 15z" />
    <glyph glyph-name="ogonek" unicode="&#x2db;" horiz-adv-x="600" 
d="M313 -186c-26 0 -47.498 7.49902 -64.498 22.499s-25.5 34.167 -25.5 57.5c0 24 7.5 46.5 22.5 67.5s44.167 47.167 87.5 78.5l28 -35c-28.667 -24.667 -47.834 -43.667 -57.501 -57s-14.5 -26.666 -14.5 -39.999c0 -10.667 3.66699 -19.167 11 -25.5s17 -9.5 29 -9.5
c7.33301 0 13.833 0.5 19.5 1.5s12.5 2.5 20.5 4.5v-58c-9.33301 -2.66699 -17.833 -4.5 -25.5 -5.5s-17.834 -1.5 -30.501 -1.5z" />
    <glyph glyph-name="tilde" unicode="&#x2dc;" horiz-adv-x="600" 
d="M237 719c10.667 0 21.334 -2.50195 32.001 -7.50195s24.334 -14.833 41.001 -29.5c12.667 -11.333 22 -18.666 28 -21.999s12 -5 18 -5c12.667 0 22.334 4.83301 29.001 14.5s11.667 26.167 15 49.5h59c-3.33301 -42 -13.5 -75 -30.5 -99s-39.167 -36 -66.5 -36
c-10.667 0 -21.334 2.33301 -32.001 7s-24.334 14.667 -41.001 30c-12.667 10.667 -22 17.667 -28 21s-12 5 -18 5c-12.667 0 -22.334 -5 -29.001 -15s-11.334 -26 -14.001 -48h-59c2.66699 42.667 12.334 75.834 29.001 99.501s39 35.5 67 35.5z" />
    <glyph glyph-name="hungarumlaut" unicode="&#x2dd;" horiz-adv-x="600" 
d="M359 579h-65l61 139h102zM203 579h-64l61 139h102z" />
    <glyph glyph-name="gravecmb" unicode="&#x300;" horiz-adv-x="0" 
d="M27 718l59 -139h-71l-101 139h113z" />
    <glyph glyph-name="acutecmb" unicode="&#x301;" horiz-adv-x="0" 
d="M-15 579h-71l59 139h113z" />
    <glyph glyph-name="uni0302" unicode="&#x302;" horiz-adv-x="0" 
d="M-49 718h98l98 -139h-70l-77 78l-77 -78h-70z" />
    <glyph glyph-name="tildecmb" unicode="&#x303;" horiz-adv-x="0" 
d="M-63 719c10.667 0 21.334 -2.50195 32.001 -7.50195s24.334 -14.833 41.001 -29.5c12.667 -11.333 22 -18.666 28 -21.999s12 -5 18 -5c12.667 0 22.334 4.83301 29.001 14.5s11.667 26.167 15 49.5h59c-3.33301 -42 -13.5 -75 -30.5 -99s-39.167 -36 -66.5 -36
c-10.667 0 -21.334 2.33301 -32.001 7s-24.334 14.667 -41.001 30c-12.667 10.667 -22 17.667 -28 21s-12 5 -18 5c-12.667 0 -22.334 -5 -29.001 -15s-11.334 -26 -14.001 -48h-59c2.66699 42.667 12.334 75.834 29.001 99.501s39 35.5 67 35.5z" />
    <glyph glyph-name="uni0304" unicode="&#x304;" horiz-adv-x="0" 
d="M137 678v-72h-274v72h274z" />
    <glyph glyph-name="uni0306" unicode="&#x306;" horiz-adv-x="0" 
d="M0 639c21.333 0 38.5 7 51.5 21s19.5 33.333 19.5 58h63c0 -44.667 -12 -79.834 -36 -105.501s-56.667 -38.5 -98 -38.5s-74 12.833 -98 38.5s-36 60.834 -36 105.501h63c0 -24.667 6.5 -44 19.5 -58s30.167 -21 51.5 -21z" />
    <glyph glyph-name="uni0307" unicode="&#x307;" horiz-adv-x="0" 
d="M49 614h-98v104h98v-104z" />
    <glyph glyph-name="uni0308" unicode="&#x308;" horiz-adv-x="0" 
d="M-36 610h-100v104h100v-104zM136 610h-100v104h100v-104z" />
    <glyph glyph-name="uni030A" unicode="&#x30a;" horiz-adv-x="0" 
d="M0 568c-28.667 0 -52.667 9.5 -72 28.5s-29 42.5 -29 70.5c0 27.333 9.66699 50.333 29 69s43.333 28 72 28s52.667 -9.33301 72 -28s29 -41.667 29 -69c0 -28 -9.66699 -51.5 -29 -70.5s-43.333 -28.5 -72 -28.5zM0 717c-13.333 0 -25 -5 -35 -15s-15 -21.667 -15 -35
c0 -14 4.83301 -26.167 14.5 -36.5s21.5 -15.5 35.5 -15.5s25.833 5.16699 35.5 15.5s14.5 22.5 14.5 36.5c0 13.333 -5 25 -15 35s-21.667 15 -35 15z" />
    <glyph glyph-name="uni030B" unicode="&#x30b;" horiz-adv-x="0" 
d="M61 579h-65l61 139h102zM-95 579h-64l61 139h102z" />
    <glyph glyph-name="uni030C" unicode="&#x30c;" horiz-adv-x="0" 
d="M147 718l-98 -139h-98l-98 139h70l77 -78l77 78h70z" />
    <glyph glyph-name="uni0315" unicode="&#x315;" horiz-adv-x="0" 
d="M-2 542h-61l23 176h103z" />
    <glyph glyph-name="uni0327" unicode="&#x327;" horiz-adv-x="0" 
d="M104 -106c0 -24.667 -10.5 -44.834 -31.5 -60.501s-47.167 -23.5 -78.5 -23.5c-20.667 0 -39.667 3.33301 -57 10s-31.333 16.334 -42 29.001l34 47c8.66699 -10.667 18.167 -18.667 28.5 -24s21.5 -8 33.5 -8c14.667 0 26.167 2.83301 34.5 8.5s12.5 13.834 12.5 24.501
c0 11.333 -6.16699 20.166 -18.5 26.499s-32.5 10.5 -60.5 12.5l22 74h49l-11 -37c26.667 -3.33301 47.5 -11.833 62.5 -25.5s22.5 -31.5 22.5 -53.5z" />
    <glyph glyph-name="uni0328" unicode="&#x328;" horiz-adv-x="0" 
d="M17 -186c-26 0 -47.498 7.49902 -64.498 22.499s-25.5 34.167 -25.5 57.5c0 24 7.5 46.5 22.5 67.5s44.167 47.167 87.5 78.5l28 -35c-28.667 -24.667 -47.834 -43.667 -57.501 -57s-14.5 -26.666 -14.5 -39.999c0 -10.667 3.66699 -19.167 11 -25.5s17 -9.5 29 -9.5
c7.33301 0 13.833 0.5 19.5 1.5s12.5 2.5 20.5 4.5v-58c-9.33301 -2.66699 -17.833 -4.5 -25.5 -5.5s-17.834 -1.5 -30.501 -1.5z" />
    <glyph glyph-name="Wgrave" unicode="&#x1e80;" horiz-adv-x="921" 
d="M268 143l151 575h85l152 -575l153 575h95l-197 -718h-94l-153 559l-152 -559h-94l-198 718h99zM401 910l101 -145h-72l-155 145h126z" />
    <glyph glyph-name="wgrave" unicode="&#x1e81;" horiz-adv-x="720" 
d="M216 134l108 389h76l108 -390l109 390h90l-159 -523h-79l-109 388l-109 -388h-79l-159 523h93zM334 718l59 -139h-71l-101 139h113z" />
    <glyph glyph-name="Wacute" unicode="&#x1e82;" horiz-adv-x="921" 
d="M268 143l151 575h85l152 -575l153 575h95l-197 -718h-94l-153 559l-152 -559h-94l-198 718h99zM487 765h-72l101 145h126z" />
    <glyph glyph-name="wacute" unicode="&#x1e83;" horiz-adv-x="720" 
d="M216 134l108 389h76l108 -390l109 390h90l-159 -523h-79l-109 388l-109 -388h-79l-159 523h93zM407 579h-71l59 139h113z" />
    <glyph glyph-name="Wdieresis" unicode="&#x1e84;" horiz-adv-x="921" 
d="M268 143l151 575h85l152 -575l153 575h95l-197 -718h-94l-153 559l-152 -559h-94l-198 718h99zM421 769h-100v104h100v-104zM599 769h-100v104h100v-104z" />
    <glyph glyph-name="wdieresis" unicode="&#x1e85;" horiz-adv-x="720" 
d="M216 134l108 389h76l108 -390l109 390h90l-159 -523h-79l-109 388l-109 -388h-79l-159 523h93zM328 610h-100v104h100v-104zM500 610h-100v104h100v-104z" />
    <glyph glyph-name="Ygrave" unicode="&#x1ef2;" horiz-adv-x="626" 
d="M109 718l205 -329l205 329h102l-260 -416v-302h-96v302l-260 416h104zM277 910l101 -145h-72l-155 145h126z" />
    <glyph glyph-name="ygrave" unicode="&#x1ef3;" horiz-adv-x="507" 
d="M494 523l-225.002 -580c-18 -46.667 -39.667 -79.834 -65 -99.501s-57.666 -29.5 -96.999 -29.5c-10.667 0 -19.5 0.333008 -26.5 1s-14.5 1.66699 -22.5 3v78c8 -2 15.167 -3.33301 21.5 -4s13.5 -1 21.5 -1c20.667 0 36.834 4.83301 48.501 14.5
s22.5 26.834 32.5 51.501l25 62l-194 504h95l147 -400l145 400h94zM240.998 718l59 -139h-71l-101 139h113z" />
    <glyph glyph-name="uni2009" unicode="&#x2009;" horiz-adv-x="100" 
 />
    <glyph glyph-name="endash" unicode="&#x2013;" horiz-adv-x="563" 
d="M513 255h-462v74h462v-74z" />
    <glyph glyph-name="emdash" unicode="&#x2014;" horiz-adv-x="997" 
d="M947 255h-896v74h896v-74z" />
    <glyph glyph-name="quoteleft" unicode="&#x2018;" horiz-adv-x="192" 
d="M100 584h52v-116h-114v123c0 38 11.667 68.5 35 91.5s55 34.833 95 35.5v-52c-22.667 -2 -39.667 -9 -51 -21s-17 -28.667 -17 -50v-11z" />
    <glyph glyph-name="quoteright" unicode="&#x2019;" horiz-adv-x="192" 
d="M92 602h-52v116h114v-123c0 -38 -11.667 -68.5 -35 -91.5s-55 -34.833 -95 -35.5v52c22.667 2 39.667 9 51 21s17 28.667 17 50v11z" />
    <glyph glyph-name="quotesinglbase" unicode="&#x201a;" horiz-adv-x="192" 
d="M92 11h-52v116h114v-123c0 -38 -11.667 -68.5 -35 -91.5s-55 -34.833 -95 -35.5v52c22.667 2 39.667 9 51 21s17 28.667 17 50v11z" />
    <glyph glyph-name="quotedblleft" unicode="&#x201c;" horiz-adv-x="366" 
d="M100 584h52v-116h-114v123c0 38 11.667 68.5 35 91.5s55 34.833 95 35.5v-52c-22.667 -2 -39.667 -9 -51 -21s-17 -28.667 -17 -50v-11zM274 584h52v-116h-114v123c0 38 11.667 68.5 35 91.5s55 34.833 95 35.5v-52c-22.667 -2 -39.667 -9 -51 -21s-17 -28.667 -17 -50
v-11z" />
    <glyph glyph-name="quotedblright" unicode="&#x201d;" horiz-adv-x="366" 
d="M266 602h-52v116h114v-123c0 -38 -11.667 -68.5 -35 -91.5s-55 -34.833 -95 -35.5v52c22.667 2 39.667 9 51 21s17 28.667 17 50v11zM92 602h-52v116h114v-123c0 -38 -11.667 -68.5 -35 -91.5s-55 -34.833 -95 -35.5v52c22.667 2 39.667 9 51 21s17 28.667 17 50v11z" />
    <glyph glyph-name="quotedblbase" unicode="&#x201e;" horiz-adv-x="366" 
d="M266 11h-52v116h114v-123c0 -38 -11.667 -68.5 -35 -91.5s-55 -34.833 -95 -35.5v52c22.667 2 39.667 9 51 21s17 28.667 17 50v11zM92 11h-52v116h114v-123c0 -38 -11.667 -68.5 -35 -91.5s-55 -34.833 -95 -35.5v52c22.667 2 39.667 9 51 21s17 28.667 17 50v11z" />
    <glyph glyph-name="dagger" unicode="&#x2020;" horiz-adv-x="386" 
d="M229 295h-72v245h-130v73h130v125h72v-125h130v-73h-130v-245z" />
    <glyph glyph-name="daggerdbl" unicode="&#x2021;" horiz-adv-x="386" 
d="M229 295h-72v105h-130v69h130v96h-130v69h130v104h72v-104h130v-69h-130v-96h130v-69h-130v-105z" />
    <glyph glyph-name="bullet" unicode="&#x2022;" horiz-adv-x="405" 
d="M51 291c0 44 14.5 80.5 43.5 109.5s65.167 43.5 108.5 43.5s79.333 -14.5 108 -43.5s43 -65.5 43 -109.5c0 -43.333 -14.333 -79.333 -43 -108s-64.667 -43 -108 -43s-79.5 14.333 -108.5 43s-43.5 64.667 -43.5 108z" />
    <glyph glyph-name="ellipsis" unicode="&#x2026;" horiz-adv-x="627" 
d="M168 0h-114v118h114v-118zM370 0h-114v118h114v-118zM572 0h-114v118h114v-118z" />
    <glyph glyph-name="guilsinglleft" unicode="&#x2039;" horiz-adv-x="207" 
d="M180 84l-153 137v90l153 137v-94l-88 -88l88 -88v-94z" />
    <glyph glyph-name="guilsinglright" unicode="&#x203a;" horiz-adv-x="207" 
d="M180 311v-90l-153 -137v94l88 88l-88 88v94z" />
    <glyph glyph-name="fraction" unicode="&#x2044;" horiz-adv-x="187" 
d="M-202 0l512 718h79l-511 -718h-80z" />
    <glyph glyph-name="uni2070" unicode="&#x2070;" horiz-adv-x="380" 
d="M189 314c-46 0 -82.667 18.667 -110 56s-41 87 -41 149s13.667 111.667 41 149s64 56 110 56s82.667 -18.667 110 -56s41 -87 41 -149s-13.667 -111.667 -41 -149s-64 -56 -110 -56zM189 657c-23.333 0 -41.833 -12.333 -55.5 -37s-20.5 -58.334 -20.5 -101.001
s6.83301 -76.334 20.5 -101.001s32.167 -37 55.5 -37c24 0 42.833 12.333 56.5 37s20.5 58.334 20.5 101.001s-6.83301 76.334 -20.5 101.001s-32.5 37 -56.5 37z" />
    <glyph glyph-name="uni2074" unicode="&#x2074;" horiz-adv-x="380" 
d="M286 418v-98h-71v98h-188v55l164 245h95v-241h69v-59h-69zM214 656l-123 -179h123v179z" />
    <glyph glyph-name="uni2075" unicode="&#x2075;" horiz-adv-x="380" 
d="M192 524c-12 0 -23.168 -2.50195 -33.501 -7.50195s-18.5 -12.167 -24.5 -21.5l-71 10l18 213h226v-64h-169l-10 -106c12 10.667 24.833 18.834 38.5 24.501s28.167 8.5 43.5 8.5c36.667 0 66.334 -12 89.001 -36s34 -55 34 -93c0 -39.333 -13.833 -72.166 -41.5 -98.499
s-62.167 -39.5 -103.5 -39.5c-40.667 0 -74.334 10.667 -101.001 32s-42.667 50.666 -48 87.999l76 13c2.66699 -20.667 10.5 -37.167 23.5 -49.5s29.5 -18.5 49.5 -18.5c20.667 0 37.834 6.83301 51.501 20.5s20.5 30.834 20.5 51.501s-6.33301 38 -19 52s-29 21 -49 21z
" />
    <glyph glyph-name="uni2076" unicode="&#x2076;" horiz-adv-x="380" 
d="M208 724c32.667 0 60.166 -7.83203 82.499 -23.499s38.5 -38.834 48.5 -69.501l-62 -24c-5.33301 18 -14 31.667 -26 41s-26.667 14 -44 14c-26.667 0 -48.167 -10.833 -64.5 -32.5s-24.5 -50.834 -24.5 -87.501v-15c0 -4 0.333008 -7.33301 1 -10
c5.33301 18.667 16.333 33.834 33 45.501s36.334 17.5 59.001 17.5c36.667 0 67.167 -12 91.5 -36s36.5 -54.333 36.5 -91c0 -40 -13.333 -73.167 -40 -99.5s-60.667 -39.5 -102 -39.5c-47.333 0 -84.833 18.167 -112.5 54.5s-41.5 84.5 -41.5 144.5
c0 62.667 15.5 113.5 46.5 152.5s70.5 58.5 118.5 58.5zM195.999 374.001c20.667 0 38.001 7.16699 52.001 21.5s21 32.5 21 54.5s-6.83301 40.167 -20.5 54.5s-30.834 21.5 -51.501 21.5c-21.333 0 -39 -7.16699 -53 -21.5s-21 -32.5 -21 -54.5s6.83301 -40.167 20.5 -54.5
s31.167 -21.5 52.5 -21.5z" />
    <glyph glyph-name="uni2077" unicode="&#x2077;" horiz-adv-x="380" 
d="M265 655l-158.001 -0.000976562v-61h-64v124h298v-63c-41.333 -44.667 -70.833 -92.167 -88.5 -142.5s-26.5 -114.5 -26.5 -192.5h-81c0 68.667 9.83301 130.334 29.5 185.001s49.834 104.667 90.501 150z" />
    <glyph glyph-name="uni2078" unicode="&#x2078;" horiz-adv-x="380" 
d="M58 613c0 32.667 12.334 59.333 37.001 80s56 31 94 31s69.5 -10.333 94.5 -31s37.5 -47.334 37.5 -80.001c0 -18.667 -5 -35.334 -15 -50.001s-24.333 -26.334 -43 -35.001c24 -7.33301 43 -19.666 57 -36.999s21 -37.333 21 -60c0 -34.667 -14.333 -62.834 -43 -84.501
s-65 -32.5 -109 -32.5s-80.333 10.833 -109 32.5s-43 49.834 -43 84.501c0 22 7.16699 41.667 21.5 59s33.166 30 56.499 38c-18 8.66699 -32 20.334 -42 35.001s-15 31.334 -15 50.001zM125.001 610.999c0 -16.667 5.83301 -30.167 17.5 -40.5s27.167 -15.5 46.5 -15.5
s35 5.16699 47 15.5s18 23.833 18 40.5s-6 30.167 -18 40.5s-27.667 15.5 -47 15.5s-34.833 -5.16699 -46.5 -15.5s-17.5 -23.833 -17.5 -40.5zM267.001 436.999c0 18.667 -7.3291 34.167 -21.9961 46.5s-33.334 18.5 -56.001 18.5s-41.334 -6.16699 -56.001 -18.5
s-22 -27.833 -22 -46.5c0 -19.333 7.16699 -34.833 21.5 -46.5s33.166 -17.5 56.499 -17.5s42.166 5.83301 56.499 17.5s21.5 27.167 21.5 46.5z" />
    <glyph glyph-name="uni2079" unicode="&#x2079;" horiz-adv-x="380" 
d="M171 314c-32.667 0 -60.167 7.83008 -82.5 23.4971s-38.5 38.834 -48.5 69.501l62 24c4.66699 -18 13 -31.667 25 -41s27 -14 45 -14c26.667 0 48.167 10.833 64.5 32.5s24.5 50.834 24.5 87.501v14.5c0 3.66699 -0.333008 6.83398 -1 9.50098
c-6 -18.667 -17.333 -33.667 -34 -45s-36 -17 -58 -17c-36.667 0 -67.167 12 -91.5 36s-36.5 54.333 -36.5 91c0 40 13.333 73.167 40 99.5s60.667 39.5 102 39.5c47.333 0 84.833 -18.167 112.5 -54.5s41.5 -84.5 41.5 -144.5c0 -62.667 -15.5 -113.5 -46.5 -152.5
s-70.5 -58.5 -118.5 -58.5zM183 663.997c-20.667 0 -38.001 -7.16699 -52.001 -21.5s-21 -32.5 -21 -54.5s6.83301 -40.333 20.5 -55s30.834 -22 51.501 -22c21.333 0 39 7.33301 53 22s21 33 21 55s-6.83301 40.167 -20.5 54.5s-31.167 21.5 -52.5 21.5z" />
    <glyph glyph-name="uni2080" unicode="&#x2080;" horiz-adv-x="380" 
d="M189 -126c-46 0 -82.667 18.667 -110 56s-41 87 -41 149s13.667 111.667 41 149s64 56 110 56s82.667 -18.667 110 -56s41 -87 41 -149s-13.667 -111.667 -41 -149s-64 -56 -110 -56zM189 217c-23.333 0 -41.833 -12.333 -55.5 -37s-20.5 -58.334 -20.5 -101.001
s6.83301 -76.334 20.5 -101.001s32.167 -37 55.5 -37c24 0 42.833 12.333 56.5 37s20.5 58.334 20.5 101.001s-6.83301 76.334 -20.5 101.001s-32.5 37 -56.5 37z" />
    <glyph glyph-name="uni2081" unicode="&#x2081;" horiz-adv-x="380" 
d="M166 -54l0.00195312 215.002h-100v52l42 2c25.333 1.33301 43.666 6.66602 54.999 15.999s18.666 25.666 21.999 48.999h57v-334h85v-66h-259v66h98z" />
    <glyph glyph-name="uni2082" unicode="&#x2082;" horiz-adv-x="380" 
d="M46 -120l0.000976562 60.998l135 107c25.333 20 43 37.833 53 53.5s15 32.5 15 50.5c0 19.333 -6 34.833 -18 46.5s-27.667 17.5 -47 17.5s-35 -6.16699 -47 -18.5s-18 -28.166 -18 -47.499c0 -8 0.833008 -15.833 2.5 -23.5s4.16699 -14.167 7.5 -19.5h-74
c-2.66699 8.66699 -4.83398 17 -6.50098 25s-2.5 15.667 -2.5 23c0 36.667 13.5 67.334 40.5 92.001s60.167 37 99.5 37c41.333 0 74.5 -11.5 99.5 -34.5s37.5 -53.833 37.5 -92.5c0 -27.333 -7.33301 -52.833 -22 -76.5s-38.667 -48.5 -72 -74.5l-78 -60h181v-66h-286z" />
    <glyph glyph-name="uni2083" unicode="&#x2083;" horiz-adv-x="380" 
d="M334 -8c0 -34 -13.1689 -62.168 -39.502 -84.501s-60.166 -33.5 -101.499 -33.5c-42 0 -76.667 10.833 -104 32.5s-44 51.834 -50 90.501l77 12c2.66699 -21.333 10.834 -38.333 24.501 -51s30.834 -19 51.501 -19s37.167 5.5 49.5 16.5s18.5 25.833 18.5 44.5
c0 17.333 -6.5 31.166 -19.5 41.499s-30.167 15.5 -51.5 15.5h-41v55h40c19.333 0 35.166 4.83301 47.499 14.5s18.5 22.5 18.5 38.5s-5.66699 29 -17 39s-26 15 -44 15c-18.667 0 -34.5 -5.83301 -47.5 -17.5s-21.167 -27.167 -24.5 -46.5l-72 8
c5.33301 36 21.333 65.167 48 87.5s59.667 33.5 99 33.5c40 0 72 -10.5 96 -31.5s36 -48.5 36 -82.5c0 -20 -6.66699 -38 -20 -54s-29.666 -26 -48.999 -30c23.333 -6.66699 41.666 -18.167 54.999 -34.5s20 -36.166 20 -59.499z" />
    <glyph glyph-name="uni2084" unicode="&#x2084;" horiz-adv-x="380" 
d="M286 -22v-98h-71v98h-188v55l164 245h95v-241h69v-59h-69zM214 216l-123 -179h123v179z" />
    <glyph glyph-name="uni2085" unicode="&#x2085;" horiz-adv-x="380" 
d="M192 84c-12 0 -23.168 -2.50195 -33.501 -7.50195s-18.5 -12.167 -24.5 -21.5l-71 10l18 213h226v-64h-169l-10 -106c12 10.667 24.833 18.834 38.5 24.501s28.167 8.5 43.5 8.5c36.667 0 66.334 -12 89.001 -36s34 -55 34 -93c0 -39.333 -13.833 -72.166 -41.5 -98.499
s-62.167 -39.5 -103.5 -39.5c-40.667 0 -74.334 10.667 -101.001 32s-42.667 50.666 -48 87.999l76 13c2.66699 -20.667 10.5 -37.167 23.5 -49.5s29.5 -18.5 49.5 -18.5c20.667 0 37.834 6.83301 51.501 20.5s20.5 30.834 20.5 51.501s-6.33301 38 -19 52s-29 21 -49 21z
" />
    <glyph glyph-name="uni2086" unicode="&#x2086;" horiz-adv-x="380" 
d="M208 284c32.667 0 60.166 -7.83203 82.499 -23.499s38.5 -38.834 48.5 -69.501l-62 -24c-5.33301 18 -14 31.667 -26 41s-26.667 14 -44 14c-26.667 0 -48.167 -10.833 -64.5 -32.5s-24.5 -50.834 -24.5 -87.501v-15c0 -4 0.333008 -7.33301 1 -10
c5.33301 18.667 16.333 33.834 33 45.501s36.334 17.5 59.001 17.5c36.667 0 67.167 -12 91.5 -36s36.5 -54.333 36.5 -91c0 -40 -13.333 -73.167 -40 -99.5s-60.667 -39.5 -102 -39.5c-47.333 0 -84.833 18.167 -112.5 54.5s-41.5 84.5 -41.5 144.5
c0 62.667 15.5 113.5 46.5 152.5s70.5 58.5 118.5 58.5zM195.999 -65.999c20.667 0 38.001 7.16699 52.001 21.5s21 32.5 21 54.5s-6.83301 40.167 -20.5 54.5s-30.834 21.5 -51.501 21.5c-21.333 0 -39 -7.16699 -53 -21.5s-21 -32.5 -21 -54.5s6.83301 -40.167 20.5 -54.5
s31.167 -21.5 52.5 -21.5z" />
    <glyph glyph-name="uni2087" unicode="&#x2087;" horiz-adv-x="380" 
d="M265 215l-158.001 -0.000976562v-61h-64v124h298v-63c-41.333 -44.667 -70.833 -92.167 -88.5 -142.5s-26.5 -114.5 -26.5 -192.5h-81c0 68.667 9.83301 130.334 29.5 185.001s49.834 104.667 90.501 150z" />
    <glyph glyph-name="uni2088" unicode="&#x2088;" horiz-adv-x="380" 
d="M58 173c0 32.667 12.334 59.333 37.001 80s56 31 94 31s69.5 -10.333 94.5 -31s37.5 -47.334 37.5 -80.001c0 -18.667 -5 -35.334 -15 -50.001s-24.333 -26.334 -43 -35.001c24 -7.33301 43 -19.666 57 -36.999s21 -37.333 21 -60c0 -34.667 -14.333 -62.834 -43 -84.501
s-65 -32.5 -109 -32.5s-80.333 10.833 -109 32.5s-43 49.834 -43 84.501c0 22 7.16699 41.667 21.5 59s33.166 30 56.499 38c-18 8.66699 -32 20.334 -42 35.001s-15 31.334 -15 50.001zM125.001 170.999c0 -16.667 5.83301 -30.167 17.5 -40.5s27.167 -15.5 46.5 -15.5
s35 5.16699 47 15.5s18 23.833 18 40.5s-6 30.167 -18 40.5s-27.667 15.5 -47 15.5s-34.833 -5.16699 -46.5 -15.5s-17.5 -23.833 -17.5 -40.5zM267.001 -3.00098c0 18.667 -7.3291 34.167 -21.9961 46.5s-33.334 18.5 -56.001 18.5s-41.334 -6.16699 -56.001 -18.5
s-22 -27.833 -22 -46.5c0 -19.333 7.16699 -34.833 21.5 -46.5s33.166 -17.5 56.499 -17.5s42.166 5.83301 56.499 17.5s21.5 27.167 21.5 46.5z" />
    <glyph glyph-name="uni2089" unicode="&#x2089;" horiz-adv-x="380" 
d="M171 -126c-32.667 0 -60.167 7.83008 -82.5 23.4971s-38.5 38.834 -48.5 69.501l62 24c4.66699 -18 13 -31.667 25 -41s27 -14 45 -14c26.667 0 48.167 10.833 64.5 32.5s24.5 50.834 24.5 87.501v14.5c0 3.66699 -0.333008 6.83398 -1 9.50098
c-6 -18.667 -17.333 -33.667 -34 -45s-36 -17 -58 -17c-36.667 0 -67.167 12 -91.5 36s-36.5 54.333 -36.5 91c0 40 13.333 73.167 40 99.5s60.667 39.5 102 39.5c47.333 0 84.833 -18.167 112.5 -54.5s41.5 -84.5 41.5 -144.5c0 -62.667 -15.5 -113.5 -46.5 -152.5
s-70.5 -58.5 -118.5 -58.5zM183 223.997c-20.667 0 -38.001 -7.16699 -52.001 -21.5s-21 -32.5 -21 -54.5s6.83301 -40.333 20.5 -55s30.834 -22 51.501 -22c21.333 0 39 7.33301 53 22s21 33 21 55s-6.83301 40.167 -20.5 54.5s-31.167 21.5 -52.5 21.5z" />
    <glyph glyph-name="Euro" unicode="&#x20ac;" horiz-adv-x="628" 
d="M95 250l-78.998 0.00195312v69h70c-0.666992 4.66699 -1 9.66699 -1 15v25c0 5.33301 0.166992 11.166 0.5 17.499l1.5 28.5h-71v68h80c15.333 80.667 46.833 143.5 94.5 188.5s106.167 67.5 175.5 67.5c58.667 0 108.667 -15.333 150 -46s71.333 -74.334 90 -131.001
l-86 -34c-13.333 44.667 -32.5 77.5 -57.5 98.5s-57.167 31.5 -96.5 31.5c-44 0 -81.167 -15 -111.5 -45s-51.5 -73.333 -63.5 -130h221l-15 -68h-215l-1.5 -28.5c-0.333008 -6.33301 -0.5 -12.166 -0.5 -17.499v-25c0 -5.33301 0.333008 -10.333 1 -15h198l-15 -69h-174
c11.333 -58 32.166 -102.5 62.499 -133.5s68.166 -46.5 113.499 -46.5c39.333 0 71.5 10.5 96.5 31.5s44.167 53.833 57.5 98.5l86 -34c-18.667 -56.667 -48.667 -100.334 -90 -131.001s-91.333 -46 -150 -46c-70 0 -128.833 23 -176.5 69s-79.167 110 -94.5 192z" />
    <glyph glyph-name="trademark" unicode="&#x2122;" horiz-adv-x="721" 
d="M199 653v-251h-72v251h-100v65h271v-65h-99zM605 627l-78 -226h-44l-77 226v-225h-64v316h95l70 -215l70 215h93v-316h-65v225z" />
    <glyph glyph-name="uni2153" unicode="&#x2153;" horiz-adv-x="894" 
d="M868 112c0 -34 -13.1689 -62.168 -39.502 -84.501s-60.166 -33.5 -101.499 -33.5c-42 0 -76.667 10.833 -104 32.5s-44 51.834 -50 90.501l77 12c2.66699 -21.333 10.834 -38.333 24.501 -51s30.834 -19 51.501 -19s37.167 5.5 49.5 16.5s18.5 25.833 18.5 44.5
c0 17.333 -6.5 31.166 -19.5 41.499s-30.167 15.5 -51.5 15.5h-41v55h40c19.333 0 35.166 4.83301 47.499 14.5s18.5 22.5 18.5 38.5s-5.66699 29 -17 39s-26 15 -44 15c-18.667 0 -34.5 -5.83301 -47.5 -17.5s-21.167 -27.167 -24.5 -46.5l-72 8
c5.33301 36 21.333 65.167 48 87.5s59.667 33.5 99 33.5c40 0 72 -10.5 96 -31.5s36 -48.5 36 -82.5c0 -20 -6.66699 -38 -20 -54s-29.666 -26 -48.999 -30c23.333 -6.66699 41.666 -18.167 54.999 -34.5s20 -36.166 20 -59.499zM177.998 -0.000976562l512 718h79l-511 -718
h-80zM165.998 385.999l0.00195312 215.002h-100v52l42 2c25.333 1.33301 43.666 6.66602 54.999 15.999s18.666 25.666 21.999 48.999h57v-334h85v-66h-259v66h98z" />
    <glyph glyph-name="uni2154" unicode="&#x2154;" horiz-adv-x="904" 
d="M878 112c0 -34 -13.1689 -62.168 -39.502 -84.501s-60.166 -33.5 -101.499 -33.5c-42 0 -76.667 10.833 -104 32.5s-44 51.834 -50 90.501l77 12c2.66699 -21.333 10.834 -38.333 24.501 -51s30.834 -19 51.501 -19s37.167 5.5 49.5 16.5s18.5 25.833 18.5 44.5
c0 17.333 -6.5 31.166 -19.5 41.499s-30.167 15.5 -51.5 15.5h-41v55h40c19.333 0 35.166 4.83301 47.499 14.5s18.5 22.5 18.5 38.5s-5.66699 29 -17 39s-26 15 -44 15c-18.667 0 -34.5 -5.83301 -47.5 -17.5s-21.167 -27.167 -24.5 -46.5l-72 8
c5.33301 36 21.333 65.167 48 87.5s59.667 33.5 99 33.5c40 0 72 -10.5 96 -31.5s36 -48.5 36 -82.5c0 -20 -6.66699 -38 -20 -54s-29.666 -26 -48.999 -30c23.333 -6.66699 41.666 -18.167 54.999 -34.5s20 -36.166 20 -59.499zM187.998 -0.000976562l512 718h79l-511 -718
h-80zM45.998 319.999l0.000976562 60.998l135 107c25.333 20 43 37.833 53 53.5s15 32.5 15 50.5c0 19.333 -6 34.833 -18 46.5s-27.667 17.5 -47 17.5s-35 -6.16699 -47 -18.5s-18 -28.166 -18 -47.499c0 -8 0.833008 -15.833 2.5 -23.5s4.16699 -14.167 7.5 -19.5h-74
c-2.66699 8.66699 -4.83398 17 -6.50098 25s-2.5 15.667 -2.5 23c0 36.667 13.5 67.334 40.5 92.001s60.167 37 99.5 37c41.333 0 74.5 -11.5 99.5 -34.5s37.5 -53.833 37.5 -92.5c0 -27.333 -7.33301 -52.833 -22 -76.5s-38.667 -48.5 -72 -74.5l-78 -60h181v-66h-286z" />
    <glyph glyph-name="uni215B" unicode="&#x215b;" horiz-adv-x="899" 
d="M588 293c0 32.667 12.334 59.333 37.001 80s56 31 94 31s69.5 -10.333 94.5 -31s37.5 -47.334 37.5 -80.001c0 -18.667 -5 -35.334 -15 -50.001s-24.333 -26.334 -43 -35.001c24 -7.33301 43 -19.666 57 -36.999s21 -37.333 21 -60
c0 -34.667 -14.333 -62.834 -43 -84.501s-65 -32.5 -109 -32.5s-80.333 10.833 -109 32.5s-43 49.834 -43 84.501c0 22 7.16699 41.667 21.5 59s33.166 30 56.499 38c-18 8.66699 -32 20.334 -42 35.001s-15 31.334 -15 50.001zM655.001 290.999
c0 -16.667 5.83301 -30.167 17.5 -40.5s27.167 -15.5 46.5 -15.5s35 5.16699 47 15.5s18 23.833 18 40.5s-6 30.167 -18 40.5s-27.667 15.5 -47 15.5s-34.833 -5.16699 -46.5 -15.5s-17.5 -23.833 -17.5 -40.5zM797.001 116.999c0 18.667 -7.3291 34.167 -21.9961 46.5
s-33.334 18.5 -56.001 18.5s-41.334 -6.16699 -56.001 -18.5s-22 -27.833 -22 -46.5c0 -19.333 7.16699 -34.833 21.5 -46.5s33.166 -17.5 56.499 -17.5s42.166 5.83301 56.499 17.5s21.5 27.167 21.5 46.5zM178.005 -0.000976562l512 718h79l-511 -718h-80z
M166.005 385.999l0.00195312 215.002h-100v52l42 2c25.333 1.33301 43.666 6.66602 54.999 15.999s18.666 25.666 21.999 48.999h57v-334h85v-66h-259v66h98z" />
    <glyph glyph-name="uni215C" unicode="&#x215c;" horiz-adv-x="881" 
d="M585 293c0 32.667 12.334 59.333 37.001 80s56 31 94 31s69.5 -10.333 94.5 -31s37.5 -47.334 37.5 -80.001c0 -18.667 -5 -35.334 -15 -50.001s-24.333 -26.334 -43 -35.001c24 -7.33301 43 -19.666 57 -36.999s21 -37.333 21 -60
c0 -34.667 -14.333 -62.834 -43 -84.501s-65 -32.5 -109 -32.5s-80.333 10.833 -109 32.5s-43 49.834 -43 84.501c0 22 7.16699 41.667 21.5 59s33.166 30 56.499 38c-18 8.66699 -32 20.334 -42 35.001s-15 31.334 -15 50.001zM652.001 290.999
c0 -16.667 5.83301 -30.167 17.5 -40.5s27.167 -15.5 46.5 -15.5s35 5.16699 47 15.5s18 23.833 18 40.5s-6 30.167 -18 40.5s-27.667 15.5 -47 15.5s-34.833 -5.16699 -46.5 -15.5s-17.5 -23.833 -17.5 -40.5zM794.001 116.999c0 18.667 -7.3291 34.167 -21.9961 46.5
s-33.334 18.5 -56.001 18.5s-41.334 -6.16699 -56.001 -18.5s-22 -27.833 -22 -46.5c0 -19.333 7.16699 -34.833 21.5 -46.5s33.166 -17.5 56.499 -17.5s42.166 5.83301 56.499 17.5s21.5 27.167 21.5 46.5zM172.005 -0.000976562l512 718h79l-511 -718h-80z
M334.005 431.999c0 -34 -13.1689 -62.168 -39.502 -84.501s-60.166 -33.5 -101.499 -33.5c-42 0 -76.667 10.833 -104 32.5s-44 51.834 -50 90.501l77 12c2.66699 -21.333 10.834 -38.333 24.501 -51s30.834 -19 51.501 -19s37.167 5.5 49.5 16.5s18.5 25.833 18.5 44.5
c0 17.333 -6.5 31.166 -19.5 41.499s-30.167 15.5 -51.5 15.5h-41v55h40c19.333 0 35.166 4.83301 47.499 14.5s18.5 22.5 18.5 38.5s-5.66699 29 -17 39s-26 15 -44 15c-18.667 0 -34.5 -5.83301 -47.5 -17.5s-21.167 -27.167 -24.5 -46.5l-72 8
c5.33301 36 21.333 65.167 48 87.5s59.667 33.5 99 33.5c40 0 72 -10.5 96 -31.5s36 -48.5 36 -82.5c0 -20 -6.66699 -38 -20 -54s-29.666 -26 -48.999 -30c23.333 -6.66699 41.666 -18.167 54.999 -34.5s20 -36.166 20 -59.499z" />
    <glyph glyph-name="uni215D" unicode="&#x215d;" horiz-adv-x="881" 
d="M570 293c0 32.667 12.334 59.333 37.001 80s56 31 94 31s69.5 -10.333 94.5 -31s37.5 -47.334 37.5 -80.001c0 -18.667 -5 -35.334 -15 -50.001s-24.333 -26.334 -43 -35.001c24 -7.33301 43 -19.666 57 -36.999s21 -37.333 21 -60
c0 -34.667 -14.333 -62.834 -43 -84.501s-65 -32.5 -109 -32.5s-80.333 10.833 -109 32.5s-43 49.834 -43 84.501c0 22 7.16699 41.667 21.5 59s33.166 30 56.499 38c-18 8.66699 -32 20.334 -42 35.001s-15 31.334 -15 50.001zM637.001 290.999
c0 -16.667 5.83301 -30.167 17.5 -40.5s27.167 -15.5 46.5 -15.5s35 5.16699 47 15.5s18 23.833 18 40.5s-6 30.167 -18 40.5s-27.667 15.5 -47 15.5s-34.833 -5.16699 -46.5 -15.5s-17.5 -23.833 -17.5 -40.5zM779.001 116.999c0 18.667 -7.3291 34.167 -21.9961 46.5
s-33.334 18.5 -56.001 18.5s-41.334 -6.16699 -56.001 -18.5s-22 -27.833 -22 -46.5c0 -19.333 7.16699 -34.833 21.5 -46.5s33.166 -17.5 56.499 -17.5s42.166 5.83301 56.499 17.5s21.5 27.167 21.5 46.5zM158.005 -0.000976562l512 718h79l-511 -718h-80z
M192.005 523.999c-12 0 -23.168 -2.50195 -33.501 -7.50195s-18.5 -12.167 -24.5 -21.5l-71 10l18 213h226v-64h-169l-10 -106c12 10.667 24.833 18.834 38.5 24.501s28.167 8.5 43.5 8.5c36.667 0 66.334 -12 89.001 -36s34 -55 34 -93
c0 -39.333 -13.833 -72.166 -41.5 -98.499s-62.167 -39.5 -103.5 -39.5c-40.667 0 -74.334 10.667 -101.001 32s-42.667 50.666 -48 87.999l76 13c2.66699 -20.667 10.5 -37.167 23.5 -49.5s29.5 -18.5 49.5 -18.5c20.667 0 37.834 6.83301 51.501 20.5
s20.5 30.834 20.5 51.501s-6.33301 38 -19 52s-29 21 -49 21z" />
    <glyph glyph-name="uni215E" unicode="&#x215e;" horiz-adv-x="841" 
d="M530 293c0 32.667 12.334 59.333 37.001 80s56 31 94 31s69.5 -10.333 94.5 -31s37.5 -47.334 37.5 -80.001c0 -18.667 -5 -35.334 -15 -50.001s-24.333 -26.334 -43 -35.001c24 -7.33301 43 -19.666 57 -36.999s21 -37.333 21 -60
c0 -34.667 -14.333 -62.834 -43 -84.501s-65 -32.5 -109 -32.5s-80.333 10.833 -109 32.5s-43 49.834 -43 84.501c0 22 7.16699 41.667 21.5 59s33.166 30 56.499 38c-18 8.66699 -32 20.334 -42 35.001s-15 31.334 -15 50.001zM597.001 290.999
c0 -16.667 5.83301 -30.167 17.5 -40.5s27.167 -15.5 46.5 -15.5s35 5.16699 47 15.5s18 23.833 18 40.5s-6 30.167 -18 40.5s-27.667 15.5 -47 15.5s-34.833 -5.16699 -46.5 -15.5s-17.5 -23.833 -17.5 -40.5zM739.001 116.999c0 18.667 -7.3291 34.167 -21.9961 46.5
s-33.334 18.5 -56.001 18.5s-41.334 -6.16699 -56.001 -18.5s-22 -27.833 -22 -46.5c0 -19.333 7.16699 -34.833 21.5 -46.5s33.166 -17.5 56.499 -17.5s42.166 5.83301 56.499 17.5s21.5 27.167 21.5 46.5zM118.005 -0.000976562l512 718h79l-511 -718h-80z
M265.005 654.999l-158.001 -0.000976562v-61h-64v124h298v-63c-41.333 -44.667 -70.833 -92.167 -88.5 -142.5s-26.5 -114.5 -26.5 -192.5h-81c0 68.667 9.83301 130.334 29.5 185.001s49.834 104.667 90.501 150z" />
    <glyph glyph-name="minus" unicode="&#x2212;" horiz-adv-x="608" 
d="M558 302h-508v80h508v-80z" />
    <glyph glyph-name="uniF6C3" unicode="&#xf6c3;" horiz-adv-x="600" 
d="M294 -115h-38.999v72h97v-61c0 -28 -9.83301 -50.5 -29.5 -67.5s-45.834 -25.5 -78.501 -25.5v41c16.667 0.666992 29 4.16699 37 10.5s12.333 16.5 13 30.5z" />
    <glyph glyph-name="acute.cap" horiz-adv-x="600" 
d="M239 765h-72l101 145h126z" />
    <glyph glyph-name="breve.cap" horiz-adv-x="600" 
d="M300 825c25.333 0 46 7.83301 62 23.5s24 36.167 24 61.5h68c0 -44.667 -14 -80.334 -42 -107.001s-65.333 -40 -112 -40s-84 13.333 -112 40s-42 62.334 -42 107.001h68c0 -25.333 8 -45.833 24 -61.5s36.667 -23.5 62 -23.5z" />
    <glyph glyph-name="circumflex.cap" horiz-adv-x="600" 
d="M246 910h108l117 -145h-73l-98 87l-98 -87h-73z" />
    <glyph glyph-name="dieresis.cap" horiz-adv-x="600" 
d="M261 769h-100v104h100v-104zM439 769h-100v104h100v-104z" />
    <glyph glyph-name="grave.cap" horiz-adv-x="600" 
d="M312 910l101 -145h-72l-155 145h126z" />
    <glyph glyph-name="macron.cap" horiz-adv-x="600" 
d="M456 855v-75h-312v75h312z" />
    <glyph glyph-name="tilde.cap" horiz-adv-x="600" 
d="M229 905c12 0 23.8311 -2.33398 35.498 -7.00098s27.167 -14.667 46.5 -30c14.667 -11.333 25.834 -18.666 33.501 -21.999s14.834 -5 21.501 -5c14 0 25 5.33301 33 16s13.667 27 17 49h63c-3.33301 -43.333 -14.5 -77.5 -33.5 -102.5s-43.833 -37.5 -74.5 -37.5
c-12 0 -24 2.5 -36 7.5s-27.667 14.833 -47 29.5c-14.667 12 -25.667 19.667 -33 23s-14.333 5 -21 5c-14 0 -25 -5.33301 -33 -16s-13.667 -27 -17 -49h-63c2.66699 43.333 13.5 77.333 32.5 102s44.167 37 75.5 37z" />
    <glyph glyph-name="caron.cap" horiz-adv-x="600" 
d="M471 911l-117 -145h-108l-117 145h73l98 -87l98 87h73z" />
    <glyph glyph-name="dotaccent.cap" horiz-adv-x="600" 
d="M350 769h-100v104h100v-104z" />
    <glyph glyph-name="caron.Slovak" horiz-adv-x="600" 
d="M297 542h-61l23 176h103z" />
    <glyph glyph-name="hungarumlaut.cap" horiz-adv-x="600" 
d="M370 765h-71l91 145h109zM186 765h-72l92 145h109z" />
    <glyph glyph-name="ring.cap" horiz-adv-x="600" 
d="M300 758c-32.667 0 -60.332 11.167 -82.999 33.5s-34 49.166 -34 80.499s11.333 58 34 80s50.334 33 83.001 33c33.333 0 61.166 -10.833 83.499 -32.5s33.5 -48.5 33.5 -80.5c0 -31.333 -11.333 -58.166 -34 -80.499s-50.334 -33.5 -83.001 -33.5zM300.002 929
c-16 0 -29.333 -5.5 -40 -16.5s-16 -24.5 -16 -40.5c0 -16.667 5.33301 -30.334 16 -41.001s24 -16 40 -16s29.333 5.33301 40 16s16 24.334 16 41.001c0 16 -5.33301 29.5 -16 40.5s-24 16.5 -40 16.5z" />
    <glyph glyph-name="a.1" horiz-adv-x="522" 
d="M452 384v-270.002c0 -19.333 0.666992 -39 2 -59s3.33301 -38.333 6 -55h-89c-0.666992 6 -1.33398 12.833 -2.00098 20.5s-1.33398 18.834 -2.00098 33.501c-16.667 -19.333 -39 -34.666 -67 -45.999s-58.333 -17 -91 -17c-50 0 -91.333 14 -124 42s-49 64.333 -49 109
c0 45.333 15.833 81.833 47.5 109.5s82.167 48.167 151.5 61.5l130 26v32c0 27.333 -9 48 -27 62s-44.333 21 -79 21c-34 0 -60.667 -7.16699 -80 -21.5s-30.666 -35.5 -33.999 -63.5h-88c4 52 24.333 92.333 61 121s85.334 43 146.001 43c59.333 0 105.5 -13 138.5 -39
s49.5 -62.667 49.5 -110zM221 63.998c40 0 74 11 102 33s42 49 42 81v91l-106 -22c-50 -10 -84.667 -22.667 -104 -38s-29 -36.333 -29 -63c0 -25.333 8.66699 -45.333 26 -60s40.333 -22 69 -22z" />
    <glyph glyph-name="g.1" horiz-adv-x="550" 
d="M113 227c-18.667 16.667 -33 35.999 -43 57.999s-15 45.667 -15 71c0 52 18.833 94.5 56.5 127.5s86.5 49.5 146.5 49.5c33.333 0 64.166 -5.66699 92.499 -17s51.5 -27.333 69.5 -48c10 24.667 27.5 42.667 52.5 54s51.833 14.333 80.5 9v-91c-22 10 -42.333 11 -61 3
s-30.334 -24 -35.001 -48c1.33301 -5.33301 2.33301 -11.166 3 -17.499s1 -13.5 1 -21.5c0 -52 -19 -94.5 -57 -127.5s-86.667 -49.5 -146 -49.5c-16 0 -31.167 1.33301 -45.5 4s-28.166 6.33398 -41.499 11.001c-12 -2 -22 -7.16699 -30 -15.5s-12 -17.5 -12 -27.5
c0 -12 4.5 -21.667 13.5 -29s20.833 -11 35.5 -11h191c52.667 0 92.667 -10.833 120 -32.5s41 -52.834 41 -93.501c0 -54.667 -24.667 -97.667 -74 -129s-116.333 -47 -201 -47c-75.333 0 -134.5 12.333 -177.5 37s-64.5 59.334 -64.5 104.001c0 24 6.5 45.333 19.5 64
s31.5 33 55.5 43c-13.333 9.33301 -23.5 20.666 -30.5 33.999s-10.5 28 -10.5 44c0 20 5.83301 38.167 17.5 54.5s27.834 28.833 48.501 37.5zM258 250.999c34.667 0 62.5 9.5 83.5 28.5s31.5 44.5 31.5 76.5s-10.667 57.667 -32 77s-49 29 -83 29
c-34.667 0 -62.334 -9.66699 -83.001 -29s-31 -45 -31 -77s10.333 -57.5 31 -76.5s48.334 -28.5 83.001 -28.5zM100 -33.001c0 -28 13.332 -49 39.999 -63s66.334 -21 119.001 -21c58 0 103.5 8.16699 136.5 24.5s49.5 38.833 49.5 67.5c0 20.667 -6.83301 35.667 -20.5 45
s-35.5 14 -65.5 14h-174c-26 0 -46.667 -6 -62 -18s-23 -28.333 -23 -49z" />
    <glyph glyph-name="aacute.1" horiz-adv-x="522" 
d="M298 579h-71l59 139h113zM452 384v-270.002c0 -19.333 0.666992 -39 2 -59s3.33301 -38.333 6 -55h-89c-0.666992 6 -1.33398 12.833 -2.00098 20.5s-1.33398 18.834 -2.00098 33.501c-16.667 -19.333 -39 -34.666 -67 -45.999s-58.333 -17 -91 -17
c-50 0 -91.333 14 -124 42s-49 64.333 -49 109c0 45.333 15.833 81.833 47.5 109.5s82.167 48.167 151.5 61.5l130 26v32c0 27.333 -9 48 -27 62s-44.333 21 -79 21c-34 0 -60.667 -7.16699 -80 -21.5s-30.666 -35.5 -33.999 -63.5h-88c4 52 24.333 92.333 61 121
s85.334 43 146.001 43c59.333 0 105.5 -13 138.5 -39s49.5 -62.667 49.5 -110zM221 63.998c40 0 74 11 102 33s42 49 42 81v91l-106 -22c-50 -10 -84.667 -22.667 -104 -38s-29 -36.333 -29 -63c0 -25.333 8.66699 -45.333 26 -60s40.333 -22 69 -22z" />
    <glyph glyph-name="abreve.1" horiz-adv-x="522" 
d="M260 639c21.333 0 38.5 7 51.5 21s19.5 33.333 19.5 58h63c0 -44.667 -12 -79.834 -36 -105.501s-56.667 -38.5 -98 -38.5s-74 12.833 -98 38.5s-36 60.834 -36 105.501h63c0 -24.667 6.5 -44 19.5 -58s30.167 -21 51.5 -21zM452 384v-270.002
c0 -19.333 0.666992 -39 2 -59s3.33301 -38.333 6 -55h-89c-0.666992 6 -1.33398 12.833 -2.00098 20.5s-1.33398 18.834 -2.00098 33.501c-16.667 -19.333 -39 -34.666 -67 -45.999s-58.333 -17 -91 -17c-50 0 -91.333 14 -124 42s-49 64.333 -49 109
c0 45.333 15.833 81.833 47.5 109.5s82.167 48.167 151.5 61.5l130 26v32c0 27.333 -9 48 -27 62s-44.333 21 -79 21c-34 0 -60.667 -7.16699 -80 -21.5s-30.666 -35.5 -33.999 -63.5h-88c4 52 24.333 92.333 61 121s85.334 43 146.001 43c59.333 0 105.5 -13 138.5 -39
s49.5 -62.667 49.5 -110zM221 63.998c40 0 74 11 102 33s42 49 42 81v91l-106 -22c-50 -10 -84.667 -22.667 -104 -38s-29 -36.333 -29 -63c0 -25.333 8.66699 -45.333 26 -60s40.333 -22 69 -22z" />
    </font>
</defs>
</svg>
