<?xml version="1.0" standalone="no"?>
<!DOCTYPE svg PUBLIC "-//W3C//DTD SVG 1.1//EN" "http://www.w3.org/Graphics/SVG/1.1/DTD/svg11.dtd" >
<svg>
<metadata>
Created by FontForge 20090914 at Fri Jun 29 08:18:34 2018
 By www-data
&#194;&#169; 2016 Klim Type Foundry. All Rights Reserved.
</metadata>
<defs>
<font id="Sohne-Leicht" horiz-adv-x="380" >
  <font-face 
    font-family="Söhne Leicht"
    font-weight="300"
    font-stretch="normal"
    units-per-em="1000"
    panose-1="2 11 3 3 3 2 2 6 2 3"
    ascent="800"
    descent="-200"
    x-height="522"
    cap-height="718"
    bbox="-197 -194.006 999 965.999"
    underline-thickness="55"
    underline-position="-105"
    unicode-range="U+000D-U+F6C3"
  />
<missing-glyph horiz-adv-x="608" 
 />
    <glyph glyph-name="f_idieresis" unicode="f&#xef;" horiz-adv-x="539" 
d="M272 728c12.667 0 26.3311 -0.999023 40.998 -2.99902s27.334 -4.66699 38.001 -8v-60c-11.333 4 -24.166 7 -38.499 9s-28.5 3 -42.5 3c-33.333 0 -58.333 -9.16699 -75 -27.5s-25 -45.833 -25 -82.5v-37h124v-57h-124v-465h-67v465h-82v57h82v41
c0 51.333 14.833 91.666 44.5 120.999s71.167 44 124.5 44zM541.997 622.001h-77v90h77v-90zM388.997 522.001h66v-522h-66v522z" />
    <glyph glyph-name=".notdef" horiz-adv-x="608" 
 />
    <glyph glyph-name=".null" horiz-adv-x="0" 
 />
    <glyph glyph-name=".null" horiz-adv-x="0" 
 />
    <glyph glyph-name="uni000D" unicode="&#xd;" horiz-adv-x="216" 
 />
    <glyph glyph-name="space" unicode=" " horiz-adv-x="216" 
 />
    <glyph glyph-name="exclam" unicode="!" horiz-adv-x="220" 
d="M136 209h-50l-16 509h82zM155 0h-89v96h89v-96z" />
    <glyph glyph-name="quotedbl" unicode="&#x22;" horiz-adv-x="310" 
d="M109 456h-47l-16 262h79zM249 456h-47l-16 262h79z" />
    <glyph glyph-name="numbersign" unicode="#" horiz-adv-x="646" 
d="M148 0h-61l52 219h-101v55h114l41 170h-115v55h128l52 219h62l-52 -219h178l52 219h61l-52 -219h101v-55h-114l-40 -170h114v-55h-127l-52 -219h-63l52 219h-178zM254 444l-40 -170h178l40 170h-178z" />
    <glyph glyph-name="dollar" unicode="$" horiz-adv-x="565" 
d="M11 156l54.002 43.9971c18.667 -42 45.167 -75.333 79.5 -100s74.166 -39 119.499 -43v287c-41.333 9.33301 -72.666 17.833 -93.999 25.5s-39.333 16.167 -54 25.5c-24.667 14.667 -42.834 32.834 -54.501 54.501s-17.5 47.167 -17.5 76.5c0 54.667 20.667 100 62 136
s94 56 158 60v95h56v-97c50.667 -5.33301 94.5 -20.333 131.5 -45s64.5 -57 82.5 -97l-53 -39c-16 34.667 -37.667 62.334 -65 83.001s-59.333 33.667 -96 39v-265c39.333 -8.66699 70.5 -17.167 93.5 -25.5s42.5 -17.833 58.5 -28.5c23.333 -16 40.666 -35.5 51.999 -58.5
s17 -49.833 17 -80.5c0 -56 -20.333 -102.833 -61 -140.5s-94 -59.5 -160 -65.5v-97h-56v97c-58 4 -109.833 20.333 -155.5 49s-78.167 65.334 -97.5 110.001zM109.002 528.997c0 -30 11 -54.168 33 -72.501s62.667 -34.166 122 -47.499v254
c-45.333 -2.66699 -82.5 -16.5 -111.5 -41.5s-43.5 -55.833 -43.5 -92.5zM476.002 199.996c0 32.667 -11.332 58.999 -33.999 78.999s-63.334 37.333 -122.001 52v-274c48 4.66699 86 19.834 114 45.501s42 58.167 42 97.5z" />
    <glyph glyph-name="percent" unicode="%" horiz-adv-x="770" 
d="M185 378c-40.667 0 -73 15.833 -97 47.5s-36 74.167 -36 127.5s12 95.833 36 127.5s56.333 47.5 97 47.5s73 -15.833 97 -47.5s36 -74.167 36 -127.5s-12 -95.833 -36 -127.5s-56.333 -47.5 -97 -47.5zM592 718h65l-479 -718h-65zM185 680
c-23.333 0 -42 -11.501 -56 -34.501s-21 -53.833 -21 -92.5c0 -38 7 -68.5 21 -91.5s32.667 -34.5 56 -34.5s41.833 11.333 55.5 34s20.5 53.334 20.5 92.001s-6.83301 69.5 -20.5 92.5s-32.167 34.5 -55.5 34.5zM585 339.999c40.667 0 73 -15.833 97 -47.5
s36 -74.167 36 -127.5s-12 -95.833 -36 -127.5s-56.333 -47.5 -97 -47.5s-73 15.833 -97 47.5s-36 74.167 -36 127.5s12 95.833 36 127.5s56.333 47.5 97 47.5zM585 290.999c-23.333 0 -42 -11.501 -56 -34.501s-21 -53.5 -21 -91.5c0 -38.667 7 -69.5 21 -92.5
s32.667 -34.5 56 -34.5s41.833 11.5 55.5 34.5s20.5 53.833 20.5 92.5s-6.83301 69.334 -20.5 92.001s-32.167 34 -55.5 34z" />
    <glyph glyph-name="ampersand" unicode="&#x26;" horiz-adv-x="696" 
d="M566 366l63.999 -10c-3.33301 -42 -11.833 -82.167 -25.5 -120.5s-31.834 -73.166 -54.501 -104.499l132 -131h-88l-85 84c-31.333 -30.667 -66.666 -54 -105.999 -70s-81.666 -24 -126.999 -24c-30.667 0 -59.5 4.16699 -86.5 12.5s-50.833 20.5 -71.5 36.5
c-23.333 18 -41.166 39.333 -53.499 64s-18.5 51.667 -18.5 81c0 43.333 12.167 81 36.5 113s64.5 62.333 120.5 91c-28.667 31.333 -49.334 60.166 -62.001 86.499s-19 53.166 -19 80.499c0 24.667 4.66699 47.834 14 69.501s22.666 40.5 39.999 56.5
c16 15.333 35.167 27 57.5 35s46.5 12 72.5 12c52.667 0 94.834 -14.833 126.501 -44.5s47.5 -68.834 47.5 -117.501c0 -38 -12.667 -70.833 -38 -98.5s-72.333 -57.5 -141 -89.5l206 -204c16.667 26.667 30 56.334 40 89.001s16.333 67 19 103zM307.999 675
c-34.667 0 -63 -10.666 -85 -31.999s-33 -49.666 -33 -84.999c0 -22.667 5.5 -44.834 16.5 -66.501s30.167 -46.834 57.5 -75.501l2 1c60 26.667 100.167 50.667 120.5 72s30.5 47.333 30.5 78c0 30 -10.167 55.5 -30.5 76.5s-46.5 31.5 -78.5 31.5zM115.999 189.001
c0 -40 15.8311 -73.333 47.498 -100s70.5 -40 116.5 -40c36.667 0 70.834 6.33301 102.501 19s60.167 31.667 85.5 57l-226 224c-45.333 -24.667 -77.666 -49.5 -96.999 -74.5s-29 -53.5 -29 -85.5z" />
    <glyph glyph-name="quotesingle" unicode="'" horiz-adv-x="170" 
d="M109 456h-47l-16 262h79z" />
    <glyph glyph-name="parenleft" unicode="(" horiz-adv-x="308" 
d="M133 320c0 -77.333 14.168 -152.167 42.501 -224.5s68.166 -136.833 119.499 -193.5h-69c-54.667 58.667 -96.334 123.667 -125.001 195s-43 145.666 -43 222.999c0 78 14.5 152.667 43.5 224s70.5 136 124.5 194h69c-51.333 -57.333 -91.166 -122.166 -119.499 -194.499
s-42.5 -146.833 -42.5 -223.5z" />
    <glyph glyph-name="parenright" unicode=")" horiz-adv-x="308" 
d="M175 320c0 76.667 -14.166 151.168 -42.499 223.501s-68.166 137.166 -119.499 194.499h69c54 -58 95.5 -122.667 124.5 -194s43.5 -146 43.5 -224c0 -77.333 -14.333 -151.666 -43 -222.999s-70.334 -136.333 -125.001 -195h-69
c51.333 56.667 91.166 121.167 119.499 193.5s42.5 147.166 42.5 224.499z" />
    <glyph glyph-name="asterisk" unicode="*" horiz-adv-x="422" 
d="M343 412l-43 -31l-90 124l-89 -124l-43 31l91 123l-146 48l16 49l146 -48v154h51v-154l147 48l16 -49l-147 -48z" />
    <glyph glyph-name="plus" unicode="+" horiz-adv-x="608" 
d="M556 372v-60h-222v-221h-60v221h-222v60h222v222h60v-222h222z" />
    <glyph glyph-name="comma" unicode="," horiz-adv-x="221" 
d="M106 0l-40 0.000976562v96h89v-101c0 -36.667 -10.5 -65.667 -31.5 -87s-50.167 -32.333 -87.5 -33v39c23.333 1.33301 40.833 8.66602 52.5 21.999s17.5 32 17.5 56v8z" />
    <glyph glyph-name="hyphen" unicode="-" horiz-adv-x="387" 
d="M328 262h-269v60h269v-60z" />
    <glyph glyph-name="period" unicode="." horiz-adv-x="221" 
d="M155 0h-89v96h89v-96z" />
    <glyph glyph-name="slash" unicode="/" horiz-adv-x="378" 
d="M78 -98h-68l290 836h68z" />
    <glyph glyph-name="zero" unicode="0" horiz-adv-x="617" 
d="M100 114c-19.333 32 -33.833 68.6689 -43.5 110.002s-14.5 86.333 -14.5 135s4.83301 93.667 14.5 135s24.167 78 43.5 110c23.333 40.667 52.833 71.5 88.5 92.5s75.5 31.5 119.5 31.5s83.833 -10.5 119.5 -31.5s65.5 -51.5 89.5 -91.5c18.667 -32 33 -68.833 43 -110.5
s15 -86.834 15 -135.501s-5 -93.834 -15 -135.501s-24.333 -78.5 -43 -110.5c-24 -40 -53.833 -70.5 -89.5 -91.5s-75.5 -31.5 -119.5 -31.5s-83.833 10.5 -119.5 31.5s-65.167 51.833 -88.5 92.5zM308 667.002c-60.667 0 -108.667 -27.833 -144 -83.5
s-53 -130.5 -53 -224.5s17.667 -168.833 53 -224.5s83.333 -83.5 144 -83.5s108.834 27.833 144.501 83.5s53.5 130.5 53.5 224.5s-17.833 168.833 -53.5 224.5s-83.834 83.5 -144.501 83.5z" />
    <glyph glyph-name="one" unicode="1" horiz-adv-x="361" 
d="M216 722h51.999v-722h-70v552h-173v53l84 4c39.333 2 66.333 10.667 81 26s23.334 44.333 26.001 87z" />
    <glyph glyph-name="two" unicode="2" horiz-adv-x="551" 
d="M32 0l0.000976562 59l237 198c28 23.333 50.5 43.333 67.5 60s31.167 32.334 42.5 47.001c18.667 23.333 32.334 46.5 41.001 69.5s13 46.833 13 71.5c0 48.667 -14.833 88 -44.5 118s-68.834 45 -117.501 45c-46.667 0 -85.334 -15.333 -116.001 -46s-46 -69 -46 -115
c0 -14 1.5 -28.167 4.5 -42.5s7.5 -28.833 13.5 -43.5h-66c-6 14.667 -10.5 29.167 -13.5 43.5s-4.5 29.5 -4.5 45.5c0 30.667 5.83301 59.5 17.5 86.5s28.5 50.5 50.5 70.5c21.333 20 45.833 35.167 73.5 45.5s56.834 15.5 87.501 15.5c69.333 0 125 -20.167 167 -60.5
s63 -93.833 63 -160.5c0 -48 -13.333 -93.833 -40 -137.5s-73.334 -92.834 -140.001 -147.501l-195 -161h393v-61h-488z" />
    <glyph glyph-name="three" unicode="3" horiz-adv-x="566" 
d="M457 44c-22 -17.333 -47.166 -30.665 -75.499 -39.998s-58.833 -14 -91.5 -14c-70.667 0 -129.667 19.167 -177 57.5s-76.333 91.166 -87 158.499l68 17c8 -53.333 29.5 -95.666 64.5 -126.999s78.5 -47 130.5 -47s93.667 14 125 42s47 65 47 111
c0 44 -16.167 79 -48.5 105s-74.5 39 -126.5 39h-81v59h82c46 0 83 11.667 111 35s42 54.666 42 93.999c0 41.333 -13.5 74 -40.5 98s-63.5 36 -109.5 36c-46.667 0 -85.834 -14.167 -117.501 -42.5s-52.167 -67.5 -61.5 -117.5l-63 16c10.667 61.333 38 110.666 82 147.999
s98 56 162 56c65.333 0 117.5 -17.5 156.5 -52.5s58.5 -81.5 58.5 -139.5c0 -36.667 -11.167 -69.667 -33.5 -99s-50.833 -49.333 -85.5 -60c43.333 -10.667 77.833 -31.667 103.5 -63s38.5 -69.666 38.5 -114.999c0 -30.667 -6.33301 -59.334 -19 -86.001
s-30.667 -49.667 -54 -69z" />
    <glyph glyph-name="four" unicode="4" horiz-adv-x="596" 
d="M439 197v-197h-66v197h-353v54l329 467h90v-463h144v-58h-144zM373 651l-280 -396h280v396z" />
    <glyph glyph-name="five" unicode="5" horiz-adv-x="567" 
d="M292 410c-30 0 -57.5 -5.8291 -82.5 -17.4961s-45.5 -27.834 -61.5 -48.501l-65 13l31 361h381v-61h-327l-22 -251c18.667 20 41.167 35.5 67.5 46.5s54.5 16.5 84.5 16.5c33.333 0 64.333 -5.83301 93 -17.5s53.334 -28.5 74.001 -50.5s36.5 -47.5 47.5 -76.5
s16.5 -60.167 16.5 -93.5c0 -32.667 -6.16699 -63.834 -18.5 -93.501s-29.833 -55.834 -52.5 -78.501c-22.667 -22 -48.834 -39 -78.501 -51s-61.167 -18 -94.5 -18c-66.667 0 -122.334 18.333 -167.001 55s-73 87.667 -85 153l67 17
c8.66699 -51.333 29.5 -91.833 62.5 -121.5s73.833 -44.5 122.5 -44.5c50.667 0 93 17.167 127 51.5s51 77.166 51 128.499c0 52 -16.167 95.167 -48.5 129.5s-73.166 51.5 -122.499 51.5z" />
    <glyph glyph-name="six" unicode="6" horiz-adv-x="583" 
d="M322 728c56.667 0 103.674 -14.166 141.007 -42.499s63.666 -69.833 78.999 -124.5l-60 -23c-10.667 42.667 -29.834 75.167 -57.501 97.5s-62.5 33.5 -104.5 33.5c-34 0 -65.333 -9 -94 -27s-52.667 -43.667 -72 -77c-15.333 -26 -27 -55.833 -35 -89.5
s-12 -70.167 -12 -109.5v-16.5c0 -3.66699 0.333008 -7.16699 1 -10.5c16.667 40.667 43.667 73.5 81 98.5s78.666 37.5 123.999 37.5c32 0 62.5 -6.16699 91.5 -18.5s54.167 -29.833 75.5 -52.5c21.333 -22 37.666 -47.667 48.999 -77s17 -60.333 17 -93
c0 -33.333 -6 -65 -18 -95s-29.333 -56.333 -52 -79s-48.834 -40 -78.501 -52s-61.167 -18 -94.5 -18c-82.667 0 -146.834 32.333 -192.501 97s-68.5 153.667 -68.5 267c0 49.333 5.5 95.166 16.5 137.499s26.833 79.833 47.5 112.5c25.333 40 56.666 70.667 93.999 92
s78 32 122 32zM303.007 49.001c50.667 0 93 17.499 127 52.499s51 78.5 51 130.5s-16.833 95.5 -50.5 130.5s-75.5 52.5 -125.5 52.5c-24.667 0 -48 -4.66699 -70 -14s-41.333 -22.333 -58 -39c-16.667 -17.333 -29.5 -37.166 -38.5 -59.499s-13.5 -45.833 -13.5 -70.5
c0 -52 17 -95.5 51 -130.5s76.333 -52.5 127 -52.5z" />
    <glyph glyph-name="seven" unicode="7" horiz-adv-x="523" 
d="M437 657l-365 -0.000976562v-130h-62v191h503v-60c-84 -94.667 -144 -192.167 -180 -292.5s-54 -222.166 -54 -365.499h-71c0 136.667 18.5 258.167 55.5 364.5s94.833 203.833 173.5 292.5z" />
    <glyph glyph-name="eight" unicode="8" horiz-adv-x="596" 
d="M74 543c0 54 21.001 98.333 63.001 133s95.667 52 161 52s119 -17.333 161 -52s63 -79 63 -133c0 -37.333 -10.333 -69.833 -31 -97.5s-50.334 -48.5 -89.001 -62.5c48 -14 86.167 -37.5 114.5 -70.5s42.5 -71.167 42.5 -114.5c0 -61.333 -24.167 -111.333 -72.5 -150
s-111.166 -58 -188.499 -58s-140.333 19.167 -189 57.5s-73 88.5 -73 150.5c0 44 14.167 82.333 42.5 115s66.833 56 115.5 70c-38.667 14 -68.334 34.833 -89.001 62.5s-31 60.167 -31 97.5zM138.001 542c0 -39.333 14.666 -70.833 43.999 -94.5s68 -35.5 116 -35.5
s86.5 11.833 115.5 35.5s43.5 55.167 43.5 94.5c0 38.667 -14.667 70 -44 94s-67.666 36 -114.999 36c-48 0 -86.667 -12 -116 -36s-44 -55.333 -44 -94zM491 201c0 44.667 -18 81.167 -54 109.5s-82.333 42.5 -139 42.5c-57.333 0 -103.833 -14.167 -139.5 -42.5
s-53.5 -64.833 -53.5 -109.5c0 -45.333 17.833 -82.333 53.5 -111s82.167 -43 139.5 -43c56.667 0 103 14.333 139 43s54 65.667 54 111z" />
    <glyph glyph-name="nine" unicode="9" horiz-adv-x="583" 
d="M261 -10c-56.667 0 -103.674 14.166 -141.007 42.499s-63.666 69.833 -78.999 124.5l60 23c10.667 -42.667 29.834 -75.167 57.501 -97.5s62.5 -33.5 104.5 -33.5c34 0 65.333 9 94 27s52.667 43.667 72 77c15.333 26 27 55.833 35 89.5s12 70.167 12 109.5v16.5
c0 3.66699 -0.333008 7.16699 -1 10.5c-16.667 -40.667 -43.667 -73.5 -81 -98.5s-78.666 -37.5 -123.999 -37.5c-32 0 -62.5 6.16699 -91.5 18.5s-54.167 29.833 -75.5 52.5c-21.333 22 -37.666 47.667 -48.999 77s-17 60.333 -17 93c0 33.333 6 65 18 95
s29.333 56.333 52 79s48.834 40 78.501 52s61.167 18 94.5 18c82.667 0 146.834 -32.333 192.501 -97s68.5 -153.667 68.5 -267c0 -49.333 -5.5 -95.166 -16.5 -137.499s-26.833 -79.833 -47.5 -112.5c-25.333 -40 -56.666 -70.667 -93.999 -92s-78 -32 -122 -32z
M279.993 668.999c-50.667 0 -93 -17.499 -127 -52.499s-51 -78.5 -51 -130.5s16.833 -95.5 50.5 -130.5s75.5 -52.5 125.5 -52.5c24.667 0 48 4.66699 70 14s41.333 22.333 58 39c16.667 17.333 29.5 37.166 38.5 59.499s13.5 45.833 13.5 70.5c0 52 -17 95.5 -51 130.5
s-76.333 52.5 -127 52.5z" />
    <glyph glyph-name="colon" unicode=":" horiz-adv-x="221" 
d="M155 0h-89v96h89v-96zM155 375h-89v96h89v-96z" />
    <glyph glyph-name="semicolon" unicode=";" horiz-adv-x="221" 
d="M106 0l-40 0.000976562v96h89v-101c0 -36.667 -10.5 -65.667 -31.5 -87s-50.167 -32.333 -87.5 -33v39c23.333 1.33301 40.833 8.66602 52.5 21.999s17.5 32 17.5 56v8zM155 375.001h-89v96h89v-96z" />
    <glyph glyph-name="less" unicode="&#x3c;" horiz-adv-x="608" 
d="M534 91l-460 217v69l460 216v-67l-398 -184l398 -184v-67z" />
    <glyph glyph-name="equal" unicode="=" horiz-adv-x="608" 
d="M543 411h-478v60h478v-60zM543 214h-478v60h478v-60z" />
    <glyph glyph-name="greater" unicode="&#x3e;" horiz-adv-x="608" 
d="M534 377v-69l-460 -217v67l398 184l-398 184v67z" />
    <glyph glyph-name="question" unicode="?" horiz-adv-x="512" 
d="M419 519c0 44.667 -14.665 80.667 -43.998 108s-67.666 41 -114.999 41c-48.667 0 -89 -14.5 -121 -43.5s-52 -69.5 -60 -121.5l-66 13c9.33301 64 36.666 115.333 81.999 154s101.333 58 168 58c31.333 0 60.5 -4.66699 87.5 -14s50.833 -23 71.5 -41
c21.333 -18.667 37.833 -41 49.5 -67s17.5 -54 17.5 -84c0 -27.333 -5.16699 -53.333 -15.5 -78s-25.5 -46.667 -45.5 -66c-18.667 -18 -40.334 -32.667 -65.001 -44s-50.667 -18.333 -78 -21v-104h-64v153c59.333 0 107.166 14.333 143.499 43s54.5 66.667 54.5 114z
M298.002 0h-89v96h89v-96z" />
    <glyph glyph-name="at" unicode="@" horiz-adv-x="886" 
d="M647 89c20 0 39.3262 7.00293 57.9932 21.0029s34.334 33.667 47.001 59c8.66699 18 15.334 38.5 20.001 61.5s7 47.5 7 73.5c0 42.667 -7.66699 81.834 -23 117.501s-37.666 66.5 -66.999 92.5c-28 24 -60.667 42.333 -98 55s-77.666 19 -120.999 19
c-49.333 0 -96.166 -9.33301 -140.499 -28s-83.166 -45 -116.499 -79s-58.833 -73.333 -76.5 -118s-26.5 -92 -26.5 -142c0 -49.333 8.5 -94.5 25.5 -135.5s41.5 -76.5 73.5 -106.5c31.333 -28.667 68.333 -50.5 111 -65.5s88.667 -22.5 138 -22.5
c45.333 0 86.833 5.33301 124.5 16s72.834 27.334 105.501 50.001l27 -46c-34 -24.667 -72.667 -43.167 -116 -55.5s-90.333 -18.5 -141 -18.5c-56.667 0 -110 8.66699 -160 26s-93.333 42.666 -130 75.999c-38.667 34.667 -68.167 76 -88.5 124s-30.5 100.667 -30.5 158
s10.667 111.666 32 162.999s51.666 96.666 90.999 135.999s84.833 69.5 136.5 90.5s106.167 31.5 163.5 31.5c50 0 97 -7.5 141 -22.5s82.667 -36.833 116 -65.5c35.333 -30.667 62.166 -67 80.499 -109s27.5 -87.667 27.5 -137c0 -34.667 -3.83301 -67 -11.5 -97
s-19.167 -57 -34.5 -81c-18 -29.333 -40.333 -52 -67 -68s-54.667 -24 -84 -24s-52.666 6.33301 -69.999 19s-28.333 31.667 -33 57c-12.667 -24.667 -31.5 -44.167 -56.5 -58.5s-52.5 -21.5 -82.5 -21.5c-45.333 0 -81.833 15.167 -109.5 45.5s-41.5 71.166 -41.5 122.499
c0 32 4.5 62.5 13.5 91.5s21.833 55.167 38.5 78.5c18.667 26.667 41 47.167 67 61.5s53.667 21.5 83 21.5c30 0 55.833 -7.5 77.5 -22.5s36.167 -34.5 43.5 -58.5l14 74h59l-49 -275c-5.33301 -28.667 -3.66602 -49.834 5.00098 -63.501s24.667 -20.5 48 -20.5z
M409.993 88.0029c32 0 59.332 11.668 81.999 35.001s38 55.666 46 96.999c4.66699 26 7.83398 45 9.50098 57s2.5 21.333 2.5 28c0 28 -8.5 51.167 -25.5 69.5s-39.167 27.5 -66.5 27.5c-41.333 0 -75.833 -19 -103.5 -57s-41.5 -85 -41.5 -141
c0 -36 8.66699 -64.333 26 -85s41 -31 71 -31z" />
    <glyph glyph-name="A" unicode="A" horiz-adv-x="678" 
d="M22 0l279 718h76l280 -718h-72l-81 209h-331l-81 -209h-70zM480 270l-142 368l-142 -368h284z" />
    <glyph glyph-name="B" unicode="B" horiz-adv-x="640" 
d="M361 0l-273 -0.000976562v718h249c74.667 0 131.667 -15.833 171 -47.5s59 -77.5 59 -137.5c0 -39.333 -10.333 -72.666 -31 -99.999s-49.667 -46.666 -87 -57.999c44.667 -10.667 79.667 -31.834 105 -63.501s38 -70.167 38 -115.5c0 -61.333 -20.5 -109.333 -61.5 -144
s-97.5 -52 -169.5 -52zM156 657.999v-257.001h177c54.667 0 96 10.833 124 32.5s42 53.5 42 95.5c0 42.667 -14 74.834 -42 96.501s-69.333 32.5 -124 32.5h-177zM359 339.998h-203v-280h203c52 0 92.5 12.333 121.5 37s43.5 59 43.5 103s-14.5 78.333 -43.5 103
s-69.5 37 -121.5 37z" />
    <glyph glyph-name="C" unicode="C" horiz-adv-x="653" 
d="M172 568c-19.333 -27.333 -34.166 -58.8311 -44.499 -94.498s-15.5 -73.834 -15.5 -114.501s5.16699 -78.834 15.5 -114.501s25.166 -67.167 44.499 -94.5c22.667 -31.333 50.167 -55.5 82.5 -72.5s67.5 -25.5 105.5 -25.5c48.667 0 90.5 13.333 125.5 40
s60.167 64 75.5 112l67 -21c-21.333 -61.333 -55.333 -108.833 -102 -142.5s-102 -50.5 -166 -50.5c-47.333 0 -91.333 9.83301 -132 29.5s-75.667 47.834 -105 84.501c-26 33.333 -45.833 71.666 -59.5 114.999s-20.5 90 -20.5 140s6.83301 96.667 20.5 140
s33.5 81.666 59.5 114.999c29.333 36.667 64.333 64.834 105 84.501s84.667 29.5 132 29.5c64 0 119.333 -16.833 166 -50.5s80.667 -81.167 102 -142.5l-67 -21c-15.333 48 -40.5 85.333 -75.5 112s-76.833 40 -125.5 40c-38 0 -73.167 -8.5 -105.5 -25.5
s-59.833 -41.167 -82.5 -72.5z" />
    <glyph glyph-name="D" unicode="D" horiz-adv-x="702" 
d="M306 0l-218 -0.00195312v718h218c53.333 0 101.833 -8.33301 145.5 -25s81.167 -41.334 112.5 -74.001c31.333 -31.333 55 -69.166 71 -113.499s24 -93.166 24 -146.499s-8 -102.166 -24 -146.499s-39.667 -82.166 -71 -113.499
c-31.333 -32.667 -68.833 -57.334 -112.5 -74.001s-92.167 -25 -145.5 -25zM157 656.998l-0.000976562 -596h149c86.667 0 155.667 27 207 81s77 126.333 77 217c0 91.333 -25.667 163.833 -77 217.5s-120.666 80.5 -207.999 80.5h-148z" />
    <glyph glyph-name="E" unicode="E" horiz-adv-x="596" 
d="M88 0v718h455v-61h-385v-255h327v-61h-327v-280h385v-61h-455z" />
    <glyph glyph-name="F" unicode="F" horiz-adv-x="583" 
d="M158 335v-335h-70v718h453v-61h-383v-261h325v-61h-325z" />
    <glyph glyph-name="G" unicode="G" horiz-adv-x="714" 
d="M643 0l-65.0049 -0.00585938v133c-14.667 -42.667 -42.167 -77.167 -82.5 -103.5s-86.166 -39.5 -137.499 -39.5c-47.333 0 -91.166 9.83301 -131.499 29.5s-74.833 47.834 -103.5 84.501c-26 32.667 -45.833 70.667 -59.5 114s-20.5 90 -20.5 140
s6.83301 96.833 20.5 140.5s33.834 82.167 60.501 115.5c28.667 36.667 63.5 64.834 104.5 84.501s85.167 29.5 132.5 29.5c64.667 0 120.5 -16.667 167.5 -50s81.167 -80.666 102.5 -141.999l-68 -22c-14.667 48.667 -39.5 86.167 -74.5 112.5s-77.5 39.5 -127.5 39.5
c-38.667 0 -74.167 -8.33301 -106.5 -25s-59.833 -41 -82.5 -73c-19.333 -27.333 -34.166 -58.666 -44.499 -93.999s-15.5 -73.666 -15.5 -114.999s5.16699 -79.833 15.5 -115.5s25.166 -67.167 44.499 -94.5c22.667 -32 50.334 -56.333 83.001 -73s68.334 -25 107.001 -25
c63.333 0 114.333 22.833 153 68.5s58.667 105.834 60 180.501h-221v61h289v-361z" />
    <glyph glyph-name="H" unicode="H" horiz-adv-x="735" 
d="M576 402v316h70v-718h-70v341h-418v-341h-70v718h70v-316h418z" />
    <glyph glyph-name="I" unicode="I" horiz-adv-x="247" 
d="M88 718h70v-718h-70v718z" />
    <glyph glyph-name="J" unicode="J" horiz-adv-x="423" 
d="M139 -9c-18.667 0 -36.667 0.833008 -54 2.5s-35.333 4.5 -54 8.5v64c18 -4 35.167 -7 51.5 -9s32.5 -3 48.5 -3c54 0 92.333 11.5 115 34.5s34 60.833 34 113.5v516h70v-522c0 -68.667 -17.5 -120 -52.5 -154s-87.833 -51 -158.5 -51z" />
    <glyph glyph-name="K" unicode="K" horiz-adv-x="631" 
d="M88 718h70v-382l363 382h86l-301 -314l314 -404h-84l-277 354l-101 -105v-249h-70v718z" />
    <glyph glyph-name="L" unicode="L" horiz-adv-x="551" 
d="M533 0h-445v718h70v-657h375v-61z" />
    <glyph glyph-name="M" unicode="M" horiz-adv-x="853" 
d="M699 620l-245 -620h-55l-245 620v-620h-66v718h95l245 -623l245 623h92v-718h-66v620z" />
    <glyph glyph-name="N" unicode="N" horiz-adv-x="724" 
d="M567 718h68v-718h-60l-419 619v-619h-68v718h77l402 -596v596z" />
    <glyph glyph-name="O" unicode="O" horiz-adv-x="722" 
d="M124 104c-26.667 32.667 -46.834 70.834 -60.501 114.501s-20.5 90.5 -20.5 140.5s6.83301 96.833 20.5 140.5s33.834 81.834 60.501 114.501c28.667 36.667 63.5 64.834 104.5 84.501s85.167 29.5 132.5 29.5s91.5 -9.83301 132.5 -29.5s76.167 -47.834 105.5 -84.501
c26 -32.667 46 -70.834 60 -114.501s21 -90.5 21 -140.5s-7 -96.833 -21 -140.5s-34 -81.834 -60 -114.501c-29.333 -36.667 -64.5 -64.834 -105.5 -84.501s-85.167 -29.5 -132.5 -29.5s-91.5 9.83301 -132.5 29.5s-75.833 47.834 -104.5 84.501zM550 149
c19.333 27.333 34.166 58.835 44.499 94.502s15.5 74.167 15.5 115.5s-5.16699 79.833 -15.5 115.5s-25.166 67.167 -44.499 94.5c-22.667 31.333 -50.167 55.333 -82.5 72s-67.833 25 -106.5 25s-74.167 -8.33301 -106.5 -25s-59.833 -41 -82.5 -73
c-19.333 -27.333 -34.166 -58.833 -44.499 -94.5s-15.5 -73.834 -15.5 -114.501s5.16699 -78.834 15.5 -114.501s25.166 -67.167 44.499 -94.5c22.667 -32 50.167 -56.333 82.5 -73s67.833 -25 106.5 -25s74.167 8.33301 106.5 25s59.833 40.667 82.5 72z" />
    <glyph glyph-name="P" unicode="P" horiz-adv-x="614" 
d="M352 320h-194v-320h-70v718h264c76 0 134.833 -17.333 176.5 -52s62.5 -83.667 62.5 -147c0 -62.667 -21.167 -111.5 -63.5 -146.5s-100.833 -52.5 -175.5 -52.5zM158 657v-276.001h189c56 0 99.167 12 129.5 36s45.5 58 45.5 102c0 44.667 -15 78.834 -45 102.501
s-73.333 35.5 -130 35.5h-189z" />
    <glyph glyph-name="Q" unicode="Q" horiz-adv-x="722" 
d="M124 104c-26.667 32.667 -46.8369 70.8301 -60.5039 114.497s-20.5 90.5 -20.5 140.5s6.83301 96.833 20.5 140.5s33.834 81.834 60.501 114.501c28.667 36.667 63.5 64.834 104.5 84.501s85.167 29.5 132.5 29.5s91.5 -9.83301 132.5 -29.5
s76.167 -47.834 105.5 -84.501c26 -32.667 46 -70.834 60 -114.501s21 -90.5 21 -140.5c0 -70.667 -13.333 -134 -40 -190s-64.334 -99.667 -113.001 -131c14.667 -21.333 35.334 -40.666 62.001 -57.999s54.334 -29.666 83.001 -36.999l-42 -51
c-30.667 8 -61 23.167 -91 45.5s-52.667 46.5 -68 72.5c-17.333 -6.66699 -35.166 -11.667 -53.499 -15s-37.166 -5 -56.499 -5c-47.333 0 -91.5 9.83301 -132.5 29.5s-75.833 47.834 -104.5 84.501zM549.997 148.996c19.333 27.333 34.166 58.835 44.499 94.502
s15.5 74.167 15.5 115.5s-5.16699 79.833 -15.5 115.5s-25.166 67.167 -44.499 94.5c-22.667 31.333 -50.167 55.333 -82.5 72s-67.833 25 -106.5 25s-74.167 -8.33301 -106.5 -25s-59.833 -41 -82.5 -73c-19.333 -27.333 -34.166 -58.833 -44.499 -94.5
s-15.5 -73.834 -15.5 -114.501s5.16699 -78.834 15.5 -114.501s25.166 -67.167 44.499 -94.5c22.667 -32 50.167 -56.333 82.5 -73s67.833 -25 106.5 -25s74.167 8.33301 106.5 25s59.833 40.667 82.5 72z" />
    <glyph glyph-name="R" unicode="R" horiz-adv-x="645" 
d="M314 320h-156v-320h-70v718h264c76 0 134.833 -17.333 176.5 -52s62.5 -83.667 62.5 -147c0 -56.667 -17.5 -102.167 -52.5 -136.5s-83.833 -54.5 -146.5 -60.5l212 -322h-81zM158 657v-276.001h189c56 0 99.167 12 129.5 36s45.5 58 45.5 102
c0 44.667 -15 78.834 -45 102.501s-73.333 35.5 -130 35.5h-189z" />
    <glyph glyph-name="S" unicode="S" horiz-adv-x="584" 
d="M295 -10c-63.333 0 -121.171 14.998 -173.504 44.998s-89.166 70 -110.499 120l56 43c20.667 -46 51.167 -82 91.5 -108s86.5 -39 138.5 -39c53.333 0 97 13.333 131 40s51 61.667 51 105c0 24.667 -5.66699 45.5 -17 62.5s-29 31.167 -53 42.5
c-11.333 5.33301 -24.833 10.5 -40.5 15.5s-45.5 12.833 -89.5 23.5s-76.667 19.834 -98 27.501s-39.666 16.167 -54.999 25.5c-24.667 16 -43 35 -55 57s-18 48.333 -18 79c0 29.333 6.33301 56.833 19 82.5s31 47.5 55 65.5c21.333 16.667 45.833 29.334 73.5 38.001
s56.834 13 87.501 13c59.333 0 110.666 -12.833 153.999 -38.5s75.333 -61.834 96 -108.501l-55 -39c-19.333 42 -45.333 73.333 -78 94s-72 31 -118 31c-48 0 -87.667 -12.5 -119 -37.5s-47 -56.833 -47 -95.5c0 -22 5.16699 -40.667 15.5 -56s26.5 -28.333 48.5 -39
c10.667 -5.33301 23.5 -10.333 38.5 -15s41.5 -11.667 79.5 -21c54.667 -13.333 92.334 -23.666 113.001 -30.999s38.334 -15.333 53.001 -24c26.667 -16.667 46.5 -37 59.5 -61s19.5 -52.667 19.5 -86c0 -32 -6.83301 -61.333 -20.5 -88s-33.5 -50 -59.5 -70
c-22.667 -16.667 -49 -29.667 -79 -39s-61.333 -14 -94 -14z" />
    <glyph glyph-name="T" unicode="T" horiz-adv-x="613" 
d="M595 718v-61h-254v-657h-69v657h-254v61h577z" />
    <glyph glyph-name="U" unicode="U" horiz-adv-x="700" 
d="M350 -9c-85.333 0 -152.67 25.833 -202.003 77.5s-74 123.5 -74 215.5v434h69v-432c0 -74 18.333 -131.167 55 -171.5s87.334 -60.5 152.001 -60.5s115.334 20.167 152.001 60.5s55 97.5 55 171.5v432h69v-434c0 -92 -24.667 -163.833 -74 -215.5
s-116.666 -77.5 -201.999 -77.5z" />
    <glyph glyph-name="V" unicode="V" horiz-adv-x="670" 
d="M649 718l-277 -718h-73l-277 718h74l240 -631l242 631h71z" />
    <glyph glyph-name="W" unicode="W" horiz-adv-x="912" 
d="M259 104l166 614h63l166 -614l166 614h70l-199 -718h-69l-166 601l-166 -601h-69l-199 718h71z" />
    <glyph glyph-name="X" unicode="X" horiz-adv-x="638" 
d="M532 718h78l-250 -354l258 -364h-80l-220 313l-220 -313h-77l256 364l-249 354h79l213 -302z" />
    <glyph glyph-name="Y" unicode="Y" horiz-adv-x="609" 
d="M85 718l220 -348l221 348h74l-261 -410v-308h-69v308l-262 410h77z" />
    <glyph glyph-name="Z" unicode="Z" horiz-adv-x="612" 
d="M126 61h450v-61h-537v54l445 603h-440v61h527v-54z" />
    <glyph glyph-name="bracketleft" unicode="[" horiz-adv-x="327" 
d="M304 682h-160v-725h160v-55h-226v836h226v-56z" />
    <glyph glyph-name="backslash" unicode="\" horiz-adv-x="378" 
d="M300.005 -98h67.9961l-289.982 836h-67.9961z" />
    <glyph glyph-name="bracketright" unicode="]" horiz-adv-x="327" 
d="M183 -43v725h-160v56h226v-836h-226v55h160z" />
    <glyph glyph-name="asciicircum" unicode="^" horiz-adv-x="444" 
d="M25 423l165 295h64l166 -295h-70l-128 231l-129 -231h-68z" />
    <glyph glyph-name="underscore" unicode="_" horiz-adv-x="426" 
d="M367 -117h-308v58h308v-58z" />
    <glyph glyph-name="grave" unicode="`" horiz-adv-x="600" 
d="M319 718l58 -138h-52l-90 138h84z" />
    <glyph glyph-name="a" unicode="a" horiz-adv-x="522" 
d="M374 68c-16.667 -23.333 -40.002 -42.1689 -70.002 -56.502s-62 -21.5 -96 -21.5c-49.333 0 -89.666 13.5 -120.999 40.5s-47 62.833 -47 107.5c0 45.333 16.833 82 50.5 110s89.167 49.667 166.5 65l113 23v32c0 34.667 -9.83301 60.834 -29.5 78.501
s-48.167 26.5 -85.5 26.5c-36 0 -65.5 -8.5 -88.5 -25.5s-38.833 -41.833 -47.5 -74.5l-63 19c12.667 42.667 37 76.667 73 102s78.667 38 128 38c56.667 0 100.667 -14 132 -42s47 -67.667 47 -119v-278c0 -17.333 6 -29.5 18 -36.5s27.667 -7.5 47 -1.5v-56
c-39.333 -5.33301 -69.666 -2.16602 -90.999 9.50098s-33.333 31.5 -36 59.5zM214.998 44.9971c43.333 0 79.999 12.499 109.999 37.499s45 55.167 45 90.5v110l-94 -20c-65.333 -13.333 -109.833 -29.166 -133.5 -47.499s-35.5 -43.833 -35.5 -76.5
c0 -28.667 9.83301 -51.5 29.5 -68.5s45.834 -25.5 78.501 -25.5z" />
    <glyph glyph-name="b" unicode="b" horiz-adv-x="593" 
d="M491 75c-20 -28 -44.5 -49.167 -73.5 -63.5s-60.833 -21.5 -95.5 -21.5c-38 0 -72.167 9.16699 -102.5 27.5s-53.5 43.5 -69.5 75.5v-93h-66v718h66v-289c16 32 39.167 57.167 69.5 75.5s64.5 27.5 102.5 27.5c34.667 0 66.5 -7.16699 95.5 -21.5s53.5 -35.5 73.5 -63.5
c18 -24 31.667 -52 41 -84s14 -66 14 -102s-4.66699 -70 -14 -102s-23 -60 -41 -84zM189 414c-13.333 -16.667 -23.3301 -36.168 -29.9971 -58.501s-10 -47.166 -10 -74.499v-43c0 -26.667 3.33301 -51.167 10 -73.5s16.667 -41.833 30 -58.5
c15.333 -18.667 33.666 -33 54.999 -43s43.666 -15 66.999 -15c51.333 0 92.333 19.5 123 58.5s46 90.5 46 154.5s-15.333 115.333 -46 154s-71.667 58 -123 58c-23.333 0 -45.833 -5.16699 -67.5 -15.5s-39.834 -24.833 -54.501 -43.5z" />
    <glyph glyph-name="c" unicode="c" horiz-adv-x="521" 
d="M284 474c-51.333 0 -92.665 -19.501 -123.998 -58.501s-47 -90.5 -47 -154.5c0 -64.667 15.667 -116.334 47 -155.001s72.666 -58 123.999 -58c36.667 0 67.167 10.5 91.5 31.5s40.833 50.5 49.5 88.5l60 -24c-12 -48 -35.833 -85.667 -71.5 -113
s-78.834 -41 -129.501 -41c-36 0 -69.167 6.83301 -99.5 20.5s-56.166 33.834 -77.499 60.501c-19.333 24 -34.166 52.167 -44.499 84.5s-15.5 67.5 -15.5 105.5s5.16699 73.167 15.5 105.5s25.166 60.5 44.499 84.5c21.333 26 47.166 46 77.499 60s63.5 21 99.5 21
c50 0 92.667 -13.667 128 -41s59.333 -64.666 72 -111.999l-59 -25c-8.66699 38 -25.167 67.5 -49.5 88.5s-54.833 31.5 -91.5 31.5z" />
    <glyph glyph-name="d" unicode="d" horiz-adv-x="591" 
d="M271 -10c-34.667 0 -66.5 7.16699 -95.5 21.5s-53.5 35.5 -73.5 63.5c-18 24 -31.667 52 -41 84s-14 66 -14 102s4.66699 70 14 102s23 60 41 84c20 28 44.5 49.167 73.5 63.5s60.833 21.5 95.5 21.5c38 0 72.167 -9.16699 102.5 -27.5s53.5 -43.5 69.5 -75.5v289h66
v-718h-66v93c-16 -32 -39.167 -57.167 -69.5 -75.5s-64.5 -27.5 -102.5 -27.5zM444 238l0.00292969 43.001c0 27.333 -3.33301 52.166 -10 74.499s-16.667 41.833 -30 58.5c-14.667 18.667 -32.834 33.167 -54.501 43.5s-44.167 15.5 -67.5 15.5
c-51.333 0 -92.333 -19.333 -123 -58s-46 -90 -46 -154s15.333 -115.5 46 -154.5s71.667 -58.5 123 -58.5c23.333 0 45.666 5 66.999 15s39.666 24.333 54.999 43c13.333 16.667 23.333 36.167 30 58.5s10 46.833 10 73.5z" />
    <glyph glyph-name="e" unicode="e" horiz-adv-x="540" 
d="M283 -10c-70.667 0 -127.669 25 -171.002 75s-65 115.333 -65 196c0 37.333 5 72 15 104s24.667 60 44 84c21.333 27.333 46.833 48 76.5 62s62.167 21 97.5 21c66.667 0 119 -23 157 -69s57 -107.667 57 -185v-22h-384c0.666992 -62.667 16.834 -113 48.501 -151
s73.167 -57 124.5 -57c38 0 70 10 96 30s43 47.667 51 83l60 -19c-14 -48 -39.167 -85.333 -75.5 -112s-80.166 -40 -131.499 -40zM279.998 474c-44 0 -81 -14.833 -111 -44.5s-48.667 -70.167 -56 -121.5h314c-1.33301 50.667 -15 91 -41 121s-61.333 45 -106 45z" />
    <glyph glyph-name="f" unicode="f" horiz-adv-x="305" 
d="M253 728c13.333 0 23 -0.166992 29 -0.5s12 -1.16602 18 -2.49902v-59c-10 1.33301 -17.833 2.16602 -23.5 2.49902s-11.834 0.5 -18.501 0.5c-30 0 -52.167 -8.5 -66.5 -25.5s-21.5 -43.167 -21.5 -78.5v-43h124v-57h-124v-465h-67v465h-82v57h82v48
c0 49.333 13.333 88 40 116s63.334 42 110.001 42z" />
    <glyph glyph-name="g" unicode="g" horiz-adv-x="593" 
d="M508 522l-0.000976562 -478.999c0 -72.667 -20.833 -129.667 -62.5 -171s-98.5 -62 -170.5 -62c-55.333 0 -102.5 12.833 -141.5 38.5s-64.833 61.167 -77.5 106.5l63 25c8.66699 -36 26.834 -64 54.501 -84s61.5 -30 101.5 -30c54 0 95.333 14.667 124 44
s43 72.333 43 129v76c-14.667 -32 -37 -57.333 -67 -76s-63.667 -28 -101 -28c-34.667 0 -66.334 6.83301 -95.001 20.5s-53.334 33.167 -74.001 58.5c-18.667 23.333 -33 50.666 -43 81.999s-15 64.333 -15 99c0 35.333 5 68.5 15 99.5s24.333 58.5 43 82.5
c20.667 25.333 45.334 44.833 74.001 58.5s60.334 20.5 95.001 20.5c36.667 0 70.167 -9.5 100.5 -28.5s52.833 -44.5 67.5 -76.5v95h66zM442.999 257.001v26c0 26.667 -3.33301 51 -10 73s-16.667 41.333 -30 58c-14.667 18.667 -32.5 33.167 -53.5 43.5
s-43.167 15.5 -66.5 15.5c-51.333 0 -92.333 -18.333 -123 -55s-46 -85.667 -46 -147c0 -60.667 15.333 -109.5 46 -146.5s71.667 -55.5 123 -55.5c23.333 0 45.5 5 66.5 15s38.833 24.333 53.5 43c13.333 16.667 23.333 36 30 58s10 46 10 72z" />
    <glyph glyph-name="h" unicode="h" horiz-adv-x="566" 
d="M150 0h-66v718h66v-280c17.333 29.333 40.333 52.333 69 69s60.667 25 96 25c54 0 96.167 -16.833 126.5 -50.5s45.5 -79.834 45.5 -138.501v-343h-66v328c0 45.333 -10.5 80.333 -31.5 105s-51.167 37 -90.5 37c-19.333 0 -38.333 -4 -57 -12s-35 -19 -49 -33
c-14 -14.667 -24.667 -31.167 -32 -49.5s-11 -38.166 -11 -59.499v-316z" />
    <glyph glyph-name="i" unicode="i" horiz-adv-x="234" 
d="M156 629h-77v89h77v-89zM84 522h66v-522h-66v522z" />
    <glyph glyph-name="j" unicode="j" horiz-adv-x="234" 
d="M156 629h-77v89h77v-89zM8 -125c26.667 0 46 7.16797 58 21.501s18 37.5 18 69.5v556h66v-566c0 -44.667 -11.5 -79.167 -34.5 -103.5s-56.167 -36.5 -99.5 -36.5c-8 0 -15.167 0.166992 -21.5 0.5s-14.166 1.16602 -23.499 2.49902v60
c7.33301 -1.33301 13.666 -2.33301 18.999 -3s11.333 -1 18 -1z" />
    <glyph glyph-name="k" unicode="k" horiz-adv-x="524" 
d="M84 718h66v-459l256 263h85l-210 -209l227 -313h-78l-195 267l-85 -85v-182h-66v718z" />
    <glyph glyph-name="l" unicode="l" horiz-adv-x="234" 
d="M84 718h66v-718h-66v718z" />
    <glyph glyph-name="m" unicode="m" horiz-adv-x="874" 
d="M190 423c-13.333 -14 -23.334 -30.001 -30.001 -48.001s-10 -37 -10 -57v-318h-66v522h66v-84c16.667 29.333 38.834 52.333 66.501 69s58.167 25 91.5 25c36 0 66.833 -8.83301 92.5 -26.5s44.5 -42.834 56.5 -75.501c16 30.667 39.333 55.334 70 74.001s64 28 100 28
c52 0 93.167 -17.167 123.5 -51.5s45.5 -80.166 45.5 -137.499v-343h-66v328c0 45.333 -10 80.333 -30 105s-49 37 -87 37c-18 0 -35.833 -4.16699 -53.5 -12.5s-33.167 -19.833 -46.5 -34.5c-13.333 -14 -23.333 -30 -30 -48s-10 -37 -10 -57v-318h-66v328
c0 45.333 -10 80.333 -30 105s-49 37 -87 37c-18 0 -35.833 -4.16699 -53.5 -12.5s-33.167 -19.833 -46.5 -34.5z" />
    <glyph glyph-name="n" unicode="n" horiz-adv-x="566" 
d="M150 0h-66v522h66v-84c17.333 29.333 40.333 52.333 69 69s60.667 25 96 25c54 0 96.167 -16.833 126.5 -50.5s45.5 -79.834 45.5 -138.501v-343h-66v328c0 45.333 -10.5 80.333 -31.5 105s-51.167 37 -90.5 37c-19.333 0 -38.333 -4 -57 -12s-35 -19 -49 -33
c-14 -14.667 -24.667 -31.167 -32 -49.5s-11 -38.166 -11 -59.499v-316z" />
    <glyph glyph-name="o" unicode="o" horiz-adv-x="562" 
d="M456 450c20 -24 35 -52.167 45 -84.5s15 -67.166 15 -104.499s-5 -72.166 -15 -104.499s-25 -60.5 -45 -84.5c-20.667 -26.667 -46 -47 -76 -61s-63 -21 -99 -21s-68.833 7 -98.5 21s-55.167 34.333 -76.5 61c-19.333 24 -34 52.167 -44 84.5s-15 67.166 -15 104.499
s5 72.166 15 104.499s24.667 60.5 44 84.5c21.333 26.667 46.833 47 76.5 61s62.5 21 98.5 21s69 -7 99 -21s55.333 -34.333 76 -61zM281 475c-50.667 0 -91.334 -19.5 -122.001 -58.5s-46 -90.833 -46 -155.5s15.333 -116.5 46 -155.5s71.334 -58.5 122.001 -58.5
s91.334 19.5 122.001 58.5s46 90.833 46 155.5s-15.333 116.5 -46 155.5s-71.334 58.5 -122.001 58.5z" />
    <glyph glyph-name="p" unicode="p" horiz-adv-x="593" 
d="M491 75c-20 -28 -44.5 -49.167 -73.5 -63.5s-60.833 -21.5 -95.5 -21.5c-38 0 -72.167 9.16699 -102.5 27.5s-53.5 43.5 -69.5 75.5v-273h-66v702h66v-93c16 32 39.167 57.167 69.5 75.5s64.5 27.5 102.5 27.5c34.667 0 66.5 -7.16699 95.5 -21.5s53.5 -35.5 73.5 -63.5
c18 -24 31.667 -52 41 -84s14 -66 14 -102s-4.66699 -70 -14 -102s-23 -60 -41 -84zM189 414c-13.333 -16.667 -23.3301 -36.168 -29.9971 -58.501s-10 -47.166 -10 -74.499v-43c0 -26.667 3.33301 -51.167 10 -73.5s16.667 -41.833 30 -58.5
c15.333 -18.667 33.666 -33 54.999 -43s43.666 -15 66.999 -15c51.333 0 92.333 19.5 123 58.5s46 90.5 46 154.5s-15.333 115.333 -46 154s-71.667 58 -123 58c-23.333 0 -45.833 -5.16699 -67.5 -15.5s-39.834 -24.833 -54.501 -43.5z" />
    <glyph glyph-name="q" unicode="q" horiz-adv-x="593" 
d="M271 -10c-34.667 0 -66.5 7.16699 -95.5 21.5s-53.5 35.5 -73.5 63.5c-18 24 -31.667 52 -41 84s-14 66 -14 102s4.66699 70 14 102s23 60 41 84c20 28 44.5 49.167 73.5 63.5s60.833 21.5 95.5 21.5c38 0 72.167 -9.16699 102.5 -27.5s53.5 -43.5 69.5 -75.5v93h66v-702
h-66v273c-16 -32 -39.167 -57.167 -69.5 -75.5s-64.5 -27.5 -102.5 -27.5zM444 238l0.00292969 43.001c0 27.333 -3.33301 52.166 -10 74.499s-16.667 41.833 -30 58.5c-14.667 18.667 -32.834 33.167 -54.501 43.5s-44.167 15.5 -67.5 15.5
c-51.333 0 -92.333 -19.333 -123 -58s-46 -90 -46 -154s15.333 -115.5 46 -154.5s71.667 -58.5 123 -58.5c23.333 0 45.666 5 66.999 15s39.666 24.333 54.999 43c13.333 16.667 23.333 36.167 30 58.5s10 46.833 10 73.5z" />
    <glyph glyph-name="r" unicode="r" horiz-adv-x="362" 
d="M296 527c6.66699 0 13.3359 -0.333008 20.0029 -1s12.667 -1.66699 18 -3v-66c-6.66699 1.33301 -13.334 2.33301 -20.001 3s-14.334 1 -23.001 1c-39.333 0 -72.666 -16 -99.999 -48s-41 -72 -41 -120v-293h-66v522h66v-99c13.333 32.667 32.666 58.167 57.999 76.5
s54.666 27.5 87.999 27.5z" />
    <glyph glyph-name="s" unicode="s" horiz-adv-x="479" 
d="M245 -10c-51.333 0 -97.001 11.501 -137.001 34.501s-68 54.5 -84 94.5l54 36c12 -33.333 33.167 -60 63.5 -80s64.833 -30 103.5 -30c37.333 0 68.166 9 92.499 27s36.5 42 36.5 72c0 17.333 -4 31.5 -12 42.5s-21 20.167 -39 27.5c-8 3.33301 -17.167 6.5 -27.5 9.5
s-31.833 8.16699 -64.5 15.5c-39.333 9.33301 -66.333 16.5 -81 21.5s-27 10.5 -37 16.5c-19.333 11.333 -33.666 25.5 -42.999 42.5s-14 37.5 -14 61.5c0 44 17.167 80.167 51.5 108.5s77.833 42.5 130.5 42.5c45.333 0 85.5 -10.667 120.5 -32s59.167 -49.333 72.5 -84
l-51 -34c-12 30 -30.5 53.167 -55.5 69.5s-54.833 24.5 -89.5 24.5s-62.5 -8.33301 -83.5 -25s-31.5 -39 -31.5 -67c0 -15.333 3.83301 -28 11.5 -38s19.834 -18.667 36.501 -26c7.33301 -3.33301 16 -6.33301 26 -9s29 -7.33398 57 -14.001
c42.667 -10 71.5 -17.667 86.5 -23s27.833 -11 38.5 -17c21.333 -12 37 -27 47 -45s15 -39.333 15 -64c0 -46 -18.333 -83.833 -55 -113.5s-82.667 -44.5 -138 -44.5z" />
    <glyph glyph-name="t" unicode="t" horiz-adv-x="341" 
d="M230 -5c-45.333 0 -78.167 10 -98.5 30s-30.5 51.333 -30.5 94v346h-87v57h87v151h65v-151h126v-57h-126v-336c0 -26.667 5.66699 -45.834 17 -57.501s31.333 -17.5 60 -17.5c11.333 0 22 0.666992 32 2s20.333 3.33301 31 6v-58
c-12.667 -3.33301 -25 -5.66602 -37 -6.99902s-25 -2 -39 -2z" />
    <glyph glyph-name="u" unicode="u" horiz-adv-x="566" 
d="M415 522h66.001v-522h-66v84c-16.667 -29.333 -39.334 -52.333 -68.001 -69s-60.667 -25 -96 -25c-54 0 -96.333 16.833 -127 50.5s-46 79.5 -46 137.5v344h66v-332c0 -44.667 10.5 -79 31.5 -103s51.5 -36 91.5 -36c20 0 39.167 4 57.5 12s34.5 19 48.5 33
s24.5 30.333 31.5 49s10.5 38.667 10.5 60v317z" />
    <glyph glyph-name="v" unicode="v" horiz-adv-x="505" 
d="M483 522l-199 -522h-63l-199 522h70l161 -439l161 439h69z" />
    <glyph glyph-name="w" unicode="w" horiz-adv-x="720" 
d="M214 99l119 423h57l119 -424l123 424h66l-160 -522h-58l-119 423l-121 -423h-58l-160 522h68z" />
    <glyph glyph-name="x" unicode="x" horiz-adv-x="506" 
d="M488 0h-76l-160 225l-161 -225h-73l196 274l-177 248h76l140 -199l142 199h74l-177 -248z" />
    <glyph glyph-name="y" unicode="y" horiz-adv-x="505" 
d="M483 522l-230.998 -586c-18 -46 -38.167 -78.167 -60.5 -96.5s-50.5 -27.5 -84.5 -27.5c-8.66699 0 -16.5 0.5 -23.5 1.5s-15.167 2.5 -24.5 4.5v59c8 -2.66699 15.167 -4.5 21.5 -5.5s14.166 -1.5 23.499 -1.5c20 0 36.167 5.66699 48.5 17s24.166 31 35.499 59l30 72
l-196 504h70l161 -426l161 426h69z" />
    <glyph glyph-name="z" unicode="z" horiz-adv-x="492" 
d="M128 57h317v-57h-399v50l318 415h-314v57h392v-52z" />
    <glyph glyph-name="braceleft" unicode="{" horiz-adv-x="367" 
d="M66 292h-46v56h46c20.667 0 36.5 6.33301 47.5 19s16.5 31 16.5 55v152c0 51.333 15.167 91.5 45.5 120.5s72.166 43.5 125.499 43.5h44v-56h-33c-41.333 0 -71.666 -10 -90.999 -30s-29 -51.333 -29 -94v-136c0 -25.333 -5.16699 -46.5 -15.5 -63.5
s-25.833 -29.833 -46.5 -38.5c20.667 -8.66699 36.167 -21.5 46.5 -38.5s15.5 -38.167 15.5 -63.5v-136c0 -42.667 9.66699 -74 29 -94s49.666 -30 90.999 -30h33v-56h-44c-53.333 0 -95.166 14.5 -125.499 43.5s-45.5 69.167 -45.5 120.5v152c0 24 -5.5 42.333 -16.5 55
s-26.833 19 -47.5 19z" />
    <glyph glyph-name="bar" unicode="|" horiz-adv-x="243" 
d="M154 -98h-65v836h65v-836z" />
    <glyph glyph-name="braceright" unicode="}" horiz-adv-x="367" 
d="M347 348v-56h-46c-20.667 0 -36.5 -6.33301 -47.5 -19s-16.5 -31 -16.5 -55v-152c0 -51.333 -15.167 -91.5 -45.5 -120.5s-72.166 -43.5 -125.499 -43.5h-44v56h33c41.333 0 71.666 10 90.999 30s29 51.333 29 94v136c0 25.333 5.16699 46.5 15.5 63.5
s25.833 29.833 46.5 38.5c-20.667 8.66699 -36.167 21.5 -46.5 38.5s-15.5 38.167 -15.5 63.5v136c0 42.667 -9.66699 74 -29 94s-49.666 30 -90.999 30h-33v56h44c53.333 0 95.166 -14.5 125.499 -43.5s45.5 -69.167 45.5 -120.5v-152c0 -24 5.5 -42.333 16.5 -55
s26.833 -19 47.5 -19h46z" />
    <glyph glyph-name="asciitilde" unicode="~" horiz-adv-x="472" 
d="M167 377c11.333 0 22.501 -2.5 33.501 -7.5s25.833 -15.5 44.5 -31.5c15.333 -13.333 26.833 -22 34.5 -26s15.167 -6 22.5 -6c16.667 0 29.334 5.66699 38.001 17s15 30 19 56h54c-4.66699 -44 -16.334 -78.167 -35.001 -102.5s-42.667 -36.5 -72 -36.5
c-11.333 0 -22.5 2.5 -33.5 7.5s-25.833 15.833 -44.5 32.5c-15.333 12.667 -26.833 21 -34.5 25s-15.167 6 -22.5 6c-16.667 0 -29.334 -5.5 -38.001 -16.5s-15.334 -29.5 -20.001 -55.5h-54c4.66699 44 16.334 78 35.001 102s43 36 73 36z" />
    <glyph glyph-name="uni00A0" unicode="&#xa0;" horiz-adv-x="216" 
 />
    <glyph glyph-name="exclamdown" unicode="&#xa1;" horiz-adv-x="220" 
d="M136 509.013h-50l-16 -508.969h82zM155 718h-89v-95.9941h89v95.9941z" />
    <glyph glyph-name="cent" unicode="&#xa2;" horiz-adv-x="529" 
d="M303 -106l-54.001 0.00195312v98c-64 8.66699 -115.333 37.5 -154 86.5s-58 110.5 -58 184.5s19.333 135.5 58 184.5s90 77.833 154 86.5v103h54v-102c48.667 -2.66699 89.834 -17.5 123.501 -44.5s57.167 -63.5 70.5 -109.5l-58 -24c-8.66699 36 -24.667 64.667 -48 86
s-52.666 33.666 -87.999 36.999v-434c35.333 3.33301 64.833 15.666 88.5 36.999s39.5 50.333 47.5 87l58 -25c-13.333 -46 -36.833 -82.5 -70.5 -109.5s-74.834 -41.833 -123.501 -44.5v-97zM100.999 263.002c0 -57.333 13.333 -105.331 40 -143.998
s62.667 -62.334 108 -71.001v430c-45.333 -8.66699 -81.333 -32.334 -108 -71.001s-40 -86.667 -40 -144z" />
    <glyph glyph-name="sterling" unicode="&#xa3;" horiz-adv-x="615" 
d="M191 303l-110.002 -0.0078125v54h82c-16.667 32.667 -28.167 59.834 -34.5 81.501s-9.5 42.834 -9.5 63.501c0 32 5.5 62 16.5 90s26.833 52.333 47.5 73s45 36.334 73 47.001s58.333 16 91 16c31.333 0 60.333 -5.16699 87 -15.5s49.667 -25.5 69 -45.5
s34.166 -43.5 44.499 -70.5s15.5 -55.833 15.5 -86.5c0 -15.333 -1.33301 -30.166 -4 -44.499s-6.66699 -29.166 -12 -44.499h-65c5.33301 12.667 9.5 26.5 12.5 41.5s4.5 29.5 4.5 43.5c0 49.333 -13.667 88.833 -41 118.5s-64.333 44.5 -111 44.5
c-48.667 0 -87.834 -15.5 -117.501 -46.5s-44.5 -71.833 -44.5 -122.5c0 -18.667 2.66699 -37.667 8 -57s17.333 -48 36 -86h169v-54h-144c7.33301 -18.667 12.833 -36.667 16.5 -54s5.5 -35 5.5 -53c0 -10 -0.5 -20 -1.5 -30s-2.5 -19.667 -4.5 -29
c28.667 -23.333 46.834 -37.666 54.501 -42.999s14.834 -10 21.501 -14c16 -10 31.333 -17.333 46 -22s29.334 -7 44.001 -7c32.667 0 57.167 10.5 73.5 31.5s24.833 52.833 25.5 95.5h59c0 -57.333 -13.667 -103 -41 -137s-64 -51 -110 -51c-18 0 -35.5 2.33301 -52.5 7
s-34.167 12 -51.5 22c-11.333 6 -22.833 13.333 -34.5 22s-29.167 23 -52.5 43c-13.333 -30 -31.166 -53.167 -53.499 -69.5s-47.833 -24.5 -76.5 -24.5c-32.667 0 -59.334 9.66699 -80.001 29s-31 44.333 -31 75c0.666992 30.667 12 56 34 76s50 30 84 30
c14.667 0 29.334 -2.16699 44.001 -6.5s29.667 -11.166 45 -20.499c0.666992 2.66699 1 5.33398 1 8.00098v13c0 16.667 -2.16699 33.5 -6.5 50.5s-11.5 36.5 -21.5 58.5zM129.998 150.992c-19.333 0 -34.834 -5 -46.501 -15s-17.5 -24 -17.5 -42c0 -16 5.33301 -29 16 -39
s24.334 -15 41.001 -15c20 0 37.333 6.83301 52 20.5s26 33.5 34 59.5c-16 11.333 -30.167 19.333 -42.5 24s-24.5 7 -36.5 7z" />
    <glyph glyph-name="yen" unicode="&#xa5;" horiz-adv-x="613" 
d="M274 197h-187v51h187v95h-187v52h155l-227 323h78l215 -313l215 313h76l-227 -323h157v-52h-189v-95h189v-51h-189v-197h-66v197z" />
    <glyph glyph-name="section" unicode="&#xa7;" horiz-adv-x="497" 
d="M244 -10c-52 0 -98.3301 11.5 -138.997 34.5s-68.667 54.5 -84 94.5l54 36c12 -33.333 33.5 -60 64.5 -80s65.833 -30 104.5 -30c39.333 0 71 8.83301 95 26.5s36 41.167 36 70.5c0 18 -4.16699 32.667 -12.5 44s-21.833 20.666 -40.5 27.999
c-8 3.33301 -17.5 6.5 -28.5 9.5s-33.167 8.16699 -66.5 15.5c-36.667 8 -62.834 14.667 -78.501 20s-29.167 11.333 -40.5 18c-18.667 11.333 -32.667 25.5 -42 42.5s-14 37.5 -14 61.5c0 21.333 4.66699 40.833 14 58.5s23 33.167 41 46.5
c-13.333 10.667 -23.333 23.5 -30 38.5s-10 32.5 -10 52.5c0 44 17.167 80.167 51.5 108.5s77.833 42.5 130.5 42.5c45.333 0 85.666 -10.5 120.999 -31.5s59.666 -48.833 72.999 -83.5l-51 -34c-12.667 30 -31.5 53.167 -56.5 69.5s-54.5 24.5 -88.5 24.5
c-34.667 0 -62.667 -8.33301 -84 -25s-32 -39 -32 -67c0 -15.333 3.83301 -28 11.5 -38s19.834 -18.667 36.501 -26c7.33301 -3.33301 15.833 -6.33301 25.5 -9s29.167 -7.66699 58.5 -15c41.333 -9.33301 69.833 -16.666 85.5 -21.999s29.167 -11.333 40.5 -18
c20.667 -11.333 36 -26 46 -44s15 -39.333 15 -64c0 -21.333 -4.16699 -40.833 -12.5 -58.5s-20.5 -33.167 -36.5 -46.5c13.333 -10.667 23.166 -23.667 29.499 -39s9.5 -33 9.5 -53c0 -46.667 -18.333 -84.667 -55 -114s-83.667 -44 -141 -44zM164.003 320
c7.33301 -3.33301 16.167 -6.50098 26.5 -9.50098s29.5 -7.5 57.5 -13.5c30 -6.66699 52 -12 66 -16s26.333 -8 37 -12c11.333 9.33301 20 19.833 26 31.5s9 24.5 9 38.5c0 17.333 -4 31.833 -12 43.5s-21 21.167 -39 28.5c-7.33301 3.33301 -16.333 6.5 -27 9.5
s-32.334 8.16699 -65.001 15.5c-22.667 5.33301 -41 9.83301 -55 13.5s-23.667 6.5 -29 8.5c-14 -8 -24.667 -18.5 -32 -31.5s-11 -27.167 -11 -42.5s3.83301 -28.166 11.5 -38.499s19.834 -18.833 36.501 -25.5z" />
    <glyph glyph-name="dieresis" unicode="&#xa8;" horiz-adv-x="600" 
d="M257 622h-77v90h77v-90zM420 622h-77v90h77v-90z" />
    <glyph glyph-name="copyright" unicode="&#xa9;" horiz-adv-x="829" 
d="M678 622c34 -34 60 -73.5 78 -118.5s27 -93.167 27 -144.5c0 -50.667 -9.16699 -98.5 -27.5 -143.5s-44.5 -84.833 -78.5 -119.5c-34 -34 -73.667 -60.167 -119 -78.5s-93 -27.5 -143 -27.5c-50.667 0 -98.667 9.16699 -144 27.5s-85 44.5 -119 78.5
s-60.167 73.667 -78.5 119s-27.5 93.333 -27.5 144c0 51.333 9.16699 99.5 27.5 144.5s44.5 84.5 78.5 118.5s73.667 60.167 119 78.5s93.333 27.5 144 27.5s98.667 -9.16699 144 -27.5s85 -44.5 119 -78.5zM646 126c30 30.667 52.999 66 68.999 106s24 82.333 24 127
c0 45.333 -8 88 -24 128s-38.667 75 -68 105c-30 30 -65 53.167 -105 69.5s-82.333 24.5 -127 24.5s-87 -8.16699 -127 -24.5s-75 -39.5 -105 -69.5s-53 -65 -69 -105s-24 -82.667 -24 -128c0 -44.667 8 -87 24 -127s39 -75.333 69 -106c30 -30 65 -53.167 105 -69.5
s82.333 -24.5 127 -24.5s86.834 8.16699 126.501 24.5s74.5 39.5 104.5 69.5zM419.999 150c-55.333 0 -99.668 19.001 -133.001 57.001s-50 89 -50 153c0 63.333 16.833 114 50.5 152s77.834 57 132.501 57c38 0 70 -8.83301 96 -26.5s45 -43.834 57 -78.501l-55 -22
c-7.33301 24 -19.333 42.333 -36 55s-37.334 19 -62.001 19c-37.333 0 -66.833 -14 -88.5 -42s-32.5 -66 -32.5 -114s10.833 -86.167 32.5 -114.5s51.167 -42.5 88.5 -42.5c24.667 0 45.334 6.5 62.001 19.5s28.667 31.5 36 55.5l55 -22c-12 -34.667 -31 -61 -57 -79
s-58 -27 -96 -27z" />
    <glyph glyph-name="ordfeminine" unicode="&#xaa;" horiz-adv-x="400" 
d="M279 390c-12 -16.667 -28.5 -29.832 -49.5 -39.499s-43.5 -14.5 -67.5 -14.5c-36 0 -65.5 9.83301 -88.5 29.5s-34.5 45.5 -34.5 77.5c0 32.667 12.167 59 36.5 79s63.833 35.333 118.5 46l81 16v20c0 23.333 -6.66699 41.166 -20 53.499s-32.666 18.5 -57.999 18.5
c-24 0 -43.833 -5.83301 -59.5 -17.5s-26.5 -28.5 -32.5 -50.5l-55 14c9.33301 31.333 27.333 56.333 54 75s58.334 28 95.001 28c42 0 74.667 -10.167 98 -30.5s35 -49.166 35 -86.499v-192c0 -12.667 3.83301 -21.167 11.5 -25.5s18.5 -4.5 32.5 -0.5v-48
c-28.667 -4 -51.334 -1.83301 -68.001 6.5s-26.334 22.166 -29.001 41.499zM169 383.002c29.333 0 54.334 8.33203 75.001 24.999s31 37 31 61v72l-67 -14c-42.667 -8.66699 -71.834 -19.167 -87.501 -31.5s-23.5 -29.166 -23.5 -50.499c0 -18.667 6.5 -33.667 19.5 -45
s30.5 -17 52.5 -17zM371.001 214.001h-333v52h333v-52z" />
    <glyph glyph-name="guillemotleft" unicode="&#xab;" horiz-adv-x="377" 
d="M179 96l-146 142v66l146 141v-72l-97 -102l97 -102v-73zM344 96l-146 142v66l146 141v-72l-97 -102l97 -102v-73z" />
    <glyph glyph-name="registered" unicode="&#xae;" horiz-adv-x="512" 
d="M405 667c20 -19.333 35.168 -41.8311 45.501 -67.498s15.5 -52.834 15.5 -81.501s-5.16699 -55.834 -15.5 -81.501s-25.5 -48.167 -45.5 -67.5c-19.333 -19.333 -41.833 -34.166 -67.5 -44.499s-52.834 -15.5 -81.501 -15.5s-55.834 5.16699 -81.501 15.5
s-48.167 25.166 -67.5 44.499c-20 19.333 -35.167 41.833 -45.5 67.5s-15.5 52.834 -15.5 81.501c0 29.333 5.16699 56.833 15.5 82.5s25.166 48.167 44.499 67.5c20 19.333 42.833 34.166 68.5 44.499s52.834 15.5 81.501 15.5s55.834 -5.16699 81.501 -15.5
s48.167 -25.5 67.5 -45.5zM384.001 389.002c16.667 16.667 29.5 36.167 38.5 58.5s13.5 45.833 13.5 70.5s-4.5 48.167 -13.5 70.5s-21.5 42.166 -37.5 59.499c-16.667 16.667 -36.167 29.667 -58.5 39s-45.833 14 -70.5 14s-48.167 -4.66699 -70.5 -14
s-41.833 -22.333 -58.5 -39c-16 -17.333 -28.5 -37.166 -37.5 -59.499s-13.5 -45.833 -13.5 -70.5s4.5 -48.167 13.5 -70.5s21.833 -41.833 38.5 -58.5c16.667 -17.333 36 -30.5 58 -39.5s45.333 -13.5 70 -13.5s48 4.5 70 13.5s41.333 22.167 58 39.5zM290.001 504.002
l61.999 -87.999h-46l-56 81h-39v-81h-40v211h94c24.667 0 43.834 -5.5 57.501 -16.5s20.5 -26.833 20.5 -47.5c0 -14.667 -4.83301 -27.334 -14.5 -38.001s-22.5 -17.667 -38.5 -21zM302 561.003c0 11.333 -3.66699 19.832 -11 25.499s-18 8.5 -32 8.5h-48v-67h48
c14 0 24.667 2.83301 32 8.5s11 13.834 11 24.501z" />
    <glyph glyph-name="macron" unicode="&#xaf;" horiz-adv-x="600" 
d="M429 667v-53h-258v53h258z" />
    <glyph glyph-name="degree" unicode="&#xb0;" horiz-adv-x="313" 
d="M23 594c0 37.333 12.833 69 38.5 95s57.167 39 94.5 39s69 -13 95 -39s39 -57.667 39 -95s-13 -69.166 -39 -95.499s-57.667 -39.5 -95 -39.5c-36.667 0 -68 13.167 -94 39.5s-39 58.166 -39 95.499zM72 594c0 -23.333 8.16699 -43.166 24.5 -59.499
s36.166 -24.5 59.499 -24.5s43 8.16699 59 24.5s24 36.166 24 59.499s-8 43.166 -24 59.499s-35.667 24.5 -59 24.5s-43.166 -8.16699 -59.499 -24.5s-24.5 -36.166 -24.5 -59.499z" />
    <glyph glyph-name="uni00B2" unicode="&#xb2;" 
d="M49 320l0.000976562 47l133 106c29.333 24 49.833 45 61.5 63s17.5 37.667 17.5 59c0 23.333 -7 42 -21 56s-32.667 21 -56 21c-22.667 0 -41.167 -7.16699 -55.5 -21.5s-21.5 -32.5 -21.5 -54.5c0 -8.66699 1 -17.167 3 -25.5s4.66699 -15.5 8 -21.5h-57
c-2.66699 8 -4.83398 16.333 -6.50098 25s-2.5 16.667 -2.5 24c0 35.333 12.833 65 38.5 89s57.167 36 94.5 36c40 0 72 -11.333 96 -34s36 -52.667 36 -90c0 -28.667 -7.5 -55.167 -22.5 -79.5s-39.833 -49.833 -74.5 -76.5l-92 -73h200v-50h-279z" />
    <glyph glyph-name="uni00B3" unicode="&#xb3;" 
d="M329 431c0 -34 -12.668 -62.002 -38.001 -84.002s-58.333 -33 -99 -33s-74.167 10.667 -100.5 32s-42.5 51 -48.5 89l57 12c3.33301 -25.333 13.333 -45.666 30 -60.999s37 -23 61 -23c24.667 0 44.5 6.66699 59.5 20s22.5 31 22.5 53
c0 20.667 -7.66699 37.334 -23 50.001s-35 19 -59 19h-44v43h43c22 0 40.167 5.66699 54.5 17s21.5 26 21.5 44c0 20 -6.66699 35.833 -20 47.5s-31 17.5 -53 17.5c-21.333 0 -39.833 -6.66699 -55.5 -20s-25.5 -31 -29.5 -53l-55 7c6 34 22 61.667 48 83s57.333 32 94 32
c38.667 0 69.5 -10.167 92.5 -30.5s34.5 -46.833 34.5 -79.5c0 -20.667 -7.16699 -39.167 -21.5 -55.5s-32.166 -26.5 -53.499 -30.5c24.667 -4.66699 44.5 -15.5 59.5 -32.5s22.5 -38.167 22.5 -63.5z" />
    <glyph glyph-name="acute" unicode="&#xb4;" horiz-adv-x="600" 
d="M275 580h-52l58 138h84z" />
    <glyph glyph-name="paragraph" unicode="&#xb6;" horiz-adv-x="559" 
d="M433 0l-67 0.000976562v658h-72v-277h-60c-58.667 0 -105.667 15.167 -141 45.5s-53 71.166 -53 122.499c0 50.667 18 91.5 54 122.5s84 46.5 144 46.5h280v-60h-85v-658z" />
    <glyph glyph-name="periodcentered" unicode="&#xb7;" horiz-adv-x="208" 
d="M149 243h-89v96h89v-96z" />
    <glyph glyph-name="cedilla" unicode="&#xb8;" horiz-adv-x="600" 
d="M395 -110c0 -23.333 -9.66895 -42.5 -29.002 -57.5s-43.333 -22.5 -72 -22.5c-20.667 0 -39.5 3.66699 -56.5 11s-30.833 17.333 -41.5 30l29 36c10 -12 20.333 -20.833 31 -26.5s22.334 -8.5 35.001 -8.5c16.667 0 29.667 3.5 39 10.5s14 16.833 14 29.5
c0 14 -6.83301 24.5 -20.5 31.5s-35.167 11.167 -64.5 12.5l22 73h39l-12 -42c26.667 -2 47.834 -10 63.501 -24s23.5 -31.667 23.5 -53z" />
    <glyph glyph-name="uni00B9" unicode="&#xb9;" 
d="M175 370v242.001h-104v40l48 2c26 1.33301 43.833 6.66602 53.5 15.999s15.5 26.333 17.5 51h43v-351h91v-50h-252v50h103z" />
    <glyph glyph-name="ordmasculine" unicode="&#xba;" horiz-adv-x="433" 
d="M217 725c50.667 0 91.834 -18 123.501 -54s47.5 -83 47.5 -141c0 -57.333 -15.833 -104 -47.5 -140s-72.834 -54 -123.501 -54s-91.834 18 -123.501 54s-47.5 82.667 -47.5 140c0 58 15.833 105 47.5 141s72.834 54 123.501 54zM217 676
c-34.667 0 -62.334 -13.167 -83.001 -39.5s-31 -61.833 -31 -106.5c0 -44 10.333 -79.167 31 -105.5s48.334 -39.5 83.001 -39.5c34 0 61.5 13.167 82.5 39.5s31.5 61.5 31.5 105.5s-10.5 79.333 -31.5 106s-48.5 40 -82.5 40zM376 214h-319v52h319v-52z" />
    <glyph glyph-name="guillemotright" unicode="&#xbb;" horiz-adv-x="377" 
d="M344 304v-66l-146 -142v73l97 102l-97 102v72zM179 304v-66l-146 -142v73l97 102l-97 102v72z" />
    <glyph glyph-name="onequarter" unicode="&#xbc;" horiz-adv-x="882" 
d="M775 104v-104h-53v104h-197v43l178 251h72v-248h82v-46h-82zM721 350l-143 -200h143v200zM183 0l519 718h62l-518 -718h-63zM175 370v242.001h-104v40l48 2c26 1.33301 43.833 6.66602 53.5 15.999s15.5 26.333 17.5 51h43v-351h91v-50h-252v50h103z" />
    <glyph glyph-name="onehalf" unicode="&#xbd;" horiz-adv-x="902" 
d="M183 0l519 718h62l-518 -718h-63zM592 0l0.000976562 47l133 106c29.333 24 49.833 45 61.5 63s17.5 37.667 17.5 59c0 23.333 -7 42 -21 56s-32.667 21 -56 21c-22.667 0 -41.167 -7.16699 -55.5 -21.5s-21.5 -32.5 -21.5 -54.5c0 -8.66699 1 -17.167 3 -25.5
s4.66699 -15.5 8 -21.5h-57c-2.66699 8 -4.83398 16.333 -6.50098 25s-2.5 16.667 -2.5 24c0 35.333 12.833 65 38.5 89s57.167 36 94.5 36c40 0 72 -11.333 96 -34s36 -52.667 36 -90c0 -28.667 -7.5 -55.167 -22.5 -79.5s-39.833 -49.833 -74.5 -76.5l-92 -73h200v-50
h-279zM175.001 370v242.001h-104v40l48 2c26 1.33301 43.833 6.66602 53.5 15.999s15.5 26.333 17.5 51h43v-351h91v-50h-252v50h103z" />
    <glyph glyph-name="threequarters" unicode="&#xbe;" horiz-adv-x="862" 
d="M771 104v-104h-53v104h-197v43l178 251h72v-248h82v-46h-82zM717 350l-143 -200h143v200zM179 0l519 718h62l-518 -718h-63zM329 431c0 -34 -12.668 -62.002 -38.001 -84.002s-58.333 -33 -99 -33s-74.167 10.667 -100.5 32s-42.5 51 -48.5 89l57 12
c3.33301 -25.333 13.333 -45.666 30 -60.999s37 -23 61 -23c24.667 0 44.5 6.66699 59.5 20s22.5 31 22.5 53c0 20.667 -7.66699 37.334 -23 50.001s-35 19 -59 19h-44v43h43c22 0 40.167 5.66699 54.5 17s21.5 26 21.5 44c0 20 -6.66699 35.833 -20 47.5s-31 17.5 -53 17.5
c-21.333 0 -39.833 -6.66699 -55.5 -20s-25.5 -31 -29.5 -53l-55 7c6 34 22 61.667 48 83s57.333 32 94 32c38.667 0 69.5 -10.167 92.5 -30.5s34.5 -46.833 34.5 -79.5c0 -20.667 -7.16699 -39.167 -21.5 -55.5s-32.166 -26.5 -53.499 -30.5
c24.667 -4.66699 44.5 -15.5 59.5 -32.5s22.5 -38.167 22.5 -63.5z" />
    <glyph glyph-name="questiondown" unicode="&#xbf;" horiz-adv-x="512" 
d="M93.0254 203.031c0 -44.6631 14.668 -80.6631 43.999 -107.995c29.332 -27.3311 67.6631 -40.9971 114.993 -40.9971c48.6641 0 88.9951 14.499 120.993 43.4971s51.9971 69.4951 59.9961 121.492l65.9961 -12.999c-9.33301 -63.9961 -36.665 -115.326 -81.9961 -153.99
s-101.328 -57.9961 -167.991 -57.9961c-31.3311 0 -60.4961 4.66602 -87.4941 13.999c-26.999 9.33301 -50.8311 22.999 -71.4961 40.998c-21.332 18.665 -37.8311 40.9971 -49.4971 66.9961c-11.665 25.998 -17.498 53.9961 -17.498 83.9951
c0 27.3311 5.16602 53.3291 15.499 77.9941s25.499 46.6641 45.498 65.9971c18.665 17.999 40.3301 32.665 64.9951 43.998s50.6631 18.333 77.9951 21v103.993h63.9961v-152.99c-59.3301 0 -107.16 -14.333 -143.491 -42.998s-54.4971 -66.6631 -54.4971 -113.994z
M214.021 721.998h88.9941v-95.9941h-88.9941v95.9941z" />
    <glyph glyph-name="Agrave" unicode="&#xc0;" horiz-adv-x="678" 
d="M22 0l279 718h76l280 -718h-72l-81 209h-331l-81 -209h-70zM480 270l-142 368l-142 -368h284zM256 913l110 -143h-54l-150 143h94z" />
    <glyph glyph-name="Aacute" unicode="&#xc1;" horiz-adv-x="678" 
d="M22 0l279 718h76l280 -718h-72l-81 209h-331l-81 -209h-70zM480 270l-142 368l-142 -368h284zM360 770h-54l110 143h94z" />
    <glyph glyph-name="Acircumflex" unicode="&#xc2;" horiz-adv-x="678" 
d="M22 0l279 718h76l280 -718h-72l-81 209h-331l-81 -209h-70zM480 270l-142 368l-142 -368h284zM298 913h82l118 -143h-55l-104 99l-104 -99h-55z" />
    <glyph glyph-name="Atilde" unicode="&#xc3;" horiz-adv-x="678" 
d="M22 0l279 718h76l280 -718h-72l-81 209h-331l-81 -209h-70zM480 270l-142 368l-142 -368h284zM267 897c12 0 24 -2.66699 36 -8s27.667 -16 47 -32c14.667 -12.667 26 -21 34 -25s15.667 -6 23 -6c16 0 28.5 5.66699 37.5 17s15.167 29.333 18.5 54h49
c-3.33301 -40 -13.833 -71 -31.5 -93s-41.167 -33 -70.5 -33c-12 0 -23.833 2.5 -35.5 7.5s-26.834 15.5 -45.501 31.5c-15.333 13.333 -27 21.833 -35 25.5s-15.667 5.5 -23 5.5c-16.667 0 -29.5 -5.83301 -38.5 -17.5s-14.833 -29.5 -17.5 -53.5h-49
c3.33301 40 13.833 71.167 31.5 93.5s40.834 33.5 69.501 33.5z" />
    <glyph glyph-name="Adieresis" unicode="&#xc4;" horiz-adv-x="678" 
d="M22 0l279 718h76l280 -718h-72l-81 209h-331l-81 -209h-70zM480 270l-142 368l-142 -368h284zM294 776h-76v89h76v-89zM460 776h-76v89h76v-89z" />
    <glyph glyph-name="Aring" unicode="&#xc5;" horiz-adv-x="678" 
d="M232 791c0 29.333 10.333 54 31 74s46 30 76 30s55.333 -10 76 -30s31 -44.667 31 -74c0 -20.667 -5.5 -39.5 -16.5 -56.5s-25.833 -29.833 -44.5 -38.5l272 -696h-72l-81 209h-331l-81 -209h-70l271 696c-18.667 8.66699 -33.5 21.5 -44.5 38.5s-16.5 35.833 -16.5 56.5
zM339 851c-16.667 0 -30.667 -5.83301 -42 -17.5s-17 -25.834 -17 -42.501c0 -17.333 5.66699 -31.833 17 -43.5s25.333 -17.5 42 -17.5s30.667 5.83301 42 17.5s17 26.167 17 43.5c0 16.667 -5.66699 30.834 -17 42.501s-25.333 17.5 -42 17.5zM480 270l-142 368l-142 -368
h284z" />
    <glyph glyph-name="AE" unicode="&#xc6;" horiz-adv-x="1032" 
d="M18 0l469 718h493v-61h-386v-255h328v-61h-328v-280h386v-61h-455v212h-292l-138 -212h-77zM525 661l-252 -387h252v387z" />
    <glyph glyph-name="Ccedilla" unicode="&#xc7;" horiz-adv-x="653" 
d="M172 568c-19.333 -27.333 -34.168 -58.8291 -44.501 -94.4961s-15.5 -73.834 -15.5 -114.501s5.16699 -78.834 15.5 -114.501s25.166 -67.167 44.499 -94.5c22.667 -31.333 50.167 -55.5 82.5 -72.5s67.5 -25.5 105.5 -25.5c48.667 0 90.5 13.333 125.5 40
s60.167 64 75.5 112l67 -21c-21.333 -61.333 -55.333 -108.833 -102 -142.5s-102 -50.5 -166 -50.5h-2.5h-3.5l-7 -23c26.667 -2 47.834 -10 63.501 -24s23.5 -31.667 23.5 -53c0 -23.333 -9.66699 -42.5 -29 -57.5s-43.333 -22.5 -72 -22.5
c-20.667 0 -39.5 3.66699 -56.5 11s-30.833 17.333 -41.5 30l29 36c10 -12 20.333 -20.833 31 -26.5s22.334 -8.5 35.001 -8.5c16.667 0 29.667 3.5 39 10.5s14 16.833 14 29.5c0 14 -6.83301 24.5 -20.5 31.5s-35.167 11.167 -64.5 12.5l17 57
c-42 6 -80.5 20.167 -115.5 42.5s-64.833 51.166 -89.5 86.499c-22 32 -38.667 68.167 -50 108.5s-17 83.166 -17 128.499c0 50 6.83301 96.667 20.5 140s33.5 81.666 59.5 114.999c29.333 36.667 64.333 64.834 105 84.501s84.667 29.5 132 29.5
c64 0 119.333 -16.833 166 -50.5s80.667 -81.167 102 -142.5l-67 -21c-15.333 48 -40.5 85.333 -75.5 112s-76.833 40 -125.5 40c-38 0 -73.167 -8.5 -105.5 -25.5s-59.833 -41.167 -82.5 -72.5z" />
    <glyph glyph-name="Egrave" unicode="&#xc8;" horiz-adv-x="596" 
d="M88 0v718h455v-61h-385v-255h327v-61h-327v-280h385v-61h-455zM263 913l110 -143h-54l-150 143h94z" />
    <glyph glyph-name="Eacute" unicode="&#xc9;" horiz-adv-x="596" 
d="M88 0v718h455v-61h-385v-255h327v-61h-327v-280h385v-61h-455zM308 770h-54l110 143h94z" />
    <glyph glyph-name="Ecircumflex" unicode="&#xca;" horiz-adv-x="596" 
d="M88 0v718h455v-61h-385v-255h327v-61h-327v-280h385v-61h-455zM280 913h82l118 -143h-55l-104 99l-104 -99h-55z" />
    <glyph glyph-name="Edieresis" unicode="&#xcb;" horiz-adv-x="596" 
d="M88 0v718h455v-61h-385v-255h327v-61h-327v-280h385v-61h-455zM272 776h-76v89h76v-89zM438 776h-76v89h76v-89z" />
    <glyph glyph-name="Igrave" unicode="&#xcc;" horiz-adv-x="247" 
d="M88 718h70v-718h-70v718zM46 913l110 -143h-54l-150 143h94z" />
    <glyph glyph-name="Iacute" unicode="&#xcd;" horiz-adv-x="247" 
d="M88 718h70v-718h-70v718zM148 770h-54l110 143h94z" />
    <glyph glyph-name="Icircumflex" unicode="&#xce;" horiz-adv-x="247" 
d="M88 718h70v-718h-70v718zM83 913h82l118 -143h-55l-104 99l-104 -99h-55z" />
    <glyph glyph-name="Idieresis" unicode="&#xcf;" horiz-adv-x="247" 
d="M88 718h70v-718h-70v718zM78 776h-76v89h76v-89zM244 776h-76v89h76v-89z" />
    <glyph glyph-name="Eth" unicode="&#xd0;" horiz-adv-x="712" 
d="M316 0l-218 -0.00195312v340h-72v62h72v316h218c53.333 0 101.833 -8.33301 145.5 -25s81.167 -41.334 112.5 -74.001c31.333 -31.333 55 -69.166 71 -113.499s24 -93.166 24 -146.499s-8 -102.166 -24 -146.499s-39.667 -82.166 -71 -113.499
c-31.333 -32.667 -68.833 -57.334 -112.5 -74.001s-92.167 -25 -145.5 -25zM167 339.998l-0.000976562 -279h149c86.667 0 155.667 27 207 81s77 126.333 77 217c0 91.333 -25.667 163.833 -77 217.5s-120.666 80.5 -207.999 80.5h-148v-255h157v-62h-157z" />
    <glyph glyph-name="Ntilde" unicode="&#xd1;" horiz-adv-x="724" 
d="M567 718h68v-718h-60l-419 619v-619h-68v718h77l402 -596v596zM294 897c12 0 24 -2.66699 36 -8s27.667 -16 47 -32c14.667 -12.667 26 -21 34 -25s15.667 -6 23 -6c16 0 28.5 5.66699 37.5 17s15.167 29.333 18.5 54h49c-3.33301 -40 -13.833 -71 -31.5 -93
s-41.167 -33 -70.5 -33c-12 0 -23.833 2.5 -35.5 7.5s-26.834 15.5 -45.501 31.5c-15.333 13.333 -27 21.833 -35 25.5s-15.667 5.5 -23 5.5c-16.667 0 -29.5 -5.83301 -38.5 -17.5s-14.833 -29.5 -17.5 -53.5h-49c3.33301 40 13.833 71.167 31.5 93.5
s40.834 33.5 69.501 33.5z" />
    <glyph glyph-name="Ograve" unicode="&#xd2;" horiz-adv-x="722" 
d="M124 104c-26.667 32.667 -46.834 70.834 -60.501 114.501s-20.5 90.5 -20.5 140.5s6.83301 96.833 20.5 140.5s33.834 81.834 60.501 114.501c28.667 36.667 63.5 64.834 104.5 84.501s85.167 29.5 132.5 29.5s91.5 -9.83301 132.5 -29.5s76.167 -47.834 105.5 -84.501
c26 -32.667 46 -70.834 60 -114.501s21 -90.5 21 -140.5s-7 -96.833 -21 -140.5s-34 -81.834 -60 -114.501c-29.333 -36.667 -64.5 -64.834 -105.5 -84.501s-85.167 -29.5 -132.5 -29.5s-91.5 9.83301 -132.5 29.5s-75.833 47.834 -104.5 84.501zM550 149
c19.333 27.333 34.166 58.835 44.499 94.502s15.5 74.167 15.5 115.5s-5.16699 79.833 -15.5 115.5s-25.166 67.167 -44.499 94.5c-22.667 31.333 -50.167 55.333 -82.5 72s-67.833 25 -106.5 25s-74.167 -8.33301 -106.5 -25s-59.833 -41 -82.5 -73
c-19.333 -27.333 -34.166 -58.833 -44.499 -94.5s-15.5 -73.834 -15.5 -114.501s5.16699 -78.834 15.5 -114.501s25.166 -67.167 44.499 -94.5c22.667 -32 50.167 -56.333 82.5 -73s67.833 -25 106.5 -25s74.167 8.33301 106.5 25s59.833 40.667 82.5 72zM303 913.002
l110 -143h-54l-150 143h94z" />
    <glyph glyph-name="Oacute" unicode="&#xd3;" horiz-adv-x="722" 
d="M124 104c-26.667 32.667 -46.834 70.834 -60.501 114.501s-20.5 90.5 -20.5 140.5s6.83301 96.833 20.5 140.5s33.834 81.834 60.501 114.501c28.667 36.667 63.5 64.834 104.5 84.501s85.167 29.5 132.5 29.5s91.5 -9.83301 132.5 -29.5s76.167 -47.834 105.5 -84.501
c26 -32.667 46 -70.834 60 -114.501s21 -90.5 21 -140.5s-7 -96.833 -21 -140.5s-34 -81.834 -60 -114.501c-29.333 -36.667 -64.5 -64.834 -105.5 -84.501s-85.167 -29.5 -132.5 -29.5s-91.5 9.83301 -132.5 29.5s-75.833 47.834 -104.5 84.501zM550 149
c19.333 27.333 34.166 58.835 44.499 94.502s15.5 74.167 15.5 115.5s-5.16699 79.833 -15.5 115.5s-25.166 67.167 -44.499 94.5c-22.667 31.333 -50.167 55.333 -82.5 72s-67.833 25 -106.5 25s-74.167 -8.33301 -106.5 -25s-59.833 -41 -82.5 -73
c-19.333 -27.333 -34.166 -58.833 -44.499 -94.5s-15.5 -73.834 -15.5 -114.501s5.16699 -78.834 15.5 -114.501s25.166 -67.167 44.499 -94.5c22.667 -32 50.167 -56.333 82.5 -73s67.833 -25 106.5 -25s74.167 8.33301 106.5 25s59.833 40.667 82.5 72zM391 770.002h-54
l110 143h94z" />
    <glyph glyph-name="Ocircumflex" unicode="&#xd4;" horiz-adv-x="722" 
d="M124 104c-26.667 32.667 -46.834 70.834 -60.501 114.501s-20.5 90.5 -20.5 140.5s6.83301 96.833 20.5 140.5s33.834 81.834 60.501 114.501c28.667 36.667 63.5 64.834 104.5 84.501s85.167 29.5 132.5 29.5s91.5 -9.83301 132.5 -29.5s76.167 -47.834 105.5 -84.501
c26 -32.667 46 -70.834 60 -114.501s21 -90.5 21 -140.5s-7 -96.833 -21 -140.5s-34 -81.834 -60 -114.501c-29.333 -36.667 -64.5 -64.834 -105.5 -84.501s-85.167 -29.5 -132.5 -29.5s-91.5 9.83301 -132.5 29.5s-75.833 47.834 -104.5 84.501zM550 149
c19.333 27.333 34.166 58.835 44.499 94.502s15.5 74.167 15.5 115.5s-5.16699 79.833 -15.5 115.5s-25.166 67.167 -44.499 94.5c-22.667 31.333 -50.167 55.333 -82.5 72s-67.833 25 -106.5 25s-74.167 -8.33301 -106.5 -25s-59.833 -41 -82.5 -73
c-19.333 -27.333 -34.166 -58.833 -44.499 -94.5s-15.5 -73.834 -15.5 -114.501s5.16699 -78.834 15.5 -114.501s25.166 -67.167 44.499 -94.5c22.667 -32 50.167 -56.333 82.5 -73s67.833 -25 106.5 -25s74.167 8.33301 106.5 25s59.833 40.667 82.5 72zM320 913.002h82
l118 -143h-55l-104 99l-104 -99h-55z" />
    <glyph glyph-name="Otilde" unicode="&#xd5;" horiz-adv-x="722" 
d="M124 104c-26.667 32.667 -46.834 70.834 -60.501 114.501s-20.5 90.5 -20.5 140.5s6.83301 96.833 20.5 140.5s33.834 81.834 60.501 114.501c28.667 36.667 63.5 64.834 104.5 84.501s85.167 29.5 132.5 29.5s91.5 -9.83301 132.5 -29.5s76.167 -47.834 105.5 -84.501
c26 -32.667 46 -70.834 60 -114.501s21 -90.5 21 -140.5s-7 -96.833 -21 -140.5s-34 -81.834 -60 -114.501c-29.333 -36.667 -64.5 -64.834 -105.5 -84.501s-85.167 -29.5 -132.5 -29.5s-91.5 9.83301 -132.5 29.5s-75.833 47.834 -104.5 84.501zM550 149
c19.333 27.333 34.166 58.835 44.499 94.502s15.5 74.167 15.5 115.5s-5.16699 79.833 -15.5 115.5s-25.166 67.167 -44.499 94.5c-22.667 31.333 -50.167 55.333 -82.5 72s-67.833 25 -106.5 25s-74.167 -8.33301 -106.5 -25s-59.833 -41 -82.5 -73
c-19.333 -27.333 -34.166 -58.833 -44.499 -94.5s-15.5 -73.834 -15.5 -114.501s5.16699 -78.834 15.5 -114.501s25.166 -67.167 44.499 -94.5c22.667 -32 50.167 -56.333 82.5 -73s67.833 -25 106.5 -25s74.167 8.33301 106.5 25s59.833 40.667 82.5 72zM289 897.002
c12 0 24 -2.66699 36 -8s27.667 -16 47 -32c14.667 -12.667 26 -21 34 -25s15.667 -6 23 -6c16 0 28.5 5.66699 37.5 17s15.167 29.333 18.5 54h49c-3.33301 -40 -13.833 -71 -31.5 -93s-41.167 -33 -70.5 -33c-12 0 -23.833 2.5 -35.5 7.5s-26.834 15.5 -45.501 31.5
c-15.333 13.333 -27 21.833 -35 25.5s-15.667 5.5 -23 5.5c-16.667 0 -29.5 -5.83301 -38.5 -17.5s-14.833 -29.5 -17.5 -53.5h-49c3.33301 40 13.833 71.167 31.5 93.5s40.834 33.5 69.501 33.5z" />
    <glyph glyph-name="Odieresis" unicode="&#xd6;" horiz-adv-x="722" 
d="M124 104c-26.667 32.667 -46.834 70.834 -60.501 114.501s-20.5 90.5 -20.5 140.5s6.83301 96.833 20.5 140.5s33.834 81.834 60.501 114.501c28.667 36.667 63.5 64.834 104.5 84.501s85.167 29.5 132.5 29.5s91.5 -9.83301 132.5 -29.5s76.167 -47.834 105.5 -84.501
c26 -32.667 46 -70.834 60 -114.501s21 -90.5 21 -140.5s-7 -96.833 -21 -140.5s-34 -81.834 -60 -114.501c-29.333 -36.667 -64.5 -64.834 -105.5 -84.501s-85.167 -29.5 -132.5 -29.5s-91.5 9.83301 -132.5 29.5s-75.833 47.834 -104.5 84.501zM550 149
c19.333 27.333 34.166 58.835 44.499 94.502s15.5 74.167 15.5 115.5s-5.16699 79.833 -15.5 115.5s-25.166 67.167 -44.499 94.5c-22.667 31.333 -50.167 55.333 -82.5 72s-67.833 25 -106.5 25s-74.167 -8.33301 -106.5 -25s-59.833 -41 -82.5 -73
c-19.333 -27.333 -34.166 -58.833 -44.499 -94.5s-15.5 -73.834 -15.5 -114.501s5.16699 -78.834 15.5 -114.501s25.166 -67.167 44.499 -94.5c22.667 -32 50.167 -56.333 82.5 -73s67.833 -25 106.5 -25s74.167 8.33301 106.5 25s59.833 40.667 82.5 72zM316 776.002h-76
v89h76v-89zM482 776.002h-76v89h76v-89z" />
    <glyph glyph-name="multiply" unicode="&#xd7;" horiz-adv-x="608" 
d="M87 164l177 176l-177 178l41 40l176 -176l175 176l42 -41l-175 -177l175 -176l-42 -41l-175 176l-176 -177z" />
    <glyph glyph-name="Oslash" unicode="&#xd8;" horiz-adv-x="722" 
d="M96 -12l-43.002 34.001l69 83c-26 32.667 -45.667 70.667 -59 114s-20 90 -20 140s6.83301 96.833 20.5 140.5s33.834 81.834 60.501 114.501c28.667 36.667 63.5 64.834 104.5 84.501s85.167 29.5 132.5 29.5c40.667 0 78.834 -7 114.501 -21s67.5 -34.667 95.5 -62
l62 74l43 -34l-68 -82c23.333 -32.667 41.166 -69.834 53.499 -111.501s18.5 -85.834 18.5 -132.501c0 -50 -7 -96.833 -21 -140.5s-34 -81.834 -60 -114.501c-29.333 -36.667 -64.5 -64.834 -105.5 -84.501s-85.167 -29.5 -132.5 -29.5c-38 0 -74.167 6.33301 -108.5 19
s-65.166 31.334 -92.499 56.001zM171.998 568.001c-19.333 -27.333 -34.165 -58.8311 -44.498 -94.498s-15.5 -73.834 -15.5 -114.501c0 -38.667 4.66699 -75.167 14 -109.5s22.666 -64.833 39.999 -91.5l363 436c-22 23.333 -47.333 41.166 -76 53.499
s-59.334 18.5 -92.001 18.5c-38.667 0 -74.167 -8.33301 -106.5 -25s-59.833 -41 -82.5 -73zM549.999 149.003c19.333 27.333 34.168 58.834 44.501 94.501s15.5 74.167 15.5 115.5c0 36 -4 70.167 -12 102.5s-19.667 61.5 -35 87.5l-361 -434
c21.333 -20.667 45.666 -36.334 72.999 -47.001s56 -16 86 -16c38.667 0 74.167 8.33301 106.5 25s59.833 40.667 82.5 72z" />
    <glyph glyph-name="Ugrave" unicode="&#xd9;" horiz-adv-x="700" 
d="M350 -9c-85.333 0 -152.67 25.833 -202.003 77.5s-74 123.5 -74 215.5v434h69v-432c0 -74 18.333 -131.167 55 -171.5s87.334 -60.5 152.001 -60.5s115.334 20.167 152.001 60.5s55 97.5 55 171.5v432h69v-434c0 -92 -24.667 -163.833 -74 -215.5
s-116.666 -77.5 -201.999 -77.5zM298.996 913l110 -143h-54l-150 143h94z" />
    <glyph glyph-name="Uacute" unicode="&#xda;" horiz-adv-x="700" 
d="M350 -9c-85.333 0 -152.67 25.833 -202.003 77.5s-74 123.5 -74 215.5v434h69v-432c0 -74 18.333 -131.167 55 -171.5s87.334 -60.5 152.001 -60.5s115.334 20.167 152.001 60.5s55 97.5 55 171.5v432h69v-434c0 -92 -24.667 -163.833 -74 -215.5
s-116.666 -77.5 -201.999 -77.5zM349.996 770h-54l110 143h94z" />
    <glyph glyph-name="Ucircumflex" unicode="&#xdb;" horiz-adv-x="700" 
d="M350 -9c-85.333 0 -152.67 25.833 -202.003 77.5s-74 123.5 -74 215.5v434h69v-432c0 -74 18.333 -131.167 55 -171.5s87.334 -60.5 152.001 -60.5s115.334 20.167 152.001 60.5s55 97.5 55 171.5v432h69v-434c0 -92 -24.667 -163.833 -74 -215.5
s-116.666 -77.5 -201.999 -77.5zM308.996 913h82l118 -143h-55l-104 99l-104 -99h-55z" />
    <glyph glyph-name="Udieresis" unicode="&#xdc;" horiz-adv-x="700" 
d="M350 -9c-85.333 0 -152.67 25.833 -202.003 77.5s-74 123.5 -74 215.5v434h69v-432c0 -74 18.333 -131.167 55 -171.5s87.334 -60.5 152.001 -60.5s115.334 20.167 152.001 60.5s55 97.5 55 171.5v432h69v-434c0 -92 -24.667 -163.833 -74 -215.5
s-116.666 -77.5 -201.999 -77.5zM304.996 776h-76v89h76v-89zM470.996 776h-76v89h76v-89z" />
    <glyph glyph-name="Yacute" unicode="&#xdd;" horiz-adv-x="609" 
d="M85 718l220 -348l221 348h74l-261 -410v-308h-69v308l-262 410h77zM310 770h-54l110 143h94z" />
    <glyph glyph-name="Thorn" unicode="&#xde;" horiz-adv-x="619" 
d="M591 379c0 -62.667 -21.167 -111.501 -63.5 -146.501s-100.833 -52.5 -175.5 -52.5h-194v-180h-70v718h70v-141h194c76 0 134.833 -17.167 176.5 -51.5s62.5 -83.166 62.5 -146.499zM347 517.999h-189v-279h189c56 0 99.167 12.167 129.5 36.5s45.5 58.833 45.5 103.5
s-15.167 79 -45.5 103s-73.5 36 -129.5 36z" />
    <glyph glyph-name="germandbls" unicode="&#xdf;" horiz-adv-x="573" 
d="M297 728c56 0 101.331 -15.499 135.998 -46.499s52 -71.5 52 -121.5c0 -37.333 -9.66699 -69.166 -29 -95.499s-46.333 -44.833 -81 -55.5c51.333 -10 91.5 -32.5 120.5 -67.5s43.5 -78.833 43.5 -131.5c0 -32.667 -5.5 -62.334 -16.5 -89.001s-27.167 -49.667 -48.5 -69
c-20.667 -18.667 -45 -33 -73 -43s-57.667 -15 -89 -15c-17.333 0 -33.666 0.833008 -48.999 2.5s-29.333 4.16699 -42 7.5v59c12.667 -4.66699 26 -8 40 -10s29 -3 45 -3c50 0 90.333 14.333 121 43s46 68 46 118c0 52 -16.833 92.167 -50.5 120.5
s-81.167 42.5 -142.5 42.5h-49v58h45c44 0 79 11.333 105 34s39 52.667 39 90c0 34.667 -11.333 62.5 -34 83.5s-53 31.5 -91 31.5c-45.333 0 -80.833 -15.333 -106.5 -46s-38.5 -73.334 -38.5 -128.001v-497h-66v501c0 68.667 19.333 123.667 58 165s90.334 62 155.001 62z
" />
    <glyph glyph-name="agrave" unicode="&#xe0;" horiz-adv-x="522" 
d="M374 68c-16.667 -23.333 -40.002 -42.1689 -70.002 -56.502s-62 -21.5 -96 -21.5c-49.333 0 -89.666 13.5 -120.999 40.5s-47 62.833 -47 107.5c0 45.333 16.833 82 50.5 110s89.167 49.667 166.5 65l113 23v32c0 34.667 -9.83301 60.834 -29.5 78.501
s-48.167 26.5 -85.5 26.5c-36 0 -65.5 -8.5 -88.5 -25.5s-38.833 -41.833 -47.5 -74.5l-63 19c12.667 42.667 37 76.667 73 102s78.667 38 128 38c56.667 0 100.667 -14 132 -42s47 -67.667 47 -119v-278c0 -17.333 6 -29.5 18 -36.5s27.667 -7.5 47 -1.5v-56
c-39.333 -5.33301 -69.666 -2.16602 -90.999 9.50098s-33.333 31.5 -36 59.5zM214.998 44.9971c43.333 0 79.999 12.499 109.999 37.499s45 55.167 45 90.5v110l-94 -20c-65.333 -13.333 -109.833 -29.166 -133.5 -47.499s-35.5 -43.833 -35.5 -76.5
c0 -28.667 9.83301 -51.5 29.5 -68.5s45.834 -25.5 78.501 -25.5zM229.997 717.996l58 -138h-52l-90 138h84z" />
    <glyph glyph-name="aacute" unicode="&#xe1;" horiz-adv-x="522" 
d="M374 68c-16.667 -23.333 -40.002 -42.1689 -70.002 -56.502s-62 -21.5 -96 -21.5c-49.333 0 -89.666 13.5 -120.999 40.5s-47 62.833 -47 107.5c0 45.333 16.833 82 50.5 110s89.167 49.667 166.5 65l113 23v32c0 34.667 -9.83301 60.834 -29.5 78.501
s-48.167 26.5 -85.5 26.5c-36 0 -65.5 -8.5 -88.5 -25.5s-38.833 -41.833 -47.5 -74.5l-63 19c12.667 42.667 37 76.667 73 102s78.667 38 128 38c56.667 0 100.667 -14 132 -42s47 -67.667 47 -119v-278c0 -17.333 6 -29.5 18 -36.5s27.667 -7.5 47 -1.5v-56
c-39.333 -5.33301 -69.666 -2.16602 -90.999 9.50098s-33.333 31.5 -36 59.5zM214.998 44.9971c43.333 0 79.999 12.499 109.999 37.499s45 55.167 45 90.5v110l-94 -20c-65.333 -13.333 -109.833 -29.166 -133.5 -47.499s-35.5 -43.833 -35.5 -76.5
c0 -28.667 9.83301 -51.5 29.5 -68.5s45.834 -25.5 78.501 -25.5zM285.997 579.996h-52l58 138h84z" />
    <glyph glyph-name="acircumflex" unicode="&#xe2;" horiz-adv-x="522" 
d="M374 68c-16.667 -23.333 -40.002 -42.1689 -70.002 -56.502s-62 -21.5 -96 -21.5c-49.333 0 -89.666 13.5 -120.999 40.5s-47 62.833 -47 107.5c0 45.333 16.833 82 50.5 110s89.167 49.667 166.5 65l113 23v32c0 34.667 -9.83301 60.834 -29.5 78.501
s-48.167 26.5 -85.5 26.5c-36 0 -65.5 -8.5 -88.5 -25.5s-38.833 -41.833 -47.5 -74.5l-63 19c12.667 42.667 37 76.667 73 102s78.667 38 128 38c56.667 0 100.667 -14 132 -42s47 -67.667 47 -119v-278c0 -17.333 6 -29.5 18 -36.5s27.667 -7.5 47 -1.5v-56
c-39.333 -5.33301 -69.666 -2.16602 -90.999 9.50098s-33.333 31.5 -36 59.5zM214.998 44.9971c43.333 0 79.999 12.499 109.999 37.499s45 55.167 45 90.5v110l-94 -20c-65.333 -13.333 -109.833 -29.166 -133.5 -47.499s-35.5 -43.833 -35.5 -76.5
c0 -28.667 9.83301 -51.5 29.5 -68.5s45.834 -25.5 78.501 -25.5zM218.997 717.996h76l97 -138h-53l-82 92l-82 -92h-53z" />
    <glyph glyph-name="atilde" unicode="&#xe3;" horiz-adv-x="522" 
d="M374 68c-16.667 -23.333 -40.002 -42.1689 -70.002 -56.502s-62 -21.5 -96 -21.5c-49.333 0 -89.666 13.5 -120.999 40.5s-47 62.833 -47 107.5c0 45.333 16.833 82 50.5 110s89.167 49.667 166.5 65l113 23v32c0 34.667 -9.83301 60.834 -29.5 78.501
s-48.167 26.5 -85.5 26.5c-36 0 -65.5 -8.5 -88.5 -25.5s-38.833 -41.833 -47.5 -74.5l-63 19c12.667 42.667 37 76.667 73 102s78.667 38 128 38c56.667 0 100.667 -14 132 -42s47 -67.667 47 -119v-278c0 -17.333 6 -29.5 18 -36.5s27.667 -7.5 47 -1.5v-56
c-39.333 -5.33301 -69.666 -2.16602 -90.999 9.50098s-33.333 31.5 -36 59.5zM214.998 44.9971c43.333 0 79.999 12.499 109.999 37.499s45 55.167 45 90.5v110l-94 -20c-65.333 -13.333 -109.833 -29.166 -133.5 -47.499s-35.5 -43.833 -35.5 -76.5
c0 -28.667 9.83301 -51.5 29.5 -68.5s45.834 -25.5 78.501 -25.5zM196.997 713.996c10.667 0 21.1719 -2.50098 31.5049 -7.50098s24.166 -15.5 41.499 -31.5c13.333 -13.333 23.5 -21.833 30.5 -25.5s13.833 -5.5 20.5 -5.5c14 0 24.667 5.66699 32 17s12.333 29.333 15 54
h45c-2.66699 -40 -11.834 -70.833 -27.501 -92.5s-36.5 -32.5 -62.5 -32.5c-10.667 0 -21.334 2.66699 -32.001 8s-24.334 16 -41.001 32c-14 12.667 -24.333 20.834 -31 24.501s-13.334 5.5 -20.001 5.5c-14 0 -24.667 -5.5 -32 -16.5s-12.666 -28.833 -15.999 -53.5h-45
c3.33301 40 12.666 70.667 27.999 92s36.333 32 63 32z" />
    <glyph glyph-name="adieresis" unicode="&#xe4;" horiz-adv-x="522" 
d="M374 68c-16.667 -23.333 -40.002 -42.1689 -70.002 -56.502s-62 -21.5 -96 -21.5c-49.333 0 -89.666 13.5 -120.999 40.5s-47 62.833 -47 107.5c0 45.333 16.833 82 50.5 110s89.167 49.667 166.5 65l113 23v32c0 34.667 -9.83301 60.834 -29.5 78.501
s-48.167 26.5 -85.5 26.5c-36 0 -65.5 -8.5 -88.5 -25.5s-38.833 -41.833 -47.5 -74.5l-63 19c12.667 42.667 37 76.667 73 102s78.667 38 128 38c56.667 0 100.667 -14 132 -42s47 -67.667 47 -119v-278c0 -17.333 6 -29.5 18 -36.5s27.667 -7.5 47 -1.5v-56
c-39.333 -5.33301 -69.666 -2.16602 -90.999 9.50098s-33.333 31.5 -36 59.5zM214.998 44.9971c43.333 0 79.999 12.499 109.999 37.499s45 55.167 45 90.5v110l-94 -20c-65.333 -13.333 -109.833 -29.166 -133.5 -47.499s-35.5 -43.833 -35.5 -76.5
c0 -28.667 9.83301 -51.5 29.5 -68.5s45.834 -25.5 78.501 -25.5zM213.997 621.996h-77v90h77v-90zM376.997 621.996h-77v90h77v-90z" />
    <glyph glyph-name="aring" unicode="&#xe5;" horiz-adv-x="522" 
d="M374 68c-16.667 -23.333 -40.002 -42.1689 -70.002 -56.502s-62 -21.5 -96 -21.5c-49.333 0 -89.666 13.5 -120.999 40.5s-47 62.833 -47 107.5c0 45.333 16.833 82 50.5 110s89.167 49.667 166.5 65l113 23v32c0 34.667 -9.83301 60.834 -29.5 78.501
s-48.167 26.5 -85.5 26.5c-36 0 -65.5 -8.5 -88.5 -25.5s-38.833 -41.833 -47.5 -74.5l-63 19c12.667 42.667 37 76.667 73 102s78.667 38 128 38c56.667 0 100.667 -14 132 -42s47 -67.667 47 -119v-278c0 -17.333 6 -29.5 18 -36.5s27.667 -7.5 47 -1.5v-56
c-39.333 -5.33301 -69.666 -2.16602 -90.999 9.50098s-33.333 31.5 -36 59.5zM214.998 44.9971c43.333 0 79.999 12.499 109.999 37.499s45 55.167 45 90.5v110l-94 -20c-65.333 -13.333 -109.833 -29.166 -133.5 -47.499s-35.5 -43.833 -35.5 -76.5
c0 -28.667 9.83301 -51.5 29.5 -68.5s45.834 -25.5 78.501 -25.5zM256.997 573.996c-26 0 -48 8.83301 -66 26.5s-27 39.167 -27 64.5s9 46.833 27 64.5s40 26.5 66 26.5s48 -8.83301 66 -26.5s27 -39.167 27 -64.5s-9 -46.833 -27 -64.5s-40 -26.5 -66 -26.5z
M256.997 717.996c-14 0 -26.167 -5.16699 -36.5 -15.5s-15.5 -22.833 -15.5 -37.5s5.16699 -27.167 15.5 -37.5s22.5 -15.5 36.5 -15.5c14.667 0 27 5.16699 37 15.5s15 22.833 15 37.5s-5 27.167 -15 37.5s-22.333 15.5 -37 15.5z" />
    <glyph glyph-name="ae" unicode="&#xe6;" horiz-adv-x="862" 
d="M40 138c0 54 21.1631 95.833 63.4961 125.5s101.166 44.5 176.499 44.5h93v52c0 37.333 -9.83301 65.5 -29.5 84.5s-48.5 28.5 -86.5 28.5c-37.333 0 -67.666 -9.33301 -90.999 -28s-38 -45 -44 -79l-62 20c10 44.667 32.833 80.167 68.5 106.5s78.834 39.5 129.501 39.5
c41.333 0 76 -8.33301 104 -25s47.667 -41 59 -73c22 32 48.333 56.333 79 73s64.667 25 102 25c66.667 0 119.167 -23 157.5 -69s57.5 -107.667 57.5 -185v-22h-385c0.666992 -62.667 16.834 -113 48.501 -151s73.167 -57 124.5 -57c38 0 70 10 96 30s43 47.667 51 83
l60 -19c-14 -48 -39.167 -85.333 -75.5 -112s-80.166 -40 -131.499 -40c-43.333 0 -82.166 10.333 -116.499 31s-61.833 50 -82.5 88c-16.667 -36 -42.5 -64.833 -77.5 -86.5s-73.833 -32.5 -116.5 -32.5c-50.667 0 -92 13.5 -124 40.5s-48 62.833 -48 107.5zM601.996 474
c-44 0 -81 -14.833 -111 -44.5s-48.667 -70.167 -56 -121.5h314c-1.33301 50.667 -15 91 -41 121s-61.333 45 -106 45zM106.996 142c0 -29.333 10.168 -52.667 30.501 -70s47.833 -26 82.5 -26c43.333 0 79.666 14.833 108.999 44.5s44 65.834 44 108.501v57h-91
c-60 0 -104.167 -9.33301 -132.5 -28s-42.5 -47.334 -42.5 -86.001z" />
    <glyph glyph-name="ccedilla" unicode="&#xe7;" horiz-adv-x="521" 
d="M284 474c-51.333 0 -92.665 -19.5 -123.998 -58.5s-47 -90.5 -47 -154.5c0 -64.667 15.667 -116.334 47 -155.001s72.666 -58 123.999 -58c36.667 0 67.167 10.5 91.5 31.5s40.833 50.5 49.5 88.5l60 -24c-12 -48 -35.833 -85.667 -71.5 -113s-78.834 -41 -129.501 -41
h-3.5h-3.5l-7 -23c26.667 -2 47.834 -10 63.501 -24s23.5 -31.667 23.5 -53c0 -23.333 -9.66699 -42.5 -29 -57.5s-43.333 -22.5 -72 -22.5c-20.667 0 -39.5 3.66699 -56.5 11s-30.833 17.333 -41.5 30l29 36c10 -12 20.333 -20.833 31 -26.5s22.334 -8.5 35.001 -8.5
c16.667 0 29.667 3.5 39 10.5s14 16.833 14 29.5c0 14 -6.83301 24.5 -20.5 31.5s-35.167 11.167 -64.5 12.5l17 58c-58.667 10.667 -105.167 40 -139.5 88s-51.5 107.667 -51.5 179c0 38 5.16699 73.167 15.5 105.5s25.166 60.5 44.499 84.5c21.333 26 47.166 46 77.499 60
s63.5 21 99.5 21c50 0 92.667 -13.667 128 -41s59.333 -64.666 72 -111.999l-59 -25c-8.66699 38 -25.167 67.5 -49.5 88.5s-54.833 31.5 -91.5 31.5z" />
    <glyph glyph-name="egrave" unicode="&#xe8;" horiz-adv-x="540" 
d="M283 -10c-70.667 0 -127.669 25 -171.002 75s-65 115.333 -65 196c0 37.333 5 72 15 104s24.667 60 44 84c21.333 27.333 46.833 48 76.5 62s62.167 21 97.5 21c66.667 0 119 -23 157 -69s57 -107.667 57 -185v-22h-384c0.666992 -62.667 16.834 -113 48.501 -151
s73.167 -57 124.5 -57c38 0 70 10 96 30s43 47.667 51 83l60 -19c-14 -48 -39.167 -85.333 -75.5 -112s-80.166 -40 -131.499 -40zM279.998 474c-44 0 -81 -14.833 -111 -44.5s-48.667 -70.167 -56 -121.5h314c-1.33301 50.667 -15 91 -41 121s-61.333 45 -106 45z
M258.998 718l58 -138h-52l-90 138h84z" />
    <glyph glyph-name="eacute" unicode="&#xe9;" horiz-adv-x="540" 
d="M283 -10c-70.667 0 -127.669 25 -171.002 75s-65 115.333 -65 196c0 37.333 5 72 15 104s24.667 60 44 84c21.333 27.333 46.833 48 76.5 62s62.167 21 97.5 21c66.667 0 119 -23 157 -69s57 -107.667 57 -185v-22h-384c0.666992 -62.667 16.834 -113 48.501 -151
s73.167 -57 124.5 -57c38 0 70 10 96 30s43 47.667 51 83l60 -19c-14 -48 -39.167 -85.333 -75.5 -112s-80.166 -40 -131.499 -40zM279.998 474c-44 0 -81 -14.833 -111 -44.5s-48.667 -70.167 -56 -121.5h314c-1.33301 50.667 -15 91 -41 121s-61.333 45 -106 45z
M305.998 580h-52l58 138h84z" />
    <glyph glyph-name="ecircumflex" unicode="&#xea;" horiz-adv-x="540" 
d="M283 -10c-70.667 0 -127.669 25 -171.002 75s-65 115.333 -65 196c0 37.333 5 72 15 104s24.667 60 44 84c21.333 27.333 46.833 48 76.5 62s62.167 21 97.5 21c66.667 0 119 -23 157 -69s57 -107.667 57 -185v-22h-384c0.666992 -62.667 16.834 -113 48.501 -151
s73.167 -57 124.5 -57c38 0 70 10 96 30s43 47.667 51 83l60 -19c-14 -48 -39.167 -85.333 -75.5 -112s-80.166 -40 -131.499 -40zM279.998 474c-44 0 -81 -14.833 -111 -44.5s-48.667 -70.167 -56 -121.5h314c-1.33301 50.667 -15 91 -41 121s-61.333 45 -106 45z
M242.998 718h76l97 -138h-53l-82 92l-82 -92h-53z" />
    <glyph glyph-name="edieresis" unicode="&#xeb;" horiz-adv-x="540" 
d="M283 -10c-70.667 0 -127.669 25 -171.002 75s-65 115.333 -65 196c0 37.333 5 72 15 104s24.667 60 44 84c21.333 27.333 46.833 48 76.5 62s62.167 21 97.5 21c66.667 0 119 -23 157 -69s57 -107.667 57 -185v-22h-384c0.666992 -62.667 16.834 -113 48.501 -151
s73.167 -57 124.5 -57c38 0 70 10 96 30s43 47.667 51 83l60 -19c-14 -48 -39.167 -85.333 -75.5 -112s-80.166 -40 -131.499 -40zM279.998 474c-44 0 -81 -14.833 -111 -44.5s-48.667 -70.167 -56 -121.5h314c-1.33301 50.667 -15 91 -41 121s-61.333 45 -106 45z
M238.998 622h-77v90h77v-90zM401.998 622h-77v90h77v-90z" />
    <glyph glyph-name="igrave" unicode="&#xec;" horiz-adv-x="234" 
d="M84 522h66v-522h-66v522zM83 718l58 -138h-52l-90 138h84z" />
    <glyph glyph-name="iacute" unicode="&#xed;" horiz-adv-x="234" 
d="M84 522h66v-522h-66v522zM147 580h-52l58 138h84z" />
    <glyph glyph-name="icircumflex" unicode="&#xee;" horiz-adv-x="234" 
d="M79 718h76l97 -138h-53l-82 92l-82 -92h-53zM84 522h66v-522h-66v522z" />
    <glyph glyph-name="idieresis" unicode="&#xef;" horiz-adv-x="234" 
d="M75 622h-77v90h77v-90zM237 622h-77v90h77v-90zM84 522h66v-522h-66v522z" />
    <glyph glyph-name="eth" unicode="&#xf0;" horiz-adv-x="562" 
d="M281 530c28 0 54.501 -6.16699 79.501 -18.5s44.167 -28.833 57.5 -49.5c-10 26 -24.5 51.333 -43.5 76s-42.167 48.334 -69.5 71.001l-157 -48v49l109 33c-18 11.333 -36.833 22 -56.5 32s-40.167 19 -61.5 27l60 27c22.667 -8.66699 44.167 -18.5 64.5 -29.5
s39.833 -23.167 58.5 -36.5l120 37v-49l-75 -23c50 -43.333 87.333 -94.5 112 -153.5s37 -126.167 37 -201.5c0 -39.333 -4.83301 -75.5 -14.5 -108.5s-23.5 -62.167 -41.5 -87.5c-21.333 -28 -47.333 -49.5 -78 -64.5s-64.334 -22.5 -101.001 -22.5
c-36 0 -68.833 7 -98.5 21s-55.167 34.333 -76.5 61c-19.333 24 -34 52.167 -44 84.5s-15 67.166 -15 104.499c0 80.667 21.5 145.667 64.5 195s99.5 74 169.5 74zM281.001 475c-50.667 0 -91.334 -19.5 -122.001 -58.5s-46 -90.833 -46 -155.5s15.333 -116.5 46 -155.5
s71.334 -58.5 122.001 -58.5s91.334 19.5 122.001 58.5s46 90.833 46 155.5s-15.333 116.5 -46 155.5s-71.334 58.5 -122.001 58.5z" />
    <glyph glyph-name="ntilde" unicode="&#xf1;" horiz-adv-x="566" 
d="M150 0h-66v522h66v-84c17.333 29.333 40.333 52.333 69 69s60.667 25 96 25c54 0 96.167 -16.833 126.5 -50.5s45.5 -79.834 45.5 -138.501v-343h-66v328c0 45.333 -10.5 80.333 -31.5 105s-51.167 37 -90.5 37c-19.333 0 -38.333 -4 -57 -12s-35 -19 -49 -33
c-14 -14.667 -24.667 -31.167 -32 -49.5s-11 -38.166 -11 -59.499v-316zM226 714c10.667 0 21.1719 -2.50098 31.5049 -7.50098s24.166 -15.5 41.499 -31.5c13.333 -13.333 23.5 -21.833 30.5 -25.5s13.833 -5.5 20.5 -5.5c14 0 24.667 5.66699 32 17s12.333 29.333 15 54
h45c-2.66699 -40 -11.834 -70.833 -27.501 -92.5s-36.5 -32.5 -62.5 -32.5c-10.667 0 -21.334 2.66699 -32.001 8s-24.334 16 -41.001 32c-14 12.667 -24.333 20.834 -31 24.501s-13.334 5.5 -20.001 5.5c-14 0 -24.667 -5.5 -32 -16.5s-12.666 -28.833 -15.999 -53.5h-45
c3.33301 40 12.666 70.667 27.999 92s36.333 32 63 32z" />
    <glyph glyph-name="ograve" unicode="&#xf2;" horiz-adv-x="562" 
d="M456 450c20 -24 35 -52.167 45 -84.5s15 -67.166 15 -104.499s-5 -72.166 -15 -104.499s-25 -60.5 -45 -84.5c-20.667 -26.667 -46 -47 -76 -61s-63 -21 -99 -21s-68.833 7 -98.5 21s-55.167 34.333 -76.5 61c-19.333 24 -34 52.167 -44 84.5s-15 67.166 -15 104.499
s5 72.166 15 104.499s24.667 60.5 44 84.5c21.333 26.667 46.833 47 76.5 61s62.5 21 98.5 21s69 -7 99 -21s55.333 -34.333 76 -61zM281 475c-50.667 0 -91.334 -19.5 -122.001 -58.5s-46 -90.833 -46 -155.5s15.333 -116.5 46 -155.5s71.334 -58.5 122.001 -58.5
s91.334 19.5 122.001 58.5s46 90.833 46 155.5s-15.333 116.5 -46 155.5s-71.334 58.5 -122.001 58.5zM256 718l58 -138h-52l-90 138h84z" />
    <glyph glyph-name="oacute" unicode="&#xf3;" horiz-adv-x="562" 
d="M456 450c20 -24 35 -52.167 45 -84.5s15 -67.166 15 -104.499s-5 -72.166 -15 -104.499s-25 -60.5 -45 -84.5c-20.667 -26.667 -46 -47 -76 -61s-63 -21 -99 -21s-68.833 7 -98.5 21s-55.167 34.333 -76.5 61c-19.333 24 -34 52.167 -44 84.5s-15 67.166 -15 104.499
s5 72.166 15 104.499s24.667 60.5 44 84.5c21.333 26.667 46.833 47 76.5 61s62.5 21 98.5 21s69 -7 99 -21s55.333 -34.333 76 -61zM281 475c-50.667 0 -91.334 -19.5 -122.001 -58.5s-46 -90.833 -46 -155.5s15.333 -116.5 46 -155.5s71.334 -58.5 122.001 -58.5
s91.334 19.5 122.001 58.5s46 90.833 46 155.5s-15.333 116.5 -46 155.5s-71.334 58.5 -122.001 58.5zM302 580h-52l58 138h84z" />
    <glyph glyph-name="ocircumflex" unicode="&#xf4;" horiz-adv-x="562" 
d="M456 450c20 -24 35 -52.167 45 -84.5s15 -67.166 15 -104.499s-5 -72.166 -15 -104.499s-25 -60.5 -45 -84.5c-20.667 -26.667 -46 -47 -76 -61s-63 -21 -99 -21s-68.833 7 -98.5 21s-55.167 34.333 -76.5 61c-19.333 24 -34 52.167 -44 84.5s-15 67.166 -15 104.499
s5 72.166 15 104.499s24.667 60.5 44 84.5c21.333 26.667 46.833 47 76.5 61s62.5 21 98.5 21s69 -7 99 -21s55.333 -34.333 76 -61zM281 475c-50.667 0 -91.334 -19.5 -122.001 -58.5s-46 -90.833 -46 -155.5s15.333 -116.5 46 -155.5s71.334 -58.5 122.001 -58.5
s91.334 19.5 122.001 58.5s46 90.833 46 155.5s-15.333 116.5 -46 155.5s-71.334 58.5 -122.001 58.5zM243 718h76l97 -138h-53l-82 92l-82 -92h-53z" />
    <glyph glyph-name="otilde" unicode="&#xf5;" horiz-adv-x="562" 
d="M456 450c20 -24 35 -52.167 45 -84.5s15 -67.166 15 -104.499s-5 -72.166 -15 -104.499s-25 -60.5 -45 -84.5c-20.667 -26.667 -46 -47 -76 -61s-63 -21 -99 -21s-68.833 7 -98.5 21s-55.167 34.333 -76.5 61c-19.333 24 -34 52.167 -44 84.5s-15 67.166 -15 104.499
s5 72.166 15 104.499s24.667 60.5 44 84.5c21.333 26.667 46.833 47 76.5 61s62.5 21 98.5 21s69 -7 99 -21s55.333 -34.333 76 -61zM281 475c-50.667 0 -91.334 -19.5 -122.001 -58.5s-46 -90.833 -46 -155.5s15.333 -116.5 46 -155.5s71.334 -58.5 122.001 -58.5
s91.334 19.5 122.001 58.5s46 90.833 46 155.5s-15.333 116.5 -46 155.5s-71.334 58.5 -122.001 58.5zM218 714c10.667 0 21.1719 -2.50098 31.5049 -7.50098s24.166 -15.5 41.499 -31.5c13.333 -13.333 23.5 -21.833 30.5 -25.5s13.833 -5.5 20.5 -5.5
c14 0 24.667 5.66699 32 17s12.333 29.333 15 54h45c-2.66699 -40 -11.834 -70.833 -27.501 -92.5s-36.5 -32.5 -62.5 -32.5c-10.667 0 -21.334 2.66699 -32.001 8s-24.334 16 -41.001 32c-14 12.667 -24.333 20.834 -31 24.501s-13.334 5.5 -20.001 5.5
c-14 0 -24.667 -5.5 -32 -16.5s-12.666 -28.833 -15.999 -53.5h-45c3.33301 40 12.666 70.667 27.999 92s36.333 32 63 32z" />
    <glyph glyph-name="odieresis" unicode="&#xf6;" horiz-adv-x="562" 
d="M456 450c20 -24 35 -52.167 45 -84.5s15 -67.166 15 -104.499s-5 -72.166 -15 -104.499s-25 -60.5 -45 -84.5c-20.667 -26.667 -46 -47 -76 -61s-63 -21 -99 -21s-68.833 7 -98.5 21s-55.167 34.333 -76.5 61c-19.333 24 -34 52.167 -44 84.5s-15 67.166 -15 104.499
s5 72.166 15 104.499s24.667 60.5 44 84.5c21.333 26.667 46.833 47 76.5 61s62.5 21 98.5 21s69 -7 99 -21s55.333 -34.333 76 -61zM281 475c-50.667 0 -91.334 -19.5 -122.001 -58.5s-46 -90.833 -46 -155.5s15.333 -116.5 46 -155.5s71.334 -58.5 122.001 -58.5
s91.334 19.5 122.001 58.5s46 90.833 46 155.5s-15.333 116.5 -46 155.5s-71.334 58.5 -122.001 58.5zM238 622h-77v90h77v-90zM401 622h-77v90h77v-90z" />
    <glyph glyph-name="divide" unicode="&#xf7;" horiz-adv-x="608" 
d="M348 492h-89v88h89v-88zM556 312h-504v60h504v-60zM348 105h-89v87h89v-87z" />
    <glyph glyph-name="oslash" unicode="&#xf8;" horiz-adv-x="562" 
d="M47 261c0 37.333 5.00098 72.166 15.001 104.499s24.667 60.5 44 84.5c21.333 26.667 46.833 47 76.5 61s62.5 21 98.5 21c28 0 54.333 -4.33301 79 -13s47 -21.334 67 -38.001l41 51l40 -31l-46 -58c17.333 -24 30.666 -51.5 39.999 -82.5s14 -64.167 14 -99.5
c0 -37.333 -5 -72.166 -15 -104.499s-25 -60.5 -45 -84.5c-20.667 -26.667 -46 -47 -76 -61s-63 -21 -99 -21c-28 0 -53.833 4.16699 -77.5 12.5s-45.167 20.5 -64.5 36.5l-43 -54l-40 31l47 59c-18 24 -31.833 51.833 -41.5 83.5s-14.5 65.834 -14.5 102.501zM281.001 475
c-50.667 0 -91.333 -19.499 -122 -58.499s-46 -90.833 -46 -155.5c0 -26.667 2.66699 -51.334 8 -74.001s13.333 -42.667 24 -60l243 305c-14 14 -30 24.667 -48 32s-37.667 11 -59 11zM281.002 47.001c50.667 0 91.333 19.501 122 58.501s46 90.833 46 155.5
c0 25.333 -2.5 49 -7.5 71s-12.167 41.667 -21.5 59l-243 -305c14 -12.667 29.833 -22.334 47.5 -29.001s36.5 -10 56.5 -10z" />
    <glyph glyph-name="ugrave" unicode="&#xf9;" horiz-adv-x="566" 
d="M415 522h66.001v-522h-66v84c-16.667 -29.333 -39.334 -52.333 -68.001 -69s-60.667 -25 -96 -25c-54 0 -96.333 16.833 -127 50.5s-46 79.5 -46 137.5v344h66v-332c0 -44.667 10.5 -79 31.5 -103s51.5 -36 91.5 -36c20 0 39.167 4 57.5 12s34.5 19 48.5 33
s24.5 30.333 31.5 49s10.5 38.667 10.5 60v317zM254.001 718l58 -138h-52l-90 138h84z" />
    <glyph glyph-name="uacute" unicode="&#xfa;" horiz-adv-x="566" 
d="M415 522h66.001v-522h-66v84c-16.667 -29.333 -39.334 -52.333 -68.001 -69s-60.667 -25 -96 -25c-54 0 -96.333 16.833 -127 50.5s-46 79.5 -46 137.5v344h66v-332c0 -44.667 10.5 -79 31.5 -103s51.5 -36 91.5 -36c20 0 39.167 4 57.5 12s34.5 19 48.5 33
s24.5 30.333 31.5 49s10.5 38.667 10.5 60v317zM297.001 580h-52l58 138h84z" />
    <glyph glyph-name="ucircumflex" unicode="&#xfb;" horiz-adv-x="566" 
d="M415 522h66.001v-522h-66v84c-16.667 -29.333 -39.334 -52.333 -68.001 -69s-60.667 -25 -96 -25c-54 0 -96.333 16.833 -127 50.5s-46 79.5 -46 137.5v344h66v-332c0 -44.667 10.5 -79 31.5 -103s51.5 -36 91.5 -36c20 0 39.167 4 57.5 12s34.5 19 48.5 33
s24.5 30.333 31.5 49s10.5 38.667 10.5 60v317zM242.001 718h76l97 -138h-53l-82 92l-82 -92h-53z" />
    <glyph glyph-name="udieresis" unicode="&#xfc;" horiz-adv-x="566" 
d="M415 522h66.001v-522h-66v84c-16.667 -29.333 -39.334 -52.333 -68.001 -69s-60.667 -25 -96 -25c-54 0 -96.333 16.833 -127 50.5s-46 79.5 -46 137.5v344h66v-332c0 -44.667 10.5 -79 31.5 -103s51.5 -36 91.5 -36c20 0 39.167 4 57.5 12s34.5 19 48.5 33
s24.5 30.333 31.5 49s10.5 38.667 10.5 60v317zM237.001 622h-77v90h77v-90zM400.001 622h-77v90h77v-90z" />
    <glyph glyph-name="yacute" unicode="&#xfd;" horiz-adv-x="505" 
d="M483 522l-230.998 -586c-18 -46 -38.167 -78.167 -60.5 -96.5s-50.5 -27.5 -84.5 -27.5c-8.66699 0 -16.5 0.5 -23.5 1.5s-15.167 2.5 -24.5 4.5v59c8 -2.66699 15.167 -4.5 21.5 -5.5s14.166 -1.5 23.499 -1.5c20 0 36.167 5.66699 48.5 17s24.166 31 35.499 59l30 72
l-196 504h70l161 -426l161 426h69zM270.002 580h-52l58 138h84z" />
    <glyph glyph-name="thorn" unicode="&#xfe;" horiz-adv-x="593" 
d="M491 75c-20 -28 -44.5 -49.167 -73.5 -63.5s-60.833 -21.5 -95.5 -21.5c-38 0 -72.167 9.16699 -102.5 27.5s-53.5 43.5 -69.5 75.5v-273h-66v898h66v-289c16 32 39.167 57.167 69.5 75.5s64.5 27.5 102.5 27.5c34.667 0 66.5 -7.16699 95.5 -21.5s53.5 -35.5 73.5 -63.5
c18 -24 31.667 -52 41 -84s14 -66 14 -102s-4.66699 -70 -14 -102s-23 -60 -41 -84zM189 414c-13.333 -16.667 -23.3301 -36.168 -29.9971 -58.501s-10 -47.166 -10 -74.499v-43c0 -26.667 3.33301 -51.167 10 -73.5s16.667 -41.833 30 -58.5
c15.333 -18.667 33.666 -33 54.999 -43s43.666 -15 66.999 -15c51.333 0 92.166 19.5 122.499 58.5s45.5 90.5 45.5 154.5s-15.167 115.333 -45.5 154s-71.166 58 -122.499 58c-23.333 0 -45.833 -5.16699 -67.5 -15.5s-39.834 -24.833 -54.501 -43.5z" />
    <glyph glyph-name="ydieresis" unicode="&#xff;" horiz-adv-x="505" 
d="M483 522l-230.998 -586c-18 -46 -38.167 -78.167 -60.5 -96.5s-50.5 -27.5 -84.5 -27.5c-8.66699 0 -16.5 0.5 -23.5 1.5s-15.167 2.5 -24.5 4.5v59c8 -2.66699 15.167 -4.5 21.5 -5.5s14.166 -1.5 23.499 -1.5c20 0 36.167 5.66699 48.5 17s24.166 31 35.499 59l30 72
l-196 504h70l161 -426l161 426h69zM207.002 622h-77v90h77v-90zM370.002 622h-77v90h77v-90z" />
    <glyph glyph-name="Amacron" unicode="&#x100;" horiz-adv-x="678" 
d="M22 0l279 718h76l280 -718h-72l-81 209h-331l-81 -209h-70zM480 270l-142 368l-142 -368h284zM489 843v-54h-300v54h300z" />
    <glyph glyph-name="amacron" unicode="&#x101;" horiz-adv-x="522" 
d="M374 68c-16.667 -23.333 -40.002 -42.1689 -70.002 -56.502s-62 -21.5 -96 -21.5c-49.333 0 -89.666 13.5 -120.999 40.5s-47 62.833 -47 107.5c0 45.333 16.833 82 50.5 110s89.167 49.667 166.5 65l113 23v32c0 34.667 -9.83301 60.834 -29.5 78.501
s-48.167 26.5 -85.5 26.5c-36 0 -65.5 -8.5 -88.5 -25.5s-38.833 -41.833 -47.5 -74.5l-63 19c12.667 42.667 37 76.667 73 102s78.667 38 128 38c56.667 0 100.667 -14 132 -42s47 -67.667 47 -119v-278c0 -17.333 6 -29.5 18 -36.5s27.667 -7.5 47 -1.5v-56
c-39.333 -5.33301 -69.666 -2.16602 -90.999 9.50098s-33.333 31.5 -36 59.5zM214.998 44.9971c43.333 0 79.999 12.499 109.999 37.499s45 55.167 45 90.5v110l-94 -20c-65.333 -13.333 -109.833 -29.166 -133.5 -47.499s-35.5 -43.833 -35.5 -76.5
c0 -28.667 9.83301 -51.5 29.5 -68.5s45.834 -25.5 78.501 -25.5zM389.997 666.996v-53h-258v53h258z" />
    <glyph glyph-name="Abreve" unicode="&#x102;" horiz-adv-x="678" 
d="M22 0l279 718h76l280 -718h-72l-81 209h-331l-81 -209h-70zM480 270l-142 368l-142 -368h284zM339 816c28 0 50.667 8.83301 68 26.5s26.333 41.167 27 70.5h51c0 -43.333 -13.333 -78.166 -40 -104.499s-62 -39.5 -106 -39.5s-79.333 13.167 -106 39.5
s-40 61.166 -40 104.499h51c0.666992 -29.333 9.66699 -52.833 27 -70.5s40 -26.5 68 -26.5z" />
    <glyph glyph-name="abreve" unicode="&#x103;" horiz-adv-x="522" 
d="M374 68c-16.667 -23.333 -40.002 -42.1689 -70.002 -56.502s-62 -21.5 -96 -21.5c-49.333 0 -89.666 13.5 -120.999 40.5s-47 62.833 -47 107.5c0 45.333 16.833 82 50.5 110s89.167 49.667 166.5 65l113 23v32c0 34.667 -9.83301 60.834 -29.5 78.501
s-48.167 26.5 -85.5 26.5c-36 0 -65.5 -8.5 -88.5 -25.5s-38.833 -41.833 -47.5 -74.5l-63 19c12.667 42.667 37 76.667 73 102s78.667 38 128 38c56.667 0 100.667 -14 132 -42s47 -67.667 47 -119v-278c0 -17.333 6 -29.5 18 -36.5s27.667 -7.5 47 -1.5v-56
c-39.333 -5.33301 -69.666 -2.16602 -90.999 9.50098s-33.333 31.5 -36 59.5zM214.998 44.9971c43.333 0 79.999 12.499 109.999 37.499s45 55.167 45 90.5v110l-94 -20c-65.333 -13.333 -109.833 -29.166 -133.5 -47.499s-35.5 -43.833 -35.5 -76.5
c0 -28.667 9.83301 -51.5 29.5 -68.5s45.834 -25.5 78.501 -25.5zM255.997 624.996c24.667 0 43.832 8 57.499 24s20.834 39 21.501 69h47c0 -44 -11.333 -78.667 -34 -104s-53.334 -38 -92.001 -38s-69.334 12.667 -92.001 38s-34 60 -34 104h47
c0.666992 -30 7.83398 -53 21.501 -69s32.834 -24 57.501 -24z" />
    <glyph glyph-name="Aogonek" unicode="&#x104;" horiz-adv-x="678" 
d="M588 -187c-23.333 0 -42.8311 7.00098 -58.498 21.001s-23.5 31.667 -23.5 53c0 20 5.5 39 16.5 57s30.833 39.667 59.5 65l-78 200h-331l-81 -209h-70l279 718h76l280 -718h-30c-29.333 -27.333 -48.333 -47.833 -57 -61.5s-13 -27.5 -13 -41.5
c0 -12.667 3.66699 -22.334 11 -29.001s17.666 -10 30.999 -10c7.33301 0 14.166 0.5 20.499 1.5s13.5 2.83301 21.5 5.5v-44c-9.33301 -2.66699 -18 -4.66699 -26 -6s-17 -2 -27 -2zM480.002 270.001l-142 368l-142 -368h284z" />
    <glyph glyph-name="aogonek" unicode="&#x105;" horiz-adv-x="522" 
d="M374 68c-16.667 -23.333 -40 -42.167 -70 -56.5s-62 -21.5 -96 -21.5c-49.333 0 -89.666 13.5 -120.999 40.5s-47 62.833 -47 107.5c0 45.333 16.833 82 50.5 110s89.167 49.667 166.5 65l113 23v32c0 34.667 -9.83301 60.834 -29.5 78.501s-48.167 26.5 -85.5 26.5
c-36 0 -65.5 -8.5 -88.5 -25.5s-38.833 -41.833 -47.5 -74.5l-63 19c12.667 42.667 37 76.667 73 102s78.667 38 128 38c56.667 0 100.667 -14 132 -42s47 -67.667 47 -119v-278c0 -17.333 6 -29.5 18 -36.5s27.667 -7.5 47 -1.5v-56c-4 -0.666992 -7.5 -1.16699 -10.5 -1.5
s-5.83301 -0.5 -8.5 -0.5c-27.333 -26 -45.166 -45.667 -53.499 -59s-12.5 -27 -12.5 -41c0 -12.667 3.66699 -22.334 11 -29.001s17.666 -10 30.999 -10c7.33301 0 14.166 0.5 20.499 1.5s13.5 2.83301 21.5 5.5v-44c-9.33301 -2.66699 -18 -4.66699 -26 -6s-17 -2 -27 -2
c-23.333 0 -42.833 7 -58.5 21s-23.5 31.667 -23.5 53c0 18.667 5 36.667 15 54s27 37 51 59c-17.333 4.66699 -30.833 12.667 -40.5 24s-15.167 26 -16.5 44zM215 44.999c43.333 0 79.999 12.499 109.999 37.499s45 55.167 45 90.5v110l-94 -20
c-65.333 -13.333 -109.833 -29.166 -133.5 -47.499s-35.5 -43.833 -35.5 -76.5c0 -28.667 9.83301 -51.5 29.5 -68.5s45.834 -25.5 78.501 -25.5z" />
    <glyph glyph-name="Cacute" unicode="&#x106;" horiz-adv-x="653" 
d="M172 568c-19.333 -27.333 -34.166 -58.8311 -44.499 -94.498s-15.5 -73.834 -15.5 -114.501s5.16699 -78.834 15.5 -114.501s25.166 -67.167 44.499 -94.5c22.667 -31.333 50.167 -55.5 82.5 -72.5s67.5 -25.5 105.5 -25.5c48.667 0 90.5 13.333 125.5 40
s60.167 64 75.5 112l67 -21c-21.333 -61.333 -55.333 -108.833 -102 -142.5s-102 -50.5 -166 -50.5c-47.333 0 -91.333 9.83301 -132 29.5s-75.667 47.834 -105 84.501c-26 33.333 -45.833 71.666 -59.5 114.999s-20.5 90 -20.5 140s6.83301 96.667 20.5 140
s33.5 81.666 59.5 114.999c29.333 36.667 64.333 64.834 105 84.501s84.667 29.5 132 29.5c64 0 119.333 -16.833 166 -50.5s80.667 -81.167 102 -142.5l-67 -21c-15.333 48 -40.5 85.333 -75.5 112s-76.833 40 -125.5 40c-38 0 -73.167 -8.5 -105.5 -25.5
s-59.833 -41.167 -82.5 -72.5zM368 770.002h-54l110 143h94z" />
    <glyph glyph-name="cacute" unicode="&#x107;" horiz-adv-x="521" 
d="M284 474c-51.333 0 -92.665 -19.501 -123.998 -58.501s-47 -90.5 -47 -154.5c0 -64.667 15.667 -116.334 47 -155.001s72.666 -58 123.999 -58c36.667 0 67.167 10.5 91.5 31.5s40.833 50.5 49.5 88.5l60 -24c-12 -48 -35.833 -85.667 -71.5 -113
s-78.834 -41 -129.501 -41c-36 0 -69.167 6.83301 -99.5 20.5s-56.166 33.834 -77.499 60.501c-19.333 24 -34.166 52.167 -44.499 84.5s-15.5 67.5 -15.5 105.5s5.16699 73.167 15.5 105.5s25.166 60.5 44.499 84.5c21.333 26 47.166 46 77.499 60s63.5 21 99.5 21
c50 0 92.667 -13.667 128 -41s59.333 -64.666 72 -111.999l-59 -25c-8.66699 38 -25.167 67.5 -49.5 88.5s-54.833 31.5 -91.5 31.5zM307.001 579.999h-52l58 138h84z" />
    <glyph glyph-name="Ccircumflex" unicode="&#x108;" horiz-adv-x="653" 
d="M172 568c-19.333 -27.333 -34.166 -58.8311 -44.499 -94.498s-15.5 -73.834 -15.5 -114.501s5.16699 -78.834 15.5 -114.501s25.166 -67.167 44.499 -94.5c22.667 -31.333 50.167 -55.5 82.5 -72.5s67.5 -25.5 105.5 -25.5c48.667 0 90.5 13.333 125.5 40
s60.167 64 75.5 112l67 -21c-21.333 -61.333 -55.333 -108.833 -102 -142.5s-102 -50.5 -166 -50.5c-47.333 0 -91.333 9.83301 -132 29.5s-75.667 47.834 -105 84.501c-26 33.333 -45.833 71.666 -59.5 114.999s-20.5 90 -20.5 140s6.83301 96.667 20.5 140
s33.5 81.666 59.5 114.999c29.333 36.667 64.333 64.834 105 84.501s84.667 29.5 132 29.5c64 0 119.333 -16.833 166 -50.5s80.667 -81.167 102 -142.5l-67 -21c-15.333 48 -40.5 85.333 -75.5 112s-76.833 40 -125.5 40c-38 0 -73.167 -8.5 -105.5 -25.5
s-59.833 -41.167 -82.5 -72.5zM320 913.002h82l118 -143h-55l-104 99l-104 -99h-55z" />
    <glyph glyph-name="ccircumflex" unicode="&#x109;" horiz-adv-x="521" 
d="M284 474c-51.333 0 -92.665 -19.501 -123.998 -58.501s-47 -90.5 -47 -154.5c0 -64.667 15.667 -116.334 47 -155.001s72.666 -58 123.999 -58c36.667 0 67.167 10.5 91.5 31.5s40.833 50.5 49.5 88.5l60 -24c-12 -48 -35.833 -85.667 -71.5 -113
s-78.834 -41 -129.501 -41c-36 0 -69.167 6.83301 -99.5 20.5s-56.166 33.834 -77.499 60.501c-19.333 24 -34.166 52.167 -44.499 84.5s-15.5 67.5 -15.5 105.5s5.16699 73.167 15.5 105.5s25.166 60.5 44.499 84.5c21.333 26 47.166 46 77.499 60s63.5 21 99.5 21
c50 0 92.667 -13.667 128 -41s59.333 -64.666 72 -111.999l-59 -25c-8.66699 38 -25.167 67.5 -49.5 88.5s-54.833 31.5 -91.5 31.5zM245.001 717.999h76l97 -138h-53l-82 92l-82 -92h-53z" />
    <glyph glyph-name="Cdotaccent" unicode="&#x10a;" horiz-adv-x="653" 
d="M172 568c-19.333 -27.333 -34.166 -58.8311 -44.499 -94.498s-15.5 -73.834 -15.5 -114.501s5.16699 -78.834 15.5 -114.501s25.166 -67.167 44.499 -94.5c22.667 -31.333 50.167 -55.5 82.5 -72.5s67.5 -25.5 105.5 -25.5c48.667 0 90.5 13.333 125.5 40
s60.167 64 75.5 112l67 -21c-21.333 -61.333 -55.333 -108.833 -102 -142.5s-102 -50.5 -166 -50.5c-47.333 0 -91.333 9.83301 -132 29.5s-75.667 47.834 -105 84.501c-26 33.333 -45.833 71.666 -59.5 114.999s-20.5 90 -20.5 140s6.83301 96.667 20.5 140
s33.5 81.666 59.5 114.999c29.333 36.667 64.333 64.834 105 84.501s84.667 29.5 132 29.5c64 0 119.333 -16.833 166 -50.5s80.667 -81.167 102 -142.5l-67 -21c-15.333 48 -40.5 85.333 -75.5 112s-76.833 40 -125.5 40c-38 0 -73.167 -8.5 -105.5 -25.5
s-59.833 -41.167 -82.5 -72.5zM400 776.002h-78v89h78v-89z" />
    <glyph glyph-name="cdotaccent" unicode="&#x10b;" horiz-adv-x="521" 
d="M284 474c-51.333 0 -92.665 -19.501 -123.998 -58.501s-47 -90.5 -47 -154.5c0 -64.667 15.667 -116.334 47 -155.001s72.666 -58 123.999 -58c36.667 0 67.167 10.5 91.5 31.5s40.833 50.5 49.5 88.5l60 -24c-12 -48 -35.833 -85.667 -71.5 -113
s-78.834 -41 -129.501 -41c-36 0 -69.167 6.83301 -99.5 20.5s-56.166 33.834 -77.499 60.501c-19.333 24 -34.166 52.167 -44.499 84.5s-15.5 67.5 -15.5 105.5s5.16699 73.167 15.5 105.5s25.166 60.5 44.499 84.5c21.333 26 47.166 46 77.499 60s63.5 21 99.5 21
c50 0 92.667 -13.667 128 -41s59.333 -64.666 72 -111.999l-59 -25c-8.66699 38 -25.167 67.5 -49.5 88.5s-54.833 31.5 -91.5 31.5zM321.001 628.999h-76v89h76v-89z" />
    <glyph glyph-name="Ccaron" unicode="&#x10c;" horiz-adv-x="653" 
d="M172 568c-19.333 -27.333 -34.166 -58.8311 -44.499 -94.498s-15.5 -73.834 -15.5 -114.501s5.16699 -78.834 15.5 -114.501s25.166 -67.167 44.499 -94.5c22.667 -31.333 50.167 -55.5 82.5 -72.5s67.5 -25.5 105.5 -25.5c48.667 0 90.5 13.333 125.5 40
s60.167 64 75.5 112l67 -21c-21.333 -61.333 -55.333 -108.833 -102 -142.5s-102 -50.5 -166 -50.5c-47.333 0 -91.333 9.83301 -132 29.5s-75.667 47.834 -105 84.501c-26 33.333 -45.833 71.666 -59.5 114.999s-20.5 90 -20.5 140s6.83301 96.667 20.5 140
s33.5 81.666 59.5 114.999c29.333 36.667 64.333 64.834 105 84.501s84.667 29.5 132 29.5c64 0 119.333 -16.833 166 -50.5s80.667 -81.167 102 -142.5l-67 -21c-15.333 48 -40.5 85.333 -75.5 112s-76.833 40 -125.5 40c-38 0 -73.167 -8.5 -105.5 -25.5
s-59.833 -41.167 -82.5 -72.5zM519 912.002l-118 -143h-82l-118 143h55l104 -99l104 99h55z" />
    <glyph glyph-name="ccaron" unicode="&#x10d;" horiz-adv-x="521" 
d="M284 474c-51.333 0 -92.665 -19.501 -123.998 -58.501s-47 -90.5 -47 -154.5c0 -64.667 15.667 -116.334 47 -155.001s72.666 -58 123.999 -58c36.667 0 67.167 10.5 91.5 31.5s40.833 50.5 49.5 88.5l60 -24c-12 -48 -35.833 -85.667 -71.5 -113
s-78.834 -41 -129.501 -41c-36 0 -69.167 6.83301 -99.5 20.5s-56.166 33.834 -77.499 60.501c-19.333 24 -34.166 52.167 -44.499 84.5s-15.5 67.5 -15.5 105.5s5.16699 73.167 15.5 105.5s25.166 60.5 44.499 84.5c21.333 26 47.166 46 77.499 60s63.5 21 99.5 21
c50 0 92.667 -13.667 128 -41s59.333 -64.666 72 -111.999l-59 -25c-8.66699 38 -25.167 67.5 -49.5 88.5s-54.833 31.5 -91.5 31.5zM422.001 717.999l-97 -138h-76l-97 138h53l82 -92l82 92h53z" />
    <glyph glyph-name="Dcaron" unicode="&#x10e;" horiz-adv-x="702" 
d="M306 0l-218 -0.00195312v718h218c53.333 0 101.833 -8.33301 145.5 -25s81.167 -41.334 112.5 -74.001c31.333 -31.333 55 -69.166 71 -113.499s24 -93.166 24 -146.499s-8 -102.166 -24 -146.499s-39.667 -82.166 -71 -113.499
c-31.333 -32.667 -68.833 -57.334 -112.5 -74.001s-92.167 -25 -145.5 -25zM157 656.998l-0.000976562 -596h149c86.667 0 155.667 27 207 81s77 126.333 77 217c0 91.333 -25.667 163.833 -77 217.5s-120.666 80.5 -207.999 80.5h-148zM483.999 911.998l-118 -143h-82
l-118 143h55l104 -99l104 99h55z" />
    <glyph glyph-name="dcaron" unicode="&#x10f;" horiz-adv-x="660" 
d="M271 -10c-34.667 0 -66.5 7.16699 -95.5 21.5s-53.5 35.5 -73.5 63.5c-18 24 -31.667 52 -41 84s-14 66 -14 102s4.66699 70 14 102s23 60 41 84c20 28 44.5 49.167 73.5 63.5s60.833 21.5 95.5 21.5c38 0 72.167 -9.16699 102.5 -27.5s53.5 -43.5 69.5 -75.5v289h66
v-718h-66v93c-16 -32 -39.167 -57.167 -69.5 -75.5s-64.5 -27.5 -102.5 -27.5zM444 238l0.00292969 43.001c0 27.333 -3.33301 52.166 -10 74.499s-16.667 41.833 -30 58.5c-14.667 18.667 -32.834 33.167 -54.501 43.5s-44.167 15.5 -67.5 15.5
c-51.333 0 -92.333 -19.333 -123 -58s-46 -90 -46 -154s15.333 -115.5 46 -154.5s71.667 -58.5 123 -58.5c23.333 0 45.666 5 66.999 15s39.666 24.333 54.999 43c13.333 16.667 23.333 36.167 30 58.5s10 46.833 10 73.5zM623.003 531.001h-45l29 187h76z" />
    <glyph glyph-name="Dcroat" unicode="&#x110;" horiz-adv-x="712" 
d="M316 0l-218 -0.00195312v340h-72v62h72v316h218c53.333 0 101.833 -8.33301 145.5 -25s81.167 -41.334 112.5 -74.001c31.333 -31.333 55 -69.166 71 -113.499s24 -93.166 24 -146.499s-8 -102.166 -24 -146.499s-39.667 -82.166 -71 -113.499
c-31.333 -32.667 -68.833 -57.334 -112.5 -74.001s-92.167 -25 -145.5 -25zM167 339.998l-0.000976562 -279h149c86.667 0 155.667 27 207 81s77 126.333 77 217c0 91.333 -25.667 163.833 -77 217.5s-120.666 80.5 -207.999 80.5h-148v-255h157v-62h-157z" />
    <glyph glyph-name="dcroat" unicode="&#x111;" horiz-adv-x="591" 
d="M271 -10c-34.667 0 -66.5 7.16699 -95.5 21.5s-53.5 35.5 -73.5 63.5c-18 24 -31.667 52 -41 84s-14 66 -14 102s4.66699 70 14 102s23 60 41 84c20 28 44.5 49.167 73.5 63.5s60.833 21.5 95.5 21.5c38 0 72.167 -9.16699 102.5 -27.5s53.5 -43.5 69.5 -75.5v155h-158
v53h158v81h66v-81h60v-53h-60v-584h-66v93c-16 -32 -39.167 -57.167 -69.5 -75.5s-64.5 -27.5 -102.5 -27.5zM444 238l0.00292969 43.001c0 27.333 -3.33301 52.166 -10 74.499s-16.667 41.833 -30 58.5c-14.667 18.667 -32.834 33.167 -54.501 43.5
s-44.167 15.5 -67.5 15.5c-51.333 0 -92.333 -19.333 -123 -58s-46 -90 -46 -154s15.333 -115.5 46 -154.5s71.667 -58.5 123 -58.5c23.333 0 45.666 5 66.999 15s39.666 24.333 54.999 43c13.333 16.667 23.333 36.167 30 58.5s10 46.833 10 73.5z" />
    <glyph glyph-name="Emacron" unicode="&#x112;" horiz-adv-x="596" 
d="M88 0v718h455v-61h-385v-255h327v-61h-327v-280h385v-61h-455zM463 843v-54h-300v54h300z" />
    <glyph glyph-name="emacron" unicode="&#x113;" horiz-adv-x="540" 
d="M283 -10c-70.667 0 -127.669 25 -171.002 75s-65 115.333 -65 196c0 37.333 5 72 15 104s24.667 60 44 84c21.333 27.333 46.833 48 76.5 62s62.167 21 97.5 21c66.667 0 119 -23 157 -69s57 -107.667 57 -185v-22h-384c0.666992 -62.667 16.834 -113 48.501 -151
s73.167 -57 124.5 -57c38 0 70 10 96 30s43 47.667 51 83l60 -19c-14 -48 -39.167 -85.333 -75.5 -112s-80.166 -40 -131.499 -40zM279.998 474c-44 0 -81 -14.833 -111 -44.5s-48.667 -70.167 -56 -121.5h314c-1.33301 50.667 -15 91 -41 121s-61.333 45 -106 45z
M408.998 667v-53h-258v53h258z" />
    <glyph glyph-name="Ebreve" unicode="&#x114;" horiz-adv-x="596" 
d="M88 0v718h455v-61h-385v-255h327v-61h-327v-280h385v-61h-455zM320 816c28 0 50.667 8.83301 68 26.5s26.333 41.167 27 70.5h51c0 -43.333 -13.333 -78.166 -40 -104.499s-62 -39.5 -106 -39.5s-79.333 13.167 -106 39.5s-40 61.166 -40 104.499h51
c0.666992 -29.333 9.66699 -52.833 27 -70.5s40 -26.5 68 -26.5z" />
    <glyph glyph-name="ebreve" unicode="&#x115;" horiz-adv-x="540" 
d="M283 -10c-70.667 0 -127.669 25 -171.002 75s-65 115.333 -65 196c0 37.333 5 72 15 104s24.667 60 44 84c21.333 27.333 46.833 48 76.5 62s62.167 21 97.5 21c66.667 0 119 -23 157 -69s57 -107.667 57 -185v-22h-384c0.666992 -62.667 16.834 -113 48.501 -151
s73.167 -57 124.5 -57c38 0 70 10 96 30s43 47.667 51 83l60 -19c-14 -48 -39.167 -85.333 -75.5 -112s-80.166 -40 -131.499 -40zM279.998 474c-44 0 -81 -14.833 -111 -44.5s-48.667 -70.167 -56 -121.5h314c-1.33301 50.667 -15 91 -41 121s-61.333 45 -106 45z
M277.998 625c24.667 0 43.832 8 57.499 24s20.834 39 21.501 69h47c0 -44 -11.333 -78.667 -34 -104s-53.334 -38 -92.001 -38s-69.334 12.667 -92.001 38s-34 60 -34 104h47c0.666992 -30 7.83398 -53 21.501 -69s32.834 -24 57.501 -24z" />
    <glyph glyph-name="Edotaccent" unicode="&#x116;" horiz-adv-x="596" 
d="M88 0v718h455v-61h-385v-255h327v-61h-327v-280h385v-61h-455zM359 776h-78v89h78v-89z" />
    <glyph glyph-name="edotaccent" unicode="&#x117;" horiz-adv-x="540" 
d="M283 -10c-70.667 0 -127.669 25 -171.002 75s-65 115.333 -65 196c0 37.333 5 72 15 104s24.667 60 44 84c21.333 27.333 46.833 48 76.5 62s62.167 21 97.5 21c66.667 0 119 -23 157 -69s57 -107.667 57 -185v-22h-384c0.666992 -62.667 16.834 -113 48.501 -151
s73.167 -57 124.5 -57c38 0 70 10 96 30s43 47.667 51 83l60 -19c-14 -48 -39.167 -85.333 -75.5 -112s-80.166 -40 -131.499 -40zM279.998 474c-44 0 -81 -14.833 -111 -44.5s-48.667 -70.167 -56 -121.5h314c-1.33301 50.667 -15 91 -41 121s-61.333 45 -106 45z
M318.998 629h-76v89h76v-89z" />
    <glyph glyph-name="Eogonek" unicode="&#x118;" horiz-adv-x="596" 
d="M438 -187c-23.333 0 -42.8311 7.00098 -58.498 21.001s-23.5 31.667 -23.5 53c0 18.667 5 36.667 15 54s27 37 51 59h-334v718h455v-61h-385v-255h327v-61h-327v-280h385v-61h-66c-29.333 -27.333 -48.333 -47.833 -57 -61.5s-13 -27.5 -13 -41.5
c0 -12.667 3.66699 -22.334 11 -29.001s17.666 -10 30.999 -10c7.33301 0 14.166 0.5 20.499 1.5s13.5 2.83301 21.5 5.5v-44c-9.33301 -2.66699 -18 -4.66699 -26 -6s-17 -2 -27 -2z" />
    <glyph glyph-name="eogonek" unicode="&#x119;" horiz-adv-x="540" 
d="M320 -187c-23.333 0 -42.832 7.00098 -58.499 21.001s-23.5 31.667 -23.5 53c0 18 4.16699 34.833 12.5 50.5s22.833 33.167 43.5 52.5h-5.5h-5.5c-70.667 0 -127.667 25 -171 75s-65 115.333 -65 196c0 37.333 5 72 15 104s24.667 60 44 84
c21.333 27.333 46.833 48 76.5 62s62.167 21 97.5 21c66.667 0 119 -23 157 -69s57 -107.667 57 -185v-22h-384c0.666992 -62.667 16.834 -113 48.501 -151s73.167 -57 124.5 -57c38 0 70 10 96 30s43 47.667 51 83l60 -19c-10 -34 -26.167 -63 -48.5 -87
s-49.166 -41.333 -80.499 -52c-30.667 -29.333 -50.334 -50.833 -59.001 -64.5s-13 -27.5 -13 -41.5c0 -12.667 3.66699 -22.334 11 -29.001s17.666 -10 30.999 -10c7.33301 0 14.166 0.5 20.499 1.5s13.5 2.83301 21.5 5.5v-44c-9.33301 -2.66699 -18 -4.66699 -26 -6
s-17 -2 -27 -2zM280.001 474.001c-44 0 -81 -14.833 -111 -44.5s-48.667 -70.167 -56 -121.5h314c-1.33301 50.667 -15 91 -41 121s-61.333 45 -106 45z" />
    <glyph glyph-name="Ecaron" unicode="&#x11a;" horiz-adv-x="596" 
d="M88 0v718h455v-61h-385v-255h327v-61h-327v-280h385v-61h-455zM481 912l-118 -143h-82l-118 143h55l104 -99l104 99h55z" />
    <glyph glyph-name="ecaron" unicode="&#x11b;" horiz-adv-x="540" 
d="M283 -10c-70.667 0 -127.669 25 -171.002 75s-65 115.333 -65 196c0 37.333 5 72 15 104s24.667 60 44 84c21.333 27.333 46.833 48 76.5 62s62.167 21 97.5 21c66.667 0 119 -23 157 -69s57 -107.667 57 -185v-22h-384c0.666992 -62.667 16.834 -113 48.501 -151
s73.167 -57 124.5 -57c38 0 70 10 96 30s43 47.667 51 83l60 -19c-14 -48 -39.167 -85.333 -75.5 -112s-80.166 -40 -131.499 -40zM279.998 474c-44 0 -81 -14.833 -111 -44.5s-48.667 -70.167 -56 -121.5h314c-1.33301 50.667 -15 91 -41 121s-61.333 45 -106 45z
M418.998 718l-97 -138h-76l-97 138h53l82 -92l82 92h53z" />
    <glyph glyph-name="Gcircumflex" unicode="&#x11c;" horiz-adv-x="714" 
d="M643 0l-65.0049 -0.00585938v133c-14.667 -42.667 -42.167 -77.167 -82.5 -103.5s-86.166 -39.5 -137.499 -39.5c-47.333 0 -91.166 9.83301 -131.499 29.5s-74.833 47.834 -103.5 84.501c-26 32.667 -45.833 70.667 -59.5 114s-20.5 90 -20.5 140
s6.83301 96.833 20.5 140.5s33.834 82.167 60.501 115.5c28.667 36.667 63.5 64.834 104.5 84.501s85.167 29.5 132.5 29.5c64.667 0 120.5 -16.667 167.5 -50s81.167 -80.666 102.5 -141.999l-68 -22c-14.667 48.667 -39.5 86.167 -74.5 112.5s-77.5 39.5 -127.5 39.5
c-38.667 0 -74.167 -8.33301 -106.5 -25s-59.833 -41 -82.5 -73c-19.333 -27.333 -34.166 -58.666 -44.499 -93.999s-15.5 -73.666 -15.5 -114.999s5.16699 -79.833 15.5 -115.5s25.166 -67.167 44.499 -94.5c22.667 -32 50.334 -56.333 83.001 -73s68.334 -25 107.001 -25
c63.333 0 114.333 22.833 153 68.5s58.667 105.834 60 180.501h-221v61h289v-361zM322.995 912.994h82l118 -143h-55l-104 99l-104 -99h-55z" />
    <glyph glyph-name="gcircumflex" unicode="&#x11d;" horiz-adv-x="593" 
d="M508 522l-0.000976562 -478.999c0 -72.667 -20.833 -129.667 -62.5 -171s-98.5 -62 -170.5 -62c-55.333 0 -102.5 12.833 -141.5 38.5s-64.833 61.167 -77.5 106.5l63 25c8.66699 -36 26.834 -64 54.501 -84s61.5 -30 101.5 -30c54 0 95.333 14.667 124 44
s43 72.333 43 129v76c-14.667 -32 -37 -57.333 -67 -76s-63.667 -28 -101 -28c-34.667 0 -66.334 6.83301 -95.001 20.5s-53.334 33.167 -74.001 58.5c-18.667 23.333 -33 50.666 -43 81.999s-15 64.333 -15 99c0 35.333 5 68.5 15 99.5s24.333 58.5 43 82.5
c20.667 25.333 45.334 44.833 74.001 58.5s60.334 20.5 95.001 20.5c36.667 0 70.167 -9.5 100.5 -28.5s52.833 -44.5 67.5 -76.5v95h66zM442.999 257.001v26c0 26.667 -3.33301 51 -10 73s-16.667 41.333 -30 58c-14.667 18.667 -32.5 33.167 -53.5 43.5
s-43.167 15.5 -66.5 15.5c-51.333 0 -92.333 -18.333 -123 -55s-46 -85.667 -46 -147c0 -60.667 15.333 -109.5 46 -146.5s71.667 -55.5 123 -55.5c23.333 0 45.5 5 66.5 15s38.833 24.333 53.5 43c13.333 16.667 23.333 36 30 58s10 46 10 72zM258.999 718.001h76l97 -138
h-53l-82 92l-82 -92h-53z" />
    <glyph glyph-name="Gbreve" unicode="&#x11e;" horiz-adv-x="714" 
d="M643 0l-65.0049 -0.00585938v133c-14.667 -42.667 -42.167 -77.167 -82.5 -103.5s-86.166 -39.5 -137.499 -39.5c-47.333 0 -91.166 9.83301 -131.499 29.5s-74.833 47.834 -103.5 84.501c-26 32.667 -45.833 70.667 -59.5 114s-20.5 90 -20.5 140
s6.83301 96.833 20.5 140.5s33.834 82.167 60.501 115.5c28.667 36.667 63.5 64.834 104.5 84.501s85.167 29.5 132.5 29.5c64.667 0 120.5 -16.667 167.5 -50s81.167 -80.666 102.5 -141.999l-68 -22c-14.667 48.667 -39.5 86.167 -74.5 112.5s-77.5 39.5 -127.5 39.5
c-38.667 0 -74.167 -8.33301 -106.5 -25s-59.833 -41 -82.5 -73c-19.333 -27.333 -34.166 -58.666 -44.499 -93.999s-15.5 -73.666 -15.5 -114.999s5.16699 -79.833 15.5 -115.5s25.166 -67.167 44.499 -94.5c22.667 -32 50.334 -56.333 83.001 -73s68.334 -25 107.001 -25
c63.333 0 114.333 22.833 153 68.5s58.667 105.834 60 180.501h-221v61h289v-361zM363.995 815.994c28 0 50.667 8.83301 68 26.5s26.333 41.167 27 70.5h51c0 -43.333 -13.333 -78.166 -40 -104.499s-62 -39.5 -106 -39.5s-79.333 13.167 -106 39.5s-40 61.166 -40 104.499
h51c0.666992 -29.333 9.66699 -52.833 27 -70.5s40 -26.5 68 -26.5z" />
    <glyph glyph-name="gbreve" unicode="&#x11f;" horiz-adv-x="593" 
d="M508 522l-0.000976562 -478.999c0 -72.667 -20.833 -129.667 -62.5 -171s-98.5 -62 -170.5 -62c-55.333 0 -102.5 12.833 -141.5 38.5s-64.833 61.167 -77.5 106.5l63 25c8.66699 -36 26.834 -64 54.501 -84s61.5 -30 101.5 -30c54 0 95.333 14.667 124 44
s43 72.333 43 129v76c-14.667 -32 -37 -57.333 -67 -76s-63.667 -28 -101 -28c-34.667 0 -66.334 6.83301 -95.001 20.5s-53.334 33.167 -74.001 58.5c-18.667 23.333 -33 50.666 -43 81.999s-15 64.333 -15 99c0 35.333 5 68.5 15 99.5s24.333 58.5 43 82.5
c20.667 25.333 45.334 44.833 74.001 58.5s60.334 20.5 95.001 20.5c36.667 0 70.167 -9.5 100.5 -28.5s52.833 -44.5 67.5 -76.5v95h66zM442.999 257.001v26c0 26.667 -3.33301 51 -10 73s-16.667 41.333 -30 58c-14.667 18.667 -32.5 33.167 -53.5 43.5
s-43.167 15.5 -66.5 15.5c-51.333 0 -92.333 -18.333 -123 -55s-46 -85.667 -46 -147c0 -60.667 15.333 -109.5 46 -146.5s71.667 -55.5 123 -55.5c23.333 0 45.5 5 66.5 15s38.833 24.333 53.5 43c13.333 16.667 23.333 36 30 58s10 46 10 72zM294.999 625.001
c24.667 0 43.832 8 57.499 24s20.834 39 21.501 69h47c0 -44 -11.333 -78.667 -34 -104s-53.334 -38 -92.001 -38s-69.334 12.667 -92.001 38s-34 60 -34 104h47c0.666992 -30 7.83398 -53 21.501 -69s32.834 -24 57.501 -24z" />
    <glyph glyph-name="Gdotaccent" unicode="&#x120;" horiz-adv-x="714" 
d="M643 0l-65.0049 -0.00585938v133c-14.667 -42.667 -42.167 -77.167 -82.5 -103.5s-86.166 -39.5 -137.499 -39.5c-47.333 0 -91.166 9.83301 -131.499 29.5s-74.833 47.834 -103.5 84.501c-26 32.667 -45.833 70.667 -59.5 114s-20.5 90 -20.5 140
s6.83301 96.833 20.5 140.5s33.834 82.167 60.501 115.5c28.667 36.667 63.5 64.834 104.5 84.501s85.167 29.5 132.5 29.5c64.667 0 120.5 -16.667 167.5 -50s81.167 -80.666 102.5 -141.999l-68 -22c-14.667 48.667 -39.5 86.167 -74.5 112.5s-77.5 39.5 -127.5 39.5
c-38.667 0 -74.167 -8.33301 -106.5 -25s-59.833 -41 -82.5 -73c-19.333 -27.333 -34.166 -58.666 -44.499 -93.999s-15.5 -73.666 -15.5 -114.999s5.16699 -79.833 15.5 -115.5s25.166 -67.167 44.499 -94.5c22.667 -32 50.334 -56.333 83.001 -73s68.334 -25 107.001 -25
c63.333 0 114.333 22.833 153 68.5s58.667 105.834 60 180.501h-221v61h289v-361zM401.995 775.994h-78v89h78v-89z" />
    <glyph glyph-name="gdotaccent" unicode="&#x121;" horiz-adv-x="593" 
d="M508 522l-0.000976562 -478.999c0 -72.667 -20.833 -129.667 -62.5 -171s-98.5 -62 -170.5 -62c-55.333 0 -102.5 12.833 -141.5 38.5s-64.833 61.167 -77.5 106.5l63 25c8.66699 -36 26.834 -64 54.501 -84s61.5 -30 101.5 -30c54 0 95.333 14.667 124 44
s43 72.333 43 129v76c-14.667 -32 -37 -57.333 -67 -76s-63.667 -28 -101 -28c-34.667 0 -66.334 6.83301 -95.001 20.5s-53.334 33.167 -74.001 58.5c-18.667 23.333 -33 50.666 -43 81.999s-15 64.333 -15 99c0 35.333 5 68.5 15 99.5s24.333 58.5 43 82.5
c20.667 25.333 45.334 44.833 74.001 58.5s60.334 20.5 95.001 20.5c36.667 0 70.167 -9.5 100.5 -28.5s52.833 -44.5 67.5 -76.5v95h66zM442.999 257.001v26c0 26.667 -3.33301 51 -10 73s-16.667 41.333 -30 58c-14.667 18.667 -32.5 33.167 -53.5 43.5
s-43.167 15.5 -66.5 15.5c-51.333 0 -92.333 -18.333 -123 -55s-46 -85.667 -46 -147c0 -60.667 15.333 -109.5 46 -146.5s71.667 -55.5 123 -55.5c23.333 0 45.5 5 66.5 15s38.833 24.333 53.5 43c13.333 16.667 23.333 36 30 58s10 46 10 72zM328.999 629.001h-76v89h76
v-89z" />
    <glyph glyph-name="Gcommaaccent" unicode="&#x122;" horiz-adv-x="714" 
d="M643 0l-65.0049 -0.00585938v133c-14.667 -42.667 -42.167 -77.167 -82.5 -103.5s-86.166 -39.5 -137.499 -39.5c-47.333 0 -91.166 9.83301 -131.499 29.5s-74.833 47.834 -103.5 84.501c-26 32.667 -45.833 70.667 -59.5 114s-20.5 90 -20.5 140
s6.83301 96.833 20.5 140.5s33.834 82.167 60.501 115.5c28.667 36.667 63.5 64.834 104.5 84.501s85.167 29.5 132.5 29.5c64.667 0 120.5 -16.667 167.5 -50s81.167 -80.666 102.5 -141.999l-68 -22c-14.667 48.667 -39.5 86.167 -74.5 112.5s-77.5 39.5 -127.5 39.5
c-38.667 0 -74.167 -8.33301 -106.5 -25s-59.833 -41 -82.5 -73c-19.333 -27.333 -34.166 -58.666 -44.499 -93.999s-15.5 -73.666 -15.5 -114.999s5.16699 -79.833 15.5 -115.5s25.166 -67.167 44.499 -94.5c22.667 -32 50.334 -56.333 83.001 -73s68.334 -25 107.001 -25
c63.333 0 114.333 22.833 153 68.5s58.667 105.834 60 180.501h-221v61h289v-361zM358.995 -113.006h-32v66h78v-59c0 -26 -8.83301 -47 -26.5 -63s-41.5 -24.333 -71.5 -25v32c18 1.33301 31 5.83301 39 13.5s12.333 19.5 13 35.5z" />
    <glyph glyph-name="gcommaaccent" unicode="&#x123;" horiz-adv-x="593" 
d="M508 522l-0.000976562 -478.999c0 -72.667 -20.833 -129.667 -62.5 -171s-98.5 -62 -170.5 -62c-55.333 0 -102.5 12.833 -141.5 38.5s-64.833 61.167 -77.5 106.5l63 25c8.66699 -36 26.834 -64 54.501 -84s61.5 -30 101.5 -30c54 0 95.333 14.667 124 44
s43 72.333 43 129v76c-14.667 -32 -37 -57.333 -67 -76s-63.667 -28 -101 -28c-34.667 0 -66.334 6.83301 -95.001 20.5s-53.334 33.167 -74.001 58.5c-18.667 23.333 -33 50.666 -43 81.999s-15 64.333 -15 99c0 35.333 5 68.5 15 99.5s24.333 58.5 43 82.5
c20.667 25.333 45.334 44.833 74.001 58.5s60.334 20.5 95.001 20.5c36.667 0 70.167 -9.5 100.5 -28.5s52.833 -44.5 67.5 -76.5v95h66zM442.999 257.001v26c0 26.667 -3.33301 51 -10 73s-16.667 41.333 -30 58c-14.667 18.667 -32.5 33.167 -53.5 43.5
s-43.167 15.5 -66.5 15.5c-51.333 0 -92.333 -18.333 -123 -55s-46 -85.667 -46 -147c0 -60.667 15.333 -109.5 46 -146.5s71.667 -55.5 123 -55.5c23.333 0 45.5 5 66.5 15s38.833 24.333 53.5 43c13.333 16.667 23.333 36 30 58s10 46 10 72zM301.999 646.001h32v-66h-78
v59c0 26 8.83301 47 26.5 63s41.5 24.333 71.5 25v-32c-18 -1.33301 -31 -5.83301 -39 -13.5s-12.333 -19.5 -13 -35.5z" />
    <glyph glyph-name="Hcircumflex" unicode="&#x124;" horiz-adv-x="735" 
d="M576 402v316h70v-718h-70v341h-418v-341h-70v718h70v-316h418zM326 913h82l118 -143h-55l-104 99l-104 -99h-55z" />
    <glyph glyph-name="hcircumflex" unicode="&#x125;" horiz-adv-x="566" 
d="M150 0h-66v718h66v-280c17.333 29.333 40.333 52.333 69 69s60.667 25 96 25c54 0 96.167 -16.833 126.5 -50.5s45.5 -79.834 45.5 -138.501v-343h-66v328c0 45.333 -10.5 80.333 -31.5 105s-51.167 37 -90.5 37c-19.333 0 -38.333 -4 -57 -12s-35 -19 -49 -33
c-14 -14.667 -24.667 -31.167 -32 -49.5s-11 -38.166 -11 -59.499v-316zM253 913h82l118 -143h-55l-104 99l-104 -99h-55z" />
    <glyph glyph-name="Hbar" unicode="&#x126;" horiz-adv-x="755" 
d="M729 555v-61h-73v-494h-70v294h-418v-294h-70v494h-72v61h72v163h70v-163h418v163h70v-163h73zM168 494v-140h418v140h-418z" />
    <glyph glyph-name="hbar" unicode="&#x127;" horiz-adv-x="566" 
d="M150 0h-66v584h-66v53h66v81h66v-81h152v-53h-152v-146c17.333 29.333 40.333 52.333 69 69s60.667 25 96 25c54 0 96.167 -16.833 126.5 -50.5s45.5 -79.834 45.5 -138.501v-343h-66v328c0 45.333 -10.5 80.333 -31.5 105s-51.167 37 -90.5 37
c-19.333 0 -38.333 -4 -57 -12s-35 -19 -49 -33c-14 -14.667 -24.667 -31.167 -32 -49.5s-11 -38.166 -11 -59.499v-316z" />
    <glyph glyph-name="Itilde" unicode="&#x128;" horiz-adv-x="247" 
d="M88 718h70v-718h-70v718zM52 897c12 0 24 -2.66699 36 -8s27.667 -16 47 -32c14.667 -12.667 26 -21 34 -25s15.667 -6 23 -6c16 0 28.5 5.66699 37.5 17s15.167 29.333 18.5 54h49c-3.33301 -40 -13.833 -71 -31.5 -93s-41.167 -33 -70.5 -33
c-12 0 -23.833 2.5 -35.5 7.5s-26.834 15.5 -45.501 31.5c-15.333 13.333 -27 21.833 -35 25.5s-15.667 5.5 -23 5.5c-16.667 0 -29.5 -5.83301 -38.5 -17.5s-14.833 -29.5 -17.5 -53.5h-49c3.33301 40 13.833 71.167 31.5 93.5s40.834 33.5 69.501 33.5z" />
    <glyph glyph-name="itilde" unicode="&#x129;" horiz-adv-x="234" 
d="M58 714c10.667 0 21.001 -2.50098 31.001 -7.50098s23 -15.5 39 -31.5c12.667 -13.333 22.334 -21.833 29.001 -25.5s13.334 -5.5 20.001 -5.5c13.333 0 23.666 5.66699 30.999 17s12.333 29.333 15 54h45c-2.66699 -40 -11.667 -70.833 -27 -92.5s-36 -32.5 -62 -32.5
c-10.667 0 -21 2.66699 -31 8s-23 16 -39 32c-12.667 12.667 -22.334 20.834 -29.001 24.501s-13.334 5.5 -20.001 5.5c-13.333 0 -23.666 -5.33301 -30.999 -16s-12.333 -28.667 -15 -54h-46c3.33301 40 12.666 70.667 27.999 92s36 32 62 32zM84.001 521.999h66v-522h-66
v522z" />
    <glyph glyph-name="Imacron" unicode="&#x12a;" horiz-adv-x="247" 
d="M88 718h70v-718h-70v718zM273 843v-54h-300v54h300z" />
    <glyph glyph-name="imacron" unicode="&#x12b;" horiz-adv-x="234" 
d="M243 667v-53h-252v53h252zM84 522h66v-522h-66v522z" />
    <glyph glyph-name="Ibreve" unicode="&#x12c;" horiz-adv-x="247" 
d="M88 718h70v-718h-70v718zM124 816c28 0 50.667 8.83301 68 26.5s26.333 41.167 27 70.5h51c0 -43.333 -13.333 -78.166 -40 -104.499s-62 -39.5 -106 -39.5s-79.333 13.167 -106 39.5s-40 61.166 -40 104.499h51c0.666992 -29.333 9.66699 -52.833 27 -70.5
s40 -26.5 68 -26.5z" />
    <glyph glyph-name="ibreve" unicode="&#x12d;" horiz-adv-x="234" 
d="M117 625c24.667 0 44.001 8.16699 58.001 24.5s21 39.166 21 68.499h48c0 -44 -11.333 -78.667 -34 -104s-53.667 -38 -93 -38c-38.667 0 -69.334 12.667 -92.001 38s-34 60 -34 104h47c0.666992 -29.333 8 -52.166 22 -68.499s33 -24.5 57 -24.5zM84.001 522h66v-522
h-66v522z" />
    <glyph glyph-name="Iogonek" unicode="&#x12e;" horiz-adv-x="247" 
d="M112 -187c-23.333 0 -42.8311 7.00098 -58.498 21.001s-23.5 31.667 -23.5 53c0 18.667 5 36.667 15 54s27 37 51 59h-8v718h70v-718h-7c-29.333 -27.333 -48.333 -47.833 -57 -61.5s-13 -27.5 -13 -41.5c0 -12.667 3.66699 -22.334 11 -29.001s17.666 -10 30.999 -10
c7.33301 0 14.166 0.5 20.499 1.5s13.5 2.83301 21.5 5.5v-44c-9.33301 -2.66699 -18 -4.66699 -26 -6s-17 -2 -27 -2z" />
    <glyph glyph-name="iogonek" unicode="&#x12f;" horiz-adv-x="234" 
d="M156 629h-77v89h77v-89zM103 -187c-23.333 0 -42.8311 7.00098 -58.498 21.001s-23.5 31.667 -23.5 53c0 18.667 5 36.667 15 54s27 37 51 59h-3v522h66v-522h-8c-29.333 -27.333 -48.333 -47.833 -57 -61.5s-13 -27.5 -13 -41.5c0 -12.667 3.66699 -22.334 11 -29.001
s17.666 -10 30.999 -10c7.33301 0 14.166 0.5 20.499 1.5s13.5 2.83301 21.5 5.5v-44c-9.33301 -2.66699 -18 -4.66699 -26 -6s-17 -2 -27 -2z" />
    <glyph glyph-name="Idotaccent" unicode="&#x130;" horiz-adv-x="247" 
d="M88 718h70v-718h-70v718zM162 776h-78v89h78v-89z" />
    <glyph glyph-name="dotlessi" unicode="&#x131;" horiz-adv-x="234" 
d="M84 522h66v-522h-66v522z" />
    <glyph glyph-name="Jcircumflex" unicode="&#x134;" horiz-adv-x="423" 
d="M139 -9c-18.667 0 -36.667 0.833008 -54 2.5s-35.333 4.5 -54 8.5v64c18 -4 35.167 -7 51.5 -9s32.5 -3 48.5 -3c54 0 92.333 11.5 115 34.5s34 60.833 34 113.5v516h70v-522c0 -68.667 -17.5 -120 -52.5 -154s-87.833 -51 -158.5 -51zM276 913h82l118 -143h-55l-104 99
l-104 -99h-55z" />
    <glyph glyph-name="jcircumflex" unicode="&#x135;" horiz-adv-x="234" 
d="M8 -125c26.667 0 46 7.16797 58 21.501s18 37.5 18 69.5v556h66v-566c0 -44.667 -11.5 -79.167 -34.5 -103.5s-56.167 -36.5 -99.5 -36.5c-8 0 -15.167 0.166992 -21.5 0.5s-14.166 1.16602 -23.499 2.49902v60c7.33301 -1.33301 13.666 -2.33301 18.999 -3
s11.333 -1 18 -1zM80 718.001h76l97 -138h-53l-82 92l-82 -92h-53z" />
    <glyph glyph-name="Kcommaaccent" unicode="&#x136;" horiz-adv-x="631" 
d="M88 718h70v-382l363 382h86l-301 -314l314 -404h-84l-277 354l-101 -105v-249h-70v718zM312 -113h-32v66h78v-59c0 -26 -8.83301 -47 -26.5 -63s-41.5 -24.333 -71.5 -25v32c18 1.33301 31 5.83301 39 13.5s12.333 19.5 13 35.5z" />
    <glyph glyph-name="kcommaaccent" unicode="&#x137;" horiz-adv-x="524" 
d="M84 718h66v-459l256 263h85l-210 -209l227 -313h-78l-195 267l-85 -85v-182h-66v718zM267 -113h-32v66h78v-59c0 -26 -8.83301 -47 -26.5 -63s-41.5 -24.333 -71.5 -25v32c18 1.33301 31 5.83301 39 13.5s12.333 19.5 13 35.5z" />
    <glyph glyph-name="kgreenlandic" unicode="&#x138;" horiz-adv-x="524" 
d="M84 522h66v-264l257 264h84l-210 -209l227 -313h-78l-195 267l-85 -85v-182h-66v522z" />
    <glyph glyph-name="Lacute" unicode="&#x139;" horiz-adv-x="551" 
d="M533 0h-445v718h70v-657h375v-61zM153 770h-54l110 143h94z" />
    <glyph glyph-name="lacute" unicode="&#x13a;" horiz-adv-x="234" 
d="M84 718h66v-718h-66v718zM144 770h-54l110 143h94z" />
    <glyph glyph-name="Lcommaaccent" unicode="&#x13b;" horiz-adv-x="551" 
d="M533 0h-445v718h70v-657h375v-61zM308 -113h-32v66h78v-59c0 -26 -8.83301 -47 -26.5 -63s-41.5 -24.333 -71.5 -25v32c18 1.33301 31 5.83301 39 13.5s12.333 19.5 13 35.5z" />
    <glyph glyph-name="lcommaaccent" unicode="&#x13c;" horiz-adv-x="234" 
d="M84 718h66v-718h-66v718zM111 -113h-32v66h78v-59c0 -26 -8.83301 -47 -26.5 -63s-41.5 -24.333 -71.5 -25v32c18 1.33301 31 5.83301 39 13.5s12.333 19.5 13 35.5z" />
    <glyph glyph-name="Lcaron" unicode="&#x13d;" horiz-adv-x="551" 
d="M533 0h-445v718h70v-657h375v-61zM395 531h-45l29 187h76z" />
    <glyph glyph-name="lcaron" unicode="&#x13e;" horiz-adv-x="301" 
d="M84 718h66v-718h-66v718zM264 531h-45l29 187h76z" />
    <glyph glyph-name="Ldot" unicode="&#x13f;" horiz-adv-x="551" 
d="M533 0h-445v718h70v-657h375v-61zM455 339h-76v89h76v-89z" />
    <glyph glyph-name="ldot" unicode="&#x140;" horiz-adv-x="346" 
d="M84 718h66v-718h-66v718zM323 336h-76v89h76v-89z" />
    <glyph glyph-name="Lslash" unicode="&#x141;" horiz-adv-x="567" 
d="M543 0h-445v277l-72 -30v60l72 30v381h70v-351l176 74v-60l-176 -74v-246h375v-61z" />
    <glyph glyph-name="lslash" unicode="&#x142;" horiz-adv-x="283" 
d="M262 518v-66l-88 -64v-388h-66v348l-87 -62v65l87 63v304h66v-264z" />
    <glyph glyph-name="Nacute" unicode="&#x143;" horiz-adv-x="724" 
d="M567 718h68v-718h-60l-419 619v-619h-68v718h77l402 -596v596zM365 770h-54l110 143h94z" />
    <glyph glyph-name="nacute" unicode="&#x144;" horiz-adv-x="566" 
d="M150 0h-66v522h66v-84c17.333 29.333 40.333 52.333 69 69s60.667 25 96 25c54 0 96.167 -16.833 126.5 -50.5s45.5 -79.834 45.5 -138.501v-343h-66v328c0 45.333 -10.5 80.333 -31.5 105s-51.167 37 -90.5 37c-19.333 0 -38.333 -4 -57 -12s-35 -19 -49 -33
c-14 -14.667 -24.667 -31.167 -32 -49.5s-11 -38.166 -11 -59.499v-316zM307 580h-52l58 138h84z" />
    <glyph glyph-name="Ncommaaccent" unicode="&#x145;" horiz-adv-x="724" 
d="M567 718h68v-718h-60l-419 619v-619h-68v718h77l402 -596v596zM359 -113h-32v66h78v-59c0 -26 -8.83301 -47 -26.5 -63s-41.5 -24.333 -71.5 -25v32c18 1.33301 31 5.83301 39 13.5s12.333 19.5 13 35.5z" />
    <glyph glyph-name="ncommaaccent" unicode="&#x146;" horiz-adv-x="566" 
d="M150 0h-66v522h66v-84c17.333 29.333 40.333 52.333 69 69s60.667 25 96 25c54 0 96.167 -16.833 126.5 -50.5s45.5 -79.834 45.5 -138.501v-343h-66v328c0 45.333 -10.5 80.333 -31.5 105s-51.167 37 -90.5 37c-19.333 0 -38.333 -4 -57 -12s-35 -19 -49 -33
c-14 -14.667 -24.667 -31.167 -32 -49.5s-11 -38.166 -11 -59.499v-316zM284 -113h-32v66h78v-59c0 -26 -8.83301 -47 -26.5 -63s-41.5 -24.333 -71.5 -25v32c18 1.33301 31 5.83301 39 13.5s12.333 19.5 13 35.5z" />
    <glyph glyph-name="Ncaron" unicode="&#x147;" horiz-adv-x="724" 
d="M567 718h68v-718h-60l-419 619v-619h-68v718h77l402 -596v596zM532 912l-118 -143h-82l-118 143h55l104 -99l104 99h55z" />
    <glyph glyph-name="ncaron" unicode="&#x148;" horiz-adv-x="566" 
d="M150 0h-66v522h66v-84c17.333 29.333 40.333 52.333 69 69s60.667 25 96 25c54 0 96.167 -16.833 126.5 -50.5s45.5 -79.834 45.5 -138.501v-343h-66v328c0 45.333 -10.5 80.333 -31.5 105s-51.167 37 -90.5 37c-19.333 0 -38.333 -4 -57 -12s-35 -19 -49 -33
c-14 -14.667 -24.667 -31.167 -32 -49.5s-11 -38.166 -11 -59.499v-316zM426 718l-97 -138h-76l-97 138h53l82 -92l82 92h53z" />
    <glyph glyph-name="Eng" unicode="&#x14a;" horiz-adv-x="724" 
d="M567 124l-0.000976562 594.001h68v-762c0 -45.333 -11.667 -80 -35 -104s-56.666 -36 -99.999 -36c-8 0 -15.333 0.166992 -22 0.5s-14 1.16602 -22 2.49902v60c6.66699 -1.33301 12.667 -2.33301 18 -3s11.333 -1 18 -1c26.667 0 46 7.16699 58 21.5s18 37.5 18 69.5v44
l-412 608v-618h-68v718h77z" />
    <glyph glyph-name="eng" unicode="&#x14b;" horiz-adv-x="566" 
d="M315 532c54 0 96.167 -16.832 126.5 -50.499s45.5 -79.834 45.5 -138.501v-387c0 -44.667 -11.5 -79.167 -34.5 -103.5s-56.167 -36.5 -99.5 -36.5c-8 0 -15.167 0.166992 -21.5 0.5s-14.166 1.16602 -23.499 2.49902v60c6.66699 -1.33301 12.667 -2.33301 18 -3
s11.666 -1 18.999 -1c26.667 0 46 7.16699 58 21.5s18 37.5 18 69.5v362c0 45.333 -10.5 80.333 -31.5 105s-51.167 37 -90.5 37c-19.333 0 -38.333 -4 -57 -12s-35 -19 -49 -33c-14 -14.667 -24.667 -31.167 -32 -49.5s-11 -38.166 -11 -59.499v-316h-66v522h66v-84
c17.333 29.333 40.333 52.333 69 69s60.667 25 96 25z" />
    <glyph glyph-name="Omacron" unicode="&#x14c;" horiz-adv-x="722" 
d="M124 104c-26.667 32.667 -46.834 70.834 -60.501 114.501s-20.5 90.5 -20.5 140.5s6.83301 96.833 20.5 140.5s33.834 81.834 60.501 114.501c28.667 36.667 63.5 64.834 104.5 84.501s85.167 29.5 132.5 29.5s91.5 -9.83301 132.5 -29.5s76.167 -47.834 105.5 -84.501
c26 -32.667 46 -70.834 60 -114.501s21 -90.5 21 -140.5s-7 -96.833 -21 -140.5s-34 -81.834 -60 -114.501c-29.333 -36.667 -64.5 -64.834 -105.5 -84.501s-85.167 -29.5 -132.5 -29.5s-91.5 9.83301 -132.5 29.5s-75.833 47.834 -104.5 84.501zM550 149
c19.333 27.333 34.166 58.835 44.499 94.502s15.5 74.167 15.5 115.5s-5.16699 79.833 -15.5 115.5s-25.166 67.167 -44.499 94.5c-22.667 31.333 -50.167 55.333 -82.5 72s-67.833 25 -106.5 25s-74.167 -8.33301 -106.5 -25s-59.833 -41 -82.5 -73
c-19.333 -27.333 -34.166 -58.833 -44.499 -94.5s-15.5 -73.834 -15.5 -114.501s5.16699 -78.834 15.5 -114.501s25.166 -67.167 44.499 -94.5c22.667 -32 50.167 -56.333 82.5 -73s67.833 -25 106.5 -25s74.167 8.33301 106.5 25s59.833 40.667 82.5 72zM511 843.002v-54
h-300v54h300z" />
    <glyph glyph-name="omacron" unicode="&#x14d;" horiz-adv-x="562" 
d="M456 450c20 -24 35 -52.167 45 -84.5s15 -67.166 15 -104.499s-5 -72.166 -15 -104.499s-25 -60.5 -45 -84.5c-20.667 -26.667 -46 -47 -76 -61s-63 -21 -99 -21s-68.833 7 -98.5 21s-55.167 34.333 -76.5 61c-19.333 24 -34 52.167 -44 84.5s-15 67.166 -15 104.499
s5 72.166 15 104.499s24.667 60.5 44 84.5c21.333 26.667 46.833 47 76.5 61s62.5 21 98.5 21s69 -7 99 -21s55.333 -34.333 76 -61zM281 475c-50.667 0 -91.334 -19.5 -122.001 -58.5s-46 -90.833 -46 -155.5s15.333 -116.5 46 -155.5s71.334 -58.5 122.001 -58.5
s91.334 19.5 122.001 58.5s46 90.833 46 155.5s-15.333 116.5 -46 155.5s-71.334 58.5 -122.001 58.5zM410 667v-53h-258v53h258z" />
    <glyph glyph-name="Obreve" unicode="&#x14e;" horiz-adv-x="722" 
d="M124 104c-26.667 32.667 -46.834 70.834 -60.501 114.501s-20.5 90.5 -20.5 140.5s6.83301 96.833 20.5 140.5s33.834 81.834 60.501 114.501c28.667 36.667 63.5 64.834 104.5 84.501s85.167 29.5 132.5 29.5s91.5 -9.83301 132.5 -29.5s76.167 -47.834 105.5 -84.501
c26 -32.667 46 -70.834 60 -114.501s21 -90.5 21 -140.5s-7 -96.833 -21 -140.5s-34 -81.834 -60 -114.501c-29.333 -36.667 -64.5 -64.834 -105.5 -84.501s-85.167 -29.5 -132.5 -29.5s-91.5 9.83301 -132.5 29.5s-75.833 47.834 -104.5 84.501zM550 149
c19.333 27.333 34.166 58.835 44.499 94.502s15.5 74.167 15.5 115.5s-5.16699 79.833 -15.5 115.5s-25.166 67.167 -44.499 94.5c-22.667 31.333 -50.167 55.333 -82.5 72s-67.833 25 -106.5 25s-74.167 -8.33301 -106.5 -25s-59.833 -41 -82.5 -73
c-19.333 -27.333 -34.166 -58.833 -44.499 -94.5s-15.5 -73.834 -15.5 -114.501s5.16699 -78.834 15.5 -114.501s25.166 -67.167 44.499 -94.5c22.667 -32 50.167 -56.333 82.5 -73s67.833 -25 106.5 -25s74.167 8.33301 106.5 25s59.833 40.667 82.5 72zM361 816.002
c28 0 50.667 8.83301 68 26.5s26.333 41.167 27 70.5h51c0 -43.333 -13.333 -78.166 -40 -104.499s-62 -39.5 -106 -39.5s-79.333 13.167 -106 39.5s-40 61.166 -40 104.499h51c0.666992 -29.333 9.66699 -52.833 27 -70.5s40 -26.5 68 -26.5z" />
    <glyph glyph-name="obreve" unicode="&#x14f;" horiz-adv-x="562" 
d="M456 450c20 -24 35 -52.167 45 -84.5s15 -67.166 15 -104.499s-5 -72.166 -15 -104.499s-25 -60.5 -45 -84.5c-20.667 -26.667 -46 -47 -76 -61s-63 -21 -99 -21s-68.833 7 -98.5 21s-55.167 34.333 -76.5 61c-19.333 24 -34 52.167 -44 84.5s-15 67.166 -15 104.499
s5 72.166 15 104.499s24.667 60.5 44 84.5c21.333 26.667 46.833 47 76.5 61s62.5 21 98.5 21s69 -7 99 -21s55.333 -34.333 76 -61zM281 475c-50.667 0 -91.334 -19.5 -122.001 -58.5s-46 -90.833 -46 -155.5s15.333 -116.5 46 -155.5s71.334 -58.5 122.001 -58.5
s91.334 19.5 122.001 58.5s46 90.833 46 155.5s-15.333 116.5 -46 155.5s-71.334 58.5 -122.001 58.5zM281 625c24.667 0 43.832 8 57.499 24s20.834 39 21.501 69h47c0 -44 -11.333 -78.667 -34 -104s-53.334 -38 -92.001 -38s-69.334 12.667 -92.001 38s-34 60 -34 104h47
c0.666992 -30 7.83398 -53 21.501 -69s32.834 -24 57.501 -24z" />
    <glyph glyph-name="Ohungarumlaut" unicode="&#x150;" horiz-adv-x="722" 
d="M124 104c-26.667 32.667 -46.834 70.834 -60.501 114.501s-20.5 90.5 -20.5 140.5s6.83301 96.833 20.5 140.5s33.834 81.834 60.501 114.501c28.667 36.667 63.5 64.834 104.5 84.501s85.167 29.5 132.5 29.5s91.5 -9.83301 132.5 -29.5s76.167 -47.834 105.5 -84.501
c26 -32.667 46 -70.834 60 -114.501s21 -90.5 21 -140.5s-7 -96.833 -21 -140.5s-34 -81.834 -60 -114.501c-29.333 -36.667 -64.5 -64.834 -105.5 -84.501s-85.167 -29.5 -132.5 -29.5s-91.5 9.83301 -132.5 29.5s-75.833 47.834 -104.5 84.501zM550 149
c19.333 27.333 34.166 58.835 44.499 94.502s15.5 74.167 15.5 115.5s-5.16699 79.833 -15.5 115.5s-25.166 67.167 -44.499 94.5c-22.667 31.333 -50.167 55.333 -82.5 72s-67.833 25 -106.5 25s-74.167 -8.33301 -106.5 -25s-59.833 -41 -82.5 -73
c-19.333 -27.333 -34.166 -58.833 -44.499 -94.5s-15.5 -73.834 -15.5 -114.501s5.16699 -78.834 15.5 -114.501s25.166 -67.167 44.499 -94.5c22.667 -32 50.167 -56.333 82.5 -73s67.833 -25 106.5 -25s74.167 8.33301 106.5 25s59.833 40.667 82.5 72zM470 770.002h-52
l97 143h84zM298 770.002h-53l98 143h83z" />
    <glyph glyph-name="ohungarumlaut" unicode="&#x151;" horiz-adv-x="562" 
d="M456 450c20 -24 35 -52.167 45 -84.5s15 -67.166 15 -104.499s-5 -72.166 -15 -104.499s-25 -60.5 -45 -84.5c-20.667 -26.667 -46 -47 -76 -61s-63 -21 -99 -21s-68.833 7 -98.5 21s-55.167 34.333 -76.5 61c-19.333 24 -34 52.167 -44 84.5s-15 67.166 -15 104.499
s5 72.166 15 104.499s24.667 60.5 44 84.5c21.333 26.667 46.833 47 76.5 61s62.5 21 98.5 21s69 -7 99 -21s55.333 -34.333 76 -61zM281 475c-50.667 0 -91.334 -19.5 -122.001 -58.5s-46 -90.833 -46 -155.5s15.333 -116.5 46 -155.5s71.334 -58.5 122.001 -58.5
s91.334 19.5 122.001 58.5s46 90.833 46 155.5s-15.333 116.5 -46 155.5s-71.334 58.5 -122.001 58.5zM375 580h-48l63 138h78zM231 580h-48l63 138h77z" />
    <glyph glyph-name="OE" unicode="&#x152;" horiz-adv-x="1052" 
d="M137 99c-30.667 31.333 -54 69.168 -70 113.501s-24 93.166 -24 146.499s8 102.166 24 146.499s39.333 82.166 70 113.499c31.333 32.667 69 57.334 113 74.001s92.333 25 145 25h604v-61h-385v-255h328v-61h-328v-280h385v-61h-604c-52.667 0 -101 8.33301 -145 25
s-81.667 41.334 -113 74.001zM544 60.002v598h-149c-86 0 -154.667 -27.167 -206 -81.5s-77 -126.833 -77 -217.5c0 -91.333 25.667 -164 77 -218s120.333 -81 207 -81h148z" />
    <glyph glyph-name="oe" unicode="&#x153;" horiz-adv-x="944" 
d="M687 -10c-70.667 0 -127.668 25.002 -171.001 75.002c-12.667 14.667 -23.667 30.334 -33 47.001c-8 -14.667 -17 -28 -27 -40c-20.667 -26.667 -46 -47 -76 -61s-63 -21 -99 -21s-68.833 7 -98.5 21s-55.167 34.333 -76.5 61c-19.333 24 -34 52.167 -44 84.5
s-15 67.166 -15 104.499s5 72.166 15 104.499s24.667 60.5 44 84.5c21.333 26.667 46.833 47 76.5 61s62.5 21 98.5 21s69 -7 99 -21s55.333 -34.333 76 -61c10.667 -12.667 19.667 -26.667 27 -42c8 14.667 17 28.334 27 41.001c21.333 27.333 46.833 48 76.5 62
s62.167 21 97.5 21c66.667 0 119 -23 157 -69s57 -107.667 57 -185v-22h-382c0 -8.66699 -0.333008 -17.334 -1 -26.001c4 -50.667 19.667 -92.334 47 -125.001c32 -38 73.667 -57 125 -57c38 0 70 10 96 30s43 47.667 51 83l60 -19c-14 -48 -39.167 -85.333 -75.5 -112
s-80.166 -40 -131.499 -40zM280.999 475.002c-50.667 0 -91.334 -19.5 -122.001 -58.5s-46 -90.833 -46 -155.5s15.333 -116.5 46 -155.5s71.334 -58.5 122.001 -58.5s91.334 19.5 122.001 58.5s46 90.833 46 155.5s-15.333 116.5 -46 155.5s-71.334 58.5 -122.001 58.5z
M683.999 474.002c-44 0 -81 -14.833 -111 -44.5s-48.667 -70.167 -56 -121.5h314c-1.33301 50.667 -15 91 -41 121s-61.333 45 -106 45z" />
    <glyph glyph-name="Racute" unicode="&#x154;" horiz-adv-x="645" 
d="M314 320h-156v-320h-70v718h264c76 0 134.833 -17.333 176.5 -52s62.5 -83.667 62.5 -147c0 -56.667 -17.5 -102.167 -52.5 -136.5s-83.833 -54.5 -146.5 -60.5l212 -322h-81zM158 657v-276.001h189c56 0 99.167 12 129.5 36s45.5 58 45.5 102
c0 44.667 -15 78.834 -45 102.501s-73.333 35.5 -130 35.5h-189zM312 769.999h-54l110 143h94z" />
    <glyph glyph-name="racute" unicode="&#x155;" horiz-adv-x="362" 
d="M296 527c6.66699 0 13.3359 -0.333008 20.0029 -1s12.667 -1.66699 18 -3v-66c-6.66699 1.33301 -13.334 2.33301 -20.001 3s-14.334 1 -23.001 1c-39.333 0 -72.666 -16 -99.999 -48s-41 -72 -41 -120v-293h-66v522h66v-99c13.333 32.667 32.666 58.167 57.999 76.5
s54.666 27.5 87.999 27.5zM234.002 580h-52l58 138h84z" />
    <glyph glyph-name="Rcommaaccent" unicode="&#x156;" horiz-adv-x="645" 
d="M314 320h-156v-320h-70v718h264c76 0 134.833 -17.333 176.5 -52s62.5 -83.667 62.5 -147c0 -56.667 -17.5 -102.167 -52.5 -136.5s-83.833 -54.5 -146.5 -60.5l212 -322h-81zM158 657v-276.001h189c56 0 99.167 12 129.5 36s45.5 58 45.5 102
c0 44.667 -15 78.834 -45 102.501s-73.333 35.5 -130 35.5h-189zM315 -113.001h-32v66h78v-59c0 -26 -8.83301 -47 -26.5 -63s-41.5 -24.333 -71.5 -25v32c18 1.33301 31 5.83301 39 13.5s12.333 19.5 13 35.5z" />
    <glyph glyph-name="rcommaaccent" unicode="&#x157;" horiz-adv-x="362" 
d="M296 527c6.66699 0 13.3359 -0.333008 20.0029 -1s12.667 -1.66699 18 -3v-66c-6.66699 1.33301 -13.334 2.33301 -20.001 3s-14.334 1 -23.001 1c-39.333 0 -72.666 -16 -99.999 -48s-41 -72 -41 -120v-293h-66v522h66v-99c13.333 32.667 32.666 58.167 57.999 76.5
s54.666 27.5 87.999 27.5zM111.002 -113h-32v66h78v-59c0 -26 -8.83301 -47 -26.5 -63s-41.5 -24.333 -71.5 -25v32c18 1.33301 31 5.83301 39 13.5s12.333 19.5 13 35.5z" />
    <glyph glyph-name="Rcaron" unicode="&#x158;" horiz-adv-x="645" 
d="M314 320h-156v-320h-70v718h264c76 0 134.833 -17.333 176.5 -52s62.5 -83.667 62.5 -147c0 -56.667 -17.5 -102.167 -52.5 -136.5s-83.833 -54.5 -146.5 -60.5l212 -322h-81zM158 657v-276.001h189c56 0 99.167 12 129.5 36s45.5 58 45.5 102
c0 44.667 -15 78.834 -45 102.501s-73.333 35.5 -130 35.5h-189zM480 911.999l-118 -143h-82l-118 143h55l104 -99l104 99h55z" />
    <glyph glyph-name="rcaron" unicode="&#x159;" horiz-adv-x="362" 
d="M296 527c6.66699 0 13.3359 -0.333008 20.0029 -1s12.667 -1.66699 18 -3v-66c-6.66699 1.33301 -13.334 2.33301 -20.001 3s-14.334 1 -23.001 1c-39.333 0 -72.666 -16 -99.999 -48s-41 -72 -41 -120v-293h-66v522h66v-99c13.333 32.667 32.666 58.167 57.999 76.5
s54.666 27.5 87.999 27.5zM353.002 718l-97 -138h-76l-97 138h53l82 -92l82 92h53z" />
    <glyph glyph-name="Sacute" unicode="&#x15a;" horiz-adv-x="584" 
d="M295 -10c-63.333 0 -121.171 14.998 -173.504 44.998s-89.166 70 -110.499 120l56 43c20.667 -46 51.167 -82 91.5 -108s86.5 -39 138.5 -39c53.333 0 97 13.333 131 40s51 61.667 51 105c0 24.667 -5.66699 45.5 -17 62.5s-29 31.167 -53 42.5
c-11.333 5.33301 -24.833 10.5 -40.5 15.5s-45.5 12.833 -89.5 23.5s-76.667 19.834 -98 27.501s-39.666 16.167 -54.999 25.5c-24.667 16 -43 35 -55 57s-18 48.333 -18 79c0 29.333 6.33301 56.833 19 82.5s31 47.5 55 65.5c21.333 16.667 45.833 29.334 73.5 38.001
s56.834 13 87.501 13c59.333 0 110.666 -12.833 153.999 -38.5s75.333 -61.834 96 -108.501l-55 -39c-19.333 42 -45.333 73.333 -78 94s-72 31 -118 31c-48 0 -87.667 -12.5 -119 -37.5s-47 -56.833 -47 -95.5c0 -22 5.16699 -40.667 15.5 -56s26.5 -28.333 48.5 -39
c10.667 -5.33301 23.5 -10.333 38.5 -15s41.5 -11.667 79.5 -21c54.667 -13.333 92.334 -23.666 113.001 -30.999s38.334 -15.333 53.001 -24c26.667 -16.667 46.5 -37 59.5 -61s19.5 -52.667 19.5 -86c0 -32 -6.83301 -61.333 -20.5 -88s-33.5 -50 -59.5 -70
c-22.667 -16.667 -49 -29.667 -79 -39s-61.333 -14 -94 -14zM312.995 769.998h-54l110 143h94z" />
    <glyph glyph-name="sacute" unicode="&#x15b;" horiz-adv-x="479" 
d="M245 -10c-51.333 0 -97.001 11.501 -137.001 34.501s-68 54.5 -84 94.5l54 36c12 -33.333 33.167 -60 63.5 -80s64.833 -30 103.5 -30c37.333 0 68.166 9 92.499 27s36.5 42 36.5 72c0 17.333 -4 31.5 -12 42.5s-21 20.167 -39 27.5c-8 3.33301 -17.167 6.5 -27.5 9.5
s-31.833 8.16699 -64.5 15.5c-39.333 9.33301 -66.333 16.5 -81 21.5s-27 10.5 -37 16.5c-19.333 11.333 -33.666 25.5 -42.999 42.5s-14 37.5 -14 61.5c0 44 17.167 80.167 51.5 108.5s77.833 42.5 130.5 42.5c45.333 0 85.5 -10.667 120.5 -32s59.167 -49.333 72.5 -84
l-51 -34c-12 30 -30.5 53.167 -55.5 69.5s-54.833 24.5 -89.5 24.5s-62.5 -8.33301 -83.5 -25s-31.5 -39 -31.5 -67c0 -15.333 3.83301 -28 11.5 -38s19.834 -18.667 36.501 -26c7.33301 -3.33301 16 -6.33301 26 -9s29 -7.33398 57 -14.001
c42.667 -10 71.5 -17.667 86.5 -23s27.833 -11 38.5 -17c21.333 -12 37 -27 47 -45s15 -39.333 15 -64c0 -46 -18.333 -83.833 -55 -113.5s-82.667 -44.5 -138 -44.5zM258.999 580.001h-52l58 138h84z" />
    <glyph glyph-name="Scircumflex" unicode="&#x15c;" horiz-adv-x="584" 
d="M295 -10c-63.333 0 -121.171 14.998 -173.504 44.998s-89.166 70 -110.499 120l56 43c20.667 -46 51.167 -82 91.5 -108s86.5 -39 138.5 -39c53.333 0 97 13.333 131 40s51 61.667 51 105c0 24.667 -5.66699 45.5 -17 62.5s-29 31.167 -53 42.5
c-11.333 5.33301 -24.833 10.5 -40.5 15.5s-45.5 12.833 -89.5 23.5s-76.667 19.834 -98 27.501s-39.666 16.167 -54.999 25.5c-24.667 16 -43 35 -55 57s-18 48.333 -18 79c0 29.333 6.33301 56.833 19 82.5s31 47.5 55 65.5c21.333 16.667 45.833 29.334 73.5 38.001
s56.834 13 87.501 13c59.333 0 110.666 -12.833 153.999 -38.5s75.333 -61.834 96 -108.501l-55 -39c-19.333 42 -45.333 73.333 -78 94s-72 31 -118 31c-48 0 -87.667 -12.5 -119 -37.5s-47 -56.833 -47 -95.5c0 -22 5.16699 -40.667 15.5 -56s26.5 -28.333 48.5 -39
c10.667 -5.33301 23.5 -10.333 38.5 -15s41.5 -11.667 79.5 -21c54.667 -13.333 92.334 -23.666 113.001 -30.999s38.334 -15.333 53.001 -24c26.667 -16.667 46.5 -37 59.5 -61s19.5 -52.667 19.5 -86c0 -32 -6.83301 -61.333 -20.5 -88s-33.5 -50 -59.5 -70
c-22.667 -16.667 -49 -29.667 -79 -39s-61.333 -14 -94 -14zM251.995 912.998h82l118 -143h-55l-104 99l-104 -99h-55z" />
    <glyph glyph-name="scircumflex" unicode="&#x15d;" horiz-adv-x="479" 
d="M245 -10c-51.333 0 -97.001 11.501 -137.001 34.501s-68 54.5 -84 94.5l54 36c12 -33.333 33.167 -60 63.5 -80s64.833 -30 103.5 -30c37.333 0 68.166 9 92.499 27s36.5 42 36.5 72c0 17.333 -4 31.5 -12 42.5s-21 20.167 -39 27.5c-8 3.33301 -17.167 6.5 -27.5 9.5
s-31.833 8.16699 -64.5 15.5c-39.333 9.33301 -66.333 16.5 -81 21.5s-27 10.5 -37 16.5c-19.333 11.333 -33.666 25.5 -42.999 42.5s-14 37.5 -14 61.5c0 44 17.167 80.167 51.5 108.5s77.833 42.5 130.5 42.5c45.333 0 85.5 -10.667 120.5 -32s59.167 -49.333 72.5 -84
l-51 -34c-12 30 -30.5 53.167 -55.5 69.5s-54.833 24.5 -89.5 24.5s-62.5 -8.33301 -83.5 -25s-31.5 -39 -31.5 -67c0 -15.333 3.83301 -28 11.5 -38s19.834 -18.667 36.501 -26c7.33301 -3.33301 16 -6.33301 26 -9s29 -7.33398 57 -14.001
c42.667 -10 71.5 -17.667 86.5 -23s27.833 -11 38.5 -17c21.333 -12 37 -27 47 -45s15 -39.333 15 -64c0 -46 -18.333 -83.833 -55 -113.5s-82.667 -44.5 -138 -44.5zM201.999 718.001h76l97 -138h-53l-82 92l-82 -92h-53z" />
    <glyph glyph-name="Scedilla" unicode="&#x15e;" horiz-adv-x="584" 
d="M11 155l55.9941 42.998c20.667 -46 51.167 -82 91.5 -108s86.5 -39 138.5 -39c53.333 0 97 13.333 131 40s51 61.667 51 105c0 24.667 -5.66699 45.5 -17 62.5s-29 31.167 -53 42.5c-11.333 5.33301 -24.833 10.5 -40.5 15.5s-45.5 12.833 -89.5 23.5
s-76.667 19.834 -98 27.501s-39.666 16.167 -54.999 25.5c-24.667 16 -43 35 -55 57s-18 48.333 -18 79c0 29.333 6.33301 56.833 19 82.5s31 47.5 55 65.5c21.333 16.667 45.833 29.334 73.5 38.001s56.834 13 87.501 13c59.333 0 110.666 -12.833 153.999 -38.5
s75.333 -61.834 96 -108.501l-55 -39c-19.333 42 -45.333 73.333 -78 94s-72 31 -118 31c-48 0 -87.667 -12.5 -119 -37.5s-47 -56.833 -47 -95.5c0 -22 5.16699 -40.667 15.5 -56s26.5 -28.333 48.5 -39c10.667 -5.33301 23.5 -10.333 38.5 -15s41.5 -11.667 79.5 -21
c54.667 -13.333 92.334 -23.666 113.001 -30.999s38.334 -15.333 53.001 -24c26.667 -16.667 46.5 -37 59.5 -61s19.5 -52.667 19.5 -86c0 -32 -6.83301 -61.333 -20.5 -88s-33.5 -50 -59.5 -70c-22.667 -16.667 -49 -29.667 -79 -39s-61.333 -14 -94 -14h-2h-2l-7 -23
c26.667 -2 47.834 -10 63.501 -24s23.5 -31.667 23.5 -53c0 -23.333 -9.66699 -42.5 -29 -57.5s-43.333 -22.5 -72 -22.5c-20.667 0 -39.5 3.66699 -56.5 11s-30.833 17.333 -41.5 30l29 36c10 -12 20.333 -20.833 31 -26.5s22.334 -8.5 35.001 -8.5
c16.667 0 29.667 3.5 39 10.5s14 16.833 14 29.5c0 14 -6.83301 24.5 -20.5 31.5s-35.167 11.167 -64.5 12.5l17 57c-54.667 6 -103.667 23.5 -147 52.5s-74.666 65.5 -93.999 109.5z" />
    <glyph glyph-name="scedilla" unicode="&#x15f;" horiz-adv-x="479" 
d="M24 119l53.9971 36c12 -33.333 33.167 -60 63.5 -80s64.833 -30 103.5 -30c37.333 0 68.166 9 92.499 27s36.5 42 36.5 72c0 17.333 -4 31.5 -12 42.5s-21 20.167 -39 27.5c-8 3.33301 -17.167 6.5 -27.5 9.5s-31.833 8.16699 -64.5 15.5
c-39.333 9.33301 -66.333 16.5 -81 21.5s-27 10.5 -37 16.5c-19.333 11.333 -33.666 25.5 -42.999 42.5s-14 37.5 -14 61.5c0 44 17.167 80.167 51.5 108.5s77.833 42.5 130.5 42.5c45.333 0 85.5 -10.667 120.5 -32s59.167 -49.333 72.5 -84l-51 -34
c-12 30 -30.5 53.167 -55.5 69.5s-54.833 24.5 -89.5 24.5s-62.5 -8.33301 -83.5 -25s-31.5 -39 -31.5 -67c0 -15.333 3.83301 -28 11.5 -38s19.834 -18.667 36.501 -26c7.33301 -3.33301 16 -6.33301 26 -9s29 -7.33398 57 -14.001c42.667 -10 71.5 -17.667 86.5 -23
s27.833 -11 38.5 -17c21.333 -12 37 -27 47 -45s15 -39.333 15 -64c0 -46 -18.333 -83.833 -55 -113.5s-82.667 -44.5 -138 -44.5h-5.5h-5.5l-7 -23c26.667 -2 47.834 -10 63.501 -24s23.5 -31.667 23.5 -53c0 -23.333 -9.66699 -42.5 -29 -57.5s-43.333 -22.5 -72 -22.5
c-20.667 0 -39.5 3.66699 -56.5 11s-30.833 17.333 -41.5 30l29 36c10 -12 20.333 -20.833 31 -26.5s22.334 -8.5 35.001 -8.5c16.667 0 29.667 3.5 39 10.5s14 16.833 14 29.5c0 14 -6.83301 24.5 -20.5 31.5s-35.167 11.167 -64.5 12.5l17 58
c-40.667 6.66699 -76 20.834 -106 42.501s-51.667 49.167 -65 82.5z" />
    <glyph glyph-name="Scaron" unicode="&#x160;" horiz-adv-x="584" 
d="M295 -10c-63.333 0 -121.171 14.998 -173.504 44.998s-89.166 70 -110.499 120l56 43c20.667 -46 51.167 -82 91.5 -108s86.5 -39 138.5 -39c53.333 0 97 13.333 131 40s51 61.667 51 105c0 24.667 -5.66699 45.5 -17 62.5s-29 31.167 -53 42.5
c-11.333 5.33301 -24.833 10.5 -40.5 15.5s-45.5 12.833 -89.5 23.5s-76.667 19.834 -98 27.501s-39.666 16.167 -54.999 25.5c-24.667 16 -43 35 -55 57s-18 48.333 -18 79c0 29.333 6.33301 56.833 19 82.5s31 47.5 55 65.5c21.333 16.667 45.833 29.334 73.5 38.001
s56.834 13 87.501 13c59.333 0 110.666 -12.833 153.999 -38.5s75.333 -61.834 96 -108.501l-55 -39c-19.333 42 -45.333 73.333 -78 94s-72 31 -118 31c-48 0 -87.667 -12.5 -119 -37.5s-47 -56.833 -47 -95.5c0 -22 5.16699 -40.667 15.5 -56s26.5 -28.333 48.5 -39
c10.667 -5.33301 23.5 -10.333 38.5 -15s41.5 -11.667 79.5 -21c54.667 -13.333 92.334 -23.666 113.001 -30.999s38.334 -15.333 53.001 -24c26.667 -16.667 46.5 -37 59.5 -61s19.5 -52.667 19.5 -86c0 -32 -6.83301 -61.333 -20.5 -88s-33.5 -50 -59.5 -70
c-22.667 -16.667 -49 -29.667 -79 -39s-61.333 -14 -94 -14zM451.995 911.998l-118 -143h-82l-118 143h55l104 -99l104 99h55z" />
    <glyph glyph-name="scaron" unicode="&#x161;" horiz-adv-x="479" 
d="M245 -10c-51.333 0 -97.001 11.501 -137.001 34.501s-68 54.5 -84 94.5l54 36c12 -33.333 33.167 -60 63.5 -80s64.833 -30 103.5 -30c37.333 0 68.166 9 92.499 27s36.5 42 36.5 72c0 17.333 -4 31.5 -12 42.5s-21 20.167 -39 27.5c-8 3.33301 -17.167 6.5 -27.5 9.5
s-31.833 8.16699 -64.5 15.5c-39.333 9.33301 -66.333 16.5 -81 21.5s-27 10.5 -37 16.5c-19.333 11.333 -33.666 25.5 -42.999 42.5s-14 37.5 -14 61.5c0 44 17.167 80.167 51.5 108.5s77.833 42.5 130.5 42.5c45.333 0 85.5 -10.667 120.5 -32s59.167 -49.333 72.5 -84
l-51 -34c-12 30 -30.5 53.167 -55.5 69.5s-54.833 24.5 -89.5 24.5s-62.5 -8.33301 -83.5 -25s-31.5 -39 -31.5 -67c0 -15.333 3.83301 -28 11.5 -38s19.834 -18.667 36.501 -26c7.33301 -3.33301 16 -6.33301 26 -9s29 -7.33398 57 -14.001
c42.667 -10 71.5 -17.667 86.5 -23s27.833 -11 38.5 -17c21.333 -12 37 -27 47 -45s15 -39.333 15 -64c0 -46 -18.333 -83.833 -55 -113.5s-82.667 -44.5 -138 -44.5zM376.999 718.001l-97 -138h-76l-97 138h53l82 -92l82 92h53z" />
    <glyph glyph-name="uni0162" unicode="&#x162;" horiz-adv-x="613" 
d="M398 -110c0 -23.333 -9.66895 -42.5 -29.002 -57.5s-43.333 -22.5 -72 -22.5c-20.667 0 -39.5 3.66699 -56.5 11s-30.833 17.333 -41.5 30l29 36c10 -12 20.333 -20.833 31 -26.5s22.334 -8.5 35.001 -8.5c16.667 0 29.667 3.5 39 10.5s14 16.833 14 29.5
c0 14 -6.83301 24.5 -20.5 31.5s-35.167 11.167 -64.5 12.5l19 64h-9v657h-254v61h577v-61h-254v-657h-21l-9 -33c26.667 -2 47.834 -10 63.501 -24s23.5 -31.667 23.5 -53z" />
    <glyph glyph-name="uni0163" unicode="&#x163;" horiz-adv-x="344" 
d="M101 119l-0.00195312 346.001h-87v57h87v151h65v-151h126v-57h-126v-336c0 -26.667 5.66699 -45.834 17 -57.501s31.333 -17.5 60 -17.5c11.333 0 22 0.666992 32 2s20.333 3.33301 31 6v-58c-12.667 -3.33301 -25 -5.66602 -37 -6.99902s-25 -2 -39 -2h-7.5h-7.5l-8 -28
c26.667 -2 47.834 -10 63.501 -24s23.5 -31.667 23.5 -53c0 -23.333 -9.66699 -42.5 -29 -57.5s-43.333 -22.5 -72 -22.5c-20.667 0 -39.5 3.66699 -56.5 11s-30.833 17.333 -41.5 30l29 36c10 -12 20.333 -20.833 31 -26.5s22.334 -8.5 35.001 -8.5
c16.667 0 29.667 3.5 39 10.5s14 16.833 14 29.5c0 14 -6.83301 24.5 -20.5 31.5s-35.167 11.167 -64.5 12.5l19 65c-26 6.66699 -45.167 19.667 -57.5 39s-18.5 45.666 -18.5 78.999z" />
    <glyph glyph-name="Tcaron" unicode="&#x164;" horiz-adv-x="613" 
d="M595 718v-61h-254v-657h-69v657h-254v61h577zM465 912l-118 -143h-82l-118 143h55l104 -99l104 99h55z" />
    <glyph glyph-name="tcaron" unicode="&#x165;" horiz-adv-x="344" 
d="M230 -5c-45.333 0 -78.167 10 -98.5 30s-30.5 51.333 -30.5 94v346h-87v57h87v151h65v-151h126v-57h-126v-336c0 -26.667 5.66699 -45.834 17 -57.501s31.333 -17.5 60 -17.5c11.333 0 22 0.666992 32 2s20.333 3.33301 31 6v-58
c-12.667 -3.33301 -25 -5.66602 -37 -6.99902s-25 -2 -39 -2zM257.999 575h-45l29 187h76z" />
    <glyph glyph-name="Tbar" unicode="&#x166;" horiz-adv-x="613" 
d="M458 402v-62h-117v-340h-69v340h-117v62h117v255h-254v61h577v-61h-254v-255h117z" />
    <glyph glyph-name="tbar" unicode="&#x167;" horiz-adv-x="364" 
d="M245 -6c-45.333 0 -78.667 10 -100 30s-32 51.333 -32 94v153h-90v57h90v137h-90v57h90v151h65v-151h131v-57h-131v-137h131v-57h-131v-141c0 -26 6.16699 -45 18.5 -57s32.833 -18 61.5 -18c14 0 26.167 0.833008 36.5 2.5s20.833 4.16699 31.5 7.5v-61
c-14 -3.33301 -27.5 -5.83301 -40.5 -7.5s-26.5 -2.5 -40.5 -2.5z" />
    <glyph glyph-name="Utilde" unicode="&#x168;" horiz-adv-x="700" 
d="M350 -9c-85.333 0 -152.67 25.833 -202.003 77.5s-74 123.5 -74 215.5v434h69v-432c0 -74 18.333 -131.167 55 -171.5s87.334 -60.5 152.001 -60.5s115.334 20.167 152.001 60.5s55 97.5 55 171.5v432h69v-434c0 -92 -24.667 -163.833 -74 -215.5
s-116.666 -77.5 -201.999 -77.5zM277.996 897c12 0 24 -2.66699 36 -8s27.667 -16 47 -32c14.667 -12.667 26 -21 34 -25s15.667 -6 23 -6c16 0 28.5 5.66699 37.5 17s15.167 29.333 18.5 54h49c-3.33301 -40 -13.833 -71 -31.5 -93s-41.167 -33 -70.5 -33
c-12 0 -23.833 2.5 -35.5 7.5s-26.834 15.5 -45.501 31.5c-15.333 13.333 -27 21.833 -35 25.5s-15.667 5.5 -23 5.5c-16.667 0 -29.5 -5.83301 -38.5 -17.5s-14.833 -29.5 -17.5 -53.5h-49c3.33301 40 13.833 71.167 31.5 93.5s40.834 33.5 69.501 33.5z" />
    <glyph glyph-name="utilde" unicode="&#x169;" horiz-adv-x="566" 
d="M415 522h66.001v-522h-66v84c-16.667 -29.333 -39.334 -52.333 -68.001 -69s-60.667 -25 -96 -25c-54 0 -96.333 16.833 -127 50.5s-46 79.5 -46 137.5v344h66v-332c0 -44.667 10.5 -79 31.5 -103s51.5 -36 91.5 -36c20 0 39.167 4 57.5 12s34.5 19 48.5 33
s24.5 30.333 31.5 49s10.5 38.667 10.5 60v317zM217.001 714c10.667 0 21.1719 -2.50098 31.5049 -7.50098s24.166 -15.5 41.499 -31.5c13.333 -13.333 23.5 -21.833 30.5 -25.5s13.833 -5.5 20.5 -5.5c14 0 24.667 5.66699 32 17s12.333 29.333 15 54h45
c-2.66699 -40 -11.834 -70.833 -27.501 -92.5s-36.5 -32.5 -62.5 -32.5c-10.667 0 -21.334 2.66699 -32.001 8s-24.334 16 -41.001 32c-14 12.667 -24.333 20.834 -31 24.501s-13.334 5.5 -20.001 5.5c-14 0 -24.667 -5.5 -32 -16.5s-12.666 -28.833 -15.999 -53.5h-45
c3.33301 40 12.666 70.667 27.999 92s36.333 32 63 32z" />
    <glyph glyph-name="Umacron" unicode="&#x16a;" horiz-adv-x="700" 
d="M350 -9c-85.333 0 -152.67 25.833 -202.003 77.5s-74 123.5 -74 215.5v434h69v-432c0 -74 18.333 -131.167 55 -171.5s87.334 -60.5 152.001 -60.5s115.334 20.167 152.001 60.5s55 97.5 55 171.5v432h69v-434c0 -92 -24.667 -163.833 -74 -215.5
s-116.666 -77.5 -201.999 -77.5zM499.996 843v-54h-300v54h300z" />
    <glyph glyph-name="umacron" unicode="&#x16b;" horiz-adv-x="566" 
d="M415 522h66.001v-522h-66v84c-16.667 -29.333 -39.334 -52.333 -68.001 -69s-60.667 -25 -96 -25c-54 0 -96.333 16.833 -127 50.5s-46 79.5 -46 137.5v344h66v-332c0 -44.667 10.5 -79 31.5 -103s51.5 -36 91.5 -36c20 0 39.167 4 57.5 12s34.5 19 48.5 33
s24.5 30.333 31.5 49s10.5 38.667 10.5 60v317zM409.001 667v-53h-258v53h258z" />
    <glyph glyph-name="Ubreve" unicode="&#x16c;" horiz-adv-x="700" 
d="M350 -9c-85.333 0 -152.67 25.833 -202.003 77.5s-74 123.5 -74 215.5v434h69v-432c0 -74 18.333 -131.167 55 -171.5s87.334 -60.5 152.001 -60.5s115.334 20.167 152.001 60.5s55 97.5 55 171.5v432h69v-434c0 -92 -24.667 -163.833 -74 -215.5
s-116.666 -77.5 -201.999 -77.5zM349.996 816c28 0 50.667 8.83301 68 26.5s26.333 41.167 27 70.5h51c0 -43.333 -13.333 -78.166 -40 -104.499s-62 -39.5 -106 -39.5s-79.333 13.167 -106 39.5s-40 61.166 -40 104.499h51c0.666992 -29.333 9.66699 -52.833 27 -70.5
s40 -26.5 68 -26.5z" />
    <glyph glyph-name="ubreve" unicode="&#x16d;" horiz-adv-x="566" 
d="M415 522h66.001v-522h-66v84c-16.667 -29.333 -39.334 -52.333 -68.001 -69s-60.667 -25 -96 -25c-54 0 -96.333 16.833 -127 50.5s-46 79.5 -46 137.5v344h66v-332c0 -44.667 10.5 -79 31.5 -103s51.5 -36 91.5 -36c20 0 39.167 4 57.5 12s34.5 19 48.5 33
s24.5 30.333 31.5 49s10.5 38.667 10.5 60v317zM280.001 625c24.667 0 43.832 8 57.499 24s20.834 39 21.501 69h47c0 -44 -11.333 -78.667 -34 -104s-53.334 -38 -92.001 -38s-69.334 12.667 -92.001 38s-34 60 -34 104h47c0.666992 -30 7.83398 -53 21.501 -69
s32.834 -24 57.501 -24z" />
    <glyph glyph-name="Uring" unicode="&#x16e;" horiz-adv-x="700" 
d="M350 -9c-85.333 0 -152.67 25.833 -202.003 77.5s-74 123.5 -74 215.5v434h69v-432c0 -74 18.333 -131.167 55 -171.5s87.334 -60.5 152.001 -60.5s115.334 20.167 152.001 60.5s55 97.5 55 171.5v432h69v-434c0 -92 -24.667 -163.833 -74 -215.5
s-116.666 -77.5 -201.999 -77.5zM349.996 727c-30 0 -55.333 10.167 -76 30.5s-31 45.166 -31 74.499s10.333 54 31 74s46 30 76 30s55.333 -10 76 -30s31 -44.667 31 -74s-10.333 -54.166 -31 -74.499s-46 -30.5 -76 -30.5zM349.996 892
c-16.667 0 -30.667 -5.83301 -42 -17.5s-17 -25.834 -17 -42.501c0 -17.333 5.66699 -31.833 17 -43.5s25.333 -17.5 42 -17.5s30.667 5.83301 42 17.5s17 26.167 17 43.5c0 16.667 -5.66699 30.834 -17 42.501s-25.333 17.5 -42 17.5z" />
    <glyph glyph-name="uring" unicode="&#x16f;" horiz-adv-x="566" 
d="M415 522h66.001v-522h-66v84c-16.667 -29.333 -39.334 -52.333 -68.001 -69s-60.667 -25 -96 -25c-54 0 -96.333 16.833 -127 50.5s-46 79.5 -46 137.5v344h66v-332c0 -44.667 10.5 -79 31.5 -103s51.5 -36 91.5 -36c20 0 39.167 4 57.5 12s34.5 19 48.5 33
s24.5 30.333 31.5 49s10.5 38.667 10.5 60v317zM280.001 574c-26 0 -48 8.83301 -66 26.5s-27 39.167 -27 64.5s9 46.833 27 64.5s40 26.5 66 26.5s48 -8.83301 66 -26.5s27 -39.167 27 -64.5s-9 -46.833 -27 -64.5s-40 -26.5 -66 -26.5zM280.001 718
c-14 0 -26.167 -5.16699 -36.5 -15.5s-15.5 -22.833 -15.5 -37.5s5.16699 -27.167 15.5 -37.5s22.5 -15.5 36.5 -15.5c14.667 0 27 5.16699 37 15.5s15 22.833 15 37.5s-5 27.167 -15 37.5s-22.333 15.5 -37 15.5z" />
    <glyph glyph-name="Uhungarumlaut" unicode="&#x170;" horiz-adv-x="700" 
d="M350 -9c-85.333 0 -152.67 25.833 -202.003 77.5s-74 123.5 -74 215.5v434h69v-432c0 -74 18.333 -131.167 55 -171.5s87.334 -60.5 152.001 -60.5s115.334 20.167 152.001 60.5s55 97.5 55 171.5v432h69v-434c0 -92 -24.667 -163.833 -74 -215.5
s-116.666 -77.5 -201.999 -77.5zM449.996 770h-52l97 143h84zM277.996 770h-53l98 143h83z" />
    <glyph glyph-name="uhungarumlaut" unicode="&#x171;" horiz-adv-x="566" 
d="M415 522h66.001v-522h-66v84c-16.667 -29.333 -39.334 -52.333 -68.001 -69s-60.667 -25 -96 -25c-54 0 -96.333 16.833 -127 50.5s-46 79.5 -46 137.5v344h66v-332c0 -44.667 10.5 -79 31.5 -103s51.5 -36 91.5 -36c20 0 39.167 4 57.5 12s34.5 19 48.5 33
s24.5 30.333 31.5 49s10.5 38.667 10.5 60v317zM374.001 580h-48l63 138h78zM230.001 580h-48l63 138h77z" />
    <glyph glyph-name="Uogonek" unicode="&#x172;" horiz-adv-x="700" 
d="M398 -187c-23.333 0 -42.8359 7.00195 -58.5029 21.002s-23.5 31.667 -23.5 53c0 17.333 4.33301 34.166 13 50.499s23.334 34.5 44.001 54.5c-2.66699 -0.666992 -5.5 -1 -8.5 -1h-14.5c-85.333 0 -152.666 25.833 -201.999 77.5s-74 123.5 -74 215.5v434h69v-432
c0 -74 18.333 -131.167 55 -171.5s87.334 -60.5 152.001 -60.5s115.334 20.167 152.001 60.5s55 97.5 55 171.5v432h69v-434c0 -74 -16.167 -135.167 -48.5 -183.5s-78.166 -80.833 -137.499 -97.5c-30.667 -28.667 -50.5 -50 -59.5 -64s-13.5 -28 -13.5 -42
c0 -12.667 3.66699 -22.334 11 -29.001s17.666 -10 30.999 -10c7.33301 0 14.166 0.5 20.499 1.5s13.5 2.83301 21.5 5.5v-44c-9.33301 -2.66699 -18 -4.66699 -26 -6s-17 -2 -27 -2z" />
    <glyph glyph-name="uogonek" unicode="&#x173;" horiz-adv-x="566" 
d="M422 -187c-23.333 0 -42.8311 7.00098 -58.498 21.001s-23.5 31.667 -23.5 53c0 19.333 5.33301 38 16 56s30.334 39.667 59.001 65v76c-16.667 -29.333 -39.334 -52.333 -68.001 -69s-60.667 -25 -96 -25c-54 0 -96.333 16.833 -127 50.5s-46 79.5 -46 137.5v344h66
v-332c0 -44.667 10.5 -79 31.5 -103s51.5 -36 91.5 -36c20 0 39.167 4 57.5 12s34.5 19 48.5 33s24.5 30.333 31.5 49s10.5 38.667 10.5 60v317h66v-522h-20c-29.333 -27.333 -48.333 -47.833 -57 -61.5s-13 -27.5 -13 -41.5c0 -12.667 3.66699 -22.334 11 -29.001
s17.666 -10 30.999 -10c7.33301 0 14.166 0.5 20.499 1.5s13.5 2.83301 21.5 5.5v-44c-9.33301 -2.66699 -18 -4.66699 -26 -6s-17 -2 -27 -2z" />
    <glyph glyph-name="Wcircumflex" unicode="&#x174;" horiz-adv-x="912" 
d="M259 104l166 614h63l166 -614l166 614h70l-199 -718h-69l-166 601l-166 -601h-69l-199 718h71zM415 913h82l118 -143h-55l-104 99l-104 -99h-55z" />
    <glyph glyph-name="wcircumflex" unicode="&#x175;" horiz-adv-x="720" 
d="M214 99l119 423h57l119 -424l123 424h66l-160 -522h-58l-119 423l-121 -423h-58l-160 522h68zM324 718h76l97 -138h-53l-82 92l-82 -92h-53z" />
    <glyph glyph-name="Ycircumflex" unicode="&#x176;" horiz-adv-x="609" 
d="M85 718l220 -348l221 348h74l-261 -410v-308h-69v308l-262 410h77zM263 913h82l118 -143h-55l-104 99l-104 -99h-55z" />
    <glyph glyph-name="ycircumflex" unicode="&#x177;" horiz-adv-x="505" 
d="M483 522l-230.998 -586c-18 -46 -38.167 -78.167 -60.5 -96.5s-50.5 -27.5 -84.5 -27.5c-8.66699 0 -16.5 0.5 -23.5 1.5s-15.167 2.5 -24.5 4.5v59c8 -2.66699 15.167 -4.5 21.5 -5.5s14.166 -1.5 23.499 -1.5c20 0 36.167 5.66699 48.5 17s24.166 31 35.499 59l30 72
l-196 504h70l161 -426l161 426h69zM212.002 718h76l97 -138h-53l-82 92l-82 -92h-53z" />
    <glyph glyph-name="Ydieresis" unicode="&#x178;" horiz-adv-x="609" 
d="M85 718l220 -348l221 348h74l-261 -410v-308h-69v308l-262 410h77zM259 776h-76v89h76v-89zM425 776h-76v89h76v-89z" />
    <glyph glyph-name="Zacute" unicode="&#x179;" horiz-adv-x="612" 
d="M126 61h450v-61h-537v54l445 603h-440v61h527v-54zM303 770h-54l110 143h94z" />
    <glyph glyph-name="zacute" unicode="&#x17a;" horiz-adv-x="492" 
d="M128 57h317v-57h-399v50l318 415h-314v57h392v-52zM258 580h-52l58 138h84z" />
    <glyph glyph-name="Zdotaccent" unicode="&#x17b;" horiz-adv-x="612" 
d="M126 61h450v-61h-537v54l445 603h-440v61h527v-54zM346 776h-78v89h78v-89z" />
    <glyph glyph-name="zdotaccent" unicode="&#x17c;" horiz-adv-x="492" 
d="M128 57h317v-57h-399v50l318 415h-314v57h392v-52zM283 629h-76v89h76v-89z" />
    <glyph glyph-name="Zcaron" unicode="&#x17d;" horiz-adv-x="612" 
d="M126 61h450v-61h-537v54l445 603h-440v61h527v-54zM468 912l-118 -143h-82l-118 143h55l104 -99l104 99h55z" />
    <glyph glyph-name="zcaron" unicode="&#x17e;" horiz-adv-x="492" 
d="M128 57h317v-57h-399v50l318 415h-314v57h392v-52zM382 718l-97 -138h-76l-97 138h53l82 -92l82 92h53z" />
    <glyph glyph-name="florin" unicode="&#x192;" horiz-adv-x="549" 
d="M242 372h-108.998v51h118l20 125c9.33301 58.667 28.333 103.334 57 134.001s66 46 112 46c22 0 42.167 -3.83301 60.5 -11.5s33.5 -18.167 45.5 -31.5l-28 -50c-8.66699 11.333 -19.334 20.166 -32.001 26.499s-26.334 9.5 -41.001 9.5
c-28.667 0 -51.834 -10.5 -69.501 -31.5s-29.834 -52.167 -36.501 -93.5l-20 -123h127v-51h-135l-33 -203c-8 -58 -26.5 -102.333 -55.5 -133s-66.5 -46 -112.5 -46c-22 0 -42.167 3.66699 -60.5 11s-33.833 18 -46.5 32l29 50c8 -11.333 18.5 -20.333 31.5 -27
s26.5 -10 40.5 -10c28.667 0 51.834 10.5 69.501 31.5s29.834 52.5 36.501 94.5z" />
    <glyph glyph-name="AEacute" unicode="&#x1fc;" horiz-adv-x="1032" 
d="M18 0l469 718h493v-61h-386v-255h328v-61h-328v-280h386v-61h-455v212h-292l-138 -212h-77zM525 661l-252 -387h252v387zM756 770h-54l110 143h94z" />
    <glyph glyph-name="aeacute" unicode="&#x1fd;" horiz-adv-x="862" 
d="M40 138c0 54 21.1631 95.833 63.4961 125.5s101.166 44.5 176.499 44.5h93v52c0 37.333 -9.83301 65.5 -29.5 84.5s-48.5 28.5 -86.5 28.5c-37.333 0 -67.666 -9.33301 -90.999 -28s-38 -45 -44 -79l-62 20c10 44.667 32.833 80.167 68.5 106.5s78.834 39.5 129.501 39.5
c41.333 0 76 -8.33301 104 -25s47.667 -41 59 -73c22 32 48.333 56.333 79 73s64.667 25 102 25c66.667 0 119.167 -23 157.5 -69s57.5 -107.667 57.5 -185v-22h-385c0.666992 -62.667 16.834 -113 48.501 -151s73.167 -57 124.5 -57c38 0 70 10 96 30s43 47.667 51 83
l60 -19c-14 -48 -39.167 -85.333 -75.5 -112s-80.166 -40 -131.499 -40c-43.333 0 -82.166 10.333 -116.499 31s-61.833 50 -82.5 88c-16.667 -36 -42.5 -64.833 -77.5 -86.5s-73.833 -32.5 -116.5 -32.5c-50.667 0 -92 13.5 -124 40.5s-48 62.833 -48 107.5zM601.996 474
c-44 0 -81 -14.833 -111 -44.5s-48.667 -70.167 -56 -121.5h314c-1.33301 50.667 -15 91 -41 121s-61.333 45 -106 45zM106.996 142c0 -29.333 10.168 -52.667 30.501 -70s47.833 -26 82.5 -26c43.333 0 79.666 14.833 108.999 44.5s44 65.834 44 108.501v57h-91
c-60 0 -104.167 -9.33301 -132.5 -28s-42.5 -47.334 -42.5 -86.001zM453.997 579.999h-52l58 138h84z" />
    <glyph glyph-name="Oslashacute" unicode="&#x1fe;" horiz-adv-x="722" 
d="M96 -12l-43.002 34.001l69 83c-26 32.667 -45.667 70.667 -59 114s-20 90 -20 140s6.83301 96.833 20.5 140.5s33.834 81.834 60.501 114.501c28.667 36.667 63.5 64.834 104.5 84.501s85.167 29.5 132.5 29.5c40.667 0 78.834 -7 114.501 -21s67.5 -34.667 95.5 -62
l62 74l43 -34l-68 -82c23.333 -32.667 41.166 -69.834 53.499 -111.501s18.5 -85.834 18.5 -132.501c0 -50 -7 -96.833 -21 -140.5s-34 -81.834 -60 -114.501c-29.333 -36.667 -64.5 -64.834 -105.5 -84.501s-85.167 -29.5 -132.5 -29.5c-38 0 -74.167 6.33301 -108.5 19
s-65.166 31.334 -92.499 56.001zM171.998 568.001c-19.333 -27.333 -34.165 -58.8311 -44.498 -94.498s-15.5 -73.834 -15.5 -114.501c0 -38.667 4.66699 -75.167 14 -109.5s22.666 -64.833 39.999 -91.5l363 436c-22 23.333 -47.333 41.166 -76 53.499
s-59.334 18.5 -92.001 18.5c-38.667 0 -74.167 -8.33301 -106.5 -25s-59.833 -41 -82.5 -73zM549.999 149.003c19.333 27.333 34.168 58.834 44.501 94.501s15.5 74.167 15.5 115.5c0 36 -4 70.167 -12 102.5s-19.667 61.5 -35 87.5l-361 -434
c21.333 -20.667 45.666 -36.334 72.999 -47.001s56 -16 86 -16c38.667 0 74.167 8.33301 106.5 25s59.833 40.667 82.5 72zM361.001 770.004h-54l110 143h94z" />
    <glyph glyph-name="oslashacute" unicode="&#x1ff;" horiz-adv-x="562" 
d="M47 261c0 37.333 5.00098 72.166 15.001 104.499s24.667 60.5 44 84.5c21.333 26.667 46.833 47 76.5 61s62.5 21 98.5 21c28 0 54.333 -4.33301 79 -13s47 -21.334 67 -38.001l41 51l40 -31l-46 -58c17.333 -24 30.666 -51.5 39.999 -82.5s14 -64.167 14 -99.5
c0 -37.333 -5 -72.166 -15 -104.499s-25 -60.5 -45 -84.5c-20.667 -26.667 -46 -47 -76 -61s-63 -21 -99 -21c-28 0 -53.833 4.16699 -77.5 12.5s-45.167 20.5 -64.5 36.5l-43 -54l-40 31l47 59c-18 24 -31.833 51.833 -41.5 83.5s-14.5 65.834 -14.5 102.501zM281.001 475
c-50.667 0 -91.333 -19.499 -122 -58.499s-46 -90.833 -46 -155.5c0 -26.667 2.66699 -51.334 8 -74.001s13.333 -42.667 24 -60l243 305c-14 14 -30 24.667 -48 32s-37.667 11 -59 11zM281.002 47.001c50.667 0 91.333 19.501 122 58.501s46 90.833 46 155.5
c0 25.333 -2.5 49 -7.5 71s-12.167 41.667 -21.5 59l-243 -305c14 -12.667 29.833 -22.334 47.5 -29.001s36.5 -10 56.5 -10zM302.001 580.002h-52l58 138h84z" />
    <glyph glyph-name="Scommaaccent" unicode="&#x218;" horiz-adv-x="584" 
d="M295 -10c-63.333 0 -121.171 14.998 -173.504 44.998s-89.166 70 -110.499 120l56 43c20.667 -46 51.167 -82 91.5 -108s86.5 -39 138.5 -39c53.333 0 97 13.333 131 40s51 61.667 51 105c0 24.667 -5.66699 45.5 -17 62.5s-29 31.167 -53 42.5
c-11.333 5.33301 -24.833 10.5 -40.5 15.5s-45.5 12.833 -89.5 23.5s-76.667 19.834 -98 27.501s-39.666 16.167 -54.999 25.5c-24.667 16 -43 35 -55 57s-18 48.333 -18 79c0 29.333 6.33301 56.833 19 82.5s31 47.5 55 65.5c21.333 16.667 45.833 29.334 73.5 38.001
s56.834 13 87.501 13c59.333 0 110.666 -12.833 153.999 -38.5s75.333 -61.834 96 -108.501l-55 -39c-19.333 42 -45.333 73.333 -78 94s-72 31 -118 31c-48 0 -87.667 -12.5 -119 -37.5s-47 -56.833 -47 -95.5c0 -22 5.16699 -40.667 15.5 -56s26.5 -28.333 48.5 -39
c10.667 -5.33301 23.5 -10.333 38.5 -15s41.5 -11.667 79.5 -21c54.667 -13.333 92.334 -23.666 113.001 -30.999s38.334 -15.333 53.001 -24c26.667 -16.667 46.5 -37 59.5 -61s19.5 -52.667 19.5 -86c0 -32 -6.83301 -61.333 -20.5 -88s-33.5 -50 -59.5 -70
c-22.667 -16.667 -49 -29.667 -79 -39s-61.333 -14 -94 -14zM289.995 -113.002h-32v66h78v-59c0 -26 -8.83301 -47 -26.5 -63s-41.5 -24.333 -71.5 -25v32c18 1.33301 31 5.83301 39 13.5s12.333 19.5 13 35.5z" />
    <glyph glyph-name="scommaaccent" unicode="&#x219;" horiz-adv-x="479" 
d="M245 -10c-51.333 0 -97.001 11.501 -137.001 34.501s-68 54.5 -84 94.5l54 36c12 -33.333 33.167 -60 63.5 -80s64.833 -30 103.5 -30c37.333 0 68.166 9 92.499 27s36.5 42 36.5 72c0 17.333 -4 31.5 -12 42.5s-21 20.167 -39 27.5c-8 3.33301 -17.167 6.5 -27.5 9.5
s-31.833 8.16699 -64.5 15.5c-39.333 9.33301 -66.333 16.5 -81 21.5s-27 10.5 -37 16.5c-19.333 11.333 -33.666 25.5 -42.999 42.5s-14 37.5 -14 61.5c0 44 17.167 80.167 51.5 108.5s77.833 42.5 130.5 42.5c45.333 0 85.5 -10.667 120.5 -32s59.167 -49.333 72.5 -84
l-51 -34c-12 30 -30.5 53.167 -55.5 69.5s-54.833 24.5 -89.5 24.5s-62.5 -8.33301 -83.5 -25s-31.5 -39 -31.5 -67c0 -15.333 3.83301 -28 11.5 -38s19.834 -18.667 36.501 -26c7.33301 -3.33301 16 -6.33301 26 -9s29 -7.33398 57 -14.001
c42.667 -10 71.5 -17.667 86.5 -23s27.833 -11 38.5 -17c21.333 -12 37 -27 47 -45s15 -39.333 15 -64c0 -46 -18.333 -83.833 -55 -113.5s-82.667 -44.5 -138 -44.5zM238.999 -112.999h-32v66h78v-59c0 -26 -8.83301 -47 -26.5 -63s-41.5 -24.333 -71.5 -25v32
c18 1.33301 31 5.83301 39 13.5s12.333 19.5 13 35.5z" />
    <glyph glyph-name="uni021A" unicode="&#x21a;" horiz-adv-x="613" 
d="M595 718v-61h-254v-657h-69v657h-254v61h577zM299 -113h-32v66h78v-59c0 -26 -8.83301 -47 -26.5 -63s-41.5 -24.333 -71.5 -25v32c18 1.33301 31 5.83301 39 13.5s12.333 19.5 13 35.5z" />
    <glyph glyph-name="uni021B" unicode="&#x21b;" horiz-adv-x="344" 
d="M230 -5c-45.333 0 -78.167 10 -98.5 30s-30.5 51.333 -30.5 94v346h-87v57h87v151h65v-151h126v-57h-126v-336c0 -26.667 5.66699 -45.834 17 -57.501s31.333 -17.5 60 -17.5c11.333 0 22 0.666992 32 2s20.333 3.33301 31 6v-58
c-12.667 -3.33301 -25 -5.66602 -37 -6.99902s-25 -2 -39 -2zM203.999 -113h-32v66h78v-59c0 -26 -8.83301 -47 -26.5 -63s-41.5 -24.333 -71.5 -25v32c18 1.33301 31 5.83301 39 13.5s12.333 19.5 13 35.5z" />
    <glyph glyph-name="uni0237" unicode="&#x237;" horiz-adv-x="234" 
d="M8 -125c26.667 0 46 7.16797 58 21.501s18 37.5 18 69.5v556h66v-566c0 -44.667 -11.5 -79.167 -34.5 -103.5s-56.167 -36.5 -99.5 -36.5c-8 0 -15.167 0.166992 -21.5 0.5s-14.166 1.16602 -23.499 2.49902v60c7.33301 -1.33301 13.666 -2.33301 18.999 -3
s11.333 -1 18 -1z" />
    <glyph glyph-name="circumflex" unicode="&#x2c6;" horiz-adv-x="600" 
d="M262 718h76l97 -138h-53l-82 92l-82 -92h-53z" />
    <glyph glyph-name="caron" unicode="&#x2c7;" horiz-adv-x="600" 
d="M435 718l-97 -138h-76l-97 138h53l82 -92l82 92h53z" />
    <glyph glyph-name="breve" unicode="&#x2d8;" horiz-adv-x="600" 
d="M300 625c24.667 0 43.832 8 57.499 24s20.834 39 21.501 69h47c0 -44 -11.333 -78.667 -34 -104s-53.334 -38 -92.001 -38s-69.334 12.667 -92.001 38s-34 60 -34 104h47c0.666992 -30 7.83398 -53 21.501 -69s32.834 -24 57.501 -24z" />
    <glyph glyph-name="dotaccent" unicode="&#x2d9;" horiz-adv-x="600" 
d="M338 629h-76v89h76v-89z" />
    <glyph glyph-name="ring" unicode="&#x2da;" horiz-adv-x="600" 
d="M300 574c-26 0 -48 8.83301 -66 26.5s-27 39.167 -27 64.5s9 46.833 27 64.5s40 26.5 66 26.5s48 -8.83301 66 -26.5s27 -39.167 27 -64.5s-9 -46.833 -27 -64.5s-40 -26.5 -66 -26.5zM300 718c-14 0 -26.167 -5.16699 -36.5 -15.5s-15.5 -22.833 -15.5 -37.5
s5.16699 -27.167 15.5 -37.5s22.5 -15.5 36.5 -15.5c14.667 0 27 5.16699 37 15.5s15 22.833 15 37.5s-5 27.167 -15 37.5s-22.333 15.5 -37 15.5z" />
    <glyph glyph-name="ogonek" unicode="&#x2db;" horiz-adv-x="600" 
d="M307 -187c-23.333 0 -42.8311 7.00195 -58.498 21.002s-23.5 31.667 -23.5 53s6.33301 41.666 19 60.999s40.667 47.333 84 84l23 -27c-32 -30 -52.5 -52 -61.5 -66s-13.5 -28 -13.5 -42c0 -12.667 3.66699 -22.334 11 -29.001s17.666 -10 30.999 -10
c7.33301 0 14.166 0.5 20.499 1.5s13.5 2.83301 21.5 5.5v-44c-9.33301 -2.66699 -18 -4.66699 -26 -6s-17 -2 -27 -2z" />
    <glyph glyph-name="tilde" unicode="&#x2dc;" horiz-adv-x="600" 
d="M237 714c10.667 0 21.1719 -2.50098 31.5049 -7.50098s24.166 -15.5 41.499 -31.5c13.333 -13.333 23.5 -21.833 30.5 -25.5s13.833 -5.5 20.5 -5.5c14 0 24.667 5.66699 32 17s12.333 29.333 15 54h45c-2.66699 -40 -11.834 -70.833 -27.501 -92.5
s-36.5 -32.5 -62.5 -32.5c-10.667 0 -21.334 2.66699 -32.001 8s-24.334 16 -41.001 32c-14 12.667 -24.333 20.834 -31 24.501s-13.334 5.5 -20.001 5.5c-14 0 -24.667 -5.5 -32 -16.5s-12.666 -28.833 -15.999 -53.5h-45c3.33301 40 12.666 70.667 27.999 92
s36.333 32 63 32z" />
    <glyph glyph-name="hungarumlaut" unicode="&#x2dd;" horiz-adv-x="600" 
d="M348 580h-48l63 138h78zM204 580h-48l63 138h77z" />
    <glyph glyph-name="gravecmb" unicode="&#x300;" horiz-adv-x="0" 
d="M13 718l58 -138h-52l-90 138h84z" />
    <glyph glyph-name="acutecmb" unicode="&#x301;" horiz-adv-x="0" 
d="M-19 580h-52l58 138h84z" />
    <glyph glyph-name="uni0302" unicode="&#x302;" horiz-adv-x="0" 
d="M-38 718h76l97 -138h-53l-82 92l-82 -92h-53z" />
    <glyph glyph-name="tildecmb" unicode="&#x303;" horiz-adv-x="0" 
d="M-63 714c10.667 0 21.1719 -2.50098 31.5049 -7.50098s24.166 -15.5 41.499 -31.5c13.333 -13.333 23.5 -21.833 30.5 -25.5s13.833 -5.5 20.5 -5.5c14 0 24.667 5.66699 32 17s12.333 29.333 15 54h45c-2.66699 -40 -11.834 -70.833 -27.501 -92.5
s-36.5 -32.5 -62.5 -32.5c-10.667 0 -21.334 2.66699 -32.001 8s-24.334 16 -41.001 32c-14 12.667 -24.333 20.834 -31 24.501s-13.334 5.5 -20.001 5.5c-14 0 -24.667 -5.5 -32 -16.5s-12.666 -28.833 -15.999 -53.5h-45c3.33301 40 12.666 70.667 27.999 92
s36.333 32 63 32z" />
    <glyph glyph-name="uni0304" unicode="&#x304;" horiz-adv-x="0" 
d="M129 667v-53h-258v53h258z" />
    <glyph glyph-name="uni0306" unicode="&#x306;" horiz-adv-x="0" 
d="M0 625c24.667 0 43.832 8 57.499 24s20.834 39 21.501 69h47c0 -44 -11.333 -78.667 -34 -104s-53.334 -38 -92.001 -38s-69.334 12.667 -92.001 38s-34 60 -34 104h47c0.666992 -30 7.83398 -53 21.501 -69s32.834 -24 57.501 -24z" />
    <glyph glyph-name="uni0307" unicode="&#x307;" horiz-adv-x="0" 
d="M38 629h-76v89h76v-89z" />
    <glyph glyph-name="uni0308" unicode="&#x308;" horiz-adv-x="0" 
d="M-43 622h-77v90h77v-90zM120 622h-77v90h77v-90z" />
    <glyph glyph-name="uni030A" unicode="&#x30a;" horiz-adv-x="0" 
d="M0 574c-26 0 -48 8.83301 -66 26.5s-27 39.167 -27 64.5s9 46.833 27 64.5s40 26.5 66 26.5s48 -8.83301 66 -26.5s27 -39.167 27 -64.5s-9 -46.833 -27 -64.5s-40 -26.5 -66 -26.5zM0 718c-14 0 -26.167 -5.16699 -36.5 -15.5s-15.5 -22.833 -15.5 -37.5
s5.16699 -27.167 15.5 -37.5s22.5 -15.5 36.5 -15.5c14.667 0 27 5.16699 37 15.5s15 22.833 15 37.5s-5 27.167 -15 37.5s-22.333 15.5 -37 15.5z" />
    <glyph glyph-name="uni030B" unicode="&#x30b;" horiz-adv-x="0" 
d="M50 580h-48l63 138h78zM-94 580h-48l63 138h77z" />
    <glyph glyph-name="uni030C" unicode="&#x30c;" horiz-adv-x="0" 
d="M135 718l-97 -138h-76l-97 138h53l82 -92l82 92h53z" />
    <glyph glyph-name="uni0315" unicode="&#x315;" horiz-adv-x="0" 
d="M-8 531h-45l29 187h76z" />
    <glyph glyph-name="uni0327" unicode="&#x327;" horiz-adv-x="0" 
d="M99 -110c0 -23.333 -9.66895 -42.5 -29.002 -57.5s-43.333 -22.5 -72 -22.5c-20.667 0 -39.5 3.66699 -56.5 11s-30.833 17.333 -41.5 30l29 36c10 -12 20.333 -20.833 31 -26.5s22.334 -8.5 35.001 -8.5c16.667 0 29.667 3.5 39 10.5s14 16.833 14 29.5
c0 14 -6.83301 24.5 -20.5 31.5s-35.167 11.167 -64.5 12.5l22 73h39l-12 -42c26.667 -2 47.834 -10 63.501 -24s23.5 -31.667 23.5 -53z" />
    <glyph glyph-name="uni0328" unicode="&#x328;" horiz-adv-x="0" 
d="M15 -187c-23.333 0 -42.8311 7.00195 -58.498 21.002s-23.5 31.667 -23.5 53s6.33301 41.666 19 60.999s40.667 47.333 84 84l23 -27c-32 -30 -52.5 -52 -61.5 -66s-13.5 -28 -13.5 -42c0 -12.667 3.66699 -22.334 11 -29.001s17.666 -10 30.999 -10
c7.33301 0 14.166 0.5 20.499 1.5s13.5 2.83301 21.5 5.5v-44c-9.33301 -2.66699 -18 -4.66699 -26 -6s-17 -2 -27 -2z" />
    <glyph glyph-name="Wgrave" unicode="&#x1e80;" horiz-adv-x="912" 
d="M259 104l166 614h63l166 -614l166 614h70l-199 -718h-69l-166 601l-166 -601h-69l-199 718h71zM376 913l110 -143h-54l-150 143h94z" />
    <glyph glyph-name="wgrave" unicode="&#x1e81;" horiz-adv-x="720" 
d="M214 99l119 423h57l119 -424l123 424h66l-160 -522h-58l-119 423l-121 -423h-58l-160 522h68zM321 718l58 -138h-52l-90 138h84z" />
    <glyph glyph-name="Wacute" unicode="&#x1e82;" horiz-adv-x="912" 
d="M259 104l166 614h63l166 -614l166 614h70l-199 -718h-69l-166 601l-166 -601h-69l-199 718h71zM473 770h-54l110 143h94z" />
    <glyph glyph-name="wacute" unicode="&#x1e83;" horiz-adv-x="720" 
d="M214 99l119 423h57l119 -424l123 424h66l-160 -522h-58l-119 423l-121 -423h-58l-160 522h68zM396 580h-52l58 138h84z" />
    <glyph glyph-name="Wdieresis" unicode="&#x1e84;" horiz-adv-x="912" 
d="M259 104l166 614h63l166 -614l166 614h70l-199 -718h-69l-166 601l-166 -601h-69l-199 718h71zM411 776h-76v89h76v-89zM577 776h-76v89h76v-89z" />
    <glyph glyph-name="wdieresis" unicode="&#x1e85;" horiz-adv-x="720" 
d="M214 99l119 423h57l119 -424l123 424h66l-160 -522h-58l-119 423l-121 -423h-58l-160 522h68zM319 622h-77v90h77v-90zM482 622h-77v90h77v-90z" />
    <glyph glyph-name="Ygrave" unicode="&#x1ef2;" horiz-adv-x="609" 
d="M85 718l220 -348l221 348h74l-261 -410v-308h-69v308l-262 410h77zM250 913l110 -143h-54l-150 143h94z" />
    <glyph glyph-name="ygrave" unicode="&#x1ef3;" horiz-adv-x="505" 
d="M483 522l-230.998 -586c-18 -46 -38.167 -78.167 -60.5 -96.5s-50.5 -27.5 -84.5 -27.5c-8.66699 0 -16.5 0.5 -23.5 1.5s-15.167 2.5 -24.5 4.5v59c8 -2.66699 15.167 -4.5 21.5 -5.5s14.166 -1.5 23.499 -1.5c20 0 36.167 5.66699 48.5 17s24.166 31 35.499 59l30 72
l-196 504h70l161 -426l161 426h69zM224.002 718l58 -138h-52l-90 138h84z" />
    <glyph glyph-name="uni2009" unicode="&#x2009;" horiz-adv-x="100" 
 />
    <glyph glyph-name="endash" unicode="&#x2013;" horiz-adv-x="580" 
d="M521 265h-462v55h462v-55z" />
    <glyph glyph-name="emdash" unicode="&#x2014;" horiz-adv-x="1014" 
d="M955 265h-896v55h896v-55z" />
    <glyph glyph-name="quoteleft" unicode="&#x2018;" horiz-adv-x="197" 
d="M101 590h40v-95h-89v102c0 36 10.667 65 32 87s50.333 33.333 87 34v-40c-22.667 -2 -40 -9.5 -52 -22.5s-18 -31.167 -18 -54.5v-11z" />
    <glyph glyph-name="quoteright" unicode="&#x2019;" horiz-adv-x="197" 
d="M96 623h-40v95h89v-102c0 -36 -10.667 -65 -32 -87s-50.333 -33.333 -87 -34v40c22.667 2 40 9.5 52 22.5s18 31.167 18 54.5v11z" />
    <glyph glyph-name="quotesinglbase" unicode="&#x201a;" horiz-adv-x="197" 
d="M96 11h-40v95h89v-102c0 -36 -10.667 -65 -32 -87s-50.333 -33.333 -87 -34v40c22.667 2 40 9.5 52 22.5s18 31.167 18 54.5v11z" />
    <glyph glyph-name="quotedblleft" unicode="&#x201c;" horiz-adv-x="352" 
d="M101 590h40v-95h-89v102c0 36 10.667 65 32 87s50.333 33.333 87 34v-40c-22.667 -2 -40 -9.5 -52 -22.5s-18 -31.167 -18 -54.5v-11zM256 590h40v-95h-89v102c0 36 10.667 65 32 87s50.333 33.333 87 34v-40c-22.667 -2 -40 -9.5 -52 -22.5s-18 -31.167 -18 -54.5v-11z
" />
    <glyph glyph-name="quotedblright" unicode="&#x201d;" horiz-adv-x="352" 
d="M251 623h-40v95h89v-102c0 -36 -10.667 -65 -32 -87s-50.333 -33.333 -87 -34v40c22.667 2 40 9.5 52 22.5s18 31.167 18 54.5v11zM96 623h-40v95h89v-102c0 -36 -10.667 -65 -32 -87s-50.333 -33.333 -87 -34v40c22.667 2 40 9.5 52 22.5s18 31.167 18 54.5v11z" />
    <glyph glyph-name="quotedblbase" unicode="&#x201e;" horiz-adv-x="352" 
d="M251 11h-40v95h89v-102c0 -36 -10.667 -65 -32 -87s-50.333 -33.333 -87 -34v40c22.667 2 40 9.5 52 22.5s18 31.167 18 54.5v11zM96 11h-40v95h89v-102c0 -36 -10.667 -65 -32 -87s-50.333 -33.333 -87 -34v40c22.667 2 40 9.5 52 22.5s18 31.167 18 54.5v11z" />
    <glyph glyph-name="dagger" unicode="&#x2020;" horiz-adv-x="378" 
d="M216 304h-55v254h-128v55h128v125h55v-125h129v-55h-129v-254z" />
    <glyph glyph-name="daggerdbl" unicode="&#x2021;" horiz-adv-x="378" 
d="M216 304h-55v114h-128v53h128v100h-128v53h128v114h55v-114h129v-53h-129v-100h129v-53h-129v-114z" />
    <glyph glyph-name="bullet" unicode="&#x2022;" horiz-adv-x="388" 
d="M59 292c0 39.333 13 71.833 39 97.5s58.333 38.5 97 38.5c38 0 69.667 -12.833 95 -38.5s38 -58.167 38 -97.5c0 -38.667 -12.667 -70.667 -38 -96s-57 -38 -95 -38c-38.667 0 -71 12.667 -97 38s-39 57.333 -39 96z" />
    <glyph glyph-name="ellipsis" unicode="&#x2026;" horiz-adv-x="612" 
d="M155 0h-89v96h89v-96zM351 0h-89v96h89v-96zM547 0h-89v96h89v-96z" />
    <glyph glyph-name="guilsinglleft" unicode="&#x2039;" horiz-adv-x="212" 
d="M179 96l-146 142v66l146 141v-72l-97 -102l97 -102v-73z" />
    <glyph glyph-name="guilsinglright" unicode="&#x203a;" horiz-adv-x="212" 
d="M179 304v-66l-146 -142v73l97 102l-97 102v72z" />
    <glyph glyph-name="fraction" unicode="&#x2044;" horiz-adv-x="187" 
d="M-197 0l519 718h62l-518 -718h-63z" />
    <glyph glyph-name="uni2070" unicode="&#x2070;" 
d="M189 314c-45.333 0 -81.333 18.667 -108 56s-40 87 -40 149s13.333 111.5 40 148.5s62.667 55.5 108 55.5s81.5 -18.5 108.5 -55.5s40.5 -86.5 40.5 -148.5s-13.5 -111.667 -40.5 -149s-63.167 -56 -108.5 -56zM189 673c-28 0 -50.167 -14 -66.5 -42
s-24.5 -65.333 -24.5 -112s8.16699 -84 24.5 -112s38.5 -42 66.5 -42s50.333 13.833 67 41.5s25 65.167 25 112.5c0 46.667 -8.33301 84 -25 112s-39 42 -67 42z" />
    <glyph glyph-name="uni2074" unicode="&#x2074;" 
d="M275 424v-104h-53v104h-197v43l178 251h72v-248h82v-46h-82zM221 670l-143 -200h143v200z" />
    <glyph glyph-name="uni2075" unicode="&#x2075;" 
d="M191 536c-14 0 -27 -2.83301 -39 -8.5s-22 -13.834 -30 -24.501l-53 8l17 207h219v-49h-175l-11 -125c11.333 11.333 24.166 20 38.499 26s29.5 9 45.5 9c36.667 0 66.667 -12 90 -36s35 -55 35 -93c0 -38.667 -13.333 -71 -40 -97s-60 -39 -100 -39
c-39.333 0 -71.666 10.333 -96.999 31s-41.333 49.667 -48 87l57 11c3.33301 -24.667 12.833 -44.167 28.5 -58.5s35.5 -21.5 59.5 -21.5c23.333 0 43.166 8.33301 59.499 25s24.5 37 24.5 61c0 24.667 -7.66699 45.334 -23 62.001s-34.666 25 -57.999 25z" />
    <glyph glyph-name="uni2076" unicode="&#x2076;" 
d="M207 723c32.667 0 59.666 -7.83398 80.999 -23.501s36.666 -38.834 45.999 -69.501l-48 -17c-5.33301 20.667 -14.833 36.5 -28.5 47.5s-30.5 16.5 -50.5 16.5c-30 0 -54.667 -13 -74 -39s-29 -60.667 -29 -104v-17.5c0 -4.33301 0.333008 -8.16602 1 -11.499
c6 22.667 18.333 41.167 37 55.5s40.334 21.5 65.001 21.5c36.667 0 67.334 -12.5 92.001 -37.5s37 -55.833 37 -92.5c0 -39.333 -13.333 -72.166 -40 -98.499s-59.667 -39.5 -99 -39.5c-46.667 0 -83.167 18 -109.5 54s-39.5 84.667 -39.5 146c0 27.333 3.16699 53 9.5 77
s15.5 45 27.5 63c14.667 22 32.5 39 53.5 51s43.833 18 68.5 18zM196.999 360.999c24 0 44.167 8.5 60.5 25.5s24.5 38.167 24.5 63.5s-8 46.333 -24 63s-36.333 25 -61 25s-45.167 -8.33301 -61.5 -25s-24.5 -37.667 -24.5 -63s8.16699 -46.5 24.5 -63.5
s36.833 -25.5 61.5 -25.5z" />
    <glyph glyph-name="uni2077" unicode="&#x2077;" 
d="M283 670l-190.001 -0.00292969v-67h-48v115h296v-48c-43.333 -47.333 -74.5 -97.666 -93.5 -150.999s-28.5 -119.666 -28.5 -198.999h-62c0 70.667 10.333 134.834 31 192.501s52.334 110.167 95.001 157.5z" />
    <glyph glyph-name="uni2078" unicode="&#x2078;" 
d="M63 616c0 32 11.832 57.833 35.499 77.5s53.834 29.5 90.501 29.5c37.333 0 67.833 -10 91.5 -30s35.5 -45.667 35.5 -77c0 -19.333 -5.33301 -36.5 -16 -51.5s-25.667 -26.5 -45 -34.5c25.333 -7.33301 45.5 -20 60.5 -38s22.5 -38.333 22.5 -61
c0 -34.667 -13.833 -62.667 -41.5 -84s-63.5 -32 -107.5 -32c-43.333 0 -78.833 10.833 -106.5 32.5s-41.5 49.5 -41.5 83.5c0 22.667 7.5 43 22.5 61s35.167 30.667 60.5 38c-19.333 8 -34.333 19.5 -45 34.5s-16 32.167 -16 51.5zM113.999 616
c0 -19.333 6.83203 -34.833 20.499 -46.5s31.834 -17.5 54.501 -17.5c23.333 0 41.833 5.83301 55.5 17.5s20.5 27.167 20.5 46.5c0 18.667 -7 33.834 -21 45.501s-32.333 17.5 -55 17.5c-22 0 -40 -5.83301 -54 -17.5s-21 -26.834 -21 -45.501zM281.998 434
c0 22 -8.66699 40 -26 54s-39.666 21 -66.999 21s-49.5 -7 -66.5 -21s-25.5 -32 -25.5 -54s8.5 -39.833 25.5 -53.5s39.167 -20.5 66.5 -20.5s49.666 6.83301 66.999 20.5s26 31.5 26 53.5z" />
    <glyph glyph-name="uni2079" unicode="&#x2079;" 
d="M172 314c-32 0 -58.832 7.83203 -80.499 23.499s-37.167 38.834 -46.5 69.501l48 18c5.33301 -20.667 14.833 -36.5 28.5 -47.5s30.5 -16.5 50.5 -16.5c30 0 54.667 13 74 39s29 60.667 29 104c0 7.33301 -0.166992 13 -0.5 17s-0.833008 7.66699 -1.5 11
c-6 -22.667 -18.167 -41 -36.5 -55s-39.833 -21 -64.5 -21c-36.667 0 -67.334 12.5 -92.001 37.5s-37 55.833 -37 92.5c0 39.333 13.167 72 39.5 98s59.5 39 99.5 39c46.667 0 83.167 -17.833 109.5 -53.5s39.5 -84.167 39.5 -145.5c0 -27.333 -3.16699 -53 -9.5 -77
s-15.5 -45.333 -27.5 -64c-14.667 -22 -32.5 -39 -53.5 -51s-43.833 -18 -68.5 -18zM182.001 676.999c-24 0 -44.167 -8.5 -60.5 -25.5s-24.5 -38.167 -24.5 -63.5s8 -46.5 24 -63.5s36.333 -25.5 61 -25.5c24 0 44.333 8.5 61 25.5s25 38.167 25 63.5
s-8.16699 46.5 -24.5 63.5s-36.833 25.5 -61.5 25.5z" />
    <glyph glyph-name="uni2080" unicode="&#x2080;" 
d="M189 -126c-45.333 0 -81.333 18.667 -108 56s-40 87 -40 149s13.333 111.5 40 148.5s62.667 55.5 108 55.5s81.5 -18.5 108.5 -55.5s40.5 -86.5 40.5 -148.5s-13.5 -111.667 -40.5 -149s-63.167 -56 -108.5 -56zM189 233c-28 0 -50.167 -14 -66.5 -42
s-24.5 -65.333 -24.5 -112s8.16699 -84 24.5 -112s38.5 -42 66.5 -42s50.333 13.833 67 41.5s25 65.167 25 112.5c0 46.667 -8.33301 84 -25 112s-39 42 -67 42z" />
    <glyph glyph-name="uni2081" unicode="&#x2081;" 
d="M175 -70v242.001h-104v40l48 2c26 1.33301 43.833 6.66602 53.5 15.999s15.5 26.333 17.5 51h43v-351h91v-50h-252v50h103z" />
    <glyph glyph-name="uni2082" unicode="&#x2082;" 
d="M49 -120l0.000976562 47l133 106c29.333 24 49.833 45 61.5 63s17.5 37.667 17.5 59c0 23.333 -7 42 -21 56s-32.667 21 -56 21c-22.667 0 -41.167 -7.16699 -55.5 -21.5s-21.5 -32.5 -21.5 -54.5c0 -8.66699 1 -17.167 3 -25.5s4.66699 -15.5 8 -21.5h-57
c-2.66699 8 -4.83398 16.333 -6.50098 25s-2.5 16.667 -2.5 24c0 35.333 12.833 65 38.5 89s57.167 36 94.5 36c40 0 72 -11.333 96 -34s36 -52.667 36 -90c0 -28.667 -7.5 -55.167 -22.5 -79.5s-39.833 -49.833 -74.5 -76.5l-92 -73h200v-50h-279z" />
    <glyph glyph-name="uni2083" unicode="&#x2083;" 
d="M329 -9c0 -34 -12.668 -62.002 -38.001 -84.002s-58.333 -33 -99 -33s-74.167 10.667 -100.5 32s-42.5 51 -48.5 89l57 12c3.33301 -25.333 13.333 -45.666 30 -60.999s37 -23 61 -23c24.667 0 44.5 6.66699 59.5 20s22.5 31 22.5 53
c0 20.667 -7.66699 37.334 -23 50.001s-35 19 -59 19h-44v43h43c22 0 40.167 5.66699 54.5 17s21.5 26 21.5 44c0 20 -6.66699 35.833 -20 47.5s-31 17.5 -53 17.5c-21.333 0 -39.833 -6.66699 -55.5 -20s-25.5 -31 -29.5 -53l-55 7c6 34 22 61.667 48 83s57.333 32 94 32
c38.667 0 69.5 -10.167 92.5 -30.5s34.5 -46.833 34.5 -79.5c0 -20.667 -7.16699 -39.167 -21.5 -55.5s-32.166 -26.5 -53.499 -30.5c24.667 -4.66699 44.5 -15.5 59.5 -32.5s22.5 -38.167 22.5 -63.5z" />
    <glyph glyph-name="uni2084" unicode="&#x2084;" 
d="M275 -16v-104h-53v104h-197v43l178 251h72v-248h82v-46h-82zM221 230l-143 -200h143v200z" />
    <glyph glyph-name="uni2085" unicode="&#x2085;" 
d="M191 96c-14 0 -27 -2.83301 -39 -8.5s-22 -13.834 -30 -24.501l-53 8l17 207h219v-49h-175l-11 -125c11.333 11.333 24.166 20 38.499 26s29.5 9 45.5 9c36.667 0 66.667 -12 90 -36s35 -55 35 -93c0 -38.667 -13.333 -71 -40 -97s-60 -39 -100 -39
c-39.333 0 -71.666 10.333 -96.999 31s-41.333 49.667 -48 87l57 11c3.33301 -24.667 12.833 -44.167 28.5 -58.5s35.5 -21.5 59.5 -21.5c23.333 0 43.166 8.33301 59.499 25s24.5 37 24.5 61c0 24.667 -7.66699 45.334 -23 62.001s-34.666 25 -57.999 25z" />
    <glyph glyph-name="uni2086" unicode="&#x2086;" 
d="M207 283c32.667 0 59.666 -7.83398 80.999 -23.501s36.666 -38.834 45.999 -69.501l-48 -17c-5.33301 20.667 -14.833 36.5 -28.5 47.5s-30.5 16.5 -50.5 16.5c-30 0 -54.667 -13 -74 -39s-29 -60.667 -29 -104v-17.5c0 -4.33301 0.333008 -8.16602 1 -11.499
c6 22.667 18.333 41.167 37 55.5s40.334 21.5 65.001 21.5c36.667 0 67.334 -12.5 92.001 -37.5s37 -55.833 37 -92.5c0 -39.333 -13.333 -72.166 -40 -98.499s-59.667 -39.5 -99 -39.5c-46.667 0 -83.167 18 -109.5 54s-39.5 84.667 -39.5 146c0 27.333 3.16699 53 9.5 77
s15.5 45 27.5 63c14.667 22 32.5 39 53.5 51s43.833 18 68.5 18zM196.999 -79.001c24 0 44.167 8.5 60.5 25.5s24.5 38.167 24.5 63.5s-8 46.333 -24 63s-36.333 25 -61 25s-45.167 -8.33301 -61.5 -25s-24.5 -37.667 -24.5 -63s8.16699 -46.5 24.5 -63.5
s36.833 -25.5 61.5 -25.5z" />
    <glyph glyph-name="uni2087" unicode="&#x2087;" 
d="M283 230l-190.001 -0.00292969v-67h-48v115h296v-48c-43.333 -47.333 -74.5 -97.666 -93.5 -150.999s-28.5 -119.666 -28.5 -198.999h-62c0 70.667 10.333 134.834 31 192.501s52.334 110.167 95.001 157.5z" />
    <glyph glyph-name="uni2088" unicode="&#x2088;" 
d="M63 176c0 32 11.832 57.833 35.499 77.5s53.834 29.5 90.501 29.5c37.333 0 67.833 -10 91.5 -30s35.5 -45.667 35.5 -77c0 -19.333 -5.33301 -36.5 -16 -51.5s-25.667 -26.5 -45 -34.5c25.333 -7.33301 45.5 -20 60.5 -38s22.5 -38.333 22.5 -61
c0 -34.667 -13.833 -62.667 -41.5 -84s-63.5 -32 -107.5 -32c-43.333 0 -78.833 10.833 -106.5 32.5s-41.5 49.5 -41.5 83.5c0 22.667 7.5 43 22.5 61s35.167 30.667 60.5 38c-19.333 8 -34.333 19.5 -45 34.5s-16 32.167 -16 51.5zM113.999 176
c0 -19.333 6.83203 -34.833 20.499 -46.5s31.834 -17.5 54.501 -17.5c23.333 0 41.833 5.83301 55.5 17.5s20.5 27.167 20.5 46.5c0 18.667 -7 33.834 -21 45.501s-32.333 17.5 -55 17.5c-22 0 -40 -5.83301 -54 -17.5s-21 -26.834 -21 -45.501zM281.998 -6
c0 22 -8.66699 40 -26 54s-39.666 21 -66.999 21s-49.5 -7 -66.5 -21s-25.5 -32 -25.5 -54s8.5 -39.833 25.5 -53.5s39.167 -20.5 66.5 -20.5s49.666 6.83301 66.999 20.5s26 31.5 26 53.5z" />
    <glyph glyph-name="uni2089" unicode="&#x2089;" 
d="M172 -126c-32 0 -58.832 7.83203 -80.499 23.499s-37.167 38.834 -46.5 69.501l48 18c5.33301 -20.667 14.833 -36.5 28.5 -47.5s30.5 -16.5 50.5 -16.5c30 0 54.667 13 74 39s29 60.667 29 104c0 7.33301 -0.166992 13 -0.5 17s-0.833008 7.66699 -1.5 11
c-6 -22.667 -18.167 -41 -36.5 -55s-39.833 -21 -64.5 -21c-36.667 0 -67.334 12.5 -92.001 37.5s-37 55.833 -37 92.5c0 39.333 13.167 72 39.5 98s59.5 39 99.5 39c46.667 0 83.167 -17.833 109.5 -53.5s39.5 -84.167 39.5 -145.5c0 -27.333 -3.16699 -53 -9.5 -77
s-15.5 -45.333 -27.5 -64c-14.667 -22 -32.5 -39 -53.5 -51s-43.833 -18 -68.5 -18zM182.001 236.999c-24 0 -44.167 -8.5 -60.5 -25.5s-24.5 -38.167 -24.5 -63.5s8 -46.5 24 -63.5s36.333 -25.5 61 -25.5c24 0 44.333 8.5 61 25.5s25 38.167 25 63.5
s-8.16699 46.5 -24.5 63.5s-36.833 25.5 -61.5 25.5z" />
    <glyph glyph-name="Euro" unicode="&#x20ac;" horiz-adv-x="616" 
d="M96 260l-80 0.00292969v52h74c-0.666992 11.333 -1.16699 20.5 -1.5 27.5s-0.5 13.5 -0.5 19.5c0 6.66699 0.166992 14 0.5 22s0.833008 18.667 1.5 32h-74v52h81c14.667 82 45.5 146.333 92.5 193s104.167 70 171.5 70c56.667 0 104.5 -14.833 143.5 -44.5
s68.167 -72.834 87.5 -129.501l-63 -25c-14.667 47.333 -35.667 82.333 -63 105s-62.333 34 -105 34c-50 0 -92 -17.667 -126 -53s-57 -85.333 -69 -150h233l-11 -52h-229c-0.666992 -13.333 -1.16699 -24 -1.5 -32s-0.5 -15.333 -0.5 -22c0 -6 0.166992 -12.5 0.5 -19.5
s0.833008 -16.167 1.5 -27.5h208l-10 -52h-192c11.333 -66.667 34 -118.334 68 -155.001s76.667 -55 128 -55c42.667 0 77.667 11.333 105 34s48.333 57.667 63 105l63 -25c-19.333 -56.667 -48.5 -99.834 -87.5 -129.501s-86.833 -44.5 -143.5 -44.5
c-68.667 0 -126.5 24 -173.5 72s-77.5 114 -91.5 198z" />
    <glyph glyph-name="trademark" unicode="&#x2122;" horiz-adv-x="697" 
d="M187 670v-255h-53v255h-101v48h254v-48h-100zM588 654l-84 -240h-36l-84 240v-239h-48v303h74l78 -230l77 230h72v-303h-49v239z" />
    <glyph glyph-name="uni2153" unicode="&#x2153;" horiz-adv-x="889" 
d="M865 111c0 -34 -12.668 -62.002 -38.001 -84.002s-58.333 -33 -99 -33s-74.167 10.667 -100.5 32s-42.5 51 -48.5 89l57 12c3.33301 -25.333 13.333 -45.666 30 -60.999s37 -23 61 -23c24.667 0 44.5 6.66699 59.5 20s22.5 31 22.5 53
c0 20.667 -7.66699 37.334 -23 50.001s-35 19 -59 19h-44v43h43c22 0 40.167 5.66699 54.5 17s21.5 26 21.5 44c0 20 -6.66699 35.833 -20 47.5s-31 17.5 -53 17.5c-21.333 0 -39.833 -6.66699 -55.5 -20s-25.5 -31 -29.5 -53l-55 7c6 34 22 61.667 48 83s57.333 32 94 32
c38.667 0 69.5 -10.167 92.5 -30.5s34.5 -46.833 34.5 -79.5c0 -20.667 -7.16699 -39.167 -21.5 -55.5s-32.166 -26.5 -53.499 -30.5c24.667 -4.66699 44.5 -15.5 59.5 -32.5s22.5 -38.167 22.5 -63.5zM182.999 -0.00195312l519 718h62l-518 -718h-63zM174.999 369.998
v242.001h-104v40l48 2c26 1.33301 43.833 6.66602 53.5 15.999s15.5 26.333 17.5 51h43v-351h91v-50h-252v50h103z" />
    <glyph glyph-name="uni2154" unicode="&#x2154;" horiz-adv-x="899" 
d="M874 111c0 -34 -12.668 -62.002 -38.001 -84.002s-58.333 -33 -99 -33s-74.167 10.667 -100.5 32s-42.5 51 -48.5 89l57 12c3.33301 -25.333 13.333 -45.666 30 -60.999s37 -23 61 -23c24.667 0 44.5 6.66699 59.5 20s22.5 31 22.5 53
c0 20.667 -7.66699 37.334 -23 50.001s-35 19 -59 19h-44v43h43c22 0 40.167 5.66699 54.5 17s21.5 26 21.5 44c0 20 -6.66699 35.833 -20 47.5s-31 17.5 -53 17.5c-21.333 0 -39.833 -6.66699 -55.5 -20s-25.5 -31 -29.5 -53l-55 7c6 34 22 61.667 48 83s57.333 32 94 32
c38.667 0 69.5 -10.167 92.5 -30.5s34.5 -46.833 34.5 -79.5c0 -20.667 -7.16699 -39.167 -21.5 -55.5s-32.166 -26.5 -53.499 -30.5c24.667 -4.66699 44.5 -15.5 59.5 -32.5s22.5 -38.167 22.5 -63.5zM192.999 -0.00195312l519 718h62l-518 -718h-63zM48.999 319.998
l0.000976562 47l133 106c29.333 24 49.833 45 61.5 63s17.5 37.667 17.5 59c0 23.333 -7 42 -21 56s-32.667 21 -56 21c-22.667 0 -41.167 -7.16699 -55.5 -21.5s-21.5 -32.5 -21.5 -54.5c0 -8.66699 1 -17.167 3 -25.5s4.66699 -15.5 8 -21.5h-57
c-2.66699 8 -4.83398 16.333 -6.50098 25s-2.5 16.667 -2.5 24c0 35.333 12.833 65 38.5 89s57.167 36 94.5 36c40 0 72 -11.333 96 -34s36 -52.667 36 -90c0 -28.667 -7.5 -55.167 -22.5 -79.5s-39.833 -49.833 -74.5 -76.5l-92 -73h200v-50h-279z" />
    <glyph glyph-name="uni215B" unicode="&#x215b;" horiz-adv-x="896" 
d="M593 296c0 32 11.832 57.833 35.499 77.5s53.834 29.5 90.501 29.5c37.333 0 67.833 -10 91.5 -30s35.5 -45.667 35.5 -77c0 -19.333 -5.33301 -36.5 -16 -51.5s-25.667 -26.5 -45 -34.5c25.333 -7.33301 45.5 -20 60.5 -38s22.5 -38.333 22.5 -61
c0 -34.667 -13.833 -62.667 -41.5 -84s-63.5 -32 -107.5 -32c-43.333 0 -78.833 10.833 -106.5 32.5s-41.5 49.5 -41.5 83.5c0 22.667 7.5 43 22.5 61s35.167 30.667 60.5 38c-19.333 8 -34.333 19.5 -45 34.5s-16 32.167 -16 51.5zM643.999 296
c0 -19.333 6.83203 -34.833 20.499 -46.5s31.834 -17.5 54.501 -17.5c23.333 0 41.833 5.83301 55.5 17.5s20.5 27.167 20.5 46.5c0 18.667 -7 33.834 -21 45.501s-32.333 17.5 -55 17.5c-22 0 -40 -5.83301 -54 -17.5s-21 -26.834 -21 -45.501zM811.998 114
c0 22 -8.66699 40 -26 54s-39.666 21 -66.999 21s-49.5 -7 -66.5 -21s-25.5 -32 -25.5 -54s8.5 -39.833 25.5 -53.5s39.167 -20.5 66.5 -20.5s49.666 6.83301 66.999 20.5s26 31.5 26 53.5zM182.998 0l519 718h62l-518 -718h-63zM174.998 370v242.001h-104v40l48 2
c26 1.33301 43.833 6.66602 53.5 15.999s15.5 26.333 17.5 51h43v-351h91v-50h-252v50h103z" />
    <glyph glyph-name="uni215C" unicode="&#x215c;" horiz-adv-x="878" 
d="M591 296c0 32 11.832 57.833 35.499 77.5s53.834 29.5 90.501 29.5c37.333 0 67.833 -10 91.5 -30s35.5 -45.667 35.5 -77c0 -19.333 -5.33301 -36.5 -16 -51.5s-25.667 -26.5 -45 -34.5c25.333 -7.33301 45.5 -20 60.5 -38s22.5 -38.333 22.5 -61
c0 -34.667 -13.833 -62.667 -41.5 -84s-63.5 -32 -107.5 -32c-43.333 0 -78.833 10.833 -106.5 32.5s-41.5 49.5 -41.5 83.5c0 22.667 7.5 43 22.5 61s35.167 30.667 60.5 38c-19.333 8 -34.333 19.5 -45 34.5s-16 32.167 -16 51.5zM641.999 296
c0 -19.333 6.83203 -34.833 20.499 -46.5s31.834 -17.5 54.501 -17.5c23.333 0 41.833 5.83301 55.5 17.5s20.5 27.167 20.5 46.5c0 18.667 -7 33.834 -21 45.501s-32.333 17.5 -55 17.5c-22 0 -40 -5.83301 -54 -17.5s-21 -26.834 -21 -45.501zM809.998 114
c0 22 -8.66699 40 -26 54s-39.666 21 -66.999 21s-49.5 -7 -66.5 -21s-25.5 -32 -25.5 -54s8.5 -39.833 25.5 -53.5s39.167 -20.5 66.5 -20.5s49.666 6.83301 66.999 20.5s26 31.5 26 53.5zM178.998 0l519 718h62l-518 -718h-63zM328.998 431
c0 -34 -12.668 -62.002 -38.001 -84.002s-58.333 -33 -99 -33s-74.167 10.667 -100.5 32s-42.5 51 -48.5 89l57 12c3.33301 -25.333 13.333 -45.666 30 -60.999s37 -23 61 -23c24.667 0 44.5 6.66699 59.5 20s22.5 31 22.5 53c0 20.667 -7.66699 37.334 -23 50.001
s-35 19 -59 19h-44v43h43c22 0 40.167 5.66699 54.5 17s21.5 26 21.5 44c0 20 -6.66699 35.833 -20 47.5s-31 17.5 -53 17.5c-21.333 0 -39.833 -6.66699 -55.5 -20s-25.5 -31 -29.5 -53l-55 7c6 34 22 61.667 48 83s57.333 32 94 32c38.667 0 69.5 -10.167 92.5 -30.5
s34.5 -46.833 34.5 -79.5c0 -20.667 -7.16699 -39.167 -21.5 -55.5s-32.166 -26.5 -53.499 -30.5c24.667 -4.66699 44.5 -15.5 59.5 -32.5s22.5 -38.167 22.5 -63.5z" />
    <glyph glyph-name="uni215D" unicode="&#x215d;" horiz-adv-x="878" 
d="M575 296c0 32 11.832 57.833 35.499 77.5s53.834 29.5 90.501 29.5c37.333 0 67.833 -10 91.5 -30s35.5 -45.667 35.5 -77c0 -19.333 -5.33301 -36.5 -16 -51.5s-25.667 -26.5 -45 -34.5c25.333 -7.33301 45.5 -20 60.5 -38s22.5 -38.333 22.5 -61
c0 -34.667 -13.833 -62.667 -41.5 -84s-63.5 -32 -107.5 -32c-43.333 0 -78.833 10.833 -106.5 32.5s-41.5 49.5 -41.5 83.5c0 22.667 7.5 43 22.5 61s35.167 30.667 60.5 38c-19.333 8 -34.333 19.5 -45 34.5s-16 32.167 -16 51.5zM625.999 296
c0 -19.333 6.83203 -34.833 20.499 -46.5s31.834 -17.5 54.501 -17.5c23.333 0 41.833 5.83301 55.5 17.5s20.5 27.167 20.5 46.5c0 18.667 -7 33.834 -21 45.501s-32.333 17.5 -55 17.5c-22 0 -40 -5.83301 -54 -17.5s-21 -26.834 -21 -45.501zM793.998 114
c0 22 -8.66699 40 -26 54s-39.666 21 -66.999 21s-49.5 -7 -66.5 -21s-25.5 -32 -25.5 -54s8.5 -39.833 25.5 -53.5s39.167 -20.5 66.5 -20.5s49.666 6.83301 66.999 20.5s26 31.5 26 53.5zM162.998 0l519 718h62l-518 -718h-63zM190.998 536c-14 0 -27 -2.83301 -39 -8.5
s-22 -13.834 -30 -24.501l-53 8l17 207h219v-49h-175l-11 -125c11.333 11.333 24.166 20 38.499 26s29.5 9 45.5 9c36.667 0 66.667 -12 90 -36s35 -55 35 -93c0 -38.667 -13.333 -71 -40 -97s-60 -39 -100 -39c-39.333 0 -71.666 10.333 -96.999 31s-41.333 49.667 -48 87
l57 11c3.33301 -24.667 12.833 -44.167 28.5 -58.5s35.5 -21.5 59.5 -21.5c23.333 0 43.166 8.33301 59.499 25s24.5 37 24.5 61c0 24.667 -7.66699 45.334 -23 62.001s-34.666 25 -57.999 25z" />
    <glyph glyph-name="uni215E" unicode="&#x215e;" horiz-adv-x="838" 
d="M535 296c0 32 11.832 57.833 35.499 77.5s53.834 29.5 90.501 29.5c37.333 0 67.833 -10 91.5 -30s35.5 -45.667 35.5 -77c0 -19.333 -5.33301 -36.5 -16 -51.5s-25.667 -26.5 -45 -34.5c25.333 -7.33301 45.5 -20 60.5 -38s22.5 -38.333 22.5 -61
c0 -34.667 -13.833 -62.667 -41.5 -84s-63.5 -32 -107.5 -32c-43.333 0 -78.833 10.833 -106.5 32.5s-41.5 49.5 -41.5 83.5c0 22.667 7.5 43 22.5 61s35.167 30.667 60.5 38c-19.333 8 -34.333 19.5 -45 34.5s-16 32.167 -16 51.5zM585.999 296
c0 -19.333 6.83203 -34.833 20.499 -46.5s31.834 -17.5 54.501 -17.5c23.333 0 41.833 5.83301 55.5 17.5s20.5 27.167 20.5 46.5c0 18.667 -7 33.834 -21 45.501s-32.333 17.5 -55 17.5c-22 0 -40 -5.83301 -54 -17.5s-21 -26.834 -21 -45.501zM753.998 114
c0 22 -8.66699 40 -26 54s-39.666 21 -66.999 21s-49.5 -7 -66.5 -21s-25.5 -32 -25.5 -54s8.5 -39.833 25.5 -53.5s39.167 -20.5 66.5 -20.5s49.666 6.83301 66.999 20.5s26 31.5 26 53.5zM122.998 0l519 718h62l-518 -718h-63zM282.998 670l-190.001 -0.00292969v-67h-48
v115h296v-48c-43.333 -47.333 -74.5 -97.666 -93.5 -150.999s-28.5 -119.666 -28.5 -198.999h-62c0 70.667 10.333 134.834 31 192.501s52.334 110.167 95.001 157.5z" />
    <glyph glyph-name="minus" unicode="&#x2212;" horiz-adv-x="608" 
d="M556 312h-504v60h504v-60z" />
    <glyph glyph-name="uniF6C3" unicode="&#xf6c3;" horiz-adv-x="600" 
d="M301 -113h-32v66h78v-59c0 -26 -8.83301 -47 -26.5 -63s-41.5 -24.333 -71.5 -25v32c18 1.33301 31 5.83301 39 13.5s12.333 19.5 13 35.5z" />
    <glyph glyph-name="acute.cap" horiz-adv-x="600" 
d="M230 770h-54l110 143h94z" />
    <glyph glyph-name="breve.cap" horiz-adv-x="600" 
d="M300 816c28 0 50.667 8.83301 68 26.5s26.333 41.167 27 70.5h51c0 -43.333 -13.333 -78.166 -40 -104.499s-62 -39.5 -106 -39.5s-79.333 13.167 -106 39.5s-40 61.166 -40 104.499h51c0.666992 -29.333 9.66699 -52.833 27 -70.5s40 -26.5 68 -26.5z" />
    <glyph glyph-name="circumflex.cap" horiz-adv-x="600" 
d="M259 913h82l118 -143h-55l-104 99l-104 -99h-55z" />
    <glyph glyph-name="dieresis.cap" horiz-adv-x="600" 
d="M255 776h-76v89h76v-89zM421 776h-76v89h76v-89z" />
    <glyph glyph-name="grave.cap" horiz-adv-x="600" 
d="M291 913l110 -143h-54l-150 143h94z" />
    <glyph glyph-name="macron.cap" horiz-adv-x="600" 
d="M450 843v-54h-300v54h300z" />
    <glyph glyph-name="tilde.cap" horiz-adv-x="600" 
d="M228 897c12 0 24 -2.66699 36 -8s27.667 -16 47 -32c14.667 -12.667 26 -21 34 -25s15.667 -6 23 -6c16 0 28.5 5.66699 37.5 17s15.167 29.333 18.5 54h49c-3.33301 -40 -13.833 -71 -31.5 -93s-41.167 -33 -70.5 -33c-12 0 -23.833 2.5 -35.5 7.5
s-26.834 15.5 -45.501 31.5c-15.333 13.333 -27 21.833 -35 25.5s-15.667 5.5 -23 5.5c-16.667 0 -29.5 -5.83301 -38.5 -17.5s-14.833 -29.5 -17.5 -53.5h-49c3.33301 40 13.833 71.167 31.5 93.5s40.834 33.5 69.501 33.5z" />
    <glyph glyph-name="caron.cap" horiz-adv-x="600" 
d="M459 912l-118 -143h-82l-118 143h55l104 -99l104 99h55z" />
    <glyph glyph-name="dotaccent.cap" horiz-adv-x="600" 
d="M339 776h-78v89h78v-89z" />
    <glyph glyph-name="caron.Slovak" horiz-adv-x="600" 
d="M292 531h-45l29 187h76z" />
    <glyph glyph-name="hungarumlaut.cap" horiz-adv-x="600" 
d="M352 770h-52l97 143h84zM180 770h-53l98 143h83z" />
    <glyph glyph-name="ring.cap" horiz-adv-x="600" 
d="M300 757c-30 0 -55.333 10.167 -76 30.5s-31 45.166 -31 74.499s10.333 54 31 74s46 30 76 30s55.333 -10 76 -30s31 -44.667 31 -74s-10.333 -54.166 -31 -74.499s-46 -30.5 -76 -30.5zM300 922c-16.667 0 -30.667 -5.83301 -42 -17.5s-17 -25.834 -17 -42.501
c0 -17.333 5.66699 -31.833 17 -43.5s25.333 -17.5 42 -17.5s30.667 5.83301 42 17.5s17 26.167 17 43.5c0 16.667 -5.66699 30.834 -17 42.501s-25.333 17.5 -42 17.5z" />
    <glyph glyph-name="a.1" horiz-adv-x="519" 
d="M441 383l0.00195312 -279.001c0 -20 0.666992 -39.167 2 -57.5s3 -33.833 5 -46.5h-66c-0.666992 6 -1.33398 13.667 -2.00098 23s-1.33398 23.666 -2.00098 42.999c-16.667 -22.667 -40 -41 -70 -55s-62 -21 -96 -21c-49.333 0 -90 13.833 -122 41.5
s-48 63.834 -48 108.501c0 46 17 82.833 51 110.5s89.333 48.834 166 63.501l117 23v37c0 32 -10.333 56.5 -31 73.5s-50 25.5 -88 25.5s-68.167 -8.33301 -90.5 -25s-35.833 -41 -40.5 -73h-66c6 49.333 26.667 87.833 62 115.5s81 41.5 137 41.5
c56.667 0 101.167 -13.167 133.5 -39.5s48.5 -62.833 48.5 -109.5zM218.002 44.999c43.333 0 80.5 12.668 111.5 38.001s46.5 55.333 46.5 90v111l-99 -19c-63.333 -12 -107.333 -27.5 -132 -46.5s-37 -44.833 -37 -77.5c0 -28.667 10.167 -51.834 30.5 -69.501
s46.833 -26.5 79.5 -26.5z" />
    <glyph glyph-name="g.1" horiz-adv-x="540" 
d="M118 227c-19.333 16 -34.1729 35.0029 -44.5059 57.0029s-15.5 46.333 -15.5 73c0 51.333 18.333 93.333 55 126s83.667 49 141 49c34.667 0 66.334 -6.33301 95.001 -19s51.667 -30.667 69 -54c8.66699 26.667 24.834 46 48.501 58s50.167 15 79.5 9v-66
c-12 5.33301 -24 7.66602 -36 6.99902s-23 -4.33398 -33 -11.001c-8.66699 -6 -15.5 -14.333 -20.5 -25s-8.16699 -23.334 -9.5 -38.001c1.33301 -4.66699 2.33301 -10 3 -16s1 -12.667 1 -20c0 -51.333 -18.333 -93.333 -55 -126s-84 -49 -142 -49
c-17.333 0 -33.666 1.5 -48.999 4.5s-29.666 7.5 -42.999 13.5c-13.333 -1.33301 -24.333 -6.66602 -33 -15.999s-13 -20.333 -13 -33c0 -14 5.33301 -25.333 16 -34s24.667 -13 42 -13h184c52.667 0 92.667 -10.333 120 -31s41 -50.667 41 -90
c0 -54 -24.167 -96.333 -72.5 -127s-114.166 -46 -197.499 -46c-74 0 -132 12.667 -174 38s-63 61 -63 107c0 26 7.66699 48.833 23 68.5s36.333 34.5 63 44.5c-13.333 8.66699 -23.666 19.167 -30.999 31.5s-11 26.166 -11 41.499c0 19.333 5.5 36.5 16.5 51.5
s26.167 26.5 45.5 34.5zM253.993 236.003c39.333 0 71.166 11.167 95.499 33.5s36.5 51.5 36.5 87.5s-12.167 65.167 -36.5 87.5s-56.166 33.5 -95.499 33.5c-38.667 0 -70 -11.167 -94 -33.5s-36 -51.5 -36 -87.5s12 -65.167 36 -87.5s55.333 -33.5 94 -33.5z
M75.9932 -34.9971c0 -32.667 15.165 -57.499 45.498 -74.499s73.833 -25.5 130.5 -25.5c64 0 114 9.66699 150 29s54 46.333 54 81c0 25.333 -8.16699 43.666 -24.5 54.999s-43.166 17 -80.499 17h-173c-31.333 0 -56.166 -7.33301 -74.499 -22s-27.5 -34.667 -27.5 -60z
" />
    </font>
</defs>
</svg>
